<svg xmlns="http://www.w3.org/2000/svg" width="512" height="512" viewBox="0 0 512 512"><path d="M400 113.3h-80v-20c0-16.2-13.1-29.3-29.3-29.3h-69.5C205.1 64 192 77.1 192 93.3v20h-80V128h21.1l23.6 290.7c0 16.2 13.1 29.3 29.3 29.3h141c16.2 0 29.3-13.1 29.3-29.3L379.6 128H400v-14.7zm-193.4-20c0-8.1 6.6-14.7 14.6-14.7h69.5c8.1 0 14.6 6.6 14.6 14.7v20h-98.7v-20zm135 324.6v.8c0 8.1-6.6 14.7-14.6 14.7H186c-8.1 0-14.6-6.6-14.6-14.7v-.8L147.7 128h217.2l-23.3 289.9z"/><path d="M249 160h14v241h-14zM320 160h-14.6l-10.7 241h14.6zM206.5 160H192l10.7 241h14.6z"/></svg>