<svg xmlns="http://www.w3.org/2000/svg" width="512" height="512" viewBox="0 0 512 512"><path d="M464 256c0-114.863-93.13-208-208-208-114.863 0-208 93.136-208 208 0 114.863 93.137 208 208 208 2.54 0 5.068-.062 7.587-.152a202.8 202.8 0 0 0 4.258-.19c.85-.048 1.698-.105 2.547-.162.64-.044 1.28-.08 1.917-.13 1.353-.104 2.704-.22 4.054-.352v-.01c97.47-9.473 175.23-86.228 186.274-183.222h.057a208.68 208.68 0 0 0 1.196-16.05h-.048c.095-2.566.158-5.14.158-7.732zm-17.335 0c0 2.568-.066 5.12-.167 7.664-23.64-1.076-46.677-6.106-68.616-15.005-25.79-10.46-48.938-25.832-68.797-45.692-19.86-19.86-35.233-43.007-45.692-68.797-8.903-21.955-13.935-45.013-15.006-68.67 2.527-.1 5.063-.164 7.614-.164 105.13 0 190.665 85.533 190.665 190.664zm-381.328 0c0-1.318.023-2.63.05-3.942 22.476 1.38 44.388 6.337 65.3 14.817 25.79 10.458 48.938 25.83 68.798 45.69s35.232 43.008 45.69 68.8c8.475 20.895 13.43 42.79 14.815 65.248-1.328.027-2.656.05-3.99.05-105.13 0-190.664-85.533-190.663-190.663zm210.606 189.623c-3.273-52.566-24.974-104.198-65.145-144.37-40.186-40.185-91.84-61.888-144.427-65.15 9.173-88.052 78.52-158.477 166.075-169.312 2.595 53.64 24.36 106.526 65.326 147.49 40.95 40.953 93.812 62.714 147.434 65.323-10.853 87.515-81.247 156.83-169.26 166.02z"/></svg>