<svg xmlns="http://www.w3.org/2000/svg" width="512" height="512" viewBox="0 0 512 512"><path d="M160 400c-13.248 0-24 10.752-24 24s10.752 24 24 24 24-10.752 24-24-10.752-24-24-24zm0 32c-4.41 0-8-3.59-8-8s3.59-8 8-8 8 3.59 8 8-3.59 8-8 8zM384.5 400c-13.248 0-24 10.752-24 24s10.752 24 24 24 24-10.752 24-24-10.752-24-24-24zm0 32c-4.41 0-8-3.59-8-8s3.59-8 8-8 8 3.59 8 8-3.59 8-8 8zM448 128L123.177 95.646c-1.628-6.972-4.37-14.66-11.838-20.667C102.024 67.49 86.98 64 64 64v16c18.614 0 31.167 2.507 37.312 7.448 4.458 3.585 5.644 8.423 7.165 15.99l-.024.003 42.052 233.64c2.413 14.42 7.194 25.208 13.29 32.985C171.044 379.312 180.534 384 192 384h240v-16H192c-4.727 0-19.136.123-25.75-33.755l-5.428-30.16L432 256l16-128zm-29.41 114.348l-260.6 45.99-31.733-176.3 303.87 30.608-11.537 99.702z"/></svg>