<svg xmlns="http://www.w3.org/2000/svg" viewBox="0 0 512 512"><path d="M475.9 234c-14.4-16.3-41.2-30.8-41.2-30.8l15.5-3.1c7.1 0 22.4-2.3 25.5-5.4 3.1-3.2 4.2-5.4 4.2-8.2s-1.7-7.7-4.8-11.1c-3-3.4-16-5.2-23.7-6.2-7.6-1-8.7 0-10.7 1.2-2.3 1.5-3 11.7-3.2 17l-8.1 1.8c-4.8-12.5-11.4-35.6-21.5-54-11.5-20.8-23.5-27.4-28.5-29-4.9-1.5-9.4-2.6-43-6.1-33.7-3.6-63-4.1-80.4-4.1s-46.7.5-80.6 4.1c-33.6 3.4-38.1 4.5-43 6.1-5 1.6-17 8.2-28.5 29-10.1 18.4-16.7 41.5-21.5 54l-8.1-1.8c-.2-5.3-.9-15.6-3.2-17-2-1.3-3-2.2-10.7-1.2-7.6 1-20.6 2.8-23.7 6.2-3 3.4-4.7 8.3-4.7 11.1 0 2.8 1.1 5.1 4.2 8.3 3.1 3.2 18.5 5.4 25.5 5.4l15.5 3.1S50.4 217.9 36 234.1c0 0-4.1 24.7-4.1 58.1 0 48 5.8 88.4 5.8 88.4 26.5 4.6 46.2 6.3 65.9 6.8 9.9.2 18.9.2 29.2.1 24.8-.3 15.6-7.5 27.1-7.3 11.3.2 55 4 96 4s84.7-3.8 96-4c11.5-.2 2.3 7.1 27.1 7.3 10.3.1 19.4.1 29.2-.1 19.7-.5 39.5-2.2 65.9-6.8 0 0 5.8-40.3 5.8-88.4.1-33.6-4-58.2-4-58.2zm-365.5-79.1c4.3-10.1 14-27.1 22.1-32.8 0 0 47-10.1 123.5-10.1s123.5 10.1 123.5 10.1c8.1 5.6 17.8 22.6 22.1 32.8 4.3 10.1 11.4 33.8 10.3 36.5-1.1 2.7 1.1 4.1-13.4 2.9-14.4-1.1-99.5-2.3-142.5-2.3s-128.1 1.2-142.5 2.3c-14.5 1.2-12.4-.2-13.4-2.9-1.1-2.8 6-26.4 10.3-36.5zm13.4 115.9c-9.9 0-29.8-1-34.5-1.2-4.7-.1-8.8 3.8-11.2 3.8s-25.5-3.6-28-14.9c-2.5-11.2 0-23 0-22.8 15.5-.7 30.5-.2 58.5 7.8 28.1 7.9 43.6 23.3 43.6 23.3s-18.5 4-28.4 4zm218.4 69c-12.7 1.7-58.5 2.2-86.2 2.2s-73.5-.5-86.2-2.2c-13.1-1.7-29.8-17.3-18.4-30.2 7.6-8.5 20.8-13.6 48.9-17.3 29.8-3.8 48.6-4.3 55.6-4.3s25.8.5 55.6 4.3c28.1 3.7 43.2 9.6 48.9 17.3 10.4 13.8-5.1 28.4-18.2 30.2zm119.7-81.2c-2.5 11.2-25.6 14.9-28 14.9-2.4 0-6.5-3.9-11.2-3.8-4.7.2-24.6 1.2-34.5 1.2s-28.4-4-28.4-4 15.5-15.4 43.6-23.3c28-8 43-8.5 58.5-7.8 0-.2 2.5 11.5 0 22.8zM401 412.3c0 2.1 1.2 3.7 3.1 3.7h56.5c4.9 0 5.9-3.5 6.2-5.5 1.4-8.4 2-21.3 2-21.3-25.7 4.7-48.8 5.5-67.8 6v17.1zM45.1 410.5c.3 2 1.3 5.5 6.2 5.5H108c1.9 0 3.1-1.6 3.1-3.7v-17.1c-19-.5-42.2-1.3-67.9-6-.1.1.5 12.9 1.9 21.3z"/></svg>