<svg xmlns="http://www.w3.org/2000/svg" viewBox="0 0 512 512"><path d="M256 48C141.1 48 48 141.1 48 256s93.1 208 208 208 208-93.1 208-208S370.9 48 256 48zm-.1 398.6c-52.4.1-99.9-21.2-134.5-55.6L110 378.5c-3.1-3.7-6-7.4-8.8-11.3 4.7-4 10.1-7.5 15.8-9.6 10.5-4 22.4-3.8 33.3-6.6 9-2.3 20.2-5.9 27.2-12.4 6.4-6 7.1-15.2 7.7-23.5.5-7 .4-13.9.4-20.9 0-4.9-5.7-7.7-8.5-11.6-4.5-6.1-4.7-15.2-5.6-22.5-.4-3.2-.5-7.3-3.2-9.5-3-2.4-5.2-3.7-6.7-7.5-2-5.2-2.7-10.8-4.3-16.2-1-3.5 2.5-6.8 3.9-9.7 2.6-5.3-1.9-13.5-2.8-19-2.8-16.4-2.7-34.3 9.1-47.3 23.7-26.2 78-17.9 85.8 18.9 2.4 11.5.9 24.9-2.3 36.1-1.4 4.8-3 8.3-.2 13 4.2 6.8 2.4 11.2.4 18.8-1.6 6.3-3.6 9.1-8.4 13-4 3.2-3.4 11.2-4.1 15.8-.8 5.6-1.3 11.5-4.7 16.2-1.3 1.8-8.4 7.4-8.4 9.3 0 11-.5 22.2 1.4 33.1 2.6 15.5 15.6 19.2 28.6 24.5 13.2 5.1 28.5 3.2 41.3 9.5 13.2 6.5 25.9 18.4 29.7 33.1 0 0 2.2 19.1 2.1 40-22.4 9.2-47 14.4-72.8 14.4zm146.2-68.2l-.1-.1-11.6 12.6c-13.4 13.3-28.7 24.7-45.6 33.6l-.3-16.6c0-29.5-17.8-55.5-45.8-65.2-13.5-4.7-28.1-5-41.6-9.7-4.1-1.4-12.2-3.1-13.9-7.8-1.6-4.6-1.6-10-1.9-14.8-.2-3.8-.3-7.6-.3-11.4 0-2.5 6.4-7.8 7.8-10.1 5.4-9 5.9-21.1 6.9-31.3 8.7 2.4 9.8-13.7 11.3-18.6 1.1-3.4 5-20.9-2.6-23.6 2.5-4.4 3.5-9.8 4.2-14.7 2-12.8 2.8-26.8-1.1-39.3-8.1-26-33-40.6-59.3-41.4-26.7-.9-53.5 11.9-63.5 37.8-4.8 12.6-4.4 26.3-2.8 39.5.7 6 1.7 12.7 4.7 18.1-6.4 2.8-4.5 17.7-3.4 21.3 1.6 5.1 3 23.4 12.1 20.9.8 8.1 1.7 16.4 3.9 24.3 1.5 5.3 4.6 9.8 8.2 13.9 1.8 2 2.7 2.2 2.6 4.8-.1 7.8.1 16.2-1.9 23.8s-18.7 10.8-25.4 12.2c-18 3.7-34.6 5.4-49.6 16.6-.3.2-.5.4-.7.6-17.2-28.6-27.1-62.1-27.1-97.8 0-105.1 85.6-190.7 190.7-190.7S446.7 150.8 446.7 256c0 29.6-6.8 57.7-18.9 82.7-4.4-12.8-15.2-22.4-28.5-26.8-8.1-2.6-23.7-3.4-29.5-10.4-2.9-3.5-1-16.6-1-16.6 25.2-1.4 31-6.1 31-6.1 3.9-2.3 2.1-2.7.1-6.1-10.9-18.3-6-41.5-6.5-61.6-.4-16.7-4.8-35-20-44.4-7.6-4.7-19.7-6.9-31.4-6.9-9.5 0-18.7 1.4-25.3 4.1-42.4 17-17.4 73.2-31.9 105.4-2.5 5.4-6.1 7.3.2 10.5 0 0 7.5 4.4 28.9 6.3 0 0 .3 12.6 0 13.9-1.1 4.9-11.8 8.3-15.8 9.4-4.1 1.1-15.4 4.6-29.1 11.3 0 0 15.2 1.5 25 4.9 6.8-4.6 16.9-5.7 24-8.8 7.1-3.1 10.3-5.8 11.6-13.3s-.5-33.2-.5-33.2c-12.2.9-26.9-1.7-26.9-1.7 4.1-13.2 4-27.7 4-41.7 0-12.2-.1-23.8 2.6-32.7 2.4-8 6.4-12.5 14-15.5 4.4-1.8 11.8-2.9 19.2-2.9 11.6 0 19.6 2.4 23 4.5 9.8 6.1 12.2 20.3 12.4 31.2.1 4.5-.1 9.4-.3 14.6-.5 13.3-1.2 27.9 3.3 42h-.2s-13.3 1.8-26.3.3l-1.4 17.3c-.7 7.1-1.9 17.9 4.8 26 7.7 9.3 20.2 11.9 30.2 13.9 2.6.5 5.2 1.1 6.7 1.5 7.6 2.5 20.7 9.4 22.4 31.3-4.3 7-9.2 13.7-14.5 20z"/></svg>