<svg xmlns="http://www.w3.org/2000/svg" width="512" height="512" viewBox="0 0 512 512"><path d="M394.6 341.2c-29.5 0-53.4 23.9-53.4 53.4s23.9 53.4 53.4 53.4 53.4-23.9 53.4-53.4-23.9-53.4-53.4-53.4zm0 90.8c-20.6 0-37.4-16.8-37.4-37.4 0-20.6 16.8-37.4 37.4-37.4S432 374 432 394.6c0 20.6-16.8 37.4-37.4 37.4zM256 341.2c-29.5 0-53.4 23.9-53.4 53.4S226.5 448 256 448s53.4-23.9 53.4-53.4-23.9-53.4-53.4-53.4zm0 90.8c-20.6 0-37.4-16.8-37.4-37.4 0-20.6 16.8-37.4 37.4-37.4s37.4 16.8 37.4 37.4c0 20.6-16.8 37.4-37.4 37.4zM117.4 341.2c-29.5 0-53.4 23.9-53.4 53.4S87.9 448 117.4 448s53.4-23.9 53.4-53.4-23.9-53.4-53.4-53.4zm0 90.8C96.8 432 80 415.2 80 394.6c0-20.6 16.8-37.4 37.4-37.4s37.4 16.8 37.4 37.4c0 20.6-16.7 37.4-37.4 37.4zM394.6 202.6c-29.5 0-53.4 23.9-53.4 53.4s23.9 53.4 53.4 53.4S448 285.5 448 256s-23.9-53.4-53.4-53.4zm0 90.8c-20.6 0-37.4-16.8-37.4-37.4 0-20.6 16.8-37.4 37.4-37.4S432 235.4 432 256c0 20.6-16.8 37.4-37.4 37.4zM256 202.6c-29.5 0-53.4 23.9-53.4 53.4s23.9 53.4 53.4 53.4 53.4-23.9 53.4-53.4-23.9-53.4-53.4-53.4zm0 90.8c-20.6 0-37.4-16.8-37.4-37.4 0-20.6 16.8-37.4 37.4-37.4s37.4 16.8 37.4 37.4c0 20.6-16.8 37.4-37.4 37.4zM117.4 202.6C87.9 202.6 64 226.5 64 256s23.9 53.4 53.4 53.4 53.4-23.9 53.4-53.4-23.9-53.4-53.4-53.4zm0 90.8C96.8 293.4 80 276.6 80 256c0-20.6 16.8-37.4 37.4-37.4s37.4 16.8 37.4 37.4c0 20.6-16.7 37.4-37.4 37.4zM394.6 170.8c29.5 0 53.4-23.9 53.4-53.4S424.1 64 394.6 64s-53.4 23.9-53.4 53.4 23.9 53.4 53.4 53.4zm0-90.8c20.6 0 37.4 16.8 37.4 37.4 0 20.6-16.8 37.4-37.4 37.4s-37.4-16.8-37.4-37.4c0-20.6 16.7-37.4 37.4-37.4zM256 64c-29.5 0-53.4 23.9-53.4 53.4s23.9 53.4 53.4 53.4 53.4-23.9 53.4-53.4S285.5 64 256 64zm0 90.8c-20.6 0-37.4-16.8-37.4-37.4 0-20.6 16.8-37.4 37.4-37.4s37.4 16.8 37.4 37.4c0 20.6-16.8 37.4-37.4 37.4zM117.4 64C87.9 64 64 87.9 64 117.4s23.9 53.4 53.4 53.4 53.4-23.9 53.4-53.4S146.9 64 117.4 64zm0 90.8C96.8 154.8 80 138 80 117.4 80 96.8 96.8 80 117.4 80s37.4 16.8 37.4 37.4c0 20.6-16.7 37.4-37.4 37.4z"/></svg>