<svg xmlns="http://www.w3.org/2000/svg" width="512" height="512" viewBox="0 0 512 512"><path d="M397.6 146.7l-1.8-1.7h18.4l8.5 7.8 22.5-22.8-40.8-40.3-23.2 22.3 8.8 9.2v18.6l-5-4.7c-31.3-28.3-70-45.2-113-48.9V48h-32v38h-2c-43.7 3-85 22.5-116 53v-17.8l8.9-9.2L108 89.8 67.2 130l22.5 22.8 8.5-7.8H116c-.3 0-.7.7-1 1.1-32.8 35.1-51 80.9-51 128.5C64 379 150.1 464 256.1 464 361.9 464 448 379.1 448 274.7c0-47.6-18-93.1-50.4-128zM264 318.2l-8 17.8-8-17.8c-14-3.5-24-15.8-24-30.5 0-13.8 11.5-26 24-30.3V128h16v129.3c13.5 3.7 24 15.9 24 30.4 0 14.7-10 27-24 30.5z"/></svg>