<svg xmlns="http://www.w3.org/2000/svg" viewBox="0 0 512 512"><path d="M416 416c-8.5 18.7-24 16-63.9 16 0 10.5-1.1 16 3.3 16h55.1c4.7 0 4.2-3.8 5.5-32zM96 416c1.5 28.4.8 32 5.5 32h55.1c4.4 0 3.3-5.5 3.3-16-39.9 0-50.4 3-63.9-16z"/><circle cx="352" cy="352" r="24"/><circle cx="160" cy="352" r="24"/><path d="M384 64H128c-17.6 0-32 14.4-32 32v280c0 22 18 40 40 40h240c22 0 40-18 40-40V96c0-17.6-14.4-32-32-32zm16 312c0 13.2-10.8 24-24 24H136c-13.2 0-24-10.8-24-24v-72h288v72zM112 272V144.2c0-8.8 7.4-16.2 16.2-16.2H248v160H128.2c-8.8 0-16.2-7.2-16.2-16zm288 0c0 8.8-7.2 16-16 16H264V128h120c8.8 0 16 7.4 16 16.2V272zm-16-160H128c-8.8 0-16-7.2-16-16s7.2-16 16-16h256c8.8 0 16 7.2 16 16s-7.2 16-16 16z"/></svg>