<svg xmlns="http://www.w3.org/2000/svg" viewBox="0 0 512 512"><path d="M32 400h448v16H32zM200 384h80c8.8 0 58-12 94.7-80.4 3.1.3 6.2.4 9.3.4 53 0 96-39.4 96-88 0-38.6-27.1-71.4-64.9-83.3.6-11.7.9-23.9.9-36.7H64c0 256 121 288 136 288zm264-168c0 39.7-35.9 72-80 72h-1.6c15.2-33.6 27.2-78.6 31.7-138.7C443.3 160 464 185.9 464 216zM80.2 112h319.6c-1.1 49.2-7.3 92.9-18.4 130.1-9.7 32.4-23.2 59.9-40.1 81.7-24.5 31.7-50.8 44.2-60.7 44.2h-80.1c-11.8 0-37.2-12.6-61.7-44.2-16.9-21.8-30.4-49.3-40.1-81.7-11.2-37.2-17.4-80.9-18.5-130.1z"/></svg>