<svg xmlns="http://www.w3.org/2000/svg" viewBox="0 0 512 512"><path d="M447.2 125l-52.5 52.7-51.2-9.3-9.2-51.2 52.5-52.7C375.7 53.4 360 48 347.9 48c-.7 0-1.4 0-2 .1-12.5.7-39.3 7.7-60 29.7-20.1 21.2-41.1 60.6-22.5 104.5 2.2 5.3 4.7 12.3-2.7 19.7C253.1 209.4 61 390.3 61 390.3c-18 15.5-16.7 44.2-.1 60.9 8.5 8.4 20 12.8 31.3 12.8 11.1 0 21.9-4.2 29.6-13.1 0 0 179.4-191.1 188.2-199.8 4-3.9 7.7-5.1 11.1-5.1 3.3 0 6.3 1.2 8.6 2.4 9.9 5.1 21 7.4 32.4 7.4 26.8 0 55-12.4 72.2-29.6 24.4-24.4 28.9-48 29.6-60.1.8-11.9-3.4-27.8-16.7-41.1z"/></svg>