<svg xmlns="http://www.w3.org/2000/svg" viewBox="0 0 512 512"><path d="M219.2 400.9l7.2 22.4 14.4-9zM285.9 423.4l7.3-22.8-22 13.7zM240.8 261.9l-.6-.4c-20.1-2.5-36.9-9.8-49.1-21.9-4.1 5-11.8 9-20 11.6L181 282l4.6 14.2 9.2-5.7 46-28.6zM194.7 309.5l-4.1 2.5 15.4 47.8 34.8-21.7zM256 347.6l-45 27.9-1.1.7 1.7 1.1 44.4 27.6 44.8-27.9 1.3-.8-.8-.5zM302.1 300L256 271.4 209.9 300l46.1 28.7zM320.9 239.7c-12.2 12.1-29 19.4-49.1 21.9l-.6.4 46.1 28.7 9.5 5.9 4.8-14.8 9.8-30.3c-8.4-2.7-16.3-6.7-20.5-11.8zM231.4 439l2.6 8s7.5 19 22 19c15 0 22.2-19 22.2-19l2.5-7.8-24.7-15.5-24.6 15.3zM271.2 338.1l35.1 21.9 15.5-47.8-4.5-2.7z"/><path d="M380.4 163.9c-11 12.7-28.1 16.8-28.1 16.8 8.7-6 15.6-21.6 15.6-21.6v-.8C368 96.3 317.9 46 256 46S144 96.7 144 158.7v1.3h.3s7 15.1 15.6 21.1c0 0-17.2-4.3-28.2-17.1-11.8 7-19.8 19.7-19.8 34.5 0 22.1 17.9 40 40 40 12.5 0 31.7-5.8 39.1-14.9 15.3 15.2 37.8 22.8 64.9 22.8s49.7-7.7 64.9-22.9c7.3 9.1 26.5 14.8 39.1 14.8 22.1 0 40-18 40-40.1.1-14.5-7.8-27.3-19.5-34.3z"/></svg>