<svg xmlns="http://www.w3.org/2000/svg" viewBox="0 0 512 512"><path d="M256 48C141.1 48 48 141.1 48 256s93.1 208 208 208 208-93.1 208-208S370.9 48 256 48zm135.8 72.2c17.6 17.6 31.5 38.2 41.2 61 2.7 6.3 5 12.8 7 19.4l-101.1 6.8c-8.2-14-19.9-25.7-33.9-34l6.5-101.3c6.5 2 13 4.3 19.3 7 22.8 9.7 43.3 23.5 61 41.1zM448 256c0 13.5-1.4 26.7-4.1 39.6l-97.6-7c3.7-10.2 5.7-21.2 5.7-32.7 0-11.4-2-22.4-5.7-32.6l97.6-7c2.7 13 4.1 26.2 4.1 39.7zm-192 80c-44.1 0-80-35.9-80-80s35.9-80 80-80 80 35.9 80 80-35.9 80-80 80zM64 256c0-13.5 1.4-26.7 4.1-39.6l97.6 7c-3.7 10.2-5.7 21.1-5.7 32.6 0 11.4 2 22.4 5.7 32.6l-97.6 7.1c-2.7-13-4.1-26.2-4.1-39.7zM295.6 68.1l-6.8 97.7c-10.2-3.7-21.3-5.8-32.8-5.8-11.5 0-22.5 2-32.8 5.7l-6.9-97.6c12.9-2.7 26.2-4.1 39.6-4.1 13.6 0 26.8 1.4 39.7 4.1zm-175.4 52.1c17.6-17.6 38.2-31.5 61-41.2 6.3-2.7 12.8-5 19.3-7l6.5 101.3c-13.9 8.3-25.6 20-33.9 33.9L72 200.5c2-6.5 4.3-13 7-19.3 9.8-22.8 23.6-43.3 41.2-61zm0 271.6c-17.6-17.6-31.5-38.2-41.2-61-2.7-6.3-5-12.8-7-19.3l101.3-6.5c8.2 13.9 19.9 25.5 33.8 33.8L200.5 440c-6.5-2-13-4.3-19.3-7-22.8-9.8-43.3-23.6-61-41.2zm96.2 52.1l7-97.6c10.2 3.7 21.2 5.7 32.6 5.7 11.5 0 22.6-2 32.9-5.8l6.8 97.7c-12.9 2.7-26.2 4.1-39.6 4.1-13.6 0-26.8-1.4-39.7-4.1zm175.4-52.1c-17.6 17.6-38.2 31.5-61 41.2-6.3 2.7-12.8 5-19.3 7l-6.7-101.1c14.1-8.3 25.8-20.1 34.1-34.2l101.1 6.8c-2 6.5-4.3 13-7 19.4-9.8 22.7-23.6 43.2-41.2 60.9z"/></svg>