<svg xmlns="http://www.w3.org/2000/svg" viewBox="0 0 512 512"><path d="M256 48C141.1 48 48 141.1 48 256s93.1 208 208 208 208-93.1 208-208S370.9 48 256 48zm88.5 360c0-29.5-17.8-55.5-45.8-65.2-13.5-4.7-28.1-5-41.6-9.7-4.1-1.4-12.2-3.1-13.9-7.8-1.6-4.6-1.6-10-1.9-14.8-.2-3.8-.3-7.6-.3-11.4 0-2.5 6.4-7.8 7.8-10.1 5.4-9 5.9-21.1 6.9-31.3 8.7 2.4 9.8-13.7 11.3-18.6 1.1-3.4 5-20.9-2.6-23.6 2.5-4.4 3.5-9.8 4.2-14.7 2-12.8 2.8-26.8-1.1-39.3-8.1-26-33-40.6-59.3-41.4-26.7-.9-53.5 11.9-63.5 37.8-4.8 12.6-4.4 26.3-2.8 39.5.7 6 1.7 12.7 4.7 18.1-6.4 2.8-4.5 17.7-3.4 21.3 1.6 5.1 3 23.4 12.1 20.9.8 8.1 1.7 16.4 3.9 24.3 1.5 5.3 4.6 9.8 8.2 13.9 1.8 2 2.7 2.2 2.6 4.8-.1 7.8.1 16.2-1.9 23.8s-18.7 10.8-25.4 12.2c-18 3.7-34.6 5.4-49.6 16.6-.3.2-.5.4-.7.6-17.2-28.6-27.1-62.1-27.1-97.8C65.3 151 150.9 65.4 256 65.4S446.7 150.8 446.7 256c0 29.6-6.8 57.7-18.9 82.7-4.4-12.8-15.2-22.4-28.5-26.8-8.1-2.6-23.7-3.4-29.5-10.4-2.9-3.5-1-16.6-1-16.6 25.2-1.4 31-6.1 31-6.1 3.9-2.3 2.1-2.7.1-6.1-10.9-18.3-6-41.5-6.5-61.6-.4-16.7-4.8-35-20-44.4-7.6-4.7-19.7-6.9-31.4-6.9-9.5 0-18.7 1.4-25.3 4.1-42.4 17-17.4 73.2-31.9 105.4-2.5 5.4-6.1 7.3.2 10.5 0 0 7.5 4.4 28.9 6.3 0 0 .3 12.6 0 13.9-1.1 4.9-11.8 8.3-15.8 9.4-4.1 1.1-15.4 4.6-29.1 11.3 0 0 15.2 1.5 25 4.9 0 0 26.4 6 46 25 18 17.4 20.6 38.7 21 64.3-5.2 3.5-10.6 6.7-16.2 9.6l-.3-16.5z"/></svg>