<svg xmlns="http://www.w3.org/2000/svg" width="512" height="512" viewBox="0 0 512 512"><path d="M462.686 279.37c.132-1.183.257-2.366.37-3.555l.01-.117c.61-6.485.934-13.053.934-19.698 0-114.863-93.13-208-208-208-7.95 0-15.792.462-23.512 1.33l-.27.03v.002C135.208 60.41 58.442 138.2 48.988 235.687h-.003c-.072.748-.13 1.497-.195 2.246a205.782 205.782 0 0 0-.353 4.743c-.026.418-.056.835-.08 1.254-.064 1.12-.116 2.245-.163 3.37-.01.282-.02.563-.032.844A211.116 211.116 0 0 0 48 256c0 114.863 93.137 208 208 208 2.627 0 5.24-.065 7.843-.162a227.567 227.567 0 0 0 4.202-.193c.455-.025.907-.058 1.36-.086 1.604-.104 3.2-.223 4.795-.36.703-.062 1.41-.116 2.112-.185v-.004c97.494-9.45 175.28-86.215 186.326-183.228h.004c.016-.137.028-.275.044-.413zM446.666 256c0 2.568-.067 5.122-.168 7.666a207.715 207.715 0 0 1-30.614-3.664l6.11-19.056-15.232-4.884-6.488 20.235a207.82 207.82 0 0 1-22.442-7.638 207.424 207.424 0 0 1-14.625-6.605l11.518-17.003-13.247-8.974-12.36 18.246c-12.24-7.35-23.702-15.977-34.304-25.812l14.73-14.73-11.313-11.313-14.73 14.73c-9.554-10.298-17.963-21.41-25.174-33.255l18.487-12.522-8.972-13.246-17.323 11.735a207.82 207.82 0 0 1-7.174-15.74 208.075 208.075 0 0 1-7.327-21.352l20.812-6.673-4.885-15.234-19.71 6.32a207.82 207.82 0 0 1-3.897-31.73c2.544-.1 5.097-.166 7.665-.166C361.133 65.335 446.666 150.87 446.666 256zm-381.33 0c0-1.317.024-2.63.05-3.94a207.7 207.7 0 0 1 26.892 3.41l-7.115 22.19 15.235 4.886 7.5-23.39a208.056 208.056 0 0 1 22.738 7.72c5.175 2.1 10.24 4.404 15.197 6.896l-13.405 19.79 13.246 8.973 14.22-20.992c12.037 7.28 23.32 15.793 33.764 25.483l-16.853 16.853 11.313 11.313 16.854-16.854c9.968 10.743 18.7 22.368 26.114 34.795l-20.753 14.058 8.972 13.246 19.473-13.19a208.258 208.258 0 0 1 14.363 37.893l-22.83 7.32 4.883 15.233 21.53-6.903a207.698 207.698 0 0 1 3.216 25.822c-1.312.026-2.623.05-3.94.05-105.13 0-190.664-85.535-190.663-190.665zm210.557 189.63a225.09 225.09 0 0 0-3.86-29.747l24.1-7.727-4.883-15.232-22.896 7.34a222.73 222.73 0 0 0-16.234-42.053l20.172-13.663-8.973-13.246-18.99 12.863a223.836 223.836 0 0 0-28.04-37.145l17.082-17.08-11.313-11.314-17.083 17.08a223.96 223.96 0 0 0-36.108-27.413l12.695-18.742-13.246-8.972-13.447 19.85a222.682 222.682 0 0 0-42.094-16.494l7.157-22.325-15.235-4.885-7.52 23.452a224.982 224.982 0 0 0-30.81-4.067c9.168-88.037 78.492-158.454 166.023-169.31a225.012 225.012 0 0 0 4.543 35.338l-25.935 8.316 4.885 15.235 24.903-7.985a222.673 222.673 0 0 0 16.387 41.246l-22.322 15.12 8.973 13.247 21.236-14.385c7.688 12.528 16.735 24.455 27.116 35.59l-19.204 19.204 11.313 11.314 19.203-19.205a223.968 223.968 0 0 0 36.647 27.746l-14.555 21.486 13.248 8.974 15.328-22.628a222.64 222.64 0 0 0 41.23 16.118l-8.168 25.477 15.232 4.884 8.525-26.59a225.095 225.095 0 0 0 34.223 4.31c-10.856 87.53-81.273 156.853-169.31 166.022z"/></svg>