<svg xmlns="http://www.w3.org/2000/svg" viewBox="0 0 512 512"><path d="M267.2 202c-7 0-14.9 1.3-23.3 2.9-11.9 2.3-20 7.1-20 7.1s3.5 27.3 0 58.5-8 42.5-8 42.5 5.2 12.1 40 15c3.9.3 7.6.5 11 .5 24.5 0 36.4-7.3 36.4-7.3s3.6-5.4 4.6-22.2c1.9-32.1-6.7-68.4-16.5-85.5-4.8-8.6-13.4-11.5-24.2-11.5zm24.7 96c-.3 5.1-.9 8.7-1.4 11.1-4.5 1.5-12.3 3.3-23.6 3.3-3.1 0-6.4-.1-9.7-.4-11.9-1-19-3.1-23.1-4.8 1.7-7.4 3.9-18.8 5.7-34.9 2.2-20.1 1.8-38.5 1.1-50 1.8-.6 3.9-1.1 6.1-1.5 6.1-1.2 13.8-2.5 20.2-2.5 8.4 0 9.7 2.2 10.3 3.3 4.1 7.1 8.1 19.3 10.9 32.4 3.1 14.9 4.3 30.6 3.5 44zM84.4 112C57.9 112 32 180.5 32 256s23 144 51.5 144c33.4 0 116.5-80 116.5-80s5.7-12.6 9.9-33.6l1.8-10.4c.7-4.7 1.3-9.7 1.7-15 .3-3.5.5-6.8.6-9.9l.3-9.8c.8-16-2.5-32.6-2.5-32.6-22.1-40.2-92.3-96.7-127.4-96.7zm59.8 235.5C100.9 382.2 86.1 384 83.5 384c-3.2 0-12.6-8.1-21.3-33-9-25.7-14.2-60.3-14.2-95 0-33 5.3-66.9 14.6-92.9 9.9-27.7 19.8-34.8 21.8-35.1 3.3 0 11 1 24.5 7.8 10.6 5.3 22.4 12.9 34.3 22.2 23.1 17.9 43.3 39.3 53.2 56.3.7 4.1 1.9 13.1 1.9 22.2-8.1-3.5-20.9-7.9-38.7-11.4-28-5.5-42.4-3.1-43-3-.9.2-1.6 1-1.7 1.9 0 1 .7 1.8 1.6 2 .2 0 18.8 3.8 56.9 16.9 8.5 2.9 14.3 5 19 6.7 2 .7 3.7 1.3 5.4 1.9-.1 2.8-.3 5.5-.5 8.3-.4 4.5-.9 9.2-1.5 13.7l-.5 2.8c-5.5 2-13.1 4.5-21.7 6.8-17 4.5-38 10-38 10-1 .3-1.6 1.2-1.5 2.3.2 1 1.1 1.7 2.1 1.7 1.6-.1 35.4-2.7 56.3-6.8-2.3 9.8-4.8 17-6.2 20.6-5.9 5.6-22.8 21.2-42.1 36.6zM427.6 112c-36.4 0-102.4 56.5-124.3 96.8l-.8 1.4s1.4 2.5 1.9 3.4c3.4 6 6.7 14.3 9.4 24l2.9 11.7c2.2 10.2 3.7 21.2 4.2 32.2l.2 9c0 2.9-.1 5.7-.3 8.5-1 16.7-4.6 22.1-4.6 22.1 7.6 10.5 75 78.9 112.2 78.9 28.5 0 51.5-68.5 51.5-144s-25.8-144-52.3-144zm.9 272c-11.4 0-32.7-11.9-57.1-31.9-16.2-13.3-29.8-26.8-37-34.5 1.1-4.5 1.9-10.3 2.4-17.7.1-1.6.2-3.3.2-5 21.1 5.7 60.2 9.6 62.1 9.8h.2c.9 0 1.8-.7 2-1.6.2-1-.4-2-1.4-2.3-.2-.1-21.7-6.6-40.5-11.5-8.8-2.3-16.6-4.9-22.4-7.1v-1.1l.1-.2v-.2c-.9-10.7-2-22-4.2-32.8 20.4-11.3 63-30.5 63.5-30.7.9-.4 1.4-1.4 1.1-2.4-.3-1-1.2-1.6-2.2-1.4-.2 0-15.4 2.6-35.3 9.6-10.1 3.5-21.3 7.4-30.5 10.6l-.1-.3-.1-.3c-2.4-8.6-5.3-16.4-8.4-22.7 10.6-16.7 28.9-36.3 49.2-52.7 27.2-21.9 47.5-29.7 57.5-29.7 2 .3 11.9 7.3 21.8 35.1 9.3 26.1 14.6 60 14.6 92.9 0 34.7-5.2 69.3-14.2 95-8.7 25-18.1 33.1-21.3 33.1z"/></svg>