<svg xmlns="http://www.w3.org/2000/svg" width="512" height="512" viewBox="0 0 512 512"><path d="M256 47.96c17.645 0 32 14.35 32 31.99s-14.355 31.99-32 31.99-32-14.35-32-31.99 14.355-31.99 32-31.99m0-15.996c-26.51 0-48 21.483-48 47.986 0 26.502 21.49 47.985 48 47.985s48-21.483 48-47.985c0-26.503-21.49-47.986-48-47.986zM424 144H88c-13.255 0-24 10.747-24 24s10.745 24 24 24h100.45c5.55 0 13.198 4.295 17.217 14.708 4.65 12.055 2.37 33.33-.54 51.444l-3.922 21.26c-.02.104-.205.1-.205.203l-32.23 172.238c-2.302 13.05 6.488 25.494 19.54 27.797a24.52 24.52 0 0 0 4.22.367c11.356 0 20.916-8.19 22.97-19.836L236 340.243v.166S243.25 309 255.452 309h1.096C269 309 274 340.408 274 340.408v-.082l21.483 119.895c2.052 11.643 12.33 19.816 23.763 19.816 1.387 0 2.855-.12 4.268-.368 13.053-2.303 21.82-14.76 19.52-27.81l-32.35-172.252c-.002-.008.01-.02.01-.027-.02-.105-.033-.218-.053-.323l-3.77-21.41c-2.91-18.12-5.188-39.084-.538-51.138C310.352 196.294 318.5 192 323.55 192H424c13.255 0 24-10.747 24-24s-10.745-24-24-24zM88 176.113c-4.41 0-8-3.646-8-8.057 0-4.41 3.59-8.057 8-8.057h336c4.41 0 8 3.59 8 8s-3.59 8-8 8H322.5c-15.538 0-27.438 14.737-30.982 23.92-4.846 12.558-5.004 31.943-.388 60.69l-.01.103.007.11 3.367 19.138.562 3.242 32.252 171.628c.5 2.834-.62 4.96-1.332 5.977-.713 1.017-2.335 2.8-5.18 3.3a8.324 8.324 0 0 1-1.426.127c-3.893 0-7.207-2.64-7.883-6.472L290.255 338h-.015c-.27-2-1.828-10.05-5.022-18.77-2.278-6.218-4.844-11.035-7.844-15.006-7.09-9.388-15.24-11.224-20.826-11.224h-1.096c-5.47 0-13.503 1.73-20.71 10.938-3.05 3.896-5.73 8.67-8.19 14.802-3.628 9.037-5.505 17.654-5.708 18.613l-.11.37-20.728 119.9c-.693 3.885-3.75 6.595-7.44 6.595-.46 0-.933-.043-1.404-.127-2.84-.5-4.455-2.274-5.165-3.287a7.96 7.96 0 0 1-1.323-5.975l32.257-171.562.005-.02.174-.926 3.774-21.33.022-.125.02-.126c4.63-28.83 4.528-48.3-.33-60.892-3.544-9.18-13.577-23.737-31.76-23.737"/></svg>