<svg xmlns="http://www.w3.org/2000/svg" viewBox="0 0 512 512"><path d="M278.6 346.5l-67.9 67.9c-15 15-35.1 23.3-56.6 23.3s-41.5-8.3-56.6-23.3c-15-15-23.3-35.1-23.3-56.6s8.3-41.5 23.3-56.6l67.9-67.9c3.9-3.9 8.1-7.3 12.5-10.2 5.1-3.4 10.6-6.1 16.3-8.2 5.3-1.9 10.8-3.3 16.5-4.1 3.7-.5 7.4-.8 11.2-.8 1.7 0 3.4.1 5.1.2 19.5 1.2 37.6 9.3 51.5 23.1 13.8 13.8 21.9 32 23.1 51.5 5.4-1 10.7-2.7 15.6-5-2.2-21.1-11.4-41.7-27.5-57.8-16.1-16.1-36.6-25.3-57.8-27.5-5.7-.6-11.5-.7-17.2-.3-6 .4-11.9 1.4-17.7 3-6.1 1.6-12.1 3.8-17.8 6.7-9.1 4.5-17.7 10.5-25.3 18.1L86 289.9c-37.3 37.3-37.3 98.4 0 135.8 37.3 37.3 98.4 37.3 135.8 0l67.9-67.9c7.6-7.6 13.6-16.1 18.1-25.3-6.4 1-12.8 1.5-19.2 1.5-2.7 4.5-6.1 8.7-10 12.5z"/><path d="M425.7 86.3c-37.3-37.3-98.4-37.3-135.8 0L222 154.2c-7.6 7.6-13.6 16.1-18.1 25.3 6.4-1 12.8-1.5 19.2-1.5 2.9-4.5 6.3-8.7 10.2-12.5l67.9-67.9c15-15 35.1-23.3 56.6-23.3s41.5 8.3 56.6 23.3c15 15 23.3 35.1 23.3 56.6 0 21.4-8.3 41.5-23.3 56.6l-67.9 67.9c-3.9 3.9-8.1 7.3-12.5 10.2-5.1 3.4-10.6 6.1-16.3 8.2-5.3 1.9-10.8 3.3-16.5 4.1-3.7.5-7.4.8-11.2.8-1.7 0-3.4-.1-5.1-.2-19.5-1.2-37.6-9.3-51.5-23.1-13.8-13.8-21.9-32-23.1-51.5-5.4 1-10.7 2.7-15.6 5 2.2 21.1 11.4 41.7 27.5 57.8 16.1 16.1 36.6 25.3 57.8 27.5 5.7.6 11.5.7 17.2.3 6-.4 11.9-1.4 17.7-3 6.1-1.6 12.1-3.8 17.8-6.7 9.1-4.5 17.7-10.5 25.3-18.1l67.9-67.9c37.1-37.4 37.1-98.5-.2-135.8z"/></svg>