<svg xmlns="http://www.w3.org/2000/svg" width="512" height="512" viewBox="0 0 512 512"><path d="M447.1 256.2C401.8 204 339.2 144 256 144c-33.6 0-64.4 9.5-96.9 29.8C131.7 191 103.6 215.2 65 255l-1 1 6.7 6.9C125.8 319.3 173.4 368 256 368c36.5 0 71.9-11.9 108.2-36.4 30.9-20.9 57.2-47.4 78.3-68.8l5.5-5.5-.9-1.1zM256 336c-44.1 0-80-35.9-80-80s35.9-80 80-80 80 35.9 80 80-35.9 80-80 80z"/><path d="M250.4 226.8c0-6.9 2-13.4 5.5-18.8-26.5 0-47.9 21.6-47.9 48.2s21.5 48.1 47.9 48.1 48-21.5 48-48.1c-5.4 3.5-11.9 5.5-18.8 5.5-19.1-.1-34.7-15.7-34.7-34.9z"/></svg>