<svg xmlns="http://www.w3.org/2000/svg" viewBox="0 0 512 512"><path d="M384 144H80c-17.6 0-32 14.4-32 32v160c0 17.6 14.4 32 32 32h304c17.6 0 32-14.4 32-32V176c0-17.6-14.4-32-32-32zm16 192c0 8.8-7.2 16-16 16H80c-8.8 0-16-7.2-16-16V176c0-8.8 7.2-16 16-16h304c8.8 0 16 7.2 16 16v160z"/><path d="M370 176H94c-8.8 0-14 5.2-14 14v132c0 8.8 5.2 14 14 14h276c8.8 0 14-5.2 14-14V190c0-8.8-5.2-14-14-14zM218.8 308l8.4-43H200l45.2-61-8.4 43H264l-45.2 61zM432 200.6v110.8c19.1-11.1 32-31.7 32-55.4s-12.9-44.3-32-55.4z"/></svg>