<svg xmlns="http://www.w3.org/2000/svg" width="512" height="512" viewBox="0 0 512 512"><path d="M451.23 188.098C432.68 169.968 407.95 160 381.584 160c-26.363 0-51.095 9.967-69.642 28.098l-42.23 41.187 13.65 13.447 42.23-41.306c14.932-14.53 34.763-22.573 55.877-22.573 21.113 0 40.946 8.044 55.878 22.573 30.797 30.14 30.797 79.13 0 109.148-14.932 14.53-34.765 22.573-55.878 22.573-21.114 0-40.945-8.044-55.878-22.573l-125.52-122.476C181.405 169.968 156.674 160 130.426 160c-26.363 0-51.095 9.967-69.643 28.098C41.614 206.808 32.02 231.44 32 256c-.02 24.61 9.573 49.15 28.784 67.902C79.332 342.032 104.064 352 130.427 352c26.365 0 51.095-9.968 69.645-28.098l42.11-41.186-13.646-13.33-42.23 41.188c-14.93 14.53-34.763 22.573-55.878 22.573-21.113 0-40.944-8.044-55.876-22.573-30.8-30.14-30.8-79.13 0-109.148 14.932-14.53 34.763-22.573 55.876-22.573 21.115 0 40.947 8.044 55.88 22.573l125.52 122.477C330.49 342.033 355.22 352 381.47 352c26.363 0 51.095-9.968 69.643-28.098C470.36 305.23 479.985 280.6 480 256c.015-24.6-9.58-49.17-28.77-67.902z"/></svg>