<svg xmlns="http://www.w3.org/2000/svg" viewBox="0 0 512 512"><path d="M467.7 269.2c-4.3-30.9-14.4-57.3-33.8-57.3l-7.6.1c-30.6-62-94.2-103.5-166.6-103.5-3.5 0-7 .1-10.5.3-85.8 4.8-154.7 66.7-171.7 146.8l-11.4 1.6c-17.2 2.4-26.9 34.8-21.6 72.5 5 36.2 22.1 64 38.6 64 .7 0 1.4 0 2-.1l15.7-2.2c32.9 53.5 92.1 88.7 158.5 88.7 3.5 0 7-.1 10.5-.3 85.2-4.7 153.8-65.9 171.4-145.2l7.4-.4c15.2-2.5 23.8-31.4 19.1-65zM106.2 374.4l-23.1 3.2c-1.1-.3-5.6-3-10.8-12.2-5.7-10-9.9-23.5-11.9-38s-1.6-28.6 1.1-39.8c2.5-10.2 6.1-14 7.1-14.7l21.6-3c7.2 12.9 13.6 30 16.5 49.3 3 20.9 4 40.7-.5 55.2zm344.9-69.1c-1.8 8-4.3 11.8-5.5 13l-17.5 1-2.6 11.8c-4 17.9-10.8 34.9-20.3 50.7-9.4 15.5-21.1 29.4-34.9 41.2-28.6 24.6-63.7 38.7-101.4 40.8-3.2.2-6.4.3-9.6.3-29.4 0-58.4-7.7-83.9-22.2-24.9-14.2-46-34.5-60.9-58.9l-5.1-8.3c8-11.9 12.8-31.6 9.6-57.5-2.8-22.6-15.4-40.5-27.4-50.8l1.6-7.4c7.6-35.8 27.1-68.7 54.9-92.9 28.7-24.9 64.1-39.1 102.1-41.2 3.2-.2 6.8-.3 9.8-.3 32.2 0 63.2 9 90.3 26a168.5 168.5 0 0 1 61.7 68.5l3.6 7.5c8.1 19 12.5 37.1 13.9 57.5 1.5-25.3-2.1-42.7-7.1-56l11.5-.1c3.4 0 6.9 5.9 8.3 8.5 4.2 8 7.5 20.1 9.6 35.1 1.7 12.1 1.5 24.1-.7 33.7z"/><ellipse transform="rotate(-93.182 272.86 364.837) scale(1.00004)" cx="272.9" cy="364.8" rx="15.4" ry="15.4"/><path d="M352.8 344.8c-8.5.5-15 7.7-14.5 16.2s7.7 15 16.2 14.5 15-7.7 14.5-16.2c-.4-8.5-7.7-15-16.2-14.5zM168 73.6c2.1 1.4 5 2.4 8.6 3 2.5.4 5.3.6 8.3.6 1.2 0 2.4 0 3.6-.1 1 0 1.9-.1 2.9-.2-.4-.4-.8-.9-1.2-1.3h-2.5c-3.8 0-7.4-.3-10.4-.9-3.5-.7-6.7-2.1-8.4-3.4-1.6-1.4-1.3-3.7-1.3-3.7.3-2.6 2.4-4.8 5.4-7.4 2.7-2.3 6.4-4.7 10.8-7l3.1-1.5c-.8 3.3-.9 6.9-.2 10.5 2.1 10.9 10.9 18.9 21.4 20.4l4.7 23.1 15.8-3.2-4.6-22.8c9.4-5.1 14.8-15.8 12.8-26.9-.7-3.5-2-6.7-3.9-9.5-1.8-.3-4.3-.5-7.2-.5-5.6 0-13.1.6-22 2.6 1.1-.3 2.1-.7 3.2-1 7.6-2.1 14.5-3.5 21.5-4.2 8.6-1 15-.3 16.6-.1s3 .5 4.3.9c-.8 1.2-1.2 2.7-1.2 4.2 0 3.3 2.1 6.2 5 7.4-.2.3-.5.6-.7.9-.8.9-1.8 1.9-2.9 2.8-1.1.9-2.2 1.8-3.5 2.7l-6.5 3.8-.3 1.5c.1 0 .2-.1.2-.1l8.3-4.7c1.2-.8 2.4-1.6 3.4-2.4 1.2-.9 2.2-1.8 3.1-2.8l1-1h.9c4.4 0 8-3.6 8-8s-3.6-8-8-8c-1.6 0-3.1.5-4.4 1.3-1.8-.8-3.6-1.3-6.4-1.8-2.8-.5-11.8-1.2-19.6-.3-3.1-2.3-8.9-4.2-13.9-4.2-1.6 0-3.1.1-4.7.4-7.9 1.5-14.2 6.5-17.7 13 0 0-11.7 4.5-19.6 11.7-3.2 2.9-5 6.4-5.3 8.3-.7 2.9.3 5.8 3.5 7.9zm43.6-27.3c5.8 0 10.5 4.7 10.5 10.5s-4.7 10.5-10.5 10.5-10.5-4.7-10.5-10.5 4.7-10.5 10.5-10.5z"/></svg>