<svg xmlns="http://www.w3.org/2000/svg" viewBox="0 0 512 512"><path d="M190.1 133.1c16.1 1.9 32.8 10.8 46.9 24.9l167.7 167.7 59.3-59.3L286.2 88.7c-54.3-54.3-143.2-54.3-197.5 0-54.3 54.3-54.3 143.2 0 197.5L266.5 464l59.3-59.3-167.7-167.6c-14.4-14.4-23.4-30.9-25.4-46.6-2.1-16 3.1-30.4 15.3-42.6 11.5-11.6 26.1-16.7 42.1-14.8zm254.1 133.4L404.7 306l-29.6-29.6 39.5-39.5 29.6 29.6zM306 404.7l-39.5 39.5-29.6-29.6 39.5-39.5 29.6 29.6zM148.2 246.9l118.3 118.3-39.5 39.5L98.6 276.4C75 252.7 62 221.2 62 187.5s13-65.2 36.6-88.9C122.2 75 153.8 62 187.5 62s65.2 13 88.9 36.6L404.7 227l-39.5 39.5-118.3-118.3c-32.7-32.7-78-41-108.9-10.1-32 32-22.5 76.1 10.2 108.8z"/></svg>