<svg xmlns="http://www.w3.org/2000/svg" width="512" height="512" viewBox="0 0 512 512"><path d="M438.4 192.4c12.2-14.2 19.6-32.3 19.6-52.2.1-43.8-35.5-79.6-80.4-82.1-1.6-.1-3.1-.1-4.8-.1-20.4-.1-39.1 6.8-53.8 18.1l53.8 52.4-10.5 10.4c-25.7-19.4-57-32-91-34.9v-.1c0-8.5-7-15.5-15.5-15.5s-15.5 7-15.5 15.5v.1c-33.9 2.9-65.1 15.5-90.7 34.9l-10.4-10.4L193 76.1c-14.7-11.4-33.4-18.2-53.7-18.1-1.6 0-3.2.1-4.8.1-45 2.5-80.6 38.3-80.4 82.1 0 19.8 7.4 38 19.6 52.2l54-52.6 9.5 9.5c-35.1 31.9-57.1 78-57.1 129.2 0 43.9 16.2 84 43 114.7l-36.4 44.6L99 448l35.2-42.9c31.6 30.2 74.4 48.9 121.6 48.9h.4c47.2 0 90.2-18.7 121.8-48.9l35.2 43 12.3-10.1-36.5-44.7c26.8-30.8 43-70.9 43-114.7 0-51.1-22-97.3-57.2-129.3l9.5-9.5 54.1 52.6zM76.2 167.8c-4.2-8.6-6.4-18.4-6.5-28-.1-35.1 28.4-64.6 65.5-66.8 12.7-.7 23.1 1.4 32.1 6.1l-91.1 88.7zm339.7 108.7c0 87.7-72 157.1-160.1 157.1-88 0-159.8-69.4-159.8-157.1 0-87.7 71.8-158.7 159.9-158.7 88.1 0 160 70.9 160 158.7zM344.7 79.2c8.8-4.8 19.3-6.8 32.1-6.1 37.2 2 65.6 31.5 65.5 66.8 0 9.6-2.3 19.4-6.5 28.1l-91.1-88.8z"/><path d="M256 160v128h-96v16h112V160z"/></svg>