<svg xmlns="http://www.w3.org/2000/svg" width="512" height="512" viewBox="0 0 512 512"><path d="M308.076 203.93c-11.058 0-20.076 9.013-20.076 20.103 0 11.09 9.02 20.107 20.076 20.107 11.13 0 20.148-9.02 20.148-20.107 0-11.09-9.017-20.104-20.148-20.104zM351.988 247.878c-11.058 0-20.053 8.95-20.053 20.106 0 11.064 8.995 20.016 20.053 20.016 11.146 0 20.148-8.95 20.148-20.016 0-11.157-9.002-20.106-20.148-20.106zM135.234 184.367C113.594 184.367 96 202.17 96 224.01c0 21.865 17.594 39.623 39.234 39.623 21.655 0 39.25-17.758 39.25-39.623 0-21.84-17.594-39.643-39.25-39.643zm-.11 59.09c-10.69 0-19.344-8.72-19.344-19.447 0-10.725 8.655-19.44 19.343-19.44 10.64 0 19.297 8.716 19.297 19.44 0 10.726-8.656 19.447-19.297 19.447zM351.988 160c-11.058 0-20.053 9.014-20.053 20.107 0 11.09 8.995 20.083 20.053 20.083 11.146 0 20.148-8.993 20.148-20.083 0-11.093-9.002-20.107-20.148-20.107zM395.947 203.93c-11.105 0-20.1 9.013-20.1 20.103 0 11.09 8.994 20.107 20.1 20.107 11.06 0 20.053-9.02 20.053-20.107 0-11.09-8.994-20.104-20.053-20.104z"/><path d="M466.28 248.866c-21.158-88.47-43.632-135.49-88.455-148.83-9.765-2.9-18.077-4.036-25.75-4.036-27.597 0-46.937 14.683-96.08 14.683-49.173 0-68.5-14.68-96.06-14.683-7.666 0-15.964 1.135-25.722 4.036-44.87 13.34-67.342 60.36-88.46 148.83C24.57 337.34 28.417 401.23 53.43 413.156 57.503 415.1 61.663 416 65.886 416c21.694 0 45.14-23.838 67.66-52.047C159.197 331.848 165.657 331 243.82 331h24.343c78.147 0 84.628.846 110.282 32.953 22.526 28.207 45.97 52.004 67.665 52.004 4.226 0 8.384-.88 12.457-2.823 25.004-11.926 28.85-75.795 7.71-164.268zm-14.603 149.85c-1.835.876-3.604 1.284-5.564 1.284-6.022 0-14.077-4.05-23.295-11.708-9.18-7.63-19.307-18.51-31.87-34.24-12.96-16.22-23.667-28.228-43.528-33.948-16.647-4.793-38.624-5.104-79.254-5.104h-24.343c-40.633 0-62.61.31-79.26 5.105-19.852 5.72-30.56 17.685-43.522 33.908-12.555 15.727-22.68 26.627-31.86 34.258-9.217 7.66-17.27 11.72-23.294 11.72-1.932 0-3.75-.416-5.568-1.283-9.556-4.557-22.572-47.673.998-146.13 21.387-89.59 42.38-126.776 77.46-137.206 7.632-2.27 14.553-3.37 21.158-3.37 9.742 0 18.6 2.316 29.812 5.248 16.07 4.203 36.072 9.435 66.252 9.435 30.148 0 50.146-5.228 66.215-9.43 11.23-2.935 20.1-5.253 29.865-5.253 6.618 0 13.55 1.104 21.185 3.37 35.037 10.43 56.03 47.618 77.456 137.215 23.524 98.456 10.51 141.575.957 146.13z"/></svg>