<svg xmlns="http://www.w3.org/2000/svg" width="512" height="512" viewBox="0 0 512 512"><path d="M48.05 251.556c0 .04-.003.077-.004.116h.003v-.116zM260.31 463.915c.067-.002.134-.006.2-.007-.066 0-.133 0-.2.004v.003z"/><path d="M256 48c-2.586 0-5.29.065-7.852.16l-.148-.007v.006c-5 .198-10 .6-16 1.204v-.008c0 .005.083.008.072.012-96.974 11.06-173.654 88.975-183.13 186.41-.004.018.045.222.042.222h.007c-.512 5-.825 10-.935 16h-.004l.004-.152c-.028 1.43-.054 2.777-.054 4.215C48 370.915 140.977 464 255.84 464c6.857 0 14.16-.382 20.16-1.03v.006c0-.004.213-.008.24-.014 97.436-9.486 175.247-86.086 186.312-183.036.004-.014.088.074.092.074h-.008c.89-8 1.363-15.86 1.363-23.904C464 141.246 370.87 48 256 48zM130.63 266.854c-20.895-8.474-42.788-13.43-65.244-14.816.11-5.374.438-10.695.986-15.952 52.568 3.275 104.203 24.977 144.375 65.146 40.172 40.17 61.876 91.798 65.152 144.36-5.258.548-10.58.876-15.955.985-1.385-22.453-6.342-44.344-14.816-65.236-10.46-25.79-25.835-48.938-45.697-68.796-19.86-19.86-43.01-35.233-68.803-45.69zm167.092-52.588c-40.964-40.96-62.73-93.835-65.332-147.467 5.25-.652 10.568-1.08 15.94-1.293 1.074 23.65 6.106 46.702 15.008 68.654 10.46 25.79 25.835 48.935 45.696 68.794 19.862 19.86 43.01 35.232 68.803 45.69 21.954 8.902 45.008 13.934 68.66 15.008-.213 5.37-.643 10.69-1.293 15.94-53.64-2.603-106.518-24.367-147.482-65.327z"/></svg>