<svg xmlns="http://www.w3.org/2000/svg" viewBox="0 0 512 512"><path d="M380.1 64.1zM275.1 57.3c-9.4-6-23.3-9.6-37.9-9.6-14.3 0-30.4 2.5-46.8 9.3-46.5 19-74.1 45.5-81.2 52.5-7 7-16.8 18-22.9 26.7-6.1 8.7 1.9 21-6.1 29s-24.8 0-24.8 0c-1.4 0-2.9.5-3.9 1.6l-34.2 33.9c-2.2 2.2-2.2 5.7 0 7.8l63.6 63.2c1.1 1.1 2.5 1.6 3.9 1.6s2.9-.5 3.9-1.6l33.2-34.8c2.2-2.2 2.2-5.7 0-7.8 0 0-5.3-5.2-12.1-12s.8-19.4 5.3-23.4c4.5-4.1 11.6-6.8 21.2-6.8 4.3 0 7.4.7 11.4 1.8 12.2 3.4 25.8 15.9 50.9 40.8l-3.9 6.5c-2.3 3.8-.9 8.3 1.3 10.4 0 0-5-4.9 13.1 13.2l50.1-47.2c-19.2-18.9-14.5-14.2-14.5-14.2-1.4-1.4-3.8-2.3-6.3-2.3-1.4 0-2.9.3-4.2 1l-5.7 3c-28.1-27.8-35.4-40.3-34.3-61.8 1.1-22.4 12.3-37.2 30.6-52.7 24.8-21.1 60.7-15.3 60.7-15.3 8-.3-4.1-8.8-10.4-12.8zM462.7 400.1s-69-57.3-130.4-115.8L284.5 335c58.6 60.7 115.1 127.8 115.1 127.8 1.1 1.1 2.5 1.6 3.9 1.6s2.9-.5 3.9-1.6l55.2-54.8c2.3-2.2 2.3-5.7.1-7.9z"/><path d="M479.5 125.1L427 177.8l-51.2-9.3-9.2-51.2 52.5-52.7c-11.2-11.2-26.8-16.6-39-16.6-.7 0-1.4 0-2 .1-12.5.7-39.3 7.7-60 29.7-20 21.2-41.1 60.7-22.5 104.5 2.2 5.3 4.7 12.3-2.7 19.7-1.5 1.4-9.9 9.4-22.5 21.3-3.6 3.4-7.5 7-11.6 11-8.1 7.6-17.1 16.2-26.8 25.3-3.8 3.6-7.7 7.3-11.6 11-57.1 53.9-127.1 119.7-127.1 119.7-18 15.5-16.7 44.2-.1 60.9 8.5 8.4 20 12.8 31.3 12.8 11.1 0 21.9-4.2 29.6-13.1 0 0 65.6-69.9 119.4-127.1 3.7-4 7.4-7.9 11-11.7 9.3-9.9 18-19.1 25.8-27.3 3.9-4.2 7.6-8.1 11-11.6 11.5-12.2 19.4-20.4 21-22 4-3.9 7.7-5.1 11.1-5.1 3.3 0 6.3 1.2 8.6 2.4 9.9 5.1 21 7.4 32.4 7.4 26.8 0 55-12.4 72.2-29.6 24.4-24.4 28.9-48 29.6-60.1.7-11.9-3.4-27.8-16.7-41.1zM137.3 426.4c-5.5 5.4-14.4 5.4-19.9 0-5.4-5.5-5.4-14.4 0-19.9 5.5-5.4 14.4-5.4 19.9 0 5.4 5.5 5.4 14.5 0 19.9z"/></svg>