<svg xmlns="http://www.w3.org/2000/svg" width="512" height="512" viewBox="0 0 512 512"><path d="M358 233.855l.413-.04c-.137-.136-.046-.1-.185-.236L279.798 155h-.004c-5.833-6-14.193-10.154-23.485-10.154-11.812 0-22.116 6.154-27.636 16.154h-.007s-7.09 10.994-18.27 28.874l32.53 39.637c2.94 3.77 3.297 7.802 1.412 9.69l-.115.07c-.91.91-2.02 1.33-3.274 1.33-1.907 0-4.14-.99-6.484-2.767l-35.872-29.418-83.45 133.45 19.072 23.338c2.94 3.77 3.296 7.884 1.41 9.772l-.114.114c-.91.912-2.028 1.34-3.287 1.34-1.905 0-4.136-.98-6.472-2.754l-21.067-16.533C84.734 389.05 70 412.463 68 414.366v.003c-3 5.06-4.085 11.13-4.085 17.663C63.915 449.688 78.572 464 96.2 464c7.82 0 14.57-3.395 20.8-7.5l114.65-84.11-28.838-35.357c-2.94-3.77-3.268-7.887-1.382-9.775l.128-.114c.912-.912 2.034-1.34 3.294-1.34 1.905 0 4.14.98 6.476 2.754l37.864 31.59A20509.475 20509.475 0 0 1 355.082 283h.005c7.84-6 12.473-15.71 12.473-26.238 0-8.704-3.56-17.14-9.56-22.904v-.003zm-12.47 35.98a31571.957 31571.957 0 0 0-95.763 69.898l-28.272-23.483-.26-.223-.274-.21c-5.244-3.982-10.662-6-16.107-6-5.465 0-10.592 2.098-14.458 5.91l-.064.062-.082.08-.083.084c-7.808 7.82-7.76 20.823.11 30.917l.11.144.114.138 18.222 22.312-100.656 73.896c-5.066 3.304-8.427 4.657-11.542 4.657-8.822 0-16-7.17-16-15.983 0-3.086.694-6.045 2.017-8.623 2.392-3.16 6.6-9.875 18.656-29.35 2.543-4.108 5.252-8.487 8.134-13.13l6.39 5.177.195.156.2.152c5.245 3.98 10.665 6 16.11 6 5.518 0 10.693-2.14 14.572-6.023l.114-.113c7.807-7.818 7.757-20.82-.117-30.917l-.113-.144-.115-.143-11.814-14.455 43.694-69.872 24.06-38.474 21.854 17.922.23.19.24.18c5.255 3.99 10.68 6.01 16.124 6.01 4.954 0 9.63-1.724 13.34-4.89l.46-.336.87-.874c7.79-7.803 7.74-20.778-.117-30.854l-.12-.153-.124-.15-25.238-30.538c2.957-4.703 5.457-8.49 7.405-11.488l5.21-8.494c2.776-5.025 7.76-8.157 13.672-8.157 4.366 0 8.76 2.042 12.056 5.43l4.7 4.928h.123L342 240.287v.376l5.186 4.716c2.793 2.69 4.54 6.782 4.54 11.227 0 5.196-2.26 10.123-6.195 13.23zM439.994 115.175l-4.778 2.763-91.638 52.992 63.735-110.572 2.517-4.366L396.01 48l-2.487 4.313-70.775 122.785 16.67 16.696 103.962-60.12 4.594-2.656z"/></svg>