<svg xmlns="http://www.w3.org/2000/svg" width="512" height="512" viewBox="0 0 512 512"><path d="M368 112c-11 1.4-24.9 3.5-39.7 3.5-23.1 0-44-5.7-65.2-10.2-21.5-4.6-43.7-9.3-67.2-9.3-46.9 0-62.8 10.1-64.4 11.2l-3.4 2.4V416h16V272.7c6-2.5 21.8-6.9 51.9-6.9 21.8 0 42.2 8.3 63.9 13 22 4.7 44.8 9.6 69.5 9.6 14.7 0 27.7-2 38.7-3.3 6-.7 11.3-1.4 16-2.2V109.5c-4.7.9-10.1 1.7-16.1 2.5zm0 157c-11 1.4-23.9 3.5-38.7 3.5-23.1 0-45-4.7-66.2-9.2-21.5-4.6-43.6-13.3-67.1-13.3-25.7 0-41.9 3-51.9 6V118.7c6-2.5 21.9-6.8 51.9-6.8 21.8 0 42.2 4.3 63.9 9 22 4.7 43.8 10.6 68.5 10.6 14.7 0 28.7-2 39.7-3.3L368 269z"/></svg>