<svg xmlns="http://www.w3.org/2000/svg" viewBox="0 0 512 512"><path d="M297.9 416l16.1 16H198l16.1-16-17.4-5.2L142 464h22.8l17.1-16h148.2l17.1 16H370l-54.5-53.2z"/><path d="M337 64h-17c0-8.8-7.2-16-16-16h-96c-8.8 0-16 7.2-16 16h-15c-35.3 0-65 27.7-65 63v224c0 35.3 144 65 144 65s144-29.7 144-65V127c0-35.3-27.7-63-63-63zm-128 0h94v16h-94V64zm47 304c-26.5 0-48-21.5-48-48s21.5-48 48-48 48 21.5 48 48-21.5 48-48 48zm96-160c0 8.8-7.2 16-16 16H176c-8.8 0-16-7.2-16-16v-64c0-8.8 7.2-16 16-16h160c8.8 0 16 7.2 16 16v64z"/><path d="M256 289.5c-16.8 0-30.5 13.7-30.5 30.5s13.7 30.5 30.5 30.5 30.5-13.7 30.5-30.5-13.7-30.5-30.5-30.5z"/></svg>