<svg xmlns="http://www.w3.org/2000/svg" viewBox="0 0 512 512"><path d="M416 160c0-35.3-28.7-64-64-64s-64 28.7-64 64c0 32.6 24.4 59.5 56 63.5v.5c0 23-9.9 42.4-29.5 57.5-21.3 16.5-48.7 24.1-67.9 27.5-43.2 7.8-64.1 33.3-71.6 44.7-2.6-.6-5.3-1.1-8-1.4V159.6c32.1-3.5 57-30.6 57-63.6 0-35.3-28.7-64-64-64S96 60.7 96 96c0 32.3 23.9 59 55 63.4v193.3c-31.1 4.4-55 31.1-55 63.4 0 35.3 28.7 64 64 64s64-28.7 64-64c0-24.3-13.6-45.5-33.6-56.3 7.3-10.1 25.1-28.7 59-34.9 21-3.8 51-12.2 74.8-30.6 23.4-18.1 35.7-42.3 35.7-70.2v-.5c31.7-4.1 56.1-31 56.1-63.6zM112 96c0-26.5 21.5-48 48-48s48 21.5 48 48-21.5 48-48 48-48-21.5-48-48zm96 320c0 26.5-21.5 48-48 48s-48-21.5-48-48 21.5-48 48-48 48 21.5 48 48zm144-208c-26.5 0-48-21.5-48-48s21.5-48 48-48 48 21.5 48 48-21.5 48-48 48z"/></svg>