<svg xmlns="http://www.w3.org/2000/svg" viewBox="0 0 512 512"><path d="M374.4 143.2l-13.3-.1C349.3 89.6 306 48 236 48S108.2 99.7 108.2 170.8l.3 4.8C66.2 181.2 32 220.1 32 264.5c0 47 37.9 88.5 84.6 88.5h10.6l-37.4 50.7c-2.6 3.6-1.8 8.3 1.8 10.9 1.3 1 2.9 1.4 4.4 1.4 2.3 0 5.1-.6 6.8-2.9L147 353h61.4l-72.3 99c-2.6 3.6-2.2 8 1.4 10.6 1.3 1 3.3 1.4 4.8 1.4 3.7 0 6.1-1.3 7.8-3.6l78-107.4h61.1l-37.3 50.7c-2.6 3.6-1.8 8.3 1.8 10.9 1.3 1 2.9 1.4 4.4 1.4 2.3 0 5.1-.6 6.8-2.9L309 353h61.4l-72.3 99c-2.6 3.6-2.1 7.8 1.5 10.3 1.3 1 3.2 1.7 4.7 1.7 2.3 0 5.1-.8 6.8-3.1l80.1-110.3c50.4-8.4 88.9-53.7 88.9-106.6-.1-58.6-47.4-100.8-105.7-100.8z"/></svg>