<svg xmlns="http://www.w3.org/2000/svg" width="512" height="512" viewBox="0 0 512 512"><path d="M194.822 240H160v-34.762c0-2.817-2.604-5.238-5.303-5.238h-22.145c-2.698 0-4.552 2.372-4.552 5.178V240H92.533c-2.615 0-4.533 2.143-4.533 4.77V266.2c0 2.698 2.03 5.803 4.86 5.803H128v35.468c0 2.615 2.143 4.533 4.77 4.533H154.2c2.698 0 5.803-2.03 5.803-4.86V272h34.763c2.817 0 5.238-2.604 5.238-5.303v-22.145c0-2.698-2.372-4.552-5.178-4.552zM362.314 279.063c-10.736 0-19.45 8.515-19.45 19.153 0 10.555 8.714 19.084 19.45 19.084 10.783 0 19.498-8.53 19.498-19.084 0-10.638-8.714-19.153-19.498-19.153zM319.766 237.165c-10.736 0-19.45 8.603-19.45 19.168 0 10.566 8.714 19.153 19.45 19.153 10.783 0 19.498-8.587 19.498-19.153 0-10.565-8.715-19.168-19.498-19.168zM404.862 237.165c-10.73 0-19.442 8.603-19.442 19.168 0 10.566 8.714 19.153 19.442 19.153 10.737 0 19.452-8.587 19.452-19.153 0-10.565-8.714-19.168-19.452-19.168zM362.314 195.3c-10.736 0-19.45 8.603-19.45 19.17 0 10.566 8.714 19.146 19.45 19.146 10.783 0 19.498-8.58 19.498-19.146 0-10.568-8.714-19.17-19.498-19.17z"/><path d="M369.27 162c25.837 0 49.703 9.314 67.203 26.23C454.225 205.385 464 229.246 464 255.417c0 26.303-9.806 50.405-27.61 67.87C418.825 340.512 394.99 350 369.27 350H142.74c-25.713 0-49.55-9.487-67.118-26.715C57.81 305.818 48 281.717 48 255.418c0-26.167 9.78-50.028 27.54-67.188 17.503-16.915 41.37-26.23 67.2-26.23h226.53m0-16H142.74C81.54 146 32 191.458 32 255.418 32 319.418 81.54 366 142.74 366h226.528C430.49 366 480 319.42 480 255.418 480 191.458 430.49 146 369.27 146z"/></svg>