<svg xmlns="http://www.w3.org/2000/svg" viewBox="0 0 512 512"><path d="M406.3 48.2c-4.7.9-202 39.2-206.2 40-4.2.8-8.1 3.6-8.1 8v240.1c0 1.6-.1 7.2-2.4 11.7-3.1 5.9-8.5 10.2-16.1 12.7-3.3 1.1-7.8 2.1-13.1 3.3-24.1 5.4-64.4 14.6-64.4 51.8 0 31.1 22.4 45.1 41.7 47.5 2.1.3 4.5.7 7.1.7 6.7 0 24-1.3 39.2-11.2 11-7.2 24.1-21.4 24.1-47.8V186l192-39v140.7c0 4.1-.2 8.9-2.5 13.4-3.1 5.9-8.5 10.2-16.2 12.7-3.3 1.1-7.8 2.1-13.1 3.3-24.1 5.4-64.4 14.5-64.4 51.7 0 33.7 26.3 45.6 41.8 47.3 1.2.1 2.6.1 4.1.1 10.2 0 25.7-2.5 38.8-10 17.9-10.3 27.5-26.8 27.5-48.2V55.9c-.1-4.4-3.8-8.9-9.8-7.7zM192 404.8c0 15.5-5.6 27.3-16.8 34.6-11.9 7.8-26.3 8.7-30.5 8.7-1.9 0-3.6-.4-5.1-.6-2.3-.3-10.5-1.9-17.3-7.4-6.9-5.5-10.4-13.7-10.4-24.2 0-22.6 24.6-30 51.9-36.2 5.7-1.3 10.6-2.4 14.6-3.7 5.5-1.8 9.5-4.2 13.5-6.9v35.7zm208-47c0 15.5-6.6 26.9-19.4 34.3-10.4 5.9-23.1 7.9-30.9 7.9-1.3 0-2.1.1-2.4 0-4.6-.5-27.6-4.2-27.6-31.2 0-22.6 24.6-30 51.9-36.2 5.7-1.3 10.7-2.4 14.7-3.7 5.5-1.8 9.6-4.2 13.6-6.9v35.8zm0-226.9l-192 38v-66l192-37.2v65.2z"/></svg>