<svg xmlns="http://www.w3.org/2000/svg" viewBox="0 0 512 512"><path d="M144 320c26.5 0 48 21.5 48 48s-21.5 48-48 48-48-21.5-48-48 21.5-48 48-48m0-16c-35.3 0-64 28.7-64 64s28.7 64 64 64 64-28.7 64-64-28.7-64-64-64z"/><path d="M367.2 288c44.4 0 80.6 36.1 80.6 80.5s-36 79.5-80.4 79.5h-223c-44.4 0-80.5-35.1-80.5-79.5S100 288 144.4 288H367m.5-16h-223C91.2 272 48 315.2 48 368.5S91.2 464 144.5 464h223c53.3 0 96.5-42.2 96.5-95.5S420.8 272 367.5 272z"/><g><path d="M368 96c26.5 0 48 21.5 48 48s-21.5 48-48 48-48-21.5-48-48 21.5-48 48-48m0-16c-35.3 0-64 28.7-64 64s28.7 64 64 64 64-28.7 64-64-28.7-64-64-64z"/><path d="M145 64h222.5c44.4 0 80.5 36.1 80.5 80.5S411.9 224 367.5 224h-223c-44.4 0-80.4-35.1-80.4-79.5S100.4 64 144.8 64m-.3-16C91.2 48 48 91.2 48 144.5S91.2 240 144.5 240h223c53.3 0 96.5-42.2 96.5-95.5S420.8 48 367.5 48h-223z"/></g></svg>