<svg xmlns="http://www.w3.org/2000/svg" width="512" height="512" viewBox="0 0 512 512"><path d="M334.965 262.07l11.616-11.603L256.083 160l-90.58 90.443 11.616 11.604 70.694-70.635V448h16.43V191.412z"/><path d="M413.012 178.113C406.146 113.895 354.042 64 288 64c-44.838 0-86.535 22.812-109.396 57.715A62.24 62.24 0 0 0 152.5 116c-34.208 0-61.98 27.487-62.477 61.577C55.093 188.613 32 220.157 32 256c0 43.906 35.594 80 79.5 80H208v-16h-96.5C76.486 320 48 291.152 48 256c0-14.272 4.443-27.047 12.85-38.6 8.47-11.64 20.226-20.154 33.994-24.504l11.01-3.51.168-11.562c.18-12.274 5.093-23.795 13.837-32.425 8.75-8.638 20.343-13.397 32.64-13.397a46.08 46.08 0 0 1 19.41 4.246l12.524 5.765 7.555-11.533c20.806-31.768 57.856-50.732 95.76-50.732 27.814 0 52.48 10.265 73.09 28.904 20.467 18.51 33.345 43.737 36.264 71.035l1.303 12.187 12.107 1.915c14.727 2.33 28.253 9.922 38.087 21.38C458.53 226.745 464 240.76 464 256c0 35.152-28.486 64-63.5 64H304v16h96.5c43.906 0 79.5-36.094 79.5-80 0-39.648-29.027-71.884-66.988-77.887z"/></svg>