<svg xmlns="http://www.w3.org/2000/svg" width="512" height="512" viewBox="0 0 512 512"><path d="M359 233.62l-.106-.04c-.136-.137-.306-.442-.444-.578L279.55 154h-.003c-5.848-6-14.23-10.168-23.547-10.168-11.842 0-22.174 6.168-27.708 16.168h-.007s-7.11 11.35-18.318 29.25l32.617 39.85c2.947 3.77 3.305 7.894 1.414 9.784l-.114.114c-2.296 2.296-5.894 1.535-9.785-1.414l-35.968-29.44-83.67 133.593 19.122 23.362c2.947 3.77 3.305 7.894 1.414 9.784l-.114.114c-2.296 2.296-5.894 1.535-9.785-1.414l-20.22-16.55A584921.58 584921.58 0 0 1 69 414.314v.004c-3 5.066-5 11.144-5 17.682 0 17.674 14.244 32 31.918 32 7.842 0 14.383-3.398 20.628-7.508l114.842-84.195-28.97-35.395c-2.948-3.772-3.306-7.895-1.415-9.785l.114-.114c2.296-2.296 5.894-1.534 9.785 1.415l37.963 31.215A76574.838 76574.838 0 0 1 355.035 282h.005c7.86-6 13.024-15.32 13.024-25.857 0-8.713-3.064-16.75-9.064-22.52v-.003zM448 138.78l-16.486-27.693-66.23 38.212 49.23-85.214L386.897 48l-70 121.084 28.59 28.588z"/></svg>