<svg xmlns="http://www.w3.org/2000/svg" viewBox="0 0 512 512"><path d="M256 112c72.3 0 146.5 29.1 201.4 78.4L442 206.7c-22.9-20.4-48.7-36.8-77-48.7-34.5-14.6-71.2-22-109-22s-74.5 7.4-109 22c-28.3 12-54.1 28.3-77 48.7l-15.4-16.3C109.5 141.1 183.7 112 256 112m0-16c-83 0-166.1 35.8-224 93.7l37.3 39.6c24.3-24.3 52.5-43.3 83.9-56.6C185.8 159 220.3 152 256 152s70.2 7 102.7 20.7c31.4 13.3 59.7 32.3 83.9 56.6l37.3-39.6C422.1 131.8 339 96 256 96z"/><path d="M256 225c45.6 0 88.9 15.9 123.4 44.9l-17 17c-29.9-24.6-67.2-38-106.4-38s-76.5 13.4-106.4 38l-17-17c34.5-29 77.8-44.9 123.4-44.9m0-16c-57.2 0-109 23.1-146.6 60.4L149 309c28.7-28.4 66.6-44 107-44 40.4 0 78.3 15.6 107 44l39.6-39.6C365 232.1 313.2 209 256 209zM256 337c15.4 0 29.9 5.4 41.3 15.1L256 393.4l-41.3-41.3c11.4-9.7 25.9-15.1 41.3-15.1m0-16c-25.9 0-48.9 12.3-63.6 31.4L256 416l63.6-63.6C304.9 333.3 281.9 321 256 321z"/></svg>