<svg xmlns="http://www.w3.org/2000/svg" width="512" height="512" viewBox="0 0 512 512"><path d="M256 64C132.288 64 32 164.226 32 287.938c0 56.975 21.283 108.97 56.316 148.5 3.55 4.006 7.24 7.82 11.066 11.562 3.06-3.49 6.232-6.834 9.54-10.14.48-.48.97-.948 1.455-1.423 18.78-18.426 40.52-32.95 64.664-43.16 25.634-10.843 52.872-16.34 80.96-16.34s55.324 5.497 80.957 16.34c24.144 10.21 45.884 24.734 64.664 43.16.485.475.977.94 1.457 1.422 3.307 3.306 6.48 6.65 9.54 10.14 3.824-3.742 7.515-7.557 11.065-11.562 35.033-39.53 56.316-91.525 56.316-148.5C480 164.226 379.712 64 256 64zm191.66 305.177c-8.662 20.48-20.428 39.092-35.043 55.776-40.39-39.51-95.653-63.945-156.617-63.945s-116.228 24.33-156.617 63.84c-14.615-16.685-26.38-35.172-35.044-55.653A206.047 206.047 0 0 1 48.165 296.5H79.5v-16H48.166c.945-25 6.363-50.047 16.173-73.238 9.37-22.157 22.375-42.43 38.69-60.11l26.933 26.893 5.496-5.538 5.276-5.264-.02-.027.547-.552-26.95-26.984c17.86-16.647 38.003-29.894 60.478-39.4a206.128 206.128 0 0 1 72.71-16.174V117.5h16V80.104c26 .945 50.016 6.363 73.207 16.173 22.437 9.49 42.92 22.706 60.762 39.312l-26.976 27.068.577.547-.003.02 5.285 5.245 5.5 5.503 27.026-27.057c16.356 17.703 29.392 38.148 38.78 60.345 9.81 23.192 15.23 48.24 16.174 73.24H431.5v16h32.334a205.96 205.96 0 0 1-16.173 72.677z"/><path d="M368.48 174.545l-85.485 73.727A47.72 47.72 0 0 0 256 239.938c-26.466 0-48 21.533-48 48 0 10.48 3.386 20.178 9.107 28.08l-11.948 11.948 11.31 11.313 12.034-12.034c7.795 5.47 17.273 8.69 27.496 8.69 26.467 0 48-21.532 48-48 0-10.386-3.327-20.004-8.956-27.867l74.85-84.11-1.415-1.415zM256 319.938c-17.673 0-32-14.326-32-32 0-17.673 14.327-32 32-32s32 14.327 32 32c0 17.673-14.327 32-32 32z"/></svg>