<svg xmlns="http://www.w3.org/2000/svg" viewBox="0 0 512 512"><path d="M256 48C141.1 48 48 141.1 48 256s93.1 208 208 208 208-93.1 208-208S370.9 48 256 48zm0 17.3c105.1 0 190.7 85.5 190.7 190.7 0 46.5-16.7 89.1-44.4 122.2-20-8.2-65.9-24.1-92.9-32.1-2.4-.7-2.7-.9-2.7-10.7 0-8.1 3.3-16.3 6.6-23.3 3.6-7.5 7.7-20.2 9.2-31.6 4.2-4.9 10-14.5 13.6-32.9 3.2-16.2 1.7-22.1-.4-27.6-.2-.6-.5-1.2-.6-1.7-.8-3.8.3-23.5 3.1-38.8 1.9-10.5-.5-32.8-14.9-51.3-9.1-11.7-26.6-26-58.5-28h-17.5c-31.4 2-48.8 16.3-58 28-14.5 18.5-16.9 40.8-15 51.3 2.8 15.3 3.9 35 3.1 38.8-.2.7-.4 1.2-.6 1.8-2.1 5.5-3.7 11.4-.4 27.6 3.7 18.4 9.4 28 13.6 32.9 1.5 11.4 5.7 24 9.2 31.6 2.6 5.5 3.8 13 3.8 23.6 0 9.9-.4 10-2.6 10.7-28.1 8.3-72.6 24.3-90.4 32-27.9-33.2-44.7-75.9-44.7-122.5 0-105.1 85.6-190.7 190.7-190.7z"/></svg>