<svg xmlns="http://www.w3.org/2000/svg" viewBox="0 0 512 512"><path d="M261.1 80l5.6 22.4 2.5 9.9 10 1.9 12.3 2.4 9.7 1.9 6-7.9L321.4 92l6.6 2.7-3.4 22.7-1.5 9.9 8.3 5.7 10.7 7.3 8.3 5.7 8.7-5 19.6-11.3 5.1 5.1-11.3 19-5.3 8.9 6 8.5 7.5 10.6 5.6 8 9.7-1.3 22.1-3.1 2.8 6.7-17.8 13.5-7.9 6 1.8 9.7 2.5 13.2 1.9 9.9 9.8 2.6 21.1 5.6v7.3l-21.1 5.5-9.9 2.6-1.8 10.1-2.5 13.5-1.8 9.7 7.9 5.9 17.3 13-2.8 6.6-21.5-3.1-9.8-1.4-5.6 8.1-7.9 11.4-5.8 8.4 5.1 8.8 10.6 18.3-5.2 5.2-18.5-10.7-9-5.3-8.4 6.1-10.2 7.4-7.8 5.7 1.4 9.6 3.2 21.4-6.7 2.8-13.2-17.3-6.1-7.9-9.8 2-13.6 2.7-9.9 2-2.4 9.8L261 432h-7.2l-5.7-21.4-2.5-9.6-9.7-2-13.4-2.8-10-2.1-6.1 8.2-13.2 17.8-6.7-2.8 2.9-22.1 1.3-10-8.4-5.5-11.2-7.3-8.4-5.5-8.6 5.2-19.5 11.7-5-5 11.7-20 4.9-8.4-5.2-8.2-7.1-11.3-5.5-8.8-10.3 1.5-22.6 3.4-2.8-6.6 18.4-13.8 8.1-6.1-2-9.9-2.5-12.5-2-9.9-9.7-2.5-23-5.8v-7.1l23-5.8 9.6-2.4 2.1-9.7 2.6-12.2 2.2-10-8.2-6.2-19-14.3 2.8-6.7 23.2 3.3 10.2 1.4 5.5-8.7 6.7-10.5 5.3-8.3-5.1-8.5-12.4-20.8 5-5 20.6 12.3 8.3 5 8.3-5.1 11.7-7.2 8.9-5.5-1.4-10.3-3.2-23.5 6.7-2.8 14.1 19 6 8.1 9.9-1.9 12.1-2.3 9.9-1.9 2.6-9.8 6-22.8h7.1M273.5 64h-32l-9.2 34.7-12.1 2.3-21.5-29.1-29.6 12.3 4.8 35.7-11.7 7.2-31.2-18.8-22.6 22.6 18.8 31.5-6.7 10.5-35.5-5-12.2 29.6 28.9 21.7-2.7 12.2-35 8.9v32l34.9 8.9 2.5 12.5L73.1 315l12.3 29.5 35-5 7.1 11.3-17.9 30.6 22.6 22.6 30.2-18.2 11.2 7.3-4.5 34.3 29.6 12.2 20.6-27.8 13.4 2.8 8.8 33.4h32l8.3-33.4 13.6-2.7 20.7 27 29.6-12.2-5-33.7 10.2-7.4 29 16.9 22.6-22.6-16.8-28.9 7.9-11.4 33.8 4.8 12.3-29.5-27.2-20.5 2.5-13.5 33-8.6v-32l-33-8.7-2.5-13.2 27.7-20.9-12.2-29.7-34.4 4.8-7.5-10.6 17.7-29.7-22.6-22.6-30.2 17.4-10.7-7.3 5.3-35-29.5-12.3-21.6 28.3-12.3-2.4-8.7-34.4z"/><path d="M256 128c-70.7 0-128 57.3-128 128s57.3 128 128 128 128-57.3 128-128-57.3-128-128-128zM145.4 273.5c-.9-5.8-1.4-11.6-1.4-17.5 0-29.9 11.7-58 32.8-79.2C198 155.7 226.1 144 256 144c6 0 11.9.5 17.8 1.4 1.4.2 2.9.5 4.3.8l-27.8 103.9L146.1 278c-.2-1.5-.5-3-.7-4.5zm180.3 70.2C306 359.4 281.6 368 256 368c-29.9 0-58-11.7-79.2-32.8-11.1-11.1-19.5-24-25.1-38.2-.4-1.1-.9-2.2-1.2-3.3l103.4-27.5 74.9 74.9c-1 .9-2 1.7-3.1 2.6zm17.2-17.1c-.9 1.1-1.8 2.2-2.8 3.3l-75-75 28-104.6 3.3 1.2c14.3 5.6 27.4 14.1 38.6 25.2 21.3 21.3 33 49.4 33 79.3 0 26-8.8 50.7-25.1 70.6z"/></svg>