<svg xmlns="http://www.w3.org/2000/svg" width="512" height="512" viewBox="0 0 512 512"><path d="M256 48h-.2H255.5C140.8 48.3 48 141.3 48 256s92.8 207.7 207.5 208h.5c114.9 0 208-93.1 208-208S370.9 48 256 48zm0 399.4h-.2H255.5C150.1 447.1 64.6 361.5 64.6 256S150 64.9 255.5 64.7h.5c105.7 0 191.4 85.7 191.4 191.4 0 105.6-85.7 191.3-191.4 191.3z"/><path d="M322.3 171.8c-18.7 4.5-38 7.2-57.9 7.8v68.1H332c-.6-28.1-4.1-53.6-9.7-75.9zM264.3 82.5v81.9c18.5-.6 36.5-3 53.8-7.2-13.1-41.4-33.5-68.6-53.8-74.7zM193.4 157.1c17.5 4.2 35.6 6.7 54.2 7.3V82.3c-20.3 5.9-41 33.1-54.2 74.8zM380.6 133.4c-22.6-23-51.5-39.8-83.9-47.5 14.8 15.3 27.2 38.7 36.1 67.3 16.7-5.1 32.7-11.7 47.8-19.8zM347.3 247.7h83.3c-1.8-38.8-16.3-74.4-39.5-102.6-17.1 9.4-35.2 17.1-54.1 22.8 6.1 24 9.7 51.1 10.3 79.8zM179.5 247.7h68.2v-68.1c-20.1-.6-39.6-3.3-58.4-7.9-5.7 22.3-9.2 47.9-9.8 76zM332 264.3h-67.7v68c19.9.6 39.3 3.2 58 7.8 5.6-22.2 9.1-47.8 9.7-75.8zM189.3 340.2c18.8-4.6 38.3-7.3 58.4-7.9v-68h-68.2c.6 28.1 4.1 53.7 9.8 75.9zM247.7 429.6v-82.1c-18.6.6-36.8 3.1-54.3 7.3 13.2 41.7 33.9 69 54.3 74.8zM296.7 426.1c32.4-7.8 61.3-24.5 84-47.6-15.1-8.1-31.1-14.7-47.8-19.8-8.9 28.7-21.4 52-36.2 67.4zM214.7 86.1c-32.1 7.8-60.8 24.5-83.3 47.4 15 8 30.8 14.6 47.3 19.6 8.9-28.5 21.3-51.7 36-67zM337 344.1c19 5.7 37.1 13.4 54.2 22.8 23.2-28.2 37.7-63.8 39.5-102.6h-83.3c-.7 28.7-4.3 55.7-10.4 79.8zM264.3 347.5v82c20.3-6.1 40.7-33.3 53.8-74.8-17.3-4.2-35.3-6.6-53.8-7.2zM174.6 167.8c-18.8-5.7-36.8-13.3-53.7-22.7-23.2 28.2-37.7 63.8-39.5 102.6h82.9c.5-28.8 4.2-55.9 10.3-79.9zM164.2 264.3H81.3c1.8 38.8 16.3 74.4 39.5 102.6 16.9-9.3 34.9-17 53.7-22.7-6-24-9.7-51.1-10.3-79.9zM131.3 378.5c22.5 22.9 51.2 39.6 83.4 47.4-14.7-15.3-27.1-38.6-36-67.1-16.5 5.1-32.4 11.7-47.4 19.7z"/></svg>