<svg xmlns="http://www.w3.org/2000/svg" width="512" height="512" viewBox="0 0 512 512"><path d="M32 376h283.35c6.186-14.112 20.28-24 36.65-24s30.465 9.888 36.65 24H480v32h-91.35c-6.186 14.112-20.28 24-36.65 24s-30.465-9.888-36.65-24H32M32 240h91.35c6.186-14.112 20.28-24 36.65-24s30.465 9.888 36.65 24H480v32H196.65c-6.186 14.112-20.28 24-36.65 24s-30.465-9.888-36.65-24H32M32 104h283.35c6.186-14.112 20.28-24 36.65-24s30.465 9.888 36.65 24H480v32h-91.35c-6.186 14.112-20.28 24-36.65 24s-30.465-9.888-36.65-24H32"/></svg>