<svg xmlns="http://www.w3.org/2000/svg" viewBox="0 0 512 512"><path d="M192 96c0-35.3-28.7-64-64-64S64 60.7 64 96c0 32.3 23.9 59 55 63.4v193.3c-31.1 4.3-55 31-55 63.3 0 35.3 28.7 64 64 64s64-28.7 64-64c0-33-24.9-60.1-57-63.6V159.6c32.1-3.5 57-30.6 57-63.6zM80 96c0-26.5 21.5-48 48-48s48 21.5 48 48-21.5 48-48 48-48-21.5-48-48zm96 320c0 26.5-21.5 48-48 48s-48-21.5-48-48 21.5-48 48-48 48 21.5 48 48z"/><path d="M393 352.6V192c0-14.3 0-40.9-9-63-11-27.2-33.3-41-64-41H216l49.7-50.4c3.1-3.1 3.1-8.2 0-11.3-1.6-1.5-3.6-2.3-5.7-2.3s-4.1.7-5.7 2.3l-57.6 57.4c-6.3 6.3-6.3 16.4 0 22.6l59.6 59.4c3.1 3.1 8.2 3.1 11.3 0 3.1-3.1 3.1-8.2 0-11.3L216 104h104c49.2 0 57 42.3 57 88v160.4c-32.1 3.5-57 30.6-57 63.6 0 35.3 28.7 64 64 64s64-28.7 64-64c0-32.3-23.9-59-55-63.4zM384 464c-26.5 0-48-21.5-48-48s21.5-48 48-48 48 21.5 48 48-21.5 48-48 48z"/></svg>