<svg xmlns="http://www.w3.org/2000/svg" viewBox="0 0 512 512"><path d="M149.5 283.3c-51.9 0-83.9 45.7-83.9 95.1 0 22.7-10.1 39.2-33.6 48.1 14.3 27.8 62 37.5 95.7 37.5 8.4 0 15.9-.6 21.8-1.7 35.6-6.4 80.1-24.9 90.7-77 12.3-60.6-38.8-102-90.7-102zm75 98.9c-4 19.6-13.6 34.5-29.5 45.7-12.6 8.9-28.8 15.2-48.3 18.7-3.6.6-9.8 1.4-19 1.4-25.4 0-54.1-5.8-70.5-17.1 16-12.2 24.4-30 24.4-52.4 0-21 6.9-41.4 18.8-55.9 8.7-10.6 24.3-23.2 49.1-23.2 24.2 0 48.1 10.9 62.4 28.3 8.6 10.6 17.8 28.6 12.6 54.5z"/><path d="M467.6 60.4c-7.7-7.7-16.8-12.4-26.1-12.4-6.3 0-12.7 2.2-18.8 7L247.6 209.1c-3.4-.9-6.6-1.4-9.7-1.4-4.8 0-9.3 1.2-13.2 3.8l-63.6 52.8c-1.6 1.6-1.5 4.3.1 5.9.5.5 1.1.8 1.7 1 .6 0 1.3.1 1.9.1h.1c47.9 3.4 92 37.8 90.3 90.5 0 .5 0 1-.1 1.5.1.8.5 1.7 1.1 2.3.8.8 1.9 1.2 2.9 1.2s2.1-.4 2.9-1.2h.1l.2-.2 54.3-62.2c4.2-6.4 4.7-14.2 2.4-22.9l154.2-175c11.7-15 7.4-32-5.6-44.9zM460.7 95L301.1 276.2l2.3 8.3c1.1 4 1.1 7.1.1 9.2l-35.4 40.5c-4.6-18.2-14.4-34.7-28.7-48-13.3-12.3-29.8-21.4-47.9-26.5l42.5-35.2c.8-.4 1.9-.8 3.8-.8 1.6 0 3.5.3 5.5.8l8.3 2.3L433 67.3c2.9-2.2 5.7-3.3 8.5-3.3 4.6 0 9.9 2.7 14.8 7.7 4.2 4.2 6.9 8.8 7.5 12.9.4 2.2.5 5.8-3.1 10.4zM161.1 264.2z"/></svg>