<svg xmlns="http://www.w3.org/2000/svg" viewBox="0 0 512 512"><path d="M154 160h-52c-12.1 0-22-9.9-22-22V86c0-12.1 9.9-22 22-22h52c12.1 0 22 9.9 22 22v52c0 12.1-9.9 22-22 22zM282 160h-52c-12.1 0-22-9.9-22-22V86c0-12.1 9.9-22 22-22h52c12.1 0 22 9.9 22 22v52c0 12.1-9.9 22-22 22zM410 160h-52c-12.1 0-22-9.9-22-22V86c0-12.1 9.9-22 22-22h52c12.1 0 22 9.9 22 22v52c0 12.1-9.9 22-22 22zM154 304h-52c-12.1 0-22-9.9-22-22v-52c0-12.1 9.9-22 22-22h52c12.1 0 22 9.9 22 22v52c0 12.1-9.9 22-22 22zM282 304h-52c-12.1 0-22-9.9-22-22v-52c0-12.1 9.9-22 22-22h52c12.1 0 22 9.9 22 22v52c0 12.1-9.9 22-22 22zM410 304h-52c-12.1 0-22-9.9-22-22v-52c0-12.1 9.9-22 22-22h52c12.1 0 22 9.9 22 22v52c0 12.1-9.9 22-22 22zM154 448h-52c-12.1 0-22-9.9-22-22v-52c0-12.1 9.9-22 22-22h52c12.1 0 22 9.9 22 22v52c0 12.1-9.9 22-22 22zM282 448h-52c-12.1 0-22-9.9-22-22v-52c0-12.1 9.9-22 22-22h52c12.1 0 22 9.9 22 22v52c0 12.1-9.9 22-22 22zM410 448h-52c-12.1 0-22-9.9-22-22v-52c0-12.1 9.9-22 22-22h52c12.1 0 22 9.9 22 22v52c0 12.1-9.9 22-22 22z"/></svg>