<svg xmlns="http://www.w3.org/2000/svg" viewBox="0 0 512 512"><path d="M256 48C141.1 48 48 141.1 48 256s93.1 208 208 208 208-93.1 208-208S370.9 48 256 48zm0 17.3c105.1 0 190.7 85.5 190.7 190.7 0 46.6-16.8 89.2-44.6 122.4l-.1-.1c-20-8.2-65.9-24.1-92.9-32.1-2.4-.7-2.7-.9-2.7-10.7 0-8.1 3.3-16.3 6.6-23.3 3.6-7.5 7.7-20.2 9.2-31.6 4.2-4.9 10-14.5 13.6-32.9 3.2-16.2 1.7-22.1-.4-27.6-.2-.6-.5-1.2-.6-1.7-.8-3.8.3-23.5 3.1-38.8 1.9-10.5-.5-32.8-14.9-51.3-9.1-11.7-26.6-26-58.5-28H247c-31.4 2-48.8 16.3-58 28-14.5 18.5-16.9 40.8-15 51.3 2.8 15.3 3.9 35 3.1 38.8-.2.7-.4 1.2-.6 1.8-2.1 5.5-3.7 11.4-.4 27.6 3.7 18.4 9.4 28 13.6 32.9 1.5 11.4 5.7 24 9.2 31.6 2.6 5.5 3.8 13 3.8 23.6 0 9.9-.4 10-2.6 10.7-28 8.3-72.2 24.2-90.1 31.9-27.9-33.2-44.7-75.9-44.7-122.5 0-105.1 85.6-190.7 190.7-190.7zM121.4 391c19.9-8 58.6-21.8 83.1-29.1h.2c8.4-2.6 11.6-8.5 12.8-13 .9-3.2 1-6.5 1-13 0-13.1-1.7-22.7-5.3-30.4-2.9-6.1-6.6-17.2-7.9-26.9l-.6-4.7-3.1-3.6c-1.9-2.2-6.8-9.2-10.1-25.6-2.6-13-1.4-16-.4-18.7v-.2l.1-.3c.2-.6.6-1.6 1-2.8l.1-.5.1-.5c1.7-8-.6-31.9-3-45-1.1-6.2.3-23.8 11.8-38.6 7.1-9 20.8-20.1 45.9-21.8h16.5c25.6 1.7 39.4 12.8 46.4 21.9 11.6 14.8 12.9 32.4 11.8 38.6-2.4 13-4.7 37-3 45l.1.3.1.3c.4 1.5.9 2.8 1.2 3.6 1.1 2.8 2.1 5.9-.4 18.6-3.3 16.4-8.1 23.3-10 25.6l-3.1 3.6-.6 4.8c-1.3 9.7-5 20.7-7.8 26.8-4 8.5-8.1 18.8-8.1 30.1 0 5.8.1 9.6 1.1 13.2 1.3 4.4 4.5 10.2 12.9 12.8h.2c23.7 7 63.9 20.8 86 29.4-34.5 34.4-82.1 55.7-134.5 55.7-52.4.1-99.9-21.2-134.5-55.6z"/></svg>