<svg xmlns="http://www.w3.org/2000/svg" viewBox="0 0 512 512"><path d="M403.1 108.9c-81.2-81.2-212.9-81.2-294.2 0s-81.2 212.9 0 294.2c81.2 81.2 212.9 81.2 294.2 0 81.2-81.2 81.2-213 0-294.2zM256 80c4.4 0 8 3.6 8 8s-3.6 8-8 8-8-3.6-8-8 3.6-8 8-8zm-152.4 88c2.2-3.8 7.1-5.1 10.9-2.9s5.1 7.1 2.9 10.9c-2.2 3.8-7.1 5.1-10.9 2.9-3.8-2.2-5.1-7.1-2.9-10.9zM88 264c-4.4 0-8-3.6-8-8s3.6-8 8-8 8 3.6 8 8-3.6 8-8 8zm26.5 82.9c-3.8 2.2-8.7.9-10.9-2.9-2.2-3.8-.9-8.7 2.9-10.9s8.7-.9 10.9 2.9c2.2 3.8.9 8.7-2.9 10.9zm64.4 58.6c-2.2 3.8-7.1 5.1-10.9 2.9-3.8-2.2-5.1-7.1-2.9-10.9 2.2-3.8 7.1-5.1 10.9-2.9 3.8 2.2 5.1 7.1 2.9 10.9zM176 117.4c-3.8 2.2-8.7.9-10.9-2.9-2.2-3.8-.9-8.7 2.9-10.9 3.8-2.2 8.7-.9 10.9 2.9s.9 8.7-2.9 10.9zM256 432c-4.4 0-8-3.6-8-8s3.6-8 8-8 8 3.6 8 8-3.6 8-8 8zm8-162.1V384c0 4.4-3.6 8-8 8s-8-3.6-8-8V269.8c-2.4-1.4-4.4-3.3-5.9-5.8-3-5.2-2.7-11.5.2-16.3l-29.6-54.9c-2.3-3.8-1-8.7 2.7-11 3.8-2.3 8.7-1 11 2.7l30 55.4c5.4.1 10.6 3 13.4 8 4.5 7.8 1.9 17.5-5.8 22zm80 138.5c-3.8 2.2-8.7.9-10.9-2.9-2.2-3.8-.9-8.7 2.9-10.9 3.8-2.2 8.7-.9 10.9 2.9s.9 8.7-2.9 10.9zm2.9-293.9c-2.2 3.8-7.1 5.1-10.9 2.9-3.8-2.2-5.1-7.1-2.9-10.9 2.2-3.8 7.1-5.1 10.9-2.9 3.8 2.2 5.1 7.1 2.9 10.9zM408.4 344c-2.2 3.8-7.1 5.1-10.9 2.9-3.8-2.2-5.1-7.1-2.9-10.9 2.2-3.8 7.1-5.1 10.9-2.9s5.1 7.1 2.9 10.9zm-2.9-165.1c-3.8 2.2-8.7.9-10.9-2.9-2.2-3.8-.9-8.7 2.9-10.9s8.7-.9 10.9 2.9c2.2 3.8.9 8.7-2.9 10.9zM424 264c-4.4 0-8-3.6-8-8s3.6-8 8-8 8 3.6 8 8-3.6 8-8 8z"/></svg>