<svg xmlns="http://www.w3.org/2000/svg" viewBox="0 0 512 512"><path d="M248 136v220.7l-74.4-66.3c-3.4-2.9-8.1-3.2-11.2-.1-3.1 3.1-3.3 8.5-.1 11.4l88 80c.2.2.4.4.6.5.1.1.2.1.3.2.1.1.2.2.4.3.1.1.2.1.3.2.1.1.2.1.3.2.1.1.2.1.4.2.1.1.2.1.3.2.1 0 .2.1.4.1.1 0 .3.1.4.1.1 0 .2.1.4.1.1 0 .3.1.4.1.1 0 .3 0 .4.1h.3c.5.1 1.1.1 1.6 0h.3c.1 0 .3 0 .4-.1.1 0 .3-.1.4-.1.1 0 .2-.1.4-.1.1 0 .3-.1.4-.1.1 0 .2-.1.4-.1.1 0 .2-.1.3-.2.1-.1.2-.1.4-.2.1-.1.2-.1.3-.2.1-.1.2-.1.3-.2.1-.1.2-.2.4-.3.1-.1.2-.1.3-.2.2-.2.4-.3.6-.5l88-80c1.7-1.6 2.3-3.6 2.3-5.7 0-2-.8-4.1-2.3-5.7-3.1-3.1-8-3-11.3 0L264 356.7V136c0-4.4-3.6-8-8-8s-8 3.6-8 8z"/></svg>