<svg xmlns="http://www.w3.org/2000/svg" viewBox="0 0 512 512"><path d="M32 96v320h448V96H32zm398 159.8c0 20.9-1.1 37.2-2.8 61.9l-.5 7.8c-1.9 27.8-16.4 42.6-44.5 45.2-32.2 3-76.9 3.3-112.3 3.3h-27.8c-35.4 0-80.2-.4-112.3-3.3-28-2.6-42.6-17.4-44.5-45.2l-.5-7.7c-1.7-24.7-2.8-41-2.8-62 0-23.5.1-38.3 3.3-69.4 2.9-28.1 17-42.5 44.6-45.3 31.2-3.2 86.1-3.2 126.1-3.2 40.1 0 95 0 126.2 3.2 27.5 2.8 41.7 17.2 44.6 45.3 3.1 31.1 3.3 45.9 3.2 69.4z"/><path d="M337.7 162.4c-10.9 0-20.9 1.4-30 4.3-9.1 2.9-17 7.9-23.6 15.1-6.6 7.2-11.7 16.8-15.4 28.9-3.6 12.1-5.5 27.3-5.5 45.7 0 18 1.5 33 4.4 45.1 3 12.1 7.3 21.7 13.1 28.9 5.8 7.2 13.1 12.2 21.8 15 8.8 2.8 19.1 4.2 30.9 4.2 25 0 43-6.4 53.8-18.7 10.8-12.3 16.2-30.3 16.2-53.9h-46.1v4.1c0 16.3-10.1 25.9-23.6 25.9-13.5 0-22.6-10.8-23.9-25.9 0 0-1.2-7.9-1.2-23.9s1.4-26 1.4-26c2.4-17 10.7-25.9 24.2-25.9 13.4 0 24.1 11.6 24.1 29.2v.5h45.1c0-21.9-5.5-41.6-16.6-54-10.8-12.4-27.2-18.6-49.1-18.6zM182.8 162.4c-10.9 0-20.9 1.4-30 4.3-9.1 2.9-17 7.9-23.6 15.1-6.6 7.2-11.7 16.8-15.4 28.9-3.6 12.1-5.5 27.3-5.5 45.7 0 18 1.5 33 4.4 45.1 3 12.1 7.3 21.7 13.1 28.9 5.8 7.2 13.1 12.2 21.8 15 8.8 2.8 19.1 4.2 30.9 4.2 25 0 43-6.4 53.8-18.7 10.8-12.3 16.2-30.3 16.2-53.9h-46.1v4.1c0 16.3-10.1 25.9-23.6 25.9-13.5 0-22.6-10.8-23.9-25.9 0 0-1.2-7.9-1.2-23.9s1.4-26 1.4-26c2.4-17 10.7-25.9 24.2-25.9 13.4 0 24.1 11.6 24.1 29.2v.5h45.1c0-21.9-5.5-41.6-16.6-54-10.8-12.4-27.2-18.6-49.1-18.6z"/></svg>