<svg xmlns="http://www.w3.org/2000/svg" viewBox="0 0 512 512"><path d="M390.4 121.9L384 32 32 56l23.3 319.9 22.2-1.6-5.5 78.9L456 480l24-352-89.6-6.1zm-321.2 237L49.1 71.6l320.2-22.4 5 71.6-16.1-1.1-3.7-53.5L67.1 86.4l15.3 218.2-3.8 53.6-9.4.7zM96.6 102l-6.2 87.9-6.2-88.7 255.4-17.9 2.5 35.3L96.6 102zm344 360.9L88.1 438.3 110.4 119l352.5 24.6-22.3 319.3z"/><ellipse transform="rotate(94.004 361.466 216.762) scale(1.00004)" cx="361.5" cy="216.8" rx="16" ry="16"/><path d="M126.3 136.2l-15.6 223.5L430.2 382l15.6-223.5-319.5-22.3zm42.8 211.5l77.5-95.1L310 357.5l-140.9-9.8zm160.5 11.2l-23.2-38.3 24.5-30 43.2 71.4-44.5-3.1zm85.7 6l-21.7-1.5-60.8-100.5-35.2 43.2-49.1-81.2-98.9 121.4-21.8-1.5 13.4-191.6 287.6 20.1-13.5 191.6z"/></svg>