<svg xmlns="http://www.w3.org/2000/svg" viewBox="0 0 512 512"><path d="M113.9 406c-2.1 0-4.2-.8-5.8-2.5-39.3-41-60.1-92-60.1-147.5s20.8-106.5 60.2-147.5c3.1-3.2 8.1-3.3 11.3-.2s3.3 8.1.2 11.3C83.3 157.5 64 204.7 64 256c0 51.3 19.3 98.5 55.7 136.5 3.1 3.2 3 8.3-.2 11.3-1.6 1.5-3.6 2.2-5.6 2.2zM398.1 406c-2 0-4-.7-5.5-2.2-3.2-3.1-3.3-8.1-.2-11.3 36.4-38 55.7-85.2 55.7-136.5s-19.3-98.5-55.7-136.5c-3.1-3.2-3-8.3.2-11.3s8.3-3 11.3.2c39.4 41 60.2 92 60.2 147.5s-20.8 106.5-60.2 147.5c-1.6 1.8-3.7 2.6-5.8 2.6z"/><path d="M156.1 365.6c-2.1 0-4.1-.8-5.7-2.4-28.1-28.6-43.6-66.3-43.6-106.4 0-41 16.1-79.4 45.3-108.1 3.1-3.1 8.2-3.1 11.3.1 3.1 3.2 3.1 8.2-.1 11.3-26.2 25.7-40.6 60.1-40.6 96.7 0 35.8 13.8 69.6 39 95.1 3.1 3.2 3.1 8.2-.1 11.3-1.5 1.6-3.5 2.4-5.5 2.4zM355.9 365.6c-2 0-4.1-.8-5.6-2.3-3.1-3.1-3.2-8.2-.1-11.3 25.1-25.5 39-59.3 39-95.1 0-36.7-14.4-71-40.6-96.7-3.1-3.1-3.2-8.2-.1-11.3 3.1-3.1 8.2-3.2 11.3-.1 29.2 28.8 45.3 67.2 45.3 108.1 0 40-15.5 77.8-43.6 106.4-1.4 1.5-3.5 2.3-5.6 2.3z"/><g><path d="M198 326.9c-2.1 0-4.1-.8-5.7-2.4-17.9-18.2-27.8-42.4-27.8-67.9 0-26.2 10.3-50.7 29-69.1 3.1-3.1 8.2-3.1 11.3.1 3.1 3.2 3.1 8.2-.1 11.3-15.6 15.3-24.2 35.8-24.2 57.7 0 21.4 8.2 41.5 23.2 56.7 3.1 3.1 3.1 8.2-.1 11.3-1.5 1.5-3.5 2.3-5.6 2.3zM314 326.9c-2 0-4.1-.8-5.6-2.3-3.1-3.1-3.2-8.2-.1-11.3 15-15.2 23.2-35.4 23.2-56.7 0-21.9-8.6-42.3-24.2-57.7-3.1-3.1-3.2-8.2-.1-11.3 3.1-3.1 8.2-3.2 11.3-.1 18.7 18.4 29 42.9 29 69.1 0 25.6-9.9 49.7-27.8 67.9-1.6 1.6-3.7 2.4-5.7 2.4z"/></g><circle cx="256" cy="256" r="32"/></svg>