<svg xmlns="http://www.w3.org/2000/svg" width="512" height="512" viewBox="0 0 512 512"><path d="M248 336h16v112h-16zM413.012 178.113C406.146 113.895 354.042 64 288 64c-44.838 0-86.535 22.812-109.396 57.715A62.24 62.24 0 0 0 152.5 116c-34.208 0-61.98 27.487-62.477 61.577C55.093 188.613 32 220.157 32 256c0 43.906 35.594 80 79.5 80H248V191.412l-70.788 70.635-11.663-11.604L256.104 160l90.487 90.467-11.742 11.603L264 191.412V336h136.5c43.906 0 79.5-36.094 79.5-80 0-39.648-29.027-71.884-66.988-77.887z"/></svg>