<svg xmlns="http://www.w3.org/2000/svg" viewBox="0 0 512 512"><path d="M380.4 163.6C374 160.5 368 159 368 159c0-61.9-50.1-113-112-113S144 97.2 144 159.1c0 0-5.7.9-12.4 4.4-12.2 6.4-19.7 19.8-19.7 34.5 0 22.1 17.9 40 40 40 12.5 0 31.7-5.8 39.1-14.8 15.3 15.1 37.8 22.8 64.9 22.8 27.1 0 49.7-7.7 64.9-22.8 7.3 9 26.5 14.8 39.1 14.8 22.1 0 40-17.9 40-40 .1-14.6-8.7-29.1-19.5-34.4zM360 222c-4.5 0-10.7-1.2-16.2-3.1-6.4-2.3-10.5-5.8-10.5-5.8-5.2-3.4-11.1-13.7-11.1-13.7l-12.5 12.4c-12 11.9-30.5 18.2-53.7 18.2-23.1 0-41.7-6.3-53.7-18.2l-12.5-12.4s-4.6 8.9-11.1 13.7c-2 1.5-4.1 3.5-10.5 5.8-5.4 1.9-11.6 3.1-16.2 3.1-13.3 0-24-10.8-24-24 0-8.2 4-15.6 10.7-20 0 0 4.1-2.5 8.1-3.9 4.6-1.5 8.4-2 8.4-2 10.1 7.8 21.4 10.5 21.4 10.5-8.7-6-16.4-21.7-16.4-21.7V159c0-25.8 10-50.1 28.2-68.5C206.4 72.2 230.5 62 256 62c25.5 0 49.6 10.1 67.8 28.5C342 108.9 352 133.3 352 159v2.1s-7 15.6-15.6 21.6c0 0 11.2-2.7 21.3-10.4 0 0 3.5-.2 7.5 1.3s8.1 4.5 8.1 4.5c6.7 4.5 10.7 11.8 10.7 20 0 13.1-10.8 23.9-24 23.9z"/><path d="M191.1 240.2l-.3.3.3-.3c.1.1 0 0 0 0zM321 240.2c-15.3 15.1-37.9 22.8-65 22.8-27 0-49.6-7.6-64.8-22.7l-.4.2c-4 4.7-11.2 8.5-18.9 11L226.8 439c.9 2.6 9.5 27 29.3 27 9.1 0 17.5-5.9 23.7-14.7 3.7-5.3 5.6-11.4 5.9-12.4l55.3-187c-8.2-2.7-16-6.7-20-11.7zm-64.9 43.5l35.8 24.6-35.8 24.6-35.8-24.6 35.8-24.6zm-58.3 9.1L187.1 258l5-3c9.5 10.4 36.1 18.1 51.8 20.2l.5.3-35.8 24.6-7.1 4.9-3.7-12.2zm7.5 25.8l3.2-2.2 35.8 24.6-27.1 18.6-11.9-41zm27.8 95.7l-5.6-19.3 16.8 11.6-11.2 7.7zm23 38.7c-11.3 0-17.1-18.4-17.1-18.4l-1-3.8 18.1-13.1 18.2 13.2-.9 3.6c0 .1-5.7 18.5-17.3 18.5zm23.2-38.6l-11.4-7.8 17.1-11.8-5.7 19.6zm11.6-39.9l-34.8 24-34.5-23.7-.4-1.5 35-24 35.2 24.2-.5 1zm4.3-14.7L267.9 341l35.8-24.6 3.5 2.4-12 41zm19.6-67.3l-3.7 12.7-7.4-5.1-35.8-24.6.5-.3c15.6-2.1 37-8.2 51.7-18.8l4 2.6-9.3 33.5z"/></svg>