<svg xmlns="http://www.w3.org/2000/svg" viewBox="0 0 512 512"><path d="M384.5 64c-24.8 0-47.8 77.3-47.8 160 0 57 32.1 80 32.1 80s6.2 4.8 15.1 6v130c0 4.4 3.6 8 8 8s8-3.6 8-8V75c.1-11-10.4-11-15.4-11zm-.5 17v212c-1-.1-5-1-7.3-3.1-1.3-1.1-5.2-4.6-10.3-12.9-11.3-18.1-13.6-38.8-13.6-52.9 0-34.9 4.2-71.4 12-100.1 7.5-28 16.2-39.7 19.2-43zM296 64h-8l10 103.5c0 4.4-3.6 7.8-8 7.8s-8-3.2-8-7.6L276 64h-8l-6 103.5c0 4.4-3.6 7.8-8 7.8s-8-3.2-8-7.6L256 64h-8s-24 107.1-24 127.9c0 20.8 13.2 39.4 32 45.3 5.3 1.7 8 1.8 8 1.8v201c0 4.4 3.6 8 8 8s8-3.6 8-8V239s5.1-.9 8-1.8c18.6-6 32-24.2 32-45.2S296 64 296 64zm-24 159c-28.6 0-32-26.6-32-31.6 0 0 .1-2.7.3-4.5 3.9 2.7 8.6 4.3 13.7 4.3 7.2 0 11.5-3.1 18-3.1s10.8 3.1 18 3.1c5.1 0 9.8-1.6 13.7-4.3.2 1.9.3 4.6.3 4.6 0 4.7-3.4 31.5-32 31.5zM160 64c-26.5 0-48 63.9-48 127.9 0 17.3 9.2 33.2 23.2 41.3 11.4 6.7 16.8 6.8 16.8 6.8v200c0 4.4 3.6 8 8 8s8-3.6 8-8V240s5.1 0 16.2-6.2c14.2-8 23.8-24 23.8-41.8 0-64-21.5-128-48-128zm16.3 155.6l-.1.1-.1.1c-.7.4-1.6 1-2.6 1.4-1.2.3-2.4.7-3.5 1.3-3.4.7-6.8 1.3-9.9 1.3-3.1 0-6.5-.6-9.9-1.3-1.1-.5-2.2-.9-3.5-1.2-1-.5-2.2-1.2-3-1.7l-.2-.1-.2-.1c-9.4-5.6-15.3-16.1-15.3-27.4 0-29.4 4.8-59.5 13.1-82.5 4.8-13.2 9.5-20.5 12.6-24.3 3.4-4.2 5.8-5.1 6.3-5.1s2.9.9 6.3 5.1c3.1 3.8 7.8 11 12.6 24.3 8.3 23 13.1 53 13.1 82.5 0 11.3-6.2 22.2-15.7 27.6z"/></svg>