<svg xmlns="http://www.w3.org/2000/svg" viewBox="0 0 512 512"><path d="M342.6 218.1c-13.3 0-26.1 0-38.1 4.1-51.6-43.1-187.8-156.9-198.2-167.5C101.5 49.8 96.2 48 91 48c-8.7 0-17 5.2-21.7 9.6-7 6.6-25.6 26.8-20.5 32 15.3 15.4 27.4 26.5 33.7 32.8 4.8 4.8 13.4-.8 19.6 3.3 5.5 3.6 10 9.9 14.6 14.5 5.3 5.4 9 7.8 8.9 15.7-.1 8.3.5 13.8 6.3 20 4.7 5 9.1 7.6 15.9 7.7 9.2.2 14.9 2.4 20.9 9.9 5.7 7.1 2.1 14.2 4.9 22 1.8 5.1 16 18.1 18 20.1s11 0 13.3 2.3 17.2 15.8 18.2 20.4-3 9-2 13.6c1.2 5.6 7.2 12.1 10.6 17.4-6.8 15.5-10.6 32.6-10.6 50.7 0 68.5 54.4 124 121.4 124S464 408.5 464 340s-54.4-121.9-121.4-121.9zm0 229.9c-58.2 0-105.5-48.5-105.5-108 0-15.4 3.1-30.3 9.2-44.2l3.5-7.9s-7.7-13.4-10.4-16.2c-2.7-2.7 2.2-13.1-.6-16.6-2.9-3.5-19.6-25.2-24.7-30.3-5.1-5.1-14-1.8-16.7-4.5-2.7-2.7-7.3-7.9-8.7-10.4-.2-.8-.2-2.4-.3-3.8-.1-5.2-.3-14-7.1-22.4-8.6-10.8-18.5-15.5-32.9-15.9-1.6 0-2.2-.1-4.7-2.7-1.6-1.7-2-2.2-2-8.9.1-13.7-6.7-20.4-11.6-25.2L111 112.4c-7.7-5.1-15.1-5.2-19.9-5.2-1.3 0-2.6 0-3.4-.2L65.9 84.3c1-3 7.7-8.9 10.6-11.5 1.4-1.2 2.6-2.4 3.9-3.5 2.8-2.6 7.4-5.3 10.8-5.3 1 0 2.1.1 3.9 1.9 10.4 10.6 129.4 110.2 199.4 168.6l6.8 5.7 8.4-2.8c9.6-3.2 20.9-3.2 33-3.2 28.3 0 54.8 10.9 74.6 30.6 19.9 19.8 30.8 46.6 30.8 75.3 0 59.4-47.3 107.9-105.5 107.9z"/><path d="M384 352c-17.7 0-32 14.3-32 32s14.3 32 32 32 32-14.3 32-32-14.3-32-32-32zm0 48c-8.8 0-16-7.2-16-16s7.2-16 16-16 16 7.2 16 16-7.2 16-16 16z"/></svg>