<svg xmlns="http://www.w3.org/2000/svg" viewBox="0 0 512 512"><path d="M431 320.6c0-4.4 1.2-8.6 3.3-12.2.6-1.1 1.4-2.1 2.1-3.1 17.4-26 27.6-57.1 27.6-90.3.3-92.2-77.5-167-173.7-167-83.9 0-153.9 57.1-170.3 132.9-2.4 11.1-3.7 22.4-3.7 34.2 0 92.3 74.8 169.1 171 169.1 15.3 0 35.9-4.6 47.2-7.7s22.5-7.2 25.4-8.3 6.1-1.7 9.3-1.7c3.6 0 7 .7 10.1 2l56.7 20.1s2.4 1 3.9 1c4.4 0 8-3.5 8-8 0-1-.5-2.7-.5-2.7L431 320.6zm-45.9 33c-5-2-10.3-3.2-15.8-3.2-4.1 0-10.1.8-12.2 1.6-2.1.8-11.3 3.8-11.3 3.8-4.2 1.4-9.9 3.8-15.2 5.1-14 3.6-30.1 7.2-43.2 7.2-41.9 0-81.1-16.1-110.3-45.3-14.1-14.1-25.1-30.5-32.8-48.7-7.9-18.8-11.9-38.7-11.9-59.1 0-10.2 1.1-20.6 3.3-30.8 7.2-33.4 26.5-63.8 54.2-85.7C203.7 87.6 219.3 79 236 73.1c17.4-6.1 35.7-9.2 54.4-9.2 22 0 43.3 4.2 63.3 12.6 19.3 8.1 36.4 19.6 51 34.2C432.7 139 448 176 448 215c0 28.9-8.6 57-24.7 81.2-.1.1-.2.3-.3.4-.7.9-1.6 2.2-2.5 3.8-3.5 6.1-5.4 12.4-5.4 20.1 0 7.7 8.2 32.5 13 48.2l-43-15.1z"/><path d="M305.3 395.7c-6.3 6.1-12.1 10.4-12.1 10.4-24.9 20.2-56.4 31.4-89.5 31.4-18.8 0-37.1-3.6-54.5-10.7-.4-.2-.8-.3-1-.4-.6-.3-1.2-.5-1.8-.6-7-2.3-14.7-2-21.4.7l-42.5 16.8 9.3-48.5c.1-.5.1-1 .1-1.5 0-5.1-1.3-10-3.9-14.3l-.4-.7c-.5-.8-1-1.8-1.7-2.7-14.4-21.7-22-46.9-22-72.9 0-30 10.6-62.8 37.8-92.9.6-4.3 1.3-8.6 2.3-12.8 1-4.5 2.2-9 3.5-13.4l-8 7.1C66.8 219.2 48 260 48 302.5c0 29.3 8.6 57.6 24.8 82 .1.1.2.2.3.4.2.2.6.9.8 1.4.2.3.3.6.5.8 1 1.7 1.5 3.4 1.6 5.4l-11.9 62c-.6 2.9.5 5.8 2.7 7.7 1.5 1.2 3.3 1.8 5.1 1.8 1 0 2-.2 2.9-.6l56.1-22.1c1.8-.7 3.7-1.1 5.7-1.1 1.8 0 3.6.3 5.3.9.2.1.5.2.7.2.1.1.2.1.3.1 19.3 8 39.8 12 60.7 12 46.6 0 90.4-20.1 120.1-55.1 0 0 3.2-4.4 6.9-9.6-3.8 1.2-8 2.5-12.2 3.7-3.6 1.1-8.1 2.2-13.1 3.3z"/></svg>