<svg xmlns="http://www.w3.org/2000/svg" width="512" height="512" viewBox="0 0 512 512"><path d="M366.195 212.122A112.58 112.58 0 0 0 368 192c0-61.856-50.144-112-112-112s-112 50.144-112 112c0 6.87.62 13.594 1.805 20.122C98.615 225.302 64 268.606 64 320c0 61.856 50.144 112 112 112 31.342 0 59.67-12.878 80-33.626C276.33 419.122 304.658 432 336 432c61.856 0 112-50.144 112-112 0-51.394-34.616-94.697-81.805-107.878zM160 192c0-52.935 43.064-96 96-96s96 43.065 96 96c0 5.776-.512 11.435-1.494 16.933-4.75-.614-9.59-.934-14.506-.934-31.342 0-59.67 12.878-80 33.626C235.67 220.878 207.342 208 176 208c-4.916 0-9.757.318-14.506.933A96.248 96.248 0 0 1 160 192zm112 128c0 19.58-5.895 37.806-16 53.006-10.104-15.2-16-33.426-16-53.006 0-5.776.512-11.435 1.494-16.933a113.082 113.082 0 0 0 29.012 0A96.248 96.248 0 0 1 272 320zm-16-32a96.29 96.29 0 0 1-10.314-.555A95.787 95.787 0 0 1 256 266.995a95.74 95.74 0 0 1 10.314 20.45A96.29 96.29 0 0 1 256 288zm-26.21-3.636c-29.755-8.455-53.665-30.937-64.104-59.81 3.39-.364 6.83-.556 10.314-.556 27.353 0 52.07 11.5 69.572 29.917a111.686 111.686 0 0 0-15.78 30.45zm36.638-30.447C283.93 235.5 308.648 224 336 224c3.484 0 6.925.19 10.314.555-10.44 28.873-34.35 51.354-64.105 59.81a111.637 111.637 0 0 0-15.782-30.448zM176 416c-52.936 0-96-43.064-96-96 0-43.852 29.554-80.93 69.79-92.364 11.733 34.983 40.266 62.257 76.015 72.243A112.57 112.57 0 0 0 224 320c0 24.717 8.012 47.56 21.572 66.084C228.07 404.5 203.352 416 176 416zm160 0c-27.354 0-52.07-11.5-69.572-29.917C279.988 367.56 288 344.717 288 320c0-6.87-.62-13.594-1.805-20.12 35.75-9.987 64.28-37.26 76.014-72.244C402.445 239.07 432 276.15 432 320c0 52.936-43.064 96-96 96z"/></svg>