<svg xmlns="http://www.w3.org/2000/svg" width="512" height="512" viewBox="0 0 512 512"><path d="M417 278.742V278h29.814c-.93-23-6.056-45.61-14.83-66.15-8.644-20.23-20.504-38.666-35.258-54.563l-24.867 24.646-11.23-10.992 24.788-24.678c-16.187-14.836-34.86-26.742-55.515-35.392C308.48 101.897 286 97.092 263 96.186V130h-15V96.186c-23 .894-44.95 5.7-66.404 14.685-20.353 8.524-38.958 20.458-55.315 35.472l24.797 24.583-.55.55.002.005-.29.335-10.27 10.203-24.78-24.48c-14.77 15.933-26.604 34.244-35.176 54.31C71.24 232.388 66.117 255 65.187 278H94v16H65.187c.926 22 5.915 44.432 14.83 65.297 7.688 18 18.397 34.664 31.83 49.926 38.785-37.377 89.958-57.928 144.154-57.928 54.114 0 105.287 20.676 144.155 58.135 13.354-15.175 24.06-31.98 31.83-50.166C440.9 338.396 445.89 316 446.815 294H417v-15.258zm-113 9.196c0 26.467-21.533 48-48 48-10.223 0-19.7-3.223-27.496-8.69L216.47 339.28l-11.31-11.313 11.947-11.948c-5.722-7.903-9.106-17.603-9.106-28.08 0-26.468 21.534-48 48-48a47.72 47.72 0 0 1 26.995 8.333l73.484-65.727 1.413 1.414-62.85 76.11c5.63 7.863 8.957 17.48 8.957 27.868z"/><path d="M256 64C132.288 64 32 164.226 32 287.938c0 56.975 21.283 108.97 56.316 148.5 3.55 4.006 7.24 7.82 11.066 11.562h22.193c31.713-39.103 80.144-64.096 134.424-64.096S358.71 408.897 390.423 448h22.193c3.825-3.742 7.516-7.557 11.066-11.562 35.033-39.53 56.316-91.525 56.316-148.5C480 164.226 379.71 64 256 64zm154.744 356.797c-3.05 3.408-6.392 6.863-10.213 10.564l-.375.366-.348-.393c-2.63-2.97-5.493-5.985-8.76-9.22-.274-.27-.554-.54-.833-.807l-.504-.485c-17.258-16.765-37.234-29.966-59.375-39.237C306.8 371.727 281.79 366.73 256 366.73c-25.792 0-50.802 4.997-74.337 14.853-22.14 9.27-42.117 22.473-59.375 39.238l-.504.486c-.28.268-.558.535-.833.807-3.265 3.234-6.13 6.25-8.758 9.22l-.348.393-.377-.365c-3.82-3.7-7.162-7.155-10.212-10.563-33.514-37.44-51.97-85.63-51.97-135.685 0-54.666 21.5-106.053 60.544-144.694C148.87 101.778 200.78 80.5 256 80.5c55.22 0 107.13 21.28 146.17 59.918 39.043 38.642 60.545 90.03 60.545 144.694 0 50.056-18.456 98.243-51.97 135.685z"/><circle cx="256" cy="287.938" r="32"/></svg>