<svg xmlns="http://www.w3.org/2000/svg" viewBox="0 0 512 512"><path d="M480 416H32V96h448v320zM48 400h416V112H48v288zm222-10h-27.9c-35.7 0-81-.4-113.8-3.4-36.1-3.3-56.5-24.1-59-60l-.5-7.7c-1.7-25-2.8-41.5-2.8-63.1 0-24 .1-39.1 3.4-71 3.6-35.4 24-56 58.9-59.6 32-3.2 87.3-3.2 127.8-3.2 40.4 0 95.8 0 127.8 3.2 34.9 3.5 55.2 24.1 58.9 59.6 3.3 31.9 3.4 47 3.4 71 0 21.5-1.1 38-2.8 63l-.5 7.8c-2.4 35.9-22.8 56.7-59 60-33 3-78.2 3.4-113.9 3.4zm-14-16h14c35.4 0 80.1-.4 112.3-3.3 28-2.6 42.6-17.4 44.5-45.2l.5-7.8c1.7-24.6 2.8-40.9 2.8-61.9 0-23.5-.1-38.3-3.3-69.4-2.9-28.1-17-42.5-44.6-45.3C351 138 296.1 138 256 138c-40.1 0-95 0-126.1 3.2-27.5 2.8-41.7 17.2-44.6 45.3-3.2 31.1-3.3 45.9-3.3 69.4 0 21 1.1 37.3 2.8 62l.5 7.7c1.9 27.8 16.4 42.6 44.5 45.2 32.2 3 76.9 3.3 112.3 3.3 4.7-.1 9.4-.1 13.9-.1z"/><path d="M337.7 178.4c17.2 0 29.4 4.3 37.4 13.2 5.6 6.2 9.4 15.8 11.3 27.4h-14.1c-5.4-17.7-19.9-29.8-37.9-29.8-11.2 0-20.8 4-27.9 11.6-6.4 6.8-10.4 16.2-12.1 28-.1.5-1.5 11.3-1.5 28.2 0 14.9 1 23.4 1.3 25.7 2.2 23.6 18.5 40.1 39.8 40.1 11.1 0 21.2-4.2 28.5-11.8 4.8-5 8-11.1 9.8-18.1h14.4c-1.7 11.7-5.4 20.8-11.2 27.3-7.7 8.8-21.7 13.2-41.7 13.2-10.1 0-18.9-1.1-26.1-3.4-5.7-1.8-10.4-5-14.2-9.7-4.3-5.3-7.7-13-10.1-22.7-2.6-10.8-4-24.6-4-41.2 0-16.7 1.6-30.6 4.8-41.1 2.9-9.7 6.9-17.3 11.8-22.7 4.7-5.2 10.1-8.6 16.6-10.7 7.4-2.3 15.9-3.5 25.1-3.5m0-16c-10.9 0-20.9 1.4-30 4.3-9.1 2.9-17 7.9-23.6 15.1-6.6 7.2-11.7 16.8-15.4 28.9-3.6 12.1-5.5 27.3-5.5 45.7 0 18 1.5 33 4.4 45.1 3 12.1 7.3 21.7 13.1 28.9 5.8 7.2 13.1 12.2 21.8 15 8.8 2.8 19.1 4.2 30.9 4.2 25 0 43-6.4 53.8-18.7 10.8-12.3 16.2-30.3 16.2-53.9h-46.1v4.1c0 16.3-10.1 25.9-23.6 25.9-13.5 0-22.6-10.8-23.9-25.9 0 0-1.2-7.9-1.2-23.9s1.4-26 1.4-26c2.4-17 10.7-25.9 24.2-25.9 13.4 0 24.1 11.6 24.1 29.2v.5h45.1c0-21.9-5.5-41.6-16.6-54-10.8-12.4-27.2-18.6-49.1-18.6zM182.8 178.4c17.2 0 29.4 4.3 37.4 13.2 5.6 6.2 9.4 15.8 11.3 27.4h-14.1c-5.4-17.7-19.9-29.8-37.9-29.8-11.2 0-20.8 4-27.9 11.6-6.4 6.8-10.4 16.2-12.1 28-.1.5-1.5 11.3-1.5 28.2 0 14.9 1 23.4 1.3 25.7 2.2 23.6 18.5 40.1 39.8 40.1 11.1 0 21.2-4.2 28.5-11.8 4.8-5 8-11.1 9.8-18.1h14.4c-1.7 11.7-5.4 20.8-11.2 27.3-7.7 8.8-21.7 13.2-41.7 13.2-10.1 0-18.9-1.1-26.1-3.4-5.7-1.8-10.4-5-14.2-9.7-4.3-5.3-7.7-13-10.1-22.7-2.6-10.8-4-24.6-4-41.2 0-16.7 1.6-30.6 4.8-41.1 2.9-9.7 6.9-17.3 11.8-22.7 4.7-5.2 10.1-8.6 16.6-10.7 7.4-2.3 15.9-3.5 25.1-3.5m0-16c-10.9 0-20.9 1.4-30 4.3-9.1 2.9-17 7.9-23.6 15.1-6.6 7.2-11.7 16.8-15.4 28.9-3.6 12.1-5.5 27.3-5.5 45.7 0 18 1.5 33 4.4 45.1 3 12.1 7.3 21.7 13.1 28.9 5.8 7.2 13.1 12.2 21.8 15 8.8 2.8 19.1 4.2 30.9 4.2 25 0 43-6.4 53.8-18.7 10.8-12.3 16.2-30.3 16.2-53.9h-46.1v4.1c0 16.3-10.1 25.9-23.6 25.9-13.5 0-22.6-10.8-23.9-25.9 0 0-1.2-7.9-1.2-23.9s1.4-26 1.4-26c2.4-17 10.7-25.9 24.2-25.9 13.4 0 24.1 11.6 24.1 29.2v.5h45.1c0-21.9-5.5-41.6-16.6-54-10.8-12.4-27.2-18.6-49.1-18.6z"/></svg>