<svg xmlns="http://www.w3.org/2000/svg" width="512" height="512" viewBox="0 0 512 512"><path d="M363.3 363.9c-12.9-4.6-31.4-6.2-43.2-8.8-6.8-1.5-16.7-5.3-20-9.2-3.3-4-1.3-40.9-1.3-40.9s6.1-9.6 9.4-18 6.9-31.4 6.9-31.4 6.8 0 9.2-11.9c2.6-13 6.6-18.4 6.1-28.1-.5-9-5.2-9.5-5.7-9.5 0 0 4.9-13.6 5.6-42.4C331.1 129.6 305 96 256 96s-75 33.5-74.3 67.6c.6 28.7 5.6 42.4 5.6 42.4-.5 0-5.2.5-5.7 9.5-.5 9.7 3.6 14.9 6.1 27.9 2.4 11.9 9.2 12 9.2 12s3.6 23.1 6.9 31.5c3.3 8.5 9.4 18 9.4 18s2 36.9-1.3 40.9-13.2 7.7-20 9.2c-11.9 2.6-30.3 4.3-43.2 8.9C135.8 368.5 96 384 96 416h320c0-32-39.8-47.5-52.7-52.1z"/></svg>