<svg xmlns="http://www.w3.org/2000/svg" viewBox="0 0 512 512"><path d="M273 340.9l-67.9 67.9c-13.5 13.5-31.6 21-50.9 21-19.3 0-37.4-7.4-50.9-21-13.5-13.5-21-31.6-21-50.9 0-19.3 7.4-37.4 21-50.9l67.9-67.9c3.4-3.4 7.2-6.5 11.3-9.2 4.6-3 9.5-5.5 14.7-7.4 4.8-1.8 9.8-3 14.9-3.7 3.4-.5 6.8-.7 10.1-.7 1.4 0 2.8.1 4.6.2 17.5 1.1 34 8.5 46.3 20.8 10.8 10.8 17.8 24.8 20.1 39.8 2.3-.1 8.2-.5 16.2-2.9s13.4-6.3 13.4-6.3c-3.3-21.2-11.6-37.8-27.1-53.2-15.4-15.4-35.5-25.6-57-29-1.9-.3-3.7-.6-5.6-.8a99.994 99.994 0 0 0-18.7-.3c-5.4.4-10.7 1.2-16 2.4-1.1.2-2.1.5-3.2.8-6.7 1.8-13.2 4.2-19.3 7.2-10.1 5-19.4 11.6-27.4 19.6l-67.9 67.9C61 303.9 50.3 330 50.3 357.8s10.8 54 30.3 73.5c19.6 19.6 45.7 30.3 73.5 30.3 27.9 0 54-10.8 73.5-30.3l67.9-67.9c7.2-7.2 13.2-15.4 18-24.3 0 0-11.2 2.7-23.6 2.7s-16.9-.9-16.9-.9z"/><path d="M431.4 80.6c-19.6-19.6-45.7-30.3-73.5-30.3s-54 10.8-73.5 30.3l-67.9 67.9c-7.2 7.2-13.2 15.4-18 24.3 5.2-1.2 15.3-2.4 24-2.4s16.2 1.1 16.2 1.1l68.3-68.1c13.5-13.5 31.6-21 50.9-21s37.4 7.4 50.9 21c13.5 13.5 21 31.6 21 50.9 0 19.3-7.4 37.4-21 50.9L340.9 273c-3.4 3.4-7.2 6.5-11.3 9.2-4.6 3-9.5 5.5-14.7 7.4-4.8 1.7-9.8 3-14.9 3.7-3.4.5-6.8.7-10.1.7-1.4 0-2.8-.1-4.6-.2-17.5-1.1-34-8.5-46.3-20.8a71.194 71.194 0 0 1-19.9-38.8s-6.6-.5-15.7 2.3c-5.7 1.7-11.6 4.2-14.2 5.5 3 21.5 11.4 37.7 27.1 53.5l.2.2c16.7 16.7 39 27.3 62.6 29.8a99.994 99.994 0 0 0 18.7.3c6.4-.5 12.9-1.5 19.1-3.2 6.7-1.8 13.2-4.2 19.3-7.2 10.1-5 19.4-11.6 27.4-19.6l67.9-67.9c19.6-19.6 30.3-45.7 30.3-73.5s-10.9-54.2-30.4-73.8z"/></svg>