<svg xmlns="http://www.w3.org/2000/svg" viewBox="0 0 512 512"><path d="M434.7 203.4l15.5-2.4c7.1 0 22.4-3 25.5-6.2 3.1-3.2 4.2-5.8 4.2-8.6s-1.7-7.9-4.8-11.3c-3-3.4-16-5.3-23.7-6.3-2.2-.3-3.9-.4-5.2-.4-3.2 0-4.1.7-5.5 1.6-2.3 1.5-3 11.7-3.2 17l-8.1 1.8c-4.8-12.5-11.4-35.6-21.5-54-11.5-20.8-23.5-27.4-28.5-29-4.9-1.5-9.4-2.6-43-6.1-33.7-3.5-63-3.5-80.4-3.5s-46.7 0-80.6 3.6c-33.6 3.4-38.1 4.5-43 6.1-5 1.6-17 8.2-28.5 29-10.1 18.4-16.7 41.5-21.5 54l-8.1-1.8c-.2-5.3-.9-15.6-3.2-17-1.4-.9-2.4-1.7-5.5-1.7-1.3 0-2.9.1-5.1.4-7.6 1-20.6 2.8-23.7 6.2-3 3.4-4.7 8.3-4.7 11.1s1.1 5.9 4.2 9.1c3.1 3.2 18.5 6.2 25.5 6.2l15.5 2.4S50.5 217.8 36.1 234c0 0-4.1 24.5-4.1 57.9 0 48 5.8 88.3 5.8 88.3 26.5 4.6 46.2 6.2 65.9 6.7 5.4.1 10.6.2 15.9.2 4.3 0 8.7 0 13.3-.1 24.4-.3 15.8-7.4 26.7-7.4h.4c11.3.2 55 4.5 96 4.5s84.7-4.3 96-4.5h.4c10.8 0 2.2 7.1 26.7 7.3 4.5 0 8.8.1 13 .1 5.4 0 10.7-.1 16.3-.2 19.7-.5 39.5-2.2 65.9-6.8 0 0 5.8-40.3 5.8-88.4 0-33.5-4.1-57.9-4.1-57.9-14.5-16.2-41.3-30.3-41.3-30.3zm-324.3-49c4.3-10.1 14-27.1 22.1-32.8 0 0 47-9.6 123.5-9.6s123.5 9.6 123.5 9.6c8.1 5.6 17.8 22.6 22.1 32.8s11.4 33.8 10.3 36.5c-.8 2 .2 3.3-5.4 3.3-1.8 0-4.4-.1-8-.4-14.3-1.1-99.5-2.3-142.5-2.3s-128.1 1.2-142.5 2.3c-3.6.3-6.1.4-8 .4-5.7 0-4.6-1.3-5.4-3.3-1.1-2.8 6-26.4 10.3-36.5zm349.4 211.7c-18.3 2.8-34.3 4.2-51.9 4.6-5.1.1-10.1.2-15.9.2-3.7 0-7.8 0-12.8-.1-5.5-.1-8.1-.5-9.1-.8-3.6-3.3-8.5-6.6-17.7-6.6h-.7c-3.9.1-10.5.5-19.7 1-19.2 1.2-48.3 3.4-76 3.5-27.7 0-56.8-2.3-76.1-3.5-9.2-.6-15.8-1-19.7-1h-.7c-9.2 0-14.1 3.3-17.7 6.6-1 .2-3.6.7-9.1.8-5.3.1-9.4.1-13.1.1-5.6 0-10.6-.1-15.5-.2-17.6-.5-33.7-1.9-51.9-4.6-1.7-15.1-4.2-43.2-4.2-74.4 0-23.3 2.1-42.3 3.2-50.7 10.7-10.4 27.6-20.6 33.7-23.9l13.8-7.5s44.3-2 157.3-2 157.2 2 157.2 2l13.9 7.5c6.1 3.3 23 13.4 33.7 23.8 1.1 8.4 3.2 27.3 3.2 50.8 0 31.1-2.5 59.3-4.2 74.4z"/><path d="M138.8 278.3c-9.9 0-29.8-1-34.5-1.2-4.7-.1-8.8 3.8-11.2 3.8s-25.5-3.6-28-14.9c-2.5-11.2 0-23 0-22.8 15.5-.7 30.5-.2 58.5 7.8 28.1 7.9 43.6 23.3 43.6 23.3s-18.5 4-28.4 4zM342.2 339.3c-12.7 1.7-58.5 2.2-86.2 2.2s-73.5-.5-86.2-2.2c-13.1-1.7-29.8-17.3-18.4-30.2 7.6-8.5 20.8-13.6 48.9-17.3 29.8-3.8 48.6-4.3 55.6-4.3s25.8.5 55.6 4.3c28.1 3.7 43.2 9.6 48.9 17.3 10.4 13.8-5.1 28.4-18.2 30.2zM446.9 266.1c-2.5 11.2-25.6 14.9-28 14.9-2.4 0-6.5-3.9-11.2-3.8-4.7.2-24.6 1.2-34.5 1.2s-28.4-4-28.4-4 15.5-15.4 43.6-23.3c28-8 43-8.5 58.5-7.8 0-.2 2.5 11.5 0 22.8z"/><g><path d="M401 412.3c0 2.1 1.3 3.7 3.2 3.7h56.5c4.9 0 5.9-3.5 6.2-5.5 1.4-8.4 1.9-21.3 1.9-21.3-25.7 4.7-48.8 5.5-67.8 6v17.1zM45.2 410.5c.3 2 1.3 5.5 6.2 5.5h56.7c1.9 0 3-1.6 3-3.7v-17.1c-19-.5-42.2-1.3-67.9-6-.1.1.6 12.9 2 21.3z"/></g></svg>