<svg xmlns="http://www.w3.org/2000/svg" viewBox="0 0 512 512"><path d="M335.7 32H177.1C158.8 32 144 46.6 144 64.9v381c0 18.4 14.8 34.1 33.1 34.1h158.5c18.3 0 32.3-15.7 32.3-34.1v-381C368 46.6 354 32 335.7 32zM241 55h30c2.2 0 4 1.8 4 4s-1.8 4-4 4h-30c-2.2 0-4-1.8-4-4s1.8-4 4-4zm15.5 414c-9.6 0-17.4-7.8-17.4-17.4 0-9.6 7.8-17.4 17.4-17.4 9.6 0 17.4 7.8 17.4 17.4 0 9.6-7.8 17.4-17.4 17.4zm95.5-45H160V83h192v341z"/><path d="M256.5 441.6c-5.5 0-10 4.5-10 9.9 0 5.5 4.5 10 10 10s10-4.5 10-10c-.1-5.4-4.5-9.9-10-9.9z"/></svg>