<svg xmlns="http://www.w3.org/2000/svg" viewBox="0 0 512 512"><path d="M137 80h286c22.1 0 40 17.9 40 40v272c0 22.1-17.9 40-40 40H137c-22.1 0-40-17.9-40-40 0-4.4 3.6-8 8-8s8 3.6 8 8c0 13.2 10.8 24 24 24h286c13.2 0 24-10.8 24-24V120c0-13.2-10.8-24-24-24H137c-13.2 0-24 10.8-24 24 0 4.4-3.6 8-8 8s-8-3.6-8-8c0-22.1 17.9-40 40-40z"/><path d="M316.3 246.7l-84.6-84.4c-3.1-3.1-8.2-3.1-11.3 0-3.1 3.1-3.1 8.2 0 11.3L296 248H57c-4.4 0-8 3.6-8 8s3.6 8 8 8h239l-73.7 74.4c-3.1 3.1-3.1 8.2 0 11.3 1.6 1.5 3.6 2.3 5.7 2.3s4.1-.7 5.7-2.3l82.6-82.4c6.3-6.3 6.3-14.4 0-20.6z"/></svg>