<svg xmlns="http://www.w3.org/2000/svg" viewBox="0 0 512 512"><path d="M270.9 350.6c-.7-8.2-7.6-14.6-15.9-14.6-7.6 0-14 5.4-15.6 12.5L223.8 427c-.5 2.3-.8 4.6-.8 7 0 17.7 14.3 30 32 30s32-12.3 32-30c0-2.9-.4-5.7-1.1-8.4l-15-75zM305.9 355zM388.9 386.3c-1.7-1.4-3.3-2.9-5.1-3.9l-59.6-43.5c-5.8-3.8-12-3.7-16.5.9-4.1 4.1-4.7 10.4-1.7 15.4l45 61.8c.9 1.5 2.2 2.8 3.4 4.2 7.8 9.1 25.1 9.6 34.6 0 9.4-9.8 9.3-27.2-.1-34.9zM372.5 335zM435.4 320h-59.5c-3.9 0-7.4 2.2-8.1 6.2-.6 3.6 1.3 7.1 4.7 8.8h.1l57.7 17.8c8.3 1.9 17.7-5.5 17.7-14.8 0-11.8-4.8-18-12.6-18zM139.2 335zM139.2 335c3.3-1.6 5.3-5.2 4.7-8.8-.7-4-3.9-6.2-8.1-6.2H76.3c-7.6 0-12.3 8.3-12.3 17.6s9.1 17.1 17.4 15.2l57.7-17.8h.1zM187.9 338.8l-59.6 43.4c-1.8 1.1-3.6 2.4-5.1 3.9-9.6 9.6-9.6 25.1 0 34.6 9.6 9.6 25.1 9.6 34.6 0 1.3-1.3 2.4-2.7 3.4-4.2l45-61.6c3-5 2.5-11.2-1.7-15.3-4.6-4.5-11.8-4.8-16.6-.8zM358.7 138.7c0-57.6-72.4-90.7-96-90.7 12 80.8-101.7 113-112 181.3s48 90.7 48 90.7c16.3-56.6 72.4-75.6 109.7-99.8 40.7-26.4 50.3-51.3 50.3-81.5zM358.7 259.6c5-14.7 1.9-49.3-3-63.4-9 17.5-26.3 32.4-47.2 46-8.6 5.6-20.9 10.8-29.8 15.9-18.7 10.5-34 20.6-46.3 34.4 11.3 16.4 31.3 27.7 46.3 27.7 36-.2 64-13.7 80-60.6z"/><path d="M161.8 171.9c11.7-15.1 24.9-23.8 38.2-36.2 13.4-12.5 22.1-21.2 27.5-31.3-10.7-20.1-30.8-28.1-44.7-26.1 2.3 28.6-30 44-32 64.8-1.3 12.6 5.4 25 11 28.8z"/></svg>