<svg xmlns="http://www.w3.org/2000/svg" viewBox="0 0 512 512"><path d="M189.2 83c6.7 8.5 14.9 15.8 24.1 21.4 13.3 8.2 28 12.5 42.7 12.5 14.7 0 29.4-4.3 42.7-12.5 9.2-5.6 17.3-12.9 24.1-21.4 4.7 1.7 9.3 3.6 13.8 5.7-3.2 24.8 4.3 46.5 22.3 64.4 17.9 17.9 37.4 26.9 58 26.9 2.1 0 4.2-.1 6.3-.3 2.1 4.5 4 9.2 5.8 13.9-21.9 16.4-33.9 38.2-33.9 62.3 0 24.2 11.9 45.9 33.8 62.3-1.7 4.7-3.7 9.4-5.8 13.9-2.1-.2-4.2-.3-6.2-.3-20.7 0-40.2 9.1-58.1 26.9-17.9 18-25.4 39.7-22.3 64.4-4.5 2.1-9.1 4-13.8 5.7-6.7-8.5-14.9-15.8-24.1-21.4-13.3-8.2-28-12.5-42.7-12.5s-29.4 4.3-42.7 12.5c-9.2 5.6-17.3 12.9-24.1 21.4-4.7-1.7-9.3-3.6-13.8-5.7 3.2-24.9-4.3-46.5-22.3-64.4-15.3-15.3-33.3-23-53.5-23-3.5 0-7.1.2-10.8.7-2.1-4.5-4-9.1-5.7-13.8 8.5-6.7 15.8-14.9 21.5-24.1 8.2-13.3 12.6-28.1 12.6-42.7 0-24.2-12-45.9-34-62.4 1.7-4.7 3.7-9.4 5.8-13.9 2.1.2 4.2.3 6.2.3 20.7 0 40.2-9.1 58.1-26.9 17.9-18 25.4-39.7 22.3-64.4 4.4-1.9 9-3.8 13.7-5.5M256 368c29.9 0 58-11.6 79.2-32.8S368 285.9 368 256s-11.6-58-32.8-79.2S285.9 144 256 144s-58 11.6-79.2 32.8S144 226.1 144 256c0 61.8 50.2 112 112 112m60.4-304c-13 22.2-36.4 36.9-60.4 36.9-23.9 0-47.4-14.7-60.4-36.9-13.4 4-26.2 9.3-38.2 15.8 6.5 24.9 1.3 45-15.6 62-13.3 13.3-28.7 22.2-46.7 22.2-4.9 0-9.9-.6-15.2-2-6.6 12-11.9 24.8-15.9 38.2 22.2 13 37 31.9 37 55.8s-14.8 47.4-37 60.4c4 13.4 9.3 26.2 15.8 38.2 6.9-1.8 13.5-2.7 19.7-2.7 16.1 0 30 6.1 42.2 18.3 17 16.9 22.1 37.1 15.6 62 12.1 6.5 24.8 11.8 38.2 15.8 13-22.2 36.5-36.9 60.4-36.9s47.4 14.7 60.4 36.9c13.4-4 26.2-9.3 38.2-15.8-6.5-24.9-1.3-45 15.6-62 13.3-13.3 28.7-22.2 46.8-22.2 4.9 0 9.9.6 15.2 2 6.5-12.1 11.8-24.9 15.8-38.2-22.1-13-36.8-31.9-36.8-55.8s14.8-42.8 36.9-55.8c-4-13.3-9.3-26.2-15.8-38.2-5.3 1.4-10.4 2-15.3 2-18 0-33.3-8.9-46.7-22.2-16.9-16.9-22.1-37.1-15.6-62-12-6.5-24.8-11.8-38.2-15.8zM256 352c-52.9 0-96-43-96-96s43-96 96-96 96 43 96 96-43 96-96 96z"/></svg>