<svg xmlns="http://www.w3.org/2000/svg" width="512" height="512" viewBox="0 0 512 512"><path d="M448 288c-15.268 0-28.03 10.695-31.223 25h-59.004l-30.18-90.896a8.006 8.006 0 0 0-7.76-5.478 7.996 7.996 0 0 0-7.524 5.795l-54.243 189.32-58.175-349.055a8.003 8.003 0 0 0-7.576-6.68 7.996 7.996 0 0 0-8.078 6.062L121.748 313H32v16h96a8 8 0 0 0 7.763-6.066l54.685-219.59 57.66 345.972a8.002 8.002 0 0 0 15.584.888l56.872-198.496 23.845 71.813A8.002 8.002 0 0 0 352 329h65.292c3.89 13.29 16.16 23 30.708 23 17.674 0 32-14.327 32-32S465.674 288 448 288z"/></svg>