<svg xmlns="http://www.w3.org/2000/svg" width="512" height="512" viewBox="0 0 512 512"><path d="M135.123 204.568c-10.688 0-19.343 8.717-19.343 19.44 0 10.728 8.655 19.448 19.343 19.448 10.64 0 19.297-8.72 19.297-19.447 0-10.725-8.656-19.442-19.297-19.442z"/><path d="M466.28 248.866c-21.158-88.47-43.632-135.49-88.455-148.83-9.765-2.9-18.077-4.036-25.75-4.036-27.597 0-46.937 14.683-96.08 14.683-49.173 0-68.5-14.68-96.06-14.683-7.666 0-15.964 1.135-25.722 4.036-44.87 13.34-67.342 60.36-88.46 148.83C24.57 337.34 28.417 401.23 53.43 413.156 57.503 415.1 61.663 416 65.886 416c21.694 0 45.14-23.838 67.66-52.047C159.197 331.848 165.657 331 243.82 331h24.343c78.147 0 84.628.846 110.282 32.953 22.526 28.207 45.97 52.004 67.665 52.004 4.226 0 8.384-.88 12.457-2.823 25.004-11.926 28.85-75.795 7.71-164.268zm-331.046 14.767c-21.64 0-39.234-17.758-39.234-39.623 0-21.84 17.594-39.643 39.234-39.643 21.655 0 39.25 17.803 39.25 39.643 0 21.865-17.594 39.623-39.25 39.623zm172.842-19.493c-11.058 0-20.076-9.02-20.076-20.107 0-11.09 9.02-20.104 20.076-20.104 11.13 0 20.148 9.013 20.148 20.103 0 11.088-9.017 20.107-20.148 20.107zM351.988 288c-11.058 0-20.053-8.95-20.053-20.016 0-11.157 8.995-20.106 20.053-20.106 11.146 0 20.148 8.95 20.148 20.106 0 11.065-9.002 20.016-20.148 20.016zm0-87.81c-11.058 0-20.053-8.993-20.053-20.083 0-11.094 8.995-20.107 20.053-20.107 11.146 0 20.148 9.014 20.148 20.107 0 11.09-9.002 20.083-20.148 20.083zm43.96 43.95c-11.106 0-20.102-9.02-20.102-20.107 0-11.09 8.995-20.104 20.1-20.104 11.06 0 20.054 9.013 20.054 20.103 0 11.088-8.994 20.107-20.053 20.107z"/></svg>