<svg xmlns="http://www.w3.org/2000/svg" viewBox="0 0 512 512"><path d="M396.2 288.9c-1.1 4.5-2.3 9-3.9 13.4 5.8 4.5 11.4 8.9 16.8 13.3 36 29.1 59 57.2 53.2 57.2-7.9.5-27.6-1.1-71.1-17.1-12.2-4.5-25.3-9.7-38.8-15.6 19.7-22.5 31.6-51.9 31.6-84.2 0-70.7-57.3-128-128-128-57 0-105.2 37.2-121.8 88.7-12-8.6-23.2-17.1-33.3-25.3-36-29.1-47.6-45.2-51.2-52.2-4.3-7 32.6-.9 76.1 15.1 6.8 2.5 13.9 5.2 21.1 8 2.8-3.3 5.8-6.5 8.9-9.5C89.9 125.2 41.6 115 33.3 129.8c-13.1 23.1 76.1 98.2 199.1 167.9 123 69.6 233.4 107.4 246.4 84.3 8.3-14.7-25.2-50.7-82.6-93.1zM128.1 252.3c0 1.2-.1 2.4-.1 3.7 0 70.7 57.3 128 128 128 25.8 0 49.8-7.6 69.9-20.7-32.5-14.4-66.4-29.5-103.5-50.5-33.8-19.2-67.1-41.7-94.3-60.5z"/></svg>