<svg xmlns="http://www.w3.org/2000/svg" viewBox="0 0 512 512"><path d="M368 175.2c0-19.5-1-81.7-19.3-115.6C344.2 51.4 336.2 48 317 48H195c-19.3 0-27.2 3.4-31.7 11.6-18.3 33.9-19.3 96.5-19.3 116 0 91 32 93.1 32 167.8 0 36.7-16 66.7-16 92.7 0 25.1 9 27.8 32 27.8h128c23 0 32-2.9 32-27.9 0-26-16-55.7-16-92.4 0-74.7 32-77.4 32-168.4zM177.4 67c.5-.9.7-1 2-1.5 2-.8 6.4-1.5 15.6-1.5h122c9.1 0 13.5.7 15.6 1.5 1.4.5 1.6.7 2.1 1.6 7.1 13.1 12.2 33.8 15 59.9H162.4c2.8-26.1 7.9-47 15-60zm157.4 379.6c-1.4.6-5.2 1.4-14.8 1.4H192c-9.6 0-13.4-.8-14.9-1.4-.4-.9-1.1-3.8-1.1-10.5 0-9.8 3-21.2 6.4-34.3 4.5-17 9.6-36.3 9.6-58.3 0-38.5-8.1-59.8-15.9-80.4-8.3-21.9-16.1-42.7-16.1-87.5 0-11.4.4-22.3 1-32.5h190c.7 10.2 1 21 1 32.2 0 44.8-7.8 65.7-16.2 87.8-7.8 20.7-15.8 42.1-15.8 80.6 0 22 5.1 41.2 9.6 58.1 3.5 13.1 6.4 24.5 6.4 34.3 0 6.7-.8 9.6-1.2 10.5z"/></svg>