<svg xmlns="http://www.w3.org/2000/svg" viewBox="0 0 512 512"><path d="M154 80c3.3 0 6 2.7 6 6v52c0 3.3-2.7 6-6 6h-52c-3.3 0-6-2.7-6-6V86c0-3.3 2.7-6 6-6h52m0-16h-52c-12.1 0-22 9.9-22 22v52c0 12.1 9.9 22 22 22h52c12.1 0 22-9.9 22-22V86c0-12.1-9.9-22-22-22zM282 80c3.3 0 6 2.7 6 6v52c0 3.3-2.7 6-6 6h-52c-3.3 0-6-2.7-6-6V86c0-3.3 2.7-6 6-6h52m0-16h-52c-12.1 0-22 9.9-22 22v52c0 12.1 9.9 22 22 22h52c12.1 0 22-9.9 22-22V86c0-12.1-9.9-22-22-22zM410 80c3.3 0 6 2.7 6 6v52c0 3.3-2.7 6-6 6h-52c-3.3 0-6-2.7-6-6V86c0-3.3 2.7-6 6-6h52m0-16h-52c-12.1 0-22 9.9-22 22v52c0 12.1 9.9 22 22 22h52c12.1 0 22-9.9 22-22V86c0-12.1-9.9-22-22-22zM154 224c3.3 0 6 2.7 6 6v52c0 3.3-2.7 6-6 6h-52c-3.3 0-6-2.7-6-6v-52c0-3.3 2.7-6 6-6h52m0-16h-52c-12.1 0-22 9.9-22 22v52c0 12.1 9.9 22 22 22h52c12.1 0 22-9.9 22-22v-52c0-12.1-9.9-22-22-22zM282 224c3.3 0 6 2.7 6 6v52c0 3.3-2.7 6-6 6h-52c-3.3 0-6-2.7-6-6v-52c0-3.3 2.7-6 6-6h52m0-16h-52c-12.1 0-22 9.9-22 22v52c0 12.1 9.9 22 22 22h52c12.1 0 22-9.9 22-22v-52c0-12.1-9.9-22-22-22zM410 224c3.3 0 6 2.7 6 6v52c0 3.3-2.7 6-6 6h-52c-3.3 0-6-2.7-6-6v-52c0-3.3 2.7-6 6-6h52m0-16h-52c-12.1 0-22 9.9-22 22v52c0 12.1 9.9 22 22 22h52c12.1 0 22-9.9 22-22v-52c0-12.1-9.9-22-22-22zM154 368c3.3 0 6 2.7 6 6v52c0 3.3-2.7 6-6 6h-52c-3.3 0-6-2.7-6-6v-52c0-3.3 2.7-6 6-6h52m0-16h-52c-12.1 0-22 9.9-22 22v52c0 12.1 9.9 22 22 22h52c12.1 0 22-9.9 22-22v-52c0-12.1-9.9-22-22-22zM282 368c3.3 0 6 2.7 6 6v52c0 3.3-2.7 6-6 6h-52c-3.3 0-6-2.7-6-6v-52c0-3.3 2.7-6 6-6h52m0-16h-52c-12.1 0-22 9.9-22 22v52c0 12.1 9.9 22 22 22h52c12.1 0 22-9.9 22-22v-52c0-12.1-9.9-22-22-22zM410 368c3.3 0 6 2.7 6 6v52c0 3.3-2.7 6-6 6h-52c-3.3 0-6-2.7-6-6v-52c0-3.3 2.7-6 6-6h52m0-16h-52c-12.1 0-22 9.9-22 22v52c0 12.1 9.9 22 22 22h52c12.1 0 22-9.9 22-22v-52c0-12.1-9.9-22-22-22z"/></svg>