<svg xmlns="http://www.w3.org/2000/svg" viewBox="0 0 512 512"><path d="M384 92.1c5.3 5 10.2 10.5 14.7 16.3 29.4 37.7 38.7 86.9 26.2 138.6-12.3 50.7-38.5 74.5-58.3 85.5-21.7 12-42.7 16.2-63.8 9v-.1c-4.8-1.6-8.5-3.8-11.1-6.1-5.1-4.6-9-11.1-9.8-20.1h-.8c-6.2 6-13.6 12.4-22.5 18.1-8.9 5.7-18.3 8.4-28.5 8.4-8.3 0-15.7-1.5-22.3-4.7-6.6-3.1-12.1-7.4-16.7-12.8s-8-11.6-10.4-18.6c-2.4-7-3.6-14.6-3.6-22.7 0-14 2.3-28 6.8-41.9 4.5-13.9 11-26.5 19.3-37.7 8.3-11.2 18.3-20.3 30.1-27.1 11.8-6.9 24.7-10.4 38.9-10.4 8.8 0 17 2.6 24.5 7.9s13.5 13.9 18.1 26l10-26.5h21.3L307.6 290c-1.3 4.3-2.4 8.7-3.2 12.7s-1.1 7.6-1 10.7c.1 3.1.9 6.6 2.4 8.5.2.3.5.6.8.9 10.6 9.1 34.9 5.3 52.4-4.4 17.1-9.4 39.7-30.1 50.5-75.2 11.3-46.8 3-91.1-23.2-124.9-22.8-29.2-54.6-58.8-96.8-66.5-13.9-2.5-22.1-3.8-33.5-3.8-114.9 0-208 93.1-208 208s93.1 208 208 208 208-93.1 208-208c0-66.6-31.3-125.9-80-163.9z"/><path d="M211.1 310.6c6.4 7.1 14.5 10.7 24.3 10.7 9.6 0 18.4-3.4 26.6-10.1 8.2-6.8 15.4-15 21.5-24.8s11-20.3 14.5-31.6 5.3-21.5 5.4-30.5c0-4.9-1-9.7-2.9-14.2-1-2.3-2.1-4.5-3.3-6.6-1.2-2-2.6-3.9-4.1-5.7-3-3.6-6.4-6.5-10.2-8.7-3.8-2.2-7.8-3.3-11.9-3.3-10.4 0-19.8 3.2-28.4 9.5-8.6 6.3-16 14.2-22.1 23.7-6.1 9.5-10.8 19.8-14.1 31-3.3 11.1-4.9 21.5-4.9 31.2v.1c0 12.4 3.2 22.1 9.6 29.3z"/></svg>