<svg xmlns="http://www.w3.org/2000/svg" width="512" height="512" viewBox="0 0 512 512"><path d="M378.605 133.395C305.902 60.69 189.38 47.998 116.85 48c-38.926 0-65.19 3.658-65.19 3.658s-29.985 215.227 81.735 326.947C206.1 451.31 322.617 464 395.15 464c38.925 0 65.19-3.658 65.19-3.658s29.986-215.226-81.735-326.947zM65.142 65.208C76.137 64.194 94.374 63 116.856 63H117l-.068-.07c27.167 0 53.167 1.753 77.792 5.22l-126.6 126.58a515.877 515.877 0 0 1-2.64-22.246c-4.586-47.435-2.086-88.228-.342-107.276zM143.9 368.102c-23.85-23.852-42.793-54.938-56.304-92.396-6.973-19.332-12.51-40.373-16.57-62.866L212.838 71.05c10.672 1.93 21.064 4.19 31.14 6.804 52.028 13.492 93.784 35.708 124.14 66.064 23.85 23.85 42.786 54.928 56.297 92.386 6.974 19.333 12.51 40.375 16.567 62.87L299.17 440.987c-10.66-1.93-21.04-4.19-31.104-6.8-52.03-13.49-93.806-35.727-124.166-66.084zm302.96 78.766c-10.993 1.012-29.23 2.275-51.71 2.275-27.19 0-53.224-1.77-77.875-5.25l126.607-126.607a516.862 516.862 0 0 1 2.638 22.233c4.588 47.436 2.086 88.297.34 107.348z"/><path d="M307.304 317.847l22.625 22.632-28.655 28.65 11.315 11.315 67.88-67.88-11.313-11.315-28.72 28.72-22.626-22.63 28.717-28.717-11.313-11.313-28.715 28.714-22.634-22.638 28.702-28.702-11.313-11.314-28.7 28.7-22.626-22.63 28.696-28.698-11.314-11.313-28.694 28.694-22.63-22.637 28.686-28.687-11.313-11.313-28.684 28.685-22.624-22.63 28.682-28.682-11.313-11.313-67.882 67.882 11.314 11.313 28.693-28.694 22.624 22.63-28.692 28.69 11.313 11.313 28.69-28.69 22.63 22.638-28.678 28.68 11.313 11.313 28.677-28.677 22.626 22.63-28.674 28.675 11.314 11.314 28.67-28.67 22.634 22.637-28.66 28.66 11.314 11.315z"/></svg>