<svg xmlns="http://www.w3.org/2000/svg" viewBox="0 0 512 512"><path d="M435.7 341.5l-29.1-17c10.7-10.4 22.7-15.4 22.8-15.5 8.3-3.3 12.6-12.6 9.8-21-2.1-6.5-8.2-10.9-15-10.9-2.1 0-4.1.4-6 1.2-2.5 1-23.5 9.9-40.3 29.5L290.1 256l87.9-51.8c17.1 20.1 39.2 29.1 40.3 29.6 1.9.8 4 1.2 6 1.2 6.8 0 12.8-4.4 15-10.9 2.8-8.5-1.5-17.7-9.8-21-.1-.1-12.2-5.1-22.9-15.5l29.1-17c7.9-4.6 10.6-14.8 6.1-22.8-3-5.2-8.5-8.4-14.4-8.4-2.9 0-5.8.8-8.3 2.3l-29 16.9c-3.5-14.5-1.8-27.5-1.8-27.6 1.3-8.9-4.5-17.3-13.2-19.1-1.1-.2-2.2-.3-3.3-.3-7.8 0-14.3 5.6-15.6 13.4l-.1.3c-2.4 10.4-3.1 30.8 3.5 50.9L273 227.3V123.7c25-4.7 41.8-16.3 44.4-18.4 4.2-3.3 6.9-8.1 7.4-12.8.3-3.8-.9-7.5-3.3-10.3-3.2-3.6-8.4-5.6-14.3-5.6-4.4 0-8.4 1.2-11.4 3.4-1.4.9-8.8 6.5-22.8 10.5V56.7c0-9-7.8-16.7-17-16.7s-17 7.6-17 16.7v33.7c-11-3.7-18.6-8.7-22.7-11.4-4.1-2.8-9.1-4.2-12.1-4.2-2.9 0-9.8.1-13.7 6.6-3 4.9-2.8 9.2-2.4 11.8.5 2.9 1.9 6.3 5.5 10.2 3.6 3.9 23.4 16.1 45.4 20.3v103l-91.6-51.3c9.4-26 7.4-49.9 7.4-50.2-1.2-8.2-7-13.7-14.6-13.7-1.1 0-2.2.1-3.2.3-8.5 1.8-14 10-12.7 19.1.1.6 1.9 13.3-1.6 27.6l-29.8-16.9c-2.5-1.5-5.4-2.3-8.3-2.3-5.9 0-11.4 3.2-14.4 8.4-4.5 7.9-1.8 18.1 6.1 22.8l29.1 17c-10.7 10.3-22.7 15.4-22.8 15.5-8.3 3.3-12.6 12.6-9.8 21 2.1 6.5 8.2 10.9 15 10.9 2.1 0 4.1-.4 6-1.2 1-.4 23.1-9.5 40.3-29.6l89.9 51.8-89.9 51.8c-16.7-19.7-37.7-28.5-40.3-29.5-1.9-.8-4-1.2-6-1.2-6.8 0-12.8 4.4-15 10.9-2.8 8.5 1.5 17.7 9.7 21 .1.1 12.2 5.2 22.9 15.5l-29.1 17c-7.9 4.6-10.6 14.8-6.1 22.8 3 5.2 8.5 8.4 14.4 8.4 2.9 0 5.8-.8 8.3-2.3l29-16.9c3.5 14.5 1.8 27.5 1.8 27.6-1.3 8.9 4.5 17.2 13.2 19.1 1.1.2 2.2.3 3.3.3 7.9 0 14.5-5.8 15.6-13.7.5-3.4 3.2-26.8-5.4-50.2l88.6-51.3v103c-21 4.2-39.8 16.4-45.4 21.3l-.1.1c-2.9 2.3-4.6 5.6-4.9 9.3-.4 4.6 1.4 9.6 5.1 13.7 1.2 1.4 5 5.6 10.8 5.6 3.1 0 6.1-1.2 9.2-3.6l.5-.4c1-.9 13-8.8 25-12.7v33.7c0 9 7.8 16.7 17 16.7s17-7.6 17-16.7v-33.9c15 4 22.2 10.6 23.8 11.6 2.9 2.2 6.8 3.3 10.9 3.3 5.6 0 10.6-2 13.7-5.6 2.3-2.7 3.5-6.1 3.2-9.6-.4-4.7-3.5-9.7-8.1-13.4-.2-.2-16.5-14.4-43.5-19.4V285.7l86.6 51.1c-7.2 21.3-4.8 41.6-3.3 49.8v.2c1.2 7.8 6.3 13.6 14.5 13.6 1.1 0 2.2-.1 3.3-.3 8.8-1.8 14.9-10.3 13.7-19-.1-.8-1.4-13.6 2-27.8l29.1 17.1c2.5 1.5 5.4 2.5 8.3 2.5 6 0 11.5-3.4 14.4-8.6 4.5-7.8 1.8-18.2-6.1-22.8z"/></svg>