<svg xmlns="http://www.w3.org/2000/svg" viewBox="0 0 512 512"><path d="M32 176.3v158.5c0 18.3 14.6 33.1 32.9 33.1h381c18.4 0 34.1-14.8 34.1-33.1V176.3c0-18.3-15.7-32.3-34.1-32.3h-381C46.6 144 32 158 32 176.3zM55 271v-30c0-2.2 1.8-4 4-4s4 1.8 4 4v30c0 2.2-1.8 4-4 4s-4-1.8-4-4zm414-15.5c0 9.6-7.8 17.4-17.4 17.4-9.6 0-17.4-7.8-17.4-17.4 0-9.6 7.8-17.4 17.4-17.4 9.6 0 17.4 7.8 17.4 17.4zM424 160v192H83V160h341z"/><path d="M441.6 255.5c0 5.5 4.5 10 9.9 10 5.5 0 10-4.5 10-10s-4.5-10-10-10c-5.4.1-9.9 4.5-9.9 10z"/></svg>