<svg xmlns="http://www.w3.org/2000/svg" viewBox="0 0 512 512"><path d="M324.3 80.3c-1.2-.2-2.4-.3-3.6-.3v.4-.3h-.4c-22 0-42.9 25.9-47.8 60.3-5.3 36.6 9.4 69 32.7 72.4 1.3.2 2.7.3 4 .3 22 0 42.9-25.9 47.8-60.3 5.3-36.7-9.4-69.1-32.7-72.5zm17 70.1c-4 27.9-19.9 46.6-32.1 46.6-.6 0-1.2 0-1.7-.1-5.7-.8-11.1-6.1-14.9-14.5-4.9-10.8-6.5-25.2-4.4-39.7 4-27.7 19.8-46.3 32-46.6.6 0 1.6.1 2 .1 5.7.8 11 6.1 14.8 14.5 4.9 10.7 6.4 25.2 4.3 39.7zM320.6 80zM442.3 169.4c-3.5-1.4-7.1-2.1-10.9-2.1h-.4c-19.7.3-41.8 19.2-53.4 47.8-13.9 34.2-7.5 69.2 14.4 78.2 3.5 1.4 7.1 2.1 10.9 2.1 19.8 0 42.2-19 53.9-47.8 13.8-34.2 7.3-69.2-14.5-78.2zm-.4 72.1c-4.7 11.5-11.6 21.7-19.6 28.7-6.7 5.8-13.8 9.2-19.5 9.2-1.8 0-3.4-.3-4.9-.9-5.3-2.2-9.3-8.6-11-17.7-2.1-11.6-.2-26.1 5.3-39.6 4.7-11.5 11.7-21.7 19.6-28.7 6.6-5.8 13.5-9.1 19.2-9.2 1.9 0 3.5.3 5 .9 5.3 2.2 9.4 8.6 11.1 17.7 2.2 11.7.3 26.1-5.2 39.6zM327.6 295.4c-27.8-43.6-39.8-60-71.6-60s-43.9 16.5-71.7 60c-23.8 37.2-71.9 40.3-83.9 71.9-2.4 5.6-3.6 11.7-3.6 18.2 0 25.7 20.8 46.5 46.4 46.5 31.8 0 75.1-24 112.9-24s80.9 24 112.7 24c25.6 0 46.3-20.8 46.3-46.5 0-6.5-1.3-12.6-3.7-18.2-12-31.7-60-34.7-83.8-71.9zM368.8 416c-12.8 0-29.4-5.1-47-10.5-21.5-6.6-43.7-13.5-65.8-13.5-22.1 0-44.3 6.8-65.8 13.4-17.6 5.4-34.2 10.5-47 10.5-16.8 0-30.5-13.7-30.5-30.5 0-4.3.8-8.3 2.3-11.9l.1-.3.1-.3c4-10.6 16-17.4 31.1-26 17.6-10 37.5-21.3 51.4-43 27.7-43.4 35.8-52.7 58.3-52.7 11.8 0 19 2.6 26.6 9.5 9 8.3 18.8 23.1 31.6 43.2 13.9 21.7 33.7 33 51.3 43 15.1 8.6 27 15.4 31.1 26l.1.3.1.3c1.6 3.8 2.4 7.8 2.4 11.9 0 16.9-13.6 30.6-30.4 30.6zM202.8 213c1.3 0 2.7-.1 4-.3 23.4-3.4 38-35.8 32.7-72.4-5-34.5-25.9-60.3-47.8-60.3-1.3 0-2.7.1-4 .3-23.4 3.4-38 35.8-32.7 72.4 5 34.4 25.9 60.3 47.8 60.3zm-27.7-102.4c3.8-8.4 9.2-13.7 14.9-14.5.6-.1 1.1-.1 1.7-.1 12.3 0 28.1 18.7 32.1 46.6 2.1 14.5.5 29-4.4 39.7-3.8 8.4-9.2 13.7-14.9 14.5-.6.1-1.1.1-1.7.1-12.3 0-28.1-18.7-32.1-46.6-2.1-14.4-.5-28.9 4.4-39.7zM120.1 293.3c21.9-9 28.3-44 14.4-78.2-11.7-28.8-34.1-47.8-53.9-47.8-3.8 0-7.4.7-10.9 2.1-21.9 9-28.3 44-14.4 78.2 11.7 28.8 34.1 47.8 53.9 47.8 3.8 0 7.4-.7 10.9-2.1zm-50-51.8c-5.5-13.5-7.4-28-5.3-39.6 1.7-9.1 5.7-15.6 11-17.7 1.5-.6 3.1-.9 4.9-.9 5.8 0 12.9 3.3 19.5 9.2 8 7 14.9 17.2 19.6 28.7 11 27 6.1 52.5-5.7 57.3-1.5.6-3.1.9-4.9.9-5.8 0-12.9-3.3-19.5-9.2-8-7-15-17.2-19.6-28.7z"/></svg>