<svg xmlns="http://www.w3.org/2000/svg" viewBox="0 0 512 512"><path d="M456 256c-4.6 0-9 1.3-12.6 3.6-5.4-2.4-14.4-5.3-27.4-6.1-.3-27.7-5.5-54-14.6-77.7 8.5-6.3 15.8-14.4 21.3-23.8h1.3c13.2 0 24-10.7 24-24s-10.7-24-24-24c-13.2 0-24 10.7-24 24 0 7 3 13.3 7.8 17.7-3 4.8-7.3 10.1-13 14.9C367.3 102.9 315.4 64 256 64c-59.4 0-111.3 38.9-138.9 96.5-5.7-4.8-9.9-10.1-12.9-14.9 4.8-4.4 7.8-10.7 7.8-17.7 0-13.3-10.7-24-24-24s-24 10.7-24 24 10.7 24 24 24h1.3c5.6 9.4 12.8 17.5 21.3 23.8-9.1 23.7-14.3 50-14.6 77.8-13.1.8-22 3.7-27.4 6.1-3.7-2.3-8-3.6-12.6-3.6-13.3 0-24 10.7-24 24s10.7 24 24 24 24-10.7 24-24c0-2.5-.4-4.9-1.1-7.2 4-1.3 9.8-2.7 17.5-3.3 2.3 39 14.2 74.8 33 103.9-6 4.5-14.6 13-19.9 26.7C97.4 401.4 88 411.6 88 424c0 13.3 10.7 24 24 24s24-10.7 24-24c0-8.4-4.3-15.7-10.8-20 3.9-9 9.5-14.5 13.4-17.5 27.5 35.7 66.2 58.7 109.4 61.3 1.2.1 2.2.1 3.2.1h1c1.2 0 2.4.1 3.7.1 1.3 0 2.5 0 3.7-.1h1c1 0 2.1-.1 3.3-.1 43.2-2.6 81.9-25.7 109.4-61.3 3.9 3 9.5 8.5 13.5 17.6-6.5 4.3-10.8 11.7-10.8 20 0 13.3 10.7 24 24 24 13.2 0 24-10.7 24-24 0-12.4-9.4-22.6-21.5-23.9-5.4-13.8-13.9-22.2-19.9-26.8 18.8-29.1 30.7-64.9 33-103.8 7.7.5 13.5 1.9 17.5 3.3-.7 2.3-1.1 4.7-1.1 7.2 0 13.3 10.7 24 24 24s24-10.7 24-24-10.7-24.1-24-24.1zm-31.9-136c4.4 0 8 3.6 8 8s-3.6 8-8 8-8-3.6-8-8 3.5-8 8-8zM88 136c-4.4 0-8-3.6-8-8s3.6-8 8-8 8 3.6 8 8-3.6 8-8 8zM56 288c-4.4 0-8-3.6-8-8s3.6-8 8-8 8 3.6 8 8-3.6 8-8 8zm56 144c-4.4 0-8-3.6-8-8s3.6-8 8-8 8 3.6 8 8-3.6 8-8 8zm288.1-16c4.4 0 8 3.6 8 8s-3.6 8-8 8-8-3.6-8-8 3.6-8 8-8zM256 80c44.4 0 84.2 24.7 110.7 63.5-5.5 9.4-12.2 18.2-20.2 26.1-24.2 24.2-56.3 37.5-90.5 37.5s-66.3-13.3-90.5-37.5c-7.9-7.9-14.7-16.7-20.2-26.1C171.8 104.7 211.6 80 256 80zM112 256c0-35.9 8.9-69.4 24-97.2 24.5 36.7 65.4 61.6 112 64.1v208.9c-75.7-5.2-136-82-136-175.8zm152 175.7V222.9c46.5-2.6 87.5-27.4 112-64.1 15.2 27.9 24 61.3 24 97.3 0 93.7-60.3 170.5-136 175.6zM456 288c-4.4 0-8-3.6-8-8s3.6-8 8-8 8 3.6 8 8-3.6 8-8 8z"/></svg>