<svg xmlns="http://www.w3.org/2000/svg" width="512" height="512" viewBox="0 0 512 512"><path d="M456.82 182.377C436.783 162.787 410.063 152 381.586 152c-28.477 0-55.195 10.788-75.21 30.354L267.27 220.24l25.06 24.688 38.842-37.77c13.458-13.094 31.32-20.306 50.3-20.306 18.978 0 36.84 7.212 50.28 20.29 13.364 13.078 20.713 30.47 20.694 48.97-.02 18.444-7.363 35.75-20.677 48.73-13.46 13.094-31.32 20.306-50.3 20.306-18.978 0-36.84-7.212-50.29-20.3L205.645 182.36C185.49 162.783 158.778 152 130.426 152c-28.476 0-55.194 10.788-75.23 30.373-20.093 19.613-31.173 45.76-31.196 73.62-.024 27.822 11.055 53.973 31.192 73.63 20.04 19.59 46.76 30.377 75.235 30.377s55.194-10.788 75.223-30.363l38.994-37.91-25.088-24.5-38.83 37.614c-13.457 13.096-31.32 20.308-50.3 20.308-18.976 0-36.838-7.212-50.28-20.29-13.363-13.078-20.713-30.47-20.693-48.972.02-18.443 7.363-35.75 20.678-48.727 13.46-13.096 31.32-20.308 50.298-20.308 18.98 0 36.842 7.212 50.292 20.3L306.252 329.64C326.406 349.218 353.12 360 381.47 360c28.476 0 55.194-10.788 75.213-30.355 20.18-19.573 31.3-45.727 31.317-73.64.017-27.838-11.058-53.987-31.18-73.628z"/></svg>