<svg xmlns="http://www.w3.org/2000/svg" viewBox="0 0 512 512"><path d="M403.1 108.9c-81.2-81.2-212.9-81.2-294.2 0s-81.2 212.9 0 294.2c81.2 81.2 212.9 81.2 294.2 0 81.2-81.2 81.2-213 0-294.2zm-281.9 12.3c74.3-74.3 195.3-74.3 269.6 0 38 38 56.5 88.1 55.7 138-2.9-4.7-23.1-35.2-52.5-35.2-27.9 0-42.3 26.1-51.8 43.3-1.4 2.6-2.8 5-4 7.1-11.6 19.5-27.7 30.4-43.1 29.3-13.6-1-25.2-11.3-32.6-29.2-9.3-22.4-29.6-46.5-53.7-49.9-11.4-1.6-28.6.9-45.3 21.7-3.3 4.1-7 9.5-11.2 15.9-10.6 15.7-26.5 39.4-38.7 41.4-21 3.4-36.6-12.2-39.3-14.6-2-1.7-4.4-4.3-7.2-7.5-7.6-57 10.4-116.7 54.1-160.3z"/></svg>