<svg xmlns="http://www.w3.org/2000/svg" viewBox="0 0 512 512"><path d="M411.4 300.3l-183.8-182L171.4 62c-9.3-9.3-21.6-14-33.9-14-12.3 0-24.6 4.7-33.9 14-18.7 18.7-18.7 49.2 0 67.9l49.3 49.3L48 283.4 219.3 448s135.1-130.7 146.1-141.7c5.8-5.8 18.2-7.1 28.6-7.1 9.5 0 17.4 1.1 17.4 1.1zM114.8 118.6c-6-6-9.3-14-9.3-22.6 0-8.6 3.3-16.6 9.3-22.6 6-6 14-9.3 22.6-9.3 8.6 0 16.6 3.3 22.6 9.3l49.5 49.5-45.4 45.1-49.3-49.4zM416 336s-48 53.3-48 79.9c0 26.6 21.5 48.1 48 48.1s48-21.6 48-48.1c0-26.6-48-79.9-48-79.9z"/></svg>