<svg xmlns="http://www.w3.org/2000/svg" viewBox="0 0 512 512"><path d="M248 400h16v64h-16zM248 48h16v64h-16zM48 248h64v16H48zM400 248h64v16h-64z"/><g><path d="M148.452 352.163l11.313 11.314-45.254 45.254-11.313-11.312zM397.49 103.262l11.313 11.313-45.255 45.255-11.313-11.314z"/><g><path d="M159.905 148.52l-11.314 11.313-45.253-45.254 11.313-11.315zM408.67 397.42l-11.313 11.315-45.255-45.255 11.314-11.313z"/></g></g><path d="M256 160c-52.9 0-96 43.1-96 96s43.1 96 96 96 96-43.1 96-96-43.1-96-96-96z"/></svg>