<svg xmlns="http://www.w3.org/2000/svg" width="512" height="512" viewBox="0 0 512 512"><path d="M415.9 335.5c-14.6-15-56.1-43.1-83.3-43.1-6.3 0-11.8 1.4-16.3 4.3-13.3 8.5-23.9 15.1-29 15.1-2.8 0-5.8-2.5-12.4-8.2l-1.1-1c-18.3-15.9-22.2-20-29.3-27.4l-1.8-1.9c-1.3-1.3-2.4-2.5-3.5-3.6-6.2-6.4-10.7-11-26.6-29l-.7-.8c-7.6-8.6-12.6-14.2-12.9-18.3-.3-4 3.2-10.5 12.1-22.6 10.8-14.6 11.2-32.6 1.3-53.5-7.9-16.5-20.8-32.3-32.2-46.2l-1-1.2c-9.8-12-21.2-18-33.9-18-14.1 0-25.8 7.6-32 11.6-.5.3-1 .7-1.5 1-13.9 8.8-24 20.9-27.8 33.2-5.7 18.5-9.5 42.5 17.8 92.4 23.6 43.2 45 72.2 79 107.1 32 32.8 46.2 43.4 78 66.4 35.4 25.6 69.4 40.3 93.2 40.3 22.1 0 39.5 0 64.3-29.9 26-31.4 15.2-50.6-.4-66.7zm-11.5 55.9c-20 24.2-31.5 24.2-52.3 24.2-20.3 0-51.8-14-84.2-37.3-31-22.4-44.8-32.7-75.9-64.6-32.9-33.7-53.6-61.8-76.4-103.5-24.1-44.1-21.4-63.4-16.5-79.3 2.6-8.5 10.4-17.6 21-24.2.5-.3 1-.7 1.6-1 5.3-3.4 14.1-9.1 23.7-9.1 8 0 15.1 4 21.9 12.3l1 1.2c25.5 31.2 45.4 58.8 30.4 79.2-10.6 14.3-16.2 24-15.3 34 .8 9.7 7.3 17 17.1 28l.7.8c16.1 18.2 20.7 23 27.1 29.5 1.1 1.1 2.2 2.3 3.5 3.6l1.8 1.9c7.4 7.7 11.5 11.9 30.3 28.4l1.1 1c8 7 13.9 12.1 22.5 12.1 8.9 0 18.7-5.6 37.3-17.5 1.9-1.2 4.6-1.9 8-1.9 21.7 0 59.1 24.8 72.2 38.3 12 12.2 18 21.4-.6 43.9z"/></svg>