<svg xmlns="http://www.w3.org/2000/svg" viewBox="0 0 512 512"><path d="M431.7 348.4l-37.6-21.9c13.1-16.9 32.1-24.8 32.4-24.9 4.3-1.7 6.6-6.7 5.2-11.1-1.4-4.4-6.1-6.6-10.4-4.8-1.1.5-25.1 10.3-41.3 32.5L273.2 256l106.7-62.2c16.1 22.2 40.2 32.1 41.3 32.5 4.3 1.7 9-.4 10.4-4.8 1.4-4.4-.9-9.4-5.2-11.1-.2-.1-19.3-7.9-32.4-24.9l37.6-21.9c4.1-2.4 5.5-7.7 3.1-11.9s-7.6-5.6-11.8-3.2l-37.6 21.9c-7.9-19.8-5.2-40.5-5.1-40.7.7-4.6-2.4-9.2-6.9-10.1-4.5-.9-8.7 2.1-9.3 6.7-.2 1.2-3.5 27.1 7.5 52.4L265 240.9v-124c27-3 47.5-19 48.5-19.8 3.7-2.9 4-8 1-11.5-3.1-3.5-8.4-3.9-12-1-.2.1-16.4 12.9-37.4 15.8V56.7c0-4.8-4.2-8.7-9-8.7s-9 3.9-9 8.7v43.7c-21-3-37.2-15.7-37.4-15.8-3.7-2.9-9-2.4-12.1 1-3.1 3.5-2.7 8.6.9 11.5.9.7 21.5 16.8 48.5 19.8V241l-106.5-62.2c11-25.2 7.5-51.2 7.4-52.4-.7-4.6-4.8-7.6-9.3-6.7-4.5.9-7.6 5.5-6.9 10.1 0 .2 2.8 20.8-5.1 40.7L89 148.6c-4.1-2.4-9.4-1-11.8 3.2-2.4 4.2-1 9.5 3.2 11.9l37.6 21.9c-13 16.8-32.1 24.8-32.3 24.9-4.3 1.7-6.6 6.7-5.2 11.1 1.4 4.4 6.1 6.6 10.4 4.8 1.1-.4 25.1-10.3 41.3-32.5L238.8 256l-106.7 62.2C116 296 91.9 286.1 90.8 285.7c-4.3-1.7-9 .4-10.4 4.8-1.4 4.4.9 9.4 5.2 11.1.2.1 19.3 8 32.3 24.9l-37.6 21.9c-4.1 2.4-5.5 7.7-3.1 11.9s7.6 5.6 11.8 3.2l37.6-21.9c8 19.9 5.2 40.5 5.1 40.7-.7 4.6 2.4 9.2 6.9 10.1 4.5.9 8.7-2.1 9.3-6.7.2-1.2 3.5-27.1-7.5-52.4L247 271.1v124.1c-27 3-47.5 19-48.5 19.8-3.7 2.9-4 8-1 11.5 3.1 3.5 8.4 3.9 12 1 .2-.1 16.4-12.8 37.4-15.8v43.7c0 4.8 4.2 8.7 9 8.7s9-3.9 9-8.7v-43.7c21 3 37.2 15.7 37.4 15.8 3.7 2.9 9 2.4 12.1-1 3.1-3.5 2.7-8.6-.9-11.5-.9-.7-21.5-16.8-48.5-19.8V271.1l106.5 62.2c-11 25.2-7.5 51.2-7.4 52.4.7 4.6 4.8 7.6 9.3 6.7 4.5-.9 7.6-5.5 6.9-10.1 0-.2-2.8-20.9 5.1-40.7l37.6 21.9c4.1 2.4 9.4 1 11.8-3.2 2.4-4.2 1-9.5-3.1-11.9z"/></svg>