<svg xmlns="http://www.w3.org/2000/svg" width="512" height="512" viewBox="0 0 512 512"><path d="M248 432.588l-70.802-70.658-11.656 11.603L256.02 464l90.57-90.442-11.755-11.604L264 432.588V320h-16zM413.012 162.113C406.146 97.895 354.042 48 288 48c-44.838 0-86.535 22.812-109.396 57.715A62.24 62.24 0 0 0 152.5 100c-34.208 0-61.98 27.487-62.477 61.577C55.093 172.613 32 204.157 32 240c0 43.906 35.594 80 79.5 80H248V208h16v112h136.5c43.906 0 79.5-36.094 79.5-80 0-39.648-29.027-71.884-66.988-77.887z"/></svg>