<svg xmlns="http://www.w3.org/2000/svg" viewBox="0 0 512 512"><path d="M462.4 216.9L428.2 183c-1.1-1.1-2.5-1.6-3.9-1.6s-2.9.5-3.9 1.6l-3.7 3.7c-5.3 0-13.6-.7-18.1-5.2-6.9-6.8 1.1-20.3-5.1-29-6.1-8.7-15.9-19.7-22.9-26.7-7-7-34.6-33.4-81.2-52.5-16.4-6.7-32.5-9.3-46.8-9.3-26.3 0-46.9 8.5-54.2 15.2-5.4 5-11.1 14-3.1 14 .7 0 1.5-.1 2.4-.2 4.4-.7 13.2-1.5 23.2-1.5 15.6 0 34.2 2.1 44.1 10 16.2 13 29.5 30.3 30.6 52.7 1.1 21.5-6.2 34-34.3 61.8l-5.7-3c-1.3-.7-2.8-1-4.2-1-2.5 0-4.9.9-6.3 2.3 0 0-4.4 4.1-46.4 45.8-62.3 61.6-139.1 123.7-139.1 123.7-2.2 2.2-2.2 5.7 0 7.8l55.2 54.8c1.1 1.1 2.5 1.6 3.9 1.6s2.9-.5 3.9-1.6c0 0 62.6-76.2 124.7-137.8 42-41.7 46.1-46 46.1-46 2.2-2.2 3.6-6.6 1.3-10.4l-3.9-6.5c25.1-24.9 35.2-35.5 47.5-38.9 4-1.1 8.3-1.5 12.7-1.5 9.6 0 19 2.2 23.3 4.5 5.1 2.7 9.7 11.3 10.2 18.6l-9.5 9.5c-2.2 2.2-2.2 5.7 0 7.8l34.2 33.9c1.1 1.1 2.5 1.6 3.9 1.6s2.9-.5 3.9-1.6l55.2-54.8c2.3-2.2 2.3-5.8.2-7.9zm-236.2 80.3c-49.4 49-99.4 107.5-118.2 129.8l-38.9-38.6c22.6-18.7 81.5-68.2 130.7-117.1 23.4-23.2 35.1-34.7 40.8-40.3l25.9 25.9c-5.7 5.9-17.3 17.5-40.3 40.3zm177-36.3l-19.3-19.2 2-2 3.2-5.2 1.5-7.3c-.8-11.2-7.5-25.6-18.6-31.5-7.3-3.9-19.4-6.4-30.9-6.4-6.1 0-11.8.7-17 2.1-15.6 4.3-26.5 15.2-50.4 38.9l-4 4-1.7 1.6-7.1-7.1 1.4-1.4c28.7-28.4 40.4-45 39-73.9-1.1-24.1-13.4-45.8-36.5-64.5-4.6-3.7-10.4-6.6-17.3-8.8 12.2.6 24.2 3.2 35.7 7.9 39.3 16.1 64.5 37.6 76 49 6.2 6.1 15.1 16.2 20.7 23.9.1 1.2-.1 3.5-.2 5.2-.5 6.7-1.2 18.2 7.5 26.8 6.6 6.5 16.5 10 29.4 10l7.6-1.2 19.3 19.1-40.3 40z"/></svg>