<svg xmlns="http://www.w3.org/2000/svg" viewBox="0 0 512 512"><path d="M433.9 344.6C401 408.4 336.3 448 265.1 448c-50.5 0-97.3-19.9-131.9-56.1-34.4-36-53.3-84.2-53.3-135.9s18.9-99.9 53.3-135.9C167.8 83.9 214.7 64 265.1 64c50.9 0 93.9 19.3 121.1 54.2 26.3 33.8 34.5 78.1 23.2 124.9-10.9 45.1-33.5 65.8-50.5 75.2-17.5 9.7-41.8 13.4-52.4 4.4-.3-.3-.6-.6-.8-.9-1.5-1.9-2.3-5.4-2.4-8.5-.1-3.1.2-6.7 1-10.7.8-4 1.9-8.4 3.2-12.7L346.1 173h-21.3l-10 26.5c-4.6-12.1-10.6-20.8-18.1-26-7.5-5.3-15.7-7.9-24.5-7.9-14.2 0-27.2 3.5-38.9 10.4-11.8 6.9-21.8 15.9-30.1 27.1-8.3 11.2-14.7 23.8-19.3 37.7-4.6 13.9-6.8 27.9-6.8 41.9 0 8.1 1.2 15.7 3.6 22.7 2.4 7 5.9 13.2 10.4 18.6 4.5 5.4 10.1 9.7 16.7 12.8 6.6 3.1 14 4.7 22.3 4.7 10.2 0 19.7-2.7 28.5-8.4s16.3-12.1 22.5-18.1h.8c.8 9 4.7 15.5 9.8 20.1 2.6 2.3 6.3 4.5 11.1 6.1v.1c21.1 7.2 42.1 3 63.8-9 19.8-11 46.1-34.7 58.3-85.5 12.5-51.6 3.2-100.8-26.2-138.6C368.5 69.4 321 48 265.1 48c-54.8 0-105.7 21.7-143.3 61C84.5 148 64 200.2 64 256s20.5 108 57.8 147c37.6 39.4 88.6 61 143.3 61 77.1 0 147.2-42.9 182.9-112l-14.1-7.4zm-150.4-58.2c-6.1 9.8-13.3 18-21.5 24.8-8.2 6.7-17 10.1-26.6 10.1-9.8 0-17.9-3.6-24.3-10.7-6.4-7.2-9.6-16.9-9.6-29.3 0-9.6 1.6-20 4.9-31.2 3.3-11.1 8-21.5 14.1-31s13.5-17.4 22.1-23.7c8.6-6.3 18.1-9.5 28.4-9.5 4.1 0 8 1.1 11.9 3.3 3.8 2.2 7.2 5.1 10.2 8.7 3 3.6 5.5 7.6 7.4 12.2 1.9 4.5 2.9 9.3 2.9 14.2 0 9.1-1.8 19.3-5.3 30.6-3.6 11.2-8.5 21.7-14.6 31.5z"/></svg>