<svg xmlns="http://www.w3.org/2000/svg" width="512" height="512" viewBox="0 0 512 512"><path d="M321.2 396.3c-11.8 0-22.4-2.8-31.5-8.3-6.9-4.1-11.5-9.6-14-16.4-2.6-6.9-3.6-22.3-3.6-46.4V224h96v-64h-96V48h-61.9c-2.7 21.5-7.5 44.7-14.5 58.6-7 13.9-14 25.8-25.6 35.7-11.6 9.9-25.6 17.9-41.9 23.3V224h48v140.4c0 19 2 33.5 5.9 43.5 4 10 11.1 19.5 21.4 28.4 10.3 8.9 22.8 15.7 37.3 20.5 14.6 4.8 31.4 7.2 50.4 7.2 16.7 0 30.3-1.7 44.7-5.1 14.4-3.4 30.5-9.3 48.2-17.6v-65.6c-20.9 13.7-41.8 20.6-62.9 20.6z"/></svg>