<svg xmlns="http://www.w3.org/2000/svg" width="512" height="512" viewBox="0 0 512 512"><path d="M495.998 360.39l-.19-14.502-14.397-1.278c-15.412-1.396-43.8-7.22-54.3-16.9-16.28-15.01-35.688-36.2-35.688-51.893 0-1.014 0-2.546 4.15-5.186 4.985-3.173 12.59-5.583 19.297-7.71 5.216-1.653 10.143-3.216 14.393-5.235 9.236-4.39 18.498-15.978 17.47-28.807-1.214-15.166-14.423-27.046-30.07-27.046-4.022 0-8.07.76-12.028 2.26-8.027 3.04-13.743 4.41-17.705 4.96.747-9.318 1.79-20.12 3.21-30.67 5.112-37.947-5.28-73.508-29.263-101.04C335.497 48.207 297.377 32 256.283 32H256c-41.093 0-79.215 16.208-104.59 45.34-23.983 27.535-34.376 63.346-29.266 101.293 1.416 10.51 2.46 21.23 3.21 30.618-3.97-.558-9.686-1.997-17.703-5.033-3.964-1.502-8.016-2.295-12.042-2.295-15.64 0-28.844 11.852-30.057 27.003-1.026 12.818 8.236 24.393 17.47 28.783 4.252 2.02 9.182 3.578 14.4 5.232 6.708 2.125 14.31 4.532 19.294 7.703 4.147 2.64 4.147 4.168 4.147 5.182 0 8.66-6.19 24.69-35.687 51.888-10.5 9.68-39.055 15.5-54.588 16.897l-14.572 1.31L16 360.604c0 1.68.312 10.546 6.485 20.32 5.246 8.305 16.073 19.282 37.863 24.406 6.18 1.452 11.186 2.562 15.208 3.453 2.306.512 4.555 1.01 6.454 1.453l.08.623c.9 7.003 1.612 12.534 4.393 17.75 2.453 4.6 8.574 12.315 22.015 12.315 2.478 0 5.25-.246 8.472-.75 1.672-.264 3.386-.555 5.2-.864 7.116-1.21 15.182-2.586 23.45-2.586 10.278 0 18.733 2.188 25.847 6.688 4.53 2.867 8.892 5.972 13.51 9.26C202.966 465.482 223.356 480 256 480c32.726 0 53.293-14.582 71.44-27.446 4.575-3.244 8.897-6.31 13.376-9.142 7.113-4.5 15.568-6.688 25.846-6.688 8.27 0 16.334 1.375 23.45 2.586 1.813.31 3.528.602 5.2.864 3.224.505 5.994.75 8.473.75 13.44 0 19.562-7.714 22.015-12.312 2.78-5.214 3.492-10.746 4.392-17.75l.082-.628a678.3 678.3 0 0 1 6.455-1.452c4.022-.892 9.028-2 15.205-3.454 21.85-5.14 32.61-16.17 37.79-24.518 6.097-9.828 6.296-18.736 6.273-20.42zM208 128c8.836 0 16 10.745 16 24s-7.164 24-16 24-16-10.745-16-24 7.164-24 16-24zm103.615 77.698C296.368 220.725 276.617 229 256 229c-20.838 0-40.604-8.29-55.657-23.343a8 8 0 1 1 11.313-11.313C223.688 206.374 239.436 213 256 213c16.387 0 32.15-6.64 44.385-18.698a8 8 0 1 1 11.23 11.396zM304 176c-8.836 0-16-10.746-16-24s7.164-24 16-24 16 10.746 16 24-7.164 24-16 24z"/></svg>