<svg xmlns="http://www.w3.org/2000/svg" width="512" height="512" viewBox="0 0 512 512"><path d="M410.5 279.2c-5-11.5-12.7-21.6-28.1-30.1-8.2-4.5-16.1-7.8-25.4-10 5.4-2.5 10-5.4 16.3-11 7.5-6.6 13.1-15.7 15.6-23.3 2.6-7.5 4.1-18 3.5-28.2-1.1-16.8-4.4-33.1-13.2-44.8-8.8-11.7-21.2-20.7-37.6-27-12.6-4.8-25.5-7.8-45.5-8.9V32h-40v64h-32V32h-41v64H96v48h27.9c8.7 0 14.6.8 17.6 2.3 3.1 1.5 5.3 3.5 6.5 6 1.3 2.5 1.9 8.4 1.9 17.5V343c0 9-.6 14.8-1.9 17.4-1.3 2.6-2 4.9-5.1 6.3-3.1 1.4-3.2 1.3-11.8 1.3h-26.4L96 416h87v64h41v-64h32v64h40v-64.4c26-1.3 44.5-4.7 59.4-10.3 19.3-7.2 34.1-17.7 44.7-31.5 10.6-13.8 14.9-34.9 15.8-51.2.7-14.5-.9-33.2-5.4-43.4zM224 150h32v74h-32v-74zm0 212v-90h32v90h-32zm72-208.1c6 2.5 9.9 7.5 13.8 12.7 4.3 5.7 6.5 13.3 6.5 21.4 0 7.8-2.9 14.5-7.5 20.5-3.8 4.9-6.8 8.3-12.8 11.1v-65.7zm28.8 186.7c-7.8 6.9-12.3 10.1-22.1 13.8-2 .8-4.7 1.4-6.7 1.9v-82.8c5 .8 7.6 1.8 11.3 3.4 7.8 3.3 15.2 6.9 19.8 13.2 4.6 6.3 8 15.6 8 24.7 0 10.9-2.8 19.2-10.3 25.8z"/></svg>