<svg id="Layer_1" xmlns="http://www.w3.org/2000/svg" width="512" height="512" viewBox="0 0 512 512"><style>.st0{fill-rule:evenodd;clip-rule:evenodd}</style><path class="st0" d="M476.9 114c-5-23.4-17.5-38.8-40.6-46.3s-64.9-4.5-94.1 16.8c-29.9 21.8-47.6 59.7-53.8 83.8 14.7-6.3 24-7.7 39-6.9 15 .8 24.5 12 24.9 25.3.3 9.8-.2 18.7-3.6 27.7-10.8 28.7-27.7 56.5-47.6 80.8-2.9 3.6-6.4 6.9-10 9.9-10.2 8.3-18.8 6.1-25.4-5.2-5.4-9.3-9-18.9-12.2-29.1-12.4-39.7-16.8-80.9-23.8-121.6-3.3-19.5-7-39.8-18-56.9-11.6-17.8-28.6-24.6-50-22-14.7 1.8-36.9 17.5-47.8 26.4 0 0-56 46.9-81.8 71.4l21.2 27s17.9-12.5 27.5-18.3c5.7-3.4 12.4-4.1 17.2.2 4.5 3.9 9.6 9 12.3 14.1 5.7 10.7 11.2 21.9 14.7 33.4 13.2 44.3 25.5 88.7 37.8 133.3 6.3 22.8 13.9 44.2 28 63.6 19.3 26.6 39.6 32.7 70.9 21.5 25.4-9.1 46.6-26.2 66-43.9 33.1-30.2 59.1-65.4 85.5-101.2 20.4-27.7 37.3-55.7 51.4-87 13.9-31 19.4-63.5 12.3-96.8z"/></svg>