<svg xmlns="http://www.w3.org/2000/svg" width="512" height="512" viewBox="0 0 512 512"><path d="M256 64C150 64 64 150 64 256c0 106.1 86 192 192 192s192-85.9 192-192c0-106-86-192-192-192zm121.9 88.5c21.6 25.4 35.3 57.6 37.7 92.9-34.6-1.8-76-1.8-109.2 1.3-4.2-10.6-8.5-21-13.2-31 38.3-16.6 67.8-38.4 84.7-63.2zM256 96c38.8 0 74.4 13.8 102.1 36.8-17.4 22-44.7 41.1-78.7 55.6-18.6-34.4-40-64-62.8-87.3 12.7-3.2 25.8-5.1 39.4-5.1zm-72.4 17.5c23.1 23 44.8 52.3 63.8 86.6-36.1 11-77.5 17.3-121.7 17.3-8.4 0-16.6-.3-24.7-.8 11.5-45.1 42-82.5 82.6-103.1zM96.3 248.4c9.1.4 18.3.6 27.6.5 50.4-.6 97.3-8.5 137.6-21.4 3.8 7.9 7.4 16 10.8 24.3-5.5 1.3-10.4 2.7-14.3 4.3-55.1 23.1-98.5 60.4-122 105.5-24.8-28.2-40-65.1-40-105.6 0-2.6.1-5.1.3-7.6zM256 416c-37 0-71-12.6-98.1-33.7 21.3-42.2 59.3-77.1 107.2-98.8 4.5-2.1 10.5-3.8 17.4-5.3 5.7 15.8 10.8 32.2 15.3 49.2 6.9 26.5 11.8 52.7 14.8 78.1C295 412.2 276 416 256 416zm86.5-25.5c-3-25.7-7.9-52.1-14.9-78.9-3.4-13-7.3-25.6-11.5-37.9 31.4-2.6 69-2.2 98.9 0-5.4 49.1-33 91.3-72.5 116.8z"/></svg>