<svg xmlns="http://www.w3.org/2000/svg" width="512" height="512" viewBox="0 0 512 512"><g fill="#231F20"><path d="M178.354 287.478c-9.123 0-16.928 4.207-23.2 12.833-6.292 8.48-9.4 18.974-9.4 31.432 0 12.474 3.167 23.008 9.4 31.51 6.272 8.54 14.038 12.77 23.2 12.77 8.494 0 15.89-4.27 22.12-12.77 6.272-8.502 9.4-19.036 9.4-31.51 0-12.42-3.167-22.93-9.4-31.43-6.232-8.588-13.566-12.834-22.12-12.834zM334.668 287.478c-9.045 0-16.89 4.207-23.182 12.833-6.27 8.48-9.36 18.974-9.36 31.432 0 12.474 3.187 23.008 9.36 31.51 6.29 8.54 14.098 12.77 23.182 12.77 8.533 0 15.906-4.27 22.178-12.77 6.293-8.502 9.418-19.036 9.418-31.51 0-12.42-3.164-22.93-9.418-31.43-6.272-8.588-13.547-12.834-22.178-12.834z"/><path d="M445.777 172h-.06s2.794-14.264.315-39.18c-2.182-24.916-7.47-47.838-16.123-68.82 0 0-4.423.76-12.76 2.896s-22.08 6.3-40.94 14.768c-18.54 8.54-37.985 19.788-58.296 33.505-13.803-3.935-34.408-5.94-61.994-5.94-26.29 0-46.914 2.012-61.977 5.945C149.35 84.315 112.11 67.23 81.85 64c-8.593 20.982-13.882 43.99-16.044 68.97-2.398 24.94.432 39.33.432 39.33C41.978 198.55 32 236.54 32 267.792c0 24.244.658 46.078 6.125 65.48 5.564 19.31 12.662 35.13 21.098 47.22 8.61 12.122 19.012 22.79 31.576 31.94 12.466 9.313 23.987 15.96 34.388 20.215 10.46 4.372 22.375 7.602 35.982 9.86 13.33 2.387 23.438 3.646 30.477 3.997 0 0 28 1.494 64.354 1.494 36.355 0 64.296-1.495 64.296-1.495 7.02-.352 17.145-1.634 30.535-3.996 13.548-2.3 25.522-5.608 35.942-9.862 10.402-4.293 21.943-10.9 34.47-20.216 12.522-9.032 22.905-19.74 31.517-31.938 8.435-12.09 15.493-27.91 21.097-47.22 5.486-19.403 6.145-41.386 6.145-65.63C480 237.39 469.982 199 445.777 172zm-65.394 233.645C352.52 418.735 311.486 424 257.06 424l-2.142-.04c-54.443 0-95.36-5.247-122.848-18.41-27.508-13.09-41.27-40.056-41.27-80.737 0-24.33 8.57-43.99 25.48-59.107 7.355-6.515 16.44-11.02 27.646-13.717 11.13-2.56 21.354-2.763 30.97-2.466 9.397.415 22.55 2.196 39.343 3.464C231.03 254.285 243.534 256 256 256c11.698 0 27.213-1.957 52.104-3.96 24.99-1.97 43.494-2.97 55.467-1 12.29 2.003 22.987 6.203 32.13 14.743 17.734 15.75 26.602 35.505 26.602 59.084 0 40.666-14.138 67.67-41.92 80.778z"/></g></svg>