<svg id="Layer_1" xmlns="http://www.w3.org/2000/svg" width="512" height="512" viewBox="0 0 512 512"><style>.st0{fill:#010101}</style><path class="st0" d="M502.6 115c-22.5-43.7-58-51-58-51s15.5 32 16 51c.4 16.1-5.5 28-27.2 33.5s-30.8-2-47.8-17.5-41.6-26.5-72.6-28c-40-2-77 9-77 9-20-25 20-80 20-80-74.5 29.5-93.7 83.3-96 113.7-1.9 24.1 8.5 40.8 8.5 40.8s-.5 27.8-5 42c-3.1 9.8-16.9 25-26 34.5-12.2 12.7-12.5 38.5 0 57s44 27.5 67 39.5 31.5 21 31.5 21 1 8.3.5 15.3-3.2 14-9 18.2c-5.5 3.9-15.5.5-20.5-2s-5-6.2-10.5-8-7.3-4-6.5-11 2-9-3.5-18.5-18.5-9.5-29.5-8-17.3 6.8-17.3 6.8l-16.3-10s8.5-15.6 5.2-35.6c-7.3-43.8-50-62.8-50-62.8L89 309.3s1.1-2.6 6.4-6.4 8.1-3.6 8.1-3.6 6.6 7.6 9.1 25.3c2.5 18-6.7 27.2-6.7 27.2l-28.3-18 1-14.5L39.8 309 56 345.7l15-4 24 22.7s-15.7 11.7-33 11.7c-11 0-22-6-22-6s-1.4-1-.8-5.5c.7-5 6.8-12.5 6.8-12.5H0s27.3 38.7 65 38.7c31 0 44.2-12.5 44.2-12.5L128 397s3 5.5 0 7-7 3.5-9 15 18 29 18 29c21.8 17.8 7 32 7 32h272c-9-13-22.5-18-32-32 0 0-44.8-58.4-1.8-90.4 57.4-42.7 42.8-69.4 41.2-101.4 0 0 31.8-6.6 59.3-33.6s38.9-70.8 19.9-107.6zM195 203c-16.9 4.5-22.5 35.5-22.5 35.5 1.5-63 57.5-93 65-89s-6.5 39-21 64c0 0-8-14.1-21.5-10.5zm37 15s18-56 37.5-59.5 41.5 21 41.5 62-26 65.4-42.8 69.2c-16.5 3.8-23 2-23 2s27.5-21.6 23.5-56.8c-2.8-24.7-31.4-24.2-36.7-16.9z"/></svg>