<svg xmlns="http://www.w3.org/2000/svg" width="512" height="512" viewBox="0 0 512 512"><path d="M259 271.3L226.2 367h-.1l-25.4 73.1c1.8.5 3.5.9 5.3 1.4h.3c15.8 4.2 32.4 6.5 49.5 6.5 8.5 0 16.8-.5 24.9-1.8 11.2-1.4 22-3.8 32.5-7.1 2.6-.8 5.2-1.7 7.8-2.6-2.8-6-8.8-19.3-9.1-19.9L259 271.3zM80.8 180.5C70.8 203.1 64 230.9 64 256c0 6.3.3 12.6.9 18.8 6.9 71.2 52.9 131 116.1 157.9 2.6 1.1 5.3 2.2 8 3.2L96 180.6c-8-.3-9.5.2-15.2-.1z"/><path d="M430.2 175.4c-4.3-9.3-9.4-18.2-15.1-26.6-1.6-2.4-3.4-4.8-5.1-7.2-21.5-28.8-50.8-51.4-84.9-64.6-21.4-8.4-44.8-13-69.2-13-60.3 0-114.2 28-149.4 71.7-6.5 8-12.3 16.6-17.5 25.6 14.2.1 31.8.1 33.8.1 18.1 0 46-2.2 46-2.2 9.4-.6 10.4 13.1 1.1 14.2 0 0-9.4 1.1-19.8 1.6L213 362l37.8-113.3-26.8-73.6c-9.4-.5-18.1-1.6-18.1-1.6-9.4-.5-8.2-14.8 1-14.2 0 0 28.5 2.2 45.5 2.2 18.1 0 46-2.2 46-2.2 9.3-.6 10.5 13.1 1.1 14.2 0 0-9.3 1.1-19.7 1.6l62.3 185.6 17.3-57.6c8.7-22.4 13.1-40.9 13.1-55.7 0-21.3-7.7-36.1-14.3-47.6-8.7-14.3-16.9-26.3-16.9-40.4 0-15.9 12-30.7 29-30.7h2.2c26.2-.7 34.8 25.3 35.9 43v.6c.4 7.2.1 12.5.1 18.8 0 17.4-3.3 37.1-13.1 61.8l-39 112.8-22.3 65.7c1.8-.8 3.5-1.6 5.3-2.5 56.7-27.4 98-82 106.7-146.7 1.3-8.5 1.9-17.2 1.9-26 0-28.9-6.4-56.3-17.8-80.8z"/></svg>