<svg xmlns="http://www.w3.org/2000/svg" width="512" height="512" viewBox="0 0 512 512"><path d="M234 272v-48h131.094l7.15-48H234v-1.83c0-35.92 14.975-58.086 79.25-58.086 26.264 0 55.867 2.498 93.19 8.742l9.56-64.96C377.988 51.123 345.306 48 310.057 48 195.327 48 146 89.225 146 165.43V176H96v48h50v48H96v48h50v26.57C146 422.774 195.297 464 310.027 464c35.25 0 67.848-3.123 105.86-11.866l-9.62-64.96c-37.322 6.244-66.78 8.742-93.045 8.742-64.276 0-79.223-18.74-79.223-63.086V320h116.794l7.148-48H234z"/></svg>