<svg xmlns="http://www.w3.org/2000/svg" width="512" height="512" viewBox="0 0 512 512"><path d="M333.6 153.9c-33.6 0-47.8 16.5-71.2 16.5-24 0-42.3-16.4-71.4-16.4-28.5 0-58.9 17.9-78.2 48.4-27.1 43-22.5 124 21.4 193 15.7 24.7 36.7 52.4 64.2 52.7h.5c23.9 0 31-16.1 63.9-16.3h.5c32.4 0 38.9 16.2 62.7 16.2h.5c27.5-.3 49.6-31 65.3-55.6 11.3-17.7 15.5-26.6 24.2-46.6-63.5-24.8-73.7-117.4-10.9-152.9-19.2-24.7-46.1-39-71.5-39z"/><path d="M326.2 64c-20 1.4-43.3 14.5-57 31.6-12.4 15.5-22.6 38.5-18.6 60.8h1.6c21.3 0 43.1-13.2 55.8-30.1 12.3-16.1 21.6-38.9 18.2-62.3z"/></svg>