<svg xmlns="http://www.w3.org/2000/svg" width="512" height="512" viewBox="0 0 512 512"><path d="M70.7 164.5l169.2 81.7c4.4 2.1 10.3 3.2 16.1 3.2s11.7-1.1 16.1-3.2l169.2-81.7c8.9-4.3 8.9-11.3 0-15.6L272.1 67.2c-4.4-2.1-10.3-3.2-16.1-3.2s-11.7 1.1-16.1 3.2L70.7 148.9c-8.9 4.3-8.9 11.3 0 15.6z"/><path d="M441.3 248.2s-30.9-14.9-35-16.9-5.2-1.9-9.5.1S272 291.6 272 291.6c-4.5 2.1-10.3 3.2-16.1 3.2s-11.7-1.1-16.1-3.2c0 0-117.3-56.6-122.8-59.3-6-2.9-7.7-2.9-13.1-.3l-33.4 16.1c-8.9 4.3-8.9 11.3 0 15.6l169.2 81.7c4.4 2.1 10.3 3.2 16.1 3.2s11.7-1.1 16.1-3.2l169.2-81.7c9.1-4.2 9.1-11.2.2-15.5z"/><path d="M441.3 347.5s-30.9-14.9-35-16.9-5.2-1.9-9.5.1S272.1 391 272.1 391c-4.5 2.1-10.3 3.2-16.1 3.2s-11.7-1.1-16.1-3.2c0 0-117.3-56.6-122.8-59.3-6-2.9-7.7-2.9-13.1-.3l-33.4 16.1c-8.9 4.3-8.9 11.3 0 15.6l169.2 81.7c4.4 2.2 10.3 3.2 16.1 3.2s11.7-1.1 16.1-3.2l169.2-81.7c9-4.3 9-11.3.1-15.6z"/></svg>