<svg xmlns="http://www.w3.org/2000/svg" width="512" height="512" viewBox="0 0 512 512"><path d="M241.24 303.936c-15.323-10.357-30.743-20.57-46.063-30.93-2.03-1.373-3.43-1.472-5.502-.03l-38.87 26.155C181.964 319.906 244 361.318 244 361.318V307.53c-.012-1.223-1.553-2.78-2.76-3.594zM195.092 240.666c15.454-10.16 30.85-20.41 46.11-30.86 1.485-1.018 2.774-3.51 2.798-5.334v-51.706s-62.033 41.124-93.262 61.942c13.7 9.16 26.67 17.913 39.787 26.443 1.02.663 3.396.285 4.567-.484zM269.838 209.354a4521.517 4521.517 0 0 0 47.627 31.815c.916.603 2.92.6 3.84 0l39.75-26.468L268 152.484v53.35c.01 1.2.805 2.82 1.838 3.52zM258.11 230.37c-1.21-.803-3.612-.53-4.744.167-4.817 2.962-9.463 6.203-14.164 9.355-8.248 5.53-25.356 17.023-25.356 17.023l38.842 25.865c1.748 1.157 4.436 1.22 6.26.11l39.014-25.992s-34.08-22.7-39.853-26.53zM141 237.116v39.61l29.622-19.84z"/><path d="M256 32C132.288 32 32 132.288 32 256s100.288 224 224 224 224-100.288 224-224S379.712 32 256 32zm139 265.006c0 5.785-2.652 9.868-7.51 13.094a38019.91 38019.91 0 0 0-123.287 82.188c-5.854 3.918-11.174 3.754-16.984-.137-40.784-27.313-81.72-54.545-122.626-81.675-5.11-3.39-7.594-7.557-7.594-13.73v-79.73c0-6.14 2.52-10.33 7.624-13.715 40.906-27.13 81.94-54.363 122.724-81.676 5.818-3.896 11.094-4.007 16.938-.095a41090.004 41090.004 0 0 0 123.26 82.194c4.68 3.106 7.454 6.943 7.454 12.66v80.622z"/><path d="M316.247 273.234a3826.352 3826.352 0 0 1-45.386 30.332c-2.41 1.588-2.887 3.318-2.86 6.19V361.1l93.04-62.003-38.528-25.882c-2.345-1.604-3.93-1.567-6.265.02zM370 276.676V237.06l-29.59 19.873z"/></svg>