<svg xmlns="http://www.w3.org/2000/svg" viewBox="0 0 512 512"><path d="M318.2 230.9l-1.6-7H160V288h90.7c-9.4 45-48.4 63.6-84.1 63.6-26 0-50.2-7.8-68.3-25.3-18.6-18.1-28.9-43.1-28.9-70.4 0-27.1 9.8-51.8 27.6-69.6 17.7-17.7 42-25.4 68.7-25.4 30.5 0 49.9 13.8 58.1 21.1l48-47.7C258.3 122.6 221.5 93 164.1 93c-44.3 0-86.7 16.8-117.7 47.8C15.9 171.3 0 215.2 0 256s15 82.6 44.6 113.3C76.3 402 121.2 419 167.5 419c42.1 0 81.9-16.5 110.3-46.3 28-29.4 42.4-70.1 42.4-112.7-.1-18-1.9-28.7-2-29.1zM512 224h-57v-57h-41v57h-57v41h57v57h41v-57h57z"/></svg>