<svg xmlns="http://www.w3.org/2000/svg" width="512" height="512" viewBox="0 0 512 512"><path d="M411.387 303.256c-3.12-9.577-7.89-18.56-14.3-26.952-6.423-8.382-14.397-15.826-23.93-22.33-9.54-6.5-20.722-11.63-33.554-15.4-5.143-1.364-14.19-3.507-26.104-6.42-8.517-2.073-16.5-4.2-25.5-6.366V120.065c9 2.396 15.25 6.202 21.925 10.43 14.28 9.04 23.232 24.505 25.855 45.505h69.174c-.654-18-4.65-32.76-11.996-46.02-8.07-14.543-18.977-27.024-32.73-36.956-13.75-9.922-30.225-17.49-48.377-22.455-7.883-2.154-14.85-3.965-23.85-5.184V32h-64v33.167c-7 1.044-15.148 2.445-22.426 4.25-17.242 4.283-32.388 10.868-45.95 19.764-13.572 8.906-24.353 20.113-32.605 33.628-8.252 13.523-12.313 29.52-12.313 48 0 9.585 1.407 18.993 4.157 28.235 2.752 9.24 7.442 17.967 14.042 26.18 6.603 8.215 15.495 15.66 26.687 22.333 11.183 6.672 24.705 12.064 41.576 16.17 9.286 2.346 18.83 4.535 26.83 6.577V389.89c-11-2.92-21.89-7.4-30.68-13.48-9.17-6.327-16.065-13.953-21.197-23.884-4.78-9.23-7.073-20.526-7.407-32.526H96c.695 21 5.25 39.494 13.672 55.37 8.8 16.605 20.533 29.96 35.204 40.563 14.662 10.613 31.393 18.356 51.198 23.49 8.885 2.305 18.926 3.96 27.926 5.23V480h64v-34.54c10-1.07 18.957-2.69 28.527-4.88 18.7-4.272 35.645-11.035 50.316-20.275 14.662-9.24 26.62-21.128 35.61-35.68 8.98-14.542 13.546-32.086 13.546-52.62 0-9.578-1.502-19.164-4.613-28.75zM224 209.7c-12-3.744-23.912-9.09-32.05-16.05-8.622-7.354-12.674-17.533-12.674-30.544 0-9.24 2.414-16.94 7.004-23.102 4.58-6.16 9.912-11.038 16.88-14.63 6.18-3.19 13.84-5.566 20.84-7.14V209.7zm118.902 149.77c-2.94 6.674-7.7 12.577-14.303 17.712-6.603 5.133-15.745 9.328-26.378 12.577-4.5 1.377-8.223 2.443-14.223 3.235v-107.11c10 2.624 18.18 5.332 26.325 8.13 8.062 2.745 15.748 7.444 22.537 14.117 6.785 6.676 10.31 17.03 10.31 31.06 0 6.85-1.338 13.605-4.27 20.28z"/></svg>