<svg id="Layer_1" xmlns="http://www.w3.org/2000/svg" width="512" height="512" viewBox="0 0 512 512"><style>.st0{fill:#010101}</style><path class="st0" d="M126.8 248.3c39.7-58.6 77.9-92.8 77.9-92.8s-42.1-48.9-92.8-67.4l-3.3-.8C61.7 128.4 32 188.7 32 256c0 50.7 16.9 97.5 45.2 135 0-4.4.6-70.3 49.6-142.7zM480 256c0-67.3-29.7-127.6-76.6-168.7l-3.2.9c-50.7 18.5-92.9 67.4-92.9 67.4s38.2 34.2 77.9 92.8c49 72.4 49.6 138.3 49.5 142.7C463.2 353.5 480 306.7 480 256zM201.2 80.9c29.3 13.1 54.6 34.6 54.6 34.6s25.5-21.4 54.8-34.6c36.8-16.5 64.9-11.3 72.3-9.5C346.8 46.6 303.1 32 256 32c-47.1 0-90.8 14.6-126.9 39.4 7.2-1.8 35.2-7.1 72.1 9.5zM358.7 292.9C312.4 236 255.8 199 255.8 199s-56.3 37-102.7 93.9c-39.8 48.9-54.6 84.8-62.6 107.8l-1.3 4.8c41 45.7 100.5 74.5 166.8 74.5 66.3 0 125.8-28.8 166.8-74.5l-1.4-4.8c-8-23-22.9-58.9-62.7-107.8z"/></svg>