<svg xmlns="http://www.w3.org/2000/svg" width="512" height="512" viewBox="0 0 512 512"><path d="M255.917 480a32.536 32.536 0 0 1-16.633-4.6L186.3 442.96c-7.915-4.56-4.024-6.202-1.444-7.14 10.565-3.78 13.713-5.657 24.947-12.285 1.206-.667 2.747-.424 3.955.322l39.71 23.504c1.476.85 3.557.85 4.93 0l155.19-92.245c1.474-.877 2.414-2.646 2.414-4.44V163.868c0-1.85-.94-3.593-2.45-4.53l-155.12-94.67c-1.477-.895-3.42-.895-4.897 0l-155.02 94.704c-1.543.903-2.515 2.698-2.515 4.495v186.804c0 1.813.972 3.513 2.48 4.39l39.93 23.97c23.61 12.205 37.59-.17 37.59-14.61v-183.7c0-2.65 2.047-4.726 4.596-4.726h22.81c2.514 0 4.596 2.072 4.596 4.727v183.698c0 32.563-19.353 51.248-49.2 51.248-9.155 0-16.396 0-36.55-10.278l-41.585-24.78C70.37 374.458 64 362.964 64 350.655V161.19c0-12.315 6.37-23.783 16.665-29.916L239.35 36.41c10.027-5.88 23.374-5.88 33.332 0l158.65 94.864C441.63 137.424 448 148.9 448 161.19v189.466c0 12.31-6.37 23.75-16.668 29.953l-158.65 94.773a32.52 32.52 0 0 1-16.698 4.6l-.067.017z"/><path d="M304.943 351.998c-64.61 0-84.006-31.61-84.006-59.27 0-2.63 2.048-4.73 4.562-4.73h20.52c2.282 0 4.227 1.7 4.562 4.016 3.084 21.602 16.748 31.15 54.324 31.15 33.4 0 47.09-10.346 47.09-28.684 0-10.592-3.462-18.424-55.406-23.697-43.427-4.44-70.288-14.373-70.288-50.295 0-33.135 26.996-52.49 72.234-52.49 46.128 0 76.462 14 79.173 50.83.1 1.336-.37 2.628-1.242 3.643-.87.966-2.078 1.528-3.353 1.528h-20.59c-2.147 0-4.025-1.562-4.46-3.713-4.4-16.953-16.97-23.402-49.563-23.402-36.486 0-40.746 12.753-40.746 22.607 0 11.963 5.03 15.44 54.294 22.172 48.76 6.663 71.933 16.117 71.933 51.552 0 35.78-28.808 58.783-79.075 58.783h.035z"/></svg>