<svg xmlns="http://www.w3.org/2000/svg" width="512" height="512" viewBox="0 0 512 512"><circle cx="256" cy="255.833" r="80"/><path d="M177.805 176.887c21.154-21.154 49.28-32.93 79.195-32.93s58.04 11.838 79.195 32.992c13.422 13.42 23.01 29.55 28.232 47.55H448.5v-113c0-26.51-20.49-47-47-47h-288c-26.51 0-49 20.49-49 47v113h85.072c5.222-18 14.81-34.19 28.233-47.613zM416.5 147.7c0 7.07-5.73 12.8-12.8 12.8h-38.4c-7.07 0-12.8-5.73-12.8-12.8v-38.4c0-7.07 5.73-12.8 12.8-12.8h38.4c7.07 0 12.8 5.73 12.8 12.8v38.4zM336.195 335.28c-21.154 21.153-49.28 32.678-79.195 32.678s-58.04-11.462-79.195-32.616c-21.115-21.115-32.76-49.842-32.803-78.842H64.5v143c0 26.51 22.49 49 49 49h288c26.51 0 47-22.49 47-49v-143h-79.502c-.043 29-11.687 57.664-32.803 78.78z"/></svg>