<svg xmlns="http://www.w3.org/2000/svg" width="512" height="512" viewBox="0 0 512 512"><path fill="#231F20" d="M511.784 329.108c-1.67-13.6-9.236-24.146-20.795-32.416l-.056-.04c-7.19-5.132-3.38-2.412-.047-.033-28.5-20.302-65.676-15.79-96.733-4.512-12.447-20.295-12.987-35.783-5.816-57.937.93-2.8.295-4.353-2.624-5.603-7.086-3.03-17.29-1.427-24.422.463-2.462.646-4.254 1.9-4.8 4.38-5.154 24.244-21.01 46.45-34.828 66.887-9.73-18.652-8.96-33.087-2.414-52.516.798-2.365.43-3.623-1.937-4.878-7.26-3.757-18.4-1.912-25.8.276-8.51 2.482-21.29 44.594-25.372 52.946-8.53 17.442-16.09 44.665-30.584 58.502-12.3-15.807 22.526-51.517 10.882-65.85-3.938-4.85-11.063-4.724-15.586-.617 1.085-7.61 1.648-12.61-.32-19.064-2.08-6.79-7.36-10.687-15.09-10.49-17.995.527-33.843 13.815-44.64 26.397-10.278 12.105-37.382 19.627-51.954 26.927-25.032-21.807-79.22-44.947-80.632-82.08-1.528-41.847 48.32-70.246 81.597-87.23 43.28-22.103 109.96-49.607 159.138-25.435 13.05 6.414 18.3 20.17 14.708 33.348-9.368 34.366-47.198 57.293-80.103 67.807-16.19 5.175-33.97 9.027-51.1 8.026-22.955-1.343-40.83-15.224-43.28-16.086-2.05-.39-1.89 2.26-1.348 3.664 23.816 62.433 144.417 16.68 175.956-15.37 15.19-15.422 24.413-30.366 28.35-53.895 4.617-27.584-15.633-44.843-31.003-51.958C213.212 56.65 105.494 103.89 46.577 152.05c-25.568 20.9-57.552 54.11-42.874 88.945 15.93 37.805 64.736 57.19 96.503 80.312-25.704 12.773-57.862 25.983-74.518 49.933-9.524 13.73-12.903 28.36-5.81 43.966 12.57 27.568 58.284 15.622 77.572 3.47 17.67-11.13 29.563-26.07 34.7-45.227 4.455-16.61 3.54-33.867-3.856-49.513l28.585-14.458c-7.698 23.075-11.098 52.002 4.88 72.854 6.402 8.338 23.017 8.675 29.817.31 8.816-10.942 14.664-24.654 20.503-37.205-.682 9.372-1.856 19.995 1.377 28.164 3.71 9.373 12.126 11.29 20.792 5.343 26.52-18.203 43.397-68.652 56.462-98.062 3.552 12.83 7.473 24.548 13.957 36.376 1.6 2.904 1.406 4.775-.797 7.196-9.685 10.675-32.826 28.48-35.07 42.9-.523 3.37 1.714 6.598 5.687 7.37 15.573 3.107 32.838-2.532 45.482-11.08 13.188-8.92 17.446-21.086 14.245-35.514-4.576-20.77 10.993-43.98 25.8-61.03 2.72 12.908 6.817 25.33 14.144 36.606-13.074 11.483-32.58 27.764-29.778 46.94.988 6.864 7.135 11.3 14.514 9.735 15.783-3.324 29.416-10.113 39.37-22.146 9.023-10.855 5.792-22.7 1.856-34.635 23.872-6.815 48.022-8.177 71.83-.027 11.496 3.91 20.756 10.5 26.25 20.818 6.725 12.644 2.938 24.292-10.05 32.604-3.288 2.104-5.563 3.833-4.45 4.743 1.11.91 4.9 2.113 13.283-3.152 8.384-5.267 13.51-12.383 14.823-21.725a37.09 37.09 0 0 0-.024-7.755zm-398.838 25.26c-1.358 16.672-9.636 30.192-23.175 41.113-7.616 6.16-17.1 11.177-26.52 12.093-9.417.917-16.75-1.46-17.377-11.23-1.764-27.493 40.923-54.424 64.625-62.533 2.02 6.86 3.01 13.666 2.432 20.587l.016-.03zm103.102-72.454c-3.903 22.31-14.83 62.347-32.314 78.336-2.356 2.143-4.61 2.018-5.81-.77-10.344-24.06 3.672-73.67 33.083-81.33 3.457-.888 5.602.583 5.04 3.764zm70.31 81.768c8.423-8.962 16.835-17.916 25.27-26.927 1.043 10.02-17.57 29.964-25.27 26.927zm80.715-17.696c-2.348 1.273-7.62 2.515-7.827.835-1.482-12.084 11.816-24.873 20.067-30.866 4.453 11.343-.818 23.834-12.24 30.032z"/></svg>