<svg xmlns="http://www.w3.org/2000/svg" width="512" height="512" viewBox="0 0 512 512"><path d="M436.9 296.8c2.8-12.5 4.2-25.4 4.2-38.7 0-99.7-82-180.6-183.2-180.6-10.7 0-21.1.9-31.3 2.6C210.3 69.9 191 64 170.2 64 111.6 64 64 110.9 64 168.7c0 19.4 5.3 37.5 14.6 53-2.4 11.7-3.7 23.9-3.7 36.3 0 99.8 82 180.6 183.1 180.6 11.5 0 22.7-1 33.5-3 15 7.9 32.1 12.4 50.2 12.4 58.7 0 106.2-46.9 106.2-104.7.1-16.7-3.9-32.5-11-46.5zm-85 47.5c-8.5 11.8-21 21.2-37.2 27.8-16.1 6.6-35.3 9.9-57.3 9.9-26.3 0-48.3-4.6-65.6-13.6-12.3-6.6-22.4-15.4-30.2-26.4-7.8-11-11.7-22-11.7-32.6 0-6.6 2.6-12.3 7.6-17.1 5-4.6 11.5-7 19.1-7 6.3 0 11.7 1.8 16.1 5.5 4.2 3.5 7.8 8.7 10.7 15.5 3.3 7.3 6.8 13.5 10.6 18.4 3.6 4.7 8.7 8.6 15.3 11.7 6.7 3.1 15.6 4.7 26.6 4.7 15.1 0 27.5-3.2 36.8-9.5 9.2-6.1 13.6-13.5 13.6-22.5 0-7.1-2.3-12.7-7.1-17.1-5-4.6-11.5-8.2-19.6-10.6-8.3-2.6-19.6-5.3-33.6-8.2-19-4-35.1-8.8-48-14.2-13.1-5.5-23.7-13.2-31.5-22.7-7.9-9.7-11.8-21.9-11.8-36.2 0-13.7 4.2-25.9 12.4-36.5 8.2-10.5 20.1-18.7 35.6-24.3 15.2-5.6 33.3-8.4 53.7-8.4 16.4 0 30.7 1.9 42.7 5.5 12.1 3.7 22.2 8.7 30.3 14.9 8 6.2 14 12.8 17.8 19.7 3.8 7 5.7 13.9 5.7 20.6 0 6.4-2.5 12.3-7.5 17.4-5 5.1-11.3 7.8-18.8 7.8-6.8 0-12.1-1.6-15.8-4.8-3.4-3-7-7.6-10.9-14.3-4.6-8.5-10.1-15.3-16.4-20.1-6.2-4.6-16.4-7-30.6-7-13.1 0-23.8 2.6-31.7 7.7-7.6 4.9-11.3 10.6-11.3 17.3 0 4.1 1.2 7.5 3.7 10.5 2.6 3.1 6.2 5.9 10.9 8.2 4.8 2.4 9.8 4.3 14.7 5.6 5.1 1.4 13.6 3.5 25.3 6.1 14.9 3.1 28.5 6.7 40.5 10.4 12.2 3.9 22.7 8.6 31.3 14.1 8.8 5.6 15.7 12.9 20.7 21.5 4.9 8.6 7.4 19.4 7.4 31.8.4 15.1-3.9 28.7-12.5 40.5z"/></svg>