<svg xmlns="http://www.w3.org/2000/svg" width="512" height="512" viewBox="0 0 512 512"><path d="M470 124.837l-98.443-81.78-27.814 32.93 98.442 81.77L470 124.837zM167.192 74.92L139.366 42 42 124.837l27.814 32.92 97.378-82.838zm99.51 97.708H234.6v127.446l101.65 60.54 16.05-26.554-85.6-49.917V172.628zM256 87.665c-107 0-192.6 86.02-192.6 191.166C63.4 383.98 149 470 256 470c105.936 0 192.6-86.02 192.6-191.17 0-105.143-86.664-191.165-192.6-191.165zm0 339.855c-82.393 0-149.8-66.906-149.8-148.688 0-81.777 67.407-148.684 149.8-148.684 82.394 0 149.8 66.906 149.8 148.684 0 82.84-67.406 148.688-149.8 148.688z"/></svg>