<svg xmlns="http://www.w3.org/2000/svg" viewBox="0 0 512 512"><path d="M191.6 272c-3.8 55-26.4 107.1-64.5 147.7 31.6 25 70.9 41 112.9 44.3V272h-48.4zM272 464c42-3.3 81.5-19.4 113.1-44.5-38-40.6-60.5-92.5-64.3-147.5H272v192zM240 48c-42 3.2-80.5 19-111.9 43.6 38 40.9 60.3 93.4 63.7 148.4H240V48zM320.7 240c3.4-55 25.6-107.4 63.5-148.3C352.7 67.1 314 51.2 272 48v192h48.7zM408.6 114.2c-17.2 18.5-30.7 39.7-40.1 62.9-8.2 20.2-13.1 40.9-14.6 62.9H464c-3.7-48-24.1-92.2-55.4-125.8zM368.5 333.1c9.6 23.7 23.3 45.1 40.9 63.8C440.3 363.4 460.3 320 464 272H354.1c1.6 21 6.5 41.5 14.4 61.1zM143.9 177.1c-9.5-23.3-23-44.5-40.3-63.1-31.4 33.6-51.9 78-55.6 126h110.5c-1.6-22-6.5-42.8-14.6-62.9zM102.7 397.1c17.7-18.8 31.5-40.3 41.1-64 8-19.6 12.8-40.1 14.5-61.1H48c3.7 48 23.8 91.6 54.7 125.1z"/></svg>