<svg xmlns="http://www.w3.org/2000/svg" viewBox="0 0 512 512"><path d="M276 304h-40c-15.4 0-28-12.6-28-28v-40c0-15.4 12.6-28 28-28h40c15.4 0 28 12.6 28 28v40c0 15.4-12.6 28-28 28zM176 280v-48c0-18.2 8.7-34.4 22.2-44.6C192 160 96 96 64 96c-17.6 0-32 14.4-32 32v256c0 17.6 14.3 32 32 32 32 0 128-64 134.2-91.4-13.5-10.2-22.2-26.4-22.2-44.6zM448 96c-32 0-128 64-134.2 91.4 13.5 10.2 22.2 26.4 22.2 44.6v48c0 18.2-8.7 34.4-22.2 44.6C320 352 416 416 448 416c17.7 0 32-14.4 32-32V128c0-17.6-14.4-32-32-32z"/></svg>