<svg xmlns="http://www.w3.org/2000/svg" viewBox="0 0 512 512"><path d="M123.4 183c.4-.1.8-.1 1.2-.2-.5.1-.8.2-1.2.2zM341.5 303.4C330.7 247.7 282.2 206 224 206c-34 0-65.1 12-86.5 39.1 29.4 2.2 56.7 13.1 77.7 34.2 15.6 15.7 26.6 34.9 32.1 55.8h-28.7c-13.1-37.6-48-64.5-90.6-64.5-5.1 0-12.3.6-17.7 1.7-45.7 9.4-78.3 47.6-78.3 95 0 53.4 43 96.8 96 96.8h208c44.1 0 80-36.1 80-80.6-.1-42.7-32.9-77.2-74.5-80.1z"/><path d="M112.5 225.4c13.6-17.3 30.7-30.5 50.8-39.2 18.4-8 38.8-12 60.7-12 6.1 0 12.2.4 18.2 1.1-6.1-18.1-9.4-37.6-9.4-57.8 0-24.6 4.9-48.1 13.8-69.4C161.9 68.7 99 145.7 99 237.3c0 1.6 0 3.2.1 4.8.1 0 .2-.1.3-.1l13.1-16.6zM417.6 306.8c13.3 14.2 22.6 31.5 27.1 50.1 16.5-21.4 28.7-46.4 35.3-73.5-21.2 9-44.5 13.9-68.9 13.9h-3.6c3.5 2.9 6.9 6.1 10.1 9.5z"/></svg>