<svg xmlns="http://www.w3.org/2000/svg" viewBox="0 0 512 512"><path d="M480 288v-64h-34.7c-2-12.1-5.2-23.8-9.3-35l30-17.3-32-55.4-30 17.3c-7.7-9.3-16.3-17.9-25.6-25.6l17.3-30-55.4-32L323 76c-11.2-4.2-22.9-7.3-35-9.3V32h-64v34.7c-12.1 2-23.8 5.2-35 9.3l-17.3-30-55.4 32 17.3 30c-9.3 7.7-17.9 16.3-25.6 25.6l-30-17.3-32 55.4L76 189c-4.2 11.2-7.3 22.9-9.3 35H32v64h34.7c2 12.1 5.2 23.8 9.3 35l-30 17.3 32 55.4 30-17.3c7.7 9.3 16.3 17.9 25.6 25.6l-17.3 30 55.4 32 17.3-30c11.2 4.2 22.9 7.3 35 9.3V480h64v-34.7c12.1-2 23.8-5.2 35-9.3l17.3 30 55.4-32-17.3-30c9.3-7.7 17.9-16.3 25.6-25.6l30 17.3 32-55.4-30-17.3c4.2-11.2 7.3-22.9 9.3-35H480zM377 177.9L330.1 195c-11-13.3-25.5-23.6-42.1-29.5v-49.9c37.2 8.4 68.9 31.2 89 62.3zm-153-62.3v49.9c-16.6 5.9-31.1 16.2-42.1 29.5L135 177.9c20.1-31.1 51.8-53.9 89-62.3zM112 256c0-6.1.4-12.1 1.1-18l46.9 17.1v.9c0 17.8 4.9 34.5 13.3 48.8L141.2 343c-18.3-24.2-29.2-54.3-29.2-87zm144 144c-23.7 0-46-5.7-65.8-15.9l32.1-38.2c10.5 3.9 21.8 6.1 33.7 6.1 11.9 0 23.2-2.2 33.7-6.1l32.1 38.2C302 394.3 279.7 400 256 400zm114.8-57l-32.1-38.2c8.4-14.3 13.3-31 13.3-48.8v-.9l46.9-17.1c.7 5.9 1.1 11.9 1.1 18 0 32.7-10.9 62.8-29.2 87z"/></svg>