<svg xmlns="http://www.w3.org/2000/svg" width="512" height="512" viewBox="0 0 512 512"><path d="M256 64C150.4 64 64 150.4 64 256c0 105.604 86.4 192 192 192 18.136 0 32-13.864 32-32 0-8.53-3.198-16-8.53-21.333-5.334-5.334-8.532-12.803-8.532-21.334 0-18.135 13.864-32 32-32h38.396c58.667 0 106.667-48 106.667-106.666C448 140.802 361.605 64 256 64zM138.667 256c-18.136 0-32-13.864-32-32s13.864-32 32-32c18.135 0 32 13.864 32 32s-13.865 32-32 32zm64-85.333c-18.136 0-32-13.865-32-32 0-18.136 13.864-32 32-32 18.135 0 32 13.864 32 32 0 18.135-13.865 32-32 32zm106.666 0c-18.135 0-32-13.865-32-32 0-18.136 13.865-32 32-32 18.136 0 32 13.864 32 32 0 18.135-13.864 32-32 32zm64 85.333c-18.135 0-32-13.864-32-32s13.865-32 32-32c18.136 0 32 13.864 32 32s-13.864 32-32 32z"/></svg>