<svg xmlns="http://www.w3.org/2000/svg" viewBox="0 0 512 512"><path d="M256.1 144.8c56.2 0 101.9 45.3 101.9 101.1 0 13.1-2.6 25.5-7.3 37l59.5 59c30.8-25.5 55-58.4 69.9-96-35.3-88.7-122.3-151.6-224.2-151.6-28.5 0-55.8 5.1-81.1 14.1l44 43.7c11.6-4.6 24.1-7.3 37.3-7.3zM52.4 89.7l46.5 46.1 9.4 9.3c-33.9 26-60.4 60.8-76.3 100.8 35.2 88.7 122.2 151.6 224.1 151.6 31.6 0 61.7-6.1 89.2-17l8.6 8.5 59.7 59 25.9-25.7L78.2 64 52.4 89.7zM165 201.4l31.6 31.3c-1 4.2-1.6 8.7-1.6 13.1 0 33.5 27.3 60.6 61.1 60.6 4.5 0 9-.6 13.2-1.6l31.6 31.3c-13.6 6.7-28.7 10.7-44.8 10.7-56.2 0-101.9-45.3-101.9-101.1 0-15.8 4.1-30.7 10.8-44.3zm87.8-15.7l64.2 63.7.4-3.2c0-33.5-27.3-60.6-61.1-60.6l-3.5.1z"/></svg>