<svg xmlns="http://www.w3.org/2000/svg" viewBox="0 0 512 512"><path d="M256 48C141.3 48 48 141.3 48 256s93.3 208 208 208 208-93.3 208-208S370.7 48 256 48zM127 238.2l39.2 17.9 17.1 66.9-15.6 29.3-57.2-.7C95.6 329 86.2 303.1 83 276.3l44-38.1zm217.3 114.1L328.7 323l17.1-67 39.1-17.8 44 38.1c-3.1 26.8-12.6 52.7-27.5 75.3l-57.1.7zm32.4-146.2l-43.6 19.6-61.1-51.6v-47.2l47.9-32.6c29.8 11.9 56.4 32.3 75.6 57.8l-18.8 54zM191.3 94.4l47.7 32.5v47.2l-61 51.5-43-19.6-18.7-53.6c19.3-26.1 45.1-46 75-58zM218.4 426c-.7-.2-1.3-.3-2-.5l-20.5-55.1 14.7-29.4h90.8l15 30.3-19.8 53.9c-1 .2-2 .5-3 .7-11.5 2.3-27 3.8-40.4 4.1-11.7-.1-23.4-1.5-34.8-4z"/></svg>