<svg xmlns="http://www.w3.org/2000/svg" viewBox="0 0 512 512"><path d="M78.1 205.6c-2.4 0-4.9-.6-7.1-1.9-6.7-3.9-9-12.4-5.1-19.1 17.8-30 71.9-100.1 190.1-100.1 51.2 0 96.1 13.6 133.4 40.4 30.7 22 47.9 46.9 56.1 58.9 4.4 6.4 2.7 15-3.7 19.4-6.4 4.3-15.2 2.7-19.6-3.7-14.9-21.6-60.1-87.2-166.2-87.2-103.6 0-150.4 60.4-165.7 86.3-2.6 4.6-7.3 7-12.2 7z"/><path d="M315.5 480c-1.2 0-2.3-.1-3.5-.4-85.7-21.5-117.7-108.1-119-111.7l-.2-.8c-.7-2.5-17.9-61.9 8.5-96.7 12.1-15.9 30.5-24 54.8-24 22.6 0 38.9 7.1 50.1 21.8 9.2 12 12.9 26.8 16.5 41.1 7.5 29.7 12.9 45.3 44.1 46.9 13.7.7 22.7-7.4 27.8-14.3 13.8-18.8 16.2-49.5 5.8-76.5-13.4-35-60.8-100.9-144.4-100.9-35.7 0-68.5 11.6-94.8 33.4-21.8 18.1-39.1 43.6-47.4 69.8-15.4 48.8 4.8 125.5 5 126.2 2 7.4-2.5 15.1-10 17-7.5 2-15.3-2.5-17.3-9.9-.9-3.5-22.5-85.3-4.7-141.7C106.2 198.2 166 136.6 256 136.6c41.6 0 80.9 14.3 113.7 41.3 25.4 21 46.2 49.2 57 77.4 13.8 36 10.1 76.4-9.4 102.8-13 17.6-31.5 26.8-52 25.8-53.4-2.7-63-40.4-70-67.9-7.2-28.2-11.8-41.8-39.3-41.8-15.1 0-25.7 4.2-32.3 12.9-9 11.9-9.7 30.5-8.7 44 1 14.1 4 25.5 4.7 27.8 2.2 5.6 30.8 76.5 99.3 93.7 7.6 1.9 12.1 9.5 10.2 16.9-1.7 6.3-7.4 10.5-13.7 10.5z"/><path d="M205.5 473.6c-3.8 0-7.5-1.5-10.3-4.4-34.3-36.4-53.7-77.1-61-128v-.3c-4.1-33.7 1.9-81.4 31.3-114.2 21.7-24.2 52.2-36.5 90.5-36.5 45.3 0 80.9 21.3 103.1 61.5 16.1 29.2 19.3 58.3 19.4 59.5.8 7.7-4.9 14.5-12.6 15.3-7.7.8-14.7-4.8-15.5-12.4 0-.3-2.8-25.3-16.5-49.7-17.2-30.7-43.4-46.3-78-46.3-29.9 0-53.3 9.1-69.4 27.1-23.2 25.9-27.7 65.8-24.5 92.2 6.4 45 23.5 80.8 53.7 112.8 5.3 5.6 5 14.5-.7 19.7-2.6 2.4-6.1 3.7-9.5 3.7z"/><path d="M363.5 433.5c-30 0-55.5-8.4-75.9-25.1-41-33.4-45.6-87.8-45.8-90.1-.6-7.7 5.2-14.4 13-15 7.8-.6 14.5 5.1 15.1 12.8.1.8 4.2 45.3 35.8 70.9 18.7 15.1 43.7 21.1 74.5 17.6 7.7-.9 14.7 4.6 15.6 12.3.9 7.7-4.7 14.6-12.4 15.4-6.8.8-13.5 1.2-19.9 1.2zM387.2 62.6C375.5 54.9 334 32 256 32c-81.9 0-123.5 25.3-132.7 31.7-.6.4-1.2.8-1.7 1.3-.1.1-.2.1-.2.1-2.9 2.6-4.7 6.3-4.7 10.4 0 7.7 6.3 13.9 14.1 13.9 3.1 0 5.9-1 8.2-2.6l-.1.1c.4-.3 36.3-27 117.1-27s116.7 26.8 117.1 27l-.1-.1.2-.2c2.4 1.8 5.3 2.8 8.5 2.8 7.8 0 14.1-6.2 14.1-13.9 0-5.8-3.5-10.8-8.6-12.9z"/></svg>