<svg xmlns="http://www.w3.org/2000/svg" viewBox="0 0 512 512"><path d="M409.6 64H102.4C81.3 64 64 81.3 64 102.4v307.2c0 21.1 17.3 38.4 38.4 38.4h307.2c21.1 0 38.4-17.3 38.4-38.4V102.4c0-21.1-17.3-38.4-38.4-38.4zM179.2 409.6h-76.8v-76.8h76.8v76.8zm0-115.2h-76.8v-76.8h76.8v76.8zm0-115.2h-76.8v-76.8h76.8v76.8zm115.2 230.4h-76.8v-76.8h76.8v76.8zm0-115.2h-76.8v-76.8h76.8v76.8zm0-115.2h-76.8v-76.8h76.8v76.8zm115.2 230.4h-76.8v-76.8h76.8v76.8zm0-115.2h-76.8v-76.8h76.8v76.8zm0-115.2h-76.8v-76.8h76.8v76.8z"/></svg>