<svg xmlns="http://www.w3.org/2000/svg" viewBox="0 0 512 512"><path d="M384 224c-23.7 0-44.4 12.9-55.4 32-18.3-.5-52.4-4.1-75.5-18.1-32.3-19.4-64.6-53.1-87-90.5 15.7-11.7 26-30.3 26-51.4 0-35.3-28.7-64-64-64S64 60.7 64 96c0 23.7 12.9 44.3 32 55.4v209.2c-19.1 11.1-32 31.7-32 55.4 0 35.3 28.7 64 64 64s64-28.7 64-64c0-23.7-12.9-44.3-32-55.4V244.2c18.7 19.4 39.1 36 60 48.6 38.8 23.4 87 26.9 108.6 27.3 11.1 19.1 31.7 31.9 55.4 31.9 35.3 0 64-28.7 64-64s-28.7-64-64-64zM88 96c0-22.1 17.9-40 40-40s40 17.9 40 40-17.9 40-40 40-40-17.9-40-40zm80 320c0 22.1-17.9 40-40 40s-40-17.9-40-40 17.9-40 40-40 40 17.9 40 40zm216-88c-22.1 0-40-17.9-40-40s17.9-40 40-40 40 17.9 40 40-17.9 40-40 40z"/></svg>