<svg xmlns="http://www.w3.org/2000/svg" width="512" height="512" viewBox="0 0 512 512"><path d="M256 48C141.124 48 48 141.125 48 256s93.124 208 208 208c114.875 0 208-93.125 208-208S370.875 48 256 48zm-21.55 385c-39.463-4.727-75.977-22.393-104.518-50.933C96.258 348.393 77.714 303.622 77.714 256c0-42.87 15.036-83.424 42.6-115.66.71 8.518 2.464 17.65 2.015 24.176-1.64 23.795-3.99 38.687 9.94 58.762 5.425 7.82 6.758 19.028 9.4 28.078 2.582 8.854 12.9 13.498 20.018 18.953 14.36 11.008 28.096 23.804 43.322 33.493 10.05 6.395 16.326 9.576 13.383 21.84-2.367 9.86-3.028 15.936-8.13 24.722-1.557 2.68 5.877 19.918 8.35 22.392 7.5 7.497 14.94 14.375 23.112 21.125 12.67 10.47-1.23 24.072-7.274 39.117zm147.617-50.933c-25.633 25.633-57.7 42.486-92.556 49.08 4.94-12.215 13.737-23.07 21.896-29.36 7.097-5.477 15.986-16.01 19.693-24.353 3.703-8.332 8.61-15.555 13.576-23.217 7.065-10.9-17.42-27.336-25.353-30.78-17.854-7.752-31.294-18.21-47.16-29.376-11.306-7.953-34.258 4.155-47.02-1.416-17.482-7.633-31.884-20.896-47.08-32.34-15.68-11.808-14.92-25.575-14.92-42.996 12.28.453 29.753-3.4 37.907 6.478 2.573 3.117 11.42 17.042 17.342 12.094 4.838-4.043-3.585-20.25-5.212-24.06-5.005-11.714 11.404-16.283 19.803-24.227 10.96-10.364 34.47-26.618 32.612-34.047s-23.524-28.477-36.25-25.193c-1.906.492-18.696 18.097-21.94 20.86.086-5.747.172-11.492.26-17.238.055-3.628-6.768-7.352-6.45-9.692.8-5.914 17.26-16.647 21.356-21.357-2.868-1.793-12.658-10.202-15.62-8.968-7.175 2.99-15.277 5.05-22.45 8.04 0-2.49-.303-4.826-.663-7.134a176.585 176.585 0 0 1 45.31-13.152l14.084 5.66 9.945 11.8 9.924 10.234 8.674 2.795 13.78-12.994L282 87.93v-8.34c27.25 3.958 52.984 14.124 75.522 29.8-4.032.36-8.463.954-13.462 1.59-2.065-1.22-4.714-1.774-6.965-2.623 6.53 14.042 13.343 27.89 20.264 41.746 7.392 14.8 23.792 30.677 26.672 46.3 3.394 18.417 1.04 35.145 2.896 56.812 1.788 20.865 23.524 44.572 23.524 44.572s10.037 3.42 18.384 2.228c-7.78 30.783-23.733 59.014-46.77 82.052z"/></svg>