<svg xmlns="http://www.w3.org/2000/svg" viewBox="0 0 512 512"><path d="M448 96c0-35.3-28.7-64-64-64s-64 28.7-64 64c0 23.6 12.9 44.3 32 55.4v52.8l-96 48-96-48v-52.8c19.1-11.1 32-31.8 32-55.4 0-35.3-28.7-64-64-64S64 60.7 64 96c0 23.6 12.9 44.3 32 55.4v92.4l128 64v52.8c-19.1 11.1-32 31.8-32 55.4 0 35.3 28.7 64 64 64s64-28.7 64-64c0-23.6-12.9-44.3-32-55.4v-52.8l128-64v-92.4c19.1-11.1 32-31.8 32-55.4zM128 56c22.1 0 40 17.9 40 40s-17.9 40-40 40-40-17.9-40-40 17.9-40 40-40zm128 400c-22.1 0-40-17.9-40-40s17.9-40 40-40 40 17.9 40 40-17.9 40-40 40zm128-320c-22.1 0-40-17.9-40-40s17.9-40 40-40 40 17.9 40 40-17.9 40-40 40z"/></svg>