<svg xmlns="http://www.w3.org/2000/svg" viewBox="0 0 512 512"><path d="M416 376.6V206.8c0-46.4-3.7-70.8-22.1-94C374 87.7 348.9 77 310 77h-22V16l-96 96 96 96v-65h22c24.6 0 29 3.6 33.8 9.6 5.5 6.9 8.2 19.1 8.2 54.2v169.8c-19.1 11.1-32 31.7-32 55.4 0 35.3 28.7 64 64 64s64-28.7 64-64c0-23.7-12.9-44.3-32-55.4zM384 472c-22.1 0-40-17.9-40-40s17.9-40 40-40 40 17.9 40 40-17.9 40-40 40zM128 48c-35.3 0-64 28.7-64 64 0 23.7 12.9 44.3 32 55.4v209.2c-19.1 11.1-32 31.7-32 55.4 0 35.3 28.7 64 64 64s64-28.7 64-64c0-23.7-12.9-44.3-32-55.4V167.4c19.1-11.1 32-31.7 32-55.4 0-35.3-28.7-64-64-64zm0 424c-22.1 0-40-17.9-40-40s17.9-40 40-40 40 17.9 40 40-17.9 40-40 40zm0-320c-22.1 0-40-17.9-40-40s17.9-40 40-40 40 17.9 40 40-17.9 40-40 40z"/></svg>