<svg xmlns="http://www.w3.org/2000/svg" viewBox="0 0 512 512"><path d="M434.7 188c-18.8-18-43.8-28-70.5-28-26.6 0-51.6 9.9-70.4 27.9l-17.6 15.9 33.1 32.1 17-15.4.1-.1c10.1-9.6 23.5-15 37.7-15 14.2 0 27.6 5.3 37.7 14.9 10 9.6 15.4 22.3 15.4 35.8 0 13.5-5.5 26.1-15.4 35.6-10.1 9.6-23.5 15-37.7 15s-27.6-5.3-37.7-14.9L218.2 188c-18.9-18-43.9-28-70.4-28-26.7 0-51.7 9.9-70.5 28C58.4 206.1 48 230.2 48 256c0 25.7 10.4 49.9 29.3 68 18.8 18 43.8 28 70.5 28 26.7 0 51.7-9.9 70.4-28l37.8-36.1 37.7 36.1c18.9 18 43.9 28 70.4 28 26.7 0 51.7-9.9 70.4-27.9 19-18.1 29.4-42.2 29.4-68 .1-25.8-10.3-50-29.2-68.1zM185.5 291.7c-10.1 9.6-23.5 15-37.7 15-14.2 0-27.6-5.3-37.7-14.9-10-9.6-15.4-22.3-15.4-35.8 0-13.5 5.5-26.1 15.4-35.6 10.1-9.6 23.5-15 37.7-15 14.2 0 27.6 5.3 37.7 14.9l37.4 35.8-37.4 35.6z"/></svg>