<svg xmlns="http://www.w3.org/2000/svg" viewBox="0 0 512 512"><path d="M478.7 269.8C474 236.4 460 208 443 210c6.8 15.3 12.1 36.8 10.3 75.3-1.5-27-6.6-52.4-18-75.3C401.6 142.5 329.6 97.8 249 102.3c-90.2 5-162.7 69.7-180.6 153.3l-12 1.7c-18.1 2.5-28.3 36.4-22.8 75.7 5.5 39.3 24.7 69.2 42.8 66.7l16.6-2.3c36.4 58.8 103.4 96.5 177.8 92.4 89.6-4.9 161.7-68.9 180.2-151.7l7.7-.5c15.9-2.6 24.9-32.8 20-67.8zm-397.1-5.4c7.1 5.6 26.5 18.5 31.4 57.6 4.9 39.1-8.9 58.9-15 67.1 6.3-15.5 6.5-39 3-64.7-3.4-25-9.5-46.7-19.4-60zm193.1 121.3c-8.9.5-16.6-6.3-17.1-15.2-.5-8.9 6.3-16.4 15.3-16.9 8.9-.5 16.6 6.3 17.1 15.2.5 8.9-6.4 16.5-15.3 16.9zm85-4.8c-8.9.5-16.6-6.3-17.1-15.2-.5-8.9 6.3-16.4 15.3-16.9 8.9-.5 16.6 6.3 17.1 15.2.5 8.8-6.4 16.4-15.3 16.9zM160.6 61.7s.1 0 0 0c.1.1.1.2.1.2.1.2.2.4.3.5v.1c.4 1.1 1.2 2 2.4 2.9 2.1 1.5 5.2 2.5 9 3.1 3.6.6 7.9.7 12.5.5 1 0 2-.1 3.1-.2-.4-.5-.9-.9-1.3-1.4h-1.4c-4.5.1-8.7-.2-12.2-.9-3.7-.7-6.8-1.9-8.8-3.6-.6-.5-1-1-1.4-1.5-.2-.7-.2-1.5 0-2.4.5-2.4 2.5-5 5.7-7.8 2.9-2.4 6.7-4.9 11.4-7.3.9-.5 1.8-.9 2.8-1.4.2-.1.3-.1.5-.2-.8 3.5-1 7.2-.3 10.9 2.4 12.5 13.2 21.2 25.5 21.6l5.2 27.5 11.3-2.1-5.2-27.5c11.3-4.8 18.2-16.8 15.8-29.3-.7-3.7-2.1-7-4.1-9.9-5.6-.8-16.4-.8-30.7 2.2 1.1-.3 2.2-.7 3.4-1 8-2.2 15.7-3.7 22.6-4.4.6-.1 1.3-.1 1.9-.2 1.2-.1 2.5-.2 3.7-.3h.6c4.3-.2 8.1-.1 11.3.4 2.5.3 4.7.8 6.4 1.5-.6 1-1 2.1-1 3.3 0 2.9 1.9 5.3 4.5 6.1-.6 1-1.3 2-2.2 3-.9 1-1.9 1.9-3 2.9-1.1.9-2.4 1.9-3.7 2.8l-6.8 3.9c-.1.5-.2 1.1-.3 1.6.1 0 .2-.1.3-.1l8.8-4.9c1.3-.8 2.5-1.7 3.6-2.5 1.2-1 2.3-1.9 3.3-2.9s1.8-2 2.5-2.9l.3-.6c3.2-.4 5.6-3 5.6-6.3 0-3.5-2.9-6.4-6.4-6.4-1 0-2 .3-2.9.7-2.1-1.3-5-2.2-8.6-2.9-4.5-.8-10-1-16.3-.7-.7 0-1.5.1-2.2.2-.7.1-1.4.2-2.1.2-5.6-3.6-12.5-5.2-19.6-3.9-8.3 1.5-15 6.8-18.6 13.6-1.4.6-2.7 1.1-4 1.7-.7.3-1.4.6-2.1 1-6.2 3.1-11.2 6.3-14.6 9.5-3.3 3-5.2 6-5.6 8.7-.2 1.5 0 2.9.8 4.1 0 .4.1.6.2.8z"/></svg>