<svg xmlns="http://www.w3.org/2000/svg" viewBox="0 0 512 512"><path d="M457.6 140.2l-82.5-4-4.8-53.8c-1-11.3-11.1-19.2-22.9-18.3L51.5 88.4c-11.8 1-20.3 10.5-19.4 21.7l21.2 235.8c1 11.3 11.2 19.2 22.9 18.3l15-1.2-2.4 45.8c-.6 12.6 9.2 22.8 22.4 23.5L441.3 448c13.2.6 24.1-8.6 24.8-21.2L480 163.5c.6-12.5-9.3-22.7-22.4-23.3zm-354.9 5.3l-7.1 134.8L78.1 305 62 127v-.5-.5c1-5 4.4-9 9.6-9.4l261-21.4c5.2-.4 9.7 3 10.5 7.9 0 .2.3.2.3.4 0 .1.3.2.3.4l2.7 30.8-219-10.5c-13.2-.4-24.1 8.8-24.7 21.3zm334 236.9l-84.8-99.5-37.4 34.3-69.2-80.8-122.7 130.7L133 168v-.4c1-5.4 6.2-9.3 11.9-9l291.2 14c5.8.3 10.3 4.7 10.4 10.2 0 .2.3.3.3.5l-10.1 199.1z"/><path d="M384 256c17.6 0 32-14.4 32-32s-14.3-32-32-32c-17.6 0-32 14.3-32 32s14.3 32 32 32z"/></svg>