<svg xmlns="http://www.w3.org/2000/svg" viewBox="0 0 512 512"><path d="M256 398.5c-22.3 0-40.5 18.3-40.5 40.7 0 22.4 18.2 40.7 40.5 40.7s40.5-18.3 40.5-40.7c0-22.3-18.2-40.7-40.5-40.7zM136.5 32C114.2 32 96 50.3 96 72.7s18.2 40.7 40.5 40.7S177 95.1 177 72.7 158.8 32 136.5 32zm0 122.2c-22.3 0-40.5 18.3-40.5 40.7s18.2 40.7 40.5 40.7 40.5-18.3 40.5-40.7-18.2-40.7-40.5-40.7zm0 122.2c-22.3 0-40.5 18.3-40.5 40.7 0 22.4 18.2 40.7 40.5 40.7s40.5-18.3 40.5-40.7c0-22.4-18.2-40.7-40.5-40.7zm239-162.9c22.3 0 40.5-18.3 40.5-40.7S397.8 32 375.5 32 335 50.3 335 72.7s18.2 40.8 40.5 40.8zM256 276.4c-22.3 0-40.5 18.3-40.5 40.7 0 22.4 18.2 40.7 40.5 40.7s40.5-18.3 40.5-40.7c0-22.4-18.2-40.7-40.5-40.7zm119.5 0c-22.3 0-40.5 18.3-40.5 40.7 0 22.4 18.2 40.7 40.5 40.7s40.5-18.3 40.5-40.7c0-22.4-18.2-40.7-40.5-40.7zm0-122.2c-22.3 0-40.5 18.3-40.5 40.7s18.2 40.7 40.5 40.7 40.5-18.3 40.5-40.7-18.2-40.7-40.5-40.7zm-119.5 0c-22.3 0-40.5 18.3-40.5 40.7s18.2 40.7 40.5 40.7 40.5-18.3 40.5-40.7-18.2-40.7-40.5-40.7zM256 32c-22.3 0-40.5 18.3-40.5 40.7s18.2 40.7 40.5 40.7 40.5-18.3 40.5-40.7S278.3 32 256 32z"/></svg>