<svg xmlns="http://www.w3.org/2000/svg" viewBox="0 0 512 512"><path d="M256 48c-42.9 0-84.2 13-119.2 37.5-34.2 24-60.2 57.2-75.1 96.1L58 192h45.7l1.9-5c8.2-17.8 19.4-33.9 33.5-48 31.2-31.2 72.7-48.4 116.9-48.4s85.7 17.2 116.9 48.4c31.2 31.2 48.4 72.7 48.4 116.9 0 44.1-17.2 85.7-48.4 116.9-31.2 31.2-72.7 48.4-116.9 48.4-44.1 0-85.6-17.2-116.9-48.4-14-14-25.3-30.1-33.5-47.9l-1.9-5H58l3.6 10.4c14.9 38.9 40.9 72.1 75.1 96.1C171.8 451.1 213 464 256 464c114.7 0 208-93.3 208-208S370.7 48 256 48z"/><path d="M48 277.4h189.7l-43.6 44.7L224 352l96-96-96-96-31 29.9 44.7 44.7H48v42.8z"/></svg>