<svg xmlns="http://www.w3.org/2000/svg" viewBox="0 0 512 512"><path d="M383.6 98.8C352.1 65.8 308 48.2 256 48c-51.9.2-96 17.8-127.5 50.8C96.8 132 80 178.8 80 234c0 43.5 1.8 69.2 12.9 115.8 0 0 22.7 75.7 35.5 104.1 3.5 7.8 7.4 11.8 15.5 9.3 6.4-2 46.8-17.9 54.7-21.6 7.9-3.6 11.6-8.6 8.9-15.2-3.8-9.2-33.9-95.6-33.9-95.6-8.4-36.3-11.6-53.9-11.6-94.3 0-28.2 9.8-54.1 27.7-72.9 17.5-18.3 41-28.4 66.3-28.4s48.8 10.1 66.3 28.4c17.9 18.8 27.7 44.6 27.7 72.8 0 40-3.2 64-11.7 94.4s-32.2 90.1-33.9 95.6c-1.7 5.6 2.1 12.5 8.9 15.2 6.8 2.7 49.3 19.6 54.7 21.6 5.4 2 10.6.6 14.5-7.7 4-8.3 24.6-61.4 36.5-105.7 12-44.3 13-72.3 13-115.8 0-55.2-16.7-101.9-48.4-135.2zM173.1 419.7l-22.9 9.6c-6.9-16.3-17.2-43.2-25.9-77.2l22-6.5 26.8 74.1zm188.6 9.6l-22.9-9.6c7.2-16.6 19.1-45.1 26.6-74.1l22 6.5c-8.4 33.9-18.7 60.9-25.7 77.2z"/></svg>