<svg xmlns="http://www.w3.org/2000/svg" viewBox="0 0 512 512"><path d="M459.5 190.5c-4.7-12.7-12.7-21.9-23.1-26.6-4.8-2.1-9.7-3.2-14.8-3.2-21.7 0-43.7 20.2-54.9 50.3-13.8 37.3-5.8 73.8 18.6 85 4.9 2.2 10.1 3.4 15.6 3.4 22.1 0 44.6-18.5 55.9-46.1 8.5-21 9.5-44.4 2.7-62.8zM145.3 211c-11.1-30.1-33.2-50.3-54.9-50.3-5.1 0-10.1 1.1-14.8 3.2-10.4 4.7-18.3 13.9-23.1 26.6-6.9 18.4-5.9 41.8 2.7 62.7 11.3 27.6 33.8 46.1 55.9 46.1 5.4 0 10.7-1.1 15.6-3.4 24.4-11.1 32.4-47.6 18.6-84.9zM193.5 206.8c2 .1 4 0 6-.2 11.7-1.1 22.3-7.1 30.6-17.3 13.4-16.5 17.1-42.2 14.3-68.7-4.3-40.8-25.8-71.3-54.8-72.6 0 0-4.1 0-6.2.2-12.8 1.3-24.4 7.9-33.5 19.2-13.3 16.4-19.7 40.7-17.1 65.1 4.3 40.4 30.9 73 60.7 74.3zM256 238.7c-69.3 0-138.7 82.4-138.7 161.6 0 23.6 11.8 42.6 23.5 50.4 14.4 9.6 24.5 13.4 45.5 13.4 25 0 31.8-8.8 43.5-16.5 8.5-5.6 15.8-10.4 26.2-10.4 10.4 0 17.7 4.8 26.2 10.4 11.7 7.7 18.5 16.5 43.5 16.5 21.1 0 31.2-3.8 45.5-13.4 11.6-7.8 23.5-26.8 23.5-50.4 0-79.2-69.4-161.6-138.7-161.6zM312.6 206.5c2 .2 4 .3 6 .2 29.8-1.3 56.5-33.9 60.8-74.3 2.6-24.4-3.8-48.8-17.1-65.1-9.2-11.3-20.3-17.6-33.1-18.8-2.1-.2-6.7-.3-6.7-.3-28.9 1.3-50.4 31.5-54.8 72.4-2.8 26.5.9 52.3 14.3 68.7 8.4 10 19 16 30.6 17.2z"/></svg>