<svg xmlns="http://www.w3.org/2000/svg" viewBox="0 0 512 512"><path d="M260.6 214.8c23.8-40.9 48-71.6 91.4-96.4 8.3-4.8 21.2-8 22.8-8.9C290.7 83.7 256 32 256 32s-34.7 51.7-120.5 76.5c5.8 3.4 16.5 6.5 30.7 13.7 34.5 17.4 62.5 51.3 94.4 92.6zM246.3 253.4C186.7 161.2 131.4 126.8 48 126.8c54.2 78.6 52 174.6 52 215.4 0 76.1 69.8 137.8 156 137.8 57.6 0 107.9-27.6 135-68.7-35.5-27.6-85.1-65.7-144.7-157.9zM464 126.8s-55.2-2.3-85.2 15.4c-43 25.5-74.4 61.3-95.4 103.2 38.8 52 73 87.9 95.4 109.4 10.7 10.2 19.8 18.2 27.5 24.5 3.7-11.8 5.8-24.3 5.8-37.2-.1-40.8-17.4-114.1 51.9-215.3z"/></svg>