<svg xmlns="http://www.w3.org/2000/svg" viewBox="0 0 512 512"><path d="M256 32c-70.7 0-128 57.3-128 128s57.3 128 128 128 128-57.3 128-128S326.7 32 256 32zm0 208c-44.2 0-80-35.8-80-80s35.8-80 80-80 80 35.8 80 80-35.8 80-80 80zM193.7 307.4c-19.1-8.1-36.2-19.6-50.8-34.3-1.4-1.4-2.8-2.8-4.1-4.3L64 400h96l48 80 48-105.8 25.5-56.2c-8.4 1.3-16.9 2-25.5 2-21.6 0-42.5-4.2-62.3-12.6zM373.3 268.9c-1.3 1.4-2.7 2.9-4.1 4.3-14.6 14.6-31.7 26.2-50.7 34.2L294 361.2l-21.9 48.4L304 480l48-80h96l-74.7-131.1z"/></svg>