<svg xmlns="http://www.w3.org/2000/svg" viewBox="0 0 512 512"><path d="M461.4 298.5l-8.3-30.9-88 23.6-60.4-34.9 60.4-34.9 88 23.6 8.3-30.9-57.1-15.3 57.7-33.3-24-41.5-56.6 32.7 15.3-57.1-30.9-8.3-23.6 88-62.2 35.9v-71.1l64.5-64.4-22.7-22.6L280 98.9V32h-48v65.6l-41.7-41.7-22.6 22.6 64.3 64.4v71.4l-60.7-35-23.6-88-30.9 8.3 15.3 57.1-57.7-33.4-24 41.6 56.7 32.7L50 212.9l8.3 30.9 87.9-23.6 62.6 36.1-62.6 36.2-87.9-23.6-8.3 30.9 57.1 15.3-56.7 32.7 24 41.5 57.7-33.3-15.3 57 30.9 8.3 23.6-87.9 60.7-35.1v70.9l-64.3 64.4 22.6 22.6 41.7-41.8V480h48v-66.8l41.9 41.7 22.5-22.6L280 368v-70.6l62.2 36 23.6 87.9 30.9-8.3-15.3-57 56.6 32.7 24-41.6-57.7-33.3z"/></svg>