<svg xmlns="http://www.w3.org/2000/svg" viewBox="0 0 512 512"><path d="M128 416h256v48H128zM256 288c17.7 0 32-14.3 32-32s-14.3-32-32-32c-3 0-6 .4-8.8 1.2l-66.7-48.7-4 3.5 48.9 66.7c-.9 2.9-1.4 6-1.4 9.3 0 17.7 14.3 32 32 32z"/><path d="M256 48C141.1 48 48 141.1 48 256c0 48.3 16.5 92.7 44.1 128h58.8l4-4 22.1-22.1-22.9-22.9-22.1 22c-19.9-24.3-32.1-54-35.2-85H128v-32H96.8c3.1-31 15.3-60.7 35.2-85l22.1 22 22.9-22.9-22-22.1c24.3-19.9 54-32.1 85-35.2V128h32V96.8c31 3.1 60.7 15.3 85 35.2l-22 22.1 22.9 22.9 22.1-22c19.9 24.3 32.1 54 35.2 85H384v32h31.2c-3.1 31-15.3 60.7-35.2 85l-22.1-22-22.9 22.9 22.1 22.1 4 4h58.8c27.6-35.3 44.1-79.7 44.1-128 0-114.9-93.1-208-208-208z"/></svg>