<svg xmlns="http://www.w3.org/2000/svg" viewBox="0 0 512 512"><path d="M383.8 92.2C348.5 64.5 304.1 48 256 48c-48 0-92.3 16.5-127.6 44 41.6 44.8 64.3 103 64 164.3-.3 61-23.3 118.6-64.9 162.9 35.4 28 80.1 44.8 128.5 44.8 48.5 0 93.3-16.8 128.8-45-41.5-44.3-64.5-101.8-64.8-162.7-.3-61.2 22.3-119.3 63.8-164.1z"/><path d="M353.1 255.1c0 26.9 5.1 53 15.1 77.8 9.6 23.6 23.3 44.9 40.8 63.6 34.1-37.1 55-86.5 55-140.5 0-54.5-21.2-104.2-55.8-141.4-17.1 18.5-30.6 39.6-40 62.7-10 24.8-15.1 51-15.1 77.8zM159.3 255.1c0-26.9-5.1-53-15.1-77.8-9.4-23.2-22.9-44.4-40.2-62.9-34.7 37.2-56 87-56 141.6 0 54.2 21 103.6 55.2 140.7 17.6-18.7 31.4-40.1 41-63.8 10-24.7 15.1-50.9 15.1-77.8z"/></svg>