<svg xmlns="http://www.w3.org/2000/svg" width="512" height="512" viewBox="0 0 512 512"><path d="M405.5 256c0 22.717-4.883 44.362-13.603 63.855l31.88 31.88C439.283 323.33 448 290.653 448 256c0-93.256-64-172.254-149-192v44.978C361 127.632 405.5 186.882 405.5 256zM256 80.458l-51.02 52.48 51.02 51.02zM420.842 396.885L91.116 67.157l-24 24 90.5 90.413-8.28 10.43H64v128h85.334L256 431.543V280l94.915 94.686C335.795 387.443 318 397.213 299 403.022V448c31-7.172 58.996-22.163 82.315-42.81l39.61 39.694 24-24.043-24.002-24.038-.08.083z"/><path d="M352.188 256c0-38.4-21.188-72.407-53.188-88.863v59.82l50.8 50.8A100.596 100.596 0 0 0 352.19 256z"/></svg>