<?xml version="1.0" standalone="no"?>
<!DOCTYPE svg PUBLIC "-//W3C//DTD SVG 1.1//EN" "http://www.w3.org/Graphics/SVG/1.1/DTD/svg11.dtd" >
<svg xmlns="http://www.w3.org/2000/svg">
<metadata>
Copyright (c) 2013 by Fontsmith Ltd. All rights reserved.
</metadata>
<defs>
<font id="FSEmericWeb-Bold" horiz-adv-x="664" >
  <font-face 
    font-family="FS Emeric Web"
    font-weight="700"
    font-stretch="normal"
    units-per-em="1000"
    panose-1="2 0 8 3 3 0 0 2 0 4"
    ascent="731"
    descent="-269"
    x-height="488"
    cap-height="663"
    bbox="-60 -306 1328 1128"
    underline-thickness="50"
    underline-position="-50"
    unicode-range="U+000D-FB04"
  />
<missing-glyph horiz-adv-x="596" 
d="M66 650h464v-650h-464v650zM456 604h-316l159 -237zM484 88v474l-158 -237zM456 47l-157 236l-159 -236h316zM113 88l157 237l-157 237v-474z" />
    <glyph glyph-name="fi" unicode="fi" horiz-adv-x="649" 
d="M447 488h146v-488h-146v488zM414 578l-43 9q-47 10 -76 10q-33 0 -53.5 -12.5t-20.5 -44.5q0 -12 3 -27.5t8 -24.5h164v-113h-158v-375h-146v375h-90v89l87 20q-7 15 -11 35.5t-4 41.5q0 35 13 64.5t38 50.5t60.5 33t79.5 12q51 0 98 -16.5t84 -41.5z" />
    <glyph glyph-name="fl" unicode="fl" horiz-adv-x="687" 
d="M349 592q-16 2 -31.5 3.5t-27.5 1.5q-32 0 -50.5 -12t-18.5 -44q0 -13 3 -28.5t8 -24.5h161v-113h-155v-375h-146v375h-90v89l87 20q-7 15 -11 36.5t-4 42.5q0 37 13 66.5t36 49.5t54.5 31t69.5 11q44 0 83 -11.5t77 -34.5l-21 -88zM681 22q-20 -10 -49 -17.5t-55 -7.5
q-58 0 -91 36q-16 17 -24 41t-8 57v578h146v-592l81 -19v-76z" />
    <glyph glyph-name="f_f" unicode="ff" horiz-adv-x="768" 
d="M455 488q-5 14 -7.5 31.5t-2.5 35.5q0 40 14.5 71t39.5 52t58 32t70 11q46 0 94.5 -17t86.5 -43l-34 -82l-42 9q-22 5 -39.5 7.5t-33.5 2.5q-33 0 -50 -16.5t-17 -45.5q0 -13 2.5 -26.5t5.5 -21.5h161v-113h-158v-375h-146v375h-219v-375h-146v375h-90v89l88 20
q-7 14 -10 33t-3 39q0 37 13 66.5t37 50t57 31.5t74 11q43 0 83.5 -14t75.5 -34l-22 -85l-38 5q-16 2 -32 3.5t-28 1.5q-32 0 -52.5 -14t-20.5 -46q0 -12 2 -23t5 -21h224z" />
    <glyph glyph-name="f_f_i" unicode="ffi" horiz-adv-x="1014" 
d="M812 488h146v-488h-146v488zM629 722q51 0 98 -16.5t84 -41.5l-33 -85l-43 9q-47 10 -76 10q-33 0 -50 -16.5t-17 -45.5q0 -13 2.5 -26.5t5.5 -21.5h161v-113h-158v-375h-146v375h-219v-375h-146v375h-90v89l88 20q-7 14 -10 33t-3 39q0 37 13 66.5t37 50t57 31.5t74 11
q43 0 83.5 -14t75.5 -34l-22 -85l-38 5q-16 2 -32 3.5t-28 1.5q-32 0 -52.5 -14t-20.5 -46q0 -12 2 -23t5 -21h224q-5 14 -7.5 31.5t-2.5 35.5q0 40 14.5 71t39.5 52.5t58.5 32.5t71.5 11z" />
    <glyph glyph-name="f_j" unicode="fj" horiz-adv-x="649" 
d="M447 488h146v-542q0 -51 -10 -84.5t-30 -54.5q-20 -20 -51 -30t-69 -10q-26 0 -53 5.5t-46 13.5v77l60 11q16 3 26.5 6.5t16.5 9t8 14.5t2 23v561zM414 578l-43 9q-47 10 -76 10q-33 0 -53.5 -12.5t-20.5 -44.5q0 -12 3 -27.5t8 -24.5h164v-113h-158v-375h-146v375h-90
v89l87 20q-7 15 -11 35.5t-4 41.5q0 35 13 64.5t38 50.5t60.5 33t79.5 12q51 0 98 -16.5t84 -41.5z" />
    <glyph glyph-name="f_f_j" unicode="ffj" horiz-adv-x="1014" 
d="M629 722q51 0 98 -16.5t84 -41.5l-33 -85l-43 9q-47 10 -76 10q-33 0 -50 -16.5t-17 -45.5q0 -13 2.5 -26.5t5.5 -21.5h161v-113h-158v-375h-146v375h-219v-375h-146v375h-90v89l88 20q-7 14 -10 33t-3 39q0 37 13 66.5t37 50t57 31.5t74 11q43 0 83.5 -14t75.5 -34
l-22 -85l-38 5q-16 2 -32 3.5t-28 1.5q-32 0 -52.5 -14t-20.5 -46q0 -12 2 -23t5 -21h224q-5 14 -7.5 31.5t-2.5 35.5q0 40 14.5 71t39.5 52.5t58.5 32.5t71.5 11zM812 488h146v-542q0 -51 -10 -84.5t-30 -54.5q-20 -20 -51 -30t-69 -10q-26 0 -53 5.5t-46 13.5v77l60 11
q16 3 26.5 6.5t16.5 9t8 14.5t2 23v561z" />
    <glyph glyph-name="f_f_l" unicode="ffl" horiz-adv-x="1059" 
d="M758 488v-113h-155v-375h-146v375h-219v-375h-146v375h-90v89l88 20q-7 14 -10 33t-3 39q0 37 13 66.5t37 50t57 31.5t74 11q43 0 83.5 -14t75.5 -34l-22 -86l-38 5q-16 2 -32 3.5t-28 1.5q-32 0 -52.5 -14t-20.5 -46q0 -12 2 -22.5t5 -20.5h224q-5 14 -8.5 34t-3.5 40
q0 36 13.5 65.5t37 50.5t55.5 32t70 11q44 0 83 -11.5t77 -34.5l-21 -88l-37 5q-16 2 -31.5 3.5t-27.5 1.5q-31 0 -51.5 -12.5t-20.5 -45.5q0 -12 2.5 -26.5t6.5 -24.5h159zM1053 22q-20 -10 -49 -17.5t-55 -7.5q-58 0 -91 36q-16 17 -24 41t-8 57v578h146v-592l81 -19v-76z
" />
    <glyph glyph-name="f_t" unicode="ft" horiz-adv-x="798" 
d="M586 179q0 -17 3 -28.5t11 -19.5q15 -13 41 -13q12 0 28 2t31 5l48 9l33 -81q-31 -25 -78 -43t-94 -18q-39 0 -69.5 11.5t-52.5 32.5q-23 23 -35 54.5t-12 76.5v208h-203v-375h-146v375h-89v89l84 20q-8 12 -14 34t-6 43q0 39 14.5 68.5t39 50t56.5 31t68 10.5
q39 0 79 -11.5t72 -30.5l-21 -87l-30 3q-14 2 -30.5 3t-27.5 1q-35 0 -53 -13.5t-18 -45.5q0 -12 4 -27t11 -25h210v135h146v-135h158v-113h-158v-196z" />
    <glyph glyph-name="f_f_t" unicode="fft" horiz-adv-x="1161" 
d="M603 375v-375h-146v375h-219v-375h-146v375h-90v89l88 20q-7 14 -10 33t-3 39q0 37 13 66.5t37 50t57 31.5t74 11q43 0 82.5 -12t74.5 -32l-21 -85l-37 4q-16 2 -32 3t-28 1q-32 0 -52.5 -15t-20.5 -47q0 -12 2 -23t5 -21h223q-5 13 -8 33t-3 38q0 36 13 66t36 51t55 33
t70 12t77 -12.5t70 -29.5l-20 -86l-31 3q-33 3 -55 3q-31 0 -48.5 -14.5t-17.5 -45.5q0 -13 2.5 -27.5t6.5 -23.5h202v135h146v-135h158v-113h-158v-196q0 -17 3 -28.5t11 -19.5q15 -13 41 -13q12 0 28 2t31 5l48 9l33 -81q-31 -25 -78 -43t-94 -18q-39 0 -69.5 11.5
t-52.5 32.5q-23 23 -35 54.5t-12 76.5v208h-200z" />
    <glyph glyph-name=".notdef" horiz-adv-x="596" 
d="M66 650h464v-650h-464v650zM456 604h-316l159 -237zM484 88v474l-158 -237zM456 47l-157 236l-159 -236h316zM113 88l157 237l-157 237v-474z" />
    <glyph glyph-name=".null" horiz-adv-x="0" 
 />
    <glyph glyph-name=".null" horiz-adv-x="0" 
 />
    <glyph glyph-name="nonmarkingreturn" unicode="&#xd;" horiz-adv-x="226" 
 />
    <glyph glyph-name="space" unicode=" " horiz-adv-x="226" 
 />
    <glyph glyph-name="nonbreakingspace" unicode="&#xa0;" horiz-adv-x="226" 
 />
    <glyph glyph-name="A" unicode="A" horiz-adv-x="712" 
d="M490 123h-279l-38 -110q-3 -8 -6.5 -10.5t-12.5 -2.5h-144l252 663h153q10 0 13.5 -2.5t7.5 -11.5l266 -649h-148q-10 0 -14 2.5t-7 10.5zM441 247l-21 56q-12 31 -23.5 62.5t-21 60l-17.5 52.5t-12 41q-4 -15 -11 -39.5t-16.5 -54t-20.5 -61t-22 -61.5l-20 -56h185z" />
    <glyph glyph-name="B" unicode="B" horiz-adv-x="669" 
d="M65 663h292q68 0 114 -12.5t75 -39.5q43 -41 43 -113q0 -39 -17 -75.5t-45 -64.5q44 -22 74 -60t30 -100q0 -90 -51 -139q-32 -31 -83.5 -45t-124.5 -14h-307v663zM221 130h154q30 0 48 3.5t29 13.5q20 18 20 57q0 35 -17 52q-11 11 -29 14t-45 3h-160v-143zM391 393
q20 0 28 12q8 11 12 28t4 34q0 32 -16 48q-11 11 -28 14.5t-42 3.5h-128v-140h170z" />
    <glyph glyph-name="C" unicode="C" horiz-adv-x="690" 
d="M666 140q-25 -32 -59.5 -59.5t-75 -47.5t-85.5 -31.5t-91 -11.5q-74 0 -133.5 26.5t-101 72t-64 108t-22.5 134.5q0 79 26 142.5t70.5 108t104 68t126.5 23.5q105 0 179.5 -53.5t110.5 -147.5l-99 -64l-83 68q-33 27 -59 38.5t-59 11.5t-61 -11.5t-48.5 -35.5
t-32.5 -60.5t-12 -85.5q0 -97 47 -145.5t128 -48.5q31 0 64 9t67 25l106 49z" />
    <glyph glyph-name="D" unicode="D" horiz-adv-x="724" 
d="M65 0v663h235q97 0 170 -19.5t124 -64.5q46 -41 71 -102.5t25 -145.5q0 -83 -25 -144.5t-71 -102.5q-51 -45 -124 -64.5t-170 -19.5h-235zM294 135q66 0 112.5 11t74.5 39q23 23 35 58.5t12 87.5q0 53 -12 88.5t-35 58.5q-28 28 -74.5 39t-112.5 11h-73v-393h73z" />
    <glyph glyph-name="E" unicode="E" horiz-adv-x="618" 
d="M558 663v-130h-337v-132h307v-128h-307v-143h347v-130h-503v663h493z" />
    <glyph glyph-name="F" unicode="F" horiz-adv-x="584" 
d="M550 663v-130h-329v-153h297v-128h-297v-252h-156v663h485z" />
    <glyph glyph-name="G" unicode="G" horiz-adv-x="743" 
d="M567 429l-78 53q-34 23 -62.5 34.5t-64.5 11.5q-35 0 -65 -12.5t-52.5 -37t-35 -61t-12.5 -84.5q0 -96 46.5 -145.5t136.5 -49.5q33 0 72 6t65 16q12 5 14 8.5t2 13.5v61h-101v111h231q13 0 17.5 -4t4.5 -16v-334h-111l-24 58l-49 -27q-37 -20 -72 -30.5t-77 -10.5
q-74 0 -133 26t-100 71.5t-63 108t-22 135.5q0 80 27.5 143.5t74 107.5t107.5 67.5t128 23.5q104 0 180.5 -48.5t111.5 -129.5z" />
    <glyph glyph-name="H" unicode="H" horiz-adv-x="731" 
d="M510 273h-289v-273h-156v663h156v-255h289v255h156v-663h-156v273z" />
    <glyph glyph-name="I" unicode="I" horiz-adv-x="290" 
d="M223 0h-156v663h156v-663z" />
    <glyph glyph-name="J" unicode="J" horiz-adv-x="521" 
d="M48 152l65 -11q35 -6 63 -8.5t45 -2.5q51 0 69 21q9 11 12.5 27t3.5 43v442h156v-441q0 -59 -14 -101t-45 -73q-27 -27 -66 -42.5t-88 -15.5q-63 0 -121.5 17.5t-107.5 48.5z" />
    <glyph glyph-name="K" unicode="K" horiz-adv-x="680" 
d="M306 292q-20 -14 -42.5 -27t-42.5 -21v-244h-156v663h156v-287l335 296l90 -94l-223 -193l255 -385h-160q-14 0 -19.5 3t-12.5 13z" />
    <glyph glyph-name="L" unicode="L" horiz-adv-x="581" 
d="M65 663h156v-533h326v-130h-482v663z" />
    <glyph glyph-name="M" unicode="M" horiz-adv-x="857" 
d="M638 647q8 11 13.5 13.5t18.5 2.5h122v-663h-151v434l-161 -202h-88q-10 0 -15 2t-12 10l-150 190v-434h-150v663h127q12 0 18 -2.5t14 -13.5l207 -259h2z" />
    <glyph glyph-name="N" unicode="N" horiz-adv-x="745" 
d="M564 0q-11 0 -16.5 2.5t-11.5 10.5l-220 275q-33 42 -61.5 78.5t-41.5 55.5h-1v-422h-147v663h117q11 0 16 -2.5t12 -10.5l220 -275q33 -42 61.5 -79t41.5 -56v423h147v-663h-116z" />
    <glyph glyph-name="O" unicode="O" horiz-adv-x="742" 
d="M708 331q0 -78 -27.5 -141.5t-73.5 -107.5t-107.5 -68t-128.5 -24q-68 0 -129 24t-107 68t-73.5 107.5t-27.5 141.5t27.5 141.5t73.5 108t107 68.5t129 24q67 0 128.5 -24t107.5 -68.5t73.5 -108t27.5 -141.5zM545 331q0 95 -46 142t-128 47t-128 -47.5t-46 -141.5
q0 -97 46 -142.5t128 -45.5t128 47t46 141z" />
    <glyph glyph-name="P" unicode="P" horiz-adv-x="650" 
d="M221 0h-156v663h267q75 0 133 -14t95 -51q27 -27 42 -67t15 -95q0 -54 -15 -97.5t-46 -73.5t-79.5 -45.5t-117.5 -15.5h-138v-204zM399 331q26 0 37 16t16.5 39.5t5.5 48.5q0 50 -21 71q-14 14 -37.5 20t-61.5 6h-117v-201h178z" />
    <glyph glyph-name="Q" unicode="Q" horiz-adv-x="742" 
d="M708 331q0 -103 -45 -178t-118 -118l118 -164l-156 -65l-100 186q-9 -1 -18 -1.5t-18 -0.5q-68 0 -129 24t-107 68t-73.5 107.5t-27.5 141.5t27.5 141.5t73.5 108t107 68.5t129 24q67 0 128.5 -24t107.5 -68.5t73.5 -108t27.5 -141.5zM545 331q0 95 -46 142t-128 47
t-128 -47.5t-46 -141.5q0 -97 46 -142.5t128 -45.5t128 47t46 141z" />
    <glyph glyph-name="R" unicode="R" horiz-adv-x="684" 
d="M221 0h-156v663h273q82 0 138 -15t91 -48q55 -54 55 -154q0 -67 -30.5 -117.5t-78.5 -82.5l151 -246h-158q-11 0 -17 3.5t-11 11.5l-110 187q-6 10 -10 12t-16 2h-121v-216zM406 343q24 0 35 16t16 37t5 45q0 46 -22 67q-14 13 -37.5 18.5t-61.5 5.5h-120v-189h185z" />
    <glyph glyph-name="S" unicode="S" horiz-adv-x="611" 
d="M147 151q54 -12 95 -17t72 -5q52 0 80.5 18t28.5 50q0 14 -4.5 24t-15.5 17.5t-29.5 14t-46.5 14.5l-66 18q-53 15 -93.5 32.5t-68 41.5t-41.5 55t-14 72q0 48 20.5 83t56.5 58.5t83.5 34.5t101.5 11q63 0 124 -13t113 -36l-24 -106l-63 7q-37 4 -77 7t-65 3
q-63 0 -91 -11.5t-28 -37.5q0 -23 23.5 -35t73.5 -26l58 -16q62 -17 103 -34.5t67 -38.5q30 -25 42.5 -56t12.5 -73q0 -53 -19 -93t-53.5 -68t-83 -42t-106.5 -14q-36 0 -74.5 5.5t-75 15.5t-70.5 23.5t-62 30.5l38 103z" />
    <glyph glyph-name="T" unicode="T" horiz-adv-x="632" 
d="M237 532h-221v131h598v-131h-221v-532h-156v532z" />
    <glyph glyph-name="U" unicode="U" horiz-adv-x="712" 
d="M502 663h153v-393q0 -72 -18.5 -119t-53.5 -82q-40 -40 -98 -59.5t-129 -19.5t-129 19.5t-98 59.5q-35 35 -53.5 82t-18.5 119v393h156v-383q0 -36 7.5 -60t23.5 -41q35 -38 114 -38q38 0 66.5 9t46.5 29q16 17 23.5 41t7.5 60v383z" />
    <glyph glyph-name="V" unicode="V" horiz-adv-x="682" 
d="M513 649q5 14 19 14h148l-242 -663h-166q-20 0 -26 18l-244 645h154q8 0 12 -2.5t7 -11.5l94 -261q12 -33 23.5 -68.5t22 -69t18.5 -63t13 -48.5h2q5 20 12.5 48.5t17.5 62t21.5 70t24.5 73.5z" />
    <glyph glyph-name="W" unicode="W" horiz-adv-x="1021" 
d="M564 663q9 0 13 -2.5t7 -11.5l67 -225q24 -82 42.5 -152t26.5 -111q9 41 27.5 109.5t43.5 149.5l70 229q4 14 19 14h139l-210 -663h-160q-20 0 -24 15l-47 164q-11 40 -22 79.5t-20 75t-16 65t-11 50.5q-4 -21 -11.5 -53.5t-17 -70.5t-20 -77.5t-20.5 -75.5l-49 -172
h-161q-20 0 -24 15l-204 648h146q9 0 13 -2.5t7 -11.5l67 -222q9 -31 19.5 -66.5t20 -71.5t18 -69t13.5 -59q10 54 28.5 125.5t40.5 146.5l68 230h121z" />
    <glyph glyph-name="X" unicode="X" horiz-adv-x="706" 
d="M443 340l257 -340h-167q-14 0 -22 11l-165 220l-160 -222q-6 -9 -20 -9h-160l249 340l-246 323h163q12 0 17 -2t11 -10l153 -204l147 204q6 8 11 10t15 2h154z" />
    <glyph glyph-name="Y" unicode="Y" horiz-adv-x="688" 
d="M348 341q16 35 38.5 78t52.5 97l73 132q5 8 9.5 11.5t13.5 3.5h157l-268 -456v-207h-156v207l-272 456h164q9 0 13 -2.5t9 -10.5l77 -137q29 -51 51 -94t38 -78z" />
    <glyph glyph-name="Z" unicode="Z" horiz-adv-x="629" 
d="M42 532v131h539v-89q0 -12 -3 -19t-12 -19l-231 -291q-24 -31 -50.5 -62t-46.5 -53h347v-130h-543v89q0 12 2.5 18.5t12.5 19.5l231 291q17 22 31 38.5t25 29.5t21 24l20 22h-343z" />
    <glyph glyph-name="a" unicode="a" horiz-adv-x="554" 
d="M330 307q0 32 -14 46q-10 10 -27.5 14.5t-38.5 4.5q-45 0 -102 -17l-58 -17l-42 79q47 35 103.5 57t116.5 22q49 0 91 -14t70 -43q23 -23 35 -56t12 -82v-189l66 -15v-77q-19 -9 -46.5 -16t-49.5 -7q-26 0 -47.5 11.5t-43.5 32.5l-28 -15q-63 -34 -123 -34
q-40 0 -73 12.5t-57 34t-37 51.5t-13 65t13 61.5t35.5 44t53.5 26t67 8.5q32 0 69 -6.5t68 -17.5v36zM330 184q0 9 -9 9h-129q-18 0 -25 -8q-6 -8 -6 -23q0 -26 19 -41.5t54 -15.5q22 0 46.5 5.5t41.5 13.5q8 4 8 15v45z" />
    <glyph glyph-name="b" unicode="b" horiz-adv-x="578" 
d="M201 451l23 12q30 16 58.5 24.5t55.5 8.5q44 0 82.5 -18t67 -51t44.5 -79.5t16 -103.5t-16 -103.5t-44 -79.5t-66.5 -51t-83.5 -18q-30 0 -57 9t-56 24l-41 21l-18 -46h-111v709h146v-258zM201 160q0 -13 9 -17q17 -7 41.5 -12.5t47.5 -5.5q50 0 75.5 25.5t25.5 93.5
q0 65 -25.5 91t-75.5 26q-26 0 -49 -5t-40 -12q-9 -4 -9 -17v-167z" />
    <glyph glyph-name="c" unicode="c" horiz-adv-x="520" 
d="M502 90q-20 -20 -45 -37.5t-54 -31t-62 -21.5t-68 -8q-56 0 -101 18t-77 51.5t-49.5 80.5t-17.5 104t20 103.5t53 79t76.5 50t90.5 17.5q44 0 81.5 -13t66.5 -36t49 -54.5t29 -68.5l-95 -46l-43 41q-29 29 -47.5 39t-43.5 10q-36 0 -62 -30t-26 -90q0 -66 28.5 -97
t84.5 -31q44 0 104 24l62 24z" />
    <glyph glyph-name="d" unicode="d" horiz-adv-x="580" 
d="M396 46l-39 -21q-29 -16 -56.5 -24.5t-57.5 -8.5q-47 0 -86 18.5t-67.5 51.5t-44 79t-15.5 102q0 57 17 103.5t46.5 80t69 51.5t84.5 18q38 0 69 -12t63 -34v259h146v-709h-111zM379 327q0 13 -9 17q-17 7 -40 12.5t-48 5.5q-52 0 -78 -28t-26 -91q0 -62 25 -90t80 -28
q24 0 47 5t40 12q9 4 9 17v168z" />
    <glyph glyph-name="e" unicode="e" horiz-adv-x="544" 
d="M177 199q6 -37 35.5 -59.5t80.5 -22.5q21 0 47 4.5t49 12.5l68 21l44 -80q-43 -38 -101.5 -60.5t-122.5 -22.5q-54 0 -99.5 18t-78.5 50.5t-51.5 79t-18.5 103.5t18.5 103.5t51.5 79.5t78 51.5t98 18.5q52 0 96 -19t75.5 -51.5t49 -75t17.5 -90.5q0 -38 -6 -49.5
t-19 -11.5h-311zM275 376q-40 0 -66.5 -22t-31.5 -57h193q-5 35 -30.5 57t-64.5 22z" />
    <glyph glyph-name="f" unicode="f" horiz-adv-x="402" 
d="M89 484q-7 15 -11 35.5t-4 41.5q0 35 13 64.5t37.5 50.5t59 33t78.5 12q51 0 97.5 -16.5t82.5 -41.5l-33 -85l-47 10q-19 4 -37 6.5t-34 2.5q-32 0 -51 -12t-19 -44q0 -13 3 -28.5t8 -24.5h164v-113h-158v-375h-146v375h-90v89z" />
    <glyph glyph-name="g" unicode="g" horiz-adv-x="566" 
d="M491 300q0 -43 -16.5 -79t-46.5 -62t-71 -40.5t-90 -14.5q-15 0 -28.5 1.5t-26.5 3.5q-8 2 -11 1t-5 -7l-7 -21q-4 -13 9 -13h147q57 0 94.5 -12.5t59.5 -35.5q31 -32 31 -89q0 -43 -20.5 -78t-56.5 -59.5t-85 -38t-105 -13.5q-55 0 -102.5 12t-82 33.5t-54.5 51
t-20 65.5q0 29 16 51t45 39q-9 9 -15 20.5t-6 25.5q0 15 8 31.5t28 39.5l35 40q-34 26 -53 64t-19 84q0 43 16.5 79t46.5 62t71 40.5t90 14.5q41 0 75.5 -10t62.5 -29q56 54 98 54q17 0 34.5 -4.5t34.5 -15.5v-84l-92 -15q-11 -1 -6 -12q17 -37 17 -80zM355 300q0 40 -25 60
t-63 20t-63 -20t-25 -60t25 -60t63 -20t63 20t25 60zM390 -73q0 15 -9 23q-6 5 -16.5 7t-29.5 2h-158q-15 0 -24 -8t-9 -25q0 -27 29 -45.5t94 -18.5q57 0 90 17.5t33 47.5z" />
    <glyph glyph-name="h" unicode="h" horiz-adv-x="567" 
d="M201 454l8 5q29 17 58.5 27t62.5 10q41 0 76.5 -14t61.5 -40q24 -25 37 -59.5t13 -82.5v-300h-146v296q0 32 -14 46q-17 18 -66 18h-2q-23 0 -44.5 -3.5t-35.5 -8.5q-7 -3 -8 -7t-1 -10v-331h-146v709h146v-255z" />
    <glyph glyph-name="i" unicode="i" horiz-adv-x="258" 
d="M56 488h146v-488h-146v488zM56 700h112q20 0 27 -7t7 -24v-109h-146v140z" />
    <glyph glyph-name="j" unicode="j" horiz-adv-x="258" 
d="M56 488h146v-542q0 -51 -10 -84.5t-30 -54.5q-20 -20 -51 -30t-69 -10q-26 0 -53 5.5t-46 13.5v77l60 11q16 3 26.5 6.5t16.5 9t8 14.5t2 23v561zM56 700h112q20 0 27 -7t7 -24v-109h-146v140z" />
    <glyph glyph-name="k" unicode="k" horiz-adv-x="570" 
d="M380 286l190 -286h-145q-12 0 -17.5 2.5t-11.5 11.5l-126 197q-16 -10 -35 -19.5t-34 -14.5v-177h-146v709h146v-411l259 206l80 -90z" />
    <glyph glyph-name="l" unicode="l" horiz-adv-x="289" 
d="M283 22q-20 -10 -49 -17.5t-55 -7.5q-58 0 -91 36q-16 17 -24 41t-8 57v578h146v-592l81 -19v-76z" />
    <glyph glyph-name="m" unicode="m" horiz-adv-x="864" 
d="M167 488l17 -44l14 9q33 21 64.5 32t66.5 11q39 0 75.5 -15t63.5 -49l20 12q43 27 78 39.5t71 12.5q39 0 72.5 -13.5t57.5 -39.5q48 -51 48 -140v-303h-146v301q0 32 -16 45q-17 14 -61 14h-1q-23 0 -41.5 -3.5t-32.5 -8.5q-7 -3 -8 -7t-1 -10v-331h-146v301q0 32 -16 45
q-17 14 -61 14h-1q-23 0 -41.5 -3.5t-32.5 -8.5q-7 -3 -8 -7t-1 -10v-331h-146v488h112z" />
    <glyph glyph-name="n" unicode="n" horiz-adv-x="567" 
d="M167 488l17 -44l25 15q29 17 58.5 27t62.5 10q41 0 76.5 -14t61.5 -40q24 -25 37 -59.5t13 -82.5v-300h-146v296q0 32 -14 46q-17 18 -66 18h-2q-23 0 -44.5 -3.5t-35.5 -8.5q-7 -3 -8 -7t-1 -10v-331h-146v488h112z" />
    <glyph glyph-name="o" unicode="o" horiz-adv-x="562" 
d="M282 127q48 0 75.5 27t27.5 90t-27.5 90t-75.5 27h-2q-48 0 -75.5 -27t-27.5 -90t27.5 -90t75.5 -27h2zM280 -8q-51 0 -96.5 17t-80 49.5t-54.5 79.5t-20 106t20 106t54.5 79.5t80 49.5t96.5 17h2q51 0 96.5 -17t80 -49.5t54.5 -79.5t20 -106t-20 -106t-54.5 -79.5
t-80 -49.5t-96.5 -17h-2z" />
    <glyph glyph-name="p" unicode="p" horiz-adv-x="578" 
d="M201 37v-266h-146v717h111l18 -45l40 20q32 16 59.5 24.5t54.5 8.5q44 0 82.5 -18t67 -51t44.5 -79.5t16 -103.5t-16 -103.5t-44 -79.5t-66.5 -51t-83.5 -18q-29 0 -56.5 9.5t-56.5 23.5zM201 159q0 -13 9 -17q17 -7 41.5 -12t47.5 -5q50 0 75.5 25.5t25.5 93.5
q0 65 -25.5 91t-75.5 26q-26 0 -49 -5t-40 -12q-9 -4 -9 -17v-168z" />
    <glyph glyph-name="q" unicode="q" horiz-adv-x="580" 
d="M414 488h111v-717h-146v266l-22 -12q-29 -16 -56.5 -24.5t-57.5 -8.5q-47 0 -86 18.5t-67.5 51.5t-44 79t-15.5 102q0 57 17 103.5t46.5 80t69 51.5t84.5 18q38 0 72 -13t75 -44zM379 327q0 13 -9 17q-17 7 -40 12.5t-48 5.5q-52 0 -78 -28t-26 -91q0 -62 25 -90t80 -28
q24 0 47 5t40 12q9 4 9 17v168z" />
    <glyph glyph-name="r" unicode="r" horiz-adv-x="393" 
d="M167 488l19 -64q46 38 79.5 55t59.5 17q16 0 32.5 -5.5t31.5 -13.5v-100l-50 -10q-71 -14 -124 -33q-9 -3 -11.5 -6.5t-2.5 -11.5v-316h-146v488h112z" />
    <glyph glyph-name="s" unicode="s" horiz-adv-x="491" 
d="M364 372q-36 4 -66 6t-50 2q-43 0 -62 -6.5t-19 -22.5q0 -13 14.5 -19.5t39.5 -11.5l68 -15q46 -10 78.5 -22t53 -29t29.5 -40t9 -55q0 -36 -12.5 -66.5t-38 -53t-66 -35t-95.5 -12.5q-27 0 -56.5 4t-58 11.5t-55 17.5t-47.5 23l29 84l62 -10q45 -8 74.5 -11t54.5 -3
q78 0 78 38q0 14 -11.5 20t-40.5 13l-68 15q-38 8 -70 20t-54.5 29.5t-35 42t-12.5 59.5q0 37 15.5 65.5t44 47.5t67 28.5t85.5 9.5q49 0 98.5 -11t90.5 -30l-22 -88z" />
    <glyph glyph-name="t" unicode="t" horiz-adv-x="447" 
d="M431 53q-31 -25 -78 -43t-94 -18q-39 0 -69.5 11.5t-52.5 32.5q-23 23 -35 54.5t-12 76.5v208h-90v89l90 21v144h146v-141h158v-113h-158v-196q0 -17 3 -28.5t11 -19.5q15 -13 41 -13q12 0 28 2t31 5l48 9z" />
    <glyph glyph-name="u" unicode="u" horiz-adv-x="564" 
d="M397 0l-17 44l-26 -15q-31 -17 -58.5 -27t-59.5 -10q-41 0 -76 14t-61 40q-24 25 -37 59.5t-13 82.5v300h146v-296q0 -32 14 -46q17 -18 66 -18q22 0 43.5 3.5t35.5 8.5q7 3 8 7t1 10v331h146v-488h-112z" />
    <glyph glyph-name="v" unicode="v" horiz-adv-x="542" 
d="M550 488l-198 -488h-141q-9 0 -12.5 2.5t-6.5 9.5l-200 476h143q11 0 14.5 -3t7.5 -12l66 -168q8 -21 16.5 -43.5t15.5 -43.5t13 -39.5t10 -31.5q3 12 9 31t13 40t15 43t15 42l62 170q3 9 7 12t15 3h136z" />
    <glyph glyph-name="w" unicode="w" horiz-adv-x="832" 
d="M413 304q-6 -30 -17.5 -74.5t-25.5 -90.5l-41 -139h-147q-11 0 -15.5 3t-7.5 11l-165 474h138q11 0 15 -2.5t7 -11.5l43 -141q17 -54 29 -102.5t23 -91.5q8 38 21.5 90t27.5 101l47 158h121q11 0 15.5 -3t7.5 -12l53 -167q6 -19 12.5 -42.5t13 -46.5t11.5 -43.5t8 -34.5
q7 28 19.5 74.5t26.5 91.5l51 168q3 9 7 12t15 3h132l-170 -488h-146q-19 0 -24 14l-40 127q-14 43 -26 88.5t-19 74.5z" />
    <glyph glyph-name="x" unicode="x" horiz-adv-x="542" 
d="M391 0q-9 0 -13.5 2.5t-9.5 8.5l-106 147h-1l-100 -147q-5 -7 -9 -9t-14 -2h-145l182 250l-176 238h155q11 0 15 -2t10 -10l93 -132h1l94 132q5 8 9.5 10t14.5 2h140l-172 -238l188 -250h-156z" />
    <glyph glyph-name="y" unicode="y" horiz-adv-x="543" 
d="M135 488q11 0 15 -2.5t8 -12.5l70 -180q6 -15 12.5 -33t13 -37.5l13 -39t11.5 -36.5q4 16 10.5 36t13.5 41t14 41t13 37l62 171q4 10 8.5 12.5t14.5 2.5h136l-296 -730l-141 36l90 196l-211 498h143z" />
    <glyph glyph-name="z" unicode="z" horiz-adv-x="497" 
d="M294 203q-8 -10 -19.5 -23.5t-23 -26.5t-21.5 -24t-15 -16h248v-113h-431v74q0 8 2 14t9 14l148 182q10 13 22 27t23.5 27t21 22.5l14.5 14.5h-234v113h423v-64q0 -10 -3 -15.5t-8 -12.5z" />
    <glyph glyph-name="ampersand" unicode="&#x26;" horiz-adv-x="755" 
d="M503 238q25 40 50 86l50 93l87 -31q-14 -54 -41 -115t-62 -112q0 -1 7.5 -8t16.5 -15q11 -10 25 -23l85 -17v-73q-14 -10 -37.5 -18.5t-50.5 -8.5q-18 0 -33 3t-30.5 10t-32.5 19t-38 31q-42 -32 -93.5 -50.5t-105.5 -18.5q-56 0 -105 16.5t-85.5 46t-58 70.5t-21.5 90
q0 33 10.5 60t29 48.5t43.5 38t54 29.5q-18 26 -26.5 51.5t-8.5 54.5q0 42 17 75t45.5 56t65.5 35t76 12q41 0 76.5 -13t62 -35.5t41.5 -53t15 -66.5q0 -49 -27.5 -92.5t-93.5 -85.5zM225 320q-20 -16 -35 -38t-15 -51q0 -23 10.5 -44t29 -36.5t44.5 -25t57 -9.5
q26 0 49.5 7t45.5 19zM361 407q27 30 37.5 50.5t10.5 38.5q0 26 -20 43.5t-51 17.5q-26 0 -48.5 -15t-22.5 -47q0 -24 18.5 -48t59.5 -58z" />
    <glyph glyph-name="at" unicode="@" horiz-adv-x="774" 
d="M431 290q0 17 -10.5 26.5t-36.5 9.5q-20 0 -57 -9l-43 -11l-25 51q29 23 65.5 37.5t72.5 14.5q61 0 97.5 -30.5t36.5 -98.5v-85q0 -17 7 -28t28 -11q10 0 21 5t20 17.5t15 34t6 54.5q0 43 -16 82.5t-46 69.5t-73 47.5t-98 17.5q-52 0 -96.5 -15.5t-77 -45.5t-51 -73.5
t-18.5 -98.5q0 -57 17.5 -103.5t50.5 -79t81 -50t109 -17.5q37 0 76 7t81 20l102 30l30 -62q-24 -20 -57.5 -37.5t-73.5 -30t-84.5 -20t-88.5 -7.5q-80 0 -145.5 26.5t-112.5 72.5t-73 108.5t-26 135.5q0 78 28.5 141t77.5 107.5t113.5 68t135.5 23.5q74 0 136 -25
t106.5 -67t69.5 -97.5t25 -116.5q0 -51 -15 -89t-40 -62.5t-57.5 -37t-67.5 -12.5q-33 0 -57 11t-37 27q-23 -15 -47 -23.5t-51 -8.5q-53 0 -84.5 31t-31.5 75q0 47 31.5 68.5t77.5 21.5q20 0 41.5 -3.5t38.5 -9.5v24zM425 170q5 2 5.5 4t0.5 5v28q0 4 -4 4h-74
q-17 0 -17 -18q0 -14 10 -23.5t31 -9.5q12 0 26 3t22 7z" />
    <glyph glyph-name="exclam" unicode="!" horiz-adv-x="290" 
d="M196 145q14 0 19 -5t5 -18v-122h-150v145h126zM83 333q-5 43 -8.5 85.5t-3.5 80.5v164h148v-164q0 -38 -3.5 -80.5t-8.5 -85.5l-16 -126h-92z" />
    <glyph glyph-name="exclamdown" unicode="&#xa1;" horiz-adv-x="290" 
d="M93.9941 342.979q-13.999 0 -18.999 4.99902q-4.99902 5 -4.99902 17.999v121.993h149.99v-144.991h-125.992zM206.987 154.99q5 -42.9971 8.5 -85.4941q3.49902 -42.498 3.49902 -80.4951v-163.99h-147.99v163.99q0 37.9971 3.49902 80.4951q3.5 42.4971 8.5 85.4941
l15.999 125.992h91.9941z" />
    <glyph glyph-name="question" unicode="?" horiz-adv-x="539" 
d="M187 198l-12 74q-2 9 -3 18t-1 16q0 17 8 27.5t29 22.5l36 21q28 16 47.5 29t31.5 24.5t17.5 22.5t5.5 24q0 29 -22 45t-64 16q-26 0 -58.5 -7.5t-64.5 -18.5l-62 -22l-51 86q50 42 113.5 69.5t131.5 27.5q46 0 87.5 -12.5t73 -36.5t50 -60t18.5 -83q0 -75 -50.5 -125
t-144.5 -77l-18 -81h-98zM287 136q14 0 19 -5.5t5 -17.5v-113h-146v136h122z" />
    <glyph glyph-name="questiondown" unicode="&#xbf;" horiz-adv-x="539" 
d="M351.979 289.982l11.999 -73.9961q2 -8.99902 3 -17.998q1 -9 1 -15.999q0 -16.999 -7.99902 -27.499q-8 -10.499 -28.999 -22.498l-35.9971 -20.999q-27.999 -15.999 -47.4971 -28.998q-19.499 -12.999 -31.499 -24.499q-11.999 -11.499 -17.498 -22.498
q-5.5 -11 -5.5 -23.999q0 -28.998 21.999 -44.9971q21.998 -15.999 63.9961 -15.999q25.998 0 58.4961 7.5q32.498 7.49902 64.4961 18.499l61.9961 21.998l50.9971 -85.9941q-49.9971 -41.998 -113.493 -69.4961t-131.492 -27.498q-45.9971 0 -87.4941 12.499
q-41.498 12.499 -72.9961 36.4971q-31.498 23.999 -49.9971 59.9971q-18.499 35.9971 -18.499 82.9951q0 74.9951 50.4971 124.992t144.491 76.9951l17.999 80.9951h97.9941zM251.984 351.979q-13.999 0 -18.999 5.5q-4.99902 5.49902 -4.99902 17.499v112.993h145.991
v-135.992h-121.993z" />
    <glyph glyph-name="asterisk" unicode="*" horiz-adv-x="478" 
d="M333 281q-14 -10 -24 5l-68 126l-77 -142l-86 58q-16 12 2 28l107 102l-149 25l34 83q5 11 10.5 13.5t16.5 -3.5l107 -63l-28 150h107q18 0 15 -17l-25 -132l127 72l35 -86q7 -18 -15 -21l-127 -21l125 -119z" />
    <glyph glyph-name="period" unicode="." horiz-adv-x="246" 
d="M166 151q20 0 27 -7t7 -24v-120h-154v151h120z" />
    <glyph glyph-name="comma" unicode="," horiz-adv-x="246" 
d="M46 151h120q20 0 27 -7t7 -24v-68q0 -30 -3.5 -54t-17 -48t-39 -52t-69.5 -67l-51 38l69 115q5 9 4 12.5t-9 8.5l-16 8q-16 9 -19 16t-3 22v100z" />
    <glyph glyph-name="colon" unicode=":" horiz-adv-x="246" 
d="M166 151q20 0 27 -7t7 -24v-120h-154v151h120zM166 456q20 0 27 -7t7 -24v-120h-154v151h120z" />
    <glyph glyph-name="semicolon" unicode=";" horiz-adv-x="246" 
d="M166 456q20 0 27 -7t7 -24v-120h-154v151h120zM46 151h120q20 0 27 -7t7 -24v-68q0 -30 -3.5 -54t-17 -48t-39 -52t-69.5 -67l-51 38l69 115q5 9 4 12.5t-9 8.5l-16 8q-16 9 -19 16t-3 22v100z" />
    <glyph glyph-name="ellipsis" unicode="&#x2026;" horiz-adv-x="738" 
d="M166 151q20 0 27 -7t7 -24v-120h-154v151h120zM412 151q20 0 27 -7t7 -24v-120h-154v151h120zM658 151q20 0 27 -7t7 -24v-120h-154v151h120z" />
    <glyph glyph-name="periodcentered" unicode="&#xb7;" horiz-adv-x="246" 
d="M166 353q20 0 27 -7t7 -24v-120h-154v151h120z" />
    <glyph glyph-name="bullet" unicode="&#x2022;" horiz-adv-x="369" 
d="M307 167h-245v233h201q25 0 34.5 -9t9.5 -33v-191z" />
    <glyph glyph-name="slash" unicode="/" horiz-adv-x="488" 
d="M0 0l335 663h153l-335 -663h-153z" />
    <glyph glyph-name="parenleft" unicode="(" horiz-adv-x="370" 
d="M68 217q0 72 15.5 138t43.5 124.5t68 108.5t90 89l67 -55q-33 -48 -57 -94.5t-40 -95t-23.5 -101.5t-7.5 -114t7.5 -114t23.5 -101.5t40 -95t57 -94.5l-67 -55q-50 39 -90 88.5t-68 108t-43.5 125t-15.5 138.5z" />
    <glyph glyph-name="brokenbar" unicode="&#xa6;" horiz-adv-x="284" 
d="M73 709h138v-418h-138v418zM73 189h138v-418h-138v418z" />
    <glyph glyph-name="parenright" unicode=")" horiz-adv-x="370" 
d="M302 217q0 -72 -15.5 -138.5t-43.5 -125t-68.5 -108t-89.5 -88.5l-67 55q33 48 57 94.5t40 95t23.5 101.5t7.5 114t-7.5 114t-23.5 101.5t-40 95t-57 94.5l67 55q49 -39 89.5 -89t68.5 -108.5t43.5 -124.5t15.5 -138z" />
    <glyph glyph-name="bracketleft" unicode="[" horiz-adv-x="366" 
d="M216 -99h132v-130h-274v892h274v-130h-132v-632z" />
    <glyph glyph-name="backslash" unicode="\" horiz-adv-x="488" 
d="M335 0l-335 663h153l335 -663h-153z" />
    <glyph glyph-name="bracketright" unicode="]" horiz-adv-x="366" 
d="M150 533h-132v130h274v-892h-274v130h132v632z" />
    <glyph glyph-name="braceleft" unicode="{" horiz-adv-x="397" 
d="M40 264q29 11 49 21t32 20.5t17 23t5 29.5q0 16 -3.5 40t-8 50t-8 51.5t-3.5 46.5q0 34 11.5 58t32 39.5t48 22.5t59.5 7q29 0 59 -5t55 -12v-90l-101 -23q-11 -2 -14 -6.5t-3 -13.5t3.5 -28.5t7 -43t7 -48.5t3.5 -46q0 -24 -6.5 -43.5t-21.5 -36.5t-41 -32t-65 -29
q39 -14 65 -29t41 -32t21.5 -36.5t6.5 -43.5q0 -21 -3.5 -46t-7 -48.5t-7 -43t-3.5 -28.5t3 -13.5t14 -6.5l101 -23v-90q-25 -7 -55 -12t-59 -5q-32 0 -59.5 7t-48 22.5t-32 39.5t-11.5 58q0 21 3.5 46.5t8 51.5t8 49.5t3.5 40.5q0 16 -5 29t-17 23.5t-32 20.5t-49 21v96z
" />
    <glyph glyph-name="bar" unicode="|" horiz-adv-x="284" 
d="M73 709h138v-938h-138v938z" />
    <glyph glyph-name="braceright" unicode="}" horiz-adv-x="397" 
d="M357 168q-29 -11 -49 -21t-32 -20.5t-17 -23.5t-5 -29q0 -17 3.5 -40.5t8 -49.5t8 -51.5t3.5 -46.5q0 -34 -11.5 -58t-32 -39.5t-48 -22.5t-59.5 -7q-29 0 -59 5t-55 12v90l101 23q11 2 14 6.5t3 13.5t-3.5 28.5t-7 43t-7 48.5t-3.5 46q0 24 6.5 43.5t21.5 36.5t41 32
t65 29q-39 14 -65 29t-41 32t-21.5 36.5t-6.5 43.5q0 21 3.5 46t7 48.5t7 43t3.5 28.5t-3 13.5t-14 6.5l-101 23v90q25 7 55 12t59 5q32 0 59.5 -7t48 -22.5t32 -39.5t11.5 -58q0 -21 -3.5 -46.5t-8 -51.5t-8 -50t-3.5 -40q0 -17 5 -29.5t17 -23t32 -20.5t49 -21v-96z" />
    <glyph glyph-name="hyphen" unicode="-" horiz-adv-x="425" 
d="M45 184v119h335v-119h-335z" />
    <glyph glyph-name="uni00AD" unicode="&#xad;" horiz-adv-x="425" 
d="M45 184v119h335v-119h-335z" />
    <glyph glyph-name="endash" unicode="&#x2013;" horiz-adv-x="590" 
d="M45 184v119h500v-119h-500z" />
    <glyph glyph-name="emdash" unicode="&#x2014;" horiz-adv-x="1090" 
d="M45 184v119h1000v-119h-1000z" />
    <glyph glyph-name="underscore" unicode="_" horiz-adv-x="527" 
d="M26 -155v117h475v-117h-475z" />
    <glyph glyph-name="dagger" unicode="&#x2020;" horiz-adv-x="594" 
d="M547 437v-127h-48q-19 0 -35.5 1t-39.5 4l-69 9l5 -39l3.5 -35t1.5 -37v-188q0 -21 -2 -51.5t-5.5 -64.5t-8 -69.5t-8.5 -68.5h-88l-18 169q-3 28 -4 46.5t-1 38.5v188q0 22 1.5 37.5t3.5 34.5l4 39l-68 -9q-23 -3 -40 -4t-35 -1h-49v127h49q18 0 35 -1t40 -4l69 -9
l-5 40q-2 20 -3.5 36t-1.5 37v127h135v-127q0 -21 -1 -36.5t-4 -36.5l-5 -40l69 9q23 3 39.5 4t35.5 1h48z" />
    <glyph glyph-name="daggerdbl" unicode="&#x2021;" horiz-adv-x="594" 
d="M233 155q-2 15 -3 29t-1 31q0 18 1.5 34t3.5 34l5 40l-68 -9q-20 -3 -35.5 -4t-31.5 -1h-57v128h57q16 0 31.5 -1t35.5 -4l69 -10l-5 41q-2 17 -3.5 35.5t-1.5 28.5v136h135v-135q0 -10 -1.5 -28.5t-3.5 -35.5l-5 -42l69 10q20 3 35 4t32 1h56v-128h-56q-14 0 -30.5 1.5
t-36.5 3.5l-69 9l5 -40q2 -18 3.5 -34t1.5 -34q0 -17 -1 -31t-3 -29l-6 -49l69 10q20 3 35.5 4t31.5 1h56v-127h-54q-16 0 -32.5 1.5t-36.5 3.5l-69 8l5 -39q2 -18 3.5 -32t1.5 -33v-132h-135v132q0 19 1.5 33.5t3.5 31.5l5 39l-69 -8q-20 -2 -36 -3.5t-32 -1.5h-56v127h57
q16 0 31.5 -1t35.5 -4l68 -10z" />
    <glyph glyph-name="section" unicode="&#xa7;" horiz-adv-x="628" 
d="M504 80q27 -24 41 -55.5t14 -73.5q0 -50 -21 -86t-55.5 -59t-80 -34.5t-94.5 -11.5q-60 0 -120 15.5t-112 44.5l33 102l74 -12q34 -5 65 -9t53 -4q106 0 106 59q0 23 -18 35.5t-63 24.5l-48 13q-50 13 -90 29t-68 38.5t-43 53t-15 74.5q0 38 17 70t44 58q-26 24 -40 56
t-14 74q0 49 21 85.5t56 59.5t80.5 34.5t93.5 11.5q65 0 122.5 -15.5t109.5 -44.5l-33 -101l-74 12q-33 5 -62.5 8.5t-55.5 3.5q-105 0 -105 -59q0 -23 17.5 -35.5t62.5 -24.5l48 -13q51 -14 91.5 -30t68 -38t42 -53t14.5 -74q0 -37 -17 -69.5t-45 -59.5zM403 136
q11 13 17 28t6 29q0 29 -20.5 43.5t-71.5 28.5l-52 14q-20 5 -33 9.5t-25 10.5q-11 -13 -17 -28t-6 -29q0 -29 20.5 -43.5t71.5 -28.5l52 -14q20 -5 33 -9.5t25 -10.5z" />
    <glyph glyph-name="paragraph" unicode="&#xb6;" horiz-adv-x="614" 
d="M234 -229v587h-90q-62 0 -83 21.5t-21 67.5v216h564v-106h-79v-786h-111v786h-69v-786h-111z" />
    <glyph glyph-name="registered" unicode="&#xae;" horiz-adv-x="774" 
d="M728 332q0 -74 -27 -137t-73.5 -108.5t-108.5 -71t-132 -25.5t-132 25.5t-108.5 71t-73.5 108.5t-27 137t27 136.5t73.5 108t108.5 71t132 25.5t132 -25.5t108.5 -71t73.5 -108t27 -136.5zM622 332q0 54 -16 98.5t-46.5 76t-74 49t-98.5 17.5t-99 -17.5t-74.5 -49
t-46.5 -76t-16 -98.5t16 -99t46.5 -77t74.5 -49.5t99 -17.5t98.5 17.5t74 49.5t46.5 77t16 99zM391 278q-1 4 -6 4h-38v-90h-86v283h140q113 0 113 -91q0 -26 -13 -45t-33 -34l59 -113h-82q-11 0 -15 9zM411 347q7 0 11 5q7 10 7 27t-8.5 23t-28.5 6h-45v-61h64z" />
    <glyph glyph-name="copyright" unicode="&#xa9;" horiz-adv-x="774" 
d="M518 253q-24 -29 -60 -46.5t-73 -17.5q-30 0 -55.5 10.5t-44.5 30t-29.5 46.5t-10.5 59t11 58.5t30.5 45.5t45 29.5t55.5 10.5q41 0 74 -23t50 -65l-51 -38l-32 28q-12 11 -21.5 16t-22.5 5q-23 0 -37.5 -17t-14.5 -51q0 -31 14.5 -48.5t45.5 -17.5q23 0 51 14l43 21z
M728 332q0 -74 -27 -137t-73.5 -108.5t-108.5 -71t-132 -25.5t-132 25.5t-108.5 71t-73.5 108.5t-27 137t27 136.5t73.5 108t108.5 71t132 25.5t132 -25.5t108.5 -71t73.5 -108t27 -136.5zM622 332q0 54 -16 98.5t-46.5 76t-74 49t-98.5 17.5t-99 -17.5t-74.5 -49t-46.5 -76
t-16 -98.5t16 -99t46.5 -77t74.5 -49.5t99 -17.5t98.5 17.5t74 49.5t46.5 77t16 99z" />
    <glyph glyph-name="trademark" unicode="&#x2122;" horiz-adv-x="752" 
d="M707 663v-314h-95v166l-65 -80h-42q-7 0 -9.5 1t-5.5 5l-60 75v-167h-94v314h75q6 0 8.5 -1.5t7.5 -6.5l95 -121h1l93 121q4 5 7 6.5t10 1.5h74zM212 349h-102v223h-91v91h283v-91h-90v-223z" />
    <glyph glyph-name="quotedblleft" unicode="&#x201c;" horiz-adv-x="448" 
d="M400 363h-120q-20 0 -27 7t-7 24v68q0 30 3.5 53.5t17 47.5t39 52.5t69.5 67.5l51 -38l-69 -115q-5 -9 -4 -12.5t9 -8.5l16 -8q16 -9 19 -16t3 -22v-100zM188 363h-120q-20 0 -27 7t-7 24v68q0 30 3.5 53.5t17 47.5t39 52.5t69.5 67.5l51 -38l-69 -115q-5 -9 -4 -12.5
t9 -8.5l16 -8q16 -9 19 -16t3 -22v-100z" />
    <glyph glyph-name="quotedblright" unicode="&#x201d;" horiz-adv-x="448" 
d="M48 663h120q20 0 27 -7t7 -24v-68q0 -30 -3.5 -54t-17 -48t-39 -52t-69.5 -67l-51 38l69 115q5 9 4 12.5t-9 8.5l-16 8q-16 9 -19 16t-3 22v100zM260 663h120q20 0 27 -7t7 -24v-68q0 -30 -3.5 -54t-17 -48t-39 -52t-69.5 -67l-51 38l69 115q5 9 4 12.5t-9 8.5l-16 8
q-16 9 -19 16t-3 22v100z" />
    <glyph glyph-name="quoteleft" unicode="&#x2018;" horiz-adv-x="236" 
d="M188 363h-120q-20 0 -27 7t-7 24v68q0 30 3.5 53.5t17 47.5t39 52.5t69.5 67.5l51 -38l-69 -115q-5 -9 -4 -12.5t9 -8.5l16 -8q16 -9 19 -16t3 -22v-100z" />
    <glyph glyph-name="quoteright" unicode="&#x2019;" horiz-adv-x="236" 
d="M48 663h120q20 0 27 -7t7 -24v-68q0 -30 -3.5 -54t-17 -48t-39 -52t-69.5 -67l-51 38l69 115q5 9 4 12.5t-9 8.5l-16 8q-16 9 -19 16t-3 22v100z" />
    <glyph glyph-name="guillemotleft" unicode="&#xab;" horiz-adv-x="654" 
d="M37 280l231 184l63 -63l-139 -156v-2l139 -155l-63 -64l-220 175q-5 4 -8 9t-3 14v58zM320 280l231 184l63 -63l-139 -156v-2l139 -155l-63 -64l-220 175q-5 4 -8 9t-3 14v58z" />
    <glyph glyph-name="guillemotright" unicode="&#xbb;" horiz-adv-x="654" 
d="M617 208l-231 -184l-63 63l139 156v2l-139 155l63 64l220 -175q5 -4 8 -9t3 -14v-58zM334 208l-231 -184l-63 63l139 156v2l-139 155l63 64l220 -175q5 -4 8 -9t3 -14v-58z" />
    <glyph glyph-name="guilsinglleft" unicode="&#x2039;" horiz-adv-x="371" 
d="M37 280l231 184l63 -63l-139 -156v-2l139 -155l-63 -64l-220 175q-5 4 -8 9t-3 14v58z" />
    <glyph glyph-name="guilsinglright" unicode="&#x203a;" horiz-adv-x="371" 
d="M334 208l-231 -184l-63 63l139 156v2l-139 155l63 64l220 -175q5 -4 8 -9t3 -14v-58z" />
    <glyph glyph-name="quotesinglbase" unicode="&#x201a;" horiz-adv-x="246" 
d="M46 61h120q20 0 27 -7t7 -24v-68q0 -30 -3.5 -54t-17 -48t-39 -52t-69.5 -67l-51 38l69 115q5 9 4 12.5t-9 8.5l-16 8q-16 9 -19 16t-3 22v100z" />
    <glyph glyph-name="quotedblbase" unicode="&#x201e;" horiz-adv-x="458" 
d="M46 61h120q20 0 27 -7t7 -24v-68q0 -30 -3.5 -54t-17 -48t-39 -52t-69.5 -67l-51 38l69 115q5 9 4 12.5t-9 8.5l-16 8q-16 9 -19 16t-3 22v100zM258 61h120q20 0 27 -7t7 -24v-68q0 -30 -3.5 -54t-17 -48t-39 -52t-69.5 -67l-51 38l69 115q5 9 4 12.5t-9 8.5l-16 8
q-16 9 -19 16t-3 22v100z" />
    <glyph glyph-name="ordfeminine" unicode="&#xaa;" horiz-adv-x="495" 
d="M281 508q0 30 -11 42q-8 9 -23 13t-33 4q-34 0 -86 -15l-39 -11l-34 68q41 29 86.5 46.5t90.5 17.5t77 -11t53 -32q41 -41 41 -121v-143l46 -12v-66q-16 -11 -34.5 -16.5t-34.5 -5.5q-24 0 -42 8t-38 23q-29 -18 -58.5 -28t-55.5 -10q-33 0 -59.5 10t-46 27.5t-30 41.5
t-10.5 51q0 54 37.5 82.5t99.5 28.5h5q25 0 53 -4t46 -9v21zM281 412q0 7 -7 7h-97q-12 0 -17 -8q-3 -6 -3 -14q0 -18 13 -28.5t40 -10.5q15 0 33 4t30 10q8 4 8 13v27z" />
    <glyph glyph-name="ordmasculine" unicode="&#xba;" horiz-adv-x="496" 
d="M455 467q0 -48 -16.5 -86.5t-44.5 -65t-65.5 -40.5t-80.5 -14t-80.5 14t-65.5 40.5t-44.5 65t-16.5 86.5t16.5 86.5t44.5 65t65.5 40.5t80.5 14t80.5 -14t65.5 -40.5t44.5 -65t16.5 -86.5zM328 467q0 43 -19 66t-61 23t-61 -23t-19 -66t19 -66t61 -23t61 23t19 66z" />
    <glyph glyph-name="arrowleft" unicode="&#x2190;" horiz-adv-x="795" 
d="M268 491l62 -62l-104 -127h514v-117h-517l107 -131l-62 -62l-214 214v56q0 9 2 14t9 12z" />
    <glyph glyph-name="arrowup" unicode="&#x2191;" horiz-adv-x="795" 
d="M443 576l204 -203l-62 -62l-124 104v-515h-123v518l-128 -107l-62 61l214 215h56q9 0 13.5 -2t11.5 -9z" />
    <glyph glyph-name="arrowright" unicode="&#x2192;" horiz-adv-x="795" 
d="M729 199l-203 -203l-62 62l104 127h-514v117h517l-107 131l62 62l214 -214v-56q0 -9 -2 -14t-9 -12z" />
    <glyph glyph-name="arrowdown" unicode="&#x2193;" horiz-adv-x="795" 
d="M351 -89l-203 203l62 62l124 -104v515h122v-517l129 106l62 -61l-214 -215h-56q-8 0 -13.5 2t-12.5 9z" />
    <glyph glyph-name="uni2196" unicode="&#x2196;" horiz-adv-x="795" 
d="M185 511h287v-87l-159 -17l361 -361l-86 -87l-364 364l-17 -165h-87v303l40 41q8 7 13.5 8t11.5 1z" />
    <glyph glyph-name="uni2197" unicode="&#x2197;" horiz-adv-x="795" 
d="M674 449v-291h-87l-17 165l-364 -365l-86 87l362 362l-160 17v87h302l41 -40q5 -6 7 -10t2 -12z" />
    <glyph glyph-name="uni2198" unicode="&#x2198;" horiz-adv-x="795" 
d="M612 -42h-291v87l164 17l-364 364l87 86l362 -362l16 160h88v-302l-41 -41q-5 -5 -9 -7t-12 -2z" />
    <glyph glyph-name="uni2199" unicode="&#x2199;" horiz-adv-x="795" 
d="M120 20v291h88l16 -164l364 364l86 -87l-362 -362l160 -16v-88h-302l-41 41q-5 5 -7 9t-2 12z" />
    <glyph glyph-name="zero" unicode="0" 
d="M332 136q32 0 56.5 10t40.5 32.5t24 59t8 90.5v7q0 53 -8 90t-24 59.5t-40.5 32.5t-56.5 10t-56.5 -10t-40.5 -32.5t-24 -59.5t-8 -90v-7q0 -54 8 -90.5t24 -59t40.5 -32.5t56.5 -10zM332 -10q-66 0 -119 22.5t-90.5 65.5t-58 106t-20.5 144v7q0 81 20.5 144t58 106
t90.5 65.5t119 22.5t119 -22.5t90.5 -65.5t58 -106t20.5 -144v-7q0 -81 -20.5 -144t-58 -106t-90.5 -65.5t-119 -22.5z" />
    <glyph glyph-name="one" unicode="1" 
d="M121 127h167v374q-14 -7 -28.5 -12.5t-46.5 -15.5l-81 -24l-44 107l221 96q15 7 24.5 9t26.5 2h81v-536h136v-127h-456v127z" />
    <glyph glyph-name="two" unicode="2" 
d="M577 127v-127h-493v79q0 14 3 21t15 20l205 200q50 48 72 79.5t22 61.5q0 73 -88 73q-41 0 -115 -25l-79 -27l-50 89q53 46 119.5 74t136.5 28q49 0 92 -13.5t74.5 -39.5t50 -64t18.5 -87q0 -35 -9.5 -64.5t-31.5 -59.5t-56.5 -62.5t-83.5 -73.5l-100 -82h298z" />
    <glyph glyph-name="three" unicode="3" 
d="M385 393q17 0 25 10q8 11 11.5 25.5t3.5 31.5q0 33 -23.5 53.5t-69.5 20.5q-24 0 -54.5 -4.5t-68.5 -17.5l-81 -27l-46 95q60 45 126 69t132 24q50 0 93 -12.5t74.5 -36t49 -57.5t17.5 -78q0 -41 -18.5 -76.5t-50.5 -64.5q48 -23 69.5 -61t21.5 -83q0 -47 -17.5 -86
t-50.5 -67.5t-80.5 -44.5t-107.5 -16q-85 0 -158 29.5t-126 80.5l49 88l75 -27q45 -16 81 -24.5t71 -8.5q48 0 76.5 20t28.5 62q0 35 -15.5 48.5t-57.5 13.5h-89q-11 0 -15.5 3t-4.5 13v105h130z" />
    <glyph glyph-name="four" unicode="4" 
d="M378 142h-338v106q0 14 3 21.5t13 20.5l280 351q11 13 18 17.5t22 4.5h155v-397h85v-124h-85v-142h-153v142zM378 266v241q-9 -14 -23 -32.5t-25 -32.5l-89 -112q-14 -17 -27.5 -33.5t-26.5 -30.5h191z" />
    <glyph glyph-name="five" unicode="5" 
d="M236 479q0 -24 -1 -45t-3 -35q29 12 63 19t67 7q49 0 90.5 -14t71 -40.5t46 -64.5t16.5 -85q0 -49 -17.5 -91t-50.5 -73t-81 -49t-109 -18q-36 0 -72.5 7.5t-72 21.5t-67.5 32.5t-57 41.5l49 89l79 -26q42 -14 73 -21t60 -7q51 0 80 23.5t29 70.5q0 45 -30 63.5t-76 18.5
q-26 0 -60 -5.5t-60 -16.5q-17 -8 -36 3l-54 31q-8 5 -11 9t-3 15v323h440v-131h-303v-53z" />
    <glyph glyph-name="six" unicode="6" 
d="M489 526q-27 7 -51.5 10.5t-48.5 3.5q-78 0 -117.5 -36.5t-50.5 -119.5l19 9q39 19 76.5 27t70.5 8q46 0 85.5 -13.5t69 -40t46.5 -64.5t17 -87q0 -50 -18.5 -92.5t-52.5 -74t-80.5 -49t-102.5 -17.5q-71 0 -125 25t-90.5 68t-55 101t-18.5 124v5q0 89 25 156.5t68 112.5
t99 68t118 23q50 0 98.5 -14t94.5 -44l-38 -98zM239 286q-14 -7 -16.5 -10.5t-2.5 -10.5q0 -32 10.5 -58t28 -44.5t41 -28.5t49.5 -10q50 0 79 28.5t29 70.5q0 43 -28 64.5t-77 21.5q-30 0 -61.5 -7t-51.5 -16z" />
    <glyph glyph-name="seven" unicode="7" 
d="M182 0q1 47 5.5 86t14 75t26 72t42.5 78q39 63 66.5 103.5t45.5 65t28 36t15 16.5h-357v131h528v-57q0 -17 -1 -27.5t-3 -18.5t-6 -15.5t-11 -18.5l-134 -208q-33 -50 -52 -92.5t-29.5 -80t-14.5 -73t-7 -72.5h-156z" />
    <glyph glyph-name="eight" unicode="8" 
d="M52 203q0 27 8.5 49.5t22.5 41t32.5 33t38.5 25.5q-32 22 -53.5 55t-21.5 79q0 40 18.5 74.5t51.5 59.5t79.5 39t102.5 14q61 0 109 -15.5t80.5 -41t49.5 -58.5t17 -69q0 -77 -75 -140q51 -24 75.5 -61t24.5 -83q0 -44 -20 -83t-56 -68.5t-87 -46.5t-114 -17
q-62 0 -114 15.5t-89.5 43t-58.5 67t-21 87.5zM224 485q0 -27 26 -40.5t75 -29.5l61 -21q14 -5 19 -2.5t11 8.5q12 12 22 30t10 35q0 36 -34 58t-88 22q-42 0 -72 -15t-30 -45zM200 219q0 -41 35.5 -68.5t98.5 -27.5q27 0 49.5 6t39.5 17t26.5 25t9.5 31q0 11 -5 19
t-17.5 15.5t-33 15t-51.5 18.5l-84 29q-14 5 -19.5 3t-13.5 -10q-15 -14 -25 -32.5t-10 -40.5z" />
    <glyph glyph-name="nine" unicode="9" 
d="M178 140q67 -16 114 -16q75 0 111 35.5t38 119.5l-18 -9q-74 -36 -146 -36q-48 0 -88.5 14.5t-70.5 41.5t-46.5 65.5t-16.5 86.5q0 50 19.5 92.5t53.5 73t81 48t102 17.5q71 0 125 -25t90.5 -68t55 -101t18.5 -125v-5q0 -78 -17 -143.5t-52.5 -113.5t-90 -75t-129.5 -27
q-57 0 -112.5 16.5t-100.5 48.5l37 95zM442 397q0 69 -38 105.5t-92 36.5q-49 0 -78.5 -26t-29.5 -70q0 -48 31 -68.5t76 -20.5q26 0 54.5 5.5t57.5 16.5q14 5 16.5 9.5t2.5 11.5z" />
    <glyph glyph-name="dollar" unicode="$" 
d="M189 152q53 -12 90.5 -18t70.5 -6q53 0 81 18.5t28 50.5q0 12 -4 21.5t-14.5 18t-29 16t-47.5 15.5l-67 19q-51 15 -91 32.5t-67.5 41t-42 54t-14.5 71.5t15 73t42 54.5t63.5 36.5t80.5 19l15 124h97v-123q48 -5 93.5 -16t86.5 -30l-24 -106l-61 7q-38 5 -76.5 7.5
t-64.5 2.5q-62 0 -90.5 -11.5t-28.5 -37.5q0 -23 24.5 -35.5t73.5 -26.5l68 -19q61 -17 102 -36t65.5 -42.5t34.5 -53t10 -67.5q0 -47 -15.5 -84.5t-43.5 -64.5t-67 -43t-87 -21l-15 -124h-97v126q-58 8 -113.5 27.5t-97.5 45.5l39 102z" />
    <glyph glyph-name="cent" unicode="&#xa2;" 
d="M575 91q-31 -31 -74.5 -56.5t-94.5 -36.5l-15 -129h-89v127q-46 7 -83.5 27.5t-63.5 53t-40.5 75.5t-14.5 94t16 93.5t43.5 74.5t64.5 52t78 26l15 137h89v-141q63 -17 104.5 -60.5t56.5 -103.5l-95 -46l-43 41q-29 29 -47.5 39t-43.5 10q-36 0 -62.5 -30t-26.5 -90
q0 -66 29 -96.5t85 -30.5q44 0 104 24l62 24z" />
    <glyph glyph-name="Euro" unicode="&#x20ac;" 
d="M267 231q12 -53 49 -75.5t85 -22.5q29 0 61 8.5t64 24.5l56 28l57 -78q-22 -29 -52 -52t-64 -39.5t-70.5 -25.5t-70.5 -9q-109 0 -183 63t-94 178h-75v59l66 14q-1 7 -1 12.5v13.5v20h-65v59l74 16q11 58 36.5 104.5t62 78t83 48.5t99.5 17q82 0 145.5 -42t99.5 -120
l-91 -62l-67 51q-26 20 -45.5 27.5t-45.5 7.5q-40 0 -72.5 -26t-46.5 -83h175v-76h-184v-21v-10t1 -12h183v-76h-170z" />
    <glyph glyph-name="florin" unicode="&#x192;" 
d="M125 232v83l121 23v141q0 96 51 145t148 49q39 0 75 -10t68 -27l-25 -86l-36 4q-16 2 -32.5 3t-30.5 1q-35 0 -55.5 -15t-20.5 -59v-143h152v-109h-152v-277q0 -96 -51 -145t-148 -49q-39 0 -75 10t-68 27l25 86l36 -4q16 -2 32.5 -3t30.5 -1q35 0 55.5 15t20.5 59v282
h-121z" />
    <glyph glyph-name="sterling" unicode="&#xa3;" 
d="M303 272q4 -14 6 -26t2 -24q0 -23 -12.5 -45.5t-41.5 -49.5h349v-127h-511v76q0 12 3 20t13 19q29 33 41.5 53.5t12.5 40.5q0 11 -3.5 27t-9.5 36h-93v69l66 21q-17 53 -17 97q0 47 17.5 86.5t49 68t76.5 44t100 15.5q46 0 86 -13t73 -36t58 -53.5t41 -64.5l-89 -61
l-62 46q-30 23 -57 33t-54 10q-44 0 -67.5 -20.5t-23.5 -58.5q0 -16 3 -35t11 -41h190v-107h-157z" />
    <glyph glyph-name="yen" unicode="&#xa5;" 
d="M478 648q5 9 10 12t13 3h155l-198 -364h93v-91h-139v-31h139v-91h-139v-86h-156v86h-138v91h138v31h-138v91h90l-199 364h162q10 0 14 -3t8 -10l63 -124q29 -56 49 -102t31 -75q7 17 16.5 39.5t20 46.5t22 48.5t22.5 45.5z" />
    <glyph glyph-name="numbersign" unicode="#" 
d="M224 0h-117l31 179h-79v106h98l16 92h-114v106h133l32 180h117l-32 -180h99l32 180h117l-32 -180h79v-106h-98l-16 -92h114v-106h-133l-31 -179h-117l31 179h-99zM274 285h99l16 92h-99z" />
    <glyph glyph-name="percent" unicode="%" horiz-adv-x="970" 
d="M225 323q-37 0 -70 12.5t-57.5 36t-39 55.5t-14.5 71t14.5 71t39 55.5t57.5 36t70 12.5t70 -12.5t57.5 -36t39 -55.5t14.5 -71t-14.5 -71t-39 -55.5t-57.5 -36t-70 -12.5zM225 567q-33 0 -50.5 -18t-17.5 -51t17.5 -51t50.5 -18t50.5 18t17.5 51t-17.5 51t-50.5 18z
M745 -10q-37 0 -70 12.5t-57.5 36t-39 55.5t-14.5 71t14.5 71t39 55.5t57.5 36t70 12.5t70 -12.5t57.5 -36t39 -55.5t14.5 -71t-14.5 -71t-39 -55.5t-57.5 -36t-70 -12.5zM745 234q-33 0 -50.5 -18t-17.5 -51t17.5 -51t50.5 -18t50.5 18t17.5 51t-17.5 51t-50.5 18zM254 0
l327 663h136l-327 -663h-136z" />
    <glyph glyph-name="perthousand" unicode="&#x2030;" horiz-adv-x="1372" 
d="M225 323q-37 0 -70 12.5t-57.5 36t-39 55.5t-14.5 71t14.5 71t39 55.5t57.5 36t70 12.5t70 -12.5t57.5 -36t39 -55.5t14.5 -71t-14.5 -71t-39 -55.5t-57.5 -36t-70 -12.5zM225 567q-33 0 -50.5 -18t-17.5 -51t17.5 -51t50.5 -18t50.5 18t17.5 51t-17.5 51t-50.5 18z
M745 -10q-37 0 -70 12.5t-57.5 36t-39 55.5t-14.5 71t14.5 71t39 55.5t57.5 36t70 12.5t70 -12.5t57.5 -36t39 -55.5t14.5 -71t-14.5 -71t-39 -55.5t-57.5 -36t-70 -12.5zM745 234q-33 0 -50.5 -18t-17.5 -51t17.5 -51t50.5 -18t50.5 18t17.5 51t-17.5 51t-50.5 18z
M1147 -10q-37 0 -70 12.5t-57.5 36t-39 55.5t-14.5 71t14.5 71t39 55.5t57.5 36t70 12.5t70 -12.5t57.5 -36t39 -55.5t14.5 -71t-14.5 -71t-39 -55.5t-57.5 -36t-70 -12.5zM1147 234q-33 0 -50.5 -18t-17.5 -51t17.5 -51t50.5 -18t50.5 18t17.5 51t-17.5 51t-50.5 18zM254 0
l327 663h136l-327 -663h-136z" />
    <glyph glyph-name="plus" unicode="+" horiz-adv-x="566" 
d="M221 457h123v-149h150v-123h-150v-151h-123v151h-150v123h150v149z" />
    <glyph glyph-name="minus" unicode="&#x2212;" horiz-adv-x="566" 
d="M71 185v123h423v-123h-423z" />
    <glyph glyph-name="multiply" unicode="&#xd7;" horiz-adv-x="566" 
d="M89 351l87 88l106 -106l106 107l88 -88l-107 -106l108 -107l-88 -87l-107 107l-106 -106l-87 87l106 106z" />
    <glyph glyph-name="less" unicode="&#x3c;" horiz-adv-x="566" 
d="M495 480v-142l-238 -93v-2l238 -89v-142l-424 182v103z" />
    <glyph glyph-name="divide" unicode="&#xf7;" horiz-adv-x="566" 
d="M71 195v123h423v-123h-423zM324 500q17 0 22.5 -5.5t5.5 -20.5v-109h-139v135h111zM324 148q17 0 22.5 -5.5t5.5 -20.5v-109h-139v135h111z" />
    <glyph glyph-name="equal" unicode="=" horiz-adv-x="566" 
d="M71 287v123h423v-123h-423zM71 83v123h423v-123h-423z" />
    <glyph glyph-name="logicalnot" unicode="&#xac;" horiz-adv-x="566" 
d="M494 83h-123v204h-300v123h423v-327z" />
    <glyph glyph-name="greater" unicode="&#x3e;" horiz-adv-x="566" 
d="M495 297v-103l-424 -182v142l238 89v2l-238 93v142z" />
    <glyph glyph-name="notequal" unicode="&#x2260;" horiz-adv-x="566" 
d="M345 287l-32 -81h181v-123h-229l-36 -91l-83 29l24 62h-99v123h148l32 81h-180v123h228l39 97l83 -29l-27 -68h100v-123h-149z" />
    <glyph glyph-name="approxequal" unicode="&#x2248;" horiz-adv-x="566" 
d="M360 285q-24 0 -45.5 7.5t-41.5 17t-38.5 17t-35.5 7.5q-19 0 -32.5 -12t-25.5 -37l-84 29q4 30 17.5 55.5t33 45t44.5 30.5t53 11q25 0 48 -7.5t43.5 -16.5t38.5 -16.5t33 -7.5q33 0 57 48l84 -28q-5 -30 -18 -56t-32.5 -45.5t-45 -30.5t-53.5 -11zM360 48
q-24 0 -45.5 7.5t-41.5 17t-38.5 17t-35.5 7.5q-19 0 -32.5 -12t-25.5 -37l-84 29q4 30 17.5 55.5t33 45t44.5 30.5t53 11q25 0 48 -7.5t43.5 -16.5t38.5 -16.5t33 -7.5q33 0 57 48l84 -28q-5 -30 -18 -56t-32.5 -45.5t-45 -30.5t-53.5 -11z" />
    <glyph glyph-name="plusminus" unicode="&#xb1;" horiz-adv-x="566" 
d="M221 553h123v-122h150v-123h-150v-122h-123v122h-150v123h150v122zM71 0v123h423v-123h-423z" />
    <glyph glyph-name="lessequal" unicode="&#x2264;" horiz-adv-x="566" 
d="M71 0v123h423v-123h-423zM494 567v-132l-225 -66v-2l225 -65v-132l-423 147v103z" />
    <glyph glyph-name="greaterequal" unicode="&#x2265;" horiz-adv-x="566" 
d="M71 0v123h423v-123h-423zM494 420v-103l-423 -147v132l225 65v2l-225 66v132z" />
    <glyph glyph-name="asciicircum" unicode="^" horiz-adv-x="566" 
d="M512 443l-106 -71l-122 155h-2l-122 -155l-106 71l179 230h100z" />
    <glyph glyph-name="asciitilde" unicode="~" horiz-adv-x="566" 
d="M360 278q-24 0 -45.5 7.5t-41.5 17t-38.5 17t-35.5 7.5q-19 0 -32.5 -12t-25.5 -37l-84 29q4 30 17.5 55.5t33 45t44.5 30.5t53 11q25 0 48 -7.5t43.5 -16.5t38.5 -16.5t33 -7.5q33 0 57 48l84 -28q-5 -30 -18 -56t-32.5 -45.5t-45 -30.5t-53.5 -11z" />
    <glyph glyph-name="lozenge" unicode="&#x25ca;" horiz-adv-x="660" 
d="M395 663q11 0 15.5 -2.5t8.5 -8.5l174 -279q9 -14 12.5 -23.5t3.5 -18.5t-3 -17.5t-13 -23.5l-183 -290h-143q-11 0 -15.5 2.5t-8.5 8.5l-176 279q-9 14 -12.5 23.5t-3.5 18.5t3 17.5t13 23.5l183 290h145zM202 332l128 -206l128 205l-128 206z" />
    <glyph glyph-name="degree" unicode="&#xb0;" horiz-adv-x="460" 
d="M230 427q67 0 67 68t-67 68t-67 -68t67 -68zM230 317q-35 0 -67.5 12t-58 34.5t-41 56t-15.5 75.5t15.5 75.5t41 56t58 34.5t67.5 12t67.5 -12t58 -34.5t41 -56t15.5 -75.5t-15.5 -75.5t-41 -56t-58 -34.5t-67.5 -12z" />
    <glyph glyph-name="quotesingle" unicode="'" horiz-adv-x="257" 
d="M205 605q0 -28 -2.5 -57.5t-8.5 -73.5l-17 -118h-97l-17 118q-6 44 -8.5 73.5t-2.5 57.5v58h153v-58z" />
    <glyph glyph-name="quotedbl" unicode="&#x22;" horiz-adv-x="463" 
d="M205 605q0 -28 -2.5 -57.5t-8.5 -73.5l-17 -118h-97l-17 118q-6 44 -8.5 73.5t-2.5 57.5v58h153v-58zM411 605q0 -28 -2.5 -57.5t-8.5 -73.5l-17 -118h-97l-17 118q-6 44 -8.5 73.5t-2.5 57.5v58h153v-58z" />
    <glyph glyph-name="radical" unicode="&#x221a;" horiz-adv-x="773" 
d="M66 488h187q10 0 13.5 -2.5t7.5 -12.5l59 -143q22 -54 38.5 -101t26.5 -82q4 18 13 44.5t20 58t23.5 65.5t25.5 67l155 396q4 10 7.5 12.5t14.5 2.5h138l-323 -793h-138q-10 0 -14 3t-7 9l-154 360h-93v116z" />
    <glyph glyph-name="currency" unicode="&#xa4;" 
d="M333 242q39 0 60 21.5t21 67.5t-21 67.5t-60 21.5h-2q-39 0 -60 -21.5t-21 -67.5t21 -67.5t60 -21.5h2zM331 125q-26 0 -50.5 5.5t-47.5 16.5l-77 -77l-91 91l76 75q-22 40 -22 95t22 95l-76 75l91 91l77 -77q23 11 47.5 16.5t50.5 5.5h2q26 0 50.5 -5.5t47.5 -16.5
l77 77l91 -91l-76 -75q22 -40 22 -95t-22 -95l76 -75l-91 -91l-77 77q-23 -11 -47.5 -16.5t-50.5 -5.5h-2z" />
    <glyph glyph-name="infinity" unicode="&#x221e;" horiz-adv-x="753" 
d="M237 250q16 0 28.5 8t21.5 22t16 32.5t14 39.5q2 5 2 7.5v4.5q0 7 -5 15q-14 19 -32 28.5t-35 9.5q-27 0 -47 -20.5t-20 -65.5q0 -33 14 -57t43 -24zM364 461q26 35 62 55.5t87 20.5q43 0 77.5 -16t59.5 -44t38.5 -66t13.5 -82q0 -42 -13.5 -79.5t-37.5 -65.5t-57.5 -44
t-73.5 -16q-42 0 -73.5 20.5t-57.5 55.5q-26 -35 -62 -55.5t-87 -20.5q-43 0 -78 16t-59.5 44t-38 66t-13.5 82q0 42 13.5 79.5t37.5 65.5t57.5 44t73.5 16q42 0 73.5 -20.5t57.5 -55.5zM516 411q-17 0 -29 -8t-21 -22t-16 -32.5t-14 -39.5q-2 -5 -2 -7.5v-4.5q0 -7 5 -15
q14 -19 32 -28.5t35 -9.5q27 0 47 20.5t20 65.5q0 33 -14 57t-43 24z" />
    <glyph glyph-name="mu" unicode="&#xb5;" horiz-adv-x="570" 
d="M55 -229v717h146v-296q0 -32 14 -46q17 -18 66 -18q22 0 43.5 3.5t35.5 8.5q7 3 8 7t1 10v331h146v-488h-112l-17 44l-26 -15q-31 -17 -58.5 -27t-59.5 -10q-11 0 -21 1t-20 3v-225h-146z" />
    <glyph glyph-name="partialdiff" unicode="&#x2202;" horiz-adv-x="666" 
d="M101 615q36 26 86 42t104 16q69 0 126.5 -25.5t99 -72.5t64.5 -113.5t23 -148.5v-5q0 -66 -18.5 -124t-55.5 -101t-91 -68t-124 -25q-56 0 -103 17.5t-81 48.5t-53 74t-19 93q0 49 17 87.5t47 64.5t70.5 39.5t86.5 13.5q70 0 146 -35l15 -7q-13 148 -164 148
q-45 0 -100 -12l-37 -8zM212 223q0 -42 27.5 -69t76.5 -27q57 0 89 36t37 99q1 9 -3 13t-12 8q-20 9 -52 16t-61 7q-48 0 -75 -20t-27 -63z" />
    <glyph glyph-name="summation" unicode="&#x2211;" horiz-adv-x="661" 
d="M45 663h570v-131h-368l259 -285v-48l-262 -297h379v-131h-578v85q0 14 2.5 21t12.5 19l283 329l-282 312q-9 11 -12.5 18.5t-3.5 22.5v85z" />
    <glyph glyph-name="product" unicode="&#x220f;" horiz-adv-x="811" 
d="M309 532v-761h-156v761h-120v131h745v-131h-120v-761h-156v761h-193z" />
    <glyph glyph-name="pi" unicode="&#x3c0;" horiz-adv-x="666" 
d="M624 96v-75q-20 -10 -48 -16.5t-52 -6.5q-68 0 -95.5 40.5t-27.5 109.5v227h-155v-375h-146v375h-80v113h606v-113h-79v-260z" />
    <glyph glyph-name="integral" unicode="&#x222b;" horiz-adv-x="670" 
d="M172 475q0 48 16 85t44.5 62t67.5 38t85 13q45 0 79.5 -10t68.5 -28l-27 -90q-26 5 -51 7.5t-43 2.5q-44 0 -66 -20.5t-22 -57.5q0 -34 13 -74.5t32 -85t42 -91.5t42 -94t32 -92t13 -85q0 -48 -16 -85t-44.5 -62t-67.5 -38t-85 -13q-45 0 -79.5 10t-68.5 28l27 90
q26 -5 51 -7.5t43 -2.5q44 0 66 20.5t22 57.5q0 34 -13 75t-32 85.5t-42 91.5t-42 93.5t-32 91.5t-13 85z" />
    <glyph glyph-name="Omega" unicode="&#x3a9;" horiz-adv-x="758" 
d="M379 524q-35 0 -65.5 -8.5t-53.5 -26.5t-36 -45.5t-13 -65.5q0 -48 18 -92.5t51 -100.5l51 -86q8 -13 10 -20t2 -18v-61h-283v124h118q-66 64 -97 134.5t-31 132.5q0 63 25 115t69 89t104 57.5t131 20.5q70 0 130.5 -20.5t104.5 -57.5t69 -89t25 -115q0 -62 -31.5 -133
t-96.5 -134h118v-124h-283v61q0 11 2 18t10 20l51 86q33 56 51 100.5t18 92.5q0 39 -13 66.5t-36 45t-53.5 26t-65.5 8.5z" />
    <glyph glyph-name="Omega" unicode="&#x2126;" horiz-adv-x="758" 
d="M379 524q-35 0 -65.5 -8.5t-53.5 -26.5t-36 -45.5t-13 -65.5q0 -48 18 -92.5t51 -100.5l51 -86q8 -13 10 -20t2 -18v-61h-283v124h118q-66 64 -97 134.5t-31 132.5q0 63 25 115t69 89t104 57.5t131 20.5q70 0 130.5 -20.5t104.5 -57.5t69 -89t25 -115q0 -62 -31.5 -133
t-96.5 -134h118v-124h-283v61q0 11 2 18t10 20l51 86q33 56 51 100.5t18 92.5q0 39 -13 66.5t-36 45t-53.5 26t-65.5 8.5z" />
    <glyph glyph-name="Delta" unicode="&#x2206;" horiz-adv-x="683" 
d="M421 129q15 0 32 -1t29 -3q-6 12 -16.5 37t-21.5 52l-37 95q-30 77 -47.5 125t-26.5 82q-8 -32 -25 -84.5t-43 -122.5l-41 -112q-8 -20 -16.5 -40.5t-13.5 -31.5q12 2 29 3t32 1h166zM649 0h-615v77q0 17 5.5 34t17.5 49l192 503h155q9 0 12.5 -2.5t7.5 -11.5l193 -469
q17 -42 24.5 -64.5t7.5 -38.5v-77z" />
    <glyph glyph-name="litre" unicode="&#x2113;" horiz-adv-x="289" 
d="M283 22q-20 -10 -49 -17.5t-55 -7.5q-58 0 -91 36q-16 17 -24 41t-8 57v578h146v-592l81 -19v-76z" />
    <glyph glyph-name="estimated" unicode="&#x212e;" horiz-adv-x="869" 
d="M199 323q-8 0 -8 -6v-187q0 -7 3 -11t9 -10q44 -45 104.5 -71.5t129.5 -26.5q74 0 136.5 30t107.5 80h56q-54 -60 -132 -95.5t-169 -35.5q-79 0 -149 26.5t-122 72.5t-82 108.5t-30 133.5t30 133.5t82 109t122 73t149 26.5q78 0 147 -26.5t120.5 -73t82 -109t30.5 -133.5
v-8h-617zM677 537q0 6 -3.5 11t-9.5 11q-42 44 -101.5 69t-125.5 25q-69 0 -129 -26t-105 -71q-6 -6 -9 -11t-3 -13v-185q0 -5 8 -5h470q8 0 8 5v190z" />
    <glyph glyph-name="numero" unicode="&#x2116;" horiz-adv-x="1134" 
d="M922 427q67 0 67 68t-67 68t-67 -68t67 -68zM922 317q-35 0 -67.5 12t-58 34.5t-41 56t-15.5 75.5t15.5 75.5t41 56t58 34.5t67.5 12t67.5 -12t58 -34.5t41 -56t15.5 -75.5t-15.5 -75.5t-41 -56t-58 -34.5t-67.5 -12zM563 0q-11 0 -16.5 2.5t-11.5 10.5l-220 275
q-33 42 -61.5 78.5t-41.5 55.5h-1v-422h-147v663h117q11 0 16 -2.5t12 -10.5l220 -275q33 -42 61.5 -79t41.5 -56v423h147v-663h-116z" />
    <glyph glyph-name="zero.otab" 
d="M332 496q52 0 98 -17t80.5 -49.5t54.5 -79.5t20 -106t-20 -106t-54.5 -79.5t-80.5 -49.5t-98 -17t-98 17t-80.5 49.5t-54.5 79.5t-20 106t20 106t54.5 79.5t80.5 49.5t98 17zM332 127q51 0 78 27.5t27 89.5t-27 89.5t-78 27.5t-78 -27.5t-27 -89.5t27 -89.5t78 -27.5z
" />
    <glyph glyph-name="one.otab" 
d="M136 115h158v230q-8 -6 -28 -14.5t-45 -15.5l-74 -21l-37 99l199 82q19 8 29 10.5t24 2.5h78v-373h125v-115h-429v115z" />
    <glyph glyph-name="two.otab" 
d="M96 408q56 40 119 64t126 24q47 0 85 -11.5t64.5 -32.5t41 -50t14.5 -63q0 -30 -9.5 -54.5t-30 -46.5t-53.5 -43.5t-80 -44.5l-70 -35h261v-115h-451v95q0 10 2.5 14.5t10.5 10.5l195 125q42 26 57 43t15 37t-17 31t-47 11q-26 0 -56.5 -7.5t-72.5 -21.5l-57 -19z" />
    <glyph glyph-name="three.otab" 
d="M362 212q18 0 26 10q10 13 16 29.5t6 33.5q0 81 -93 81q-29 0 -62 -7t-72 -21l-48 -17l-46 91q59 39 119 61.5t123 22.5q49 0 89.5 -13.5t69.5 -37.5t45 -57.5t16 -73.5q0 -42 -19.5 -77t-51.5 -64q49 -23 71.5 -62.5t22.5 -85.5q0 -45 -17.5 -83.5t-49.5 -66
t-77.5 -43.5t-101.5 -16q-73 0 -141.5 27t-119.5 69l45 84l48 -16q54 -18 92 -26.5t71 -8.5q54 0 78 26t24 64q0 29 -14 45q-11 11 -31.5 15.5t-61.5 4.5h-63q-10 0 -13 3t-3 8v101h123z" />
    <glyph glyph-name="four.otab" 
d="M373 4h-318v94q0 11 2.5 17t10.5 16l274 342q8 10 14 12.5t20 2.5h142v-369h90v-115h-90v-159h-145v159zM373 119v219q-7 -10 -20 -27t-27 -35l-82 -102q-11 -14 -25 -30t-24 -25h178z" />
    <glyph glyph-name="five.otab" 
d="M235 307q0 -24 -1.5 -47t-4.5 -41q32 14 66.5 21.5t66.5 7.5q43 0 82.5 -13.5t68.5 -39t46.5 -63.5t17.5 -87q0 -52 -18 -94t-50 -72t-78 -46.5t-101 -16.5q-35 0 -71 7.5t-70 21t-64.5 32.5t-54.5 41l46 82l67 -25q42 -16 72.5 -23.5t65.5 -7.5q55 0 81.5 27t26.5 75
q0 44 -30.5 67t-77.5 23q-24 0 -53.5 -6t-58.5 -19q-14 -7 -30 2l-60 33q-7 4 -9 7.5t-2 12.5v322h431v-116h-304v-65z" />
    <glyph glyph-name="six.otab" 
d="M454 221q0 49 -28 70t-79 21q-29 0 -61 -6.5t-53 -16.5q-12 -5 -15 -10.5t-3 -15.5q0 -28 8.5 -54t25.5 -46.5t42 -32.5t57 -12q54 0 80 30t26 73zM485 534q-54 12 -99 12q-75 0 -119.5 -41t-51.5 -126l21 10q39 19 74.5 28t72.5 9q48 0 87 -14.5t66.5 -41.5t43 -64.5
t15.5 -83.5q0 -49 -18.5 -91t-51.5 -73t-78.5 -48.5t-99.5 -17.5q-69 0 -121.5 25t-88 68t-53 100.5t-17.5 122.5v4q0 81 23.5 147t65 113.5t98 73t123.5 25.5q53 0 98.5 -16.5t80.5 -39.5l-36 -89z" />
    <glyph glyph-name="seven.otab" 
d="M185 -177q1 47 5.5 86.5t14.5 76t26 72.5t42 78q40 65 67 108t45 69.5t27.5 39t14.5 17.5h-356v118h518v-47q0 -18 -0.5 -28t-2 -17.5t-5 -14t-10.5 -17.5l-134 -221q-30 -50 -49 -92t-30 -80.5t-16 -74.5t-8 -73h-149z" />
    <glyph glyph-name="eight.otab" 
d="M64 202q0 53 29 90.5t71 60.5q-31 22 -52.5 54t-21.5 78q0 41 18 75t50.5 59t76.5 38.5t96 13.5q49 0 93 -12.5t77.5 -36.5t53.5 -58.5t20 -79.5q0 -38 -21 -73.5t-55 -61.5q43 -21 71.5 -54.5t28.5 -86.5q0 -47 -19.5 -86.5t-55 -68t-84 -45t-106.5 -16.5
q-60 0 -109.5 16t-85.5 44t-55.5 66.5t-19.5 83.5zM407 398q15 16 25.5 34t10.5 38q0 39 -33 60.5t-84 21.5q-45 0 -71.5 -16.5t-26.5 -45.5q0 -28 25.5 -43t68.5 -31l59 -22q10 -4 15 -3t11 7zM244 297q-17 -14 -28.5 -33.5t-11.5 -45.5q0 -45 35 -73t95 -28q56 0 88 24.5
t32 57.5q0 26 -27.5 40.5t-78.5 33.5l-77 28q-15 5 -27 -4z" />
    <glyph glyph-name="nine.otab" 
d="M446 224q0 28 -8.5 54t-25.5 46.5t-41.5 32.5t-57.5 12q-54 0 -80.5 -28t-26.5 -70q0 -49 28 -72.5t79 -23.5q26 0 59 6.5t55 16.5q12 5 15.5 10.5t3.5 15.5zM279 -58q157 0 166 166l-21 -10q-78 -37 -149 -37q-47 0 -85.5 15t-66 42t-43 65t-15.5 83q0 49 19 91t52 73
t78.5 48.5t98.5 17.5q69 0 122 -25t88 -68t53 -100.5t18 -122.5v-5q0 -80 -20.5 -146t-58.5 -113t-92.5 -73t-121.5 -26q-52 0 -102 17t-83 41l37 88l33 -8q26 -6 49 -9.5t44 -3.5z" />
    <glyph glyph-name="dollar.otab" 
d="M450 371q-36 4 -66 6t-50 2q-43 0 -62 -6t-19 -22q0 -13 14.5 -19t39.5 -11l68 -15q46 -10 78.5 -22t53 -29t29.5 -40.5t9 -55.5q0 -62 -37 -106.5t-117 -56.5l-15 -127h-96v127q-45 5 -88.5 18.5t-75.5 33.5l29 85l62 -10q45 -8 74.5 -11t54.5 -3q78 0 78 37
q0 14 -11.5 20t-40.5 13l-68 15q-38 8 -70 20t-54.5 29.5t-35 42t-12.5 59.5q0 63 43 100t115 47l15 127h96v-127q72 -9 132 -37l-22 -89z" />
    <glyph glyph-name="cent.otab" 
d="M530 77q-29 -30 -65 -49.5t-74 -28.5l-15 -130h-93v128q-35 6 -65.5 23t-54 44t-37 65t-13.5 88q0 44 13.5 81t36.5 64.5t54 46t66 25.5l15 131h93v-136q51 -16 85 -54.5t47 -89.5l-85 -42l-43 44q-16 16 -31.5 23.5t-35.5 7.5q-33 0 -57.5 -23.5t-24.5 -76.5
q0 -59 27.5 -81.5t71.5 -22.5q37 0 85 17l55 20z" />
    <glyph glyph-name="Euro.otab" 
d="M268 174q13 -32 38.5 -45t60.5 -13q22 0 45.5 5t58.5 17l71 24l45 -74q-20 -20 -46.5 -37t-56.5 -30.5t-62 -21t-63 -7.5q-94 0 -157.5 48t-83.5 134h-75v43l67 10v28h-67v43l74 11q14 60 49.5 101t81 62.5t96.5 23.5t97.5 -16.5t83.5 -57.5t54 -99q-23 -10 -45 -19.5
t-45 -20.5l-40 41q-47 48 -97 48q-32 0 -54 -16.5t-32 -45.5h122v-55h-130v-26h130v-55h-120z" />
    <glyph glyph-name="florin.otab" 
d="M254 113h-95v63l95 17v126q0 91 47 133.5t130 42.5q35 0 69 -8.5t63 -23.5l-22 -83q-22 3 -42.5 5t-37.5 2q-36 0 -53 -17t-17 -46v-129h121v-82h-121v-174q0 -91 -47 -133.5t-130 -42.5q-35 0 -69 8.5t-63 23.5l22 83q22 -3 42.5 -5t37.5 -2q36 0 53 17t17 46v179z" />
    <glyph glyph-name="sterling.otab" 
d="M460 336q-38 19 -67.5 27.5t-51.5 8.5q-38 0 -55 -16t-17 -39q0 -9 2 -19t6 -22h150v-74h-126q2 -8 3 -15t1 -13q0 -14 -7 -29t-24 -32h294v-113h-452v70q0 8 2 11.5t7 8.5l22 20q28 25 28 50q0 9 -2.5 19t-6.5 23h-83v54l61 15q-9 30 -9 59q0 40 15.5 71t43 52t65.5 32
t83 11q35 0 68.5 -8.5t63.5 -23.5t55 -36.5t43 -46.5l-60 -71z" />
    <glyph glyph-name="yen.otab" 
d="M133 83v61h131v22h-131v61h101l-168 261h144q8 0 11 -2t6 -7l110 -189l104 189q2 5 5.5 7t11.5 2h140q-41 -66 -81 -130.5t-80 -130.5h104v-61h-131v-22h131v-61h-131v-83h-146v83h-131z" />
    <glyph glyph-name="numbersign.otab" 
d="M142 0l20 116h-63v86h78l14 84h-92v86h107l21 116h105l-21 -116h86l21 116h105l-21 -116h62v-86h-77l-14 -84h91v-86h-106l-20 -116h-105l20 116h-86l-20 -116h-105zM282 202h86l14 84h-86z" />
    <glyph glyph-name="percent.otab" horiz-adv-x="841" 
d="M239 0l242 488h121l-242 -488h-121zM187 200q-30 0 -57.5 10.5t-49 30t-34 47t-12.5 60.5t12.5 60t34 46.5t49 30.5t57.5 11t57.5 -11t49 -30.5t34 -46.5t12.5 -60t-12.5 -60.5t-34 -47t-49 -30t-57.5 -10.5zM187 402q-23 0 -38.5 -13.5t-15.5 -40.5t15.5 -40.5
t38.5 -13.5t38.5 13.5t15.5 40.5t-15.5 40.5t-38.5 13.5zM654 -8q-30 0 -57.5 10.5t-49 30t-34 47t-12.5 60.5t12.5 60t34 46.5t49 30.5t57.5 11t57.5 -11t49 -30.5t34 -46.5t12.5 -60t-12.5 -60.5t-34 -47t-49 -30t-57.5 -10.5zM654 194q-23 0 -38.5 -13.5t-15.5 -40.5
t15.5 -40.5t38.5 -13.5t38.5 13.5t15.5 40.5t-15.5 40.5t-38.5 13.5z" />
    <glyph glyph-name="perthousand.otab" horiz-adv-x="1181" 
d="M239 0l242 488h121l-242 -488h-121zM187 200q-30 0 -57.5 10.5t-49 30t-34 47t-12.5 60.5t12.5 60t34 46.5t49 30.5t57.5 11t57.5 -11t49 -30.5t34 -46.5t12.5 -60t-12.5 -60.5t-34 -47t-49 -30t-57.5 -10.5zM187 402q-23 0 -38.5 -13.5t-15.5 -40.5t15.5 -40.5
t38.5 -13.5t38.5 13.5t15.5 40.5t-15.5 40.5t-38.5 13.5zM654 -8q-30 0 -57.5 10.5t-49 30t-34 47t-12.5 60.5t12.5 60t34 46.5t49 30.5t57.5 11t57.5 -11t49 -30.5t34 -46.5t12.5 -60t-12.5 -60.5t-34 -47t-49 -30t-57.5 -10.5zM654 194q-23 0 -38.5 -13.5t-15.5 -40.5
t15.5 -40.5t38.5 -13.5t38.5 13.5t15.5 40.5t-15.5 40.5t-38.5 13.5zM994 -8q-30 0 -57.5 10.5t-49 30t-34 47t-12.5 60.5t12.5 60t34 46.5t49 30.5t57.5 11t57.5 -11t49 -30.5t34 -46.5t12.5 -60t-12.5 -60.5t-34 -47t-49 -30t-57.5 -10.5zM994 194q-23 0 -38.5 -13.5
t-15.5 -40.5t15.5 -40.5t38.5 -13.5t38.5 13.5t15.5 40.5t-15.5 40.5t-38.5 13.5z" />
    <glyph glyph-name="zero.lprop" horiz-adv-x="676" 
d="M338 136q32 0 56.5 10t40.5 32.5t24 59t8 90.5v7q0 53 -8 90t-24 59.5t-40.5 32.5t-56.5 10t-56.5 -10t-40.5 -32.5t-24 -59.5t-8 -90v-7q0 -54 8 -90.5t24 -59t40.5 -32.5t56.5 -10zM338 -10q-66 0 -119 22.5t-90.5 65.5t-58 106t-20.5 144v7q0 81 20.5 144t58 106
t90.5 65.5t119 22.5t119 -22.5t90.5 -65.5t58 -106t20.5 -144v-7q0 -81 -20.5 -144t-58 -106t-90.5 -65.5t-119 -22.5z" />
    <glyph glyph-name="one.lprop" horiz-adv-x="553" 
d="M63 127h167v374q-14 -7 -28.5 -12.5t-46.5 -15.5l-81 -24l-44 107l221 96q15 7 24.5 9t26.5 2h81v-536h136v-127h-456v127z" />
    <glyph glyph-name="two.lprop" horiz-adv-x="586" 
d="M542 127v-127h-493v79q0 14 3 21t15 20l205 200q50 48 72 79.5t22 61.5q0 73 -88 73q-41 0 -115 -25l-79 -27l-50 89q53 46 119.5 74t136.5 28q49 0 92 -13.5t74.5 -39.5t50 -64t18.5 -87q0 -35 -9.5 -64.5t-31.5 -59.5t-56.5 -62.5t-83.5 -73.5l-100 -82h298z" />
    <glyph glyph-name="three.lprop" horiz-adv-x="616" 
d="M359 393q17 0 25 10q8 11 11.5 25.5t3.5 31.5q0 33 -23.5 53.5t-69.5 20.5q-24 0 -54.5 -4.5t-68.5 -17.5l-81 -27l-46 95q60 45 126 69t132 24q50 0 93 -12.5t74.5 -36t49 -57.5t17.5 -78q0 -41 -18.5 -76.5t-50.5 -64.5q48 -23 69.5 -61t21.5 -83q0 -47 -17.5 -86
t-50.5 -67.5t-80.5 -44.5t-107.5 -16q-85 0 -158 29.5t-126 80.5l49 88l75 -27q45 -16 81 -24.5t71 -8.5q48 0 76.5 20t28.5 62q0 35 -15.5 48.5t-57.5 13.5h-89q-11 0 -15.5 3t-4.5 13v105h130z" />
    <glyph glyph-name="four.lprop" horiz-adv-x="651" 
d="M374 142h-338v106q0 14 3 21.5t13 20.5l280 351q11 13 18 17.5t22 4.5h155v-397h85v-124h-85v-142h-153v142zM374 266v241q-9 -14 -23 -32.5t-25 -32.5l-89 -112q-14 -17 -27.5 -33.5t-26.5 -30.5h191z" />
    <glyph glyph-name="five.lprop" horiz-adv-x="601" 
d="M209 479q0 -24 -1 -45t-3 -35q29 12 63 19t67 7q49 0 90.5 -14t71 -40.5t46 -64.5t16.5 -85q0 -49 -17.5 -91t-50.5 -73t-81 -49t-109 -18q-36 0 -72.5 7.5t-72 21.5t-67.5 32.5t-57 41.5l49 89l79 -26q42 -14 73 -21t60 -7q51 0 80 23.5t29 70.5q0 45 -30 63.5t-76 18.5
q-26 0 -60 -5.5t-60 -16.5q-17 -8 -36 3l-54 31q-8 5 -11 9t-3 15v323h440v-131h-303v-53z" />
    <glyph glyph-name="six.lprop" horiz-adv-x="638" 
d="M477 526q-27 7 -51.5 10.5t-48.5 3.5q-78 0 -117.5 -36.5t-50.5 -119.5l19 9q39 19 76.5 27t70.5 8q46 0 85.5 -13.5t69 -40t46.5 -64.5t17 -87q0 -50 -18.5 -92.5t-52.5 -74t-80.5 -49t-102.5 -17.5q-71 0 -125 25t-90.5 68t-55 101t-18.5 124v5q0 89 25 156.5t68 112.5
t99 68t118 23q50 0 98.5 -14t94.5 -44l-38 -98zM227 286q-14 -7 -16.5 -10.5t-2.5 -10.5q0 -32 10.5 -58t28 -44.5t41 -28.5t49.5 -10q50 0 79 28.5t29 70.5q0 43 -28 64.5t-77 21.5q-30 0 -61.5 -7t-51.5 -16z" />
    <glyph glyph-name="seven.lprop" horiz-adv-x="571" 
d="M143 0q1 47 5.5 86t14 75t26 72t42.5 78q39 63 66.5 103.5t45.5 65t28 36t15 16.5h-357v131h528v-57q0 -17 -1 -27.5t-3 -18.5t-6 -15.5t-11 -18.5l-134 -208q-33 -50 -52 -92.5t-29.5 -80t-14.5 -73t-7 -72.5h-156z" />
    <glyph glyph-name="eight.lprop" horiz-adv-x="644" 
d="M41 203q0 27 8.5 49.5t22.5 41t32.5 33t38.5 25.5q-32 22 -53.5 55t-21.5 79q0 40 18.5 74.5t51.5 59.5t79.5 39t102.5 14q61 0 109 -15.5t80.5 -41t49.5 -58.5t17 -69q0 -77 -75 -140q51 -24 75.5 -61t24.5 -83q0 -44 -20 -83t-56 -68.5t-87 -46.5t-114 -17
q-62 0 -114 15.5t-89.5 43t-58.5 67t-21 87.5zM213 485q0 -27 26 -40.5t75 -29.5l61 -21q14 -5 19 -2.5t11 8.5q12 12 22 30t10 35q0 36 -34 58t-88 22q-42 0 -72 -15t-30 -45zM189 219q0 -41 35.5 -68.5t98.5 -27.5q27 0 49.5 6t39.5 17t26.5 25t9.5 31q0 11 -5 19
t-17.5 15.5t-33 15t-51.5 18.5l-84 29q-14 5 -19.5 3t-13.5 -10q-15 -14 -25 -32.5t-10 -40.5z" />
    <glyph glyph-name="nine.lprop" horiz-adv-x="640" 
d="M168 140q67 -16 114 -16q75 0 111 35.5t38 119.5l-18 -9q-74 -36 -146 -36q-48 0 -88.5 14.5t-70.5 41.5t-46.5 65.5t-16.5 86.5q0 50 19.5 92.5t53.5 73t81 48t102 17.5q71 0 125 -25t90.5 -68t55 -101t18.5 -125v-5q0 -78 -17 -143.5t-52.5 -113.5t-90 -75t-129.5 -27
q-57 0 -112.5 16.5t-100.5 48.5l37 95zM432 397q0 69 -38 105.5t-92 36.5q-49 0 -78.5 -26t-29.5 -70q0 -48 31 -68.5t76 -20.5q26 0 54.5 5.5t57.5 16.5q14 5 16.5 9.5t2.5 11.5z" />
    <glyph glyph-name="dollar.lprop" horiz-adv-x="629" 
d="M159 152q53 -12 90.5 -18t70.5 -6q53 0 81 18.5t28 50.5q0 12 -4 21.5t-14.5 18t-29 16t-47.5 15.5l-67 19q-51 15 -91 32.5t-67.5 41t-42 54t-14.5 71.5t15 73t42 54.5t63.5 36.5t80.5 19l15 124h97v-123q48 -5 93.5 -16t86.5 -30l-24 -106l-61 7q-38 5 -76.5 7.5
t-64.5 2.5q-62 0 -90.5 -11.5t-28.5 -37.5q0 -23 24.5 -35.5t73.5 -26.5l68 -19q61 -17 102 -36t65.5 -42.5t34.5 -53t10 -67.5q0 -47 -15.5 -84.5t-43.5 -64.5t-67 -43t-87 -21l-15 -124h-97v126q-58 8 -113.5 27.5t-97.5 45.5l39 102z" />
    <glyph glyph-name="cent.lprop" horiz-adv-x="548" 
d="M514 91q-31 -31 -74.5 -56.5t-94.5 -36.5l-15 -129h-89v127q-46 7 -83.5 27.5t-63.5 53t-40.5 75.5t-14.5 94t16 93.5t43.5 74.5t64.5 52t78 27l15 136h89v-141q63 -17 104.5 -60.5t56.5 -103.5l-95 -46l-43 41q-29 29 -47.5 39t-43.5 10q-36 0 -62.5 -30t-26.5 -90
q0 -66 29 -96.5t85 -30.5q44 0 104 24l62 24z" />
    <glyph glyph-name="Euro.lprop" horiz-adv-x="687" 
d="M281 231q12 -53 49 -75.5t85 -22.5q29 0 61 8.5t64 24.5l56 28l57 -78q-22 -29 -52 -52t-64 -39.5t-70.5 -25.5t-70.5 -9q-109 0 -183 63t-94 178h-75v59l66 14q-1 7 -1 12.5v13.5v20h-65v59l74 16q11 58 36.5 104.5t62 78t83 48.5t99.5 17q82 0 145.5 -42t99.5 -120
l-91 -62l-67 51q-26 20 -45.5 27.5t-45.5 7.5q-40 0 -72.5 -26t-46.5 -83h175v-76h-184v-21v-10t1 -12h183v-76h-170z" />
    <glyph glyph-name="florin.lprop" 
d="M125 232v83l121 23v141q0 96 51 145t148 49q39 0 75 -10t68 -27l-25 -86l-36 4q-16 2 -32.5 3t-30.5 1q-35 0 -55.5 -15t-20.5 -59v-143h152v-109h-152v-277q0 -96 -51 -145t-148 -49q-39 0 -75 10t-68 27l25 86l36 -4q16 -2 32.5 -3t30.5 -1q35 0 55.5 15t20.5 59v282
h-121z" />
    <glyph glyph-name="sterling.lprop" horiz-adv-x="662" 
d="M303 272q4 -14 6 -26t2 -24q0 -23 -12.5 -45.5t-41.5 -49.5h349v-127h-511v76q0 12 3 20t13 19q29 33 41.5 53.5t12.5 40.5q0 11 -3.5 27t-9.5 36h-93v69l66 21q-17 53 -17 97q0 47 17.5 86.5t49 68t76.5 44t100 15.5q46 0 86 -13t73 -36t58 -53.5t41 -64.5l-89 -61
l-62 46q-30 23 -57 33t-54 10q-44 0 -67.5 -20.5t-23.5 -58.5q0 -16 3 -35t11 -41h190v-107h-157z" />
    <glyph glyph-name="yen.lprop" 
d="M478 648q5 9 10 12t13 3h155l-198 -364h93v-91h-139v-31h139v-91h-139v-86h-156v86h-138v91h138v31h-138v91h90l-199 364h162q10 0 14 -3t8 -10l63 -124q29 -56 49 -102t31 -75q7 17 16.5 39.5t20 46.5t22 48.5t22.5 45.5z" />
    <glyph glyph-name="numbersign.lprop" horiz-adv-x="649" 
d="M217 0h-117l31 179h-79v106h98l16 92h-114v106h133l32 180h117l-32 -180h99l32 180h117l-32 -180h79v-106h-98l-16 -92h114v-106h-133l-31 -179h-117l31 179h-99zM267 285h99l16 92h-99z" />
    <glyph glyph-name="percent.lprop" horiz-adv-x="970" 
d="M225 323q-37 0 -70 12.5t-57.5 36t-39 55.5t-14.5 71t14.5 71t39 55.5t57.5 36t70 12.5t70 -12.5t57.5 -36t39 -55.5t14.5 -71t-14.5 -71t-39 -55.5t-57.5 -36t-70 -12.5zM225 567q-33 0 -50.5 -18t-17.5 -51t17.5 -51t50.5 -18t50.5 18t17.5 51t-17.5 51t-50.5 18z
M745 -10q-37 0 -70 12.5t-57.5 36t-39 55.5t-14.5 71t14.5 71t39 55.5t57.5 36t70 12.5t70 -12.5t57.5 -36t39 -55.5t14.5 -71t-14.5 -71t-39 -55.5t-57.5 -36t-70 -12.5zM745 234q-33 0 -50.5 -18t-17.5 -51t17.5 -51t50.5 -18t50.5 18t17.5 51t-17.5 51t-50.5 18zM254 0
l327 663h136l-327 -663h-136z" />
    <glyph glyph-name="perthousand.lprop" horiz-adv-x="1372" 
d="M225 323q-37 0 -70 12.5t-57.5 36t-39 55.5t-14.5 71t14.5 71t39 55.5t57.5 36t70 12.5t70 -12.5t57.5 -36t39 -55.5t14.5 -71t-14.5 -71t-39 -55.5t-57.5 -36t-70 -12.5zM225 567q-33 0 -50.5 -18t-17.5 -51t17.5 -51t50.5 -18t50.5 18t17.5 51t-17.5 51t-50.5 18z
M745 -10q-37 0 -70 12.5t-57.5 36t-39 55.5t-14.5 71t14.5 71t39 55.5t57.5 36t70 12.5t70 -12.5t57.5 -36t39 -55.5t14.5 -71t-14.5 -71t-39 -55.5t-57.5 -36t-70 -12.5zM745 234q-33 0 -50.5 -18t-17.5 -51t17.5 -51t50.5 -18t50.5 18t17.5 51t-17.5 51t-50.5 18z
M1147 -10q-37 0 -70 12.5t-57.5 36t-39 55.5t-14.5 71t14.5 71t39 55.5t57.5 36t70 12.5t70 -12.5t57.5 -36t39 -55.5t14.5 -71t-14.5 -71t-39 -55.5t-57.5 -36t-70 -12.5zM1147 234q-33 0 -50.5 -18t-17.5 -51t17.5 -51t50.5 -18t50.5 18t17.5 51t-17.5 51t-50.5 18zM254 0
l327 663h136l-327 -663h-136z" />
    <glyph glyph-name="zero.oprop" horiz-adv-x="570" 
d="M285 496q52 0 98 -17t80.5 -49.5t54.5 -79.5t20 -106t-20 -106t-54.5 -79.5t-80.5 -49.5t-98 -17t-98 17t-80.5 49.5t-54.5 79.5t-20 106t20 106t54.5 79.5t80.5 49.5t98 17zM285 127q51 0 78 27.5t27 89.5t-27 89.5t-78 27.5t-78 -27.5t-27 -89.5t27 -89.5t78 -27.5z
" />
    <glyph glyph-name="one.oprop" horiz-adv-x="521" 
d="M68 115h158v230q-8 -6 -28 -14.5t-45 -15.5l-74 -21l-37 99l199 82q19 8 29 10.5t24 2.5h78v-373h125v-115h-429v115z" />
    <glyph glyph-name="two.oprop" horiz-adv-x="562" 
d="M42 408q56 40 119 64t126 24q47 0 85 -11.5t64.5 -32.5t41 -50t14.5 -63q0 -30 -9.5 -54.5t-30 -46.5t-53.5 -43.5t-80 -44.5l-70 -35h261v-115h-451v95q0 10 2.5 14.5t10.5 10.5l195 125q42 26 57 43t15 37t-17 31t-47 11q-26 0 -56.5 -7.5t-72.5 -21.5l-57 -19z" />
    <glyph glyph-name="three.oprop" horiz-adv-x="561" 
d="M308 212q18 0 26 10q10 13 16 29.5t6 33.5q0 81 -93 81q-29 0 -62 -7t-72 -21l-48 -17l-46 91q59 39 119 61.5t123 22.5q49 0 89.5 -13.5t69.5 -37.5t45 -57.5t16 -73.5q0 -42 -19.5 -77t-51.5 -64q49 -23 71.5 -62.5t22.5 -85.5q0 -45 -17.5 -83.5t-49.5 -66
t-77.5 -43.5t-101.5 -16q-73 0 -141.5 27t-119.5 69l45 84l48 -16q54 -18 92 -26.5t71 -8.5q54 0 78 26t24 64q0 29 -14 45q-11 11 -31.5 15.5t-61.5 4.5h-63q-10 0 -13 3t-3 8v101h123z" />
    <glyph glyph-name="four.oprop" horiz-adv-x="614" 
d="M353 0h-318v98q0 11 2.5 17t10.5 16l274 342q8 10 14 12.5t20 2.5h142v-373h90v-115h-90v-155h-145v155zM353 115v223q-7 -10 -20 -27t-27 -35l-85 -106q-11 -14 -25 -30t-24 -25h181z" />
    <glyph glyph-name="five.oprop" horiz-adv-x="566" 
d="M186 307q0 -24 -1.5 -47t-4.5 -41q32 14 67 21.5t67 7.5q43 0 82.5 -13.5t68.5 -39t46.5 -63.5t17.5 -87q0 -52 -18 -94t-50 -72t-78 -46.5t-101 -16.5q-35 0 -71 7.5t-70 21t-64.5 32.5t-54.5 41l46 82l67 -25q42 -16 72.5 -23.5t65.5 -7.5q55 0 81.5 27t26.5 75
q0 44 -30.5 67t-77.5 23q-24 0 -54 -6t-59 -19q-14 -7 -30 2l-60 33q-7 4 -9 7.5t-2 12.5v322h432v-116h-305v-65z" />
    <glyph glyph-name="six.oprop" horiz-adv-x="622" 
d="M437 221q0 49 -28 70t-79 21q-29 0 -61 -6.5t-53 -16.5q-12 -5 -15 -10.5t-3 -15.5q0 -28 8.5 -54t25.5 -46.5t42 -32.5t57 -12q54 0 80 30t26 73zM468 534q-54 12 -99 12q-75 0 -119.5 -41t-51.5 -126l21 10q39 19 74.5 28t72.5 9q48 0 87 -14.5t66.5 -41.5t43 -64.5
t15.5 -83.5q0 -49 -18.5 -91t-51.5 -73t-78.5 -48.5t-99.5 -17.5q-69 0 -121.5 25t-88 68t-53 100.5t-17.5 122.5v4q0 81 23.5 147t65 113.5t98 73t123.5 25.5q53 0 98.5 -16.5t80.5 -39.5l-36 -89z" />
    <glyph glyph-name="seven.oprop" horiz-adv-x="553" 
d="M133 -177q1 47 5.5 86.5t14.5 76t26 72.5t42 78q40 65 67 108t45 69.5t27.5 39t14.5 17.5h-356v118h518v-47q0 -18 -0.5 -28t-2 -17.5t-5 -14t-10.5 -17.5l-134 -221q-30 -50 -49 -92t-30 -80.5t-16 -74.5t-8 -73h-149z" />
    <glyph glyph-name="eight.oprop" horiz-adv-x="625" 
d="M45 202q0 53 29 90.5t71 60.5q-31 22 -52.5 54t-21.5 78q0 41 18 75t50.5 59t76.5 38.5t96 13.5q49 0 93 -12.5t77.5 -36.5t53.5 -58.5t20 -79.5q0 -38 -21 -73.5t-55 -61.5q43 -21 71.5 -54.5t28.5 -86.5q0 -47 -19.5 -86.5t-55 -68t-84 -45t-106.5 -16.5
q-60 0 -109.5 16t-85.5 44t-55.5 66.5t-19.5 83.5zM388 398q15 16 25.5 34t10.5 38q0 39 -33 60.5t-84 21.5q-45 0 -71.5 -16.5t-26.5 -45.5q0 -28 25.5 -43t68.5 -31l59 -22q10 -4 15 -3t11 7zM225 297q-17 -14 -28.5 -33.5t-11.5 -45.5q0 -45 35 -73t95 -28q56 0 88 24.5
t32 57.5q0 26 -27.5 40.5t-78.5 33.5l-77 28q-15 5 -27 -4z" />
    <glyph glyph-name="nine.oprop" horiz-adv-x="621" 
d="M426 224q0 28 -8.5 54t-25.5 46.5t-41.5 32.5t-57.5 12q-54 0 -80.5 -28t-26.5 -70q0 -49 28 -72.5t79 -23.5q26 0 59 6.5t55 16.5q12 5 15.5 10.5t3.5 15.5zM259 -58q157 0 166 166l-21 -10q-78 -37 -149 -37q-47 0 -85.5 15t-66 42t-43 65t-15.5 83q0 49 19 91t52 73
t78.5 48.5t98.5 17.5q69 0 122 -25t88 -68t53 -100.5t18 -122.5v-5q0 -80 -20.5 -146t-58.5 -113t-92.5 -73t-121.5 -26q-52 0 -102 17t-83 41l37 88l33 -8q26 -6 49 -9.5t44 -3.5z" />
    <glyph glyph-name="dollar.oprop" horiz-adv-x="541" 
d="M388 371q-36 4 -66 6t-50 2q-43 0 -62 -6t-19 -22q0 -13 14.5 -19t39.5 -11l68 -15q46 -10 78.5 -22t53 -29t29.5 -40.5t9 -55.5q0 -62 -37 -106.5t-117 -56.5l-15 -127h-96v127q-45 5 -88.5 18.5t-75.5 33.5l29 85l62 -10q45 -8 74.5 -11t54.5 -3q78 0 78 37
q0 14 -11.5 20t-40.5 13l-68 15q-38 8 -70 20t-54.5 29.5t-35 42t-12.5 59.5q0 63 43 100t115 47l15 127h96v-127q72 -9 132 -37l-22 -89z" />
    <glyph glyph-name="cent.oprop" horiz-adv-x="530" 
d="M482 77q-29 -30 -65 -49.5t-74 -28.5l-15 -130h-93v128q-35 6 -65.5 23t-54 44t-37 65t-13.5 88q0 44 13.5 81t36.5 64.5t54 46t66 25.5l15 131h93v-136q51 -16 85 -54.5t47 -89.5l-85 -42l-43 44q-16 16 -31.5 23.5t-35.5 7.5q-33 0 -57.5 -23.5t-24.5 -76.5
q0 -59 27.5 -81.5t71.5 -22.5q37 0 85 17l55 20z" />
    <glyph glyph-name="Euro.oprop" horiz-adv-x="640" 
d="M273 174q13 -32 38.5 -45t60.5 -13q22 0 45.5 5t58.5 17l71 24l45 -74q-20 -20 -46.5 -37t-56.5 -30.5t-62 -21t-63 -7.5q-94 0 -157.5 48t-83.5 134h-75v43l67 10v28h-67v43l74 11q14 60 49.5 101t81 62.5t96.5 23.5t97.5 -16.5t83.5 -57.5t54 -99q-23 -10 -45 -19.5
t-45 -20.5l-40 41q-47 48 -97 48q-32 0 -54 -16.5t-32 -45.5h122v-55h-130v-26h130v-55h-120z" />
    <glyph glyph-name="florin.oprop" horiz-adv-x="509" 
d="M163 113h-95v63l95 17v126q0 91 47 133.5t130 42.5q35 0 69 -8.5t63 -23.5l-22 -83q-22 3 -42.5 5t-37.5 2q-36 0 -53 -17t-17 -46v-129h121v-82h-121v-174q0 -91 -47 -133.5t-130 -42.5q-35 0 -69 8.5t-63 23.5l22 83q22 -3 42.5 -5t37.5 -2q36 0 53 17t17 46v179z" />
    <glyph glyph-name="sterling.oprop" horiz-adv-x="589" 
d="M423 336q-38 19 -67.5 27.5t-51.5 8.5q-38 0 -55 -16t-17 -39q0 -9 2 -19t6 -22h150v-74h-126q2 -8 3 -15t1 -13q0 -14 -7 -29t-24 -32h294v-113h-452v70q0 8 2 11.5t7 8.5l22 20q28 25 28 50q0 9 -2.5 19t-6.5 23h-83v54l61 15q-9 30 -9 59q0 40 15.5 71t43 52t65.5 32
t83 11q35 0 68.5 -8.5t63.5 -23.5t55 -36.5t43 -46.5l-60 -71z" />
    <glyph glyph-name="yen.oprop" horiz-adv-x="604" 
d="M103 83v61h131v22h-131v61h101l-168 261h144q8 0 11 -2t6 -7l110 -189l104 189q2 5 5.5 7t11.5 2h140q-41 -66 -81 -130.5t-80 -130.5h104v-61h-131v-22h131v-61h-131v-83h-146v83h-131z" />
    <glyph glyph-name="numbersign.oprop" 
d="M142 0l20 116h-63v86h78l14 84h-92v86h107l21 116h105l-21 -116h86l21 116h105l-21 -116h62v-86h-77l-14 -84h91v-86h-106l-20 -116h-105l20 116h-86l-20 -116h-105zM282 202h86l14 84h-86z" />
    <glyph glyph-name="percent.oprop" horiz-adv-x="841" 
d="M239 0l242 488h121l-242 -488h-121zM187 200q-30 0 -57.5 10.5t-49 30t-34 47t-12.5 60.5t12.5 60t34 46.5t49 30.5t57.5 11t57.5 -11t49 -30.5t34 -46.5t12.5 -60t-12.5 -60.5t-34 -47t-49 -30t-57.5 -10.5zM187 402q-23 0 -38.5 -13.5t-15.5 -40.5t15.5 -40.5
t38.5 -13.5t38.5 13.5t15.5 40.5t-15.5 40.5t-38.5 13.5zM654 -8q-30 0 -57.5 10.5t-49 30t-34 47t-12.5 60.5t12.5 60t34 46.5t49 30.5t57.5 11t57.5 -11t49 -30.5t34 -46.5t12.5 -60t-12.5 -60.5t-34 -47t-49 -30t-57.5 -10.5zM654 194q-23 0 -38.5 -13.5t-15.5 -40.5
t15.5 -40.5t38.5 -13.5t38.5 13.5t15.5 40.5t-15.5 40.5t-38.5 13.5z" />
    <glyph glyph-name="perthousand.oprop" horiz-adv-x="1181" 
d="M239 0l242 488h121l-242 -488h-121zM187 200q-30 0 -57.5 10.5t-49 30t-34 47t-12.5 60.5t12.5 60t34 46.5t49 30.5t57.5 11t57.5 -11t49 -30.5t34 -46.5t12.5 -60t-12.5 -60.5t-34 -47t-49 -30t-57.5 -10.5zM187 402q-23 0 -38.5 -13.5t-15.5 -40.5t15.5 -40.5
t38.5 -13.5t38.5 13.5t15.5 40.5t-15.5 40.5t-38.5 13.5zM654 -8q-30 0 -57.5 10.5t-49 30t-34 47t-12.5 60.5t12.5 60t34 46.5t49 30.5t57.5 11t57.5 -11t49 -30.5t34 -46.5t12.5 -60t-12.5 -60.5t-34 -47t-49 -30t-57.5 -10.5zM654 194q-23 0 -38.5 -13.5t-15.5 -40.5
t15.5 -40.5t38.5 -13.5t38.5 13.5t15.5 40.5t-15.5 40.5t-38.5 13.5zM994 -8q-30 0 -57.5 10.5t-49 30t-34 47t-12.5 60.5t12.5 60t34 46.5t49 30.5t57.5 11t57.5 -11t49 -30.5t34 -46.5t12.5 -60t-12.5 -60.5t-34 -47t-49 -30t-57.5 -10.5zM994 194q-23 0 -38.5 -13.5
t-15.5 -40.5t15.5 -40.5t38.5 -13.5t38.5 13.5t15.5 40.5t-15.5 40.5t-38.5 13.5z" />
    <glyph glyph-name="fraction" unicode="&#x2044;" horiz-adv-x="413" 
d="M-25 0l327 663h136l-327 -663h-136z" />
    <glyph glyph-name="onesuperior" unicode="&#xb9;" horiz-adv-x="399" 
d="M157 658q15 7 24.5 9t26.5 2h62v-245h64v-88h-261v88h88v137q-8 -4 -15 -6t-22 -7l-41 -12l-29 76z" />
    <glyph glyph-name="twosuperior" unicode="&#xb2;" horiz-adv-x="399" 
d="M331 424v-88h-269v46q0 8 1 11.5t9 10.5l95 84q26 23 36.5 39t10.5 27q0 14 -9 20.5t-23 6.5q-13 0 -26.5 -3.5t-39.5 -12.5l-39 -14l-33 63q31 27 70.5 43t79.5 16q61 0 95 -30.5t34 -74.5q0 -29 -14 -57t-61 -64l-30 -23h113z" />
    <glyph glyph-name="threesuperior" unicode="&#xb3;" horiz-adv-x="399" 
d="M195 418q23 0 33.5 8t10.5 20q0 9 -7.5 15t-25.5 6h-46q-9 0 -12 2.5t-3 8.5v57h71q16 0 16 23q0 25 -41 25q-13 0 -28.5 -1.5t-35.5 -6.5l-42 -10l-25 63q35 23 72.5 34t71.5 11q55 0 93 -25t38 -67q0 -17 -7.5 -35.5t-24.5 -33.5q40 -21 40 -70q0 -20 -9 -40.5t-26 -37
t-43 -26.5t-60 -10q-45 0 -85.5 15.5t-67.5 40.5l28 57l43 -12q21 -6 39.5 -8.5t32.5 -2.5z" />
    <glyph glyph-name="onehalf" unicode="&#xbd;" horiz-adv-x="944" 
d="M253 0l327 663h136l-327 -663h-136zM175 658q15 7 24.5 9t26.5 2h62v-245h64v-88h-261v88h88v137q-8 -4 -15 -6t-22 -7l-41 -12l-29 76zM873 88v-88h-269v46q0 8 1 11.5t9 10.5l95 84q26 23 36.5 39t10.5 27q0 14 -9 20.5t-23 6.5q-13 0 -26.5 -3.5t-39.5 -12.5l-39 -14
l-33 63q31 27 70.5 43t79.5 16q61 0 95 -30.5t34 -74.5q0 -29 -14 -57t-61 -64l-30 -23h113z" />
    <glyph glyph-name="onequarter" unicode="&#xbc;" horiz-adv-x="944" 
d="M727 67h-171v63q0 9 3 15t13 19l124 157q7 8 10.5 10t13.5 2h110v-187h52v-79h-52v-67h-103v67zM727 146v88q-5 -8 -12.5 -18t-14.5 -18l-15 -19q-7 -9 -15 -18t-14 -15h71zM253 0l327 663h136l-327 -663h-136zM175 658q15 7 24.5 9t26.5 2h62v-245h64v-88h-261v88h88
v137q-8 -4 -15 -6t-22 -7l-41 -12l-29 76z" />
    <glyph glyph-name="threequarters" unicode="&#xbe;" horiz-adv-x="944" 
d="M727 67h-171v63q0 9 3 15t13 19l124 157q7 8 10.5 10t13.5 2h110v-187h52v-79h-52v-67h-103v67zM727 146v88q-5 -8 -12.5 -18t-14.5 -18l-15 -19q-7 -9 -15 -18t-14 -15h71zM223 418q23 0 33.5 8t10.5 20q0 9 -7.5 15t-25.5 6h-46q-9 0 -12 2.5t-3 8.5v57h71q16 0 16 23
q0 25 -41 25q-13 0 -28.5 -1.5t-35.5 -6.5l-42 -10l-25 63q35 23 72.5 34t71.5 11q55 0 93 -25t38 -67q0 -17 -7.5 -35.5t-24.5 -33.5q40 -21 40 -70q0 -20 -9 -40.5t-26 -37t-43 -26.5t-60 -10q-45 0 -85.5 15.5t-67.5 40.5l28 57l43 -12q21 -6 39.5 -8.5t32.5 -2.5zM253 0
l327 663h136l-327 -663h-136z" />
    <glyph glyph-name="grave" unicode="`" horiz-adv-x="423" 
d="M304 544l-229 115l56 83q10 15 19 15q6 0 18 -9l180 -142z" />
    <glyph glyph-name="acute" unicode="&#xb4;" horiz-adv-x="423" 
d="M75 606l180 142q12 9 18 9q9 0 19 -15l56 -83l-229 -115z" />
    <glyph glyph-name="dieresis" unicode="&#xa8;" horiz-adv-x="423" 
d="M144 701q17 0 23 -6t6 -20v-105h-136v131h107zM357 701q17 0 23 -6t6 -20v-105h-136v131h107z" />
    <glyph glyph-name="circumflex" unicode="&#x2c6;" horiz-adv-x="423" 
d="M84 544l-56 54l128 130q8 8 14 10.5t17 2.5h48q11 0 17 -2.5t14 -10.5l128 -130l-56 -54l-127 92z" />
    <glyph glyph-name="tilde" unicode="&#x2dc;" horiz-adv-x="423" 
d="M400 695q-3 -26 -12 -50t-24.5 -42t-36.5 -29t-48 -11q-22 0 -40.5 7.5t-34 16t-29 16t-25.5 7.5q-15 0 -26 -13t-24 -38l-78 21q3 26 12 50t24.5 42t36.5 29t48 11q22 0 40.5 -7.5t34 -16t29 -16t25.5 -7.5q15 0 26 13t24 38z" />
    <glyph glyph-name="macron" unicode="&#xaf;" horiz-adv-x="423" 
d="M50 584v107h323v-107h-323z" />
    <glyph glyph-name="breve" unicode="&#x2d8;" horiz-adv-x="423" 
d="M212 557q-38 0 -68.5 11.5t-52 32.5t-35 49t-17.5 61l92 15q12 -33 31 -50t50 -17t50 17t31 50l92 -15q-4 -33 -17.5 -61t-35 -49t-52 -32.5t-68.5 -11.5z" />
    <glyph glyph-name="dotaccent" unicode="&#x2d9;" horiz-adv-x="423" 
d="M251 694q18 0 24 -6t6 -21v-108h-140v135h110z" />
    <glyph glyph-name="ring" unicode="&#x2da;" horiz-adv-x="423" 
d="M211 809q59 0 97 -35t38 -94t-38 -94t-97 -35t-97 35t-38 94t38 94t97 35zM211 631q28 0 39.5 13t11.5 36t-11.5 36t-39.5 13t-39.5 -13t-11.5 -36t11.5 -36t39.5 -13z" />
    <glyph glyph-name="cedilla" unicode="&#xb8;" horiz-adv-x="423" 
d="M105 -65q0 17 12.5 35t32.5 34l31 24l54 -21q-24 -27 -24 -41q0 -11 16.5 -16.5t37 -13t37 -22.5t16.5 -46q0 -48 -48.5 -80t-145.5 -32l-15 77l56 9q34 6 34 20q0 8 -14.5 13t-32.5 12t-32.5 18t-14.5 30z" />
    <glyph glyph-name="hungarumlaut" unicode="&#x2dd;" horiz-adv-x="423" 
d="M226 731l-174 -172l-68 51l130 181q10 13 18 13q6 0 16 -8zM438 731l-174 -172l-68 51l130 181q10 13 18 13q6 0 16 -8z" />
    <glyph glyph-name="ogonek" unicode="&#x2db;" horiz-adv-x="423" 
d="M294 49q-42 -29 -71 -64.5t-29 -67.5q0 -46 63 -46q25 0 58 6l22 -73q-26 -14 -55.5 -21t-55.5 -7q-66 0 -103.5 31t-37.5 79q0 45 35.5 95t113.5 98q17 -8 30 -15q11 -6 20.5 -11t9.5 -4z" />
    <glyph glyph-name="caron" unicode="&#x2c7;" horiz-adv-x="423" 
d="M211 652l127 92l56 -54l-128 -130q-8 -8 -14 -10.5t-17 -2.5h-48q-11 0 -17 2.5t-14 10.5l-128 130l56 54z" />
    <glyph glyph-name="commaaccent" unicode="&#x326;" horiz-adv-x="423" 
d="M243 -58q14 0 21 -10q10 -13 15 -27.5t5 -26.5q0 -14 -7 -33.5t-26 -56.5l-48 -94l-64 13l19 235h85z" />
    <glyph glyph-name="grave.cap" horiz-adv-x="423" 
d="M304 718l-229 115l56 83q10 15 19 15q6 0 18 -9l180 -142z" />
    <glyph glyph-name="acute.cap" horiz-adv-x="423" 
d="M75 780l180 142q12 9 18 9q9 0 19 -15l56 -83l-229 -115z" />
    <glyph glyph-name="dieresis.cap" horiz-adv-x="423" 
d="M144 875q17 0 23 -6t6 -20v-105h-136v131h107zM357 875q17 0 23 -6t6 -20v-105h-136v131h107z" />
    <glyph glyph-name="circumflex.cap" horiz-adv-x="423" 
d="M84 718l-56 54l128 130q8 8 14 10.5t17 2.5h48q11 0 17 -2.5t14 -10.5l128 -130l-56 -54l-127 92z" />
    <glyph glyph-name="tilde.cap" horiz-adv-x="423" 
d="M400 869q-3 -26 -12 -50t-24.5 -42t-36.5 -29t-48 -11q-22 0 -40.5 7.5t-34 16t-29 16t-25.5 7.5q-15 0 -26 -13t-24 -38l-78 21q3 26 12 50t24.5 42t36.5 29t48 11q22 0 40.5 -7.5t34 -16t29 -16t25.5 -7.5q15 0 26 13t24 38z" />
    <glyph glyph-name="macron.cap" horiz-adv-x="423" 
d="M50 758v107h323v-107h-323z" />
    <glyph glyph-name="breve.cap" horiz-adv-x="423" 
d="M212 731q-38 0 -68.5 11.5t-52 32.5t-35 49t-17.5 61l92 15q12 -33 31 -50t50 -17t50 17t31 50l92 -15q-4 -33 -17.5 -61t-35 -49t-52 -32.5t-68.5 -11.5z" />
    <glyph glyph-name="dotaccent.cap" horiz-adv-x="423" 
d="M251 868q18 0 24 -6t6 -21v-108h-140v135h110z" />
    <glyph glyph-name="ring.cap" horiz-adv-x="423" 
d="M211 982q59 0 97 -35t38 -94t-38 -94t-97 -35t-97 35t-38 94t38 94t97 35zM211 804q28 0 39.5 13t11.5 36t-11.5 36t-39.5 13t-39.5 -13t-11.5 -36t11.5 -36t39.5 -13z" />
    <glyph glyph-name="hungarumlaut.cap" horiz-adv-x="423" 
d="M226 905l-174 -172l-68 51l130 181q10 13 18 13q6 0 16 -8zM438 905l-174 -172l-68 51l130 181q10 13 18 13q6 0 16 -8z" />
    <glyph glyph-name="caron.cap" horiz-adv-x="423" 
d="M211 834l127 92l56 -54l-128 -130q-8 -8 -14 -10.5t-17 -2.5h-48q-11 0 -17 2.5t-14 10.5l-128 130l56 54z" />
    <glyph glyph-name="arrowleft.cap" horiz-adv-x="795" 
d="M268 577l62 -62l-104 -127h514v-117h-517l107 -131l-62 -62l-214 214v56q0 9 2 14t9 12z" />
    <glyph glyph-name="arrowup.cap" horiz-adv-x="795" 
d="M443 662l204 -203l-62 -62l-124 104v-515h-123v518l-128 -107l-62 61l214 215h56q9 0 13.5 -2t11.5 -9z" />
    <glyph glyph-name="arrowright.cap" horiz-adv-x="795" 
d="M729 285l-203 -203l-62 62l104 127h-514v117h517l-107 131l62 62l214 -214v-56q0 -9 -2 -14t-9 -12z" />
    <glyph glyph-name="arrowdown.cap" horiz-adv-x="795" 
d="M351 -3l-203 203l62 62l124 -104v515h122v-517l129 106l62 -61l-214 -215h-56q-8 0 -13.5 2t-12.5 9z" />
    <glyph glyph-name="uni2196.cap" horiz-adv-x="795" 
d="M185 597h287v-87l-159 -17l361 -361l-86 -87l-364 364l-17 -165h-87v303l40 41q8 7 13.5 8t11.5 1z" />
    <glyph glyph-name="uni2197.cap" horiz-adv-x="795" 
d="M674 535v-291h-87l-17 165l-364 -365l-86 87l362 362l-160 17v87h302l41 -40q5 -6 7 -10t2 -12z" />
    <glyph glyph-name="uni2198.cap" horiz-adv-x="795" 
d="M612 44h-291v87l164 17l-364 364l87 86l362 -362l16 160h88v-302l-41 -41q-5 -5 -9 -7t-12 -2z" />
    <glyph glyph-name="uni2199.cap" horiz-adv-x="795" 
d="M120 106v291h88l16 -164l364 364l86 -87l-362 -362l160 -16v-88h-302l-41 41q-5 5 -7 9t-2 12z" />
    <glyph glyph-name="periodcentered.cap" horiz-adv-x="246" 
d="M166 407q20 0 27 -7t7 -24v-120h-154v151h120z" />
    <glyph glyph-name="bullet.cap" horiz-adv-x="369" 
d="M307 214h-245v233h201q25 0 34.5 -9t9.5 -33v-191z" />
    <glyph glyph-name="at.cap" horiz-adv-x="774" 
d="M431 379q0 17 -10.5 26.5t-36.5 9.5q-20 0 -57 -9l-43 -11l-25 51q29 23 65.5 37.5t72.5 14.5q61 0 97.5 -30.5t36.5 -98.5v-85q0 -17 7 -28t28 -11q10 0 21 5t20 17.5t15 34t6 54.5q0 43 -16 82.5t-46 69.5t-73 47.5t-98 17.5q-52 0 -96.5 -15.5t-77 -45.5t-51 -73.5
t-18.5 -98.5q0 -57 17.5 -103.5t50.5 -79t81 -50t109 -17.5q37 0 76 7t81 20l102 30l30 -62q-24 -20 -57.5 -37.5t-73.5 -30t-84.5 -20t-88.5 -7.5q-80 0 -145.5 26.5t-112.5 72.5t-73 108.5t-26 135.5q0 78 28.5 141t77.5 107.5t113.5 68t135.5 23.5q74 0 136 -25
t106.5 -67t69.5 -97.5t25 -116.5q0 -51 -15 -89t-40 -62.5t-57.5 -37t-67.5 -12.5q-33 0 -57 11t-37 27q-23 -15 -47 -23.5t-51 -8.5q-53 0 -84.5 31t-31.5 75q0 47 31.5 68.5t77.5 21.5q20 0 41.5 -3.5t38.5 -9.5v24zM425 259q5 2 5.5 4t0.5 5v28q0 4 -4 4h-74
q-17 0 -17 -18q0 -14 10 -23.5t31 -9.5q12 0 26 3t22 7z" />
    <glyph glyph-name="parenleft.cap" horiz-adv-x="370" 
d="M64 331q0 72 15.5 138t43.5 124.5t68 108.5t90 89l67 -55q-33 -48 -57 -94.5t-40 -95t-23.5 -101.5t-7.5 -114t7.5 -114t23.5 -101.5t40 -95t57 -94.5l-67 -55q-50 39 -90 88.5t-68 108t-43.5 125t-15.5 138.5z" />
    <glyph glyph-name="parenright.cap" horiz-adv-x="370" 
d="M306 331q0 -72 -15.5 -138.5t-43.5 -125t-68.5 -108t-89.5 -88.5l-67 55q33 48 57 94.5t40 95t23.5 101.5t7.5 114t-7.5 114t-23.5 101.5t-40 95t-57 94.5l67 55q49 -39 89.5 -89t68.5 -108.5t43.5 -124.5t15.5 -138z" />
    <glyph glyph-name="bracketleft.cap" horiz-adv-x="366" 
d="M216 15h132v-130h-274v892h274v-130h-132v-632z" />
    <glyph glyph-name="bracketright.cap" horiz-adv-x="366" 
d="M150 647h-132v130h274v-892h-274v130h132v632z" />
    <glyph glyph-name="braceleft.cap" horiz-adv-x="397" 
d="M40 379q29 11 49 21t32 20.5t17 23t5 29.5q0 16 -3.5 40t-8 50t-8 51.5t-3.5 46.5q0 34 11.5 58t32 39.5t48 22.5t59.5 7q29 0 59 -5t55 -12v-90l-101 -23q-11 -2 -14 -6.5t-3 -13.5t3.5 -28.5t7 -43t7 -48.5t3.5 -46q0 -24 -6.5 -43.5t-21.5 -36.5t-41 -32t-65 -29
q39 -14 65 -29t41 -32t21.5 -36.5t6.5 -43.5q0 -21 -3.5 -46t-7 -48.5t-7 -43t-3.5 -28.5t3 -13.5t14 -6.5l101 -23v-90q-25 -7 -55 -12t-59 -5q-32 0 -59.5 7t-48 22.5t-32 39.5t-11.5 58q0 21 3.5 46.5t8 51.5t8 49.5t3.5 40.5q0 16 -5 29t-17 23.5t-32 20.5t-49 21v96z
" />
    <glyph glyph-name="braceright.cap" horiz-adv-x="397" 
d="M357 283q-29 -11 -49 -21t-32 -20.5t-17 -23.5t-5 -29q0 -17 3.5 -40.5t8 -49.5t8 -51.5t3.5 -46.5q0 -34 -11.5 -58t-32 -39.5t-48 -22.5t-59.5 -7q-29 0 -59 5t-55 12v90l101 23q11 2 14 6.5t3 13.5t-3.5 28.5t-7 43t-7 48.5t-3.5 46q0 24 6.5 43.5t21.5 36.5t41 32
t65 29q-39 14 -65 29t-41 32t-21.5 36.5t-6.5 43.5q0 21 3.5 46t7 48.5t7 43t3.5 28.5t-3 13.5t-14 6.5l-101 23v90q25 7 55 12t59 5q32 0 59.5 -7t48 -22.5t32 -39.5t11.5 -58q0 -21 -3.5 -46.5t-8 -51.5t-8 -50t-3.5 -40q0 -17 5 -29.5t17 -23t32 -20.5t49 -21v-96z" />
    <glyph glyph-name="questiondown.cap" horiz-adv-x="539" 
d="M351.979 464.972l11.999 -73.9951q2 -9 3 -17.999q1 -9 1 -15.999q0 -16.999 -7.99902 -27.499q-8 -10.499 -28.999 -22.498l-35.9971 -20.999q-27.999 -15.999 -47.4971 -28.998q-19.499 -12.999 -31.499 -24.499q-11.999 -11.499 -17.498 -22.498
q-5.5 -10.999 -5.5 -23.999q0 -28.998 21.999 -44.9971q21.998 -15.999 63.9961 -15.999q25.998 0 58.4961 7.5q32.498 7.49902 64.4961 18.499l61.9961 21.998l50.9971 -85.9941q-49.9971 -41.998 -113.493 -69.4961t-131.492 -27.498q-45.9971 0 -87.4941 12.499
q-41.498 12.499 -72.9961 36.498q-31.498 23.998 -49.9971 59.9961t-18.499 82.9951q0 74.9951 50.4971 124.992t144.491 76.9951l17.999 80.9951h97.9941zM251.984 526.968q-13.999 0 -18.999 5.5q-4.99902 5.49902 -4.99902 17.499v112.993h145.991v-135.992h-121.993z
" />
    <glyph glyph-name="exclamdown.cap" horiz-adv-x="290" 
d="M93.9941 517.969q-13.999 0 -18.999 4.99902q-4.99902 5 -4.99902 17.999v121.993h149.99v-144.991h-125.992zM206.987 329.979q5 -42.9971 8.5 -85.4941q3.49902 -42.498 3.49902 -80.4951v-163.99h-147.99v163.99q0 37.9971 3.49902 80.4951q3.5 42.4971 8.5 85.4941
l15.999 125.993h91.9941z" />
    <glyph glyph-name="guillemotleft.cap" horiz-adv-x="654" 
d="M37 367l231 184l63 -63l-139 -156v-2l139 -155l-63 -64l-220 175q-5 4 -8 9t-3 14v58zM320 367l231 184l63 -63l-139 -156v-2l139 -155l-63 -64l-220 175q-5 4 -8 9t-3 14v58z" />
    <glyph glyph-name="guillemotright.cap" horiz-adv-x="654" 
d="M617 295l-231 -184l-63 63l139 156v2l-139 155l63 64l220 -175q5 -4 8 -9t3 -14v-58zM334 295l-231 -184l-63 63l139 156v2l-139 155l63 64l220 -175q5 -4 8 -9t3 -14v-58z" />
    <glyph glyph-name="guilsinglleft.cap" horiz-adv-x="371" 
d="M37 367l231 184l63 -63l-139 -156v-2l139 -155l-63 -64l-220 175q-5 4 -8 9t-3 14v58z" />
    <glyph glyph-name="guilsinglright.cap" horiz-adv-x="371" 
d="M334 295l-231 -184l-63 63l139 156v2l-139 155l63 64l220 -175q5 -4 8 -9t3 -14v-58z" />
    <glyph glyph-name="hyphen.cap" horiz-adv-x="425" 
d="M45 271v119h335v-119h-335z" />
    <glyph glyph-name="uni00AD.cap" horiz-adv-x="425" 
d="M45 271v119h335v-119h-335z" />
    <glyph glyph-name="endash.cap" horiz-adv-x="590" 
d="M45 271v119h500v-119h-500z" />
    <glyph glyph-name="emdash.cap" horiz-adv-x="1090" 
d="M45 271v119h1000v-119h-1000z" />
    <glyph glyph-name="Agrave" unicode="&#xc0;" horiz-adv-x="712" 
d="M490 123h-279l-38 -110q-3 -8 -6.5 -10.5t-12.5 -2.5h-144l252 663h153q10 0 13.5 -2.5t7.5 -11.5l266 -649h-148q-10 0 -14 2.5t-7 10.5zM441 247l-21 56q-12 31 -23.5 62.5t-21 60l-17.5 52.5t-12 41q-4 -15 -11 -39.5t-16.5 -54t-20.5 -61t-22 -61.5l-20 -56h185z
M443 718l-229 115l56 83q10 15 19 15q6 0 18 -9l180 -142z" />
    <glyph glyph-name="Aacute" unicode="&#xc1;" horiz-adv-x="712" 
d="M490 123h-279l-38 -110q-3 -8 -6.5 -10.5t-12.5 -2.5h-144l252 663h153q10 0 13.5 -2.5t7.5 -11.5l266 -649h-148q-10 0 -14 2.5t-7 10.5zM441 247l-21 56q-12 31 -23.5 62.5t-21 60l-17.5 52.5t-12 41q-4 -15 -11 -39.5t-16.5 -54t-20.5 -61t-22 -61.5l-20 -56h185z
M214 780l180 142q12 9 18 9q9 0 19 -15l56 -83l-229 -115z" />
    <glyph glyph-name="Acircumflex" unicode="&#xc2;" horiz-adv-x="712" 
d="M490 123h-279l-38 -110q-3 -8 -6.5 -10.5t-12.5 -2.5h-144l252 663h153q10 0 13.5 -2.5t7.5 -11.5l266 -649h-148q-10 0 -14 2.5t-7 10.5zM441 247l-21 56q-12 31 -23.5 62.5t-21 60l-17.5 52.5t-12 41q-4 -15 -11 -39.5t-16.5 -54t-20.5 -61t-22 -61.5l-20 -56h185z
M219 718l-56 54l128 130q8 8 14 10.5t17 2.5h48q11 0 17 -2.5t14 -10.5l128 -130l-56 -54l-127 92z" />
    <glyph glyph-name="Atilde" unicode="&#xc3;" horiz-adv-x="712" 
d="M490 123h-279l-38 -110q-3 -8 -6.5 -10.5t-12.5 -2.5h-144l252 663h153q10 0 13.5 -2.5t7.5 -11.5l266 -649h-148q-10 0 -14 2.5t-7 10.5zM441 247l-21 56q-12 31 -23.5 62.5t-21 60l-17.5 52.5t-12 41q-4 -15 -11 -39.5t-16.5 -54t-20.5 -61t-22 -61.5l-20 -56h185z
M535 869q-3 -26 -12 -50t-24.5 -42t-36.5 -29t-48 -11q-22 0 -40.5 7.5t-34 16t-29 16t-25.5 7.5q-15 0 -26 -13t-24 -38l-78 21q3 26 12 50t24.5 42t36.5 29t48 11q22 0 40.5 -7.5t34 -16t29 -16t25.5 -7.5q15 0 26 13t24 38z" />
    <glyph glyph-name="Adieresis" unicode="&#xc4;" horiz-adv-x="712" 
d="M490 123h-279l-38 -110q-3 -8 -6.5 -10.5t-12.5 -2.5h-144l252 663h153q10 0 13.5 -2.5t7.5 -11.5l266 -649h-148q-10 0 -14 2.5t-7 10.5zM441 247l-21 56q-12 31 -23.5 62.5t-21 60l-17.5 52.5t-12 41q-4 -15 -11 -39.5t-16.5 -54t-20.5 -61t-22 -61.5l-20 -56h185z
M279 875q17 0 23 -6t6 -20v-105h-136v131h107zM492 875q17 0 23 -6t6 -20v-105h-136v131h107z" />
    <glyph glyph-name="Amacron" unicode="&#x100;" horiz-adv-x="712" 
d="M490 123h-279l-38 -110q-3 -8 -6.5 -10.5t-12.5 -2.5h-144l252 663h153q10 0 13.5 -2.5t7.5 -11.5l266 -649h-148q-10 0 -14 2.5t-7 10.5zM441 247l-21 56q-12 31 -23.5 62.5t-21 60l-17.5 52.5t-12 41q-4 -15 -11 -39.5t-16.5 -54t-20.5 -61t-22 -61.5l-20 -56h185z
M185 758v107h323v-107h-323z" />
    <glyph glyph-name="Abreve" unicode="&#x102;" horiz-adv-x="712" 
d="M490 123h-279l-38 -110q-3 -8 -6.5 -10.5t-12.5 -2.5h-144l252 663h153q10 0 13.5 -2.5t7.5 -11.5l266 -649h-148q-10 0 -14 2.5t-7 10.5zM441 247l-21 56q-12 31 -23.5 62.5t-21 60l-17.5 52.5t-12 41q-4 -15 -11 -39.5t-16.5 -54t-20.5 -61t-22 -61.5l-20 -56h185z
M346 731q-38 0 -68.5 11.5t-52 32.5t-35 49t-17.5 61l92 15q12 -33 31 -50t50 -17t50 17t31 50l92 -15q-4 -33 -17.5 -61t-35 -49t-52 -32.5t-68.5 -11.5z" />
    <glyph glyph-name="Acaron" unicode="&#x1cd;" horiz-adv-x="712" 
d="M490 123h-279l-38 -110q-3 -8 -6.5 -10.5t-12.5 -2.5h-144l252 663h153q10 0 13.5 -2.5t7.5 -11.5l266 -649h-148q-10 0 -14 2.5t-7 10.5zM441 247l-21 56q-12 31 -23.5 62.5t-21 60l-17.5 52.5t-12 41q-4 -15 -11 -39.5t-16.5 -54t-20.5 -61t-22 -61.5l-20 -56h185z
M346 834l127 92l56 -54l-128 -130q-8 -8 -14 -10.5t-17 -2.5h-48q-11 0 -17 2.5t-14 10.5l-128 130l56 54z" />
    <glyph glyph-name="Aring" unicode="&#xc5;" horiz-adv-x="712" 
d="M702 0h-148q-10 0 -14 2.5t-7 10.5l-43 110h-279l-38 -110q-3 -8 -6.5 -10.5t-12.5 -2.5h-144l254 667q-25 16 -39 43t-14 62q0 59 38 94t97 35t97 -35t38 -94q0 -35 -14 -61.5t-39 -43.5zM346 723q28 0 39.5 13t11.5 36t-11.5 36t-39.5 13t-39.5 -13t-11.5 -36t11.5 -36
t39.5 -13zM441 247l-21 56q-12 31 -23.5 62.5t-21 60l-17.5 52.5t-12 41q-4 -15 -11 -39.5t-16.5 -54t-20.5 -61t-22 -61.5l-20 -56h185z" />
    <glyph glyph-name="Aringacute" unicode="&#x1fa;" horiz-adv-x="712" 
d="M210 977l180 142q12 9 18 9q9 0 19 -15l56 -83l-229 -115zM702 0h-148q-10 0 -14 2.5t-7 10.5l-43 110h-279l-38 -110q-3 -8 -6.5 -10.5t-12.5 -2.5h-144l254 667q-25 16 -39 43t-14 62q0 59 38 94t97 35t97 -35t38 -94q0 -35 -14 -61.5t-39 -43.5zM346 723q28 0 39.5 13
t11.5 36t-11.5 36t-39.5 13t-39.5 -13t-11.5 -36t11.5 -36t39.5 -13zM441 247l-21 56q-12 31 -23.5 62.5t-21 60l-17.5 52.5t-12 41q-4 -15 -11 -39.5t-16.5 -54t-20.5 -61t-22 -61.5l-20 -56h185z" />
    <glyph glyph-name="Aogonek" unicode="&#x104;" horiz-adv-x="712" 
d="M490 123h-279l-38 -110q-3 -8 -6.5 -10.5t-12.5 -2.5h-144l252 663h153q10 0 13.5 -2.5t7.5 -11.5l266 -649h-59q-19 0 -33.5 -7.5t-24 -19t-14.5 -26t-5 -27.5q0 -26 16 -37.5t47 -11.5q25 0 58 6l22 -73q-26 -14 -55.5 -21t-55.5 -7q-66 0 -103.5 31t-37.5 79
q0 41 20.5 74t53.5 58zM441 247l-21 56q-12 31 -23.5 62.5t-21 60l-17.5 52.5t-12 41q-4 -15 -11 -39.5t-16.5 -54t-20.5 -61t-22 -61.5l-20 -56h185z" />
    <glyph glyph-name="AE" unicode="&#xc6;" horiz-adv-x="1036" 
d="M976 663v-130h-337v-132h307v-128h-307v-143h347v-130h-503v123h-236l-67 -110q-4 -6 -9.5 -9.5t-19.5 -3.5h-153l424 663h554zM483 517l-160 -270h160v270z" />
    <glyph glyph-name="AEacute" unicode="&#x1fc;" horiz-adv-x="1036" 
d="M976 663v-130h-337v-132h307v-128h-307v-143h347v-130h-503v123h-236l-67 -110q-4 -6 -9.5 -9.5t-19.5 -3.5h-153l424 663h554zM483 517l-160 -270h160v270zM514 780l180 142q12 9 18 9q9 0 19 -15l56 -83l-229 -115z" />
    <glyph glyph-name="Cacute" unicode="&#x106;" horiz-adv-x="690" 
d="M666 140q-25 -32 -59.5 -59.5t-75 -47.5t-85.5 -31.5t-91 -11.5q-74 0 -133.5 26.5t-101 72t-64 108t-22.5 134.5q0 79 26 142.5t70.5 108t104 68t126.5 23.5q105 0 179.5 -53.5t110.5 -147.5l-99 -64l-83 68q-33 27 -59 38.5t-59 11.5t-61 -11.5t-48.5 -35.5
t-32.5 -60.5t-12 -85.5q0 -97 47 -145.5t128 -48.5q31 0 64 9t67 25l106 49zM208 780l180 142q12 9 18 9q9 0 19 -15l56 -83l-229 -115z" />
    <glyph glyph-name="Ccedilla" unicode="&#xc7;" horiz-adv-x="690" 
d="M274 -65q0 14 9 29.5t24 28.5q-63 8 -114 37t-86 74t-54 103t-19 124q0 79 25.5 142.5t70 108t103.5 68t126 23.5q105 0 179.5 -53.5t110.5 -147.5l-99 -64l-83 68q-31 26 -58 38t-60 12t-60.5 -12t-48 -36t-32 -60t-11.5 -85q0 -94 47 -144t128 -50q31 0 64 9t67 25
l106 49l57 -82q-46 -59 -118 -99.5t-156 -48.5q-12 -17 -12 -26q0 -11 16.5 -16.5t37 -13t37 -22.5t16.5 -46q0 -48 -48.5 -80t-145.5 -32l-15 77l56 9q34 6 34 20q0 8 -14.5 13t-32.5 12t-32.5 18t-14.5 30z" />
    <glyph glyph-name="Ccircumflex" unicode="&#x108;" horiz-adv-x="690" 
d="M666 140q-25 -32 -59.5 -59.5t-75 -47.5t-85.5 -31.5t-91 -11.5q-74 0 -133.5 26.5t-101 72t-64 108t-22.5 134.5q0 79 26 142.5t70.5 108t104 68t126.5 23.5q105 0 179.5 -53.5t110.5 -147.5l-99 -64l-83 68q-33 27 -59 38.5t-59 11.5t-61 -11.5t-48.5 -35.5
t-32.5 -60.5t-12 -85.5q0 -97 47 -145.5t128 -48.5q31 0 64 9t67 25l106 49zM218 718l-56 54l128 130q8 8 14 10.5t17 2.5h48q11 0 17 -2.5t14 -10.5l128 -130l-56 -54l-127 92z" />
    <glyph glyph-name="Ccaron" unicode="&#x10c;" horiz-adv-x="690" 
d="M666 140q-25 -32 -59.5 -59.5t-75 -47.5t-85.5 -31.5t-91 -11.5q-74 0 -133.5 26.5t-101 72t-64 108t-22.5 134.5q0 79 26 142.5t70.5 108t104 68t126.5 23.5q105 0 179.5 -53.5t110.5 -147.5l-99 -64l-83 68q-33 27 -59 38.5t-59 11.5t-61 -11.5t-48.5 -35.5
t-32.5 -60.5t-12 -85.5q0 -97 47 -145.5t128 -48.5q31 0 64 9t67 25l106 49zM345 834l127 92l56 -54l-128 -130q-8 -8 -14 -10.5t-17 -2.5h-48q-11 0 -17 2.5t-14 10.5l-128 130l56 54z" />
    <glyph glyph-name="Cdotaccent" unicode="&#x10a;" horiz-adv-x="690" 
d="M666 140q-25 -32 -59.5 -59.5t-75 -47.5t-85.5 -31.5t-91 -11.5q-74 0 -133.5 26.5t-101 72t-64 108t-22.5 134.5q0 79 26 142.5t70.5 108t104 68t126.5 23.5q105 0 179.5 -53.5t110.5 -147.5l-99 -64l-83 68q-33 27 -59 38.5t-59 11.5t-61 -11.5t-48.5 -35.5
t-32.5 -60.5t-12 -85.5q0 -97 47 -145.5t128 -48.5q31 0 64 9t67 25l106 49zM385 868q18 0 24 -6t6 -21v-108h-140v135h110z" />
    <glyph glyph-name="Dcaron" unicode="&#x10e;" horiz-adv-x="724" 
d="M65 0v663h235q97 0 170 -19.5t124 -64.5q46 -41 71 -102.5t25 -145.5q0 -83 -25 -144.5t-71 -102.5q-51 -45 -124 -64.5t-170 -19.5h-235zM294 135q66 0 112.5 11t74.5 39q23 23 35 58.5t12 87.5q0 53 -12 88.5t-35 58.5q-28 28 -74.5 39t-112.5 11h-73v-393h73zM362 834
l127 92l56 -54l-128 -130q-8 -8 -14 -10.5t-17 -2.5h-48q-11 0 -17 2.5t-14 10.5l-128 130l56 54z" />
    <glyph glyph-name="Dcroat" unicode="&#x110;" horiz-adv-x="744" 
d="M85 0v280h-73v116h73v267h235q97 0 170 -19.5t124 -64.5q46 -41 71 -102.5t25 -145.5q0 -83 -25 -144.5t-71 -102.5q-51 -45 -124 -64.5t-170 -19.5h-235zM314 135q66 0 112.5 11t74.5 39q23 23 35 58.5t12 87.5q0 53 -12 88.5t-35 58.5q-28 28 -74.5 39t-112.5 11h-73
v-132h141v-116h-141v-145h73z" />
    <glyph glyph-name="Eth" unicode="&#xd0;" horiz-adv-x="744" 
d="M85 0v280h-73v116h73v267h235q97 0 170 -19.5t124 -64.5q46 -41 71 -102.5t25 -145.5q0 -83 -25 -144.5t-71 -102.5q-51 -45 -124 -64.5t-170 -19.5h-235zM314 135q66 0 112.5 11t74.5 39q23 23 35 58.5t12 87.5q0 53 -12 88.5t-35 58.5q-28 28 -74.5 39t-112.5 11h-73
v-132h141v-116h-141v-145h73z" />
    <glyph glyph-name="Egrave" unicode="&#xc8;" horiz-adv-x="618" 
d="M558 663v-130h-337v-132h307v-128h-307v-143h347v-130h-503v663h493zM401 718l-229 115l56 83q10 15 19 15q6 0 18 -9l180 -142z" />
    <glyph glyph-name="Eacute" unicode="&#xc9;" horiz-adv-x="618" 
d="M558 663v-130h-337v-132h307v-128h-307v-143h347v-130h-503v663h493zM172 780l180 142q12 9 18 9q9 0 19 -15l56 -83l-229 -115z" />
    <glyph glyph-name="Ecircumflex" unicode="&#xca;" horiz-adv-x="618" 
d="M558 663v-130h-337v-132h307v-128h-307v-143h347v-130h-503v663h493zM182 718l-56 54l128 130q8 8 14 10.5t17 2.5h48q11 0 17 -2.5t14 -10.5l128 -130l-56 -54l-127 92z" />
    <glyph glyph-name="Ecaron" unicode="&#x11a;" horiz-adv-x="618" 
d="M558 663v-130h-337v-132h307v-128h-307v-143h347v-130h-503v663h493zM309 834l127 92l56 -54l-128 -130q-8 -8 -14 -10.5t-17 -2.5h-48q-11 0 -17 2.5t-14 10.5l-128 130l56 54z" />
    <glyph glyph-name="Edieresis" unicode="&#xcb;" horiz-adv-x="618" 
d="M558 663v-130h-337v-132h307v-128h-307v-143h347v-130h-503v663h493zM241 875q17 0 23 -6t6 -20v-105h-136v131h107zM454 875q17 0 23 -6t6 -20v-105h-136v131h107z" />
    <glyph glyph-name="Emacron" unicode="&#x112;" horiz-adv-x="618" 
d="M558 663v-130h-337v-132h307v-128h-307v-143h347v-130h-503v663h493zM147 758v107h323v-107h-323z" />
    <glyph glyph-name="Ebreve" unicode="&#x114;" horiz-adv-x="618" 
d="M558 663v-130h-337v-132h307v-128h-307v-143h347v-130h-503v663h493zM309 731q-38 0 -68.5 11.5t-52 32.5t-35 49t-17.5 61l92 15q12 -33 31 -50t50 -17t50 17t31 50l92 -15q-4 -33 -17.5 -61t-35 -49t-52 -32.5t-68.5 -11.5z" />
    <glyph glyph-name="Edotaccent" unicode="&#x116;" horiz-adv-x="618" 
d="M558 663v-130h-337v-132h307v-128h-307v-143h347v-130h-503v663h493zM349 868q18 0 24 -6t6 -21v-108h-140v135h110z" />
    <glyph glyph-name="Eogonek" unicode="&#x118;" horiz-adv-x="618" 
d="M65 0v663h493v-130h-337v-132h307v-128h-307v-143h347v-130h-87q-10 0 -15.5 -2.5t-11.5 -8.5q-15 -15 -24 -35.5t-9 -36.5q0 -46 63 -46q25 0 58 6l22 -73q-26 -14 -55.5 -21t-55.5 -7q-66 0 -103.5 31t-37.5 79q0 31 15 60t40 54h-302z" />
    <glyph glyph-name="Gcircumflex" unicode="&#x11c;" horiz-adv-x="743" 
d="M567 429l-78 53q-34 23 -62.5 34.5t-64.5 11.5q-35 0 -65 -12.5t-52.5 -37t-35 -61t-12.5 -84.5q0 -96 46.5 -145.5t136.5 -49.5q33 0 72 6t65 16q12 5 14 8.5t2 13.5v61h-101v111h231q13 0 17.5 -4t4.5 -16v-334h-111l-24 58l-49 -27q-37 -20 -72 -30.5t-77 -10.5
q-74 0 -133 26t-100 71.5t-63 108t-22 135.5q0 80 27.5 143.5t74 107.5t107.5 67.5t128 23.5q104 0 180.5 -48.5t111.5 -129.5zM244 718l-56 54l128 130q8 8 14 10.5t17 2.5h48q11 0 17 -2.5t14 -10.5l128 -130l-56 -54l-127 92z" />
    <glyph glyph-name="Gbreve" unicode="&#x11e;" horiz-adv-x="743" 
d="M567 429l-78 53q-34 23 -62.5 34.5t-64.5 11.5q-35 0 -65 -12.5t-52.5 -37t-35 -61t-12.5 -84.5q0 -96 46.5 -145.5t136.5 -49.5q33 0 72 6t65 16q12 5 14 8.5t2 13.5v61h-101v111h231q13 0 17.5 -4t4.5 -16v-334h-111l-24 58l-49 -27q-37 -20 -72 -30.5t-77 -10.5
q-74 0 -133 26t-100 71.5t-63 108t-22 135.5q0 80 27.5 143.5t74 107.5t107.5 67.5t128 23.5q104 0 180.5 -48.5t111.5 -129.5zM371 731q-38 0 -68.5 11.5t-52 32.5t-35 49t-17.5 61l92 15q12 -33 31 -50t50 -17t50 17t31 50l92 -15q-4 -33 -17.5 -61t-35 -49t-52 -32.5
t-68.5 -11.5z" />
    <glyph glyph-name="Gdotaccent" unicode="&#x120;" horiz-adv-x="743" 
d="M567 429l-78 53q-34 23 -62.5 34.5t-64.5 11.5q-35 0 -65 -12.5t-52.5 -37t-35 -61t-12.5 -84.5q0 -96 46.5 -145.5t136.5 -49.5q33 0 72 6t65 16q12 5 14 8.5t2 13.5v61h-101v111h231q13 0 17.5 -4t4.5 -16v-334h-111l-24 58l-49 -27q-37 -20 -72 -30.5t-77 -10.5
q-74 0 -133 26t-100 71.5t-63 108t-22 135.5q0 80 27.5 143.5t74 107.5t107.5 67.5t128 23.5q104 0 180.5 -48.5t111.5 -129.5zM411 868q18 0 24 -6t6 -21v-108h-140v135h110z" />
    <glyph glyph-name="Gcommaaccent" unicode="&#x122;" horiz-adv-x="743" 
d="M567 429l-78 53q-34 23 -62.5 34.5t-64.5 11.5q-35 0 -65 -12.5t-52.5 -37t-35 -61t-12.5 -84.5q0 -96 46.5 -145.5t136.5 -49.5q33 0 72 6t65 16q12 5 14 8.5t2 13.5v61h-101v111h231q13 0 17.5 -4t4.5 -16v-334h-111l-24 58l-49 -27q-37 -20 -72 -30.5t-77 -10.5
q-74 0 -133 26t-100 71.5t-63 108t-22 135.5q0 80 27.5 143.5t74 107.5t107.5 67.5t128 23.5q104 0 180.5 -48.5t111.5 -129.5zM403 -58q14 0 21 -10q10 -13 15 -27.5t5 -26.5q0 -14 -7 -33.5t-26 -56.5l-48 -94l-64 13l19 235h85z" />
    <glyph glyph-name="Hcircumflex" unicode="&#x124;" horiz-adv-x="731" 
d="M510 273h-289v-273h-156v663h156v-255h289v255h156v-663h-156v273zM238 718l-56 54l128 130q8 8 14 10.5t17 2.5h48q11 0 17 -2.5t14 -10.5l128 -130l-56 -54l-127 92z" />
    <glyph glyph-name="Hbar" unicode="&#x126;" horiz-adv-x="771" 
d="M530 273h-289v-273h-156v488h-71v97h71v78h156v-78h289v78h156v-78h71v-97h-71v-488h-156v273zM530 408v80h-289v-80h289z" />
    <glyph glyph-name="Igrave" unicode="&#xcc;" horiz-adv-x="290" 
d="M223 0h-156v663h156v-663zM240 718l-229 115l56 83q10 15 19 15q6 0 18 -9l180 -142z" />
    <glyph glyph-name="Iacute" unicode="&#xcd;" horiz-adv-x="290" 
d="M223 0h-156v663h156v-663zM11 780l180 142q12 9 18 9q9 0 19 -15l56 -83l-229 -115z" />
    <glyph glyph-name="Icircumflex" unicode="&#xce;" horiz-adv-x="290" 
d="M223 0h-156v663h156v-663zM18 718l-56 54l128 130q8 8 14 10.5t17 2.5h48q11 0 17 -2.5t14 -10.5l128 -130l-56 -54l-127 92z" />
    <glyph glyph-name="Itilde" unicode="&#x128;" horiz-adv-x="290" 
d="M223 0h-156v663h156v-663zM334 869q-3 -26 -12 -50t-24.5 -42t-36.5 -29t-48 -11q-22 0 -40.5 7.5t-34 16t-29 16t-25.5 7.5q-15 0 -26 -13t-24 -38l-78 21q3 26 12 50t24.5 42t36.5 29t48 11q22 0 40.5 -7.5t34 -16t29 -16t25.5 -7.5q15 0 26 13t24 38z" />
    <glyph glyph-name="Idieresis" unicode="&#xcf;" horiz-adv-x="290" 
d="M223 0h-156v663h156v-663zM78 875q17 0 23 -6t6 -20v-105h-136v131h107zM291 875q17 0 23 -6t6 -20v-105h-136v131h107z" />
    <glyph glyph-name="Imacron" unicode="&#x12a;" horiz-adv-x="290" 
d="M223 0h-156v663h156v-663zM-16 758v107h323v-107h-323z" />
    <glyph glyph-name="Ibreve" unicode="&#x12c;" horiz-adv-x="290" 
d="M223 0h-156v663h156v-663zM145 731q-38 0 -68.5 11.5t-52 32.5t-35 49t-17.5 61l92 15q12 -33 31 -50t50 -17t50 17t31 50l92 -15q-4 -33 -17.5 -61t-35 -49t-52 -32.5t-68.5 -11.5z" />
    <glyph glyph-name="Idotaccent" unicode="&#x130;" horiz-adv-x="290" 
d="M223 0h-156v663h156v-663zM185 868q18 0 24 -6t6 -21v-108h-140v135h110z" />
    <glyph glyph-name="Iogonek" unicode="&#x12e;" horiz-adv-x="290" 
d="M67 663h156v-663h-24q-19 0 -33.5 -7.5t-24 -19t-14.5 -26t-5 -27.5q0 -26 16 -37.5t47 -11.5q25 0 58 6q6 -18 11.5 -36.5t10.5 -36.5q-26 -14 -55.5 -21t-55.5 -7q-66 0 -103.5 31t-37.5 79q0 32 14 62t40 53v662z" />
    <glyph glyph-name="IJ" unicode="&#x132;" horiz-adv-x="811" 
d="M223 0h-156v663h156v-663zM338 152l65 -11q35 -6 63 -8.5t45 -2.5q51 0 69 21q9 11 12.5 27t3.5 43v442h156v-441q0 -59 -14 -101t-45 -73q-27 -27 -66 -42.5t-88 -15.5q-63 0 -121.5 17.5t-107.5 48.5z" />
    <glyph glyph-name="Jcircumflex" unicode="&#x134;" horiz-adv-x="521" 
d="M48 152l65 -11q35 -6 63 -8.5t45 -2.5q51 0 69 21q9 11 12.5 27t3.5 43v442h156v-441q0 -59 -14 -101t-45 -73q-27 -27 -66 -42.5t-88 -15.5q-63 0 -121.5 17.5t-107.5 48.5zM257 718l-56 54l128 130q8 8 14 10.5t17 2.5h48q11 0 17 -2.5t14 -10.5l128 -130l-56 -54
l-127 92z" />
    <glyph glyph-name="Kcommaaccent" unicode="&#x136;" horiz-adv-x="680" 
d="M306 292q-20 -14 -42.5 -27t-42.5 -21v-244h-156v663h156v-287l335 296l90 -94l-223 -193l255 -385h-160q-14 0 -19.5 3t-12.5 13zM371 -58q14 0 21 -10q10 -13 15 -27.5t5 -26.5q0 -14 -7 -33.5t-26 -56.5l-48 -94l-64 13l19 235h85z" />
    <glyph glyph-name="Lacute" unicode="&#x139;" horiz-adv-x="581" 
d="M65 663h156v-533h326v-130h-482v663zM9 780l180 142q12 9 18 9q9 0 19 -15l56 -83l-229 -115z" />
    <glyph glyph-name="Lcaron" unicode="&#x13d;" horiz-adv-x="581" 
d="M65 663h156v-533h326v-130h-482v663zM418 663q14 0 21 -10q10 -13 15 -27.5t5 -26.5q0 -14 -7 -33.5t-26 -56.5l-48 -94l-64 13l19 235h85z" />
    <glyph glyph-name="Lcommaaccent" unicode="&#x13b;" horiz-adv-x="581" 
d="M65 663h156v-533h326v-130h-482v663zM323 -58q14 0 21 -10q10 -13 15 -27.5t5 -26.5q0 -14 -7 -33.5t-26 -56.5l-48 -94l-64 13l19 235h85z" />
    <glyph glyph-name="Lslash" unicode="&#x141;" horiz-adv-x="652" 
d="M292 320v-190h326v-130h-482v228l-65 -42l-69 102l134 86v289h156v-199l136 88l68 -100z" />
    <glyph glyph-name="Ldot" unicode="&#x13f;" horiz-adv-x="581" 
d="M65 663h156v-533h326v-130h-482v663zM462 429q18 0 24 -6t6 -21v-108h-140v135h110z" />
    <glyph glyph-name="Nacute" unicode="&#x143;" horiz-adv-x="745" 
d="M564 0q-11 0 -16.5 2.5t-11.5 10.5l-220 275q-33 42 -61.5 78.5t-41.5 55.5h-1v-422h-147v663h117q11 0 16 -2.5t12 -10.5l220 -275q33 -42 61.5 -79t41.5 -56v423h147v-663h-116zM236 780l180 142q12 9 18 9q9 0 19 -15l56 -83l-229 -115z" />
    <glyph glyph-name="Ncaron" unicode="&#x147;" horiz-adv-x="745" 
d="M564 0q-11 0 -16.5 2.5t-11.5 10.5l-220 275q-33 42 -61.5 78.5t-41.5 55.5h-1v-422h-147v663h117q11 0 16 -2.5t12 -10.5l220 -275q33 -42 61.5 -79t41.5 -56v423h147v-663h-116zM372 834l127 92l56 -54l-128 -130q-8 -8 -14 -10.5t-17 -2.5h-48q-11 0 -17 2.5t-14 10.5
l-128 130l56 54z" />
    <glyph glyph-name="Ntilde" unicode="&#xd1;" horiz-adv-x="745" 
d="M564 0q-11 0 -16.5 2.5t-11.5 10.5l-220 275q-33 42 -61.5 78.5t-41.5 55.5h-1v-422h-147v663h117q11 0 16 -2.5t12 -10.5l220 -275q33 -42 61.5 -79t41.5 -56v423h147v-663h-116zM561 869q-3 -26 -12 -50t-24.5 -42t-36.5 -29t-48 -11q-22 0 -40.5 7.5t-34 16t-29 16
t-25.5 7.5q-15 0 -26 -13t-24 -38l-78 21q3 26 12 50t24.5 42t36.5 29t48 11q22 0 40.5 -7.5t34 -16t29 -16t25.5 -7.5q15 0 26 13t24 38z" />
    <glyph glyph-name="Ncommaaccent" unicode="&#x145;" horiz-adv-x="745" 
d="M564 0q-11 0 -16.5 2.5t-11.5 10.5l-220 275q-33 42 -61.5 78.5t-41.5 55.5h-1v-422h-147v663h117q11 0 16 -2.5t12 -10.5l220 -275q33 -42 61.5 -79t41.5 -56v423h147v-663h-116zM404 -58q14 0 21 -10q10 -13 15 -27.5t5 -26.5q0 -14 -7 -33.5t-26 -56.5l-48 -94l-64 13
l19 235h85z" />
    <glyph glyph-name="Eng" unicode="&#x14a;" horiz-adv-x="745" 
d="M212 0h-147v663h117q11 0 16 -2.5t12 -10.5l220 -275q33 -42 61.5 -79t41.5 -56v423h147v-689q0 -103 -49 -157.5t-150 -54.5q-20 0 -42 4t-42.5 10.5t-38.5 14.5t-30 16l26 98q12 -2 26.5 -3.5t29 -2.5t27 -2t20.5 -1q42 0 59 15t17 57v49l-217 271q-33 42 -61.5 78.5
t-41.5 55.5h-1v-422z" />
    <glyph glyph-name="Ograve" unicode="&#xd2;" horiz-adv-x="742" 
d="M708 331q0 -78 -27.5 -141.5t-73.5 -107.5t-107.5 -68t-128.5 -24q-68 0 -129 24t-107 68t-73.5 107.5t-27.5 141.5t27.5 141.5t73.5 108t107 68.5t129 24q67 0 128.5 -24t107.5 -68.5t73.5 -108t27.5 -141.5zM545 331q0 95 -46 142t-128 47t-128 -47.5t-46 -141.5
q0 -97 46 -142.5t128 -45.5t128 47t46 141zM463 718l-229 115l56 83q10 15 19 15q6 0 18 -9l180 -142z" />
    <glyph glyph-name="Oacute" unicode="&#xd3;" horiz-adv-x="742" 
d="M708 331q0 -78 -27.5 -141.5t-73.5 -107.5t-107.5 -68t-128.5 -24q-68 0 -129 24t-107 68t-73.5 107.5t-27.5 141.5t27.5 141.5t73.5 108t107 68.5t129 24q67 0 128.5 -24t107.5 -68.5t73.5 -108t27.5 -141.5zM545 331q0 95 -46 142t-128 47t-128 -47.5t-46 -141.5
q0 -97 46 -142.5t128 -45.5t128 47t46 141zM234 780l180 142q12 9 18 9q9 0 19 -15l56 -83l-229 -115z" />
    <glyph glyph-name="Ocircumflex" unicode="&#xd4;" horiz-adv-x="742" 
d="M708 331q0 -78 -27.5 -141.5t-73.5 -107.5t-107.5 -68t-128.5 -24q-68 0 -129 24t-107 68t-73.5 107.5t-27.5 141.5t27.5 141.5t73.5 108t107 68.5t129 24q67 0 128.5 -24t107.5 -68.5t73.5 -108t27.5 -141.5zM545 331q0 95 -46 142t-128 47t-128 -47.5t-46 -141.5
q0 -97 46 -142.5t128 -45.5t128 47t46 141zM244 718l-56 54l128 130q8 8 14 10.5t17 2.5h48q11 0 17 -2.5t14 -10.5l128 -130l-56 -54l-127 92z" />
    <glyph glyph-name="Otilde" unicode="&#xd5;" horiz-adv-x="742" 
d="M708 331q0 -78 -27.5 -141.5t-73.5 -107.5t-107.5 -68t-128.5 -24q-68 0 -129 24t-107 68t-73.5 107.5t-27.5 141.5t27.5 141.5t73.5 108t107 68.5t129 24q67 0 128.5 -24t107.5 -68.5t73.5 -108t27.5 -141.5zM545 331q0 95 -46 142t-128 47t-128 -47.5t-46 -141.5
q0 -97 46 -142.5t128 -45.5t128 47t46 141zM560 869q-3 -26 -12 -50t-24.5 -42t-36.5 -29t-48 -11q-22 0 -40.5 7.5t-34 16t-29 16t-25.5 7.5q-15 0 -26 -13t-24 -38l-78 21q3 26 12 50t24.5 42t36.5 29t48 11q22 0 40.5 -7.5t34 -16t29 -16t25.5 -7.5q15 0 26 13t24 38z
" />
    <glyph glyph-name="Odieresis" unicode="&#xd6;" horiz-adv-x="742" 
d="M708 331q0 -78 -27.5 -141.5t-73.5 -107.5t-107.5 -68t-128.5 -24q-68 0 -129 24t-107 68t-73.5 107.5t-27.5 141.5t27.5 141.5t73.5 108t107 68.5t129 24q67 0 128.5 -24t107.5 -68.5t73.5 -108t27.5 -141.5zM545 331q0 95 -46 142t-128 47t-128 -47.5t-46 -141.5
q0 -97 46 -142.5t128 -45.5t128 47t46 141zM303 875q17 0 23 -6t6 -20v-105h-136v131h107zM516 875q17 0 23 -6t6 -20v-105h-136v131h107z" />
    <glyph glyph-name="Omacron" unicode="&#x14c;" horiz-adv-x="742" 
d="M708 331q0 -78 -27.5 -141.5t-73.5 -107.5t-107.5 -68t-128.5 -24q-68 0 -129 24t-107 68t-73.5 107.5t-27.5 141.5t27.5 141.5t73.5 108t107 68.5t129 24q67 0 128.5 -24t107.5 -68.5t73.5 -108t27.5 -141.5zM545 331q0 95 -46 142t-128 47t-128 -47.5t-46 -141.5
q0 -97 46 -142.5t128 -45.5t128 47t46 141zM209 758v107h323v-107h-323z" />
    <glyph glyph-name="Obreve" unicode="&#x14e;" horiz-adv-x="742" 
d="M708 331q0 -78 -27.5 -141.5t-73.5 -107.5t-107.5 -68t-128.5 -24q-68 0 -129 24t-107 68t-73.5 107.5t-27.5 141.5t27.5 141.5t73.5 108t107 68.5t129 24q67 0 128.5 -24t107.5 -68.5t73.5 -108t27.5 -141.5zM545 331q0 95 -46 142t-128 47t-128 -47.5t-46 -141.5
q0 -97 46 -142.5t128 -45.5t128 47t46 141zM371 731q-38 0 -68.5 11.5t-52 32.5t-35 49t-17.5 61l92 15q12 -33 31 -50t50 -17t50 17t31 50l92 -15q-4 -33 -17.5 -61t-35 -49t-52 -32.5t-68.5 -11.5z" />
    <glyph glyph-name="Ohungarumlaut" unicode="&#x150;" horiz-adv-x="742" 
d="M708 331q0 -78 -27.5 -141.5t-73.5 -107.5t-107.5 -68t-128.5 -24q-68 0 -129 24t-107 68t-73.5 107.5t-27.5 141.5t27.5 141.5t73.5 108t107 68.5t129 24q67 0 128.5 -24t107.5 -68.5t73.5 -108t27.5 -141.5zM545 331q0 95 -46 142t-128 47t-128 -47.5t-46 -141.5
q0 -97 46 -142.5t128 -45.5t128 47t46 141zM386 905l-174 -172l-68 51l130 181q10 13 18 13q6 0 16 -8zM598 905l-174 -172l-68 51l130 181q10 13 18 13q6 0 16 -8z" />
    <glyph glyph-name="Oslash" unicode="&#xd8;" horiz-adv-x="742" 
d="M616 571q42 -45 67 -105t25 -135q0 -78 -27.5 -141.5t-73.5 -107.5t-107.5 -68t-128.5 -24q-47 0 -91 11t-82 33l-65 -84l-82 62l67 87q-39 44 -61.5 102t-22.5 130q0 78 27.5 141.5t73.5 108t107 68.5t129 24q87 0 162 -40l67 86l82 -62zM545 331q0 34 -7 63.5t-20 51.5
l-225 -290q32 -13 78 -13q82 0 128 49t46 139zM197 331q0 -30 4.5 -57t15.5 -48l220 284q-14 5 -31 7.5t-35 2.5q-82 0 -128 -49.5t-46 -139.5z" />
    <glyph glyph-name="Oslashacute" unicode="&#x1fe;" horiz-adv-x="742" 
d="M616 571q42 -45 67 -105t25 -135q0 -78 -27.5 -141.5t-73.5 -107.5t-107.5 -68t-128.5 -24q-47 0 -91 11t-82 33l-65 -84l-82 62l67 87q-39 44 -61.5 102t-22.5 130q0 78 27.5 141.5t73.5 108t107 68.5t129 24q87 0 162 -40l67 86l82 -62zM545 331q0 34 -7 63.5t-20 51.5
l-225 -290q32 -13 78 -13q82 0 128 49t46 139zM197 331q0 -30 4.5 -57t15.5 -48l220 284q-14 5 -31 7.5t-35 2.5q-82 0 -128 -49.5t-46 -139.5zM234 780l180 142q12 9 18 9q9 0 19 -15l56 -83l-229 -115z" />
    <glyph glyph-name="OE" unicode="&#x152;" horiz-adv-x="1096" 
d="M543 67q-35 -35 -83.5 -56t-107.5 -21q-63 0 -120.5 24t-101.5 68.5t-70 107.5t-26 141t26 141t70 107.5t101.5 69t120.5 24.5q59 0 107.5 -21t83.5 -56v67h493v-130h-337v-132h307v-128h-307v-143h347v-130h-503v67zM547 331q0 97 -47 143t-129 46t-128 -47.5
t-46 -141.5q0 -97 46 -142.5t128 -45.5t129 46t47 142z" />
    <glyph glyph-name="Thorn" unicode="&#xde;" horiz-adv-x="661" 
d="M221 0h-156v663h156v-101h117q75 0 133 -14t95 -51q27 -27 42 -67t15 -95q0 -54 -15 -97.5t-46 -73.5t-79.5 -45.5t-117.5 -15.5h-144v-103zM407 230q24 0 35 16t16.5 39.5t5.5 48.5q0 49 -21 70q-14 14 -37.5 20t-61.5 6h-123v-200h186z" />
    <glyph glyph-name="Racute" unicode="&#x154;" horiz-adv-x="684" 
d="M221 0h-156v663h273q82 0 138 -15t91 -48q55 -54 55 -154q0 -67 -30.5 -117.5t-78.5 -82.5l151 -246h-158q-11 0 -17 3.5t-11 11.5l-110 187q-6 10 -10 12t-16 2h-121v-216zM406 343q24 0 35 16t16 37t5 45q0 46 -22 67q-14 13 -37.5 18.5t-61.5 5.5h-120v-189h185z
M205 780l180 142q12 9 18 9q9 0 19 -15l56 -83l-229 -115z" />
    <glyph glyph-name="Rcaron" unicode="&#x158;" horiz-adv-x="684" 
d="M221 0h-156v663h273q82 0 138 -15t91 -48q55 -54 55 -154q0 -67 -30.5 -117.5t-78.5 -82.5l151 -246h-158q-11 0 -17 3.5t-11 11.5l-110 187q-6 10 -10 12t-16 2h-121v-216zM406 343q24 0 35 16t16 37t5 45q0 46 -22 67q-14 13 -37.5 18.5t-61.5 5.5h-120v-189h185z
M342 834l127 92l56 -54l-128 -130q-8 -8 -14 -10.5t-17 -2.5h-48q-11 0 -17 2.5t-14 10.5l-128 130l56 54z" />
    <glyph glyph-name="Rcommaaccent" unicode="&#x156;" horiz-adv-x="684" 
d="M221 0h-156v663h273q82 0 138 -15t91 -48q55 -54 55 -154q0 -67 -30.5 -117.5t-78.5 -82.5l151 -246h-158q-11 0 -17 3.5t-11 11.5l-110 187q-6 10 -10 12t-16 2h-121v-216zM406 343q24 0 35 16t16 37t5 45q0 46 -22 67q-14 13 -37.5 18.5t-61.5 5.5h-120v-189h185z
M373 -58q14 0 21 -10q10 -13 15 -27.5t5 -26.5q0 -14 -7 -33.5t-26 -56.5l-48 -94l-64 13l19 235h85z" />
    <glyph glyph-name="Sacute" unicode="&#x15a;" horiz-adv-x="611" 
d="M147 151q54 -12 95 -17t72 -5q52 0 80.5 18t28.5 50q0 14 -4.5 24t-15.5 17.5t-29.5 14t-46.5 14.5l-66 18q-53 15 -93.5 32.5t-68 41.5t-41.5 55t-14 72q0 48 20.5 83t56.5 58.5t83.5 34.5t101.5 11q63 0 124 -13t113 -36l-24 -106l-63 7q-37 4 -77 7t-65 3
q-63 0 -91 -11.5t-28 -37.5q0 -23 23.5 -35t73.5 -26l58 -16q62 -17 103 -34.5t67 -38.5q30 -25 42.5 -56t12.5 -73q0 -53 -19 -93t-53.5 -68t-83 -42t-106.5 -14q-36 0 -74.5 5.5t-75 15.5t-70.5 23.5t-62 30.5l38 103zM168 780l180 142q12 9 18 9q9 0 19 -15l56 -83
l-229 -115z" />
    <glyph glyph-name="Scircumflex" unicode="&#x15c;" horiz-adv-x="611" 
d="M147 151q54 -12 95 -17t72 -5q52 0 80.5 18t28.5 50q0 14 -4.5 24t-15.5 17.5t-29.5 14t-46.5 14.5l-66 18q-53 15 -93.5 32.5t-68 41.5t-41.5 55t-14 72q0 48 20.5 83t56.5 58.5t83.5 34.5t101.5 11q63 0 124 -13t113 -36l-24 -106l-63 7q-37 4 -77 7t-65 3
q-63 0 -91 -11.5t-28 -37.5q0 -23 23.5 -35t73.5 -26l58 -16q62 -17 103 -34.5t67 -38.5q30 -25 42.5 -56t12.5 -73q0 -53 -19 -93t-53.5 -68t-83 -42t-106.5 -14q-36 0 -74.5 5.5t-75 15.5t-70.5 23.5t-62 30.5l38 103zM178 718l-56 54l128 130q8 8 14 10.5t17 2.5h48
q11 0 17 -2.5t14 -10.5l128 -130l-56 -54l-127 92z" />
    <glyph glyph-name="Scaron" unicode="&#x160;" horiz-adv-x="611" 
d="M147 151q54 -12 95 -17t72 -5q52 0 80.5 18t28.5 50q0 14 -4.5 24t-15.5 17.5t-29.5 14t-46.5 14.5l-66 18q-53 15 -93.5 32.5t-68 41.5t-41.5 55t-14 72q0 48 20.5 83t56.5 58.5t83.5 34.5t101.5 11q63 0 124 -13t113 -36l-24 -106l-63 7q-37 4 -77 7t-65 3
q-63 0 -91 -11.5t-28 -37.5q0 -23 23.5 -35t73.5 -26l58 -16q62 -17 103 -34.5t67 -38.5q30 -25 42.5 -56t12.5 -73q0 -53 -19 -93t-53.5 -68t-83 -42t-106.5 -14q-36 0 -74.5 5.5t-75 15.5t-70.5 23.5t-62 30.5l38 103zM305 834l127 92l56 -54l-128 -130q-8 -8 -14 -10.5
t-17 -2.5h-48q-11 0 -17 2.5t-14 10.5l-128 130l56 54z" />
    <glyph glyph-name="Scedilla" unicode="&#x15e;" horiz-adv-x="611" 
d="M229 -65q0 14 8.5 29t22.5 29q-62 6 -122.5 25.5t-106.5 46.5l38 103l78 -17q54 -12 95 -17t72 -5q52 0 80.5 18t28.5 50q0 14 -4.5 24t-15.5 17.5t-29.5 14t-46.5 14.5l-66 18q-53 15 -93.5 32.5t-68 41.5t-41.5 55t-14 72q0 48 20.5 83t56.5 58.5t83.5 34.5t101.5 11
q63 0 124 -13t113 -36l-24 -106l-63 7q-37 4 -77 7t-65 3q-63 0 -91 -11.5t-28 -37.5q0 -23 23.5 -35t73.5 -26l58 -16q62 -17 103 -34.5t67 -38.5q30 -25 42.5 -56t12.5 -73q0 -49 -16.5 -87t-46.5 -65.5t-72.5 -43t-93.5 -19.5q-11 -15 -11 -26t16.5 -16.5t37 -13
t37 -22.5t16.5 -46q0 -48 -48.5 -80t-145.5 -32l-15 77l56 9q34 6 34 20q0 8 -14.5 13t-32.5 12t-32.5 18t-14.5 30z" />
    <glyph glyph-name="Scommaaccent" unicode="&#x218;" horiz-adv-x="611" 
d="M147 151q54 -12 95 -17t72 -5q52 0 80.5 18t28.5 50q0 14 -4.5 24t-15.5 17.5t-29.5 14t-46.5 14.5l-66 18q-53 15 -93.5 32.5t-68 41.5t-41.5 55t-14 72q0 48 20.5 83t56.5 58.5t83.5 34.5t101.5 11q63 0 124 -13t113 -36l-24 -106l-63 7q-37 4 -77 7t-65 3
q-63 0 -91 -11.5t-28 -37.5q0 -23 23.5 -35t73.5 -26l58 -16q62 -17 103 -34.5t67 -38.5q30 -25 42.5 -56t12.5 -73q0 -53 -19 -93t-53.5 -68t-83 -42t-106.5 -14q-36 0 -74.5 5.5t-75 15.5t-70.5 23.5t-62 30.5l38 103zM336 -58q14 0 21 -10q10 -13 15 -27.5t5 -26.5
q0 -14 -7 -33.5t-26 -56.5l-48 -94l-64 13l19 235h85z" />
    <glyph glyph-name="Tcaron" unicode="&#x164;" horiz-adv-x="632" 
d="M237 532h-221v131h598v-131h-221v-532h-156v532zM316 834l127 92l56 -54l-128 -130q-8 -8 -14 -10.5t-17 -2.5h-48q-11 0 -17 2.5t-14 10.5l-128 130l56 54z" />
    <glyph glyph-name="Tcommaaccent" unicode="&#x162;" horiz-adv-x="632" 
d="M237 532h-221v131h598v-131h-221v-532h-156v532zM347 -58q14 0 21 -10q10 -13 15 -27.5t5 -26.5q0 -14 -7 -33.5t-26 -56.5l-48 -94l-64 13l19 235h85z" />
    <glyph glyph-name="uni021A" unicode="&#x21a;" horiz-adv-x="632" 
d="M237 532h-221v131h598v-131h-221v-532h-156v532zM347 -58q14 0 21 -10q10 -13 15 -27.5t5 -26.5q0 -14 -7 -33.5t-26 -56.5l-48 -94l-64 13l19 235h85z" />
    <glyph glyph-name="Tbar" unicode="&#x166;" horiz-adv-x="632" 
d="M237 267h-132v109h132v156h-221v131h598v-131h-221v-156h132v-109h-132v-267h-156v267z" />
    <glyph glyph-name="Ugrave" unicode="&#xd9;" horiz-adv-x="712" 
d="M502 663h153v-393q0 -72 -18.5 -119t-53.5 -82q-40 -40 -98 -59.5t-129 -19.5t-129 19.5t-98 59.5q-35 35 -53.5 82t-18.5 119v393h156v-383q0 -36 7.5 -60t23.5 -41q35 -38 114 -38q38 0 66.5 9t46.5 29q16 17 23.5 41t7.5 60v383zM448 718l-229 115l56 83q10 15 19 15
q6 0 18 -9l180 -142z" />
    <glyph glyph-name="Uacute" unicode="&#xda;" horiz-adv-x="712" 
d="M502 663h153v-393q0 -72 -18.5 -119t-53.5 -82q-40 -40 -98 -59.5t-129 -19.5t-129 19.5t-98 59.5q-35 35 -53.5 82t-18.5 119v393h156v-383q0 -36 7.5 -60t23.5 -41q35 -38 114 -38q38 0 66.5 9t46.5 29q16 17 23.5 41t7.5 60v383zM219 780l180 142q12 9 18 9
q9 0 19 -15l56 -83l-229 -115z" />
    <glyph glyph-name="Ucircumflex" unicode="&#xdb;" horiz-adv-x="712" 
d="M502 663h153v-393q0 -72 -18.5 -119t-53.5 -82q-40 -40 -98 -59.5t-129 -19.5t-129 19.5t-98 59.5q-35 35 -53.5 82t-18.5 119v393h156v-383q0 -36 7.5 -60t23.5 -41q35 -38 114 -38q38 0 66.5 9t46.5 29q16 17 23.5 41t7.5 60v383zM229 718l-56 54l128 130q8 8 14 10.5
t17 2.5h48q11 0 17 -2.5t14 -10.5l128 -130l-56 -54l-127 92z" />
    <glyph glyph-name="Utilde" unicode="&#x168;" horiz-adv-x="712" 
d="M502 663h153v-393q0 -72 -18.5 -119t-53.5 -82q-40 -40 -98 -59.5t-129 -19.5t-129 19.5t-98 59.5q-35 35 -53.5 82t-18.5 119v393h156v-383q0 -36 7.5 -60t23.5 -41q35 -38 114 -38q38 0 66.5 9t46.5 29q16 17 23.5 41t7.5 60v383zM545 869q-3 -26 -12 -50t-24.5 -42
t-36.5 -29t-48 -11q-22 0 -40.5 7.5t-34 16t-29 16t-25.5 7.5q-15 0 -26 -13t-24 -38l-78 21q3 26 12 50t24.5 42t36.5 29t48 11q22 0 40.5 -7.5t34 -16t29 -16t25.5 -7.5q15 0 26 13t24 38z" />
    <glyph glyph-name="Udieresis" unicode="&#xdc;" horiz-adv-x="712" 
d="M502 663h153v-393q0 -72 -18.5 -119t-53.5 -82q-40 -40 -98 -59.5t-129 -19.5t-129 19.5t-98 59.5q-35 35 -53.5 82t-18.5 119v393h156v-383q0 -36 7.5 -60t23.5 -41q35 -38 114 -38q38 0 66.5 9t46.5 29q16 17 23.5 41t7.5 60v383zM288 875q17 0 23 -6t6 -20v-105h-136
v131h107zM501 875q17 0 23 -6t6 -20v-105h-136v131h107z" />
    <glyph glyph-name="Umacron" unicode="&#x16a;" horiz-adv-x="712" 
d="M502 663h153v-393q0 -72 -18.5 -119t-53.5 -82q-40 -40 -98 -59.5t-129 -19.5t-129 19.5t-98 59.5q-35 35 -53.5 82t-18.5 119v393h156v-383q0 -36 7.5 -60t23.5 -41q35 -38 114 -38q38 0 66.5 9t46.5 29q16 17 23.5 41t7.5 60v383zM194 758v107h323v-107h-323z" />
    <glyph glyph-name="Ubreve" unicode="&#x16c;" horiz-adv-x="712" 
d="M502 663h153v-393q0 -72 -18.5 -119t-53.5 -82q-40 -40 -98 -59.5t-129 -19.5t-129 19.5t-98 59.5q-35 35 -53.5 82t-18.5 119v393h156v-383q0 -36 7.5 -60t23.5 -41q35 -38 114 -38q38 0 66.5 9t46.5 29q16 17 23.5 41t7.5 60v383zM356 731q-38 0 -68.5 11.5t-52 32.5
t-35 49t-17.5 61l92 15q12 -33 31 -50t50 -17t50 17t31 50l92 -15q-4 -33 -17.5 -61t-35 -49t-52 -32.5t-68.5 -11.5z" />
    <glyph glyph-name="Uring" unicode="&#x16e;" horiz-adv-x="712" 
d="M502 663h153v-393q0 -72 -18.5 -119t-53.5 -82q-40 -40 -98 -59.5t-129 -19.5t-129 19.5t-98 59.5q-35 35 -53.5 82t-18.5 119v393h156v-383q0 -36 7.5 -60t23.5 -41q35 -38 114 -38q38 0 66.5 9t46.5 29q16 17 23.5 41t7.5 60v383zM356 982q59 0 97 -35t38 -94t-38 -94
t-97 -35t-97 35t-38 94t38 94t97 35zM356 804q28 0 39.5 13t11.5 36t-11.5 36t-39.5 13t-39.5 -13t-11.5 -36t11.5 -36t39.5 -13z" />
    <glyph glyph-name="Uhungarumlaut" unicode="&#x170;" horiz-adv-x="712" 
d="M502 663h153v-393q0 -72 -18.5 -119t-53.5 -82q-40 -40 -98 -59.5t-129 -19.5t-129 19.5t-98 59.5q-35 35 -53.5 82t-18.5 119v393h156v-383q0 -36 7.5 -60t23.5 -41q35 -38 114 -38q38 0 66.5 9t46.5 29q16 17 23.5 41t7.5 60v383zM371 905l-174 -172l-68 51l130 181
q10 13 18 13q6 0 16 -8zM583 905l-174 -172l-68 51l130 181q10 13 18 13q6 0 16 -8z" />
    <glyph glyph-name="Uogonek" unicode="&#x172;" horiz-adv-x="712" 
d="M129 69q-35 35 -53.5 82t-18.5 119v393h156v-383q0 -36 7.5 -60t23.5 -41q35 -38 114 -38q38 0 66.5 9t46.5 29q16 17 23.5 41t7.5 60v383h153v-387q0 -79 -20.5 -128t-51.5 -78.5t-66.5 -46t-66.5 -30t-51.5 -30t-20.5 -46.5q0 -46 63 -46q25 0 58 6l22 -73
q-26 -14 -55.5 -21t-55.5 -7q-66 0 -103.5 31t-37.5 79q0 33 15 59t39 46q-60 5 -109.5 24t-84.5 54z" />
    <glyph glyph-name="Wgrave" unicode="&#x1e80;" horiz-adv-x="1021" 
d="M564 663q9 0 13 -2.5t7 -11.5l67 -225q24 -82 42.5 -152t26.5 -111q9 41 27.5 109.5t43.5 149.5l70 229q4 14 19 14h139l-210 -663h-160q-20 0 -24 15l-47 164q-11 40 -22 79.5t-20 75t-16 65t-11 50.5q-4 -21 -11.5 -53.5t-17 -70.5t-20 -77.5t-20.5 -75.5l-49 -172
h-161q-20 0 -24 15l-204 648h146q9 0 13 -2.5t7 -11.5l67 -222q9 -31 19.5 -66.5t20 -71.5t18 -69t13.5 -59q10 54 28.5 125.5t40.5 146.5l68 230h121zM603 718l-229 115l56 83q10 15 19 15q6 0 18 -9l180 -142z" />
    <glyph glyph-name="Wacute" unicode="&#x1e82;" horiz-adv-x="1021" 
d="M564 663q9 0 13 -2.5t7 -11.5l67 -225q24 -82 42.5 -152t26.5 -111q9 41 27.5 109.5t43.5 149.5l70 229q4 14 19 14h139l-210 -663h-160q-20 0 -24 15l-47 164q-11 40 -22 79.5t-20 75t-16 65t-11 50.5q-4 -21 -11.5 -53.5t-17 -70.5t-20 -77.5t-20.5 -75.5l-49 -172
h-161q-20 0 -24 15l-204 648h146q9 0 13 -2.5t7 -11.5l67 -222q9 -31 19.5 -66.5t20 -71.5t18 -69t13.5 -59q10 54 28.5 125.5t40.5 146.5l68 230h121zM374 780l180 142q12 9 18 9q9 0 19 -15l56 -83l-229 -115z" />
    <glyph glyph-name="Wcircumflex" unicode="&#x174;" horiz-adv-x="1021" 
d="M564 663q9 0 13 -2.5t7 -11.5l67 -225q24 -82 42.5 -152t26.5 -111q9 41 27.5 109.5t43.5 149.5l70 229q4 14 19 14h139l-210 -663h-160q-20 0 -24 15l-47 164q-11 40 -22 79.5t-20 75t-16 65t-11 50.5q-4 -21 -11.5 -53.5t-17 -70.5t-20 -77.5t-20.5 -75.5l-49 -172
h-161q-20 0 -24 15l-204 648h146q9 0 13 -2.5t7 -11.5l67 -222q9 -31 19.5 -66.5t20 -71.5t18 -69t13.5 -59q10 54 28.5 125.5t40.5 146.5l68 230h121zM383 718l-56 54l128 130q8 8 14 10.5t17 2.5h48q11 0 17 -2.5t14 -10.5l128 -130l-56 -54l-127 92z" />
    <glyph glyph-name="Wdieresis" unicode="&#x1e84;" horiz-adv-x="1021" 
d="M564 663q9 0 13 -2.5t7 -11.5l67 -225q24 -82 42.5 -152t26.5 -111q9 41 27.5 109.5t43.5 149.5l70 229q4 14 19 14h139l-210 -663h-160q-20 0 -24 15l-47 164q-11 40 -22 79.5t-20 75t-16 65t-11 50.5q-4 -21 -11.5 -53.5t-17 -70.5t-20 -77.5t-20.5 -75.5l-49 -172
h-161q-20 0 -24 15l-204 648h146q9 0 13 -2.5t7 -11.5l67 -222q9 -31 19.5 -66.5t20 -71.5t18 -69t13.5 -59q10 54 28.5 125.5t40.5 146.5l68 230h121zM443 875q17 0 23 -6t6 -20v-105h-136v131h107zM656 875q17 0 23 -6t6 -20v-105h-136v131h107z" />
    <glyph glyph-name="Ygrave" unicode="&#x1ef2;" horiz-adv-x="688" 
d="M348 341q16 35 38.5 78t52.5 97l73 132q5 8 9.5 11.5t13.5 3.5h157l-268 -456v-207h-156v207l-272 456h164q9 0 13 -2.5t9 -10.5l77 -137q29 -51 51 -94t38 -78zM436 718l-229 115l56 83q10 15 19 15q6 0 18 -9l180 -142z" />
    <glyph glyph-name="Yacute" unicode="&#xdd;" horiz-adv-x="688" 
d="M348 341q16 35 38.5 78t52.5 97l73 132q5 8 9.5 11.5t13.5 3.5h157l-268 -456v-207h-156v207l-272 456h164q9 0 13 -2.5t9 -10.5l77 -137q29 -51 51 -94t38 -78zM207 780l180 142q12 9 18 9q9 0 19 -15l56 -83l-229 -115z" />
    <glyph glyph-name="Ycircumflex" unicode="&#x176;" horiz-adv-x="688" 
d="M348 341q16 35 38.5 78t52.5 97l73 132q5 8 9.5 11.5t13.5 3.5h157l-268 -456v-207h-156v207l-272 456h164q9 0 13 -2.5t9 -10.5l77 -137q29 -51 51 -94t38 -78zM217 718l-56 54l128 130q8 8 14 10.5t17 2.5h48q11 0 17 -2.5t14 -10.5l128 -130l-56 -54l-127 92z" />
    <glyph glyph-name="Ydieresis" unicode="&#x178;" horiz-adv-x="688" 
d="M348 341q16 35 38.5 78t52.5 97l73 132q5 8 9.5 11.5t13.5 3.5h157l-268 -456v-207h-156v207l-272 456h164q9 0 13 -2.5t9 -10.5l77 -137q29 -51 51 -94t38 -78zM276 875q17 0 23 -6t6 -20v-105h-136v131h107zM489 875q17 0 23 -6t6 -20v-105h-136v131h107z" />
    <glyph glyph-name="Zacute" unicode="&#x179;" horiz-adv-x="629" 
d="M42 532v131h539v-89q0 -12 -3 -19t-12 -19l-231 -291q-24 -31 -50.5 -62t-46.5 -53h347v-130h-543v89q0 12 2.5 18.5t12.5 19.5l231 291q17 22 31 38.5t25 29.5t21 24l20 22h-343zM178 780l180 142q12 9 18 9q9 0 19 -15l56 -83l-229 -115z" />
    <glyph glyph-name="Zcaron" unicode="&#x17d;" horiz-adv-x="629" 
d="M42 532v131h539v-89q0 -12 -3 -19t-12 -19l-231 -291q-24 -31 -50.5 -62t-46.5 -53h347v-130h-543v89q0 12 2.5 18.5t12.5 19.5l231 291q17 22 31 38.5t25 29.5t21 24l20 22h-343zM314 834l127 92l56 -54l-128 -130q-8 -8 -14 -10.5t-17 -2.5h-48q-11 0 -17 2.5t-14 10.5
l-128 130l56 54z" />
    <glyph glyph-name="Zdotaccent" unicode="&#x17b;" horiz-adv-x="629" 
d="M42 532v131h539v-89q0 -12 -3 -19t-12 -19l-231 -291q-24 -31 -50.5 -62t-46.5 -53h347v-130h-543v89q0 12 2.5 18.5t12.5 19.5l231 291q17 22 31 38.5t25 29.5t21 24l20 22h-343zM354 868q18 0 24 -6t6 -21v-108h-140v135h110z" />
    <glyph glyph-name="agrave" unicode="&#xe0;" horiz-adv-x="554" 
d="M330 307q0 32 -14 46q-10 10 -27.5 14.5t-38.5 4.5q-45 0 -102 -17l-58 -17l-42 79q47 35 103.5 57t116.5 22q49 0 91 -14t70 -43q23 -23 35 -56t12 -82v-189l66 -15v-77q-19 -9 -46.5 -16t-49.5 -7q-26 0 -47.5 11.5t-43.5 32.5l-28 -15q-63 -34 -123 -34
q-40 0 -73 12.5t-57 34t-37 51.5t-13 65t13 61.5t35.5 44t53.5 26t67 8.5q32 0 69 -6.5t68 -17.5v36zM330 184q0 9 -9 9h-129q-18 0 -25 -8q-6 -8 -6 -23q0 -26 19 -41.5t54 -15.5q22 0 46.5 5.5t41.5 13.5q8 4 8 15v45zM367 544l-229 115l56 83q10 15 19 15q6 0 18 -9
l180 -142z" />
    <glyph glyph-name="aacute" unicode="&#xe1;" horiz-adv-x="554" 
d="M330 307q0 32 -14 46q-10 10 -27.5 14.5t-38.5 4.5q-45 0 -102 -17l-58 -17l-42 79q47 35 103.5 57t116.5 22q49 0 91 -14t70 -43q23 -23 35 -56t12 -82v-189l66 -15v-77q-19 -9 -46.5 -16t-49.5 -7q-26 0 -47.5 11.5t-43.5 32.5l-28 -15q-63 -34 -123 -34
q-40 0 -73 12.5t-57 34t-37 51.5t-13 65t13 61.5t35.5 44t53.5 26t67 8.5q32 0 69 -6.5t68 -17.5v36zM330 184q0 9 -9 9h-129q-18 0 -25 -8q-6 -8 -6 -23q0 -26 19 -41.5t54 -15.5q22 0 46.5 5.5t41.5 13.5q8 4 8 15v45zM138 606l180 142q12 9 18 9q9 0 19 -15l56 -83
l-229 -115z" />
    <glyph glyph-name="acircumflex" unicode="&#xe2;" horiz-adv-x="554" 
d="M330 307q0 32 -14 46q-10 10 -27.5 14.5t-38.5 4.5q-45 0 -102 -17l-58 -17l-42 79q47 35 103.5 57t116.5 22q49 0 91 -14t70 -43q23 -23 35 -56t12 -82v-189l66 -15v-77q-19 -9 -46.5 -16t-49.5 -7q-26 0 -47.5 11.5t-43.5 32.5l-28 -15q-63 -34 -123 -34
q-40 0 -73 12.5t-57 34t-37 51.5t-13 65t13 61.5t35.5 44t53.5 26t67 8.5q32 0 69 -6.5t68 -17.5v36zM330 184q0 9 -9 9h-129q-18 0 -25 -8q-6 -8 -6 -23q0 -26 19 -41.5t54 -15.5q22 0 46.5 5.5t41.5 13.5q8 4 8 15v45zM147 544l-56 54l128 130q8 8 14 10.5t17 2.5h48
q11 0 17 -2.5t14 -10.5l128 -130l-56 -54l-127 92z" />
    <glyph glyph-name="atilde" unicode="&#xe3;" horiz-adv-x="554" 
d="M330 307q0 32 -14 46q-10 10 -27.5 14.5t-38.5 4.5q-45 0 -102 -17l-58 -17l-42 79q47 35 103.5 57t116.5 22q49 0 91 -14t70 -43q23 -23 35 -56t12 -82v-189l66 -15v-77q-19 -9 -46.5 -16t-49.5 -7q-26 0 -47.5 11.5t-43.5 32.5l-28 -15q-63 -34 -123 -34
q-40 0 -73 12.5t-57 34t-37 51.5t-13 65t13 61.5t35.5 44t53.5 26t67 8.5q32 0 69 -6.5t68 -17.5v36zM330 184q0 9 -9 9h-129q-18 0 -25 -8q-6 -8 -6 -23q0 -26 19 -41.5t54 -15.5q22 0 46.5 5.5t41.5 13.5q8 4 8 15v45zM463 695q-3 -26 -12 -50t-24.5 -42t-36.5 -29
t-48 -11q-22 0 -40.5 7.5t-34 16t-29 16t-25.5 7.5q-15 0 -26 -13t-24 -38l-78 21q3 26 12 50t24.5 42t36.5 29t48 11q22 0 40.5 -7.5t34 -16t29 -16t25.5 -7.5q15 0 26 13t24 38z" />
    <glyph glyph-name="adieresis" unicode="&#xe4;" horiz-adv-x="554" 
d="M330 307q0 32 -14 46q-10 10 -27.5 14.5t-38.5 4.5q-45 0 -102 -17l-58 -17l-42 79q47 35 103.5 57t116.5 22q49 0 91 -14t70 -43q23 -23 35 -56t12 -82v-189l66 -15v-77q-19 -9 -46.5 -16t-49.5 -7q-26 0 -47.5 11.5t-43.5 32.5l-28 -15q-63 -34 -123 -34
q-40 0 -73 12.5t-57 34t-37 51.5t-13 65t13 61.5t35.5 44t53.5 26t67 8.5q32 0 69 -6.5t68 -17.5v36zM330 184q0 9 -9 9h-129q-18 0 -25 -8q-6 -8 -6 -23q0 -26 19 -41.5t54 -15.5q22 0 46.5 5.5t41.5 13.5q8 4 8 15v45zM207 701q17 0 23 -6t6 -20v-105h-136v131h107z
M420 701q17 0 23 -6t6 -20v-105h-136v131h107z" />
    <glyph glyph-name="amacron" unicode="&#x101;" horiz-adv-x="554" 
d="M330 307q0 32 -14 46q-10 10 -27.5 14.5t-38.5 4.5q-45 0 -102 -17l-58 -17l-42 79q47 35 103.5 57t116.5 22q49 0 91 -14t70 -43q23 -23 35 -56t12 -82v-189l66 -15v-77q-19 -9 -46.5 -16t-49.5 -7q-26 0 -47.5 11.5t-43.5 32.5l-28 -15q-63 -34 -123 -34
q-40 0 -73 12.5t-57 34t-37 51.5t-13 65t13 61.5t35.5 44t53.5 26t67 8.5q32 0 69 -6.5t68 -17.5v36zM330 184q0 9 -9 9h-129q-18 0 -25 -8q-6 -8 -6 -23q0 -26 19 -41.5t54 -15.5q22 0 46.5 5.5t41.5 13.5q8 4 8 15v45zM113 584v107h323v-107h-323z" />
    <glyph glyph-name="abreve" unicode="&#x103;" horiz-adv-x="554" 
d="M330 307q0 32 -14 46q-10 10 -27.5 14.5t-38.5 4.5q-45 0 -102 -17l-58 -17l-42 79q47 35 103.5 57t116.5 22q49 0 91 -14t70 -43q23 -23 35 -56t12 -82v-189l66 -15v-77q-19 -9 -46.5 -16t-49.5 -7q-26 0 -47.5 11.5t-43.5 32.5l-28 -15q-63 -34 -123 -34
q-40 0 -73 12.5t-57 34t-37 51.5t-13 65t13 61.5t35.5 44t53.5 26t67 8.5q32 0 69 -6.5t68 -17.5v36zM330 184q0 9 -9 9h-129q-18 0 -25 -8q-6 -8 -6 -23q0 -26 19 -41.5t54 -15.5q22 0 46.5 5.5t41.5 13.5q8 4 8 15v45zM274 557q-38 0 -68.5 11.5t-52 32.5t-35 49t-17.5 61
l92 15q12 -33 31 -50t50 -17t50 17t31 50l92 -15q-4 -33 -17.5 -61t-35 -49t-52 -32.5t-68.5 -11.5z" />
    <glyph glyph-name="acaron" unicode="&#x1ce;" horiz-adv-x="554" 
d="M330 307q0 32 -14 46q-10 10 -27.5 14.5t-38.5 4.5q-45 0 -102 -17l-58 -17l-42 79q47 35 103.5 57t116.5 22q49 0 91 -14t70 -43q23 -23 35 -56t12 -82v-189l66 -15v-77q-19 -9 -46.5 -16t-49.5 -7q-26 0 -47.5 11.5t-43.5 32.5l-28 -15q-63 -34 -123 -34
q-40 0 -73 12.5t-57 34t-37 51.5t-13 65t13 61.5t35.5 44t53.5 26t67 8.5q32 0 69 -6.5t68 -17.5v36zM330 184q0 9 -9 9h-129q-18 0 -25 -8q-6 -8 -6 -23q0 -26 19 -41.5t54 -15.5q22 0 46.5 5.5t41.5 13.5q8 4 8 15v45zM274 652l127 92l56 -54l-128 -130q-8 -8 -14 -10.5
t-17 -2.5h-48q-11 0 -17 2.5t-14 10.5l-128 130l56 54z" />
    <glyph glyph-name="aring" unicode="&#xe5;" horiz-adv-x="554" 
d="M330 307q0 32 -14 46q-10 10 -27.5 14.5t-38.5 4.5q-45 0 -102 -17l-58 -17l-42 79q47 35 103.5 57t116.5 22q49 0 91 -14t70 -43q23 -23 35 -56t12 -82v-189l66 -15v-77q-19 -9 -46.5 -16t-49.5 -7q-26 0 -47.5 11.5t-43.5 32.5l-28 -15q-63 -34 -123 -34
q-40 0 -73 12.5t-57 34t-37 51.5t-13 65t13 61.5t35.5 44t53.5 26t67 8.5q32 0 69 -6.5t68 -17.5v36zM330 184q0 9 -9 9h-129q-18 0 -25 -8q-6 -8 -6 -23q0 -26 19 -41.5t54 -15.5q22 0 46.5 5.5t41.5 13.5q8 4 8 15v45zM274 809q59 0 97 -35t38 -94t-38 -94t-97 -35t-97 35
t-38 94t38 94t97 35zM274 631q28 0 39.5 13t11.5 36t-11.5 36t-39.5 13t-39.5 -13t-11.5 -36t11.5 -36t39.5 -13z" />
    <glyph glyph-name="aringacute" unicode="&#x1fb;" horiz-adv-x="554" 
d="M330 307q0 32 -14 46q-10 10 -27.5 14.5t-38.5 4.5q-45 0 -102 -17l-58 -17l-42 79q47 35 103.5 57t116.5 22q49 0 91 -14t70 -43q23 -23 35 -56t12 -82v-189l66 -15v-77q-19 -9 -46.5 -16t-49.5 -7q-26 0 -47.5 11.5t-43.5 32.5l-28 -15q-63 -34 -123 -34
q-40 0 -73 12.5t-57 34t-37 51.5t-13 65t13 61.5t35.5 44t53.5 26t67 8.5q32 0 69 -6.5t68 -17.5v36zM330 184q0 9 -9 9h-129q-18 0 -25 -8q-6 -8 -6 -23q0 -26 19 -41.5t54 -15.5q22 0 46.5 5.5t41.5 13.5q8 4 8 15v45zM274 781q59 0 97 -35t38 -94t-38 -94t-97 -35t-97 35
t-38 94t38 94t97 35zM274 603q28 0 39.5 13t11.5 36t-11.5 36t-39.5 13t-39.5 -13t-11.5 -36t11.5 -36t39.5 -13zM141 848l180 142q12 9 18 9q9 0 19 -15l56 -83l-229 -115z" />
    <glyph glyph-name="aogonek" unicode="&#x105;" horiz-adv-x="554" 
d="M355 41l-28 -15q-63 -34 -124 -34q-40 0 -73 12.5t-56.5 34t-36.5 51.5t-13 65t12.5 61.5t35 44t53.5 26t67 8.5q32 0 69.5 -6.5t68.5 -17.5v36q0 32 -14 46q-10 10 -27.5 14.5t-38.5 4.5q-45 0 -102 -17l-58 -17l-42 79q47 35 103.5 57t116.5 22q49 0 91 -14t70 -43
q23 -23 35 -56t12 -82v-189l66 -15v-77q-72 -21 -112.5 -49.5t-40.5 -58.5q0 -46 63 -46q25 0 58 6l22 -73q-26 -14 -55.5 -21t-55.5 -7q-66 0 -103.5 31t-37.5 79q0 43 29.5 78t77.5 56q-8 5 -16 11.5t-16 14.5zM330 184q0 9 -9 9h-129q-18 0 -25 -8q-6 -8 -6 -23
q0 -26 19 -41.5t54 -15.5q22 0 46.5 5.5t41.5 13.5q8 4 8 15v45z" />
    <glyph glyph-name="ae" unicode="&#xe6;" horiz-adv-x="845" 
d="M578 -8q-53 0 -97 16.5t-76 46.5l-36 -20q-37 -21 -73 -32.5t-76 -10.5q-41 0 -76 12t-61 33.5t-40.5 52t-14.5 67.5q0 35 13 61.5t35.5 44.5t53 27t66.5 9h3q32 0 67 -6t64 -17v31q0 32 -14 46q-10 10 -27.5 14.5t-38.5 4.5q-45 0 -102 -17l-58 -17l-42 79
q47 35 103.5 57t113.5 22q42 0 82 -15t67 -41q32 27 73 41.5t89 14.5q52 0 96 -19t75.5 -51.5t49 -75t17.5 -90.5q0 -38 -5.5 -49.5t-18.5 -11.5h-312q6 -37 35.5 -59.5t81.5 -22.5q21 0 46.5 4.5t48.5 12.5l68 21l44 -80q-43 -38 -101.5 -60.5t-122.5 -22.5zM240 104
q29 0 59.5 8t52.5 19q-7 16 -12 33t-7 35h-133q-20 0 -28 -9t-8 -26q0 -24 19.5 -42t56.5 -18zM576 376q-40 0 -66.5 -22t-31.5 -57h193q-5 35 -30.5 57t-64.5 22z" />
    <glyph glyph-name="aeacute" unicode="&#x1fd;" horiz-adv-x="845" 
d="M578 -8q-53 0 -97 16.5t-76 46.5l-36 -20q-37 -21 -73 -32.5t-76 -10.5q-41 0 -76 12t-61 33.5t-40.5 52t-14.5 67.5q0 35 13 61.5t35.5 44.5t53 27t66.5 9h3q32 0 67 -6t64 -17v31q0 32 -14 46q-10 10 -27.5 14.5t-38.5 4.5q-45 0 -102 -17l-58 -17l-42 79
q47 35 103.5 57t113.5 22q42 0 82 -15t67 -41q32 27 73 41.5t89 14.5q52 0 96 -19t75.5 -51.5t49 -75t17.5 -90.5q0 -38 -5.5 -49.5t-18.5 -11.5h-312q6 -37 35.5 -59.5t81.5 -22.5q21 0 46.5 4.5t48.5 12.5l68 21l44 -80q-43 -38 -101.5 -60.5t-122.5 -22.5zM240 104
q29 0 59.5 8t52.5 19q-7 16 -12 33t-7 35h-133q-20 0 -28 -9t-8 -26q0 -24 19.5 -42t56.5 -18zM576 376q-40 0 -66.5 -22t-31.5 -57h193q-5 35 -30.5 57t-64.5 22zM294 606l180 142q12 9 18 9q9 0 19 -15l56 -83l-229 -115z" />
    <glyph glyph-name="cacute" unicode="&#x107;" horiz-adv-x="521" 
d="M502 90q-20 -20 -45 -37.5t-54 -31t-62 -21.5t-68 -8q-56 0 -101 18t-77 51.5t-49.5 80.5t-17.5 104t20 103.5t53 79t76.5 50t90.5 17.5q44 0 81.5 -13t66.5 -36t49 -54.5t29 -68.5l-95 -46l-43 41q-29 29 -47.5 39t-43.5 10q-36 0 -62 -30t-26 -90q0 -66 28.5 -97
t84.5 -31q44 0 104 24l62 24zM124 606l180 142q12 9 18 9q9 0 19 -15l56 -83l-229 -115z" />
    <glyph glyph-name="ccedilla" unicode="&#xe7;" horiz-adv-x="520" 
d="M187 -65q0 15 10 31t26 30q-90 15 -142 81.5t-52 168.5q0 57 19.5 103.5t52.5 79t76.5 50t90.5 17.5q44 0 81.5 -13t66.5 -36t49 -54.5t29 -68.5l-95 -46l-43 41q-29 29 -47.5 39t-43.5 10q-36 0 -62 -30t-26 -90q0 -66 28.5 -96.5t84.5 -30.5q44 0 104 24l62 24l46 -78
q-35 -35 -85.5 -62.5t-110.5 -34.5q-13 -17 -13 -28t16.5 -16.5t37 -13t37 -22.5t16.5 -46q0 -48 -48.5 -80t-145.5 -32l-15 77l56 9q34 6 34 20q0 8 -14.5 13t-32.5 12t-32.5 18t-14.5 30z" />
    <glyph glyph-name="ccircumflex" unicode="&#x109;" horiz-adv-x="521" 
d="M502 90q-20 -20 -45 -37.5t-54 -31t-62 -21.5t-68 -8q-56 0 -101 18t-77 51.5t-49.5 80.5t-17.5 104t20 103.5t53 79t76.5 50t90.5 17.5q44 0 81.5 -13t66.5 -36t49 -54.5t29 -68.5l-95 -46l-43 41q-29 29 -47.5 39t-43.5 10q-36 0 -62 -30t-26 -90q0 -66 28.5 -97
t84.5 -31q44 0 104 24l62 24zM133 544l-56 54l128 130q8 8 14 10.5t17 2.5h48q11 0 17 -2.5t14 -10.5l128 -130l-56 -54l-127 92z" />
    <glyph glyph-name="ccaron" unicode="&#x10d;" horiz-adv-x="521" 
d="M502 90q-20 -20 -45 -37.5t-54 -31t-62 -21.5t-68 -8q-56 0 -101 18t-77 51.5t-49.5 80.5t-17.5 104t20 103.5t53 79t76.5 50t90.5 17.5q44 0 81.5 -13t66.5 -36t49 -54.5t29 -68.5l-95 -46l-43 41q-29 29 -47.5 39t-43.5 10q-36 0 -62 -30t-26 -90q0 -66 28.5 -97
t84.5 -31q44 0 104 24l62 24zM268 652l127 92l56 -54l-128 -130q-8 -8 -14 -10.5t-17 -2.5h-48q-11 0 -17 2.5t-14 10.5l-128 130l56 54z" />
    <glyph glyph-name="cdotaccent" unicode="&#x10b;" horiz-adv-x="521" 
d="M502 90q-20 -20 -45 -37.5t-54 -31t-62 -21.5t-68 -8q-56 0 -101 18t-77 51.5t-49.5 80.5t-17.5 104t20 103.5t53 79t76.5 50t90.5 17.5q44 0 81.5 -13t66.5 -36t49 -54.5t29 -68.5l-95 -46l-43 41q-29 29 -47.5 39t-43.5 10q-36 0 -62 -30t-26 -90q0 -66 28.5 -97
t84.5 -31q44 0 104 24l62 24zM300 694q18 0 24 -6t6 -21v-108h-140v135h110z" />
    <glyph glyph-name="dcaron" unicode="&#x10f;" horiz-adv-x="732" 
d="M396 46l-39 -21q-29 -16 -56.5 -24.5t-57.5 -8.5q-47 0 -86 18.5t-67.5 51.5t-44 79t-15.5 102q0 57 17 103.5t46.5 80t69 51.5t84.5 18q38 0 69 -12t63 -34v259h146v-709h-111zM379 327q0 13 -9 17q-17 7 -40 12.5t-48 5.5q-52 0 -78 -28t-26 -91q0 -62 25 -90t80 -28
q24 0 47 5t40 12q9 4 9 17v168zM685 709q14 0 21 -10q10 -13 15 -27.5t5 -26.5q0 -14 -7 -33.5t-26 -56.5l-48 -94l-64 13l19 235h85z" />
    <glyph glyph-name="dcroat" unicode="&#x111;" horiz-adv-x="588" 
d="M396 46l-39 -21q-29 -16 -56.5 -24.5t-57.5 -8.5q-47 0 -86 18.5t-67.5 51.5t-44 79t-15.5 102q0 57 17 103.5t46.5 80t69 51.5t84.5 18q38 0 69 -12t63 -34v102h-142v87h142v70h146v-70l71 -13v-74h-71v-552h-111zM379 327q0 13 -9 17q-17 7 -40 12.5t-48 5.5
q-52 0 -78 -28t-26 -91q0 -62 25 -90t80 -28q24 0 47 5t40 12q9 4 9 17v168z" />
    <glyph glyph-name="eth" unicode="&#xf0;" horiz-adv-x="569" 
d="M117 576l78 40q-17 9 -37 20t-40 21l45 76q39 -11 76.5 -26t68.5 -32l132 68l50 -90l-90 -47q69 -66 103 -152t34 -183q0 -66 -18.5 -118t-52.5 -87.5t-82 -54.5t-107 -19h-2q-57 0 -102.5 18.5t-77.5 51t-49 77t-17 96.5q0 54 18 97t48.5 73t71 45.5t85.5 15.5
q26 0 53 -5.5t50 -16.5q-11 29 -27 54.5t-40 48.5l-121 -61zM389 256q0 29 -4 47t-15.5 28.5t-32.5 14.5t-54 4h-2q-53 0 -79 -27t-26 -87q0 -49 25.5 -81t79.5 -32q58 0 83 33t25 100z" />
    <glyph glyph-name="egrave" unicode="&#xe8;" horiz-adv-x="544" 
d="M177 199q6 -37 35.5 -59.5t80.5 -22.5q21 0 47 4.5t49 12.5l68 21l44 -80q-43 -38 -101.5 -60.5t-122.5 -22.5q-54 0 -99.5 18t-78.5 50.5t-51.5 79t-18.5 103.5t18.5 103.5t51.5 79.5t78 51.5t98 18.5q52 0 96 -19t75.5 -51.5t49 -75t17.5 -90.5q0 -38 -6 -49.5
t-19 -11.5h-311zM275 376q-40 0 -66.5 -22t-31.5 -57h193q-5 35 -30.5 57t-64.5 22zM363 544l-229 115l56 83q10 15 19 15q6 0 18 -9l180 -142z" />
    <glyph glyph-name="eacute" unicode="&#xe9;" horiz-adv-x="544" 
d="M177 199q6 -37 35.5 -59.5t80.5 -22.5q21 0 47 4.5t49 12.5l68 21l44 -80q-43 -38 -101.5 -60.5t-122.5 -22.5q-54 0 -99.5 18t-78.5 50.5t-51.5 79t-18.5 103.5t18.5 103.5t51.5 79.5t78 51.5t98 18.5q52 0 96 -19t75.5 -51.5t49 -75t17.5 -90.5q0 -38 -6 -49.5
t-19 -11.5h-311zM275 376q-40 0 -66.5 -22t-31.5 -57h193q-5 35 -30.5 57t-64.5 22zM134 606l180 142q12 9 18 9q9 0 19 -15l56 -83l-229 -115z" />
    <glyph glyph-name="ecircumflex" unicode="&#xea;" horiz-adv-x="544" 
d="M177 199q6 -37 35.5 -59.5t80.5 -22.5q21 0 47 4.5t49 12.5l68 21l44 -80q-43 -38 -101.5 -60.5t-122.5 -22.5q-54 0 -99.5 18t-78.5 50.5t-51.5 79t-18.5 103.5t18.5 103.5t51.5 79.5t78 51.5t98 18.5q52 0 96 -19t75.5 -51.5t49 -75t17.5 -90.5q0 -38 -6 -49.5
t-19 -11.5h-311zM275 376q-40 0 -66.5 -22t-31.5 -57h193q-5 35 -30.5 57t-64.5 22zM144 544l-56 54l128 130q8 8 14 10.5t17 2.5h48q11 0 17 -2.5t14 -10.5l128 -130l-56 -54l-127 92z" />
    <glyph glyph-name="ecaron" unicode="&#x11b;" horiz-adv-x="544" 
d="M177 199q6 -37 35.5 -59.5t80.5 -22.5q21 0 47 4.5t49 12.5l68 21l44 -80q-43 -38 -101.5 -60.5t-122.5 -22.5q-54 0 -99.5 18t-78.5 50.5t-51.5 79t-18.5 103.5t18.5 103.5t51.5 79.5t78 51.5t98 18.5q52 0 96 -19t75.5 -51.5t49 -75t17.5 -90.5q0 -38 -6 -49.5
t-19 -11.5h-311zM275 376q-40 0 -66.5 -22t-31.5 -57h193q-5 35 -30.5 57t-64.5 22zM277 652l127 92l56 -54l-128 -130q-8 -8 -14 -10.5t-17 -2.5h-48q-11 0 -17 2.5t-14 10.5l-128 130l56 54z" />
    <glyph glyph-name="edieresis" unicode="&#xeb;" horiz-adv-x="544" 
d="M177 199q6 -37 35.5 -59.5t80.5 -22.5q21 0 47 4.5t49 12.5l68 21l44 -80q-43 -38 -101.5 -60.5t-122.5 -22.5q-54 0 -99.5 18t-78.5 50.5t-51.5 79t-18.5 103.5t18.5 103.5t51.5 79.5t78 51.5t98 18.5q52 0 96 -19t75.5 -51.5t49 -75t17.5 -90.5q0 -38 -6 -49.5
t-19 -11.5h-311zM275 376q-40 0 -66.5 -22t-31.5 -57h193q-5 35 -30.5 57t-64.5 22zM203 701q17 0 23 -6t6 -20v-105h-136v131h107zM416 701q17 0 23 -6t6 -20v-105h-136v131h107z" />
    <glyph glyph-name="emacron" unicode="&#x113;" horiz-adv-x="544" 
d="M177 199q6 -37 35.5 -59.5t80.5 -22.5q21 0 47 4.5t49 12.5l68 21l44 -80q-43 -38 -101.5 -60.5t-122.5 -22.5q-54 0 -99.5 18t-78.5 50.5t-51.5 79t-18.5 103.5t18.5 103.5t51.5 79.5t78 51.5t98 18.5q52 0 96 -19t75.5 -51.5t49 -75t17.5 -90.5q0 -38 -6 -49.5
t-19 -11.5h-311zM275 376q-40 0 -66.5 -22t-31.5 -57h193q-5 35 -30.5 57t-64.5 22zM109 584v107h323v-107h-323z" />
    <glyph glyph-name="ebreve" unicode="&#x115;" horiz-adv-x="544" 
d="M177 199q6 -37 35.5 -59.5t80.5 -22.5q21 0 47 4.5t49 12.5l68 21l44 -80q-43 -38 -101.5 -60.5t-122.5 -22.5q-54 0 -99.5 18t-78.5 50.5t-51.5 79t-18.5 103.5t18.5 103.5t51.5 79.5t78 51.5t98 18.5q52 0 96 -19t75.5 -51.5t49 -75t17.5 -90.5q0 -38 -6 -49.5
t-19 -11.5h-311zM275 376q-40 0 -66.5 -22t-31.5 -57h193q-5 35 -30.5 57t-64.5 22zM271 557q-38 0 -68.5 11.5t-52 32.5t-35 49t-17.5 61l92 15q12 -33 31 -50t50 -17t50 17t31 50l92 -15q-4 -33 -17.5 -61t-35 -49t-52 -32.5t-68.5 -11.5z" />
    <glyph glyph-name="edotaccent" unicode="&#x117;" horiz-adv-x="544" 
d="M177 199q6 -37 35.5 -59.5t80.5 -22.5q21 0 47 4.5t49 12.5l68 21l44 -80q-43 -38 -101.5 -60.5t-122.5 -22.5q-54 0 -99.5 18t-78.5 50.5t-51.5 79t-18.5 103.5t18.5 103.5t51.5 79.5t78 51.5t98 18.5q52 0 96 -19t75.5 -51.5t49 -75t17.5 -90.5q0 -38 -6 -49.5
t-19 -11.5h-311zM275 376q-40 0 -66.5 -22t-31.5 -57h193q-5 35 -30.5 57t-64.5 22zM311 694q18 0 24 -6t6 -21v-108h-140v135h110z" />
    <glyph glyph-name="eogonek" unicode="&#x119;" horiz-adv-x="544" 
d="M275 376q-40 0 -66.5 -22t-31.5 -57h193q-5 35 -30.5 57t-64.5 22zM277 -8q-54 0 -99.5 18t-78.5 50.5t-51.5 79t-18.5 103.5t19 103.5t52 79.5t78 51.5t98 18.5q52 0 96 -19t75 -51.5t48.5 -75t17.5 -90.5q0 -38 -6 -49.5t-19 -11.5h-311q6 -37 35.5 -59.5t80.5 -22.5
q21 0 47 4.5t49 12.5l68 21l44 -80q-72 -46 -111.5 -85.5t-39.5 -77.5q0 -21 15 -33.5t48 -12.5q25 0 58 6l22 -73q-26 -14 -55.5 -21t-55.5 -7q-66 0 -103.5 32.5t-37.5 80.5q0 34 19.5 63.5t45.5 47.5q-8 -2 -16 -2.5t-13 -0.5z" />
    <glyph glyph-name="gcircumflex" unicode="&#x11d;" horiz-adv-x="562" 
d="M491 300q0 -43 -16.5 -79t-46.5 -62t-71 -40.5t-90 -14.5q-15 0 -28.5 1.5t-26.5 3.5q-8 2 -11 1t-5 -7l-7 -21q-4 -13 9 -13h147q57 0 94.5 -12.5t59.5 -35.5q31 -32 31 -89q0 -43 -20.5 -78t-56.5 -59.5t-85 -38t-105 -13.5q-55 0 -102.5 12t-82 33.5t-54.5 51
t-20 65.5q0 29 16 51t45 39q-9 9 -15 20.5t-6 25.5q0 15 8 31.5t28 39.5l35 40q-34 26 -53 64t-19 84q0 43 16.5 79t46.5 62t71 40.5t90 14.5q41 0 75.5 -10t62.5 -29q56 54 98 54q17 0 34.5 -4.5t34.5 -15.5v-84l-92 -15q-11 -1 -6 -12q17 -37 17 -80zM355 300q0 40 -25 60
t-63 20t-63 -20t-25 -60t25 -60t63 -20t63 20t25 60zM390 -73q0 15 -9 23q-6 5 -16.5 7t-29.5 2h-158q-15 0 -24 -8t-9 -25q0 -27 29 -45.5t94 -18.5q57 0 90 17.5t33 47.5zM154 544l-56 54l128 130q8 8 14 10.5t17 2.5h48q11 0 17 -2.5t14 -10.5l128 -130l-56 -54l-127 92z
" />
    <glyph glyph-name="gbreve" unicode="&#x11f;" horiz-adv-x="562" 
d="M491 300q0 -43 -16.5 -79t-46.5 -62t-71 -40.5t-90 -14.5q-15 0 -28.5 1.5t-26.5 3.5q-8 2 -11 1t-5 -7l-7 -21q-4 -13 9 -13h147q57 0 94.5 -12.5t59.5 -35.5q31 -32 31 -89q0 -43 -20.5 -78t-56.5 -59.5t-85 -38t-105 -13.5q-55 0 -102.5 12t-82 33.5t-54.5 51
t-20 65.5q0 29 16 51t45 39q-9 9 -15 20.5t-6 25.5q0 15 8 31.5t28 39.5l35 40q-34 26 -53 64t-19 84q0 43 16.5 79t46.5 62t71 40.5t90 14.5q41 0 75.5 -10t62.5 -29q56 54 98 54q17 0 34.5 -4.5t34.5 -15.5v-84l-92 -15q-11 -1 -6 -12q17 -37 17 -80zM355 300q0 40 -25 60
t-63 20t-63 -20t-25 -60t25 -60t63 -20t63 20t25 60zM390 -73q0 15 -9 23q-6 5 -16.5 7t-29.5 2h-158q-15 0 -24 -8t-9 -25q0 -27 29 -45.5t94 -18.5q57 0 90 17.5t33 47.5zM281 557q-38 0 -68.5 11.5t-52 32.5t-35 49t-17.5 61l92 15q12 -33 31 -50t50 -17t50 17t31 50
l92 -15q-4 -33 -17.5 -61t-35 -49t-52 -32.5t-68.5 -11.5z" />
    <glyph glyph-name="gdotaccent" unicode="&#x121;" horiz-adv-x="562" 
d="M491 300q0 -43 -16.5 -79t-46.5 -62t-71 -40.5t-90 -14.5q-15 0 -28.5 1.5t-26.5 3.5q-8 2 -11 1t-5 -7l-7 -21q-4 -13 9 -13h147q57 0 94.5 -12.5t59.5 -35.5q31 -32 31 -89q0 -43 -20.5 -78t-56.5 -59.5t-85 -38t-105 -13.5q-55 0 -102.5 12t-82 33.5t-54.5 51
t-20 65.5q0 29 16 51t45 39q-9 9 -15 20.5t-6 25.5q0 15 8 31.5t28 39.5l35 40q-34 26 -53 64t-19 84q0 43 16.5 79t46.5 62t71 40.5t90 14.5q41 0 75.5 -10t62.5 -29q56 54 98 54q17 0 34.5 -4.5t34.5 -15.5v-84l-92 -15q-11 -1 -6 -12q17 -37 17 -80zM355 300q0 40 -25 60
t-63 20t-63 -20t-25 -60t25 -60t63 -20t63 20t25 60zM390 -73q0 15 -9 23q-6 5 -16.5 7t-29.5 2h-158q-15 0 -24 -8t-9 -25q0 -27 29 -45.5t94 -18.5q57 0 90 17.5t33 47.5zM321 694q18 0 24 -6t6 -21v-108h-140v135h110z" />
    <glyph glyph-name="gcommaaccent" unicode="&#x123;" horiz-adv-x="562" 
d="M491 300q0 -43 -16.5 -79t-46.5 -62t-71 -40.5t-90 -14.5q-15 0 -28.5 1.5t-26.5 3.5q-8 2 -11 1t-5 -7l-7 -21q-4 -13 9 -13h147q57 0 94.5 -12.5t59.5 -35.5q31 -32 31 -89q0 -43 -20.5 -78t-56.5 -59.5t-85 -38t-105 -13.5q-55 0 -102.5 12t-82 33.5t-54.5 51
t-20 65.5q0 29 16 51t45 39q-9 9 -15 20.5t-6 25.5q0 15 8 31.5t28 39.5l35 40q-34 26 -53 64t-19 84q0 43 16.5 79t46.5 62t71 40.5t90 14.5q41 0 75.5 -10t62.5 -29q56 54 98 54q17 0 34.5 -4.5t34.5 -15.5v-84l-92 -15q-11 -1 -6 -12q17 -37 17 -80zM355 300q0 40 -25 60
t-63 20t-63 -20t-25 -60t25 -60t63 -20t63 20t25 60zM390 -73q0 15 -9 23q-6 5 -16.5 7t-29.5 2h-158q-15 0 -24 -8t-9 -25q0 -27 29 -45.5t94 -18.5q57 0 90 17.5t33 47.5zM248.984 547.967q-13.999 0 -20.998 9.99902q-10 12.999 -14.999 27.498q-5 14.499 -5 26.499
q0 13.999 7 33.498q6.99902 19.498 25.998 56.4961l47.9971 93.9941l63.9961 -12.999l-18.999 -234.985h-84.9951z" />
    <glyph glyph-name="hcircumflex" unicode="&#x125;" horiz-adv-x="567" 
d="M201 454l8 5q29 17 58.5 27t62.5 10q41 0 76.5 -14t61.5 -40q24 -25 37 -59.5t13 -82.5v-300h-146v296q0 32 -14 46q-17 18 -66 18h-2q-23 0 -44.5 -3.5t-35.5 -8.5q-7 -3 -8 -7t-1 -10v-331h-146v709h146v-255zM0 729l-56 54l128 130q8 8 14 10.5t17 2.5h48
q11 0 17 -2.5t14 -10.5l128 -130l-56 -54l-127 92z" />
    <glyph glyph-name="hbar" unicode="&#x127;" horiz-adv-x="567" 
d="M55 709h146v-70h142v-87h-142v-98l8 5q29 17 58.5 27t62.5 10q41 0 76.5 -14t61.5 -40q24 -25 37 -59.5t13 -82.5v-300h-146v296q0 32 -14 46q-17 18 -66 18h-2q-23 0 -44.5 -3.5t-35.5 -8.5q-7 -3 -8 -7t-1 -10v-331h-146v552h-71v74l71 13v70z" />
    <glyph glyph-name="dotlessi" unicode="&#x131;" horiz-adv-x="258" 
d="M56 488h146v-488h-146v488z" />
    <glyph glyph-name="igrave" unicode="&#xec;" horiz-adv-x="258" 
d="M56 488h146v-488h-146v488zM222 544l-229 115l56 83q10 15 19 15q6 0 18 -9l180 -142z" />
    <glyph glyph-name="iacute" unicode="&#xed;" horiz-adv-x="258" 
d="M56 488h146v-488h-146v488zM-7 606l180 142q12 9 18 9q9 0 19 -15l56 -83l-229 -115z" />
    <glyph glyph-name="icircumflex" unicode="&#xee;" horiz-adv-x="258" 
d="M56 488h146v-488h-146v488zM2 544l-56 54l128 130q8 8 14 10.5t17 2.5h48q11 0 17 -2.5t14 -10.5l128 -130l-56 -54l-127 92z" />
    <glyph glyph-name="itilde" unicode="&#x129;" horiz-adv-x="258" 
d="M56 488h146v-488h-146v488zM318 695q-3 -26 -12 -50t-24.5 -42t-36.5 -29t-48 -11q-22 0 -40.5 7.5t-34 16t-29 16t-25.5 7.5q-15 0 -26 -13t-24 -38l-78 21q3 26 12 50t24.5 42t36.5 29t48 11q22 0 40.5 -7.5t34 -16t29 -16t25.5 -7.5q15 0 26 13t24 38z" />
    <glyph glyph-name="idieresis" unicode="&#xef;" horiz-adv-x="258" 
d="M56 488h146v-488h-146v488zM62 701q17 0 23 -6t6 -20v-105h-136v131h107zM275 701q17 0 23 -6t6 -20v-105h-136v131h107z" />
    <glyph glyph-name="imacron" unicode="&#x12b;" horiz-adv-x="258" 
d="M56 488h146v-488h-146v488zM-32 584v107h323v-107h-323z" />
    <glyph glyph-name="ibreve" unicode="&#x12d;" horiz-adv-x="258" 
d="M56 488h146v-488h-146v488zM129 557q-38 0 -68.5 11.5t-52 32.5t-35 49t-17.5 61l92 15q12 -33 31 -50t50 -17t50 17t31 50l92 -15q-4 -33 -17.5 -61t-35 -49t-52 -32.5t-68.5 -11.5z" />
    <glyph glyph-name="iogonek" unicode="&#x12f;" horiz-adv-x="258" 
d="M4 -119q0 32 12.5 61t39.5 58v488h146v-488h-35q-8 0 -15 -2t-13 -9q-11 -13 -18.5 -33.5t-7.5 -43.5q0 -46 63 -46q25 0 58 6l22 -73q-26 -14 -55.5 -21t-55.5 -7q-66 0 -103.5 31t-37.5 79zM56 700h112q20 0 27 -7t7 -24v-109h-146v140z" />
    <glyph glyph-name="ij" unicode="&#x133;" horiz-adv-x="516" 
d="M56 488h146v-488h-146v488zM56 700h112q20 0 27 -7t7 -24v-109h-146v140zM314 488h146v-542q0 -51 -10 -84.5t-30 -54.5q-20 -20 -51 -30t-69 -10q-26 0 -53 5.5t-46 13.5v77l60 11q16 3 26.5 6.5t16.5 9t8 14.5t2 23v561zM314 700h112q20 0 27 -7t7 -24v-109h-146v140z
" />
    <glyph glyph-name="jcircumflex" unicode="&#x135;" horiz-adv-x="258" 
d="M56 488h146v-542q0 -51 -10 -84.5t-30 -54.5q-20 -20 -51 -30t-69 -10q-26 0 -53 5.5t-46 13.5v77l60 11q16 3 26.5 6.5t16.5 9t8 14.5t2 23v561zM2 544l-56 54l128 130q8 8 14 10.5t17 2.5h48q11 0 17 -2.5t14 -10.5l128 -130l-56 -54l-127 92z" />
    <glyph glyph-name="kcommaaccent" unicode="&#x137;" horiz-adv-x="570" 
d="M380 286l190 -286h-145q-12 0 -17.5 2.5t-11.5 11.5l-126 197q-16 -10 -35 -19.5t-34 -14.5v-177h-146v709h146v-411l259 206l80 -90zM316 -58q14 0 21 -10q10 -13 15 -27.5t5 -26.5q0 -14 -7 -33.5t-26 -56.5l-48 -94l-64 13l19 235h85z" />
    <glyph glyph-name="kgreenlandic" unicode="&#x138;" horiz-adv-x="570" 
d="M384 280l186 -280h-145q-12 0 -17.5 2.5t-11.5 11.5l-121 190q-16 -10 -37.5 -21t-36.5 -16v-167h-146v488h146v-200l259 216l80 -90z" />
    <glyph glyph-name="lacute" unicode="&#x13a;" horiz-adv-x="289" 
d="M283 22q-20 -10 -49 -17.5t-55 -7.5q-58 0 -91 36q-16 17 -24 41t-8 57v578h146v-592l81 -19v-76zM-7 827l180 142q12 9 18 9q9 0 19 -15l56 -83l-229 -115z" />
    <glyph glyph-name="lcaron" unicode="&#x13e;" horiz-adv-x="409" 
d="M283 22q-20 -10 -49 -17.5t-55 -7.5q-58 0 -91 36q-16 17 -24 41t-8 57v578h146v-592l81 -19v-76zM362 709q14 0 21 -10q10 -13 15 -27.5t5 -26.5q0 -14 -7 -33.5t-26 -56.5l-48 -94l-64 13l19 235h85z" />
    <glyph glyph-name="lcommaaccent" unicode="&#x13c;" horiz-adv-x="289" 
d="M283 22q-20 -10 -49 -17.5t-55 -7.5q-58 0 -91 36q-16 17 -24 41t-8 57v578h146v-592l81 -19v-76zM186 -58q14 0 21 -10q10 -13 15 -27.5t5 -26.5q0 -14 -7 -33.5t-26 -56.5l-48 -94l-64 13l19 235h85z" />
    <glyph glyph-name="lslash" unicode="&#x142;" horiz-adv-x="408" 
d="M272 311v-194l81 -19v-76q-20 -10 -49 -17.5t-55 -7.5q-58 0 -91 36q-16 17 -24 41t-8 57v96l-56 -37l-60 89l116 78v352h146v-268l78 51l60 -90z" />
    <glyph glyph-name="longs" unicode="&#x17f;" horiz-adv-x="337" 
d="M221 541q0 -29 8.5 -58t8.5 -62v-421h-146v375h-90v89l87 20q-7 15 -11 35.5t-4 41.5q0 35 13 64.5t37.5 50.5t59 33t78.5 12q51 0 97 -17t82 -42l-32 -82l-47 10q-19 4 -37 6.5t-34 2.5q-32 0 -51 -13t-19 -45z" />
    <glyph glyph-name="ldot" unicode="&#x140;" horiz-adv-x="434" 
d="M283 22q-20 -10 -49 -17.5t-55 -7.5q-58 0 -91 36q-16 17 -24 41t-8 57v578h146v-592l81 -19v-76zM384 454q18 0 24 -6t6 -21v-108h-140v135h110z" />
    <glyph glyph-name="nacute" unicode="&#x144;" horiz-adv-x="567" 
d="M167 488l17 -44l25 15q29 17 58.5 27t62.5 10q41 0 76.5 -14t61.5 -40q24 -25 37 -59.5t13 -82.5v-300h-146v296q0 32 -14 46q-17 18 -66 18h-2q-23 0 -44.5 -3.5t-35.5 -8.5q-7 -3 -8 -7t-1 -10v-331h-146v488h112zM147 606l180 142q12 9 18 9q9 0 19 -15l56 -83
l-229 -115z" />
    <glyph glyph-name="ncaron" unicode="&#x148;" horiz-adv-x="567" 
d="M167 488l17 -44l25 15q29 17 58.5 27t62.5 10q41 0 76.5 -14t61.5 -40q24 -25 37 -59.5t13 -82.5v-300h-146v296q0 32 -14 46q-17 18 -66 18h-2q-23 0 -44.5 -3.5t-35.5 -8.5q-7 -3 -8 -7t-1 -10v-331h-146v488h112zM283 652l127 92l56 -54l-128 -130q-8 -8 -14 -10.5
t-17 -2.5h-48q-11 0 -17 2.5t-14 10.5l-128 130l56 54z" />
    <glyph glyph-name="ntilde" unicode="&#xf1;" horiz-adv-x="567" 
d="M167 488l17 -44l25 15q29 17 58.5 27t62.5 10q41 0 76.5 -14t61.5 -40q24 -25 37 -59.5t13 -82.5v-300h-146v296q0 32 -14 46q-17 18 -66 18h-2q-23 0 -44.5 -3.5t-35.5 -8.5q-7 -3 -8 -7t-1 -10v-331h-146v488h112zM472 695q-3 -26 -12 -50t-24.5 -42t-36.5 -29t-48 -11
q-22 0 -40.5 7.5t-34 16t-29 16t-25.5 7.5q-15 0 -26 -13t-24 -38l-78 21q3 26 12 50t24.5 42t36.5 29t48 11q22 0 40.5 -7.5t34 -16t29 -16t25.5 -7.5q15 0 26 13t24 38z" />
    <glyph glyph-name="ncommaaccent" unicode="&#x146;" horiz-adv-x="567" 
d="M167 488l17 -44l25 15q29 17 58.5 27t62.5 10q41 0 76.5 -14t61.5 -40q24 -25 37 -59.5t13 -82.5v-300h-146v296q0 32 -14 46q-17 18 -66 18h-2q-23 0 -44.5 -3.5t-35.5 -8.5q-7 -3 -8 -7t-1 -10v-331h-146v488h112zM315 -58q14 0 21 -10q10 -13 15 -27.5t5 -26.5
q0 -14 -7 -33.5t-26 -56.5l-48 -94l-64 13l19 235h85z" />
    <glyph glyph-name="napostrophe" unicode="&#x149;" horiz-adv-x="756" 
d="M356 488l17 -44l25 15q29 17 58.5 27t62.5 10q41 0 76.5 -14t61.5 -40q24 -25 37 -59.5t13 -82.5v-300h-146v296q0 32 -14 46q-17 18 -66 18h-2q-23 0 -44.5 -3.5t-35.5 -8.5q-7 -3 -8 -7t-1 -10v-331h-146v488h112zM48 663h120q20 0 27 -7t7 -24v-68q0 -30 -3.5 -54
t-17 -48t-39 -52t-69.5 -67l-51 38l69 115q5 9 4 12.5t-9 8.5l-16 8q-16 9 -19 16t-3 22v100z" />
    <glyph glyph-name="eng" unicode="&#x14b;" horiz-adv-x="567" 
d="M518 -1q0 -50 -7 -89.5t-25 -66.5t-49.5 -41.5t-80.5 -14.5q-26 0 -50.5 5.5t-43.5 13.5v75l61 16q32 8 40.5 17.5t8.5 35.5v346q0 32 -14 46q-17 18 -66 18h-2q-23 0 -44.5 -3.5t-35.5 -8.5q-7 -3 -8 -7t-1 -10v-331h-146v488h112l17 -44l25 15q29 17 58.5 27t62.5 10
q41 0 76.5 -14t61.5 -40q24 -25 37 -59.5t13 -82.5v-301z" />
    <glyph glyph-name="ograve" unicode="&#xf2;" horiz-adv-x="562" 
d="M282 127q48 0 75.5 27t27.5 90t-27.5 90t-75.5 27h-2q-48 0 -75.5 -27t-27.5 -90t27.5 -90t75.5 -27h2zM280 -8q-51 0 -96.5 17t-80 49.5t-54.5 79.5t-20 106t20 106t54.5 79.5t80 49.5t96.5 17h2q51 0 96.5 -17t80 -49.5t54.5 -79.5t20 -106t-20 -106t-54.5 -79.5
t-80 -49.5t-96.5 -17h-2zM373 544l-229 115l56 83q10 15 19 15q6 0 18 -9l180 -142z" />
    <glyph glyph-name="oacute" unicode="&#xf3;" horiz-adv-x="562" 
d="M282 127q48 0 75.5 27t27.5 90t-27.5 90t-75.5 27h-2q-48 0 -75.5 -27t-27.5 -90t27.5 -90t75.5 -27h2zM280 -8q-51 0 -96.5 17t-80 49.5t-54.5 79.5t-20 106t20 106t54.5 79.5t80 49.5t96.5 17h2q51 0 96.5 -17t80 -49.5t54.5 -79.5t20 -106t-20 -106t-54.5 -79.5
t-80 -49.5t-96.5 -17h-2zM144 606l180 142q12 9 18 9q9 0 19 -15l56 -83l-229 -115z" />
    <glyph glyph-name="ocircumflex" unicode="&#xf4;" horiz-adv-x="562" 
d="M282 127q48 0 75.5 27t27.5 90t-27.5 90t-75.5 27h-2q-48 0 -75.5 -27t-27.5 -90t27.5 -90t75.5 -27h2zM280 -8q-51 0 -96.5 17t-80 49.5t-54.5 79.5t-20 106t20 106t54.5 79.5t80 49.5t96.5 17h2q51 0 96.5 -17t80 -49.5t54.5 -79.5t20 -106t-20 -106t-54.5 -79.5
t-80 -49.5t-96.5 -17h-2zM154 544l-56 54l128 130q8 8 14 10.5t17 2.5h48q11 0 17 -2.5t14 -10.5l128 -130l-56 -54l-127 92z" />
    <glyph glyph-name="otilde" unicode="&#xf5;" horiz-adv-x="562" 
d="M282 127q48 0 75.5 27t27.5 90t-27.5 90t-75.5 27h-2q-48 0 -75.5 -27t-27.5 -90t27.5 -90t75.5 -27h2zM280 -8q-51 0 -96.5 17t-80 49.5t-54.5 79.5t-20 106t20 106t54.5 79.5t80 49.5t96.5 17h2q51 0 96.5 -17t80 -49.5t54.5 -79.5t20 -106t-20 -106t-54.5 -79.5
t-80 -49.5t-96.5 -17h-2zM470 695q-3 -26 -12 -50t-24.5 -42t-36.5 -29t-48 -11q-22 0 -40.5 7.5t-34 16t-29 16t-25.5 7.5q-15 0 -26 -13t-24 -38l-78 21q3 26 12 50t24.5 42t36.5 29t48 11q22 0 40.5 -7.5t34 -16t29 -16t25.5 -7.5q15 0 26 13t24 38z" />
    <glyph glyph-name="odieresis" unicode="&#xf6;" horiz-adv-x="562" 
d="M282 127q48 0 75.5 27t27.5 90t-27.5 90t-75.5 27h-2q-48 0 -75.5 -27t-27.5 -90t27.5 -90t75.5 -27h2zM280 -8q-51 0 -96.5 17t-80 49.5t-54.5 79.5t-20 106t20 106t54.5 79.5t80 49.5t96.5 17h2q51 0 96.5 -17t80 -49.5t54.5 -79.5t20 -106t-20 -106t-54.5 -79.5
t-80 -49.5t-96.5 -17h-2zM213 701q17 0 23 -6t6 -20v-105h-136v131h107zM426 701q17 0 23 -6t6 -20v-105h-136v131h107z" />
    <glyph glyph-name="omacron" unicode="&#x14d;" horiz-adv-x="562" 
d="M282 127q48 0 75.5 27t27.5 90t-27.5 90t-75.5 27h-2q-48 0 -75.5 -27t-27.5 -90t27.5 -90t75.5 -27h2zM280 -8q-51 0 -96.5 17t-80 49.5t-54.5 79.5t-20 106t20 106t54.5 79.5t80 49.5t96.5 17h2q51 0 96.5 -17t80 -49.5t54.5 -79.5t20 -106t-20 -106t-54.5 -79.5
t-80 -49.5t-96.5 -17h-2zM119 584v107h323v-107h-323z" />
    <glyph glyph-name="obreve" unicode="&#x14f;" horiz-adv-x="562" 
d="M282 127q48 0 75.5 27t27.5 90t-27.5 90t-75.5 27h-2q-48 0 -75.5 -27t-27.5 -90t27.5 -90t75.5 -27h2zM280 -8q-51 0 -96.5 17t-80 49.5t-54.5 79.5t-20 106t20 106t54.5 79.5t80 49.5t96.5 17h2q51 0 96.5 -17t80 -49.5t54.5 -79.5t20 -106t-20 -106t-54.5 -79.5
t-80 -49.5t-96.5 -17h-2zM281 557q-38 0 -68.5 11.5t-52 32.5t-35 49t-17.5 61l92 15q12 -33 31 -50t50 -17t50 17t31 50l92 -15q-4 -33 -17.5 -61t-35 -49t-52 -32.5t-68.5 -11.5z" />
    <glyph glyph-name="ohungarumlaut" unicode="&#x151;" horiz-adv-x="562" 
d="M282 127q48 0 75.5 27t27.5 90t-27.5 90t-75.5 27h-2q-48 0 -75.5 -27t-27.5 -90t27.5 -90t75.5 -27h2zM280 -8q-51 0 -96.5 17t-80 49.5t-54.5 79.5t-20 106t20 106t54.5 79.5t80 49.5t96.5 17h2q51 0 96.5 -17t80 -49.5t54.5 -79.5t20 -106t-20 -106t-54.5 -79.5
t-80 -49.5t-96.5 -17h-2zM296 731l-174 -172l-68 51l130 181q10 13 18 13q6 0 16 -8zM508 731l-174 -172l-68 51l130 181q10 13 18 13q6 0 16 -8z" />
    <glyph glyph-name="oslash" unicode="&#xf8;" horiz-adv-x="561" 
d="M110 52q-38 33 -59.5 81t-21.5 111q0 59 20 106t54.5 79.5t80 49.5t96.5 17h2q62 0 113 -24l58 84l61 -39l-58 -85q35 -33 56 -80.5t21 -107.5q0 -59 -20 -106t-54.5 -79.5t-80 -49.5t-96.5 -17h-2q-57 0 -109 22l-61 -90l-61 39zM177 244q0 -44 14 -72l126 185
q-13 4 -35 4h-2q-48 0 -75.5 -27t-27.5 -90zM282 127q48 0 75.5 27t27.5 90q0 40 -12 66l-123 -180q13 -3 30 -3h2z" />
    <glyph glyph-name="oslashacute" unicode="&#x1ff;" horiz-adv-x="562" 
d="M110 52q-38 33 -59.5 81t-21.5 111q0 59 20 106t54.5 79.5t80 49.5t96.5 17h2q62 0 113 -24l58 84l61 -39l-58 -85q35 -33 56 -80.5t21 -107.5q0 -59 -20 -106t-54.5 -79.5t-80 -49.5t-96.5 -17h-2q-57 0 -109 22l-61 -90l-61 39zM177 244q0 -44 14 -72l126 185
q-13 4 -35 4h-2q-48 0 -75.5 -27t-27.5 -90zM282 127q48 0 75.5 27t27.5 90q0 40 -12 66l-123 -180q13 -3 30 -3h2zM144 606l180 142q12 9 18 9q9 0 19 -15l56 -83l-229 -115z" />
    <glyph glyph-name="oe" unicode="&#x153;" horiz-adv-x="900" 
d="M533 199q6 -37 35.5 -59.5t80.5 -22.5q21 0 47 4.5t49 12.5l68 21l44 -80q-43 -38 -101.5 -60.5t-122.5 -22.5q-54 0 -98.5 17t-77.5 49q-34 -32 -79 -49t-96 -17h-2q-51 0 -96.5 17t-80 49.5t-54.5 79.5t-20 106t20 106t54.5 79.5t80 49.5t96.5 17h2q51 0 96.5 -17.5
t80.5 -49.5q33 32 77 49.5t96 17.5t96 -19t75 -51.5t48.5 -75t17.5 -90.5q0 -38 -6 -49.5t-19 -11.5h-311zM282 127q48 0 75 27t28 89v1q0 63 -27.5 90t-75.5 27h-2q-48 0 -75.5 -27t-27.5 -90t27.5 -90t75.5 -27h2zM632 375q-40 0 -66.5 -21.5t-31.5 -56.5h193
q-5 35 -30.5 56.5t-64.5 21.5z" />
    <glyph glyph-name="thorn" unicode="&#xfe;" horiz-adv-x="578" 
d="M201 451l23 12q32 16 59.5 24.5t54.5 8.5q44 0 82.5 -18t67 -51t44.5 -79.5t16 -103.5t-16 -103.5t-44 -79.5t-66.5 -51t-83.5 -18q-29 0 -56.5 9.5t-56.5 23.5l-24 12v-266h-146v938h146v-258zM201 159q0 -13 9 -17q17 -7 41.5 -12t47.5 -5q50 0 75.5 25.5t25.5 93.5
q0 65 -25.5 91t-75.5 26q-26 0 -49 -5t-40 -12q-9 -4 -9 -17v-168z" />
    <glyph glyph-name="racute" unicode="&#x155;" horiz-adv-x="393" 
d="M167 488l19 -64q46 38 79.5 55t59.5 17q16 0 32.5 -5.5t31.5 -13.5v-100l-50 -10q-71 -14 -124 -33q-9 -3 -11.5 -6.5t-2.5 -11.5v-316h-146v488h112zM95 606l180 142q12 9 18 9q9 0 19 -15l56 -83l-229 -115z" />
    <glyph glyph-name="rcaron" unicode="&#x159;" horiz-adv-x="393" 
d="M167 488l19 -64q46 38 79.5 55t59.5 17q16 0 32.5 -5.5t31.5 -13.5v-100l-50 -10q-71 -14 -124 -33q-9 -3 -11.5 -6.5t-2.5 -11.5v-316h-146v488h112zM230 652l127 92l56 -54l-128 -130q-8 -8 -14 -10.5t-17 -2.5h-48q-11 0 -17 2.5t-14 10.5l-128 130l56 54z" />
    <glyph glyph-name="rcommaaccent" unicode="&#x157;" horiz-adv-x="393" 
d="M167 488l19 -64q46 38 79.5 55t59.5 17q16 0 32.5 -5.5t31.5 -13.5v-100l-50 -10q-71 -14 -124 -33q-9 -3 -11.5 -6.5t-2.5 -11.5v-316h-146v488h112zM160 -58q14 0 21 -10q10 -13 15 -27.5t5 -26.5q0 -14 -7 -33.5t-26 -56.5l-48 -94l-64 13l19 235h85z" />
    <glyph glyph-name="sacute" unicode="&#x15b;" horiz-adv-x="491" 
d="M364 372q-36 4 -66 6t-50 2q-43 0 -62 -6.5t-19 -22.5q0 -13 14.5 -19.5t39.5 -11.5l68 -15q46 -10 78.5 -22t53 -29t29.5 -40t9 -55q0 -36 -12.5 -66.5t-38 -53t-66 -35t-95.5 -12.5q-27 0 -56.5 4t-58 11.5t-55 17.5t-47.5 23l29 84l62 -10q45 -8 74.5 -11t54.5 -3
q78 0 78 38q0 14 -11.5 20t-40.5 13l-68 15q-38 8 -70 20t-54.5 29.5t-35 42t-12.5 59.5q0 37 15.5 65.5t44 47.5t67 28.5t85.5 9.5q49 0 98.5 -11t90.5 -30l-22 -88zM109 606l180 142q12 9 18 9q9 0 19 -15l56 -83l-229 -115z" />
    <glyph glyph-name="scircumflex" unicode="&#x15d;" horiz-adv-x="491" 
d="M364 372q-36 4 -66 6t-50 2q-43 0 -62 -6.5t-19 -22.5q0 -13 14.5 -19.5t39.5 -11.5l68 -15q46 -10 78.5 -22t53 -29t29.5 -40t9 -55q0 -36 -12.5 -66.5t-38 -53t-66 -35t-95.5 -12.5q-27 0 -56.5 4t-58 11.5t-55 17.5t-47.5 23l29 84l62 -10q45 -8 74.5 -11t54.5 -3
q78 0 78 38q0 14 -11.5 20t-40.5 13l-68 15q-38 8 -70 20t-54.5 29.5t-35 42t-12.5 59.5q0 37 15.5 65.5t44 47.5t67 28.5t85.5 9.5q49 0 98.5 -11t90.5 -30l-22 -88zM118 544l-56 54l128 130q8 8 14 10.5t17 2.5h48q11 0 17 -2.5t14 -10.5l128 -130l-56 -54l-127 92z" />
    <glyph glyph-name="scaron" unicode="&#x161;" horiz-adv-x="491" 
d="M364 372q-36 4 -66 6t-50 2q-43 0 -62 -6.5t-19 -22.5q0 -13 14.5 -19.5t39.5 -11.5l68 -15q46 -10 78.5 -22t53 -29t29.5 -40t9 -55q0 -36 -12.5 -66.5t-38 -53t-66 -35t-95.5 -12.5q-27 0 -56.5 4t-58 11.5t-55 17.5t-47.5 23l29 84l62 -10q45 -8 74.5 -11t54.5 -3
q78 0 78 38q0 14 -11.5 20t-40.5 13l-68 15q-38 8 -70 20t-54.5 29.5t-35 42t-12.5 59.5q0 37 15.5 65.5t44 47.5t67 28.5t85.5 9.5q49 0 98.5 -11t90.5 -30l-22 -88zM245 652l127 92l56 -54l-128 -130q-8 -8 -14 -10.5t-17 -2.5h-48q-11 0 -17 2.5t-14 10.5l-128 130l56 54
z" />
    <glyph glyph-name="scedilla" unicode="&#x15f;" horiz-adv-x="491" 
d="M156 -65q0 31 35 61q-44 6 -86.5 19t-74.5 33l29 85l62 -10q45 -8 74.5 -11t54.5 -3q78 0 78 37q0 14 -11.5 20t-40.5 13l-68 15q-38 8 -70 20t-54.5 29.5t-35 42t-12.5 59.5q0 37 15.5 65.5t44 47.5t67 28.5t85.5 9.5q49 0 98.5 -11t90.5 -30l-22 -89l-51 5q-36 4 -66 6
t-50 2q-43 0 -62 -6t-19 -22q0 -13 14.5 -19t39.5 -11l68 -15q46 -10 78.5 -22t53 -29t29.5 -40.5t9 -55.5q0 -34 -11 -63t-33.5 -51t-57.5 -35.5t-83 -16.5q-12 -15 -12 -27q0 -11 16.5 -16.5t37 -13t37 -22.5t16.5 -46q0 -48 -48.5 -80t-145.5 -32l-15 77l56 9q34 6 34 20
q0 8 -14.5 13t-32.5 12t-32.5 18t-14.5 30z" />
    <glyph glyph-name="scommaaccent" unicode="&#x219;" horiz-adv-x="491" 
d="M364 372q-36 4 -66 6t-50 2q-43 0 -62 -6.5t-19 -22.5q0 -13 14.5 -19.5t39.5 -11.5l68 -15q46 -10 78.5 -22t53 -29t29.5 -40t9 -55q0 -36 -12.5 -66.5t-38 -53t-66 -35t-95.5 -12.5q-27 0 -56.5 4t-58 11.5t-55 17.5t-47.5 23l29 84l62 -10q45 -8 74.5 -11t54.5 -3
q78 0 78 38q0 14 -11.5 20t-40.5 13l-68 15q-38 8 -70 20t-54.5 29.5t-35 42t-12.5 59.5q0 37 15.5 65.5t44 47.5t67 28.5t85.5 9.5q49 0 98.5 -11t90.5 -30l-22 -88zM277 -58q14 0 21 -10q10 -13 15 -27.5t5 -26.5q0 -14 -7 -33.5t-26 -56.5l-48 -94l-64 13l19 235h85z" />
    <glyph glyph-name="germandbls" unicode="&#xdf;" horiz-adv-x="709" 
d="M543 147q0 14 -10.5 21.5t-44.5 21.5l-73 29q-60 24 -91 50.5t-31 71.5q0 34 18.5 62t53.5 55l22 17q20 15 32.5 25.5t20 18t10.5 14t3 14.5q0 23 -25 37.5t-68 14.5q-59 0 -90.5 -28.5t-31.5 -96.5v-474h-146v375h-90v89l87 20q8 112 78.5 174t194.5 62q54 0 96.5 -13
t72 -35.5t45 -52t15.5 -63.5q0 -39 -20 -70t-69 -62l-41 -26q-17 -11 -24.5 -18t-7.5 -14q0 -8 9.5 -15t45.5 -20l60 -23q64 -25 98 -58.5t34 -91.5q0 -37 -14 -67.5t-39.5 -52.5t-61.5 -34t-79 -12q-59 0 -109 16t-85 41q9 22 18 43t17 43l43 -11q33 -8 58 -12.5t48 -4.5
q33 0 52 10.5t19 29.5z" />
    <glyph glyph-name="tcaron" unicode="&#x165;" horiz-adv-x="447" 
d="M431 53q-31 -25 -78 -43t-94 -18q-39 0 -69.5 11.5t-52.5 32.5q-23 23 -35 54.5t-12 76.5v208h-90v89l90 21v144h146v-141h158v-113h-158v-196q0 -17 3 -28.5t11 -19.5q15 -13 41 -13q12 0 28 2t31 5l48 9zM403 827q14 0 21 -10q10 -13 15 -27.5t5 -26.5q0 -14 -7 -33.5
t-26 -56.5l-48 -94l-64 13l19 235h85z" />
    <glyph glyph-name="tcommaaccent" unicode="&#x163;" horiz-adv-x="447" 
d="M431 53q-31 -25 -78 -43t-94 -18q-39 0 -69.5 11.5t-52.5 32.5q-23 23 -35 54.5t-12 76.5v208h-90v89l90 21v144h146v-141h158v-113h-158v-196q0 -17 3 -28.5t11 -19.5q15 -13 41 -13q12 0 28 2t31 5l48 9zM255 -58q14 0 21 -10q10 -13 15 -27.5t5 -26.5q0 -14 -7 -33.5
t-26 -56.5l-48 -94l-64 13l19 235h85z" />
    <glyph glyph-name="uni021B" unicode="&#x21b;" horiz-adv-x="447" 
d="M431 53q-31 -25 -78 -43t-94 -18q-39 0 -69.5 11.5t-52.5 32.5q-23 23 -35 54.5t-12 76.5v208h-90v89l90 21v144h146v-141h158v-113h-158v-196q0 -17 3 -28.5t11 -19.5q15 -13 41 -13q12 0 28 2t31 5l48 9zM255 -58q14 0 21 -10q10 -13 15 -27.5t5 -26.5q0 -14 -7 -33.5
t-26 -56.5l-48 -94l-64 13l19 235h85z" />
    <glyph glyph-name="tbar" unicode="&#x167;" horiz-adv-x="447" 
d="M431 53q-31 -25 -78 -43t-94 -18q-39 0 -69.5 11.5t-52.5 32.5q-23 23 -35 54.5t-12 76.5v36h-64v87l64 11v74h-90v89l90 21v144h146v-141h158v-113h-158v-74h118v-98h-118v-24q0 -17 3 -28.5t11 -19.5q15 -13 41 -13q12 0 28 2t31 5l48 9z" />
    <glyph glyph-name="ugrave" unicode="&#xf9;" horiz-adv-x="564" 
d="M397 0l-17 44l-26 -15q-31 -17 -58.5 -27t-59.5 -10q-41 0 -76 14t-61 40q-24 25 -37 59.5t-13 82.5v300h146v-296q0 -32 14 -46q17 -18 66 -18q22 0 43.5 3.5t35.5 8.5q7 3 8 7t1 10v331h146v-488h-112zM374 544l-229 115l56 83q10 15 19 15q6 0 18 -9l180 -142z" />
    <glyph glyph-name="uacute" unicode="&#xfa;" horiz-adv-x="564" 
d="M397 0l-17 44l-26 -15q-31 -17 -58.5 -27t-59.5 -10q-41 0 -76 14t-61 40q-24 25 -37 59.5t-13 82.5v300h146v-296q0 -32 14 -46q17 -18 66 -18q22 0 43.5 3.5t35.5 8.5q7 3 8 7t1 10v331h146v-488h-112zM145 606l180 142q12 9 18 9q9 0 19 -15l56 -83l-229 -115z" />
    <glyph glyph-name="ucircumflex" unicode="&#xfb;" horiz-adv-x="564" 
d="M397 0l-17 44l-26 -15q-31 -17 -58.5 -27t-59.5 -10q-41 0 -76 14t-61 40q-24 25 -37 59.5t-13 82.5v300h146v-296q0 -32 14 -46q17 -18 66 -18q22 0 43.5 3.5t35.5 8.5q7 3 8 7t1 10v331h146v-488h-112zM155 544l-56 54l128 130q8 8 14 10.5t17 2.5h48q11 0 17 -2.5
t14 -10.5l128 -130l-56 -54l-127 92z" />
    <glyph glyph-name="utilde" unicode="&#x169;" horiz-adv-x="564" 
d="M397 0l-17 44l-26 -15q-31 -17 -58.5 -27t-59.5 -10q-41 0 -76 14t-61 40q-24 25 -37 59.5t-13 82.5v300h146v-296q0 -32 14 -46q17 -18 66 -18q22 0 43.5 3.5t35.5 8.5q7 3 8 7t1 10v331h146v-488h-112zM471 695q-3 -26 -12 -50t-24.5 -42t-36.5 -29t-48 -11
q-22 0 -40.5 7.5t-34 16t-29 16t-25.5 7.5q-15 0 -26 -13t-24 -38l-78 21q3 26 12 50t24.5 42t36.5 29t48 11q22 0 40.5 -7.5t34 -16t29 -16t25.5 -7.5q15 0 26 13t24 38z" />
    <glyph glyph-name="udieresis" unicode="&#xfc;" horiz-adv-x="564" 
d="M397 0l-17 44l-26 -15q-31 -17 -58.5 -27t-59.5 -10q-41 0 -76 14t-61 40q-24 25 -37 59.5t-13 82.5v300h146v-296q0 -32 14 -46q17 -18 66 -18q22 0 43.5 3.5t35.5 8.5q7 3 8 7t1 10v331h146v-488h-112zM214 701q17 0 23 -6t6 -20v-105h-136v131h107zM427 701
q17 0 23 -6t6 -20v-105h-136v131h107z" />
    <glyph glyph-name="umacron" unicode="&#x16b;" horiz-adv-x="564" 
d="M397 0l-17 44l-26 -15q-31 -17 -58.5 -27t-59.5 -10q-41 0 -76 14t-61 40q-24 25 -37 59.5t-13 82.5v300h146v-296q0 -32 14 -46q17 -18 66 -18q22 0 43.5 3.5t35.5 8.5q7 3 8 7t1 10v331h146v-488h-112zM120 584v107h323v-107h-323z" />
    <glyph glyph-name="ubreve" unicode="&#x16d;" horiz-adv-x="564" 
d="M397 0l-17 44l-26 -15q-31 -17 -58.5 -27t-59.5 -10q-41 0 -76 14t-61 40q-24 25 -37 59.5t-13 82.5v300h146v-296q0 -32 14 -46q17 -18 66 -18q22 0 43.5 3.5t35.5 8.5q7 3 8 7t1 10v331h146v-488h-112zM282 557q-38 0 -68.5 11.5t-52 32.5t-35 49t-17.5 61l92 15
q12 -33 31 -50t50 -17t50 17t31 50l92 -15q-4 -33 -17.5 -61t-35 -49t-52 -32.5t-68.5 -11.5z" />
    <glyph glyph-name="uring" unicode="&#x16f;" horiz-adv-x="564" 
d="M397 0l-17 44l-26 -15q-31 -17 -58.5 -27t-59.5 -10q-41 0 -76 14t-61 40q-24 25 -37 59.5t-13 82.5v300h146v-296q0 -32 14 -46q17 -18 66 -18q22 0 43.5 3.5t35.5 8.5q7 3 8 7t1 10v331h146v-488h-112zM282 809q59 0 97 -35t38 -94t-38 -94t-97 -35t-97 35t-38 94
t38 94t97 35zM282 631q28 0 39.5 13t11.5 36t-11.5 36t-39.5 13t-39.5 -13t-11.5 -36t11.5 -36t39.5 -13z" />
    <glyph glyph-name="uhungarumlaut" unicode="&#x171;" horiz-adv-x="564" 
d="M397 0l-17 44l-26 -15q-31 -17 -58.5 -27t-59.5 -10q-41 0 -76 14t-61 40q-24 25 -37 59.5t-13 82.5v300h146v-296q0 -32 14 -46q17 -18 66 -18q22 0 43.5 3.5t35.5 8.5q7 3 8 7t1 10v331h146v-488h-112zM317 731l-174 -172l-68 51l130 181q10 13 18 13q6 0 16 -8z
M529 731l-174 -172l-68 51l130 181q10 13 18 13q6 0 16 -8z" />
    <glyph glyph-name="uogonek" unicode="&#x173;" horiz-adv-x="564" 
d="M509 0q-54 -10 -79 -34.5t-25 -53.5q0 -46 63 -46q25 0 58 6l22 -73q-26 -14 -55.5 -21t-55.5 -7q-66 0 -103.5 31t-37.5 79q0 25 8 46t21.5 37.5t31 28.5t35.5 20l-12 31l-26 -15q-31 -17 -58.5 -27t-59.5 -10q-41 0 -76 14t-61 40q-24 25 -37 59.5t-13 82.5v300h146
v-296q0 -32 14 -46q17 -18 66 -18q22 0 43.5 3.5t35.5 8.5q7 3 8 7t1 10v331h146v-488z" />
    <glyph glyph-name="wgrave" unicode="&#x1e81;" horiz-adv-x="832" 
d="M413 304q-6 -30 -17.5 -74.5t-25.5 -90.5l-41 -139h-147q-11 0 -15.5 3t-7.5 11l-165 474h138q11 0 15 -2.5t7 -11.5l43 -141q17 -54 29 -102.5t23 -91.5q8 38 21.5 90t27.5 101l47 158h121q11 0 15.5 -3t7.5 -12l53 -167q6 -19 12.5 -42.5t13 -46.5t11.5 -43.5t8 -34.5
q7 28 19.5 74.5t26.5 91.5l51 168q3 9 7 12t15 3h132l-170 -488h-146q-19 0 -24 14l-40 127q-14 43 -26 88.5t-19 74.5zM508 544l-229 115l56 83q10 15 19 15q6 0 18 -9l180 -142z" />
    <glyph glyph-name="wacute" unicode="&#x1e83;" horiz-adv-x="832" 
d="M413 304q-6 -30 -17.5 -74.5t-25.5 -90.5l-41 -139h-147q-11 0 -15.5 3t-7.5 11l-165 474h138q11 0 15 -2.5t7 -11.5l43 -141q17 -54 29 -102.5t23 -91.5q8 38 21.5 90t27.5 101l47 158h121q11 0 15.5 -3t7.5 -12l53 -167q6 -19 12.5 -42.5t13 -46.5t11.5 -43.5t8 -34.5
q7 28 19.5 74.5t26.5 91.5l51 168q3 9 7 12t15 3h132l-170 -488h-146q-19 0 -24 14l-40 127q-14 43 -26 88.5t-19 74.5zM279 606l180 142q12 9 18 9q9 0 19 -15l56 -83l-229 -115z" />
    <glyph glyph-name="wcircumflex" unicode="&#x175;" horiz-adv-x="832" 
d="M413 304q-6 -30 -17.5 -74.5t-25.5 -90.5l-41 -139h-147q-11 0 -15.5 3t-7.5 11l-165 474h138q11 0 15 -2.5t7 -11.5l43 -141q17 -54 29 -102.5t23 -91.5q8 38 21.5 90t27.5 101l47 158h121q11 0 15.5 -3t7.5 -12l53 -167q6 -19 12.5 -42.5t13 -46.5t11.5 -43.5t8 -34.5
q7 28 19.5 74.5t26.5 91.5l51 168q3 9 7 12t15 3h132l-170 -488h-146q-19 0 -24 14l-40 127q-14 43 -26 88.5t-19 74.5zM289 544l-56 54l128 130q8 8 14 10.5t17 2.5h48q11 0 17 -2.5t14 -10.5l128 -130l-56 -54l-127 92z" />
    <glyph glyph-name="wdieresis" unicode="&#x1e85;" horiz-adv-x="832" 
d="M413 304q-6 -30 -17.5 -74.5t-25.5 -90.5l-41 -139h-147q-11 0 -15.5 3t-7.5 11l-165 474h138q11 0 15 -2.5t7 -11.5l43 -141q17 -54 29 -102.5t23 -91.5q8 38 21.5 90t27.5 101l47 158h121q11 0 15.5 -3t7.5 -12l53 -167q6 -19 12.5 -42.5t13 -46.5t11.5 -43.5t8 -34.5
q7 28 19.5 74.5t26.5 91.5l51 168q3 9 7 12t15 3h132l-170 -488h-146q-19 0 -24 14l-40 127q-14 43 -26 88.5t-19 74.5zM348 701q17 0 23 -6t6 -20v-105h-136v131h107zM561 701q17 0 23 -6t6 -20v-105h-136v131h107z" />
    <glyph glyph-name="ygrave" unicode="&#x1ef3;" horiz-adv-x="543" 
d="M135 488q11 0 15 -2.5t8 -12.5l70 -180q6 -15 12.5 -33t13 -37.5l13 -39t11.5 -36.5q4 16 10.5 36t13.5 41t14 41t13 37l62 171q4 10 8.5 12.5t14.5 2.5h136l-296 -730l-141 36l90 196l-211 498h143zM332 544l-229 115l56 83q10 15 19 15q6 0 18 -9l180 -142z" />
    <glyph glyph-name="yacute" unicode="&#xfd;" horiz-adv-x="543" 
d="M135 488q11 0 15 -2.5t8 -12.5l70 -180q6 -15 12.5 -33t13 -37.5l13 -39t11.5 -36.5q4 16 10.5 36t13.5 41t14 41t13 37l62 171q4 10 8.5 12.5t14.5 2.5h136l-296 -730l-141 36l90 196l-211 498h143zM185 606l180 142q12 9 18 9q9 0 19 -15l56 -83l-229 -115z" />
    <glyph glyph-name="ycircumflex" unicode="&#x177;" horiz-adv-x="543" 
d="M135 488q11 0 15 -2.5t8 -12.5l70 -180q6 -15 12.5 -33t13 -37.5l13 -39t11.5 -36.5q4 16 10.5 36t13.5 41t14 41t13 37l62 171q4 10 8.5 12.5t14.5 2.5h136l-296 -730l-141 36l90 196l-211 498h143zM144 544l-56 54l128 130q8 8 14 10.5t17 2.5h48q11 0 17 -2.5
t14 -10.5l128 -130l-56 -54l-127 92z" />
    <glyph glyph-name="ydieresis" unicode="&#xff;" horiz-adv-x="543" 
d="M135 488q11 0 15 -2.5t8 -12.5l70 -180q6 -15 12.5 -33t13 -37.5l13 -39t11.5 -36.5q4 16 10.5 36t13.5 41t14 41t13 37l62 171q4 10 8.5 12.5t14.5 2.5h136l-296 -730l-141 36l90 196l-211 498h143zM204 701q17 0 23 -6t6 -20v-105h-136v131h107zM417 701q17 0 23 -6
t6 -20v-105h-136v131h107z" />
    <glyph glyph-name="zacute" unicode="&#x17a;" horiz-adv-x="497" 
d="M294 203q-8 -10 -19.5 -23.5t-23 -26.5t-21.5 -24t-15 -16h248v-113h-431v74q0 8 2 14t9 14l148 182q10 13 22 27t23.5 27t21 22.5l14.5 14.5h-234v113h423v-64q0 -10 -3 -15.5t-8 -12.5zM112 606l180 142q12 9 18 9q9 0 19 -15l56 -83l-229 -115z" />
    <glyph glyph-name="zcaron" unicode="&#x17e;" horiz-adv-x="497" 
d="M294 203q-8 -10 -19.5 -23.5t-23 -26.5t-21.5 -24t-15 -16h248v-113h-431v74q0 8 2 14t9 14l148 182q10 13 22 27t23.5 27t21 22.5l14.5 14.5h-234v113h423v-64q0 -10 -3 -15.5t-8 -12.5zM248 652l127 92l56 -54l-128 -130q-8 -8 -14 -10.5t-17 -2.5h-48q-11 0 -17 2.5
t-14 10.5l-128 130l56 54z" />
    <glyph glyph-name="zdotaccent" unicode="&#x17c;" horiz-adv-x="497" 
d="M294 203q-8 -10 -19.5 -23.5t-23 -26.5t-21.5 -24t-15 -16h248v-113h-431v74q0 8 2 14t9 14l148 182q10 13 22 27t23.5 27t21 22.5l14.5 14.5h-234v113h423v-64q0 -10 -3 -15.5t-8 -12.5zM288 694q18 0 24 -6t6 -21v-108h-140v135h110z" />
    <glyph glyph-name="apple" unicode="&#xf8ff;" horiz-adv-x="536" 
d="M208 357q0 13 9.5 22t21.5 9q13 0 21.5 -9t8.5 -22t-8.5 -21.5t-21.5 -8.5q-12 0 -21.5 8.5t-9.5 21.5zM405 357q0 13 9.5 22t21.5 9q13 0 21.5 -9t8.5 -22t-8.5 -21.5t-21.5 -8.5q-12 0 -21.5 8.5t-9.5 21.5zM78 161q0 13 8.5 21.5t21.5 8.5q12 0 21.5 -8.5t9.5 -21.5
t-9.5 -22t-21.5 -9q-13 0 -21.5 9t-8.5 22zM78 357q0 13 8.5 22t21.5 9q12 0 21.5 -9t9.5 -22t-9.5 -21.5t-21.5 -8.5q-13 0 -21.5 8.5t-8.5 21.5zM275 357q0 13 8.5 22t21.5 9q12 0 21.5 -9t9.5 -22t-9.5 -21.5t-21.5 -8.5q-13 0 -21.5 8.5t-8.5 21.5zM340 620q0 12 8.5 21
t22.5 9q11 0 20.5 -9t9.5 -21q0 -14 -9.5 -22.5t-20.5 -8.5q-14 0 -22.5 8.5t-8.5 22.5zM78 620q0 12 8.5 21t21.5 9q12 0 21.5 -9t9.5 -21q0 -14 -9.5 -22.5t-21.5 -8.5q-13 0 -21.5 8.5t-8.5 22.5zM275 620q0 12 8.5 21t21.5 9q12 0 21.5 -9t9.5 -21q0 -14 -9.5 -22.5
t-21.5 -8.5q-13 0 -21.5 8.5t-8.5 22.5zM405 620q0 12 9.5 21t21.5 9q13 0 21.5 -9t8.5 -21q0 -14 -8.5 -22.5t-21.5 -8.5q-12 0 -21.5 8.5t-9.5 22.5zM208 620q0 12 9.5 21t21.5 9q13 0 21.5 -9t8.5 -21q0 -14 -8.5 -22.5t-21.5 -8.5q-12 0 -21.5 8.5t-9.5 22.5zM340 357
q0 13 8.5 22t22.5 9q11 0 20.5 -9t9.5 -22t-9.5 -21.5t-20.5 -8.5q-14 0 -22.5 8.5t-8.5 21.5zM208 30q0 12 9.5 21.5t21.5 9.5q13 0 21.5 -9.5t8.5 -21.5q0 -13 -8.5 -21.5t-21.5 -8.5q-12 0 -21.5 8.5t-9.5 21.5zM78 30q0 12 8.5 21.5t21.5 9.5q12 0 21.5 -9.5t9.5 -21.5
q0 -13 -9.5 -21.5t-21.5 -8.5q-13 0 -21.5 8.5t-8.5 21.5zM208 95q0 14 9.5 22t21.5 8q13 0 21.5 -8t8.5 -22q0 -13 -8.5 -21.5t-21.5 -8.5q-12 0 -21.5 8.5t-9.5 21.5zM78 95q0 14 8.5 22t21.5 8q12 0 21.5 -8t9.5 -22q0 -13 -9.5 -21.5t-21.5 -8.5q-13 0 -21.5 8.5
t-8.5 21.5zM144 620q0 12 9 21t21 9q13 0 21.5 -9t8.5 -21q0 -14 -8.5 -22.5t-21.5 -8.5q-12 0 -21 8.5t-9 22.5zM78 489q0 12 8.5 20.5t21.5 8.5q12 0 21.5 -8.5t9.5 -20.5q0 -13 -9.5 -22t-21.5 -9q-13 0 -21.5 9t-8.5 22zM275 489q0 12 8.5 20.5t21.5 8.5q12 0 21.5 -8.5
t9.5 -20.5q0 -13 -9.5 -22t-21.5 -9q-13 0 -21.5 9t-8.5 22zM208 489q0 12 9.5 20.5t21.5 8.5q13 0 21.5 -8.5t8.5 -20.5q0 -13 -8.5 -22t-21.5 -9q-12 0 -21.5 9t-9.5 22zM405 489q0 12 9.5 20.5t21.5 8.5q13 0 21.5 -8.5t8.5 -20.5q0 -13 -8.5 -22t-21.5 -9q-12 0 -21.5 9
t-9.5 22zM340 489q0 12 8.5 20.5t22.5 8.5q11 0 20.5 -8.5t9.5 -20.5q0 -13 -9.5 -22t-20.5 -9q-14 0 -22.5 9t-8.5 22zM144 30q0 12 9 21.5t21 9.5q13 0 21.5 -9.5t8.5 -21.5q0 -13 -8.5 -21.5t-21.5 -8.5q-12 0 -21 8.5t-9 21.5zM78 292q0 12 8.5 21t21.5 9q12 0 21.5 -9
t9.5 -21q0 -13 -9.5 -21.5t-21.5 -8.5q-13 0 -21.5 8.5t-8.5 21.5zM78 554q0 12 8.5 21t21.5 9q12 0 21.5 -9t9.5 -21q0 -13 -9.5 -21.5t-21.5 -8.5q-13 0 -21.5 8.5t-8.5 21.5zM405 292q0 12 9.5 21t21.5 9q13 0 21.5 -9t8.5 -21q0 -13 -8.5 -21.5t-21.5 -8.5
q-12 0 -21.5 8.5t-9.5 21.5zM78 423q0 13 8.5 21.5t21.5 8.5q12 0 21.5 -8.5t9.5 -21.5t-9.5 -21t-21.5 -8q-13 0 -21.5 8t-8.5 21zM208 423q0 13 9.5 21.5t21.5 8.5q13 0 21.5 -8.5t8.5 -21.5t-8.5 -21t-21.5 -8q-12 0 -21.5 8t-9.5 21zM208 227q0 12 9.5 20.5t21.5 8.5
q13 0 21.5 -8.5t8.5 -20.5q0 -13 -8.5 -21.5t-21.5 -8.5q-12 0 -21.5 8.5t-9.5 21.5zM405 227q0 12 9.5 20.5t21.5 8.5q13 0 21.5 -8.5t8.5 -20.5q0 -13 -8.5 -21.5t-21.5 -8.5q-12 0 -21.5 8.5t-9.5 21.5zM78 227q0 12 8.5 20.5t21.5 8.5q12 0 21.5 -8.5t9.5 -20.5
q0 -13 -9.5 -21.5t-21.5 -8.5q-13 0 -21.5 8.5t-8.5 21.5zM275 227q0 12 8.5 20.5t21.5 8.5q12 0 21.5 -8.5t9.5 -20.5q0 -13 -9.5 -21.5t-21.5 -8.5q-13 0 -21.5 8.5t-8.5 21.5zM340 227q0 12 8.5 20.5t22.5 8.5q11 0 20.5 -8.5t9.5 -20.5q0 -13 -9.5 -21.5t-20.5 -8.5
q-14 0 -22.5 8.5t-8.5 21.5z" />
    </font>
</defs>
</svg>
