<svg viewBox="0 0 24 24" xmlns="http://www.w3.org/2000/svg">
<title>eye-hide-line</title>
<path d="M16.7933 13.6C16.9848 13.0884 17.0819 12.5463 17.08 12C17.08 10.7871 16.5982 9.62383 15.7405 8.76617C14.8828 7.9085 13.7196 7.42667 12.5067 7.42667C11.9671 7.4273 11.432 7.52438 10.9267 7.71333L12 8.82C12.1632 8.7939 12.3281 8.78052 12.4933 8.78C13.351 8.77821 14.1745 9.11583 14.784 9.71913C15.3935 10.3224 15.7396 11.1424 15.7467 12C15.7461 12.1652 15.7327 12.3302 15.7067 12.4933L16.7933 13.6Z"/>
<path d="M22.86 11.6867C20.6133 7.53333 16.6733 5.02 12.3133 5.02C11.1262 5.02279 9.94711 5.21406 8.82 5.58667L9.89334 6.66667C10.6839 6.46235 11.4968 6.3571 12.3133 6.35333C16.0667 6.35333 19.48 8.44667 21.5133 11.9733C20.7674 13.2817 19.7786 14.4357 18.6 15.3733L19.5467 16.32C20.9107 15.2196 22.0436 13.8601 22.88 12.32L23.0533 12L22.86 11.6867Z"/>
<path d="M3.24667 3.85333L6.22 6.82667C4.34062 8.03674 2.8046 9.71051 1.76 11.6867L1.58667 12L1.76 12.32C4.00667 16.4733 7.94667 18.9867 12.3067 18.9867C14.0084 18.9863 15.6881 18.6012 17.22 17.86L20.5533 21.1933L21.72 20.1933L4.38667 2.86L3.24667 3.85333ZM9.74667 10.3533L14.18 14.7867C13.6791 15.0967 13.1024 15.2628 12.5133 15.2667C12.0853 15.2667 11.6615 15.182 11.2663 15.0176C10.871 14.8532 10.5122 14.6123 10.2105 14.3087C9.90875 14.0051 9.67002 13.6448 9.50804 13.2486C9.34606 12.8524 9.26403 12.428 9.26667 12C9.27418 11.4177 9.44012 10.8485 9.74667 10.3533ZM8.78 9.38667C8.15629 10.2663 7.86395 11.3382 7.95475 12.4127C8.04554 13.4871 8.51361 14.4948 9.27607 15.2573C10.0385 16.0197 11.0462 16.4878 12.1207 16.5786C13.1951 16.6694 14.2671 16.377 15.1467 15.7533L16.2133 16.82C14.9785 17.3478 13.6496 17.62 12.3067 17.62C8.55334 17.62 5.14 15.5267 3.10667 12C4.08247 10.2721 5.48782 8.82547 7.18667 7.8L8.78 9.38667Z"/>
</svg>
