<svg viewBox="0 0 24 24" xmlns="http://www.w3.org/2000/svg">
<title>notes</title>
<path d="M18.6667 20H4.00001V5.33333H12.8133L14.1467 4H4.00001C3.64638 4 3.30724 4.14048 3.0572 4.39052C2.80715 4.64057 2.66667 4.97971 2.66667 5.33333V20C2.66667 20.3536 2.80715 20.6928 3.0572 20.9428C3.30724 21.1929 3.64638 21.3333 4.00001 21.3333H18.6667C19.0203 21.3333 19.3594 21.1929 19.6095 20.9428C19.8595 20.6928 20 20.3536 20 20V10L18.6667 11.3333V20Z"/>
<path d="M22.3533 3.89335L20.1067 1.64668C20.007 1.5467 19.8885 1.46738 19.7581 1.41325C19.6277 1.35913 19.4879 1.33127 19.3467 1.33127C19.2055 1.33127 19.0657 1.35913 18.9352 1.41325C18.8048 1.46738 18.6864 1.5467 18.5867 1.64668L9.44667 10.84L8.70667 14.0467C8.67515 14.2021 8.67846 14.3626 8.71638 14.5166C8.75429 14.6706 8.82587 14.8143 8.92596 14.9374C9.02604 15.0604 9.15215 15.1597 9.29522 15.2282C9.43828 15.2967 9.59474 15.3326 9.75334 15.3333C9.83532 15.3424 9.91803 15.3424 10 15.3333L13.2333 14.62L22.3533 5.41335C22.4533 5.31364 22.5326 5.19519 22.5868 5.06477C22.6409 4.93436 22.6688 4.79455 22.6688 4.65335C22.6688 4.51215 22.6409 4.37234 22.5868 4.24192C22.5326 4.11151 22.4533 3.99305 22.3533 3.89335V3.89335ZM12.54 13.3867L10.1 13.9267L10.6667 11.5067L17.5467 4.58001L19.4267 6.46001L12.54 13.3867ZM20.18 5.70668L18.3 3.82668L19.3333 2.77335L21.2267 4.66668L20.18 5.70668Z"/>
</svg>
