<svg viewBox="0 0 25 25" xmlns="http://www.w3.org/2000/svg">
<title>questao</title>
<path fill-rule="evenodd" clip-rule="evenodd" d="M19.2381 4.87446H5.46393C4.83094 4.87446 4.31781 5.38759 4.31781 6.02057V18.4853C4.31781 19.1183 4.83094 19.6314 5.46393 19.6314H19.2381C19.8711 19.6314 20.3843 19.1183 20.3843 18.4853V6.02057C20.3843 5.38759 19.8711 4.87446 19.2381 4.87446ZM5.46393 3.72834C4.19796 3.72834 3.17169 4.75461 3.17169 6.02057V18.4853C3.17169 19.7512 4.19796 20.7775 5.46393 20.7775H19.2381C20.5041 20.7775 21.5304 19.7512 21.5304 18.4853V6.02057C21.5304 4.75461 20.5041 3.72834 19.2381 3.72834H5.46393Z"/>
<path fill-rule="evenodd" clip-rule="evenodd" d="M17.9857 10.7176C18.1505 10.5118 18.4508 10.4782 18.6568 10.643C18.8626 10.8078 18.8962 11.1081 18.7314 11.3141L15.6319 15.1884C15.4202 15.4529 15.0258 15.4746 14.7862 15.2351L13.4743 13.9232C13.2878 13.7366 13.2878 13.4345 13.4743 13.248C13.6608 13.0615 13.9629 13.0615 14.1495 13.248L15.156 14.2545L17.9857 10.7176Z"/>
<path d="M5.72897 8.58583C5.72897 8.26934 5.98554 8.01277 6.30203 8.01277H18.2629C18.5794 8.01277 18.836 8.26934 18.836 8.58583V8.58583C18.836 8.90232 18.5794 9.15889 18.2629 9.15889H6.30203C5.98554 9.15889 5.72897 8.90232 5.72897 8.58583V8.58583Z"/>
<path d="M5.72897 12.0597C5.72897 11.7432 5.98554 11.4866 6.30203 11.4866H11.7847C12.1012 11.4866 12.3578 11.7432 12.3578 12.0597V12.0597C12.3578 12.3761 12.1012 12.6327 11.7847 12.6327H6.30203C5.98554 12.6327 5.72897 12.3761 5.72897 12.0597V12.0597Z"/>
<path d="M5.72897 15.5335C5.72897 15.217 5.98554 14.9604 6.30203 14.9604H11.7847C12.1012 14.9604 12.3578 15.217 12.3578 15.5335V15.5335C12.3578 15.85 12.1012 16.1065 11.7847 16.1065H6.30203C5.98554 16.1065 5.72897 15.85 5.72897 15.5335V15.5335Z"/>
</svg>
