<svg viewBox="0 0 32 32" xmlns="http://www.w3.org/2000/svg">
<title>med-riscar</title>
<path d="M21.667 11.7774C21.2511 11.3692 20.58 11.3731 20.1684 11.788L11.9733 20.1002C11.7749 20.3014 11.6662 20.5692 11.6682 20.8521L11.6831 22.9485C11.6873 23.532 12.1663 24.0044 12.7498 24.0002L14.8462 23.9854C15.1301 23.9834 15.3962 23.8709 15.5929 23.6697L23.7889 15.3576C24.1989 14.9417 24.1941 14.2689 23.7783 13.8589L21.667 11.7774ZM23.2083 14.7852L15.0114 23.0982C14.9667 23.1445 14.9059 23.1698 14.8404 23.1702L12.744 23.1851C12.6097 23.1861 12.4992 23.0772 12.4983 22.9429L12.4835 20.8465C12.483 20.781 12.5082 20.719 12.5538 20.6727L20.7489 12.3605C20.7963 12.3124 20.8589 12.2881 20.9217 12.2876C20.9836 12.2872 21.0465 12.3106 21.0946 12.358L23.2058 14.4394C23.3021 14.5343 23.3031 14.689 23.2083 14.7852Z" />
<path fill-rule="evenodd" clip-rule="evenodd" d="M21.7371 11.7062L23.8484 13.7877C24.3035 14.2364 24.3087 14.9726 23.86 15.4277L15.6643 23.7396C15.6643 23.7396 15.6644 23.7395 15.6643 23.7396C15.4488 23.96 15.157 24.0831 14.8468 24.0853L12.7505 24.1002C12.1117 24.1047 11.5876 23.5879 11.583 22.9492L11.683 22.9484C11.6872 23.532 12.1662 24.0043 12.7497 24.0002L14.8461 23.9853C15.13 23.9833 15.3961 23.8709 15.5928 23.6697L23.7888 15.3575C24.1988 14.9417 24.194 14.2689 23.7782 13.8589L21.6669 11.7774C21.251 11.3691 20.5799 11.373 20.1683 11.788L11.9732 20.1001C11.7748 20.3014 11.6662 20.5691 11.6681 20.8521L11.683 22.9484L11.583 22.9492L11.5681 20.8528C11.566 20.5433 11.685 20.2501 11.902 20.0299L20.097 11.7178C20.5475 11.2638 21.282 11.2594 21.7371 11.7062ZM15.0113 23.0982L23.2082 14.7851C23.303 14.689 23.302 14.5343 23.2057 14.4394L21.0945 12.3579C21.0464 12.3106 20.9835 12.2871 20.9216 12.2876C20.8588 12.288 20.7962 12.3124 20.7488 12.3605L12.5537 20.6726C12.5081 20.719 12.4829 20.781 12.4834 20.8465L12.4982 22.9428C12.4991 23.0772 12.6096 23.186 12.7439 23.185L14.8403 23.1702C14.9058 23.1697 14.9666 23.1445 15.0113 23.0982ZM12.5834 20.8458L12.5982 22.9421C12.5987 23.0212 12.6641 23.0856 12.7432 23.085L14.8396 23.0702C14.8793 23.0699 14.9141 23.0549 14.9395 23.0287L23.137 14.7149C23.193 14.6581 23.1924 14.5667 23.1355 14.5106L21.0243 12.4292C20.9958 12.4011 20.9587 12.3873 20.9223 12.3876C20.8849 12.3878 20.848 12.4023 20.82 12.4307L12.625 20.7428C12.598 20.7702 12.5831 20.8067 12.5834 20.8458C12.5834 20.8458 12.5834 20.8458 12.5834 20.8458Z" />
<path d="M27.1405 10.2158L25.2483 8.34943C25.0177 8.12208 24.7118 7.99777 24.3882 8.00003C24.3873 8.00003 24.3873 8.00003 24.3873 8.00003C24.0628 8.00229 23.7595 8.13095 23.533 8.36156L22.6147 9.29295C22.1573 9.75688 22.1627 10.5084 22.6266 10.9667L24.5615 12.8735C24.794 13.1026 25.098 13.2153 25.4004 13.2133C25.7037 13.2111 26.0061 13.094 26.2353 12.8616L27.1526 11.9311C27.38 11.6996 27.5043 11.3937 27.5019 11.0701C27.4997 10.7456 27.3711 10.4423 27.1405 10.2158ZM26.5721 11.3587L25.6547 12.2892C25.5117 12.4343 25.2774 12.4342 25.1339 12.2929L23.199 10.387C23.0548 10.2439 23.0531 10.0088 23.1953 9.86453L24.1136 8.93314C24.1882 8.85835 24.2869 8.81607 24.3931 8.81535H24.394C24.5001 8.81462 24.6003 8.85546 24.676 8.93006L26.5682 10.7965H26.5691C26.6439 10.8711 26.6862 10.9698 26.6869 11.076C26.6875 11.1828 26.6467 11.283 26.5721 11.3587Z" />
<path fill-rule="evenodd" clip-rule="evenodd" d="M24.3883 8.00006C24.7119 7.9978 25.0178 8.12211 25.2484 8.34946L27.1406 10.2159C27.3713 10.4423 27.4998 10.7456 27.5021 11.0701C27.5044 11.3937 27.3801 11.6996 27.1528 11.9311L26.2354 12.8616C26.0063 13.094 25.7039 13.2111 25.4006 13.2133C25.0981 13.2154 24.7941 13.1027 24.5617 12.8735L22.6268 10.9667C22.1628 10.5084 22.1575 9.75691 22.6149 9.29298L23.5332 8.36159C23.7597 8.13099 24.0638 8.00233 24.3883 8.00006ZM24.3874 7.90027L24.3883 8.00006ZM24.3883 8.00006L24.3874 7.90027C24.0364 7.90272 23.7071 8.04191 23.4619 8.29144C23.4619 8.29141 23.4619 8.29146 23.4619 8.29144L22.5437 9.22277C22.5437 9.22277 22.5437 9.22277 22.5437 9.22277C22.0475 9.72607 22.0534 10.5408 22.5565 11.0379L24.4915 12.9447C24.7437 13.1933 25.0736 13.3155 25.4012 13.3133C25.7298 13.3109 26.058 13.184 26.3066 12.9318L27.224 12.0014C27.4698 11.7511 27.6046 11.4196 27.6021 11.0694C27.6021 11.0694 27.6021 11.0694 27.6021 11.0694M25.6549 12.2892L26.5722 11.3588C26.6468 11.2831 26.6877 11.1828 26.687 11.076C26.6863 10.9699 26.644 10.8711 26.5692 10.7965L24.6761 8.9301C24.6004 8.85549 24.5002 8.81466 24.3941 8.81538C24.288 8.8161 24.1883 8.85839 24.1137 8.93317L23.1954 9.86456C23.0532 10.0088 23.0549 10.2439 23.1992 10.3871L25.1341 12.2929C25.2775 12.4343 25.5118 12.4344 25.6549 12.2892ZM24.3936 8.91538C24.3145 8.916 24.241 8.94728 24.1847 9.0036C24.1846 9.00367 24.1848 9.00354 24.1847 9.0036L23.2666 9.93477C23.1634 10.0395 23.1642 10.2114 23.2695 10.316C23.2695 10.316 23.2694 10.3159 23.2695 10.316L25.2043 12.2217C25.3087 12.3246 25.4797 12.3245 25.5837 12.219L26.501 11.2886C26.557 11.2318 26.5875 11.157 26.587 11.0767C26.5865 11.0035 26.5598 10.9351 26.5112 10.8806L24.6059 9.00131C24.6059 9.00131 24.6059 9.00132 24.6059 9.00131C24.549 8.94525 24.4743 8.91484 24.3948 8.91538L24.3936 8.91538Z" />
<path d="M8.96989 21.8818C8.4137 21.7775 7.85407 21.933 7.31119 22.346C6.79484 22.7403 6.30321 22.903 5.84607 22.8243C5.16611 22.7102 4.75234 22.0983 4.74881 22.094C4.62595 21.9039 4.37126 21.8508 4.18556 21.9747C3.99633 22.0975 3.94327 22.3496 4.06622 22.5379C4.09013 22.575 4.66832 23.4477 5.70021 23.6263C5.82488 23.6475 5.94956 23.6582 6.07514 23.6582C6.64454 23.6582 7.22545 23.4362 7.80464 22.995C8.1601 22.7245 8.48903 22.6184 8.81616 22.682C9.4254 22.7943 9.83564 23.4424 9.84008 23.4496C9.95769 23.6388 10.2079 23.7015 10.3998 23.5813C10.5907 23.4637 10.6518 23.2143 10.5342 23.0234C10.5102 22.9835 9.93813 22.063 8.96989 21.8818Z" />
<path fill-rule="evenodd" clip-rule="evenodd" d="M7.31111 22.346C7.85399 21.9331 8.41362 21.7775 8.96981 21.8818C9.93805 22.0631 10.5101 22.9835 10.5341 23.0234C10.6517 23.2144 10.5907 23.4637 10.3997 23.5813C10.2079 23.7016 9.9576 23.6388 9.83999 23.4496C9.83556 23.4425 9.42532 22.7944 8.81607 22.6821C8.48895 22.6184 8.16002 22.7246 7.80455 22.9951C7.22537 23.4363 6.64446 23.6582 6.07505 23.6582C5.94947 23.6582 5.8248 23.6475 5.70012 23.6263C4.66823 23.4478 4.09004 22.5751 4.06614 22.538C3.94319 22.3496 3.99624 22.0976 4.18547 21.9747C4.37117 21.8508 4.62586 21.9039 4.74872 22.094C4.74882 22.0942 4.74922 22.0947 4.74993 22.0957C4.77505 22.1314 5.18459 22.7134 5.84598 22.8243C6.30312 22.903 6.79476 22.7403 7.31111 22.346ZM4.83249 22.0394C4.88549 22.1125 5.2658 22.6256 5.86253 22.7257L5.86295 22.7258C6.28277 22.798 6.74667 22.6512 7.25042 22.2665L7.25057 22.2664C7.81109 21.84 8.39877 21.673 8.98821 21.7835C9.49866 21.8791 9.90068 22.1684 10.1755 22.4337C10.4491 22.6978 10.6031 22.9443 10.6195 22.9715M7.86512 23.0747C7.27331 23.5255 6.67168 23.7582 6.07505 23.7582C5.94375 23.7582 5.81347 23.747 5.68337 23.7249L5.68307 23.7249C4.60892 23.539 4.01072 22.6365 3.98223 22.5924C3.82936 22.3579 3.89539 22.0442 4.1305 21.8912C4.36297 21.7365 4.67971 21.8034 4.83249 22.0394" />
</svg>
