<svg viewBox="0 0 32 32" xmlns="http://www.w3.org/2000/svg">
<title>font-increase</title>
<path d="M21.1825 8.30997C20.9086 8.5445 20.5527 8.66059 20.1932 8.63273C19.8337 8.60486 19.4999 8.43532 19.2654 8.16139C19.0309 7.88746 18.9148 7.53159 18.9427 7.17206C18.9705 6.81253 19.1401 6.4788 19.414 6.24427L22.585 3.52625C22.8313 3.31521 23.145 3.19922 23.4693 3.19922C23.7936 3.19922 24.1073 3.31521 24.3536 3.52625L27.5246 6.24427C27.6602 6.3604 27.7717 6.5021 27.8525 6.66129C27.9334 6.82048 27.9821 6.99404 27.9959 7.17206C28.0097 7.35008 27.9883 7.52907 27.933 7.69882C27.8776 7.86857 27.7893 8.02575 27.6732 8.16139C27.5571 8.29702 27.4154 8.40846 27.2562 8.48933C27.097 8.57021 26.9234 8.61893 26.7454 8.63273C26.5674 8.64653 26.3884 8.62512 26.2186 8.56975C26.0489 8.51437 25.8917 8.4261 25.7561 8.30997L23.4693 6.34756L21.1825 8.30635V8.30997ZM13.5032 6.37112C13.2335 6.37117 12.9698 6.4515 12.7459 6.60187C12.5219 6.75224 12.3478 6.96586 12.2457 7.21552L4.09158 27.1477C3.96314 27.4796 3.97004 27.8487 4.11079 28.1756C4.25154 28.5025 4.51491 28.7611 4.84431 28.8959C5.1737 29.0307 5.54283 29.0309 5.87236 28.8965C6.2019 28.762 6.46555 28.5037 6.60666 28.1769L9.22683 21.7733H17.7796L20.3997 28.1769C20.4649 28.3454 20.5631 28.4992 20.6884 28.6294C20.8138 28.7595 20.9638 28.8633 21.1297 28.9347C21.2957 29.0062 21.4742 29.0438 21.6548 29.0455C21.8355 29.0471 22.0147 29.0127 22.1819 28.9443C22.3491 28.8759 22.501 28.7748 22.6287 28.647C22.7563 28.5191 22.8573 28.3671 22.9255 28.1999C22.9937 28.0326 23.028 27.8534 23.0261 27.6727C23.0243 27.4921 22.9864 27.3136 22.9148 27.1477L14.7607 7.21552C14.6586 6.96586 14.4845 6.75224 14.2605 6.60187C14.0366 6.4515 13.7729 6.37117 13.5032 6.37112V6.37112ZM13.5032 11.3179L16.667 19.0552H10.3412L13.5032 11.3179Z"/>
</svg>
