<svg viewBox="0 0 24 24" xmlns="http://www.w3.org/2000/svg">
<title>star-filled</title>
<path d="M21.2836 8.27578L15.3328 7.41093L12.6727 2.01797C12.6 1.87031 12.4805 1.75078 12.3328 1.67812C11.9625 1.49531 11.5125 1.64765 11.3273 2.01797L8.66718 7.41093L2.7164 8.27578C2.55234 8.29922 2.40234 8.37656 2.2875 8.49375C2.14866 8.63645 2.07215 8.82843 2.07479 9.02752C2.07743 9.2266 2.15899 9.41649 2.30156 9.55547L6.60703 13.7531L5.58984 19.6805C5.56599 19.8183 5.58125 19.9602 5.63389 20.0898C5.68652 20.2195 5.77444 20.3318 5.88766 20.414C6.00088 20.4962 6.13487 20.5451 6.27445 20.555C6.41403 20.565 6.5536 20.5356 6.67734 20.4703L12 17.6719L17.3227 20.4703C17.468 20.5477 17.6367 20.5734 17.7984 20.5453C18.2062 20.475 18.4805 20.0883 18.4102 19.6805L17.393 13.7531L21.6984 9.55547C21.8156 9.44062 21.893 9.29062 21.9164 9.12656C21.9797 8.7164 21.6937 8.33672 21.2836 8.27578V8.27578Z"/>
</svg>
