<svg viewBox="0 0 17 16" xmlns="http://www.w3.org/2000/svg">
<title>discursiva</title>
<path fill-rule="evenodd" clip-rule="evenodd" d="M12.5333 3.04992C12.3837 2.98806 12.2233 2.95633 12.0614 2.95655C11.8994 2.95676 11.7391 2.98892 11.5896 3.05118C11.4401 3.11343 11.3044 3.20457 11.1902 3.31936L4.02263 10.5231L3.443 12.8092L5.76995 12.2274L12.9334 5.06396L12.9335 5.06392C13.0482 4.94923 13.1392 4.81306 13.2013 4.66319C13.2634 4.51332 13.2953 4.35269 13.2953 4.19047C13.2953 4.02825 13.2634 3.86762 13.2013 3.71775C13.1392 3.56789 13.0482 3.43172 12.9335 3.31703C12.819 3.20255 12.683 3.11177 12.5333 3.04992ZM12.0603 2.19464C12.3225 2.19429 12.5821 2.24566 12.8244 2.34579C13.0666 2.44593 13.2868 2.59287 13.4721 2.7782L13.1531 3.09735L13.4721 2.7782C13.6576 2.96364 13.8048 3.18381 13.9052 3.42613C14.0056 3.66845 14.0572 3.92818 14.0572 4.19047C14.0572 4.45277 14.0056 4.71249 13.9052 4.95481C13.8048 5.19713 13.6576 5.4173 13.4721 5.60274L6.23409 12.8408C6.18526 12.8896 6.12409 12.9243 6.05711 12.941L3.00949 13.7029C2.87945 13.7354 2.74189 13.6972 2.64727 13.6023C2.55265 13.5073 2.51488 13.3696 2.54783 13.2397L3.30973 10.2347C3.32651 10.1686 3.36078 10.1081 3.40895 10.0597L10.6501 2.78197L10.9201 3.05066L10.6501 2.78197C10.835 2.59614 11.0547 2.44861 11.2967 2.34783C11.5387 2.24705 11.7982 2.19499 12.0603 2.19464Z"/>
<path fill-rule="evenodd" clip-rule="evenodd" d="M7.10742 13.3333C7.10742 13.123 7.27798 12.9524 7.48837 12.9524H13.5836C13.794 12.9524 13.9646 13.123 13.9646 13.3333C13.9646 13.5437 13.794 13.7143 13.5836 13.7143H7.48837C7.27798 13.7143 7.10742 13.5437 7.10742 13.3333Z"/>
<path fill-rule="evenodd" clip-rule="evenodd" d="M11.7903 4.68299C11.9391 4.53422 12.1803 4.53422 12.329 4.68299L13.0909 5.44489C13.2397 5.59367 13.2397 5.83487 13.0909 5.98364C12.9422 6.13241 12.701 6.13241 12.5522 5.98364L11.7903 5.22174C11.6415 5.07297 11.6415 4.83176 11.7903 4.68299Z"/>
</svg>
