<svg viewBox="0 0 24 24" xmlns="http://www.w3.org/2000/svg">
<title>cartao-resposta</title>
<path fill-rule="evenodd" clip-rule="evenodd" d="M21.7598 3.3936C21.5924 3.22005 21.3702 3.12452 21.1336 3.12452H2.86647C2.62985 3.12452 2.40765 3.22005 2.24033 3.3936C2.07596 3.56408 1.98138 3.8008 1.98138 4.04238V19.9574C1.98138 20.2022 2.07349 20.432 2.24033 20.6068C2.40765 20.7792 2.62985 20.8754 2.86647 20.8754H21.1336C21.3702 20.8754 21.5924 20.7792 21.7598 20.6057C21.9266 20.4321 22.0187 20.2023 22.0187 19.9575V4.04251C22.0186 3.8008 21.9241 3.5642 21.7598 3.3936ZM3.27107 10.703C3.13274 10.703 3.02061 10.5867 3.02061 10.4432V7.49328C3.02061 7.34981 3.13274 7.2335 3.27107 7.2335H6.48078C6.61911 7.2335 6.73125 7.34981 6.73125 7.49328V10.4432C6.73125 10.5867 6.61911 10.703 6.48078 10.703H3.27107ZM3.27107 15.2503C3.13274 15.2503 3.02061 15.134 3.02061 14.9905V12.0405C3.02061 11.8971 3.13274 11.7808 3.27107 11.7808H6.48078C6.61911 11.7808 6.73125 11.8971 6.73125 12.0405V14.9905C6.73125 15.134 6.61911 15.2503 6.48078 15.2503H3.27107ZM6.48078 16.3281C6.61911 16.3281 6.73125 16.4444 6.73125 16.5879V19.5379C6.73125 19.6814 6.61911 19.7977 6.48078 19.7977H3.27107C3.13274 19.7977 3.02061 19.6814 3.02061 19.5379V16.5879C3.02061 16.4444 3.13274 16.3281 3.27107 16.3281H6.48078ZM8.02032 10.703C7.88199 10.703 7.76985 10.5867 7.76985 10.4432V7.49328C7.76985 7.34981 7.88199 7.2335 8.02032 7.2335H11.23C11.3684 7.2335 11.4805 7.34981 11.4805 7.49328V10.4432C11.4805 10.5867 11.3684 10.703 11.23 10.703H8.02032ZM8.02032 15.2503C7.88199 15.2503 7.76985 15.134 7.76985 14.9905V12.0405C7.76985 11.8971 7.88199 11.7808 8.02032 11.7808H11.23C11.3684 11.7808 11.4805 11.8971 11.4805 12.0405V14.9905C11.4805 15.134 11.3684 15.2503 11.23 15.2503H8.02032ZM8.02032 19.7977C7.88199 19.7977 7.76985 19.6814 7.76985 19.5379V16.5879C7.76985 16.4444 7.88199 16.3281 8.02032 16.3281H11.23C11.3684 16.3281 11.4805 16.4444 11.4805 16.5879V19.5379C11.4805 19.6814 11.3684 19.7977 11.23 19.7977H8.02032ZM12.7701 10.703C12.6317 10.703 12.5196 10.5867 12.5196 10.4432V7.49328C12.5196 7.34981 12.6317 7.2335 12.7701 7.2335H15.9798C16.1181 7.2335 16.2302 7.34981 16.2302 7.49328V10.4432C16.2302 10.5867 16.1181 10.703 15.9798 10.703H12.7701ZM12.7701 15.2503C12.6317 15.2503 12.5196 15.134 12.5196 14.9905V12.0405C12.5196 11.8971 12.6317 11.7808 12.7701 11.7808H15.9798C16.1181 11.7808 16.2302 11.8971 16.2302 12.0405V14.9905C16.2302 15.134 16.1181 15.2503 15.9798 15.2503H12.7701ZM12.7701 19.7977C12.6317 19.7977 12.5196 19.6814 12.5196 19.5379V16.5879C12.5196 16.4444 12.6317 16.3281 12.7701 16.3281H15.9798C16.1181 16.3281 16.2302 16.4444 16.2302 16.5879V19.5379C16.2302 19.6814 16.1181 19.7977 15.9798 19.7977H12.7701ZM20.7289 16.3281C20.8672 16.3281 20.9794 16.4444 20.9794 16.5879V19.5379C20.9794 19.6814 20.8672 19.7977 20.7289 19.7977H17.5192C17.3809 19.7977 17.2687 19.6814 17.2687 19.5379V16.5879C17.2687 16.4444 17.3809 16.3281 17.5192 16.3281H20.7289ZM20.7289 11.7809C20.8672 11.7809 20.9794 11.8972 20.9794 12.0407V14.9906C20.9794 15.1341 20.8672 15.2504 20.7289 15.2504H17.5192C17.3809 15.2504 17.2687 15.1341 17.2687 14.9906V12.0407C17.2687 11.8972 17.3809 11.7809 17.5192 11.7809H20.7289ZM20.7289 7.2335C20.8672 7.2335 20.9794 7.34981 20.9794 7.49328V10.4432C20.9794 10.5867 20.8672 10.703 20.7289 10.703H17.5192C17.3809 10.703 17.2687 10.5867 17.2687 10.4432V7.49328C17.2687 7.34981 17.3809 7.2335 17.5192 7.2335H20.7289ZM20.7289 4.20238C20.8672 4.20238 20.9794 4.31868 20.9794 4.46215V5.8965C20.9794 6.03997 20.8672 6.15628 20.7289 6.15628H3.27107C3.13274 6.15628 3.02061 6.03997 3.02061 5.8965V4.46216C3.02061 4.31868 3.13274 4.20238 3.27107 4.20238H20.7289Z"/>
<path fill-rule="evenodd" clip-rule="evenodd" d="M17.915 9.7869C17.8987 9.82719 17.8904 9.87054 17.8904 9.91415C17.8904 9.95776 17.8987 10.0011 17.915 10.0414C17.9312 10.0817 17.9551 10.1183 17.985 10.1491C18.0458 10.2101 18.127 10.2441 18.2116 10.2441C18.296 10.2441 18.3774 10.21 18.4381 10.1491L19.0447 9.47242C19.073 9.44083 19.1207 9.44006 19.15 9.47037L19.8043 10.149C19.8658 10.2088 19.9466 10.2428 20.0308 10.2444C20.1154 10.2442 20.1967 10.2101 20.2573 10.149C20.2873 10.1183 20.3111 10.0816 20.3274 10.0413C20.3436 10.0009 20.352 9.95763 20.352 9.91402C20.352 9.87028 20.3436 9.82693 20.3274 9.78677C20.3111 9.74636 20.2873 9.70978 20.2573 9.67909L19.6044 9.04258C19.5743 9.01329 19.5736 8.96393 19.6028 8.93349L20.2573 8.25465C20.2888 8.22485 20.3138 8.18866 20.3309 8.14812C20.3481 8.1077 20.3567 8.06384 20.3565 8.01972C20.3559 7.97572 20.3467 7.93224 20.3297 7.89183C20.3127 7.85141 20.288 7.81509 20.2573 7.78478C20.1965 7.72365 20.1154 7.6895 20.0308 7.68937C19.9465 7.69091 19.8657 7.72493 19.8043 7.78478L19.1976 8.46145C19.1694 8.49304 19.1216 8.4938 19.0923 8.46337L18.4381 7.78478C18.3765 7.72493 18.2958 7.69091 18.2116 7.68937C18.127 7.6895 18.0457 7.72365 17.985 7.78478C17.9551 7.81547 17.9313 7.85218 17.915 7.89246C17.8987 7.93288 17.8904 7.97611 17.8904 8.01972C17.8904 8.06333 17.8987 8.10681 17.915 8.14696C17.9312 8.18738 17.9551 8.22395 17.985 8.25465L18.638 8.89116C18.668 8.92044 18.6688 8.96994 18.6396 9.00025L17.985 9.67909C17.9551 9.70991 17.9312 9.74649 17.915 9.7869Z"/>
<path fill-rule="evenodd" clip-rule="evenodd" d="M15.5823 12.6969C15.5994 12.6565 15.608 12.6126 15.6078 12.5686C15.6072 12.5245 15.5982 12.481 15.5811 12.4407C15.5641 12.4003 15.5395 12.3639 15.5086 12.3337C15.448 12.2724 15.3667 12.2383 15.2821 12.2383C15.1978 12.2398 15.117 12.2739 15.0556 12.3337L14.449 13.0102C14.4207 13.0418 14.373 13.0426 14.3436 13.0123L13.6894 12.3337C13.6279 12.2739 13.5472 12.2398 13.4629 12.2383C13.3783 12.2384 13.297 12.2726 13.2364 12.3337C13.2064 12.3644 13.1826 12.401 13.1663 12.4414C13.15 12.4817 13.1417 12.525 13.1417 12.5686C13.1417 12.6122 13.15 12.6556 13.1663 12.6959C13.1826 12.7363 13.2064 12.7729 13.2364 12.8036L13.8893 13.4401C13.9194 13.4694 13.9201 13.5189 13.8909 13.5492L13.2364 14.228C13.2064 14.2587 13.1826 14.2953 13.1663 14.3357C13.15 14.3761 13.1417 14.4193 13.1417 14.4629C13.1417 14.5066 13.15 14.5499 13.1663 14.5902C13.1826 14.6305 13.2064 14.6671 13.2364 14.6979C13.2972 14.7589 13.3784 14.7929 13.4629 14.7929C13.5475 14.7929 13.6287 14.7588 13.6894 14.6979L14.2961 14.0212C14.3243 13.9898 14.3721 13.9889 14.4014 14.0193L15.0556 14.6979C15.1171 14.7577 15.1979 14.7918 15.2821 14.7933C15.3667 14.7932 15.448 14.7589 15.5086 14.6979C15.5387 14.6672 15.5624 14.6305 15.5787 14.5902C15.595 14.5498 15.6033 14.5066 15.6033 14.4629C15.6033 14.4193 15.595 14.376 15.5787 14.3357C15.5625 14.2953 15.5387 14.2587 15.5086 14.228L14.8557 13.5915C14.8256 13.5622 14.8249 13.5129 14.8541 13.4824L15.5086 12.8036C15.5402 12.7736 15.5652 12.7373 15.5823 12.6969Z"/>
<path fill-rule="evenodd" clip-rule="evenodd" d="M15.5823 17.2444C15.5994 17.204 15.608 17.1601 15.6078 17.1161C15.6072 17.072 15.5982 17.0285 15.5811 16.9882C15.5641 16.9478 15.5395 16.9114 15.5086 16.8812C15.448 16.8199 15.3667 16.7858 15.2821 16.7858C15.1978 16.7873 15.117 16.8213 15.0556 16.8812L14.449 17.5577C14.4207 17.5893 14.373 17.5901 14.3436 17.5598L13.6894 16.8812C13.6279 16.8213 13.5472 16.7873 13.4629 16.7858C13.3783 16.7859 13.297 16.82 13.2364 16.8812C13.2064 16.9119 13.1826 16.9484 13.1663 16.9889C13.15 17.0291 13.1417 17.0725 13.1417 17.1161C13.1417 17.1597 13.15 17.2031 13.1663 17.2434C13.1826 17.2838 13.2064 17.3203 13.2364 17.351L13.8893 17.9876C13.9194 18.0168 13.9201 18.0663 13.8909 18.0966L13.2364 18.7755C13.2064 18.8062 13.1826 18.8428 13.1663 18.8832C13.15 18.9236 13.1417 18.9668 13.1417 19.0104C13.1417 19.054 13.15 19.0974 13.1663 19.1377C13.1826 19.178 13.2064 19.2145 13.2364 19.2453C13.2972 19.3064 13.3784 19.3404 13.4629 19.3404C13.5475 19.3404 13.6287 19.3062 13.6894 19.2453L14.2961 18.5687C14.3243 18.5372 14.3721 18.5363 14.4014 18.5668L15.0556 19.2453C15.1171 19.3052 15.1979 19.3392 15.2821 19.3408C15.3667 19.3406 15.448 19.3064 15.5086 19.2453C15.5387 19.2147 15.5624 19.178 15.5787 19.1377C15.595 19.0973 15.6033 19.054 15.6033 19.0104C15.6033 18.9668 15.595 18.9235 15.5787 18.8832C15.5625 18.8428 15.5387 18.8062 15.5086 18.7755L14.8557 18.139C14.8256 18.1097 14.8249 18.0603 14.8541 18.03L15.5086 17.3512C15.5402 17.3212 15.5652 17.2849 15.5823 17.2444Z"/>
<path fill-rule="evenodd" clip-rule="evenodd" d="M10.8329 12.6969C10.8501 12.6565 10.8587 12.6126 10.8584 12.5686C10.8578 12.5245 10.8488 12.481 10.8317 12.4407C10.8147 12.4003 10.79 12.3639 10.7593 12.3337C10.6986 12.2724 10.6174 12.2383 10.5328 12.2383C10.4484 12.2398 10.3677 12.2739 10.3063 12.3337L9.69961 13.0102C9.67137 13.0418 9.62365 13.0426 9.5943 13.0123L8.94004 12.3337C8.87851 12.2739 8.79775 12.2398 8.71353 12.2383C8.62894 12.2384 8.54768 12.2726 8.48702 12.3337C8.45705 12.3644 8.43326 12.401 8.41698 12.4414C8.4007 12.4817 8.39232 12.525 8.39232 12.5686C8.39232 12.6122 8.4007 12.6556 8.41698 12.6959C8.43326 12.7363 8.45705 12.7729 8.48702 12.8036L9.13992 13.4401C9.17001 13.4694 9.17075 13.5189 9.14153 13.5492L8.48702 14.228C8.45705 14.2587 8.43326 14.2953 8.41698 14.3357C8.4007 14.3761 8.39232 14.4193 8.39232 14.4629C8.39232 14.5066 8.4007 14.5499 8.41698 14.5902C8.43326 14.6305 8.45705 14.6671 8.48702 14.6979C8.54781 14.7589 8.62894 14.7929 8.71353 14.7929C8.79799 14.7929 8.87938 14.7588 8.94004 14.6979L9.54671 14.0212C9.57495 13.9898 9.62266 13.9889 9.65201 14.0193L10.3063 14.6979C10.3678 14.7577 10.4486 14.7918 10.5328 14.7933C10.6174 14.7932 10.6986 14.7589 10.7593 14.6979C10.7893 14.6672 10.8131 14.6305 10.8293 14.5902C10.8456 14.5498 10.854 14.5066 10.854 14.4629C10.854 14.4193 10.8456 14.376 10.8293 14.3357C10.8131 14.2954 10.7893 14.2587 10.7593 14.228L10.1064 13.5915C10.0763 13.5622 10.0756 13.5129 10.1048 13.4824L10.7593 12.8036C10.7907 12.7736 10.8159 12.7373 10.8329 12.6969Z"/>
<path fill-rule="evenodd" clip-rule="evenodd" d="M3.66724 18.883C3.65096 18.9234 3.64258 18.9667 3.64258 19.0103C3.64258 19.0539 3.65096 19.0973 3.66724 19.1375C3.68339 19.1778 3.70731 19.2144 3.73728 19.2452C3.79807 19.3062 3.8792 19.3402 3.96379 19.3402C4.04825 19.3402 4.12964 19.3061 4.1903 19.2452L4.79697 18.5686C4.8252 18.5371 4.87292 18.5362 4.90227 18.5666L5.55653 19.2452C5.61806 19.3051 5.69883 19.3391 5.78304 19.3406C5.86763 19.3405 5.94889 19.3062 6.00956 19.2452C6.03952 19.2145 6.06332 19.1778 6.0796 19.1375C6.09587 19.0971 6.10426 19.0539 6.10426 19.0103C6.10426 18.9667 6.09587 18.9233 6.0796 18.883C6.06332 18.8428 6.03952 18.806 6.00956 18.7754L5.35665 18.1388C5.32657 18.1096 5.32583 18.0602 5.35505 18.0299L6.00956 17.351C6.041 17.3212 6.06603 17.2849 6.08317 17.2444C6.10031 17.204 6.10894 17.1601 6.10869 17.1161C6.10808 17.072 6.09895 17.0285 6.08194 16.9882C6.06492 16.9478 6.04026 16.9114 6.00956 16.8812C5.94889 16.8199 5.86763 16.7858 5.78304 16.7858C5.6987 16.7873 5.61794 16.8213 5.55653 16.8812L4.94987 17.5577C4.92163 17.5893 4.87391 17.5901 4.84456 17.5598L4.1903 16.8812C4.12877 16.8213 4.04801 16.7873 3.96379 16.7858C3.8792 16.7859 3.79794 16.82 3.73728 16.8812C3.70731 16.9119 3.68352 16.9484 3.66724 16.9889C3.65096 17.0291 3.64258 17.0725 3.64258 17.1161C3.64258 17.1597 3.65096 17.2031 3.66724 17.2434C3.68339 17.2838 3.70731 17.3203 3.73728 17.351L4.39018 17.9876C4.42027 18.0168 4.42101 18.0663 4.39178 18.0966L3.73728 18.7755C3.70731 18.806 3.68339 18.8428 3.66724 18.883Z"/>
</svg>
