<svg viewBox="0 0 17 16" xmlns="http://www.w3.org/2000/svg">
<title>impresso</title>
<path fill-rule="evenodd" clip-rule="evenodd" d="M3.85574 2.8436C4.21296 2.48639 4.69744 2.28571 5.20261 2.28571H9.01214C9.11317 2.28571 9.21007 2.32584 9.28151 2.39728L13.091 6.20681C13.1625 6.27825 13.2026 6.37515 13.2026 6.47618V11.8095C13.2026 12.3147 13.0019 12.7992 12.6447 13.1564C12.2875 13.5136 11.803 13.7143 11.2979 13.7143H5.20261C4.69744 13.7143 4.21296 13.5136 3.85574 13.1564C3.49853 12.7992 3.29785 12.3147 3.29785 11.8095V4.19047C3.29785 3.68529 3.49853 3.20081 3.85574 2.8436ZM5.20261 3.04761C4.89951 3.04761 4.60882 3.16802 4.39449 3.38235C4.18016 3.59667 4.05976 3.88736 4.05976 4.19047V11.8095C4.05976 12.1126 4.18016 12.4033 4.39449 12.6176C4.60882 12.832 4.89951 12.9524 5.20261 12.9524H11.2979C11.601 12.9524 11.8916 12.832 12.106 12.6176C12.3203 12.4033 12.4407 12.1126 12.4407 11.8095V6.63398L8.85434 3.04761H5.20261Z" />
<path fill-rule="evenodd" clip-rule="evenodd" d="M9.01181 2.28571C9.22221 2.28571 9.39276 2.45626 9.39276 2.66666V4.95237C9.39276 5.25548 9.51317 5.54617 9.7275 5.76049C9.94183 5.97482 10.2325 6.09523 10.5356 6.09523H12.8213C13.0317 6.09523 13.2023 6.26579 13.2023 6.47618C13.2023 6.68658 13.0317 6.85713 12.8213 6.85713H10.5356C10.0304 6.85713 9.54596 6.65645 9.18875 6.29924C8.83154 5.94203 8.63086 5.45755 8.63086 4.95237V2.66666C8.63086 2.45626 8.80142 2.28571 9.01181 2.28571Z" />
</svg>
