<svg viewBox="0 0 32 32" xmlns="http://www.w3.org/2000/svg">
<title>font-decrease</title>
<path d="M22.7807 3.48798C22.5388 3.2809 22.2246 3.17839 21.9072 3.20299C21.5897 3.2276 21.295 3.37731 21.0879 3.61918C20.8808 3.86106 20.7783 4.1753 20.8029 4.49276C20.8275 4.81022 20.9772 5.1049 21.2191 5.31198L24.0191 7.71199C24.4671 8.09599 25.1311 8.09599 25.5807 7.71199L28.3807 5.31198C28.5005 5.20945 28.5989 5.08433 28.6703 4.94376C28.7417 4.8032 28.7847 4.64995 28.7969 4.49276C28.8091 4.33557 28.7902 4.17751 28.7413 4.02763C28.6924 3.87774 28.6145 3.73895 28.5119 3.61918C28.4094 3.49942 28.2843 3.40102 28.1437 3.32961C28.0031 3.2582 27.8499 3.21518 27.6927 3.20299C27.5355 3.19081 27.3775 3.20971 27.2276 3.25861C27.0777 3.30751 26.9389 3.38545 26.8191 3.48798L24.7999 5.22078L22.7807 3.49118V3.48798ZM15.9999 6.39998C15.7609 6.4001 15.5274 6.47159 15.3293 6.60528C15.1312 6.73898 14.9775 6.92879 14.8879 7.15038L8.08792 23.9504C8.02324 24.0974 7.98873 24.256 7.98645 24.4166C7.98417 24.5772 8.01416 24.7366 8.07465 24.8855C8.13514 25.0343 8.22489 25.1694 8.33858 25.2829C8.45227 25.3964 8.5876 25.4859 8.73652 25.5461C8.88545 25.6063 9.04495 25.636 9.20557 25.6335C9.36619 25.6309 9.52465 25.5961 9.67157 25.5311C9.81849 25.4662 9.95088 25.3724 10.0609 25.2553C10.1709 25.1382 10.2562 25.0003 10.3119 24.8496L12.5999 19.2H19.3999L21.6879 24.8496C21.7448 24.9987 21.8309 25.135 21.9412 25.2505C22.0514 25.366 22.1836 25.4583 22.33 25.522C22.4763 25.5857 22.6339 25.6196 22.7936 25.6217C22.9532 25.6238 23.1116 25.594 23.2596 25.534C23.4075 25.4741 23.5421 25.3853 23.6553 25.2727C23.7685 25.1601 23.8581 25.0261 23.9188 24.8785C23.9796 24.7308 24.0102 24.5726 24.0091 24.4129C24.0079 24.2533 23.9749 24.0955 23.9119 23.9488L17.1119 7.14878C17.0221 6.92749 16.8683 6.73801 16.6702 6.60462C16.4721 6.47122 16.2387 6.39997 15.9999 6.39998ZM15.9999 10.7984L18.4287 16.7984H13.5711L15.9999 10.8V10.7984Z"/>
</svg>
