<svg viewBox="0 0 24 25" xmlns="http://www.w3.org/2000/svg">
<title>comentario-questao</title>
<path fill-rule="evenodd" clip-rule="evenodd" d="M4.62287 2.3606L4.625 2.36059L18.875 2.36059V3.11059L18.8771 2.3606C19.7709 2.36314 20.6273 2.71931 21.2593 3.3513C21.8913 3.98328 22.2475 4.8397 22.25 5.73346L22.25 5.73559L22.25 14.7356L22.25 14.7377C22.2475 15.6315 21.8913 16.4879 21.2593 17.1199C20.6273 17.7519 19.7709 18.108 18.8771 18.1106L18.875 18.1106H11.2693L6.98028 21.6866C6.75674 21.873 6.44555 21.9132 6.18197 21.7898C5.91838 21.6664 5.75 21.4016 5.75 21.1106V18.1106H4.625L4.62287 18.1106C3.72911 18.108 2.87268 17.7519 2.2407 17.1199C1.60872 16.4879 1.25255 15.6315 1.25 14.7377L1.25 14.7356V5.73346C1.25254 4.8397 1.60872 3.98328 2.2407 3.3513C2.87268 2.71931 3.72911 2.36314 4.62287 2.3606ZM11.3734 18.0238C11.3734 18.0238 11.3734 18.0239 11.3734 18.0238ZM18.8738 3.86059H4.62615C4.1291 3.86227 3.65285 4.06046 3.30136 4.41196C2.94987 4.76345 2.75167 5.23969 2.75 5.73675V14.7344C2.75167 15.2315 2.94987 15.7077 3.30136 16.0592C3.65287 16.4107 4.12913 16.6089 4.62621 16.6106H6.5C6.91421 16.6106 7.25 16.9464 7.25 17.3606V19.5088L10.4123 16.8722C10.6147 16.7031 10.87 16.6106 11.1336 16.6106C11.1336 16.6106 11.1335 16.6106 11.1336 16.6106H18.8738C19.3709 16.6089 19.8471 16.4107 20.1986 16.0592C20.5501 15.7078 20.7483 15.2316 20.75 14.7347V5.73652C20.7483 5.23955 20.5501 4.7634 20.1986 4.41196C19.8471 4.06046 19.3709 3.86227 18.8738 3.86059Z"/>
<path d="M10.7033 7.90185C10.7646 7.87026 10.8335 7.85621 10.9023 7.86124C10.9711 7.86627 11.0372 7.89018 11.0933 7.93035L13.7183 9.80535C13.7669 9.84004 13.8065 9.88583 13.8338 9.93893C13.8612 9.99202 13.8754 10.0509 13.8754 10.1106C13.8754 10.1703 13.8612 10.2292 13.8338 10.2823C13.8065 10.3354 13.7669 10.3812 13.7183 10.4158L11.0933 12.2908C11.0372 12.331 10.9711 12.3549 10.9023 12.3599C10.8336 12.3649 10.7647 12.3509 10.7034 12.3194C10.6421 12.2878 10.5907 12.24 10.5548 12.1811C10.5189 12.1222 10.4999 12.0546 10.5 11.9856V8.2356C10.4999 8.16666 10.5189 8.09904 10.5547 8.04016C10.5906 7.98128 10.642 7.93342 10.7033 7.90185V7.90185Z"/>
</svg>
