<svg viewBox="0 0 24 24" xmlns="http://www.w3.org/2000/svg">
<title>search</title>
<path fill-rule="evenodd" clip-rule="evenodd" d="M17.0436 10.6403C17.0436 14.016 14.2491 16.7526 10.802 16.7526C7.35485 16.7526 4.5604 14.016 4.5604 10.6403C4.5604 7.26461 7.35485 4.52806 10.802 4.52806C14.2491 4.52806 17.0436 7.26461 17.0436 10.6403ZM15.7104 16.9005C15.6047 16.797 15.4399 16.7865 15.3186 16.871C14.0439 17.7587 12.4852 18.2806 10.802 18.2806C6.49307 18.2806 3 14.86 3 10.6403C3 6.42069 6.49307 3 10.802 3C15.1109 3 18.604 6.42069 18.604 10.6403C18.604 12.4678 17.9488 14.1455 16.8558 15.4603C16.7532 15.5837 16.7587 15.7661 16.8734 15.8784L20.7715 19.6957C21.0762 19.9941 21.0762 20.4778 20.7715 20.7762C20.4668 21.0746 19.9728 21.0746 19.6681 20.7762L15.7104 16.9005Z"/>
</svg>
