<svg viewBox="0 0 32 32" xmlns="http://www.w3.org/2000/svg">
<title>dislike</title>
<path d="M27.4594 15.7682C27.4138 15.6954 27.3982 15.6076 27.416 15.5236C27.4631 15.3024 27.4882 15.0808 27.4915 14.8656C27.5211 14.238 27.3701 13.607 27.0627 13.0604C27.027 12.9971 27.0131 12.9237 27.0232 12.8518C27.09 12.3757 27.0556 11.8898 26.9233 11.4423C26.8183 11.0125 26.6247 10.6065 26.3564 10.253C26.3118 10.1943 26.2879 10.1222 26.289 10.0485C26.3015 9.1853 26.0165 8.34773 25.4672 7.65626C24.7615 6.82282 23.7284 6.39993 22.3954 6.39993C22.377 6.39993 22.3586 6.40116 22.3407 6.40376C22.3132 6.40774 22.2857 6.4124 22.258 6.4124H20.7494C20.0908 6.41763 19.4282 6.48829 18.7828 6.62197C18.1006 6.75618 17.5448 6.90018 17.1742 7.0049C16.8064 7.10962 16.2892 7.28043 15.6162 7.50703C15.0448 7.74355 14.4461 7.9137 13.8899 8.00935C13.8754 8.01184 13.8608 8.01315 13.8462 8.01365C13.4393 8.02755 13.0572 8.19294 12.7755 8.47334C12.6224 8.61734 12.5025 8.7895 12.42 8.98338C12.3369 9.17779 12.2963 9.384 12.299 9.59089V17.6965C12.2976 18.1076 12.4566 18.4939 12.7402 18.7794C12.99 19.0411 13.3183 19.2091 13.5847 19.2373C13.6336 19.2425 13.6821 19.2534 13.7217 19.2824C13.8021 19.3411 13.9641 19.4767 14.2321 19.7718C14.6583 20.2353 15.0635 20.7342 15.4642 21.2461C15.8799 21.8026 16.331 22.3408 16.8023 22.8463C16.9038 22.9562 16.983 23.082 17.038 23.2168C17.1034 23.3831 17.1545 23.5547 17.2194 23.8414C17.2573 23.9946 17.313 24.2172 17.3582 24.47C17.417 24.8065 17.4767 25.0775 17.5271 25.2896C17.6005 25.5632 17.7013 25.8303 17.8198 26.0687C17.9613 26.3882 18.1557 26.6749 18.3992 26.9237C18.5484 27.073 18.72 27.1895 18.9072 27.2681C19.097 27.3492 19.3013 27.3898 19.5081 27.3898H19.5553C19.9625 27.3898 20.3684 27.3374 20.7665 27.2313C21.1044 27.1371 21.4277 26.9956 21.7407 26.8019C22.0314 26.6068 22.2749 26.3633 22.4622 26.0765C22.6127 25.85 22.7397 25.6091 22.8458 25.3446C22.9348 25.0893 22.999 24.8274 23.0356 24.5681C23.071 24.3521 23.0945 24.1334 23.1063 23.8938V23.3924C23.1076 23.0074 23.0618 22.6198 22.9689 22.2466C22.8994 21.9455 22.8065 21.6483 22.6873 21.3562C22.685 21.351 22.6827 21.3457 22.6804 21.3403C22.5914 21.1354 22.7348 20.9006 22.9582 20.9006H24.8138C25.6597 20.8902 26.4557 20.5536 27.0555 19.9539C27.6539 19.3542 27.9891 18.5581 27.9995 17.7136C28.0118 17.0256 27.8224 16.3469 27.4594 15.7682ZM20.438 19.8805L20.5676 20.3218C20.603 20.4488 20.6435 20.5732 20.6934 20.7042C20.747 20.8352 20.8099 20.9608 20.9134 21.1389L20.992 21.2803C21.136 21.5461 21.2434 21.77 21.3128 21.9271C21.3966 22.1367 21.4621 22.3527 21.5145 22.5818C21.5799 22.8385 21.614 23.099 21.614 23.357V23.8179C21.6074 23.9776 21.589 24.1374 21.559 24.3116C21.5381 24.4753 21.5002 24.6377 21.453 24.7738C21.3953 24.9178 21.3194 25.0579 21.2172 25.2059C21.1439 25.3238 21.047 25.4194 20.9318 25.4927C20.7629 25.5988 20.5782 25.6773 20.3779 25.7298C20.1514 25.7926 19.9169 25.8293 19.6407 25.8293C19.6363 25.8293 19.6319 25.8292 19.6275 25.8292C19.5487 25.8288 19.4728 25.7956 19.4234 25.7341C19.3445 25.6358 19.2773 25.5251 19.2191 25.3958C19.1366 25.2309 19.0698 25.0567 19.0253 24.8916L18.8747 24.1531C18.7948 23.7734 18.736 23.5141 18.6953 23.3413C18.6259 23.0899 18.5369 22.845 18.436 22.6225C18.3064 22.3082 18.1218 22.0254 17.8926 21.7858C17.4625 21.3196 17.0553 20.8313 16.6795 20.3285C16.2558 19.7745 15.8113 19.2468 15.3621 18.7519C14.8567 18.1946 14.4783 17.9008 14.0754 17.7674C13.9361 17.7212 13.8298 17.598 13.8311 17.4512L13.9009 9.83334C13.9023 9.67305 14.0297 9.54245 14.1878 9.51598C14.5107 9.46192 15.061 9.31931 16.1229 8.94798C16.7572 8.73131 17.2607 8.5676 17.6156 8.45899C18.0968 8.31754 18.5839 8.20102 19.0867 8.10743C19.6367 7.99226 20.1984 7.93139 20.76 7.92603H22.3575C23.2831 7.95619 23.8947 8.18332 24.2717 8.62914C24.4616 8.87209 24.5964 9.14628 24.675 9.44488C24.7536 9.74146 24.7693 10.0472 24.7209 10.4119V10.5808C24.7209 10.6987 24.772 10.8106 24.8623 10.8872L24.975 10.9814C25.2068 11.206 25.3717 11.4908 25.4555 11.8233C25.5589 12.167 25.5589 12.5303 25.4555 12.8734L25.4019 13.0508C25.3665 13.1687 25.3862 13.2963 25.4568 13.3971L25.572 13.5621C25.8443 13.9137 25.9806 14.3525 25.9583 14.8094C25.9531 15.066 25.9047 15.3201 25.8168 15.5656L25.7462 15.7639C25.6964 15.9027 25.7266 16.0573 25.8247 16.1672L25.9635 16.3217C26.3001 16.7027 26.4795 17.191 26.469 17.6979C26.4599 18.1391 26.283 18.5542 25.9689 18.8672C25.6586 19.1788 25.2435 19.3568 24.8088 19.3661H20.8244C20.6974 19.3661 20.5782 19.4249 20.5023 19.5271C20.4262 19.6278 20.4026 19.7601 20.438 19.8805Z" />
<path d="M10.3308 8.48653C10.1862 8.3365 10.0145 8.21931 9.82079 8.13819C9.62959 8.05761 9.42606 8.01712 9.21649 8.01712H5.56994C5.15228 8.02101 4.7601 8.18593 4.46485 8.48117C4.16961 8.77588 4.00389 9.16859 4 9.59094V17.7097C4.00389 18.1287 4.16961 18.5216 4.46485 18.8161C4.7601 19.1094 5.15228 19.2744 5.57382 19.2797H9.21649H9.22172C9.63938 19.2744 10.0316 19.1094 10.3255 18.8161C10.6208 18.5214 10.7864 18.1287 10.7905 17.7057V9.59094C10.7905 9.38205 10.7498 9.17919 10.6694 8.98665C10.5881 8.79357 10.4709 8.62262 10.3308 8.48653ZM5.56328 9.84924C5.56406 9.68272 5.70032 9.54871 5.86683 9.55068L8.9661 9.58741C9.1311 9.58937 9.26355 9.72421 9.26254 9.88922L9.21645 17.4365C9.21544 17.6025 9.07987 17.7361 8.91391 17.7347L5.82495 17.7084C5.65971 17.707 5.52672 17.5722 5.52751 17.407L5.56328 9.84924Z" />
</svg>
