<svg viewBox="0 0 32 32" xmlns="http://www.w3.org/2000/svg">
<title>like</title>
<path d="M27.4597 16.955C27.4141 17.0277 27.3985 17.1155 27.4164 17.1995C27.4635 17.4207 27.4887 17.6423 27.4918 17.8575C27.5214 18.4851 27.3705 19.1162 27.063 19.6626C27.0273 19.7259 27.0135 19.7993 27.0235 19.8713C27.0903 20.3474 27.0559 20.8332 26.9236 21.2809C26.8186 21.7106 26.6251 22.1167 26.3568 22.4701C26.3122 22.5289 26.2882 22.6009 26.2893 22.6747C26.3019 23.5379 26.0167 24.3754 25.4674 25.0669C24.7618 25.9003 23.7286 26.3233 22.3957 26.3233C22.3774 26.3233 22.3589 26.3219 22.3409 26.3194C22.3135 26.3155 22.2859 26.3108 22.2581 26.3108H20.7496C20.0909 26.3056 19.4284 26.2349 18.7829 26.1011C18.1007 25.967 17.5449 25.823 17.1743 25.7183C16.8065 25.6135 16.2893 25.4428 15.6162 25.2161C15.0449 24.9796 14.4461 24.8095 13.8899 24.7138C13.8755 24.7114 13.8608 24.71 13.8462 24.7096C13.4393 24.6956 13.0572 24.5302 12.7754 24.2498C12.6224 24.1058 12.5024 23.9336 12.42 23.7398C12.3369 23.5454 12.2963 23.3392 12.299 23.1323V15.0266C12.2979 14.6154 12.4569 14.2291 12.7404 13.9437C12.9902 13.6819 13.3185 13.5139 13.5849 13.4857C13.6338 13.4806 13.6823 13.4697 13.7219 13.4407C13.8023 13.3819 13.9643 13.2463 14.2323 12.9513C14.6586 12.4878 15.0638 11.9889 15.4644 11.4769C15.8802 10.9204 16.3313 10.3824 16.8026 9.87687C16.9041 9.76692 16.9833 9.64122 17.0382 9.50622C17.1036 9.33986 17.1548 9.16826 17.2197 8.88161C17.2577 8.72831 17.3133 8.50571 17.3585 8.25311C17.4173 7.9165 17.477 7.6456 17.5274 7.4335C17.6007 7.1599 17.7015 6.89275 17.82 6.6544C17.9615 6.33489 18.1559 6.04824 18.3993 5.79939C18.5486 5.65014 18.7202 5.53359 18.9074 5.45514C19.0973 5.37399 19.3015 5.33334 19.5083 5.33334H19.5556C19.9628 5.33334 20.3686 5.38584 20.7667 5.49189C21.1046 5.58609 21.428 5.72754 21.7409 5.92134C22.0316 6.11649 22.2751 6.35994 22.4624 6.64675C22.613 6.87325 22.7399 7.11415 22.846 7.37875C22.9351 7.63405 22.9993 7.89595 23.0359 8.15516C23.0713 8.37116 23.0947 8.58986 23.1065 8.82941V9.33086C23.1079 9.71577 23.062 10.1034 22.9691 10.4766C22.8997 10.7778 22.8067 11.0749 22.6876 11.367C22.6853 11.3722 22.6831 11.3775 22.6807 11.3829C22.5917 11.5878 22.7351 11.8225 22.9585 11.8225H24.8141C25.66 11.833 26.4561 12.1695 27.0558 12.7693C27.6541 13.369 27.9894 14.1651 27.9999 15.0098C28.0122 15.6975 27.8227 16.3761 27.4597 16.955ZM20.4383 12.8425L20.5679 12.4012C20.6033 12.2742 20.6438 12.1498 20.6936 12.0189C20.7473 11.8879 20.8102 11.7622 20.9137 11.5842L20.9923 11.4427C21.1363 11.1769 21.2437 10.9531 21.3131 10.7959C21.397 10.5864 21.4624 10.3704 21.5147 10.1412C21.5801 9.88452 21.6142 9.62397 21.6142 9.36611V8.90516C21.6076 8.74541 21.5893 8.58566 21.5593 8.41151C21.5384 8.24786 21.5005 8.08541 21.4532 7.94935C21.3956 7.80535 21.3197 7.66525 21.2174 7.5172C21.1441 7.3993 21.0472 7.30375 20.932 7.2304C20.7631 7.12435 20.5784 7.04575 20.378 6.9934C20.1515 6.93055 19.9171 6.89395 19.6409 6.89395C19.6366 6.89395 19.6321 6.89395 19.6277 6.89395C19.5488 6.8944 19.4729 6.92755 19.4236 6.98905C19.3447 7.0873 19.2775 7.19815 19.2193 7.32745C19.1368 7.4923 19.07 7.6666 19.0255 7.8316L18.875 8.56991C18.795 8.94956 18.7362 9.20891 18.6956 9.38171C18.6261 9.63312 18.5372 9.87792 18.4364 10.1005C18.3068 10.4148 18.1221 10.6975 17.8929 10.9372C17.4627 11.4034 17.0556 11.8917 16.6797 12.3945C16.256 12.9486 15.8115 13.4763 15.3624 13.9711C14.8569 14.5284 14.4786 14.8223 14.0757 14.9558C13.9364 15.0018 13.83 15.1251 13.8314 15.272L13.9011 22.8898C13.9026 23.0501 14.03 23.1806 14.1881 23.2072C14.511 23.2612 15.0612 23.4038 16.1232 23.7752C16.7576 23.9918 17.261 24.1556 17.6159 24.2642C18.0971 24.4057 18.5841 24.5221 19.087 24.6157C19.637 24.7309 20.1986 24.7918 20.7604 24.7972H22.3577C23.2834 24.767 23.8949 24.5398 24.272 24.094C24.4619 23.8511 24.5968 23.5769 24.6754 23.2783C24.754 22.9817 24.7696 22.676 24.7213 22.3112V22.1423C24.7213 22.0244 24.7724 21.9125 24.8627 21.836L24.9754 21.7417C25.2073 21.5171 25.3721 21.2322 25.456 20.8998C25.5593 20.5562 25.5593 20.1927 25.456 19.8497L25.4023 19.6724C25.3669 19.5545 25.3865 19.4268 25.4572 19.326L25.5724 19.1612C25.8446 18.8094 25.981 18.3708 25.9586 17.9138C25.9534 17.6571 25.9049 17.403 25.8172 17.1576L25.7465 16.9593C25.6967 16.8206 25.7269 16.6659 25.8251 16.556L25.9639 16.4015C26.3005 16.0205 26.4799 15.5321 26.4694 15.0252C26.4603 14.5839 26.2834 14.1688 25.9693 13.8559C25.6591 13.5444 25.2439 13.3663 24.8092 13.357H20.8247C20.6977 13.357 20.5786 13.2982 20.5027 13.1961C20.4265 13.0953 20.4029 12.963 20.4383 12.8425Z"/>
<path d="M10.3309 24.236C10.1862 24.386 10.0146 24.5032 9.82079 24.5843C9.62969 24.6649 9.42614 24.7054 9.21659 24.7054H5.56991C5.15231 24.7015 4.76006 24.5366 4.46485 24.2414C4.16965 23.9467 4.0039 23.554 4 23.1316V15.0128C4.0039 14.5938 4.16965 14.2009 4.46485 13.9063C4.76006 13.6131 5.15231 13.4481 5.57381 13.4428H9.21659H9.22184C9.63944 13.4481 10.0315 13.6131 10.3255 13.9063C10.6209 14.2011 10.7865 14.5938 10.7905 15.0168V23.1316C10.7905 23.3405 10.7499 23.5433 10.6695 23.7359C10.5882 23.929 10.471 24.1 10.3309 24.236ZM5.56331 22.8733C5.56406 23.0398 5.70026 23.1739 5.86691 23.1719L8.96609 23.1352C9.13109 23.1332 9.26354 22.9984 9.26264 22.8334L9.21644 15.2861C9.21554 15.12 9.07994 14.9864 8.91389 14.9879L5.82491 15.0141C5.65976 15.0155 5.52671 15.1503 5.52746 15.3155L5.56331 22.8733Z"/>
</svg>
