<svg viewBox="0 0 24 24">
  <g stroke-linecap="square">
    <path d="M16.5 2.5v5"/>
    <path d="M13.5 2.5v5"/>
    <path d="M7.5 2.5v5"/>
    <path d="M10.5 2.5v5"/>
    <path d="M16.5 16.5v5"/>
    <path d="M7.5 16.5v5"/>
    <path d="M10.5 16.5v5"/>
    <path d="M13.5 16.5v5"/>
    <path d="M21.5 7.5h-5"/>
    <path d="M7.5 7.5h-5"/>
    <path d="M21.5 16.5h-5"/>
    <path d="M7.5 16.5h-5"/>
    <path d="M21.5 10.5h-5"/>
    <path d="M7.5 10.5h-5"/>
    <path d="M21.5 13.5h-5"/>
    <path d="M7.5 13.5h-5"/>
    <path d="M10.5 10.5h.01"/>
    <path d="M13.5 10.5h.01"/>
    <path d="M13.5 13.5h.01"/>
    <path d="M10.5 13.5h.01"/>
  </g>
</svg>
