<svg viewBox="0 0 32 32" xmlns="http://www.w3.org/2000/svg">
<path d="M22.261 14.2609H22.1442C21.8467 14.2599 21.5763 14.0941 21.4398 13.8336C21.437 13.7932 21.4268 13.7537 21.4105 13.7167C21.2781 13.4161 21.3406 13.0696 21.611 12.7942C22.2882 12.1158 22.2875 11.0125 21.6096 10.3349C21.6075 10.3329 21.6055 10.3311 21.6034 10.3291C21.276 10.004 20.8413 9.825 20.3792 9.825C20.3785 9.825 20.3785 9.825 20.3778 9.825C19.9138 9.8254 19.477 10.0065 19.1102 10.374C18.8751 10.6039 18.528 10.6671 18.2243 10.5326C17.9308 10.407 17.7406 10.1192 17.7392 9.7391C17.7392 8.7802 16.9593 8 16.0001 8C15.0412 8 14.261 8.7802 14.261 9.7391V9.856C14.2599 10.1539 14.0939 10.4239 13.8334 10.5608C13.7933 10.5639 13.7542 10.5734 13.7172 10.5897C13.4159 10.7222 13.0694 10.6603 12.7946 10.3893C12.1156 9.7116 11.012 9.7123 10.3337 10.3917C9.65632 11.0703 9.65662 12.1736 10.3741 12.8903C10.6041 13.1254 10.6669 13.4719 10.5259 13.7928C10.4118 14.1033 10.1244 14.3088 9.73922 14.3166C8.78032 14.3166 8.00012 15.0968 8.00012 16.0557C8.00012 17.015 8.78032 17.7949 9.73922 17.7949H9.85572C10.175 17.7962 10.4626 17.9864 10.5896 18.2826C10.7224 18.5842 10.6596 18.9307 10.3896 19.2058C10.0611 19.5347 9.88042 19.9715 9.88082 20.4362C9.88082 20.8961 10.0588 21.3295 10.3821 21.6563C10.3852 21.6596 10.3886 21.663 10.392 21.6664C11.071 22.3444 12.1743 22.3431 12.8903 21.6264C13.1251 21.396 13.4712 21.3315 13.7932 21.4749C14.1033 21.5883 14.3088 21.8757 14.3166 22.2609C14.3166 23.2201 15.0968 24 16.0557 24C17.015 24 17.7949 23.2201 17.7949 22.2609V22.1441C17.7962 21.8248 17.9864 21.5375 18.2833 21.4104C18.5864 21.2787 18.9315 21.3411 19.2058 21.6109C19.8845 22.2888 20.9877 22.2875 21.6664 21.6081C22.3444 20.9295 22.3437 19.8262 21.6263 19.1102C21.396 18.8751 21.3335 18.5286 21.466 18.2277C21.4665 18.2263 21.4673 18.225 21.468 18.2243C21.5929 17.9308 21.8803 17.7406 22.2608 17.7392C23.22 17.7392 23.9999 16.9593 23.9999 16.0001C24.0001 15.0412 23.2202 14.2609 22.261 14.2609ZM16.0001 13.5654C17.3425 13.5654 18.4349 14.6577 18.4349 16.0002C18.4349 17.3427 17.3425 18.435 16.0001 18.435C14.6577 18.435 13.5653 17.3426 13.5653 16.0002C13.5653 14.6578 14.6577 13.5654 16.0001 13.5654Z"/>
</svg>
