<svg viewBox="0 0 24 24" xmlns="http://www.w3.org/2000/svg">
<title>eye-show-line</title>
<path d="M22.4133 11.6867C20.1667 7.53334 16.2267 5.02 11.8667 5.02C7.50667 5.02 3.56 7.53334 1.33333 11.6867L1.14667 12L1.32 12.32C3.56667 16.4733 7.50667 18.9867 11.8667 18.9867C16.2267 18.9867 20.1733 16.5067 22.4133 12.32L22.5867 12L22.4133 11.6867ZM11.8667 17.62C8.11333 17.62 4.66667 15.5267 2.66667 12C4.66667 8.47334 8.11333 6.38 11.8667 6.38C15.62 6.38 19.0267 8.48 21.06 12C19.0267 15.5267 15.6133 17.62 11.8667 17.62Z"/>
<path d="M12.06 7.44667C11.1561 7.45327 10.2744 7.72759 9.52628 8.23499C8.77818 8.74239 8.19722 9.46011 7.85678 10.2975C7.51634 11.1349 7.43169 12.0544 7.61353 12.9398C7.79537 13.8253 8.23553 14.637 8.87843 15.2725C9.52132 15.9079 10.3381 16.3386 11.2256 16.5101C12.1132 16.6817 13.0316 16.5863 13.865 16.2361C14.6983 15.886 15.4092 15.2967 15.9079 14.5427C16.4066 13.7888 16.6706 12.9039 16.6667 12C16.6641 11.3983 16.5427 10.803 16.3096 10.2483C16.0765 9.69355 15.7363 9.19027 15.3083 8.76727C14.8804 8.34428 14.3732 8.0099 13.8158 7.78328C13.2583 7.55667 12.6617 7.44228 12.06 7.44667ZM12.06 15.26C11.4215 15.2534 10.7992 15.0583 10.2712 14.6992C9.74323 14.3401 9.33314 13.833 9.09243 13.2416C8.85172 12.6501 8.79113 12.0008 8.91828 11.375C9.04542 10.7493 9.35462 10.1751 9.80705 9.72448C10.2595 9.27389 10.835 8.96704 11.4612 8.84245C12.0875 8.71786 12.7366 8.7811 13.327 9.02422C13.9175 9.26734 14.4229 9.6795 14.7798 10.2089C15.1368 10.7384 15.3294 11.3615 15.3333 12C15.3351 12.4297 15.2516 12.8555 15.0875 13.2527C14.9235 13.6499 14.6822 14.0106 14.3777 14.3139C14.0733 14.6171 13.7116 14.8569 13.3137 15.0193C12.9159 15.1817 12.4897 15.2635 12.06 15.26Z"/>
</svg>
