<svg viewBox="0 0 24 24" xmlns="http://www.w3.org/2000/svg">
<title>star-outline</title>
<path d="m21.2836 8.27578-5.9508-.86485-2.6601-5.39296c-.0727-.14766-.1922-.26719-.3399-.33985-.3703-.18281-.8203-.03047-1.0055.33985l-2.66012 5.39296-5.95078.86485c-.16406.02344-.31406.10078-.4289.21797-.13884.1427-.21535.33468-.21271.53377.00264.19908.0842.38897.22677.52795l4.30547 4.19763-1.01719 5.9274c-.02385.1378-.00859.2797.04405.4093.05263.1297.14055.242.25377.3242s.24721.1311.38679.141c.13958.01.27915-.0194.40289-.0847l5.32266-2.7984 5.3227 2.7984c.1453.0774.314.1031.4757.075.4078-.0703.6821-.457.6118-.8648l-1.0172-5.9274 4.3054-4.19763c.1172-.11485.1946-.26485.218-.42891.0633-.41016-.2227-.78984-.6328-.85078zm-5.7024 4.88672.8461 4.9289-4.4273-2.325-4.42735 2.3273.8461-4.9289-3.58125-3.49215 4.95-.71953 2.2125-4.48359 2.2125 4.48359 4.95.71953z"/>
</svg>
