<svg viewBox="0 0 16 16" xmlns="http://www.w3.org/2000/svg">
<path d="M6.66659 2L5.33326 3.33333V4.66667H3.33326C2.56659 4.66667 2.07993 5.33333 1.99993 6L1.33326 12.6667C1.25326 13.3333 1.69326 14 2.66659 14H13.3333C14.3066 14 14.7466 13.3333 14.6666 12.6667L13.9999 6C13.9199 5.33333 13.3733 4.66667 12.6666 4.66667H10.6666V3.33333L9.33326 2H6.66659ZM6.66659 3.33333H9.33326V4.66667H6.66659V3.33333ZM7.33326 6.66667H8.66659V8.66667H10.6666V10H8.66659V12H7.33326V10H5.33326V8.66667H7.33326V6.66667Z"/>
</svg>
