<svg viewBox="0 0 32 32" xmlns="http://www.w3.org/2000/svg">
<title>med-retomar</title>
<path d="M14.0391 21.2743C13.7745 21.2743 13.5593 21.0591 13.5593 20.7946C13.5593 20.53 13.7745 20.3148 14.0391 20.3148H19.9754C21.6655 20.3148 23.0405 18.9398 23.0405 17.2497C23.0405 15.5596 21.6655 14.1846 19.9754 14.1846H9.63769L12.0437 16.5906C12.1344 16.6813 12.1843 16.8017 12.1843 16.9299C12.1843 17.058 12.1344 17.1785 12.0437 17.2691C11.953 17.3597 11.8326 17.4096 11.7045 17.4096C11.5764 17.4096 11.4558 17.3597 11.3652 17.2692L8.14026 14.0442C7.95325 13.8571 7.95325 13.5527 8.14026 13.3657L11.3652 10.1406C11.4559 10.0499 11.5764 10 11.7045 10C11.8326 10 11.9531 10.0499 12.0438 10.1406C12.1344 10.2312 12.1843 10.3516 12.1843 10.4798C12.1843 10.6079 12.1344 10.7284 12.0438 10.819L9.63777 13.2251H19.9755C22.1946 13.2251 24 15.0305 24 17.2497C24 19.4689 22.1945 21.2743 19.9754 21.2743H14.0391V21.2743Z"/>
</svg>
