<svg viewBox="0 0 24 24" xmlns="http://www.w3.org/2000/svg">
<title>arrow-right-circle</title>
<path fill-rule="evenodd" clip-rule="evenodd" d="M1.5 12C1.5 14.7848 2.60625 17.4555 4.57538 19.4246C6.54451 21.3938 9.21523 22.5 12 22.5C14.7848 22.5 17.4555 21.3938 19.4246 19.4246C21.3938 17.4555 22.5 14.7848 22.5 12C22.5 9.21523 21.3938 6.54451 19.4246 4.57538C17.4555 2.60625 14.7848 1.5 12 1.5C9.21523 1.5 6.54451 2.60625 4.57538 4.57538C2.60625 6.54451 1.5 9.21523 1.5 12V12ZM24 12C24 15.1826 22.7357 18.2348 20.4853 20.4853C18.2348 22.7357 15.1826 24 12 24C8.8174 24 5.76516 22.7357 3.51472 20.4853C1.26428 18.2348 0 15.1826 0 12C0 8.8174 1.26428 5.76516 3.51472 3.51472C5.76516 1.26428 8.8174 0 12 0C15.1826 0 18.2348 1.26428 20.4853 3.51472C22.7357 5.76516 24 8.8174 24 12V12ZM6.75 11.25C6.55109 11.25 6.36032 11.329 6.21967 11.4697C6.07902 11.6103 6 11.8011 6 12C6 12.1989 6.07902 12.3897 6.21967 12.5303C6.36032 12.671 6.55109 12.75 6.75 12.75H15.4395L12.219 15.969C12.1493 16.0387 12.094 16.1215 12.0562 16.2126C12.0185 16.3037 11.9991 16.4014 11.9991 16.5C11.9991 16.5986 12.0185 16.6963 12.0562 16.7874C12.094 16.8785 12.1493 16.9613 12.219 17.031C12.2887 17.1007 12.3715 17.156 12.4626 17.1938C12.5537 17.2315 12.6514 17.2509 12.75 17.2509C12.8486 17.2509 12.9463 17.2315 13.0374 17.1938C13.1285 17.156 13.2113 17.1007 13.281 17.031L17.781 12.531C17.8508 12.4613 17.9063 12.3786 17.9441 12.2874C17.9819 12.1963 18.0013 12.0987 18.0013 12C18.0013 11.9013 17.9819 11.8037 17.9441 11.7125C17.9063 11.6214 17.8508 11.5387 17.781 11.469L13.281 6.969C13.2113 6.89927 13.1285 6.84395 13.0374 6.80621C12.9463 6.76848 12.8486 6.74905 12.75 6.74905C12.6514 6.74905 12.5537 6.76848 12.4626 6.80621C12.3715 6.84395 12.2887 6.89927 12.219 6.969C12.1493 7.03873 12.094 7.12152 12.0562 7.21262C12.0185 7.30373 11.9991 7.40138 11.9991 7.5C11.9991 7.59862 12.0185 7.69627 12.0562 7.78738C12.094 7.87848 12.1493 7.96127 12.219 8.031L15.4395 11.25H6.75Z"/>
</svg>
