<?xml version="1.0" standalone="no"?>
<!DOCTYPE svg PUBLIC "-//W3C//DTD SVG 1.1//EN" "http://www.w3.org/Graphics/SVG/1.1/DTD/svg11.dtd" >
<svg xmlns="http://www.w3.org/2000/svg">
<metadata>
Copyright (c) 2013 by Fontsmith Ltd. All rights reserved.
</metadata>
<defs>
<font id="FSEmericWeb-ExtraBoldItalic" horiz-adv-x="651" >
  <font-face 
    font-family="FS Emeric Web ExtraBold"
    font-weight="800"
    font-style="italic"
    font-stretch="normal"
    units-per-em="1000"
    panose-1="2 0 5 3 0 0 0 9 0 4"
    ascent="731"
    descent="-269"
    x-height="488"
    cap-height="663"
    bbox="-112 -315 1260 1130.52"
    underline-thickness="50"
    underline-position="-50"
    slope="-7"
    unicode-range="U+000D-FB04"
  />
<missing-glyph horiz-adv-x="598" 
d="M67 650h464v-650h-464v650zM457 604h-316l159 -237zM485 88v474l-158 -237zM457 47l-157 236l-159 -236h316zM114 88l157 237l-157 237v-474z" />
    <glyph glyph-name="fi" unicode="fi" horiz-adv-x="645" 
d="M111 484q-5 13 -7.5 27.5t-2.5 29.5q0 40 16 73.5t43.5 57.5t66 37t83.5 13q46 0 91 -15.5t80 -44.5l-42 -89l-44 10q-39 9 -67 9q-36 0 -54 -17t-18 -48q0 -21 6 -39h154l-14 -121h-148l-66 -573h-156l66 573h-83l12 99zM465 488h156l-58 -488h-156z" />
    <glyph glyph-name="fl" unicode="fl" horiz-adv-x="683" 
d="M111 484q-5 13 -7.5 27.5t-2.5 29.5q0 42 14.5 75.5t40 57t59.5 36t73 12.5q81 0 158 -46l-28 -91l-41 6q-21 3 -38 3q-42 0 -62.5 -18t-20.5 -49q0 -21 6 -39h154l-15 -121h-147l-66 -573h-156l66 573h-83l12 99l84 18v0zM649 23q-21 -10 -52 -18t-56 -8q-55 0 -84 28.5
t-29 77.5q0 6 0.5 14.5t1.5 19.5l67 572h156l-69 -587l74 -21z" />
    <glyph glyph-name="f_f" unicode="ff" horiz-adv-x="749" 
d="M664 722q46 0 92 -15.5t81 -44.5l-42 -89l-44 10q-39 9 -67 9q-36 0 -54 -17t-18 -48q0 -21 6 -39h154l-14 -121h-148l-66 -573h-156l66 573h-200l-66 -573h-156l66 573h-83l12 99l81 17q-3 13 -3.5 23t-0.5 20q0 44 15 78.5t41.5 58.5t61.5 36.5t75 12.5q80 0 157 -46
l-29 -90q-17 2 -38 4.5t-38 2.5q-50 0 -71 -15t-21 -55v-12.5t1 -12.5h207q-3 11 -4 23t-1 24q0 40 15 74t42 59t64.5 39.5t82.5 14.5z" />
    <glyph glyph-name="f_f_i" unicode="ffi" horiz-adv-x="1000" 
d="M820 488h156l-58 -488h-156zM664 722q46 0 92 -15.5t81 -44.5l-42 -89l-44 10q-39 9 -67 9q-36 0 -54 -17t-18 -48q0 -21 6 -39h154l-14 -121h-148l-66 -573h-156l66 573h-200l-66 -573h-156l66 573h-83l12 99l81 17q-3 13 -3.5 23t-0.5 20q0 44 15 78.5t41.5 58.5
t61.5 36.5t75 12.5q80 0 157 -46l-29 -90q-17 2 -38 4.5t-38 2.5q-50 0 -71 -15t-21 -55v-12.5t1 -12.5h207q-3 11 -4 23t-1 24q0 40 15 74t42 59t64.5 39.5t82.5 14.5z" />
    <glyph glyph-name="f_j" unicode="fj" horiz-adv-x="645" 
d="M465 488h156l-62 -529q-7 -56 -21 -92t-37 -59q-42 -41 -114 -41q-26 0 -55.5 5.5t-58.5 15.5l10 81l58 10q17 3 27.5 7t17 10t9.5 15t5 23zM111 484q-5 13 -7.5 27.5t-2.5 29.5q0 40 16 73.5t43.5 57.5t66 37t83.5 13q46 0 91 -15.5t80 -44.5l-42 -89l-44 10
q-39 9 -67 9q-36 0 -54 -17t-18 -48q0 -21 6 -39h154l-14 -121h-148l-66 -573h-156l66 573h-83l12 99z" />
    <glyph glyph-name="f_f_j" unicode="ffj" horiz-adv-x="1000" 
d="M664 722q46 0 92 -15.5t81 -44.5l-42 -89l-44 10q-39 9 -67 9q-36 0 -54 -17t-18 -48q0 -21 6 -39h154l-14 -121h-148l-66 -573h-156l66 573h-200l-66 -573h-156l66 573h-83l12 99l81 17q-3 13 -3.5 23t-0.5 20q0 44 15 78.5t41.5 58.5t61.5 36.5t75 12.5q80 0 157 -46
l-29 -90q-17 2 -38 4.5t-38 2.5q-50 0 -71 -15t-21 -55v-12.5t1 -12.5h207q-3 11 -4 23t-1 24q0 40 15 74t42 59t64.5 39.5t82.5 14.5zM820 488h156l-62 -529q-7 -56 -21 -92t-37 -59q-42 -41 -114 -41q-26 0 -55.5 5.5t-58.5 15.5l10 81l58 10q17 3 27.5 7t17 10t9.5 15
t5 23z" />
    <glyph glyph-name="f_f_l" unicode="ffl" horiz-adv-x="1036" 
d="M465 488q-4 12 -6 25t-2 28q0 42 14.5 75.5t40 57t59.5 36t73 12.5q81 0 158 -46l-28 -91l-41 6q-21 3 -38 3q-42 0 -62.5 -18t-20.5 -49q0 -21 6 -39h154l-14 -121h-148l-66 -573h-156l66 573h-200l-66 -573h-156l66 573h-83l12 99l81 17q-3 13 -3.5 23t-0.5 20
q0 44 15 78.5t41.5 58.5t61.5 36.5t75 12.5q80 0 157 -46l-29 -90q-17 2 -38 4.5t-38 2.5q-50 0 -71 -15t-21 -55v-12.5t1 -12.5h207zM1002 23q-21 -10 -52 -18t-56 -8q-55 0 -84 28.5t-29 77.5q0 6 0.5 14.5t1.5 19.5l67 572h156l-69 -587l74 -21z" />
    <glyph glyph-name="f_t" unicode="ft" horiz-adv-x="778" 
d="M188 -206h-156l66 573h-83l12 99l82 18q-5 28 -5 58q0 39 13.5 72t38 57t59 37.5t76.5 13.5q40 0 77 -11.5t69 -31.5l-31 -92q-20 3 -37.5 5t-25.5 2q-44 0 -65.5 -15t-21.5 -51q0 -11 1.5 -20.5t3.5 -19.5h193l16 135h156l-16 -135h148l-14 -121h-148l-18 -147
q-2 -20 -3.5 -33t-1.5 -21q0 -42 49 -42q11 0 29.5 2t32.5 4l37 5l24 -90q-18 -12 -40 -21.5t-45.5 -16.5t-46.5 -11t-43 -4q-69 0 -111.5 37.5t-42.5 109.5q0 32 6 80l18 148h-186z" />
    <glyph glyph-name="f_f_t" unicode="fft" horiz-adv-x="1134" 
d="M465 488q-2 13 -3.5 26t-1.5 28q0 39 13.5 72t38 57t59 37.5t76.5 13.5q40 0 77 -11.5t69 -31.5l-31 -92q-20 3 -37.5 5t-25.5 2q-44 0 -65.5 -15t-21.5 -51q0 -11 1.5 -20.5t3.5 -19.5h193l16 135h156l-16 -135h148l-14 -121h-148l-18 -147q-2 -20 -3.5 -33t-1.5 -21
q0 -42 49 -42q11 0 29.5 2t32.5 4l37 5l24 -90q-18 -12 -40 -21.5t-45.5 -16.5t-46.5 -11t-43 -4q-69 0 -111.5 37.5t-42.5 109.5q0 32 6 80l18 148h-186l-66 -573h-156l66 573h-200l-66 -573h-156l66 573h-83l12 99l81 17q-3 13 -3.5 23t-0.5 20q0 44 15 78.5t41.5 58.5
t61.5 36.5t75 12.5q80 0 157 -46l-29 -90q-17 2 -38 4.5t-38 2.5q-50 0 -71 -15t-21 -55v-12.5t1 -12.5h207z" />
    <glyph glyph-name=".notdef" horiz-adv-x="598" 
d="M67 650h464v-650h-464v650zM457 604h-316l159 -237zM485 88v474l-158 -237zM457 47l-157 236l-159 -236h316zM114 88l157 237l-157 237v-474z" />
    <glyph glyph-name=".null" horiz-adv-x="0" 
 />
    <glyph glyph-name=".null" horiz-adv-x="0" 
 />
    <glyph glyph-name="nonmarkingreturn" unicode="&#xd;" horiz-adv-x="204" 
 />
    <glyph glyph-name="space" unicode=" " horiz-adv-x="204" 
 />
    <glyph glyph-name="nonbreakingspace" unicode="&#xa0;" horiz-adv-x="204" 
 />
    <glyph glyph-name="A" unicode="A" horiz-adv-x="691" 
d="M294 663h158q12 0 16.5 -3.5t6.5 -11.5l179 -648h-153q-9 0 -13 2t-6 12l-26 102h-257l-46 -102q-5 -10 -9.5 -12t-12.5 -2h-154zM367 515q-11 -35 -32.5 -89t-52.5 -124l-23 -55h164l-12 52q-16 66 -26.5 118.5t-15.5 97.5h-2z" />
    <glyph glyph-name="B" unicode="B" horiz-adv-x="647" 
d="M110 663h284q102 0 159.5 -35.5t57.5 -117.5q0 -42 -21.5 -82.5t-56.5 -69.5q41 -22 63.5 -58t22.5 -83q0 -44 -16 -83t-50.5 -69t-88 -47.5t-128.5 -17.5h-305zM213 137h134q106 0 106 81q0 27 -14 39q-10 8 -25 11t-38 3h-147zM397 394q11 0 17 2.5t11 8.5
q10 11 16 29.5t6 37.5q0 33 -16.5 43.5t-50.5 10.5h-121l-16 -132h154z" />
    <glyph glyph-name="C" unicode="C" horiz-adv-x="669" 
d="M638 106q-28 -26 -63 -47.5t-74.5 -37t-81 -24t-82.5 -8.5q-68 0 -123.5 23t-94.5 64.5t-60 99.5t-21 127q0 73 26 140t72.5 118t110 81t139.5 30q45 0 87 -13.5t78 -39.5t63.5 -63.5t44.5 -86.5l-109 -65l-81 70q-26 23 -48 34t-53 11q-35 0 -64 -16t-50 -44t-33 -66.5
t-12 -83.5q0 -82 41.5 -122.5t113.5 -40.5q54 0 134 26l91 29z" />
    <glyph glyph-name="D" unicode="D" horiz-adv-x="700" 
d="M110 663h221q99 0 169.5 -21.5t114.5 -68.5q32 -35 49.5 -83t17.5 -112q0 -85 -30.5 -157.5t-89.5 -123.5q-53 -46 -127 -71.5t-176 -25.5h-228zM276 144q60 0 101.5 14.5t70.5 42.5q63 61 63 176q0 38 -9 63t-26 42q-23 22 -60 29.5t-89 7.5h-69l-44 -375h62z" />
    <glyph glyph-name="E" unicode="E" horiz-adv-x="597" 
d="M596 663l-16 -136h-322l-14 -125h289l-16 -134h-290l-15 -132h331l-16 -136h-496l79 663h486z" />
    <glyph glyph-name="F" unicode="F" horiz-adv-x="566" 
d="M589 663l-17 -136h-314l-16 -142h283l-16 -134h-283l-30 -251h-165l79 663h479z" />
    <glyph glyph-name="G" unicode="G" horiz-adv-x="717" 
d="M509 51l-33 -19q-35 -20 -74.5 -31.5t-76.5 -11.5q-62 0 -115 23t-91 64.5t-59.5 98t-21.5 122.5q0 84 29 153t78 118.5t114.5 76.5t138.5 27q44 0 86 -12.5t78 -35.5t64.5 -57t46.5 -76l-107 -69l-65 48q-33 24 -60 38t-59 14q-38 0 -69.5 -16t-54.5 -44t-36 -67
t-13 -85q0 -82 41.5 -124t119.5 -42q13 0 28.5 1.5t31 4t30 6t25.5 6.5q10 3 12 6.5t4 17.5l7 57h-94l13 112h226q11 0 18.5 -4.5t5.5 -20.5l-39 -330h-112z" />
    <glyph glyph-name="H" unicode="H" horiz-adv-x="713" 
d="M623 0h-164l31 269h-262l-32 -269h-165l79 663h165l-30 -252h262l30 252h165z" />
    <glyph glyph-name="I" unicode="I" horiz-adv-x="290" 
d="M198 0h-165l79 663h165z" />
    <glyph glyph-name="J" unicode="J" horiz-adv-x="507" 
d="M27 157l59 -8q38 -5 65 -8t44 -3q50 0 68.5 19.5t23.5 66.5l51 439h165l-52 -435q-8 -64 -28 -109t-51 -73.5t-72.5 -42t-90.5 -13.5q-56 0 -112.5 17.5t-102.5 47.5z" />
    <glyph glyph-name="K" unicode="K" horiz-adv-x="668" 
d="M196 0h-165l79 663h165l-34 -281l349 289l87 -104l-231 -186l191 -381h-157q-13 0 -19 2.5t-11 13.5l-130 269q-21 -14 -48.5 -28t-47.5 -20z" />
    <glyph glyph-name="L" unicode="L" horiz-adv-x="564" 
d="M110 663h165l-62 -527h309l-17 -136h-474z" />
    <glyph glyph-name="M" unicode="M" horiz-adv-x="832" 
d="M652 645q11 12 16 15t16 3h138l-79 -663h-159l50 422h-2l-164 -188h-97q-20 0 -27 12l-104 176h-1l-50 -422h-158l79 663h134q13 0 19 -2.5t13 -14.5l152 -256h3z" />
    <glyph glyph-name="N" unicode="N" horiz-adv-x="722" 
d="M185 0h-154l79 663h117q11 0 16 -2.5t11 -11.5l202 -311q14 -21 27.5 -42.5t23.5 -38.5h2l49 406h153l-79 -663h-116q-11 0 -16 2t-10 10l-200 308q-14 20 -29 44.5t-26 43.5h-2z" />
    <glyph glyph-name="O" unicode="O" horiz-adv-x="719" 
d="M701 363q0 -86 -29 -155t-78 -117.5t-113.5 -75t-136.5 -26.5q-65 0 -120.5 23.5t-97 64.5t-65 98t-23.5 124q0 81 29 149.5t78 118t113.5 77.5t136.5 28q64 0 120 -23t97.5 -64.5t65 -98t23.5 -123.5zM530 350q0 74 -40 118.5t-106 44.5q-38 0 -70 -14.5t-55.5 -41.5
t-36.5 -64t-13 -82q0 -76 40 -119t106 -43q38 0 70 14t55.5 40.5t36.5 63.5t13 83z" />
    <glyph glyph-name="P" unicode="P" horiz-adv-x="634" 
d="M220 198l-24 -198h-165l79 663h250q83 0 135.5 -15t84.5 -48q24 -25 36.5 -59t12.5 -82q0 -27 -6 -55.5t-17.5 -56.5t-28 -53.5t-38.5 -44.5q-30 -27 -70.5 -39t-101.5 -12h-147zM235 333h152q17 0 27 3t19 14q13 15 21.5 41.5t8.5 53.5q0 39 -17 57q-21 22 -86 22h-101z
" />
    <glyph glyph-name="Q" unicode="Q" horiz-adv-x="719" 
d="M349 -11q-66 0 -123 22.5t-98.5 63.5t-65.5 98t-24 126q0 81 29 149.5t78 118t114 77.5t136 28q65 0 121 -23t97 -64.5t64.5 -98t23.5 -123.5q0 -57 -14 -108t-39 -93.5t-60 -76.5t-78 -56l105 -158l-171 -74l-87 192h-8zM530 350q0 74 -40 118.5t-106 44.5
q-38 0 -70 -14.5t-55.5 -41.5t-36.5 -64t-13 -82q0 -76 40 -119t106 -43q38 0 70 14t55.5 40.5t36.5 63.5t13 83z" />
    <glyph glyph-name="R" unicode="R" horiz-adv-x="660" 
d="M366 663q83 0 135.5 -15t84.5 -48q24 -25 36.5 -59t12.5 -82q0 -72 -35 -128t-94 -94l112 -237h-153q-12 0 -17.5 2.5t-10.5 13.5l-78 177q-5 12 -10.5 14t-18.5 2h-109l-25 -209h-165l79 663h256zM469 444q0 40 -17 58q-21 22 -86 22h-108l-21 -180h158q17 0 27.5 3
t19.5 14q13 15 20 38.5t7 44.5z" />
    <glyph glyph-name="S" unicode="S" horiz-adv-x="589" 
d="M116 149q60 -8 101 -12.5t73 -4.5q48 0 75.5 16.5t27.5 50.5q0 23 -19 37t-68 31l-51 19q-45 17 -82 35.5t-62.5 41.5t-39.5 52t-14 67q0 48 21 84t57.5 59.5t86.5 35t108 11.5q60 0 121.5 -11.5t109.5 -29.5l-21 -112l-76 4q-38 2 -72 3.5t-61 1.5q-62 0 -88.5 -8.5
t-26.5 -31.5q0 -16 18 -27t62 -27l54 -20q52 -19 90.5 -38t64 -42t38.5 -52t13 -68q0 -50 -18.5 -91.5t-53.5 -71t-86 -46t-117 -16.5q-69 0 -141.5 16.5t-130.5 42.5l35 111z" />
    <glyph glyph-name="T" unicode="T" horiz-adv-x="614" 
d="M255 527h-211l17 136h585l-17 -136h-209l-62 -527h-165z" />
    <glyph glyph-name="U" unicode="U" horiz-adv-x="686" 
d="M524 663h161l-43 -362q-10 -86 -38 -145.5t-70 -96.5t-97.5 -53t-119.5 -16q-58 0 -106.5 17.5t-84 49.5t-55.5 77.5t-20 101.5q0 24 3 61t8 82l34 284h165l-39 -321q-4 -33 -5.5 -53.5t-1.5 -34.5q0 -52 31 -78.5t86 -26.5q75 0 108 43.5t43 125.5z" />
    <glyph glyph-name="V" unicode="V" horiz-adv-x="655" 
d="M402 0h-185q-11 0 -15 4t-6 14l-154 645h162q8 0 10.5 -2t4.5 -10l48 -224q6 -27 13.5 -66t15 -79.5t13 -78.5t8.5 -63h1q10 32 22.5 67.5t26 71t26.5 68.5t25 60l107 244q3 8 6.5 10t10.5 2h166z" />
    <glyph glyph-name="W" unicode="W" horiz-adv-x="985" 
d="M654 404q11 -75 16.5 -131.5t6.5 -101.5q17 50 38.5 108t51.5 133l96 239q3 7 6.5 9.5t12.5 2.5h153l-276 -663h-173q-12 0 -16 3.5t-6 11.5l-24 160q-5 30 -9.5 66t-8 71.5t-7 67t-4.5 54.5q-7 -22 -16.5 -52.5t-21 -64.5t-24 -69.5t-25.5 -68.5l-70 -179h-173
q-11 0 -15.5 3.5t-6.5 11.5l-115 648h153q8 0 11 -2.5t5 -10.5l48 -303q7 -45 13.5 -90.5t9.5 -85.5q4 14 10.5 35t14.5 44t16.5 46.5t16.5 43.5l125 323h131q9 0 12.5 -3t5.5 -11z" />
    <glyph glyph-name="X" unicode="X" horiz-adv-x="677" 
d="M443 331l209 -331h-163q-9 0 -15.5 2t-11.5 10l-132 214l-168 -214q-6 -8 -11 -10t-15 -2h-172l283 349l-198 314h164q10 0 15 -2.5t11 -12.5l119 -195l154 196q7 8 13 11t15 3h170z" />
    <glyph glyph-name="Y" unicode="Y" horiz-adv-x="668" 
d="M346 338q10 19 20.5 38t23 40.5t27.5 46.5t35 56l83 132q5 8 9 10t12 2h172l-315 -456l-25 -207h-164l25 207l-212 456h166q8 0 12 -2t7 -10l54 -128q13 -32 23.5 -58t19 -47.5t14.5 -41t12 -38.5h1z" />
    <glyph glyph-name="Z" unicode="Z" horiz-adv-x="600" 
d="M65 527l18 136h527l-11 -87q-2 -12 -3.5 -19.5t-5 -14.5t-9 -14t-15.5 -18l-195 -219q-18 -20 -38 -42t-39.5 -43t-37.5 -39t-32 -31h331l-17 -136h-535l10 83q2 21 9 34.5t25 34.5l193 219q17 19 37 41t40 43t38.5 40t32.5 32h-323z" />
    <glyph glyph-name="a" unicode="a" horiz-adv-x="576" 
d="M550 101l-9 -78q-24 -13 -52 -19.5t-51 -6.5q-31 0 -55.5 12.5t-38.5 35.5l-27 -16q-24 -14 -55 -25.5t-60 -11.5q-39 0 -72 16.5t-57 46.5t-37.5 70.5t-13.5 88.5q0 57 20 108t53 90t77 61.5t92 22.5q29 0 53 -10t48 -27l19 -15l25 45l115 -8l-43 -361zM352 330
q1 8 -1 11.5t-10 6.5q-9 4 -23.5 7.5t-31.5 3.5q-51 0 -78 -39.5t-27 -100.5q0 -40 17 -65t55 -25q18 0 36.5 5.5t29.5 10.5q8 4 10 7.5t3 11.5z" />
    <glyph glyph-name="b" unicode="b" horiz-adv-x="550" 
d="M231 457l23 12q28 14 50 20.5t45 6.5q40 0 73 -17.5t56.5 -47.5t36.5 -71t13 -87q0 -56 -18.5 -107t-50 -89.5t-73.5 -61.5t-90 -23q-30 0 -55.5 9t-57.5 30l-21 14l-24 -47l-115 8l82 703h156zM196 159q-1 -9 0.5 -12t10.5 -6q14 -5 31 -7.5t31 -2.5q52 0 76 38.5
t24 98.5q0 41 -16.5 64.5t-54.5 23.5q-17 0 -35.5 -4t-33.5 -11q-8 -4 -10 -7t-4 -14z" />
    <glyph glyph-name="c" unicode="c" horiz-adv-x="510" 
d="M480 84q-22 -21 -50 -38t-58.5 -29t-61.5 -18.5t-58 -6.5q-50 0 -92 16t-73 46t-48 72.5t-17 95.5q0 58 20 108t55 87t82.5 58t101.5 21q39 0 74 -12.5t62.5 -35t47 -55t28.5 -72.5l-102 -46l-40 40q-26 26 -41 36t-35 10t-37 -10t-30 -27.5t-20 -41t-7 -49.5
q0 -48 23.5 -77t72.5 -29q35 0 103 21l58 19z" />
    <glyph glyph-name="d" unicode="d" horiz-adv-x="579" 
d="M259 496q30 0 56.5 -10.5t52.5 -28.5l30 252h156l-70 -589l69 -19l-10 -78q-23 -13 -51 -19t-51 -6q-32 0 -57 13t-39 36l-26 -16q-8 -5 -21 -11.5t-28.5 -12.5t-33.5 -10.5t-36 -4.5q-39 0 -71.5 16.5t-56.5 46.5t-37 70.5t-13 88.5q0 56 19 107t51.5 90t75.5 62t91 23z
M354 328q1 9 0 12.5t-8 6.5q-25 11 -62 11q-48 0 -75.5 -37.5t-27.5 -100.5q0 -42 17.5 -65.5t52.5 -23.5q17 0 38.5 5t33.5 13q6 4 8 7t3 11z" />
    <glyph glyph-name="e" unicode="e" horiz-adv-x="529" 
d="M178 198q5 -35 33 -54.5t70 -19.5q20 0 42.5 3.5t57.5 11.5l60 14l38 -84q-18 -16 -43.5 -30t-54.5 -24.5t-60 -16.5t-61 -6q-53 0 -96.5 16.5t-75 46.5t-49 73t-17.5 96q0 61 21 111t56.5 86t82.5 55.5t99 19.5q46 0 86.5 -15.5t70.5 -44.5t47.5 -70t17.5 -91
q0 -41 -7.5 -59t-27.5 -18h-290zM356 300q-2 30 -22.5 49.5t-55.5 19.5t-59 -17.5t-33 -51.5h170z" />
    <glyph glyph-name="f" unicode="f" horiz-adv-x="393" 
d="M111 484q-5 13 -7.5 27.5t-2.5 29.5q0 40 16 73.5t43.5 57.5t66 37t83.5 13q46 0 91 -15.5t80 -44.5l-42 -89l-44 10q-39 9 -67 9q-36 0 -54 -17t-18 -48q0 -21 6 -39h154l-14 -121h-148l-66 -573h-156l66 573h-83l12 99z" />
    <glyph glyph-name="g" unicode="g" horiz-adv-x="548" 
d="M472 12q-14 -116 -71.5 -180t-167.5 -64q-45 0 -95 13.5t-95 34.5l29 97l60 -8q27 -4 46.5 -5.5t33.5 -1.5q27 0 45.5 6t30.5 19.5t18.5 34.5t10.5 51l3 25q-59 -36 -116 -36q-39 0 -72 16.5t-57.5 45.5t-38.5 69t-14 88q0 57 20 108t53 89t76.5 60t91.5 22
q29 0 55.5 -11t49.5 -27l20 -14l24 45l115 -8zM355 328q1 8 0 11t-9 7q-24 12 -58 12q-48 0 -78.5 -34t-30.5 -98q0 -42 19.5 -67t55.5 -25q18 0 37 4t33 11q10 5 11 16z" />
    <glyph glyph-name="h" unicode="h" horiz-adv-x="551" 
d="M355 278q1 6 2 15.5t1 14.5q0 24 -15.5 33.5t-44.5 9.5q-19 0 -37.5 -4t-32.5 -9q-8 -3 -9.5 -5.5t-2.5 -9.5l-38 -323h-156l84 709h156l-30 -255l9 5q32 17 61 27t57 10q33 0 61.5 -11t49.5 -32t33 -51.5t12 -69.5q0 -13 -1.5 -28.5t-3.5 -32.5l-32 -271h-156z" />
    <glyph glyph-name="i" unicode="i" horiz-adv-x="262" 
d="M82 488h156l-58 -488h-156zM108 704h118q21 0 28 -8t5 -27l-13 -113h-156z" />
    <glyph glyph-name="j" unicode="j" horiz-adv-x="262" 
d="M82 488h156l-62 -529q-7 -56 -21 -91.5t-37 -58.5q-42 -41 -114 -41q-26 0 -56.5 5.5t-59.5 15.5l10 81l60 10q34 6 45 16t14 38zM108 704h118q21 0 28 -8t5 -27l-13 -113h-156z" />
    <glyph glyph-name="k" unicode="k" horiz-adv-x="561" 
d="M387 283l149 -283h-153q-13 0 -18 3t-10 12l-94 188q-16 -9 -31.5 -15t-30.5 -11l-21 -177h-156l84 709h156l-47 -399l267 201l77 -100z" />
    <glyph glyph-name="l" unicode="l" horiz-adv-x="292" 
d="M258 23q-21 -10 -52 -18t-56 -8q-55 0 -84 28.5t-29 77.5q0 6 0.5 14.5t1.5 19.5l67 572h156l-69 -587l74 -21z" />
    <glyph glyph-name="m" unicode="m" horiz-adv-x="832" 
d="M636 275q3 24 3 34q0 23 -14 32.5t-40 9.5q-18 0 -35.5 -4t-31.5 -9q-7 -3 -8.5 -5.5t-2.5 -9.5l-38 -323h-156l32 275q3 24 3 34q0 23 -14 32.5t-40 9.5q-18 0 -35.5 -4t-31.5 -9q-7 -3 -8.5 -5.5t-2.5 -9.5l-38 -323h-156l58 488h119l12 -45l31 17q29 16 56 26t56 10
q79 0 124 -63l25 14q36 20 73 34.5t69 14.5q37 0 65 -13.5t47 -36t29 -52t10 -62.5q0 -14 -1.5 -29.5t-3.5 -33.5l-32 -269h-155z" />
    <glyph glyph-name="n" unicode="n" horiz-adv-x="551" 
d="M355 278q1 6 2 15.5t1 14.5q0 24 -15.5 33.5t-44.5 9.5q-19 0 -37.5 -4t-32.5 -9q-8 -3 -9.5 -5.5t-2.5 -9.5l-38 -323h-156l58 488h119l12 -45l31 17q31 17 59.5 26.5t57.5 9.5q33 0 61.5 -11t49.5 -32t33 -51.5t12 -69.5q0 -13 -1.5 -28.5t-3.5 -32.5l-32 -271h-156z
" />
    <glyph glyph-name="o" unicode="o" horiz-adv-x="545" 
d="M264 133q23 0 41.5 10t31.5 27t20 40.5t7 49.5q0 39 -20.5 67t-62.5 28q-23 0 -41.5 -10t-31.5 -27.5t-20 -40.5t-7 -49q0 -39 20.5 -67t62.5 -28zM258 -8q-50 0 -93 17t-75 47.5t-50 73.5t-18 94q0 54 19.5 103.5t55 87t84 59.5t106.5 22q50 0 93 -17t75 -48t50 -73.5
t18 -94.5q0 -58 -20 -107.5t-55 -86t-83.5 -57t-106.5 -20.5z" />
    <glyph glyph-name="p" unicode="p" horiz-adv-x="549" 
d="M151 -229h-155l84 717h120l11 -44l33 18q26 14 53.5 24t54.5 10q35 0 67 -16.5t56 -46t38 -70.5t14 -90q0 -56 -18 -107t-49.5 -89.5t-73.5 -61.5t-90 -23q-50 0 -91 25l-23 14zM196 160q-2 -11 1.5 -14t12.5 -6q30 -9 61 -9q48 0 72.5 38t24.5 99q0 42 -16.5 65
t-53.5 23q-18 0 -36 -4t-33 -11q-8 -4 -10 -7t-4 -13z" />
    <glyph glyph-name="q" unicode="q" horiz-adv-x="549" 
d="M288 -229l30 259q-29 -17 -58 -27.5t-58 -10.5q-39 0 -72 16.5t-57 46.5t-37.5 70.5t-13.5 88.5q0 57 19.5 108t52.5 89.5t76.5 61.5t91.5 23q29 0 56 -10t51 -27l19 -15l25 45l115 -8l-84 -710h-156zM354 328q2 10 0.5 13t-8.5 6q-25 11 -62 11q-48 0 -75.5 -37.5
t-27.5 -100.5q0 -42 17.5 -65.5t52.5 -23.5q17 0 38.5 5t33.5 13q6 4 8 7t3 11z" />
    <glyph glyph-name="r" unicode="r" horiz-adv-x="386" 
d="M213 423l33 22q19 13 33.5 22.5t26.5 16t22.5 9.5t21.5 3q16 0 31.5 -6t29.5 -14l-13 -110q-35 -7 -76 -16t-70 -18q-25 -8 -30.5 -13t-7.5 -16l-36 -303h-156l58 488h118z" />
    <glyph glyph-name="s" unicode="s" horiz-adv-x="467" 
d="M36 138l75 -11q40 -6 70 -8.5t54 -2.5q57 0 57 32q0 11 -10 17.5t-40 14.5l-48 13q-73 20 -113.5 52t-40.5 91q0 38 16.5 68t45.5 50q29 21 69.5 31.5t88.5 10.5q45 0 91.5 -10t88.5 -28l-26 -96l-63 6q-27 2 -51.5 3.5t-47.5 1.5q-42 0 -56.5 -6.5t-14.5 -17.5
q0 -9 10 -14.5t34 -12.5l40 -11q37 -10 68.5 -21.5t54 -27.5t35 -38.5t12.5 -55.5q0 -84 -58 -129.5t-154 -45.5q-51 0 -109 14t-107 35z" />
    <glyph glyph-name="t" unicode="t" horiz-adv-x="432" 
d="M108 485l17 144h156l-17 -141h148l-14 -121h-148l-18 -147q-2 -20 -3.5 -33t-1.5 -21q0 -42 49 -42q11 0 29.5 2t32.5 4l37 5l24 -90q-18 -12 -40 -21.5t-45.5 -16.5t-46.5 -11t-43 -4q-69 0 -111.5 37.5t-42.5 109.5q0 32 6 80l18 148h-83l12 99z" />
    <glyph glyph-name="u" unicode="u" horiz-adv-x="548" 
d="M196 210q-1 -6 -2 -15.5t-1 -15.5q0 -23 15.5 -32.5t44.5 -9.5q40 0 69 13q7 3 8.5 6t2.5 9l38 323h156l-58 -488h-119l-12 45l-30 -18q-27 -17 -57.5 -26t-59.5 -9q-33 0 -61.5 11t-49.5 32t-32.5 51.5t-11.5 68.5q0 14 1.5 29t3.5 32l32 272h156z" />
    <glyph glyph-name="v" unicode="v" horiz-adv-x="520" 
d="M561 488l-245 -488h-150q-10 0 -14 2t-6 10l-137 476h148q10 0 14.5 -3t6.5 -13l40 -167q11 -45 19 -83.5t13 -67.5q12 31 28 73t36 87l69 158q5 11 9 13.5t15 2.5h154z" />
    <glyph glyph-name="w" unicode="w" horiz-adv-x="804" 
d="M526 352q11 -62 18 -114.5t12 -90.5q7 23 15.5 49.5t19.5 57.5l81 218q4 9 7.5 12.5t15.5 3.5h148l-219 -488h-158q-11 0 -15.5 3t-6.5 12l-21 124q-7 41 -12 80t-7 73q-4 -15 -11 -36t-15.5 -44t-17.5 -46t-16 -42l-50 -124h-159q-11 0 -15.5 3t-6.5 12l-103 473h146
q11 0 14.5 -3.5t5.5 -11.5l34 -222q4 -27 6.5 -54t4.5 -50q7 20 14.5 41.5t16.5 46.5t20 55t26 68l51 130h136q10 0 14 -3t6 -13z" />
    <glyph glyph-name="x" unicode="x" horiz-adv-x="529" 
d="M352 0q-10 0 -16 2t-10 10l-76 138l-107 -138q-6 -8 -10.5 -10t-15.5 -2h-164l215 254l-140 234h160q11 0 15.5 -2t9.5 -11l65 -124l103 124q7 8 11 10.5t14 2.5h159l-207 -241l152 -247h-158z" />
    <glyph glyph-name="y" unicode="y" horiz-adv-x="520" 
d="M156 488q11 0 15.5 -2.5t6.5 -12.5l36 -153q11 -45 19.5 -88t13.5 -78h2q11 31 28 73t37 87l69 159q5 10 9.5 12.5t15.5 2.5h153l-372 -735l-152 39l114 206l-142 490h147z" />
    <glyph glyph-name="z" unicode="z" horiz-adv-x="484" 
d="M51 367l14 121h416l-6 -60q-2 -24 -6 -33t-17 -23l-175 -190q-17 -17 -33 -33.5t-29 -27.5h224l-13 -121h-427l6 58q2 24 6 33t17 23l167 184q17 18 36 37t34 32h-214z" />
    <glyph glyph-name="ampersand" unicode="&#x26;" horiz-adv-x="721" 
d="M598 107l85 -10l-8 -74q-23 -12 -49 -19t-52 -7q-31 0 -58.5 14.5t-59.5 49.5q-48 -37 -96.5 -54t-99.5 -17q-55 0 -100 16.5t-76.5 45.5t-48.5 68t-17 84q0 36 12.5 65t33.5 51.5t50 39t62 27.5q-11 17 -19.5 39.5t-8.5 57.5q0 45 18 80t48 59.5t68 37.5t79 13
q36 0 69.5 -11t59 -32t41 -50.5t15.5 -66.5q0 -63 -39 -107t-104 -82l79 -89q23 33 54 81t60 96l83 -33q-24 -66 -55.5 -119.5t-67.5 -106.5zM227 317q-26 -17 -43 -42t-17 -55q0 -42 30.5 -71t86.5 -29q23 0 49.5 6.5t46.5 19.5zM374 410q23 21 36 40.5t13 43.5
q0 30 -20 44.5t-45 14.5q-32 0 -52 -18t-20 -47q0 -23 15.5 -45t46.5 -56z" />
    <glyph glyph-name="at" unicode="@" horiz-adv-x="751" 
d="M326 228q0 -23 9.5 -36t29.5 -13q5 0 15.5 1.5t18.5 6.5q6 3 7.5 5.5t2.5 7.5l11 89q2 11 0.5 14t-7.5 5q-13 5 -28 5q-26 0 -42.5 -21.5t-16.5 -63.5zM421 118q-24 -17 -45 -25.5t-42 -8.5q-46 0 -79.5 35t-33.5 102q0 38 11 72t30.5 59.5t46.5 40.5t59 15q23 0 40.5 -9
t38.5 -23l14 26h74l-23 -186q-2 -12 -2 -17.5v-7.5q0 -33 28 -33q26 0 45.5 31.5t19.5 97.5q0 48 -15 83.5t-41 59.5t-61.5 36t-77.5 12q-55 0 -101.5 -20t-80 -54.5t-52 -81t-18.5 -100.5q0 -50 15.5 -90t45 -67.5t71 -42.5t94.5 -15q35 0 73 5.5t80 16.5l89 22l23 -67
q-29 -18 -63.5 -33.5t-72 -26.5t-76 -17t-74.5 -6q-70 0 -130 21.5t-104 61t-69 96t-25 126.5q0 80 28.5 149t79.5 119.5t120.5 79.5t150.5 29q67 0 123 -20.5t96 -57.5t62 -87t22 -110q0 -51 -15.5 -93t-42 -72.5t-62.5 -47.5t-77 -17q-30 0 -57 10t-40 30z" />
    <glyph glyph-name="exclam" unicode="!" horiz-adv-x="289" 
d="M257 506q-4 -32 -11 -69.5t-19 -85.5l-34 -136h-102l-1 150q0 44 1.5 77t5.5 67l18 154h160zM56 152h121q22 0 30 -6.5t5 -29.5l-14 -116h-160z" />
    <glyph glyph-name="exclamdown" unicode="&#xa1;" horiz-adv-x="289" 
d="M34.998 -17.999q4 31.998 10.999 69.4961q7 37.4971 18.999 85.4941l33.998 135.992h101.993l1 -149.991q0 -43.9971 -1.5 -76.9951q-1.49902 -32.998 -5.49902 -66.9961l-17.999 -153.99h-159.99zM235.985 335.979h-120.992q-21.999 0 -29.998 6.5q-8 6.49902 -5 29.498
l13.999 115.993h159.99z" />
    <glyph glyph-name="question" unicode="?" horiz-adv-x="531" 
d="M177 203l-4 76q-1 20 0 33.5t5.5 23t13 16.5t21.5 14l42 23q50 28 74 46.5t24 45.5q0 26 -18 37.5t-47 11.5q-20 0 -47 -3.5t-74 -13.5l-69 -14l-37 96q63 38 124.5 58t122.5 20q44 0 82.5 -12.5t67 -35t45 -55.5t16.5 -73t-15 -72.5t-43 -59t-67.5 -48t-87.5 -39.5
l-24 -75h-105zM149 145h115q21 0 29 -6t5 -29l-13 -110h-154z" />
    <glyph glyph-name="questiondown" unicode="&#xbf;" horiz-adv-x="531" 
d="M362.978 284.982l4 -75.9951q1 -19.999 0 -33.498t-5.5 -22.999q-4.49902 -9.49902 -12.999 -16.498q-8.49902 -7 -21.498 -14l-41.998 -22.998q-49.9971 -27.998 -73.9951 -46.4971q-23.999 -18.499 -23.999 -45.4971q0 -25.999 17.999 -37.498t46.9971 -11.499
q19.999 0 46.9971 3.49902q26.999 3.5 73.9961 13.5l68.9951 13.999l36.998 -95.9941q-62.9961 -37.998 -124.492 -57.9971q-61.4961 -19.998 -122.492 -19.998q-43.998 0 -82.4951 12.499q-38.498 12.499 -66.9961 34.998q-28.498 22.498 -44.9971 55.4961t-16.499 72.9961
q0 39.9971 14.999 72.4951t42.9971 58.9961q27.998 26.499 67.4961 47.9971q39.4971 21.499 87.4941 39.498l23.999 74.9951h104.993zM390.977 342.979h-114.993q-20.999 0 -28.998 5.99902q-8 6 -5 28.998l12.999 109.994h153.99z" />
    <glyph glyph-name="asterisk" unicode="*" horiz-adv-x="463" 
d="M322 273q-17 -11 -23 5l-48 126l-89 -143l-84 62q-17 13 4 30l119 101l-142 19l45 95q5 11 11 14.5t17 -4.5l95 -66l-13 151h115q19 0 13 -18l-44 -133l132 77l25 -97q6 -20 -18 -23l-125 -15l111 -119z" />
    <glyph glyph-name="period" unicode="." horiz-adv-x="245" 
d="M158 161q20 0 27.5 -8t5.5 -27l-14 -126h-165l19 161h127z" />
    <glyph glyph-name="comma" unicode="," horiz-adv-x="247" 
d="M159 161q20 0 27.5 -8t5.5 -27l-8 -71q-4 -32 -10.5 -56.5t-22 -49.5t-44 -53.5t-76.5 -68.5l-56 44l61 86q23 33 23 39q0 5 -9 11l-12 9q-12 9 -15 16t-3 18q0 5 0.5 12t2.5 21l9 78h127z" />
    <glyph glyph-name="colon" unicode=":" horiz-adv-x="245" 
d="M158 161q20 0 27.5 -8t5.5 -27l-14 -126h-165l19 161h127zM195 462q20 0 27.5 -8t5.5 -27l-14 -126h-165l19 161h127z" />
    <glyph glyph-name="semicolon" unicode=";" horiz-adv-x="247" 
d="M195 462q20 0 27.5 -8t5.5 -27l-14 -126h-165l19 161h127zM159 161q20 0 27.5 -8t5.5 -27l-8 -71q-4 -32 -10.5 -56.5t-22 -49.5t-44 -53.5t-76.5 -68.5l-56 44l61 86q23 33 23 39q0 5 -9 11l-12 9q-12 9 -15 16t-3 18q0 5 0.5 12t2.5 21l9 78h127z" />
    <glyph glyph-name="ellipsis" unicode="&#x2026;" horiz-adv-x="735" 
d="M158 161q20 0 27.5 -8t5.5 -27l-14 -126h-165l19 161h127zM403 161q20 0 27.5 -8t5.5 -27l-14 -126h-165l19 161h127zM648 161q20 0 27.5 -8t5.5 -27l-14 -126h-165l19 161h127z" />
    <glyph glyph-name="periodcentered" unicode="&#xb7;" horiz-adv-x="245" 
d="M180 357q20 0 27.5 -8t5.5 -27l-14 -126h-165l19 161h127z" />
    <glyph glyph-name="bullet" unicode="&#x2022;" horiz-adv-x="359" 
d="M267 404q28 0 39.5 -10.5t7.5 -39.5l-23 -191h-247l29 241h194z" />
    <glyph glyph-name="slash" unicode="/" horiz-adv-x="478" 
d="M-32 0l399 663h165l-399 -663h-165z" />
    <glyph glyph-name="parenleft" unicode="(" horiz-adv-x="372" 
d="M210 -243q-82 79 -121.5 178t-39.5 208q0 74 18 147.5t52.5 142.5t84.5 131t114 113l68 -59q-82 -116 -126.5 -239.5t-44.5 -252.5q0 -160 76 -310z" />
    <glyph glyph-name="brokenbar" unicode="&#xa6;" horiz-adv-x="285" 
d="M125 709h148l-50 -418h-148zM63 189h148l-49 -418h-148z" />
    <glyph glyph-name="parenright" unicode=")" horiz-adv-x="372" 
d="M157 677q82 -79 121.5 -178t39.5 -208q0 -74 -18 -147.5t-52.5 -142.5t-84.5 -131t-114 -113l-68 59q82 116 126.5 239.5t44.5 252.5q0 160 -76 310z" />
    <glyph glyph-name="bracketleft" unicode="[" horiz-adv-x="363" 
d="M178 -93h126l-17 -136h-275l106 892h274l-17 -136h-123z" />
    <glyph glyph-name="backslash" unicode="\" horiz-adv-x="468" 
d="M287 0l-242 663h157l242 -663h-157z" />
    <glyph glyph-name="bracketright" unicode="]" horiz-adv-x="363" 
d="M175 527h-126l17 136h275l-106 -892h-274l17 136h123z" />
    <glyph glyph-name="braceleft" unicode="{" horiz-adv-x="391" 
d="M33 267q35 14 56 25t32.5 24t15.5 29.5t4 42.5q0 25 -2 59.5t-2 63.5q0 41 13 71.5t35.5 50.5t54 30t67.5 10q25 0 54 -5t58 -13l-12 -95l-96 -24q-11 -3 -14.5 -7.5t-3.5 -15.5t0.5 -28t1.5 -34t1.5 -32t0.5 -22q0 -34 -7.5 -60.5t-25 -48t-47.5 -39t-75 -33.5
q66 -26 93 -54t27 -69q0 -22 -6 -50t-13.5 -54.5t-13.5 -47.5t-6 -29q0 -7 3 -10.5t13 -6.5l88 -23l-12 -95q-25 -8 -57 -13t-58 -5q-30 0 -55 7.5t-43.5 21.5t-29 35t-10.5 48q0 26 7 56.5t15.5 59.5t15.5 54.5t7 42.5q0 25 -17.5 42.5t-68.5 38.5z" />
    <glyph glyph-name="bar" unicode="|" horiz-adv-x="285" 
d="M125 709h148l-111 -938h-148z" />
    <glyph glyph-name="braceright" unicode="}" horiz-adv-x="391" 
d="M350 165q-35 -14 -56 -25t-32.5 -24t-15.5 -30t-4 -42t2 -59.5t2 -63.5q0 -41 -13 -71.5t-35.5 -50.5t-54 -30t-67.5 -10q-25 0 -54 5t-58 13l12 95l96 24q11 3 14.5 7.5t3.5 15.5t-0.5 27.5t-1.5 34t-1.5 32.5t-0.5 22q0 34 7.5 60.5t25 48t47.5 39t75 33.5
q-66 26 -93 54t-27 69q0 22 6 50t13.5 54.5t13.5 47.5t6 29q0 7 -3 10.5t-13 6.5l-88 23l12 95q25 8 57 13t58 5q30 0 55 -7.5t43.5 -21.5t29 -35t10.5 -48q0 -26 -7 -56.5t-15.5 -60t-15.5 -55t-7 -41.5q0 -13 4 -23t13.5 -19.5t26 -19t42.5 -19.5z" />
    <glyph glyph-name="hyphen" unicode="-" horiz-adv-x="408" 
d="M33 180l15 126h327l-15 -126h-327z" />
    <glyph glyph-name="uni00AD" unicode="&#xad;" horiz-adv-x="408" 
d="M33 180l15 126h327l-15 -126h-327z" />
    <glyph glyph-name="endash" unicode="&#x2013;" horiz-adv-x="561" 
d="M33 180l15 126h480l-15 -126h-480z" />
    <glyph glyph-name="emdash" unicode="&#x2014;" horiz-adv-x="1041" 
d="M33 180l15 126h960l-15 -126h-960z" />
    <glyph glyph-name="underscore" unicode="_" horiz-adv-x="507" 
d="M-21 -159l15 125h460l-15 -125h-460z" />
    <glyph glyph-name="dagger" unicode="&#x2020;" horiz-adv-x="598" 
d="M570 445l-17 -144h-63q-14 0 -27.5 1t-29.5 4l-60 10l1 -25q1 -25 -1.5 -52.5t-7.5 -69.5l-16 -142q-2 -17 -4.5 -35.5t-8.5 -43.5l-40 -177h-103v175q0 25 2 44.5t4 39.5l15 126q5 38 9.5 73.5t10.5 58.5l7 28l-61 -10q-18 -3 -36.5 -4t-35.5 -1h-48l17 144h61
q14 0 28 -1.5t30 -3.5l62 -10q-1 15 -1.5 29t0 31.5t2 40.5t5.5 55l9 77h151l-9 -76q-4 -31 -7 -52t-6 -38t-6.5 -32.5t-8.5 -34.5l56 9q22 4 41.5 5t36.5 1h49z" />
    <glyph glyph-name="daggerdbl" unicode="&#x2021;" horiz-adv-x="598" 
d="M221 116q-2 15 -2.5 30t-0.5 29q0 59 15 109l9 31l-61 -10q-18 -3 -36.5 -4t-35.5 -1h-48l17 144h61q14 0 28 -1.5t30 -3.5l62 -10q-1 15 -1.5 29t0 31.5t2 40.5t5.5 55l9 77h151l-9 -76q-4 -31 -7 -52t-6 -38t-6.5 -32.5t-8.5 -34.5l56 9q22 4 41.5 5t36.5 1h49
l-17 -144h-63q-14 0 -27.5 1.5t-29.5 3.5l-62 10q1 -14 1 -29v-29q0 -53 -12 -102l-10 -39l61 10q18 3 36.5 4t35.5 1h48l-17 -144h-61q-14 0 -28 1.5t-30 3.5l-62 10q1 -15 1.5 -29t0 -31.5t-2 -40.5t-5.5 -55l-9 -75h-151l9 74q4 31 6.5 52t5.5 38t7 32t9 35l-56 -9
q-22 -4 -41.5 -5t-36.5 -1h-49l17 144h63q14 0 27.5 -1.5t29.5 -3.5z" />
    <glyph glyph-name="section" unicode="&#xa7;" horiz-adv-x="603" 
d="M465 83q24 -22 35 -51t11 -61q0 -48 -19.5 -87t-54.5 -66.5t-84.5 -42.5t-110.5 -15q-55 0 -116 15.5t-110 43.5l38 108l48 -8q37 -6 70.5 -9.5t59.5 -3.5q65 0 91.5 14t26.5 40q0 11 -3.5 18.5t-14 14.5t-29.5 13t-50 14l-31 8q-34 9 -65.5 21.5t-55.5 32t-38.5 47
t-14.5 66.5q0 45 20.5 82.5t55.5 71.5q-46 45 -46 117q0 48 19 86.5t54 65t84 41t110 14.5q63 0 120.5 -15t101.5 -39l-35 -109l-59 8q-31 4 -61.5 6.5t-53.5 2.5q-61 0 -90 -12.5t-29 -41.5q0 -21 16.5 -32t54.5 -21q39 -10 79.5 -22t74.5 -32t55.5 -52t21.5 -81
q0 -45 -20.5 -80t-55.5 -70zM284 272q-6 2 -16 4.5t-21 6.5q-12 4 -25 9q-10 -12 -18 -27t-8 -35q0 -12 3.5 -20.5t12 -15t23.5 -12.5t38 -12l39 -11q18 -5 29.5 -9t26.5 -10q10 14 17.5 28.5t7.5 33.5q0 23 -16 35.5t-61 25.5z" />
    <glyph glyph-name="paragraph" unicode="&#xb6;" horiz-adv-x="603" 
d="M160 -229l68 577h-76q-57 0 -78.5 18.5t-21.5 56.5q0 5 0.5 11t1.5 13l26 216h557l-14 -116h-73l-91 -776h-122l91 776h-55l-91 -776h-122z" />
    <glyph glyph-name="registered" unicode="&#xae;" horiz-adv-x="750" 
d="M717 363q0 -71 -27 -138t-75.5 -119.5t-115.5 -84t-146 -31.5q-66 0 -121.5 24.5t-95.5 66.5t-62.5 98t-22.5 119q0 71 27 138.5t75.5 120t115.5 84t146 31.5q67 0 122.5 -24.5t95.5 -67t62 -98.5t22 -119zM335 193h-89l33 281h136q99 0 99 -78q0 -26 -13.5 -51.5
t-37.5 -43.5q11 -27 20.5 -54t19.5 -54h-81q-7 0 -9.5 2.5t-4.5 7.5l-24 70q-3 8 -11 8h-28zM607 357q0 48 -14 87.5t-39.5 67.5t-62 43t-80.5 15q-55 0 -101 -20t-79 -56t-51.5 -84.5t-18.5 -105.5q0 -48 14 -87.5t40 -67t62 -42.5t80 -15q55 0 101 20t79 55.5t51.5 84
t18.5 105.5zM360 405l-7 -58h52q10 0 15 8q4 6 5.5 14.5t1.5 16.5q0 10 -6 14.5t-21 4.5h-40z" />
    <glyph glyph-name="copyright" unicode="&#xa9;" horiz-adv-x="750" 
d="M502 248q-30 -28 -64.5 -43.5t-66.5 -15.5q-57 0 -90 37.5t-33 94.5q0 31 10 59t29 50t45.5 35t59.5 13q39 0 71.5 -23t48.5 -71l-55 -32l-29 28q-9 8 -17.5 13t-19.5 5q-23 0 -39.5 -21.5t-16.5 -50.5q0 -56 49 -56q17 0 44 9l49 17zM717 363q0 -71 -27 -138
t-75.5 -119.5t-115.5 -84t-146 -31.5q-66 0 -121.5 24.5t-95.5 66.5t-62.5 98t-22.5 119q0 71 27 138.5t75.5 120t115.5 84t146 31.5q67 0 122.5 -24.5t95.5 -67t62 -98.5t22 -119zM607 357q0 48 -14 87.5t-39.5 67.5t-62 43t-80.5 15q-55 0 -101 -20t-79 -56t-51.5 -84.5
t-18.5 -105.5q0 -48 14 -87.5t40 -67t62 -42.5t80 -15q55 0 101 20t79 55.5t51.5 84t18.5 105.5z" />
    <glyph glyph-name="trademark" unicode="&#x2122;" horiz-adv-x="751" 
d="M759 663l-38 -316h-100l19 161l-66 -76h-41q-6 0 -8.5 1t-5.5 5l-45 70l-20 -161h-100l38 316h78q10 0 15 -8l75 -116h1l98 116q4 5 7 6.5t9 1.5h84zM231 347h-110l26 217h-90l12 99h290l-12 -99h-90z" />
    <glyph glyph-name="quotedblleft" unicode="&#x201c;" horiz-adv-x="458" 
d="M308 353q-20 0 -27.5 8t-5.5 27l8 71q4 32 10 56.5t22 49.5t44.5 53.5t76.5 68.5l56 -44l-61 -86q-23 -33 -23 -39q0 -5 9 -11l12 -9q12 -9 15 -16t3 -18q0 -5 -0.5 -12t-2.5 -21l-9 -78h-127zM87 353q-20 0 -27.5 8t-5.5 27l8 71q4 32 10 56.5t22 49.5t44.5 53.5
t76.5 68.5l56 -44l-61 -86q-23 -33 -23 -39q0 -5 9 -11l12 -9q12 -9 15 -16t3 -18q0 -5 -0.5 -12t-2.5 -21l-9 -78h-127z" />
    <glyph glyph-name="quotedblright" unicode="&#x201d;" horiz-adv-x="458" 
d="M211 663q20 0 27.5 -8t5.5 -27l-8 -71q-4 -32 -10.5 -56.5t-22 -49.5t-44 -53.5t-76.5 -68.5l-56 44l61 86q23 33 23 39q0 5 -9 11l-12 9q-12 9 -15 16t-3 18q0 5 0.5 12t2.5 21l9 78h127zM432 663q20 0 27.5 -8t5.5 -27l-8 -71q-4 -32 -10.5 -56.5t-22 -49.5t-44 -53.5
t-76.5 -68.5l-56 44l61 86q23 33 23 39q0 5 -9 11l-12 9q-12 9 -15 16t-3 18q0 5 0.5 12t2.5 21l9 78h127z" />
    <glyph glyph-name="quoteleft" unicode="&#x2018;" horiz-adv-x="237" 
d="M87 353q-20 0 -27.5 8t-5.5 27l8 71q4 32 10 56.5t22 49.5t44.5 53.5t76.5 68.5l56 -44l-61 -86q-23 -33 -23 -39q0 -5 9 -11l12 -9q12 -9 15 -16t3 -18q0 -5 -0.5 -12t-2.5 -21l-9 -78h-127z" />
    <glyph glyph-name="quoteright" unicode="&#x2019;" horiz-adv-x="237" 
d="M211 663q20 0 27.5 -8t5.5 -27l-8 -71q-4 -32 -10.5 -56.5t-22 -49.5t-44 -53.5t-76.5 -68.5l-56 44l61 86q23 33 23 39q0 5 -9 11l-12 9q-12 9 -15 16t-3 18q0 5 0.5 12t2.5 21l9 78h127z" />
    <glyph glyph-name="guillemotleft" unicode="&#xab;" horiz-adv-x="659" 
d="M331 290l249 178l61 -70l-152 -154l117 -160l-72 -64l-202 185q-5 5 -7.5 10t-0.5 16zM40 290l249 178l61 -70l-152 -154l117 -160l-72 -64l-202 185q-5 5 -7.5 10t-0.5 16z" />
    <glyph glyph-name="guillemotright" unicode="&#xbb;" horiz-adv-x="659" 
d="M327 198l-249 -178l-61 70l152 154l-117 160l72 64l202 -185q5 -5 7.5 -10t0.5 -16zM618 198l-249 -178l-61 70l152 154l-117 160l72 64l202 -185q5 -5 7.5 -10t0.5 -16z" />
    <glyph glyph-name="guilsinglleft" unicode="&#x2039;" horiz-adv-x="368" 
d="M40 290l249 178l61 -70l-152 -154l117 -160l-72 -64l-202 185q-5 5 -7.5 10t-0.5 16z" />
    <glyph glyph-name="guilsinglright" unicode="&#x203a;" horiz-adv-x="368" 
d="M327 198l-249 -178l-61 70l152 154l-117 160l72 64l202 -185q5 -5 7.5 -10t0.5 -16z" />
    <glyph glyph-name="quotesinglbase" unicode="&#x201a;" horiz-adv-x="235" 
d="M143 61q20 0 27.5 -8t5.5 -27l-8 -71q-4 -32 -10.5 -56.5t-22 -49.5t-44 -53.5t-76.5 -68.5l-56 44l61 86q23 33 23 39q0 5 -9 11l-12 9q-12 9 -15 16t-3 18q0 5 0.5 12t2.5 21l9 78h127z" />
    <glyph glyph-name="quotedblbase" unicode="&#x201e;" horiz-adv-x="456" 
d="M143 61q20 0 27.5 -8t5.5 -27l-8 -71q-4 -32 -10.5 -56.5t-22 -49.5t-44 -53.5t-76.5 -68.5l-56 44l61 86q23 33 23 39q0 5 -9 11l-12 9q-12 9 -15 16t-3 18q0 5 0.5 12t2.5 21l9 78h127zM364 61q20 0 27.5 -8t5.5 -27l-8 -71q-4 -32 -10.5 -56.5t-22 -49.5t-44 -53.5
t-76.5 -68.5l-56 44l61 86q23 33 23 39q0 5 -9 11l-12 9q-12 9 -15 16t-3 18q0 5 0.5 12t2.5 21l9 78h127z" />
    <glyph glyph-name="ordfeminine" unicode="&#xaa;" horiz-adv-x="480" 
d="M470 350l-8 -64q-20 -11 -41 -16.5t-38 -5.5q-24 0 -43.5 11.5t-30.5 28.5l-14 -9q-25 -16 -47.5 -25.5t-45.5 -9.5q-29 0 -56.5 12.5t-49 36t-34.5 57.5t-13 77q0 49 16 91t42 73t60 48.5t70 17.5q23 0 42.5 -7.5t43.5 -23.5l17 -11l18 35l91 -5l-35 -296zM177 453
q0 -33 15 -52.5t44 -19.5q22 0 44 8q8 3 9.5 6t2.5 11l15 121q1 8 0 11t-9 6q-18 7 -40 7q-36 0 -58.5 -26.5t-22.5 -71.5z" />
    <glyph glyph-name="ordmasculine" unicode="&#xba;" horiz-adv-x="480" 
d="M252 386q35 0 58 25t23 67q0 29 -17.5 49.5t-49.5 20.5q-35 0 -57.5 -25.5t-22.5 -67.5q0 -29 17 -49t49 -20zM244 261q-40 0 -74 14t-59 39t-39.5 59.5t-14.5 76.5q0 46 16.5 86.5t46 71t69 48t85.5 17.5q40 0 74 -14t59.5 -39.5t40 -60t14.5 -76.5q0 -46 -17 -86.5
t-46 -70.5t-69 -47.5t-86 -17.5z" />
    <glyph glyph-name="arrowleft" unicode="&#x2190;" horiz-adv-x="798" 
d="M269 495l66 -67l-97 -122h508v-127h-511l100 -127l-66 -67l-218 217v60q0 10 2 14.5t10 12.5z" />
    <glyph glyph-name="arrowup" unicode="&#x2191;" horiz-adv-x="798" 
d="M448 579l206 -205l-67 -67l-119 97v-508h-133v511l-124 -100l-67 66l217 218h60q10 0 15 -2t12 -10z" />
    <glyph glyph-name="arrowright" unicode="&#x2192;" horiz-adv-x="798" 
d="M734 196l-206 -206l-66 67l97 122h-508v127h511l-100 127l66 67l218 -217v-60q0 -10 -2 -14.5t-10 -12.5z" />
    <glyph glyph-name="arrowdown" unicode="&#x2193;" horiz-adv-x="798" 
d="M350 -92l-206 206l67 66l119 -97v508h133v-511l124 100l67 -66l-217 -218h-60q-8 0 -14 2t-13 10z" />
    <glyph glyph-name="uni2196" unicode="&#x2196;" horiz-adv-x="798" 
d="M186 515h290v-94l-151 -18l357 -357l-94 -94l-359 360l-18 -157h-95v307l44 44q7 7 13 8t13 1z" />
    <glyph glyph-name="uni2197" unicode="&#x2197;" horiz-adv-x="798" 
d="M682 450v-295h-95l-18 157l-359 -360l-94 94l357 357l-151 18v94h306l44 -43q6 -6 8 -10t2 -12z" />
    <glyph glyph-name="uni2198" unicode="&#x2198;" horiz-adv-x="798" 
d="M615 -49h-295v95l157 18l-360 359l95 93l357 -357l17 152h95v-307l-44 -43q-5 -6 -9 -8t-13 -2z" />
    <glyph glyph-name="uni2199" unicode="&#x2199;" horiz-adv-x="798" 
d="M116 18v294h95l18 -156l359 359l94 -94l-357 -357l151 -17v-95h-307l-43 43q-6 6 -8 10t-2 13z" />
    <glyph glyph-name="zero" unicode="0" 
d="M628 377q0 -76 -24 -146t-67 -123.5t-103 -85.5t-132 -32q-57 0 -105 23t-82 62.5t-53 93.5t-19 116q0 76 24 146.5t67 124t102.5 85.5t131.5 32q57 0 105 -23t82.5 -63t53.5 -94t19 -116zM460 367q0 77 -28.5 115t-76.5 38q-33 0 -60 -18t-45.5 -49t-29 -71.5
t-10.5 -85.5q0 -76 28.5 -114.5t76.5 -38.5q33 0 60 17.5t45.5 48t29 71.5t10.5 87z" />
    <glyph glyph-name="one" unicode="1" 
d="M118 134h160l43 358q-8 -5 -22 -12.5t-49 -18.5l-83 -25l-42 113l237 102q16 7 26.5 9.5t27.5 2.5h85l-63 -529h126l-16 -134h-446z" />
    <glyph glyph-name="two" unicode="2" 
d="M556 135l-17 -135h-487l12 84q2 17 6.5 24.5t19.5 21.5l230 200q27 24 45 42t29.5 33.5t16 29t4.5 27.5q0 36 -23 50.5t-56 14.5q-22 0 -49.5 -4.5t-68.5 -15.5l-78 -22l-38 99q63 40 129.5 64.5t130.5 24.5q49 0 89.5 -14.5t69 -40.5t44.5 -61.5t16 -77.5
q0 -38 -12 -72.5t-37 -67.5t-63.5 -66t-90.5 -69l-99 -69h277z" />
    <glyph glyph-name="three" unicode="3" 
d="M342 529q-26 0 -59.5 -6.5t-72.5 -15.5l-70 -16l-36 97q136 85 267 85q44 0 82 -12t66 -34.5t44 -54.5t16 -71q0 -45 -21 -83.5t-53 -70.5q71 -45 71 -127q0 -48 -19.5 -90t-55.5 -73t-86 -49t-111 -18q-75 0 -146 29t-124 74l51 93l83 -25q45 -14 77 -21t59 -7
q48 0 72.5 20t24.5 70q0 27 -15.5 35.5t-44.5 8.5h-79q-15 0 -17.5 7t-0.5 24l12 97h125q14 0 19.5 3t10.5 11q5 9 9.5 24t4.5 28q0 68 -83 68z" />
    <glyph glyph-name="four" unicode="4" 
d="M613 267l-16 -129h-79l-17 -138h-159l16 138h-324l13 113q1 10 2.5 17t4.5 13t8.5 12.5t13.5 16.5l294 332q11 13 19.5 17t27.5 4h163l-47 -396h80zM401 497q-8 -11 -24 -31t-32 -37l-90 -101q-14 -17 -31 -33.5t-29 -27.5h179z" />
    <glyph glyph-name="five" unicode="5" 
d="M277 459q-2 -20 -4.5 -34.5t-5.5 -25.5q27 12 57.5 19.5t60.5 7.5q42 0 77.5 -13t62 -37t41.5 -59t15 -79q0 -50 -19 -94.5t-54.5 -79t-85.5 -54.5t-113 -20q-74 0 -140 25t-124 70l50 96l81 -24q38 -11 68 -17.5t56 -6.5q50 0 82 28t32 71q0 38 -24.5 55t-63.5 17
q-24 0 -53.5 -8t-57.5 -19q-11 -5 -17 -4t-16 7l-56 34q-8 5 -10.5 9t-0.5 14l39 326h429l-17 -137h-281z" />
    <glyph glyph-name="six" unicode="6" 
d="M506 524q-29 6 -52 8.5t-46 2.5q-66 0 -110.5 -36.5t-57.5 -114.5l30 13q37 16 69 25t62 9q40 0 76 -12.5t63.5 -36.5t43.5 -59.5t16 -81.5q0 -47 -19 -92.5t-53.5 -80.5t-84 -56.5t-110.5 -21.5q-62 0 -111.5 23.5t-84 63.5t-52.5 94t-18 114q0 88 28 159.5t75 122.5
t109.5 78.5t131.5 27.5q51 0 100 -16t91 -42l-45 -101zM248 287q-13 -5 -15.5 -10t-2.5 -14q0 -58 29 -95.5t81 -37.5q45 0 74 28t29 79q0 39 -25 54.5t-66 15.5q-22 0 -50 -5t-54 -15z" />
    <glyph glyph-name="seven" unicode="7" 
d="M146 0q6 46 14.5 83t23 72.5t36 71.5t53.5 81q38 54 62.5 86.5t42 55t32 39t34.5 38.5h-356l17 136h532l-8 -72q-2 -16 -3.5 -24.5t-4 -15.5t-7 -13.5t-12.5 -18.5l-137 -191q-43 -60 -69 -102.5t-42 -77.5t-25.5 -69t-18.5 -79h-164z" />
    <glyph glyph-name="eight" unicode="8" 
d="M166 351q-26 20 -43.5 52.5t-17.5 72.5q0 41 19.5 77t54 62.5t81.5 42t103 15.5q54 0 98 -14.5t75.5 -39t48.5 -58t17 -71.5q0 -44 -24.5 -81.5t-59.5 -61.5q40 -21 66 -53.5t26 -80.5q0 -50 -23.5 -91.5t-62.5 -70.5t-90.5 -45t-107.5 -16q-58 0 -108 16t-86.5 44
t-57.5 66.5t-21 83.5q0 28 9 50.5t24 41.5t35.5 33.5t44.5 25.5zM278 296q-13 5 -21.5 1t-17.5 -12q-13 -11 -21.5 -27.5t-8.5 -33.5q0 -45 35 -70.5t91 -25.5q22 0 42 5t35.5 15t24.5 24t9 32q0 20 -18.5 30.5t-49.5 22.5zM401 393q9 -4 14.5 -0.5t13.5 9.5q12 11 22 27
t10 35q0 37 -30.5 56.5t-75.5 19.5q-18 0 -35.5 -3.5t-31.5 -11.5t-22.5 -20t-8.5 -29q0 -22 18.5 -31t41.5 -18z" />
    <glyph glyph-name="nine" unicode="9" 
d="M167 139q30 -5 54.5 -8.5t44.5 -3.5q68 0 111 34.5t51 116.5l-38 -15q-30 -12 -59.5 -21.5t-62.5 -9.5q-41 0 -77 13t-63 38.5t-43 62t-16 83.5q0 51 20.5 95.5t56.5 77.5t84.5 52t105.5 19q59 0 108 -22.5t83.5 -61.5t53.5 -91.5t19 -112.5q0 -83 -22.5 -155t-64.5 -125
t-101.5 -84t-133.5 -31q-53 0 -107.5 15.5t-97.5 42.5l42 100zM419 376q14 5 16 10.5t2 13.5q0 61 -28.5 97t-79.5 36q-43 0 -73 -27t-30 -73q0 -42 25 -59.5t66 -17.5q22 0 49.5 5t52.5 15z" />
    <glyph glyph-name="dollar" unicode="$" 
d="M156 149q46 -8 90 -13t71 -5q55 0 81 18t26 49q0 20 -19 33.5t-64 31.5l-38 15q-54 21 -93 41t-64 45q-23 23 -36 51.5t-13 66.5q0 46 19 80t50 56.5t71.5 35t82.5 16.5l30 123h103l-15 -125q41 -5 82.5 -14.5t77.5 -23.5l-25 -110l-66 5q-42 3 -79 5t-69 2
q-58 0 -84.5 -10t-26.5 -34q0 -17 19.5 -27.5t61.5 -27.5l48 -19q60 -24 100.5 -45t63.5 -45q42 -42 42 -104q0 -51 -16.5 -91.5t-46 -69t-71.5 -45.5t-93 -22l-29 -123h-103l15 127q-51 7 -101.5 21.5t-93.5 36.5l38 107z" />
    <glyph glyph-name="cent" unicode="&#xa2;" 
d="M426 485q15 -5 35 -16.5t39.5 -31t36.5 -48t26 -68.5l-102 -46l-40 40q-26 26 -41 36t-35 10t-37 -10t-30 -27.5t-20 -41t-7 -49.5q0 -48 23.5 -77t72.5 -29q19 0 44 5.5t59 16.5l58 19l42 -83q-20 -19 -45 -34.5t-50.5 -27t-48.5 -18.5t-38 -8l-30 -128h-99l15 131
q-26 6 -54.5 22t-52.5 42.5t-39.5 65.5t-15.5 92q0 58 19 105.5t49.5 82t70.5 55.5t82 26l32 138h99z" />
    <glyph glyph-name="Euro" unicode="&#x20ac;" 
d="M276 231q5 -46 33 -70t77 -24q28 0 60 6.5t64 16.5l69 21l45 -89q-25 -23 -56 -41.5t-64.5 -32t-69 -21t-68.5 -7.5q-58 0 -103.5 19t-78 51.5t-51 76.5t-21.5 94h-76l7 58l68 17q0 9 1.5 22t3.5 21h-66l7 58l72 18q13 56 42 101.5t68 78t85.5 50.5t96.5 18
q40 0 76.5 -11.5t67 -32t54 -49t37.5 -61.5l-94 -73l-52 42q-29 23 -50.5 32t-46.5 9q-19 0 -38.5 -6t-36 -18t-29.5 -31.5t-20 -46.5h169l-9 -78h-171q-2 -8 -3 -20t-2 -20h171l-10 -78h-158z" />
    <glyph glyph-name="florin" unicode="&#x192;" 
d="M356 -42q-12 -100 -61.5 -148.5t-142.5 -48.5q-40 0 -80.5 11.5t-69.5 29.5l37 92l36 -6q14 -2 28 -3.5t27 -1.5q40 0 58 17.5t23 64.5l31 262h-118l10 88l121 26l16 135q12 105 64 151t140 46q40 0 80.5 -11t69.5 -30l-36 -91l-27 4q-16 2 -31.5 3.5t-35.5 1.5
q-40 0 -57 -19.5t-22 -57.5l-15 -129h148l-14 -117h-147z" />
    <glyph glyph-name="sterling" unicode="&#xa3;" 
d="M308 269q2 -5 3 -14t1 -14q0 -32 -19.5 -59.5t-48.5 -48.5h344l-16 -133h-504l9 75q2 16 6 25.5t15 20.5l10 10q30 30 42.5 48.5t12.5 43.5q0 9 -2 22t-5 24h-92l10 75l65 15q-7 20 -9.5 40.5t-2.5 46.5q0 50 20 92t54.5 72t80.5 46.5t98 16.5q43 0 82 -12.5t71 -34.5
t56.5 -52t39.5 -65l-88 -65l-65 44q-32 22 -55.5 31t-49.5 9q-42 0 -67 -22.5t-25 -72.5q0 -29 6 -54h185l-14 -110h-148v0z" />
    <glyph glyph-name="yen" unicode="&#xa5;" 
d="M347 347q14 36 38.5 86.5t67.5 122.5l57 95q5 8 9 10t12 2h169l-232 -356h87l-13 -97h-133l-4 -31h134l-11 -97h-135l-9 -82h-161l9 82h-132l11 97h134l4 31h-134l12 97h84l-151 356h166q8 0 12 -2t7 -10l43 -112q19 -50 35 -103.5t22 -88.5h2z" />
    <glyph glyph-name="numbersign" unicode="#" 
d="M407 0h-122l51 175h-91l-51 -175h-122l51 175h-76l13 110h93l27 92h-109l13 110h126l53 176h122l-53 -176h91l53 176h122l-53 -176h78l-13 -110h-96l-27 -92h112l-13 -110h-128zM393 377h-92l-27 -92h92z" />
    <glyph glyph-name="percent" unicode="%" horiz-adv-x="927" 
d="M229 320q-33 0 -63 12t-52.5 33.5t-35.5 51.5t-13 66q0 43 15.5 78.5t41 60t59 38t69.5 13.5q33 0 63 -12t52.5 -33.5t36 -51.5t13.5 -66q0 -44 -15.5 -79t-41.5 -59.5t-59.5 -38t-69.5 -13.5zM244 558q-31 0 -47.5 -19.5t-16.5 -47.5q0 -26 15.5 -41t39.5 -15
q31 0 47.5 19.5t16.5 47.5q0 26 -15.5 41t-39.5 15zM211 0l392 663h145l-393 -663h-144zM696 -11q-33 0 -63 12t-52.5 33.5t-35.5 51.5t-13 66q0 43 15.5 78.5t41 60t59 38t69.5 13.5q33 0 63 -12t52.5 -33.5t36 -51.5t13.5 -66q0 -44 -15.5 -79t-41.5 -59.5t-59.5 -38
t-69.5 -13.5zM711 227q-31 0 -47.5 -19.5t-16.5 -47.5q0 -26 15.5 -41t39.5 -15q31 0 47.5 19.5t16.5 47.5q0 26 -15.5 41t-39.5 15z" />
    <glyph glyph-name="perthousand" unicode="&#x2030;" horiz-adv-x="1305" 
d="M229 320q-33 0 -63 12t-52.5 33.5t-35.5 51.5t-13 66q0 43 15.5 78.5t41 60t59 38t69.5 13.5q33 0 63 -12t52.5 -33.5t36 -51.5t13.5 -66q0 -44 -15.5 -79t-41.5 -59.5t-59.5 -38t-69.5 -13.5zM244 558q-31 0 -47.5 -19.5t-16.5 -47.5q0 -26 15.5 -41t39.5 -15
q31 0 47.5 19.5t16.5 47.5q0 26 -15.5 41t-39.5 15zM211 0l392 663h145l-393 -663h-144zM696 -11q-33 0 -63 12t-52.5 33.5t-35.5 51.5t-13 66q0 43 15.5 78.5t41 60t59 38t69.5 13.5q33 0 63 -12t52.5 -33.5t36 -51.5t13.5 -66q0 -44 -15.5 -79t-41.5 -59.5t-59.5 -38
t-69.5 -13.5zM711 227q-31 0 -47.5 -19.5t-16.5 -47.5q0 -26 15.5 -41t39.5 -15q31 0 47.5 19.5t16.5 47.5q0 26 -15.5 41t-39.5 15zM1074 -11q-33 0 -63 12t-52.5 33.5t-35.5 51.5t-13 66q0 43 15.5 78.5t41 60t59 38t69.5 13.5q33 0 63 -12t52.5 -33.5t36 -51.5t13.5 -66
q0 -44 -15.5 -79t-41.5 -59.5t-59.5 -38t-69.5 -13.5zM1089 227q-31 0 -47.5 -19.5t-16.5 -47.5q0 -26 15.5 -41t39.5 -15q31 0 47.5 19.5t16.5 47.5q0 26 -15.5 41t-39.5 15z" />
    <glyph glyph-name="plus" unicode="+" horiz-adv-x="550" 
d="M235 462h130l-18 -149h146l-16 -132h-146l-18 -150h-130l18 150h-146l16 132h146z" />
    <glyph glyph-name="minus" unicode="&#x2212;" horiz-adv-x="550" 
d="M493 313l-16 -132h-422l16 132h422z" />
    <glyph glyph-name="multiply" unicode="&#xd7;" horiz-adv-x="550" 
d="M155 47l-85 93l114 106l-88 106l108 94l88 -106l113 106l85 -94l-114 -106l89 -106l-108 -93l-89 106z" />
    <glyph glyph-name="less" unicode="&#x3c;" horiz-adv-x="550" 
d="M503 482l-18 -155l-238 -86v-1l217 -83l-17 -148l-401 180l13 112z" />
    <glyph glyph-name="divide" unicode="&#xf7;" horiz-adv-x="550" 
d="M346 513q17 0 24 -5t5 -25l-14 -114h-144l17 144h112zM493 326l-16 -132h-422l16 132h422zM302 150q17 0 24 -5t5 -25l-14 -114h-144l17 144h112z" />
    <glyph glyph-name="equal" unicode="=" horiz-adv-x="550" 
d="M68 284l16 132h422l-16 -132h-422zM43 78l16 132h422l-16 -132h-422z" />
    <glyph glyph-name="logicalnot" unicode="&#xac;" horiz-adv-x="550" 
d="M61 284l16 132h422l-41 -338h-129l25 206h-293z" />
    <glyph glyph-name="greater" unicode="&#x3e;" horiz-adv-x="550" 
d="M46 9l18 155l238 86v1l-217 83l17 148l401 -180l-13 -112z" />
    <glyph glyph-name="notequal" unicode="&#x2260;" horiz-adv-x="550" 
d="M144 78h-101l16 132h147l35 74h-173l16 132h220l50 105l85 -32l-35 -73h102l-16 -132h-149l-35 -74h175l-16 -132h-222l-47 -99l-84 32z" />
    <glyph glyph-name="approxequal" unicode="&#x2248;" horiz-adv-x="551" 
d="M359 287q-26 0 -47 8t-39 17l-34 17t-32 8q-18 0 -34.5 -10.5t-37.5 -38.5l-77 37q10 31 27 57.5t37.5 45.5t44.5 29.5t50 10.5q28 0 50 -8t40.5 -17t34 -17t29.5 -8q24 0 40 14.5t29 34.5l78 -37q-11 -31 -27.5 -57t-37.5 -45t-45 -30t-49 -11zM333 41q-26 0 -47 8
t-39 17l-34 17t-32 8q-18 0 -34.5 -10.5t-37.5 -38.5l-77 37q10 31 27 57.5t37.5 45.5t44.5 29.5t50 10.5q28 0 50 -8t40.5 -17t34 -17t29.5 -8q24 0 40 14.5t29 34.5l78 -37q-11 -31 -27.5 -57t-37.5 -45t-45 -30t-49 -11z" />
    <glyph glyph-name="plusminus" unicode="&#xb1;" horiz-adv-x="550" 
d="M251 589h130l-17 -139h146l-16 -132h-146l-17 -140h-130l17 140h-146l16 132h146zM472 132l-16 -132h-422l16 132h422z" />
    <glyph glyph-name="lessequal" unicode="&#x2264;" horiz-adv-x="550" 
d="M523 599l-18 -150l-237 -69v-1l221 -61l-17 -144l-405 154l14 112zM467 132l-16 -132h-422l16 132h422z" />
    <glyph glyph-name="greaterequal" unicode="&#x2265;" horiz-adv-x="550" 
d="M54 174l18 150l237 69v1l-221 61l17 144l405 -154l-14 -112zM472 132l-16 -132h-422l16 132h422z" />
    <glyph glyph-name="asciicircum" unicode="^" horiz-adv-x="550" 
d="M515 441l-118 -76l-98 151h-1l-134 -151l-100 76l202 232h103z" />
    <glyph glyph-name="asciitilde" unicode="~" horiz-adv-x="550" 
d="M362 278q-26 0 -47 8t-39 17l-34 17t-32 8q-18 0 -34.5 -10.5t-37.5 -38.5l-77 37q10 31 27 57.5t37.5 45.5t44.5 29.5t50 10.5q28 0 50 -8t40.5 -17t34 -17t29.5 -8q24 0 40 14.5t29 34.5l78 -37q-11 -31 -27.5 -57t-37.5 -45t-45 -30t-49 -11z" />
    <glyph glyph-name="lozenge" unicode="&#x25ca;" horiz-adv-x="641" 
d="M448 332l-97 198l-142 -198l95 -199zM587 376q7 -14 10 -22.5t3 -16.5q0 -17 -23 -49l-205 -288h-148q-11 0 -15.5 2.5t-7.5 9.5l-132 276q-8 15 -10.5 22.5t-2.5 16.5q0 10 5.5 21t17.5 28l205 287h149q10 0 14 -2.5t8 -10.5z" />
    <glyph glyph-name="degree" unicode="&#xb0;" horiz-adv-x="440" 
d="M417 505q0 -41 -15 -76.5t-40.5 -61t-59.5 -40t-73 -14.5q-35 0 -65 13t-52 35.5t-34.5 53.5t-12.5 67q0 41 15 76t40.5 60.5t59.5 40t72 14.5q35 0 65.5 -13t52.5 -35.5t34.5 -53t12.5 -66.5zM301 500q0 26 -15 42.5t-40 16.5q-29 0 -47 -20t-18 -52q0 -27 14.5 -43
t39.5 -16q30 0 48 20t18 52z" />
    <glyph glyph-name="quotesingle" unicode="'" horiz-adv-x="248" 
d="M248 663l-3 -32q-3 -35 -10.5 -77.5t-21.5 -94.5l-29 -113h-101q-2 35 -3 67t-1 62q0 50 2.5 91t7.5 73l3 24h156z" />
    <glyph glyph-name="quotedbl" unicode="&#x22;" horiz-adv-x="454" 
d="M248 663l-3 -32q-3 -35 -10.5 -77.5t-21.5 -94.5l-29 -113h-101q-2 35 -3 67t-1 62q0 50 2.5 91t7.5 73l3 24h156zM454 663l-3 -32q-3 -35 -10.5 -77.5t-21.5 -94.5l-29 -113h-101q-2 35 -3 67t-1 62q0 50 2.5 91t7.5 73l3 24h156z" />
    <glyph glyph-name="radical" unicode="&#x221a;" horiz-adv-x="751" 
d="M101 488h184q11 0 15.5 -2.5t7.5 -13.5l44 -167q11 -42 20 -83.5t12 -65.5q7 18 19.5 47t27 61.5t29.5 64t26 54.5l194 394q5 10 9.5 13t15.5 3h143l-395 -793h-155q-10 0 -14 2t-6 10l-100 351h-92z" />
    <glyph glyph-name="currency" unicode="&#xa4;" 
d="M327 241q38 0 59.5 30t21.5 72q0 32 -16.5 54.5t-50.5 22.5q-38 0 -60 -30t-22 -72q0 -32 17 -54.5t51 -22.5zM322 124q-54 0 -96 24l-90 -83l-84 93l89 83q-6 17 -9.5 35.5t-3.5 38.5q0 60 28 110l-64 77l106 95l64 -76q19 8 40 12.5t43 4.5q27 0 51.5 -6.5t44.5 -17.5
l90 83l84 -95l-89 -82q6 -17 9.5 -35t3.5 -38q0 -60 -28 -111l65 -78l-107 -93l-64 76q-39 -17 -83 -17z" />
    <glyph glyph-name="infinity" unicode="&#x221e;" horiz-adv-x="731" 
d="M429 308q-2 -6 -3 -10.5t1 -9.5q7 -15 23 -28t39 -13q32 0 49.5 22.5t17.5 64.5q0 32 -11.5 51t-33.5 19q-25 0 -44.5 -24t-37.5 -72zM374 199q-28 -35 -65 -56t-85 -21q-36 0 -67 14.5t-53 40.5t-34.5 61.5t-12.5 77.5q0 50 14.5 91t39.5 70.5t58.5 45.5t72.5 16
q42 0 74 -21t56 -59q28 36 65 57t85 21q36 0 66.5 -15t52.5 -41t34.5 -61.5t12.5 -77.5q0 -50 -14.5 -90.5t-39.5 -70t-58.5 -45.5t-72.5 -16q-42 0 -73.5 20.5t-55.5 58.5zM316 350q4 11 4 15.5t-3 9.5q-8 14 -22.5 25.5t-37.5 11.5q-32 0 -49.5 -22.5t-17.5 -64.5
q0 -32 11 -51.5t34 -19.5q26 0 45 24t36 72z" />
    <glyph glyph-name="mu" unicode="&#xb5;" horiz-adv-x="549" 
d="M528 488l-58 -488h-119l-12 45l-30 -18q-32 -20 -61 -26.5t-61 -7.5h-8.5t-9.5 1l-26 -223h-153l84 717h156l-33 -278q-1 -6 -2 -15.5t-1 -15.5q0 -23 15.5 -32.5t44.5 -9.5q40 0 69 13q7 3 8.5 6t2.5 9l38 323h156z" />
    <glyph glyph-name="partialdiff" unicode="&#x2202;" horiz-adv-x="640" 
d="M140 617q50 25 102.5 40.5t100.5 15.5q54 0 101.5 -20t83 -58.5t55.5 -94t20 -126.5q0 -72 -20 -141t-59.5 -123t-97.5 -87t-134 -33q-58 0 -102.5 18.5t-74.5 49.5t-45.5 71t-15.5 84q0 52 18 92.5t49 68.5t71.5 42.5t85.5 14.5q37 0 72 -10t66 -24l24 -11
q0 75 -28.5 108t-95.5 33q-21 0 -47.5 -3t-56.5 -8l-47 -7zM300 136q25 0 47.5 10t39.5 27t27.5 40.5t10.5 49.5q0 8 -3 12t-16 9q-18 8 -46 13t-51 5q-46 0 -71 -21.5t-25 -60.5q0 -36 22.5 -60t64.5 -24z" />
    <glyph glyph-name="summation" unicode="&#x2211;" horiz-adv-x="625" 
d="M83 663h556l-17 -136h-357l214 -280l-6 -51l-273 -288h357l-17 -137h-564l11 87q2 18 6 26t16 20l304 324l-230 304q-8 11 -10.5 18t-0.5 24z" />
    <glyph glyph-name="product" unicode="&#x220f;" horiz-adv-x="782" 
d="M331 527l-88 -756h-159l88 756h-114l17 136h727l-17 -136h-114l-88 -756h-159l88 756h-181z" />
    <glyph glyph-name="pi" unicode="&#x3c0;" horiz-adv-x="627" 
d="M585 101l-10 -78q-20 -10 -51.5 -18t-56.5 -8q-55 0 -84 28.5t-29 77.5q0 13 3 34l27 230h-131l-44 -367h-156l44 367h-77l15 121h596l-15 -121h-76l-29 -245z" />
    <glyph glyph-name="integral" unicode="&#x222b;" 
d="M243 -244q-46 0 -85 12t-66 30l36 95q23 -4 47 -7t43 -3q47 0 69.5 20t22.5 78q0 43 -17 100t-38 119t-38 125.5t-17 119.5t18 98.5t49 71t72.5 43t88.5 14.5q48 0 85 -12.5t65 -30.5l-37 -94q-23 5 -47 8t-43 3q-44 0 -68 -20t-24 -77q0 -47 17.5 -104.5t38 -119
t38 -124.5t17.5 -120q0 -55 -18 -97t-48.5 -70.5t-72 -43t-88.5 -14.5z" />
    <glyph glyph-name="Omega" unicode="&#x3a9;" horiz-adv-x="720" 
d="M375 65q2 13 4 19.5t12 20.5l55 75q25 34 42 62t27.5 53t15 48t4.5 46q0 32 -12 56t-32.5 40t-48 24t-59.5 8q-34 0 -64.5 -9.5t-53.5 -29t-36.5 -50t-13.5 -73.5q0 -37 10.5 -77.5t36.5 -97.5l34 -75q5 -12 6.5 -21t-0.5 -25l-7 -59h-277l16 131h123q-47 57 -74.5 117.5
t-27.5 126.5q0 64 25.5 118.5t71 94.5t108 62.5t135.5 22.5q69 0 125 -20t95.5 -54.5t61 -81t21.5 -100.5q0 -78 -42.5 -150.5t-111.5 -135.5h116l-16 -131h-277z" />
    <glyph glyph-name="Omega" unicode="&#x2126;" horiz-adv-x="720" 
d="M375 65q2 13 4 19.5t12 20.5l55 75q25 34 42 62t27.5 53t15 48t4.5 46q0 32 -12 56t-32.5 40t-48 24t-59.5 8q-34 0 -64.5 -9.5t-53.5 -29t-36.5 -50t-13.5 -73.5q0 -37 10.5 -77.5t36.5 -97.5l34 -75q5 -12 6.5 -21t-0.5 -25l-7 -59h-277l16 131h123q-47 57 -74.5 117.5
t-27.5 126.5q0 64 25.5 118.5t71 94.5t108 62.5t135.5 22.5q69 0 125 -20t95.5 -54.5t61 -81t21.5 -100.5q0 -78 -42.5 -150.5t-111.5 -135.5h116l-16 -131h-277z" />
    <glyph glyph-name="Delta" unicode="&#x2206;" horiz-adv-x="656" 
d="M446 133q-5 12 -9 26q-4 12 -8.5 28.5t-9.5 34.5l-32 133q-11 45 -20.5 88t-13.5 70q-10 -32 -26 -72t-35 -82l-55 -119q-5 -12 -12 -27.5t-14.5 -31t-14.5 -28.5t-12 -20q14 2 37 3t43 1h99q10 0 22.5 -0.5t24.5 -1t21.5 -1t14.5 -1.5zM596 0h-594l9 75q1 11 3 19.5
t6 19t11 25.5t18 38l234 486h159q9 0 12.5 -2.5t6.5 -12.5l133 -481q8 -30 11 -48.5t0 -41.5z" />
    <glyph glyph-name="litre" unicode="&#x2113;" horiz-adv-x="292" 
d="M258 23q-21 -10 -52 -18t-56 -8q-55 0 -84 28.5t-29 77.5q0 6 0.5 14.5t1.5 19.5l67 572h156l-69 -587l74 -21z" />
    <glyph glyph-name="estimated" unicode="&#x212e;" horiz-adv-x="868" 
d="M203 323q-8 0 -8 -6v-187q0 -7 3 -11t9 -10q44 -45 104.5 -71.5t129.5 -26.5q74 0 136.5 30t107.5 80h56q-54 -60 -132 -95.5t-169 -35.5q-79 0 -149 26.5t-122 72.5t-82 108.5t-30 133.5t30 133.5t82 109t122 73t149 26.5q78 0 147 -26.5t120.5 -73t82 -109t30.5 -133.5
v-8h-617zM681 537q0 6 -3.5 11t-9.5 11q-42 44 -101.5 69t-125.5 25q-69 0 -129 -26t-105 -71q-6 -6 -9 -11t-3 -13v-185q0 -5 8 -5h470q8 0 8 5v190z" />
    <glyph glyph-name="numero" unicode="&#x2116;" horiz-adv-x="1112" 
d="M185 0h-154l79 663h117q11 0 16 -2.5t11 -11.5l202 -311q14 -21 27.5 -42.5t23.5 -38.5h2l49 406h153l-79 -663h-116q-11 0 -16 2t-10 10l-200 308q-14 20 -29 44.5t-26 43.5h-2zM1107 505q0 -41 -15 -76.5t-40.5 -61t-59.5 -40t-73 -14.5q-35 0 -65 13t-52 35.5
t-34.5 53.5t-12.5 67q0 41 15 76t40.5 60.5t59.5 40t72 14.5q35 0 65.5 -13t52.5 -35.5t34.5 -53t12.5 -66.5zM991 500q0 26 -15 42.5t-40 16.5q-29 0 -47 -20t-18 -52q0 -27 14.5 -43t39.5 -16q30 0 48 20t18 52z" />
    <glyph glyph-name="zero.otab" 
d="M316 134q23 0 42 10t32 27t20 40t7 49q0 39 -21 66.5t-63 27.5q-23 0 -41.5 -10t-31.5 -27t-20 -40t-7 -49q0 -39 20.5 -66.5t62.5 -27.5zM310 -8q-50 0 -93 17t-75 47.5t-50 73.5t-18 94q0 54 19.5 103.5t55 87t84 59.5t106.5 22q50 0 93 -17t75 -48t50.5 -73.5
t18.5 -94.5q0 -54 -20 -103.5t-55.5 -86.5t-84 -59t-106.5 -22z" />
    <glyph glyph-name="one.otab" 
d="M128 123h148l26 214q-10 -8 -34.5 -17.5t-49.5 -16.5l-59 -16l-36 106l211 82q19 8 28.5 10.5t26.5 2.5h82l-43 -365h120l-15 -123h-420z" />
    <glyph glyph-name="two.otab" 
d="M291 118q10 1 22.5 2t25 1.5t24 1t19.5 0.5h160l-15 -123h-442l11 97q2 14 6.5 20t15.5 13l205 123q35 21 50.5 35.5t15.5 33.5q0 20 -14.5 28t-40.5 8q-21 0 -48.5 -4.5t-70.5 -12.5l-66 -13l-31 100q60 31 121 49.5t117 18.5q45 0 81.5 -11.5t61.5 -31.5t38.5 -47.5
t13.5 -59.5q0 -36 -13 -63.5t-37 -49.5t-58 -41t-75 -38z" />
    <glyph glyph-name="three.otab" 
d="M344 214q14 0 21 3.5t12 12.5q8 14 14 31t6 32q0 30 -19 47.5t-64 17.5q-21 0 -50.5 -4t-63.5 -11l-67 -14l-33 102q63 31 124.5 48t119.5 17q45 0 82.5 -12t64.5 -34t42 -54t15 -72q0 -52 -23.5 -89.5t-59.5 -63.5q36 -18 56.5 -49t20.5 -75q0 -54 -20 -97t-55 -72.5
t-82.5 -45.5t-102.5 -16q-75 0 -141.5 26.5t-111.5 63.5l47 92l57 -15q51 -14 86.5 -21.5t57.5 -7.5q45 0 74 23t29 67q0 28 -15.5 39t-49.5 11h-81q-10 0 -14.5 3t-3.5 12l12 105h116z" />
    <glyph glyph-name="four.otab" 
d="M339 4h-309l12 98q1 9 2.5 15.5t4 12t7 11t11.5 14.5l288 317q9 11 15 13.5t21 2.5h153l-43 -361h87l-15 -123h-86l-19 -159h-148zM353 127l25 207q-16 -25 -52 -65l-78 -83q-17 -19 -32.5 -35t-24.5 -24h162z" />
    <glyph glyph-name="five.otab" 
d="M266 314q-3 -25 -7.5 -50.5t-9.5 -43.5q30 14 61.5 22.5t64.5 8.5q41 0 76 -13.5t61 -38t41 -58t15 -73.5q0 -59 -21 -105.5t-58 -79t-86 -50t-106 -17.5q-35 0 -70 7t-68 19t-63 28.5t-54 35.5l48 94l81 -24q40 -12 69 -17.5t53 -5.5q54 0 85.5 26.5t31.5 76.5
q0 32 -22 54.5t-70 22.5q-24 0 -49.5 -6.5t-57.5 -20.5q-8 -4 -13.5 -3.5t-15.5 6.5l-59 38q-5 4 -7.5 7.5t-0.5 12.5l37 321h420l-14 -125h-286z" />
    <glyph glyph-name="six.otab" 
d="M236 289q-11 -5 -14 -8.5t-3 -14.5q0 -29 7 -53.5t21.5 -43.5t35.5 -29.5t50 -10.5q48 0 76 30.5t28 78.5q0 72 -91 72q-26 0 -55.5 -5.5t-54.5 -15.5zM255 394q38 18 72.5 27.5t67.5 9.5q40 0 75 -12t61 -36t41.5 -59.5t15.5 -81.5q0 -47 -18.5 -92t-52.5 -80
t-82.5 -56.5t-109.5 -21.5q-62 0 -111 23.5t-83 63.5t-51.5 93.5t-17.5 113.5q0 85 26.5 156t73 122t109.5 79t136 28q48 0 95.5 -13.5t89.5 -39.5l-43 -98l-46 8q-32 5 -54.5 8t-42.5 3q-75 0 -120 -42.5t-56 -114.5z" />
    <glyph glyph-name="seven.otab" 
d="M120 -177q7 57 19 100t31.5 83.5t48.5 83t71 99.5q30 41 48.5 66t32 42t25.5 31t29 33h-338l15 127h504l-6 -50q-2 -18 -3.5 -28.5t-4 -18t-7 -15t-12.5 -19.5l-145 -209q-44 -63 -70.5 -106t-42.5 -78t-25 -67.5t-18 -73.5h-152z" />
    <glyph glyph-name="eight.otab" 
d="M164 354q-26 23 -42 55.5t-16 69.5q0 44 20 80.5t54 62.5t79.5 40t97.5 14t95 -14.5t73.5 -39.5t47 -57t16.5 -68q0 -45 -23 -83t-62 -64q44 -24 68.5 -57.5t24.5 -79.5q0 -51 -22.5 -91.5t-60.5 -69.5t-88 -44.5t-106 -15.5q-57 0 -106 15t-85 42.5t-56.5 65.5t-20.5 84
q0 54 32.5 93.5t79.5 61.5zM273 302q-12 5 -20 5t-17 -11q-13 -15 -21.5 -32.5t-8.5 -41.5q0 -41 30.5 -69.5t90.5 -28.5q24 0 44.5 6.5t35.5 17t23 25t8 30.5q0 20 -13.5 32t-48.5 26zM391 394q11 -5 17 -4t15 11q11 11 20 29.5t9 39.5q0 37 -29 58t-75 21q-17 0 -33.5 -4
t-30 -12.5t-22 -21t-8.5 -28.5q0 -22 15.5 -34.5t45.5 -24.5z" />
    <glyph glyph-name="nine.otab" 
d="M411 199q12 5 14.5 9t2.5 14q0 28 -7.5 53t-21.5 44t-35.5 30t-49.5 11q-46 0 -76 -28t-30 -76q0 -37 22.5 -58t69.5 -21q26 0 56 5.5t55 16.5zM379 90q-32 -14 -64 -22.5t-64 -8.5q-40 0 -75 12.5t-61.5 37t-42 60.5t-15.5 82q0 50 19.5 94.5t54.5 78t83.5 53
t106.5 19.5q63 0 112 -23.5t82.5 -63.5t51.5 -93.5t18 -113.5q0 -85 -23 -156t-65 -122t-100.5 -79.5t-129.5 -28.5q-47 0 -98 14t-94 40l39 97l47 -8q30 -5 54 -7.5t44 -2.5q73 0 108.5 40.5t49.5 117.5z" />
    <glyph glyph-name="dollar.otab" 
d="M133 138l75 -11q40 -6 70 -8.5t54 -2.5q57 0 57 32q0 11 -10 17.5t-40 14.5l-48 13q-73 20 -113.5 52t-40.5 91q0 38 16.5 68t45.5 50q41 29 104 38l30 127h102l-15 -128q30 -5 59.5 -13.5t57.5 -19.5l-26 -96l-63 6q-27 2 -51.5 3.5t-47.5 1.5q-42 0 -56.5 -6.5
t-14.5 -17.5q0 -9 10 -14.5t34 -12.5l40 -11q37 -10 68.5 -21.5t54 -27.5t35 -38.5t12.5 -55.5q0 -75 -45 -118.5t-123 -53.5l-29 -127h-102l16 130q-38 6 -75.5 17.5t-69.5 25.5z" />
    <glyph glyph-name="cent.otab" 
d="M419 427q43 -18 75.5 -55.5t43.5 -88.5l-97 -45l-26 29q-24 27 -41 36t-34 9q-34 0 -55.5 -29.5t-21.5 -75.5q0 -40 19 -63t61 -23q16 0 37.5 5t50.5 14l50 16l43 -81q-30 -29 -72.5 -49t-84.5 -28l-29 -129h-101l15 132q-63 19 -100.5 69.5t-37.5 126.5q0 46 14.5 86.5
t40 72t60 52.5t75.5 29l29 113h101z" />
    <glyph glyph-name="Euro.otab" 
d="M271 254q-1 -5 -1 -10.5v-13.5h119l-7 -56h-99q6 -23 30.5 -37t55.5 -14q20 0 44.5 5t58.5 16l59 19l42 -79q-22 -21 -50 -38t-58.5 -29t-61.5 -18.5t-59 -6.5q-44 0 -82 12.5t-67.5 36t-49.5 57.5t-27 76h-68l5 43l60 9v14.5t1 13.5h-56l5 43l61 10q12 42 35.5 76.5
t56 59.5t72 39t83.5 14q39 0 74 -12t63 -34.5t48.5 -54.5t29.5 -72l-101 -47l-39 43q-26 28 -43 36.5t-36 8.5q-28 0 -49 -14t-34 -40h113l-7 -56h-121v0z" />
    <glyph glyph-name="florin.otab" 
d="M363 -61q-10 -82 -51.5 -129.5t-123.5 -47.5q-33 0 -69.5 9.5t-68.5 24.5l25 91q22 -4 40.5 -6t35.5 -2q40 0 54 16.5t18 52.5l19 162h-93l8 67l96 18l14 123q9 83 51 130t124 47q33 0 69.5 -10t67.5 -24l-25 -90q-21 4 -40 6t-36 2q-40 0 -53.5 -16.5t-18.5 -53.5
l-12 -112h112l-10 -87h-113z" />
    <glyph glyph-name="sterling.otab" 
d="M541 0h-444l9 74q1 13 13 23l23 22q15 14 22.5 25.5t7.5 28.5q0 5 -0.5 12.5t-2.5 14.5h-83l6 53l62 17q-2 14 -3 20t-1 19q0 43 16 77.5t44 59t66.5 37.5t83.5 13q72 0 131 -32.5t92 -84.5l-68 -76l-58 29q-34 17 -56.5 24.5t-45.5 7.5q-29 0 -47 -15.5t-18 -50.5
q0 -13 3 -23h139l-9 -75h-117q0 -45 -37 -79h286z" />
    <glyph glyph-name="yen.otab" 
d="M625 488l-188 -260h99l-7 -63h-125l-3 -22h125l-8 -65h-124l-9 -78h-150l9 78h-123l8 65h124l3 22h-124l7 63h95l-134 260h143q9 0 13 -2.5t7 -9.5l80 -181h1l114 180q5 8 10 10.5t15 2.5h142z" />
    <glyph glyph-name="numbersign.otab" 
d="M117 374h98l33 114h108l-33 -114h79l33 114h107l-33 -114h58l-12 -90h-71l-22 -80h84l-12 -90h-99l-32 -114h-107l32 114h-79l-32 -114h-107l32 114h-58l12 90h73l22 80h-86zM276 204h79l22 80h-79z" />
    <glyph glyph-name="percent.otab" horiz-adv-x="816" 
d="M200 0l289 488h127l-289 -488h-127zM337 357q0 -34 -12.5 -63.5t-33.5 -51.5t-49.5 -34.5t-59.5 -12.5q-29 0 -54 10t-43.5 28.5t-29.5 44t-11 56.5q0 34 12.5 64t33.5 51.5t49.5 34t60.5 12.5q28 0 53 -10t44 -28.5t29.5 -44t10.5 -56.5zM238 351q0 22 -12 33.5
t-31 11.5q-25 0 -38 -16.5t-13 -39.5q0 -22 11.5 -33.5t30.5 -11.5q25 0 38.5 16.5t13.5 39.5zM771 154q0 -34 -12.5 -63.5t-33.5 -51.5t-49.5 -34.5t-59.5 -12.5q-29 0 -54 10t-43.5 28.5t-29.5 44t-11 56.5q0 34 12.5 64t33.5 51.5t49.5 34t60.5 12.5q28 0 53 -10
t44 -28.5t29.5 -44t10.5 -56.5zM672 148q0 22 -12 33.5t-31 11.5q-25 0 -38 -16.5t-13 -39.5q0 -22 11.5 -33.5t30.5 -11.5q25 0 38.5 16.5t13.5 39.5z" />
    <glyph glyph-name="perthousand.otab" horiz-adv-x="1138" 
d="M200 0l289 488h127l-289 -488h-127zM337 357q0 -34 -12.5 -63.5t-33.5 -51.5t-49.5 -34.5t-59.5 -12.5q-29 0 -54 10t-43.5 28.5t-29.5 44t-11 56.5q0 34 12.5 64t33.5 51.5t49.5 34t60.5 12.5q28 0 53 -10t44 -28.5t29.5 -44t10.5 -56.5zM238 351q0 22 -12 33.5
t-31 11.5q-25 0 -38 -16.5t-13 -39.5q0 -22 11.5 -33.5t30.5 -11.5q25 0 38.5 16.5t13.5 39.5zM771 154q0 -34 -12.5 -63.5t-33.5 -51.5t-49.5 -34.5t-59.5 -12.5q-29 0 -54 10t-43.5 28.5t-29.5 44t-11 56.5q0 34 12.5 64t33.5 51.5t49.5 34t60.5 12.5q28 0 53 -10
t44 -28.5t29.5 -44t10.5 -56.5zM672 148q0 22 -12 33.5t-31 11.5q-25 0 -38 -16.5t-13 -39.5q0 -22 11.5 -33.5t30.5 -11.5q25 0 38.5 16.5t13.5 39.5zM1094 154q0 -34 -12.5 -63.5t-33.5 -51.5t-49.5 -34.5t-59.5 -12.5q-29 0 -54 10t-43.5 28.5t-29.5 44t-11 56.5
q0 34 12.5 64t33.5 51.5t49.5 34t60.5 12.5q28 0 53 -10t44 -28.5t29.5 -44t10.5 -56.5zM995 148q0 22 -12 33.5t-31 11.5q-25 0 -38 -16.5t-13 -39.5q0 -22 11.5 -33.5t30.5 -11.5q25 0 38.5 16.5t13.5 39.5z" />
    <glyph glyph-name="zero.lprop" horiz-adv-x="657" 
d="M631 377q0 -76 -24 -146t-67 -123.5t-103 -85.5t-132 -32q-57 0 -105 23t-82 62.5t-53 93.5t-19 116q0 76 24 146.5t67 124t102.5 85.5t131.5 32q57 0 105 -23t82.5 -63t53.5 -94t19 -116zM463 367q0 77 -28.5 115t-76.5 38q-33 0 -60 -18t-45.5 -49t-29 -71.5
t-10.5 -85.5q0 -76 28.5 -114.5t76.5 -38.5q33 0 60 17.5t45.5 48t29 71.5t10.5 87z" />
    <glyph glyph-name="one.lprop" horiz-adv-x="534" 
d="M55 134h160l43 358q-8 -5 -22 -12.5t-49 -18.5l-83 -25l-42 113l237 102q16 7 26.5 9.5t27.5 2.5h85l-63 -529h126l-16 -134h-446z" />
    <glyph glyph-name="two.lprop" horiz-adv-x="571" 
d="M515 135l-17 -135h-487l12 84q2 17 6.5 24.5t19.5 21.5l230 200q27 24 45 42t29.5 33.5t16 29t4.5 27.5q0 36 -23 50.5t-56 14.5q-22 0 -49.5 -4.5t-68.5 -15.5l-78 -22l-38 99q63 40 129.5 64.5t130.5 24.5q49 0 89.5 -14.5t69 -40.5t44.5 -61.5t16 -77.5
q0 -38 -12 -72.5t-37 -67.5t-63.5 -66t-90.5 -69l-99 -69h277z" />
    <glyph glyph-name="three.lprop" horiz-adv-x="592" 
d="M314 529q-26 0 -59.5 -6.5t-72.5 -15.5l-70 -16l-36 97q136 85 267 85q44 0 82 -12t66 -34.5t44 -54.5t16 -71q0 -45 -21 -83.5t-53 -70.5q71 -45 71 -127q0 -48 -19.5 -90t-55.5 -73t-86 -49t-111 -18q-75 0 -146 29t-124 74l51 93l83 -25q45 -14 77 -21t59 -7
q48 0 72.5 20t24.5 70q0 27 -15.5 35.5t-44.5 8.5h-79q-15 0 -17.5 7t-0.5 24l12 97h125q14 0 19.5 3t10.5 11q5 9 9.5 24t4.5 28q0 68 -83 68z" />
    <glyph glyph-name="four.lprop" horiz-adv-x="646" 
d="M605 267l-16 -129h-79l-17 -138h-159l16 138h-324l13 113q1 10 2.5 17t4.5 13t8.5 12.5t13.5 16.5l294 332q11 13 19.5 17t27.5 4h163l-47 -396h80zM393 497q-8 -11 -24 -31t-32 -37l-90 -101q-14 -17 -31 -33.5t-29 -27.5h179z" />
    <glyph glyph-name="five.lprop" horiz-adv-x="591" 
d="M247 459q-2 -20 -4.5 -34.5t-5.5 -25.5q27 12 57.5 19.5t60.5 7.5q42 0 77.5 -13t62 -37t41.5 -59t15 -79q0 -50 -19 -94.5t-54.5 -79t-85.5 -54.5t-113 -20q-74 0 -140 25t-124 70l50 96l81 -24q38 -11 68 -17.5t56 -6.5q50 0 82 28t32 71q0 38 -24.5 55t-63.5 17
q-24 0 -53.5 -8t-57.5 -19q-11 -5 -17 -4t-16 7l-56 34q-8 5 -10.5 9t-0.5 14l39 326h429l-17 -137h-281z" />
    <glyph glyph-name="six.lprop" horiz-adv-x="620" 
d="M491 524q-29 6 -52 8.5t-46 2.5q-66 0 -110.5 -36.5t-57.5 -114.5l30 13q37 16 69 25t62 9q40 0 76 -12.5t63.5 -36.5t43.5 -59.5t16 -81.5q0 -47 -19 -92.5t-53.5 -80.5t-84 -56.5t-110.5 -21.5q-62 0 -111.5 23.5t-84 63.5t-52.5 94t-18 114q0 88 28 159.5t75 122.5
t109.5 78.5t131.5 27.5q51 0 100 -16t91 -42l-45 -101zM233 287q-13 -5 -15.5 -10t-2.5 -14q0 -58 29 -95.5t81 -37.5q45 0 74 28t29 79q0 39 -25 54.5t-66 15.5q-22 0 -50 -5t-54 -15z" />
    <glyph glyph-name="seven.lprop" horiz-adv-x="561" 
d="M103 0q6 46 14.5 83t23 72.5t36 71.5t53.5 81q38 54 62.5 86.5t42 55t32 39t34.5 38.5h-356l17 136h532l-8 -72q-2 -16 -3.5 -24.5t-4 -15.5t-7 -13.5t-12.5 -18.5l-137 -191q-43 -60 -69 -102.5t-42 -77.5t-25.5 -69t-18.5 -79h-164z" />
    <glyph glyph-name="eight.lprop" horiz-adv-x="636" 
d="M153 351q-26 20 -43.5 52.5t-17.5 72.5q0 41 19.5 77t54 62.5t81.5 42t103 15.5q54 0 98 -14.5t75.5 -39t48.5 -58t17 -71.5q0 -44 -24.5 -81.5t-59.5 -61.5q40 -21 66 -53.5t26 -80.5q0 -50 -23.5 -91.5t-62.5 -70.5t-90.5 -45t-107.5 -16q-58 0 -108 16t-86.5 44
t-57.5 66.5t-21 83.5q0 28 9 50.5t24 41.5t35.5 33.5t44.5 25.5zM265 296q-13 5 -21.5 1t-17.5 -12q-13 -11 -21.5 -27.5t-8.5 -33.5q0 -45 35 -70.5t91 -25.5q22 0 42 5t35.5 15t24.5 24t9 32q0 20 -18.5 30.5t-49.5 22.5zM388 393q9 -4 14.5 -0.5t13.5 9.5q12 11 22 27
t10 35q0 37 -30.5 56.5t-75.5 19.5q-18 0 -35.5 -3.5t-31.5 -11.5t-22.5 -20t-8.5 -29q0 -22 18.5 -31t41.5 -18z" />
    <glyph glyph-name="nine.lprop" horiz-adv-x="620" 
d="M150 139q30 -5 54.5 -8.5t44.5 -3.5q68 0 111 34.5t51 116.5l-38 -15q-30 -12 -59.5 -21.5t-62.5 -9.5q-41 0 -77 13t-63 38.5t-43 62t-16 83.5q0 51 20.5 95.5t56.5 77.5t84.5 52t105.5 19q59 0 108 -22.5t83.5 -61.5t53.5 -91.5t19 -112.5q0 -83 -22.5 -155t-64.5 -125
t-101.5 -84t-133.5 -31q-53 0 -107.5 15.5t-97.5 42.5l42 100zM402 376q14 5 16 10.5t2 13.5q0 61 -28.5 97t-79.5 36q-43 0 -73 -27t-30 -73q0 -42 25 -59.5t66 -17.5q22 0 49.5 5t52.5 15z" />
    <glyph glyph-name="dollar.lprop" horiz-adv-x="596" 
d="M128 149q46 -8 90 -13t71 -5q55 0 81 18t26 49q0 20 -19 33.5t-64 31.5l-38 15q-54 21 -93 41t-64 45q-23 23 -36 51.5t-13 66.5q0 46 19 80t50 56.5t71.5 35t82.5 16.5l30 123h103l-15 -125q41 -5 82.5 -14.5t77.5 -23.5l-25 -110l-66 5q-42 3 -79 5t-69 2
q-58 0 -84.5 -10t-26.5 -34q0 -17 19.5 -27.5t61.5 -27.5l48 -19q60 -24 100.5 -45t63.5 -45q42 -42 42 -104q0 -51 -16.5 -91.5t-46 -69t-71.5 -45.5t-93 -22l-29 -123h-103l15 127q-51 7 -101.5 21.5t-93.5 36.5l38 107z" />
    <glyph glyph-name="cent.lprop" horiz-adv-x="554" 
d="M380 485q15 -5 35 -16.5t39.5 -31t36.5 -48t26 -68.5l-102 -46l-40 40q-26 26 -41 36t-35 10t-37 -10t-30 -27.5t-20 -41t-7 -49.5q0 -48 23.5 -77t72.5 -29q19 0 44 5.5t59 16.5l58 19l42 -83q-20 -19 -45 -34.5t-50.5 -27t-48.5 -18.5t-38 -8l-30 -128h-99l15 131
q-26 6 -54.5 22t-52.5 42.5t-39.5 65.5t-15.5 92q0 58 19 105.5t49.5 82t70.5 55.5t82 26l32 138h99z" />
    <glyph glyph-name="Euro.lprop" horiz-adv-x="681" 
d="M287 231q5 -46 33 -70t77 -24q28 0 60 6.5t64 16.5l69 21l45 -89q-25 -23 -56 -41.5t-64.5 -32t-69 -21t-68.5 -7.5q-58 0 -103.5 19t-78 51.5t-51 76.5t-21.5 94h-76l7 58l68 17q0 9 1.5 22t3.5 21h-66l7 58l72 18q13 56 42 101.5t68 78t85.5 50.5t96.5 18
q40 0 76.5 -11.5t67 -32t54 -49t37.5 -61.5l-94 -73l-52 42q-29 23 -50.5 32t-46.5 9q-19 0 -38.5 -6t-36 -18t-29.5 -31.5t-20 -46.5h169l-9 -78h-171q-2 -8 -3 -20t-2 -20h171l-10 -78h-158z" />
    <glyph glyph-name="florin.lprop" horiz-adv-x="621" 
d="M339 -42q-12 -100 -61.5 -148.5t-142.5 -48.5q-40 0 -80.5 11.5t-69.5 29.5l37 92l36 -6q14 -2 28 -3.5t27 -1.5q40 0 58 17.5t23 64.5l31 262h-118l10 88l121 26l16 135q12 105 64 151t140 46q40 0 80.5 -11t69.5 -30l-36 -91l-27 4q-16 2 -31.5 3.5t-35.5 1.5
q-40 0 -57 -19.5t-22 -57.5l-15 -129h148l-14 -117h-147z" />
    <glyph glyph-name="sterling.lprop" horiz-adv-x="630" 
d="M303 269q2 -5 3 -14t1 -14q0 -32 -19.5 -59.5t-48.5 -48.5h344l-16 -133h-504l9 75q2 16 6 25.5t15 20.5l10 10q30 30 42.5 48.5t12.5 43.5q0 9 -2 22t-5 24h-92l10 75l65 15q-7 20 -9.5 40.5t-2.5 46.5q0 50 20 92t54.5 72t80.5 46.5t98 16.5q43 0 82 -12.5t71 -34.5
t56.5 -52t39.5 -65l-88 -65l-65 44q-32 22 -55.5 31t-49.5 9q-42 0 -67 -22.5t-25 -72.5q0 -29 6 -54h185l-14 -110h-148v0z" />
    <glyph glyph-name="yen.lprop" horiz-adv-x="653" 
d="M349 347q14 36 38.5 86.5t67.5 122.5l57 95q5 8 9 10t12 2h169l-232 -356h87l-13 -97h-133l-4 -31h134l-11 -97h-135l-9 -82h-161l9 82h-132l11 97h134l4 31h-134l12 97h84l-151 356h166q8 0 12 -2t7 -10l43 -112q19 -50 35 -103.5t22 -88.5h2z" />
    <glyph glyph-name="numbersign.lprop" 
d="M407 0h-122l51 175h-91l-51 -175h-122l51 175h-76l13 110h93l27 92h-109l13 110h126l53 176h122l-53 -176h91l53 176h122l-53 -176h78l-13 -110h-96l-27 -92h112l-13 -110h-128zM393 377h-92l-27 -92h92z" />
    <glyph glyph-name="percent.lprop" horiz-adv-x="927" 
d="M229 320q-33 0 -63 12t-52.5 33.5t-35.5 51.5t-13 66q0 43 15.5 78.5t41 60t59 38t69.5 13.5q33 0 63 -12t52.5 -33.5t36 -51.5t13.5 -66q0 -44 -15.5 -79t-41.5 -59.5t-59.5 -38t-69.5 -13.5zM244 558q-31 0 -47.5 -19.5t-16.5 -47.5q0 -26 15.5 -41t39.5 -15
q31 0 47.5 19.5t16.5 47.5q0 26 -15.5 41t-39.5 15zM211 0l392 663h145l-393 -663h-144zM696 -11q-33 0 -63 12t-52.5 33.5t-35.5 51.5t-13 66q0 43 15.5 78.5t41 60t59 38t69.5 13.5q33 0 63 -12t52.5 -33.5t36 -51.5t13.5 -66q0 -44 -15.5 -79t-41.5 -59.5t-59.5 -38
t-69.5 -13.5zM711 227q-31 0 -47.5 -19.5t-16.5 -47.5q0 -26 15.5 -41t39.5 -15q31 0 47.5 19.5t16.5 47.5q0 26 -15.5 41t-39.5 15z" />
    <glyph glyph-name="perthousand.lprop" horiz-adv-x="1305" 
d="M229 320q-33 0 -63 12t-52.5 33.5t-35.5 51.5t-13 66q0 43 15.5 78.5t41 60t59 38t69.5 13.5q33 0 63 -12t52.5 -33.5t36 -51.5t13.5 -66q0 -44 -15.5 -79t-41.5 -59.5t-59.5 -38t-69.5 -13.5zM244 558q-31 0 -47.5 -19.5t-16.5 -47.5q0 -26 15.5 -41t39.5 -15
q31 0 47.5 19.5t16.5 47.5q0 26 -15.5 41t-39.5 15zM211 0l392 663h145l-393 -663h-144zM696 -11q-33 0 -63 12t-52.5 33.5t-35.5 51.5t-13 66q0 43 15.5 78.5t41 60t59 38t69.5 13.5q33 0 63 -12t52.5 -33.5t36 -51.5t13.5 -66q0 -44 -15.5 -79t-41.5 -59.5t-59.5 -38
t-69.5 -13.5zM711 227q-31 0 -47.5 -19.5t-16.5 -47.5q0 -26 15.5 -41t39.5 -15q31 0 47.5 19.5t16.5 47.5q0 26 -15.5 41t-39.5 15zM1074 -11q-33 0 -63 12t-52.5 33.5t-35.5 51.5t-13 66q0 43 15.5 78.5t41 60t59 38t69.5 13.5q33 0 63 -12t52.5 -33.5t36 -51.5t13.5 -66
q0 -44 -15.5 -79t-41.5 -59.5t-59.5 -38t-69.5 -13.5zM1089 227q-31 0 -47.5 -19.5t-16.5 -47.5q0 -26 15.5 -41t39.5 -15q31 0 47.5 19.5t16.5 47.5q0 26 -15.5 41t-39.5 15z" />
    <glyph glyph-name="zero.oprop" horiz-adv-x="562" 
d="M272 134q23 0 42 10t32 27t20 40t7 49q0 39 -21 66.5t-63 27.5q-23 0 -41.5 -10t-31.5 -27t-20 -40t-7 -49q0 -39 20.5 -66.5t62.5 -27.5zM266 -8q-50 0 -93 17t-75 47.5t-50 73.5t-18 94q0 54 19.5 103.5t55 87t84 59.5t106.5 22q50 0 93 -17t75 -48t50.5 -73.5
t18.5 -94.5q0 -54 -20 -103.5t-55.5 -86.5t-84 -59t-106.5 -22z" />
    <glyph glyph-name="one.oprop" horiz-adv-x="511" 
d="M56 123h148l26 214q-10 -8 -34.5 -17.5t-49.5 -16.5l-59 -16l-36 106l211 82q19 8 28.5 10.5t26.5 2.5h82l-43 -365h120l-15 -123h-420z" />
    <glyph glyph-name="two.oprop" horiz-adv-x="535" 
d="M228 118q10 1 22.5 2t25 1.5t24 1t19.5 0.5h160l-15 -123h-442l11 97q2 14 6.5 20t15.5 13l205 123q35 21 50.5 35.5t15.5 33.5q0 20 -14.5 28t-40.5 8q-21 0 -48.5 -4.5t-70.5 -12.5l-66 -13l-31 100q60 31 121 49.5t117 18.5q45 0 81.5 -11.5t61.5 -31.5t38.5 -47.5
t13.5 -59.5q0 -36 -13 -63.5t-37 -49.5t-58 -41t-75 -38z" />
    <glyph glyph-name="three.oprop" horiz-adv-x="541" 
d="M287 214q14 0 21 3.5t12 12.5q8 14 14 31t6 32q0 30 -19 47.5t-64 17.5q-21 0 -50.5 -4t-63.5 -11l-67 -14l-33 102q63 31 124.5 48t119.5 17q45 0 82.5 -12t64.5 -34t42 -54t15 -72q0 -52 -23.5 -89.5t-59.5 -63.5q36 -18 56.5 -49t20.5 -75q0 -54 -20 -97t-55 -72.5
t-82.5 -45.5t-102.5 -16q-75 0 -141.5 26.5t-111.5 63.5l47 92l57 -15q51 -14 86.5 -21.5t57.5 -7.5q45 0 74 23t29 67q0 28 -15.5 39t-49.5 11h-81q-10 0 -14.5 3t-3.5 12l12 105h116z" />
    <glyph glyph-name="four.oprop" horiz-adv-x="607" 
d="M320 4h-309l12 98q1 9 2.5 15.5t4 12t7 11t11.5 14.5l288 317q9 11 15 13.5t21 2.5h153l-43 -361h87l-15 -123h-86l-19 -159h-148zM334 127l25 207q-16 -25 -52 -65l-78 -83q-17 -19 -32.5 -35t-24.5 -24h162z" />
    <glyph glyph-name="five.oprop" horiz-adv-x="554" 
d="M211 314q-3 -25 -7.5 -50.5t-9.5 -43.5q30 14 61.5 22.5t64.5 8.5q41 0 76 -13.5t61 -38t41 -58t15 -73.5q0 -59 -21 -105.5t-58 -79t-86 -50t-106 -17.5q-35 0 -70 7t-68 19t-63 28.5t-54 35.5l48 94l81 -24q40 -12 69 -17.5t53 -5.5q54 0 85.5 26.5t31.5 76.5
q0 32 -22 54.5t-70 22.5q-24 0 -49.5 -6.5t-57.5 -20.5q-8 -4 -13.5 -3.5t-15.5 6.5l-59 38q-5 4 -7.5 7.5t-0.5 12.5l37 321h420l-14 -125h-286z" />
    <glyph glyph-name="six.oprop" horiz-adv-x="617" 
d="M221 289q-11 -5 -14 -8.5t-3 -14.5q0 -29 7 -53.5t21.5 -43.5t35.5 -29.5t50 -10.5q48 0 76 30.5t28 78.5q0 72 -91 72q-26 0 -55.5 -5.5t-54.5 -15.5zM240 394q38 18 72.5 27.5t67.5 9.5q40 0 75 -12t61 -36t41.5 -59.5t15.5 -81.5q0 -47 -18.5 -92t-52.5 -80
t-82.5 -56.5t-109.5 -21.5q-62 0 -111 23.5t-83 63.5t-51.5 93.5t-17.5 113.5q0 85 26.5 156t73 122t109.5 79t136 28q48 0 95.5 -13.5t89.5 -39.5l-43 -98l-46 8q-32 5 -54.5 8t-42.5 3q-75 0 -120 -42.5t-56 -114.5z" />
    <glyph glyph-name="seven.oprop" horiz-adv-x="527" 
d="M55 -177q7 57 19 100t31.5 83.5t48.5 83t71 99.5q30 41 48.5 66t32 42t25.5 31t29 33h-338l15 127h504l-6 -50q-2 -18 -3.5 -28.5t-4 -18t-7 -15t-12.5 -19.5l-145 -209q-44 -63 -70.5 -106t-42.5 -78t-25 -67.5t-18 -73.5h-152z" />
    <glyph glyph-name="eight.oprop" horiz-adv-x="621" 
d="M148 354q-26 23 -42 55.5t-16 69.5q0 44 20 80.5t54 62.5t79.5 40t97.5 14t95 -14.5t73.5 -39.5t47 -57t16.5 -68q0 -45 -23 -83t-62 -64q44 -24 68.5 -57.5t24.5 -79.5q0 -51 -22.5 -91.5t-60.5 -69.5t-88 -44.5t-106 -15.5q-57 0 -106 15t-85 42.5t-56.5 65.5t-20.5 84
q0 54 32.5 93.5t79.5 61.5zM257 302q-12 5 -20 5t-17 -11q-13 -15 -21.5 -32.5t-8.5 -41.5q0 -41 30.5 -69.5t90.5 -28.5q24 0 44.5 6.5t35.5 17t23 25t8 30.5q0 20 -13.5 32t-48.5 26zM375 394q11 -5 17 -4t15 11q11 11 20 29.5t9 39.5q0 37 -29 58t-75 21q-17 0 -33.5 -4
t-30 -12.5t-22 -21t-8.5 -28.5q0 -22 15.5 -34.5t45.5 -24.5z" />
    <glyph glyph-name="nine.oprop" horiz-adv-x="617" 
d="M393 199q12 5 14.5 9t2.5 14q0 28 -7.5 53t-21.5 44t-35.5 30t-49.5 11q-46 0 -76 -28t-30 -76q0 -37 22.5 -58t69.5 -21q26 0 56 5.5t55 16.5zM361 90q-32 -14 -64 -22.5t-64 -8.5q-40 0 -75 12.5t-61.5 37t-42 60.5t-15.5 82q0 50 19.5 94.5t54.5 78t83.5 53
t106.5 19.5q63 0 112 -23.5t82.5 -63.5t51.5 -93.5t18 -113.5q0 -85 -23 -156t-65 -122t-100.5 -79.5t-129.5 -28.5q-47 0 -98 14t-94 40l39 97l47 -8q30 -5 54 -7.5t44 -2.5q73 0 108.5 40.5t49.5 117.5z" />
    <glyph glyph-name="dollar.oprop" horiz-adv-x="520" 
d="M67 138l75 -11q40 -6 70 -8.5t54 -2.5q57 0 57 32q0 11 -10 17.5t-40 14.5l-48 13q-73 20 -113.5 52t-40.5 91q0 38 16.5 68t45.5 50q41 29 104 38l30 127h102l-15 -128q30 -5 59.5 -13.5t57.5 -19.5l-26 -96l-63 6q-27 2 -51.5 3.5t-47.5 1.5q-42 0 -56.5 -6.5
t-14.5 -17.5q0 -9 10 -14.5t34 -12.5l40 -11q37 -10 68.5 -21.5t54 -27.5t35 -38.5t12.5 -55.5q0 -75 -45 -118.5t-123 -53.5l-29 -127h-102l16 130q-38 6 -75.5 17.5t-69.5 25.5z" />
    <glyph glyph-name="cent.oprop" horiz-adv-x="520" 
d="M358 427q43 -18 75.5 -55.5t43.5 -88.5l-97 -45l-26 29q-24 27 -41 36t-34 9q-34 0 -55.5 -29.5t-21.5 -75.5q0 -40 19 -63t61 -23q16 0 37.5 5t50.5 14l50 16l43 -81q-30 -29 -72.5 -49t-84.5 -28l-29 -129h-101l15 132q-63 19 -100.5 69.5t-37.5 126.5q0 46 14.5 86.5
t40 72t60 52.5t75.5 29l29 113h101z" />
    <glyph glyph-name="Euro.oprop" horiz-adv-x="607" 
d="M258 254q-1 -5 -1 -10.5v-13.5h119l-7 -56h-99q6 -23 30.5 -37t55.5 -14q20 0 44.5 5t58.5 16l59 19l42 -79q-22 -21 -50 -38t-58.5 -29t-61.5 -18.5t-59 -6.5q-44 0 -82 12.5t-67.5 36t-49.5 57.5t-27 76h-68l5 43l60 9v14.5t1 13.5h-56l5 43l61 10q12 42 35.5 76.5
t56 59.5t72 39t83.5 14q39 0 74 -12t63 -34.5t48.5 -54.5t29.5 -72l-101 -47l-39 43q-26 28 -43 36.5t-36 8.5q-28 0 -49 -14t-34 -40h113l-7 -56h-121v0z" />
    <glyph glyph-name="florin.oprop" horiz-adv-x="492" 
d="M268 -61q-10 -82 -51.5 -129.5t-123.5 -47.5q-33 0 -69.5 9.5t-68.5 24.5l25 91q22 -4 40.5 -6t35.5 -2q40 0 54 16.5t18 52.5l19 162h-93l8 67l96 18l14 123q9 83 51 130t124 47q33 0 69.5 -10t67.5 -24l-25 -90q-21 4 -40 6t-36 2q-40 0 -53.5 -16.5t-18.5 -53.5
l-12 -112h112l-10 -87h-113z" />
    <glyph glyph-name="sterling.oprop" horiz-adv-x="577" 
d="M504 0h-444l9 74q1 13 13 23l23 22q15 14 22.5 25.5t7.5 28.5q0 5 -0.5 12.5t-2.5 14.5h-83l6 53l62 17q-2 14 -3 20t-1 19q0 43 16 77.5t44 59t66.5 37.5t83.5 13q72 0 131 -32.5t92 -84.5l-68 -76l-58 29q-34 17 -56.5 24.5t-45.5 7.5q-29 0 -47 -15.5t-18 -50.5
q0 -13 3 -23h139l-9 -75h-117q0 -45 -37 -79h286z" />
    <glyph glyph-name="yen.oprop" horiz-adv-x="587" 
d="M588 488l-188 -260h99l-7 -63h-125l-3 -22h125l-8 -65h-124l-9 -78h-150l9 78h-123l8 65h124l3 22h-124l7 63h95l-134 260h143q9 0 13 -2.5t7 -9.5l80 -181h1l114 180q5 8 10 10.5t15 2.5h142z" />
    <glyph glyph-name="numbersign.oprop" 
d="M117 374h98l33 114h108l-33 -114h79l33 114h107l-33 -114h58l-12 -90h-71l-22 -80h84l-12 -90h-99l-32 -114h-107l32 114h-79l-32 -114h-107l32 114h-58l12 90h73l22 80h-86zM276 204h79l22 80h-79z" />
    <glyph glyph-name="percent.oprop" horiz-adv-x="816" 
d="M200 0l289 488h127l-289 -488h-127zM337 357q0 -34 -12.5 -63.5t-33.5 -51.5t-49.5 -34.5t-59.5 -12.5q-29 0 -54 10t-43.5 28.5t-29.5 44t-11 56.5q0 34 12.5 64t33.5 51.5t49.5 34t60.5 12.5q28 0 53 -10t44 -28.5t29.5 -44t10.5 -56.5zM238 351q0 22 -12 33.5
t-31 11.5q-25 0 -38 -16.5t-13 -39.5q0 -22 11.5 -33.5t30.5 -11.5q25 0 38.5 16.5t13.5 39.5zM771 154q0 -34 -12.5 -63.5t-33.5 -51.5t-49.5 -34.5t-59.5 -12.5q-29 0 -54 10t-43.5 28.5t-29.5 44t-11 56.5q0 34 12.5 64t33.5 51.5t49.5 34t60.5 12.5q28 0 53 -10
t44 -28.5t29.5 -44t10.5 -56.5zM672 148q0 22 -12 33.5t-31 11.5q-25 0 -38 -16.5t-13 -39.5q0 -22 11.5 -33.5t30.5 -11.5q25 0 38.5 16.5t13.5 39.5z" />
    <glyph glyph-name="perthousand.oprop" horiz-adv-x="1138" 
d="M200 0l289 488h127l-289 -488h-127zM337 357q0 -34 -12.5 -63.5t-33.5 -51.5t-49.5 -34.5t-59.5 -12.5q-29 0 -54 10t-43.5 28.5t-29.5 44t-11 56.5q0 34 12.5 64t33.5 51.5t49.5 34t60.5 12.5q28 0 53 -10t44 -28.5t29.5 -44t10.5 -56.5zM238 351q0 22 -12 33.5
t-31 11.5q-25 0 -38 -16.5t-13 -39.5q0 -22 11.5 -33.5t30.5 -11.5q25 0 38.5 16.5t13.5 39.5zM771 154q0 -34 -12.5 -63.5t-33.5 -51.5t-49.5 -34.5t-59.5 -12.5q-29 0 -54 10t-43.5 28.5t-29.5 44t-11 56.5q0 34 12.5 64t33.5 51.5t49.5 34t60.5 12.5q28 0 53 -10
t44 -28.5t29.5 -44t10.5 -56.5zM672 148q0 22 -12 33.5t-31 11.5q-25 0 -38 -16.5t-13 -39.5q0 -22 11.5 -33.5t30.5 -11.5q25 0 38.5 16.5t13.5 39.5zM1094 154q0 -34 -12.5 -63.5t-33.5 -51.5t-49.5 -34.5t-59.5 -12.5q-29 0 -54 10t-43.5 28.5t-29.5 44t-11 56.5
q0 34 12.5 64t33.5 51.5t49.5 34t60.5 12.5q28 0 53 -10t44 -28.5t29.5 -44t10.5 -56.5zM995 148q0 22 -12 33.5t-31 11.5q-25 0 -38 -16.5t-13 -39.5q0 -22 11.5 -33.5t30.5 -11.5q25 0 38.5 16.5t13.5 39.5z" />
    <glyph glyph-name="fraction" unicode="&#x2044;" horiz-adv-x="403" 
d="M-57 0l392 663h145l-393 -663h-144z" />
    <glyph glyph-name="onesuperior" unicode="&#xb9;" horiz-adv-x="389" 
d="M171 429l15 126q-12 -7 -41 -15l-38 -10l-22 82l119 48q10 4 19 6.5t18 2.5h71l-29 -240h65l-11 -93h-263l11 93h86z" />
    <glyph glyph-name="twosuperior" unicode="&#xb2;" horiz-adv-x="389" 
d="M344 429l-11 -93h-267l5 46q1 9 4.5 13.5t12.5 12.5l101 81q28 23 38 35t10 26q0 26 -31 26q-21 0 -64 -10l-34 -7l-25 65q42 23 78 36t74 13q56 0 86.5 -28t30.5 -72q0 -23 -7.5 -41t-21.5 -34.5t-35.5 -33t-49.5 -35.5h106z" />
    <glyph glyph-name="threesuperior" unicode="&#xb3;" horiz-adv-x="389" 
d="M141 430q23 -5 38 -6.5t26 -1.5q18 0 28.5 6.5t10.5 20.5q0 9 -6 12.5t-21 3.5h-48q-13 0 -12 10l7 59h72q9 0 11 6q3 7 3 16q0 14 -8 19.5t-28 5.5q-12 0 -26.5 -1.5t-35.5 -4.5l-47 -8l-18 68q38 17 76 27.5t73 10.5q58 0 87.5 -26.5t29.5 -61.5q0 -22 -11 -41t-29 -31
q17 -9 29 -25t12 -41q0 -27 -12 -49t-32 -37.5t-46 -24.5t-55 -9q-44 0 -83.5 15.5t-65.5 38.5l27 60z" />
    <glyph glyph-name="onehalf" unicode="&#xbd;" horiz-adv-x="917" 
d="M212 0l392 663h145l-393 -663h-144zM187 429l15 126q-12 -7 -41 -15l-38 -10l-22 82l119 48q10 4 19 6.5t18 2.5h71l-29 -240h65l-11 -93h-263l11 93h86zM839 93l-11 -93h-267l5 46q1 9 4.5 13.5t12.5 12.5l101 81q28 23 38 35t10 26q0 26 -31 26q-21 0 -64 -10l-34 -7
l-25 65q42 23 78 36t74 13q56 0 86.5 -28t30.5 -72q0 -23 -7.5 -41t-21.5 -34.5t-35.5 -33t-49.5 -35.5h106z" />
    <glyph glyph-name="onequarter" unicode="&#xbc;" horiz-adv-x="917" 
d="M706 147l10 88l-49 -55q-8 -10 -16 -18l-15 -15h70zM526 65l9 75q2 5 4 9t7 11q36 40 71.5 80t71.5 81q7 8 11.5 10t13.5 2h119l-22 -186h49l-9 -82h-50l-7 -65h-106l8 65h-170zM212 0l392 663h145l-393 -663h-144zM187 429l15 126q-12 -7 -41 -15l-38 -10l-22 82l119 48
q10 4 19 6.5t18 2.5h71l-29 -240h65l-11 -93h-263l11 93h86z" />
    <glyph glyph-name="threequarters" unicode="&#xbe;" horiz-adv-x="917" 
d="M700 147l11 90l-32 -38q-13 -14 -26.5 -28.5t-22.5 -23.5h70zM520 65l6 52q2 17 4.5 25.5t10.5 17.5l142 161q7 8 11.5 10t14.5 2h119l-22 -186h49l-10 -82h-48l-8 -65h-107l8 65h-170zM206 0l392 663h145l-393 -663h-144zM161 430q23 -5 38 -6.5t26 -1.5q18 0 28.5 6.5
t10.5 20.5q0 9 -6 12.5t-21 3.5h-48q-13 0 -12 10l7 59h72q9 0 11 6q3 7 3 16q0 14 -8 19.5t-28 5.5q-12 0 -26.5 -1.5t-35.5 -4.5l-47 -8l-18 68q38 17 76 27.5t73 10.5q58 0 87.5 -26.5t29.5 -61.5q0 -22 -11 -41t-29 -31q17 -9 29 -25t12 -41q0 -27 -12 -49t-32 -37.5
t-46 -24.5t-55 -9q-44 0 -83.5 15.5t-65.5 38.5l27 60z" />
    <glyph glyph-name="grave" unicode="`" horiz-adv-x="411" 
d="M102 660l70 90q8 11 17 13t20 -9l157 -147l-55 -62z" />
    <glyph glyph-name="acute" unicode="&#xb4;" horiz-adv-x="411" 
d="M151 547l-39 62l187 145q11 8 20.5 8.5t17.5 -14.5l48 -88z" />
    <glyph glyph-name="dieresis" unicode="&#xa8;" horiz-adv-x="411" 
d="M192 707q18 0 24 -6t4 -23l-13 -108h-136l16 137h105zM402 707q18 0 24 -6t4 -23l-13 -108h-136l16 137h105z" />
    <glyph glyph-name="circumflex" unicode="&#x2c6;" horiz-adv-x="411" 
d="M282 747q11 0 17 -2.5t13 -10.5l106 -132l-63 -57l-111 92h-1l-133 -92l-50 57l139 132q8 8 14 10.5t17 2.5h52z" />
    <glyph glyph-name="tilde" unicode="&#x2dc;" horiz-adv-x="411" 
d="M309 564q-21 0 -38 7.5t-31 16t-25.5 16t-22.5 7.5q-14 0 -26 -13t-27 -39l-79 23q6 27 18 51.5t29 44t39.5 31t49.5 11.5q21 0 38 -7.5t31 -16t25.5 -16t22.5 -7.5q15 0 27.5 13.5t26.5 38.5l79 -23q-6 -27 -18 -51.5t-29.5 -44t-40 -31t-49.5 -11.5z" />
    <glyph glyph-name="macron" unicode="&#xaf;" horiz-adv-x="411" 
d="M83 583l13 114h315l-13 -114h-315z" />
    <glyph glyph-name="breve" unicode="&#x2d8;" horiz-adv-x="411" 
d="M239 558q-37 0 -65.5 12.5t-47.5 34t-28.5 50t-9.5 60.5l97 17q12 -67 66 -67q29 0 48 17t33 50l93 -17q-7 -33 -23 -61.5t-40 -50t-55 -33.5t-68 -12z" />
    <glyph glyph-name="dotaccent" unicode="&#x2d9;" horiz-adv-x="411" 
d="M292 703q18 0 24.5 -6.5t4.5 -23.5l-14 -112h-141l17 142h109z" />
    <glyph glyph-name="ring" unicode="&#x2da;" horiz-adv-x="411" 
d="M259 816q28 0 51.5 -9.5t40 -26.5t26 -40t9.5 -49q0 -31 -10.5 -56t-29.5 -43t-44.5 -28t-55.5 -10q-57 0 -92 35.5t-35 89.5q0 29 10.5 54t29 43.5t44.5 29t56 10.5zM250 636q25 0 38.5 14.5t13.5 37.5q0 20 -12 33.5t-35 13.5q-26 0 -39 -15t-13 -38q0 -20 12 -33
t35 -13z" />
    <glyph glyph-name="cedilla" unicode="&#xb8;" horiz-adv-x="411" 
d="M231 9q-29 -30 -29 -43q0 -8 14.5 -14t31.5 -15t31.5 -23.5t14.5 -39.5q0 -28 -16.5 -50t-44 -37t-65 -24t-79.5 -10l-5 82l53 9q34 6 34 20q0 8 -12 14t-27 13t-27 17t-12 25q0 20 22.5 44.5t60.5 53.5z" />
    <glyph glyph-name="hungarumlaut" unicode="&#x2dd;" horiz-adv-x="411" 
d="M515 740l-187 -180l-65 53l142 187q9 12 17.5 14.5t19.5 -7.5zM300 740l-187 -180l-65 53l142 187q9 12 17.5 14.5t19.5 -7.5z" />
    <glyph glyph-name="ogonek" unicode="&#x2db;" horiz-adv-x="411" 
d="M269 54q-17 -12 -36.5 -28.5t-35.5 -35t-26.5 -38.5t-10.5 -39q0 -42 52 -42q8 0 25.5 2t34.5 5l12 -77q-24 -13 -55.5 -20t-55.5 -7q-57 0 -91.5 30.5t-34.5 78.5q0 52 43 103.5t127 100.5l10.5 -7t15.5 -10t15.5 -9.5t10.5 -6.5z" />
    <glyph glyph-name="caron" unicode="&#x2c7;" horiz-adv-x="411" 
d="M205 557q-11 0 -16.5 2.5t-12.5 10.5l-107 131l64 58l111 -93h1l133 93q13 -14 25 -29t24 -29l-138 -131q-8 -8 -14 -10.5t-18 -2.5h-52z" />
    <glyph glyph-name="commaaccent" unicode="&#x326;" horiz-adv-x="411" 
d="M73 -301l45 243h81q23 0 31 -12t8 -39q0 -21 -9 -44t-33 -63l-60 -99z" />
    <glyph glyph-name="grave.cap" horiz-adv-x="411" 
d="M118 832l70 90q8 11 17 13t20 -9l157 -147l-55 -62z" />
    <glyph glyph-name="acute.cap" horiz-adv-x="411" 
d="M186 717l-39 62l187 145q11 8 20.5 8.5t17.5 -14.5l48 -88z" />
    <glyph glyph-name="dieresis.cap" horiz-adv-x="411" 
d="M206 879q18 0 24 -6t4 -23l-13 -108h-136l16 137h105zM416 879q18 0 24 -6t4 -23l-13 -108h-136l16 137h105z" />
    <glyph glyph-name="circumflex.cap" horiz-adv-x="411" 
d="M310 919q11 0 17 -2.5t13 -10.5l106 -132l-63 -57l-111 92h-1l-133 -92l-50 57l139 132q8 8 14 10.5t17 2.5h52z" />
    <glyph glyph-name="tilde.cap" horiz-adv-x="411" 
d="M341 736q-21 0 -38 7.5t-31 16t-25.5 16t-22.5 7.5q-14 0 -26 -13t-27 -39l-79 23q6 27 18 51.5t29 44t39.5 31t49.5 11.5q21 0 38 -7.5t31 -16t25.5 -16t22.5 -7.5q15 0 27.5 13.5t26.5 38.5l79 -23q-6 -27 -18 -51.5t-29.5 -44t-40 -31t-49.5 -11.5z" />
    <glyph glyph-name="macron.cap" horiz-adv-x="411" 
d="M105 755l13 114h315l-13 -114h-315z" />
    <glyph glyph-name="breve.cap" horiz-adv-x="411" 
d="M263 730q-37 0 -65.5 12.5t-47.5 34t-28.5 50t-9.5 60.5l97 17q12 -67 66 -67q29 0 48 17t33 50l93 -17q-7 -33 -23 -61.5t-40 -50t-55 -33.5t-68 -12z" />
    <glyph glyph-name="dotaccent.cap" horiz-adv-x="411" 
d="M311 875q18 0 24.5 -6.5t4.5 -23.5l-14 -112h-141l17 142h109z" />
    <glyph glyph-name="ring.cap" horiz-adv-x="411" 
d="M272 988q28 0 51.5 -9.5t40 -26.5t26 -40t9.5 -49q0 -31 -10.5 -56t-29.5 -43t-44.5 -28t-55.5 -10q-57 0 -92 35.5t-35 89.5q0 29 10.5 54t29 43.5t44.5 29t56 10.5zM263 808q25 0 38.5 14.5t13.5 37.5q0 20 -12 33.5t-35 13.5q-26 0 -39 -15t-13 -38q0 -20 12 -33
t35 -13z" />
    <glyph glyph-name="hungarumlaut.cap" horiz-adv-x="411" 
d="M558 913l-187 -180l-65 53l142 187q9 12 17.5 14.5t19.5 -7.5zM343 913l-187 -180l-65 53l142 187q9 12 17.5 14.5t19.5 -7.5z" />
    <glyph glyph-name="caron.cap" horiz-adv-x="411" 
d="M239 729q-11 0 -16.5 2.5t-12.5 10.5l-107 131l64 58l111 -93h1l133 93q13 -14 25 -29t24 -29l-138 -131q-8 -8 -14 -10.5t-18 -2.5h-52z" />
    <glyph glyph-name="arrowleft.cap" horiz-adv-x="798" 
d="M269 581l66 -67l-97 -122h508v-127h-511l100 -127l-66 -67l-218 217v60q0 10 2 14.5t10 12.5z" />
    <glyph glyph-name="arrowup.cap" horiz-adv-x="798" 
d="M448 665l206 -205l-67 -67l-119 97v-508h-133v511l-124 -100l-67 66l217 218h60q10 0 15 -2t12 -10z" />
    <glyph glyph-name="arrowright.cap" horiz-adv-x="798" 
d="M734 282l-206 -206l-66 67l97 122h-508v127h511l-100 127l66 67l218 -217v-60q0 -10 -2 -14.5t-10 -12.5z" />
    <glyph glyph-name="arrowdown.cap" horiz-adv-x="798" 
d="M350 -6l-206 206l67 66l119 -97v508h133v-511l124 100l67 -66l-217 -218h-60q-8 0 -14 2t-13 10z" />
    <glyph glyph-name="uni2196.cap" horiz-adv-x="798" 
d="M186 601h290v-94l-151 -18l357 -357l-94 -94l-359 360l-18 -157h-95v307l44 44q7 7 13 8t13 1z" />
    <glyph glyph-name="uni2197.cap" horiz-adv-x="798" 
d="M682 536v-295h-95l-18 157l-359 -360l-94 94l357 357l-151 18v94h306l44 -43q6 -6 8 -10t2 -12z" />
    <glyph glyph-name="uni2198.cap" horiz-adv-x="798" 
d="M615 37h-295v95l157 18l-360 359l95 93l357 -357l17 152h95v-307l-44 -43q-5 -6 -9 -8t-13 -2z" />
    <glyph glyph-name="uni2199.cap" horiz-adv-x="798" 
d="M116 104v294h95l18 -156l359 359l94 -94l-357 -357l151 -17v-95h-307l-43 43q-6 6 -8 10t-2 13z" />
    <glyph glyph-name="periodcentered.cap" horiz-adv-x="245" 
d="M180 411q20 0 27.5 -8t5.5 -27l-14 -126h-165l19 161h127z" />
    <glyph glyph-name="bullet.cap" horiz-adv-x="359" 
d="M273 450q28 0 39.5 -10.5t7.5 -39.5l-23 -191h-247l29 241h194z" />
    <glyph glyph-name="at.cap" horiz-adv-x="751" 
d="M334 317q0 -23 9.5 -36t29.5 -13q5 0 15.5 1.5t18.5 6.5q6 3 7.5 5.5t2.5 7.5l11 89q2 11 0.5 14t-7.5 5q-13 5 -28 5q-26 0 -42.5 -21.5t-16.5 -63.5zM429 207q-24 -17 -45 -25.5t-42 -8.5q-46 0 -79.5 35t-33.5 102q0 38 11 72t30.5 59.5t46.5 40.5t59 15q23 0 40.5 -9
t38.5 -23l14 26h74l-23 -186q-2 -12 -2 -17.5v-7.5q0 -33 28 -33q26 0 45.5 31.5t19.5 97.5q0 48 -15 83.5t-41 59.5t-61.5 36t-77.5 12q-55 0 -101.5 -20t-80 -54.5t-52 -81t-18.5 -100.5q0 -50 15.5 -90t45 -67.5t71 -42.5t94.5 -15q35 0 73 5.5t80 16.5l89 22l23 -67
q-29 -18 -63.5 -33.5t-72 -26.5t-76 -17t-74.5 -6q-70 0 -130 21.5t-104 61t-69 96t-25 126.5q0 80 28.5 149t79.5 119.5t120.5 79.5t150.5 29q67 0 123 -20.5t96 -57.5t62 -87t22 -110q0 -51 -15.5 -93t-42 -72.5t-62.5 -47.5t-77 -17q-30 0 -57 10t-40 30z" />
    <glyph glyph-name="parenleft.cap" horiz-adv-x="372" 
d="M240 -129q-82 79 -121.5 178t-39.5 208q0 74 18 147.5t52.5 142.5t84.5 131t114 113l68 -59q-82 -116 -126.5 -239.5t-44.5 -252.5q0 -160 76 -310z" />
    <glyph glyph-name="parenright.cap" horiz-adv-x="372" 
d="M155 791q82 -79 121.5 -178t39.5 -208q0 -74 -18 -147.5t-52.5 -142.5t-84.5 -131t-114 -113l-68 59q82 116 126.5 239.5t44.5 252.5q0 160 -76 310z" />
    <glyph glyph-name="bracketleft.cap" horiz-adv-x="363" 
d="M201 26h120l-17 -141h-275l106 892h274l-17 -142h-119z" />
    <glyph glyph-name="bracketright.cap" horiz-adv-x="363" 
d="M187 641h-126l17 136h275l-106 -892h-274l17 136h123z" />
    <glyph glyph-name="braceleft.cap" horiz-adv-x="391" 
d="M60 383q35 14 56 25t32.5 24t15.5 29.5t4 42.5q0 25 -2 59.5t-2 63.5q0 41 13 71.5t35.5 50.5t54 30t67.5 10q25 0 54 -5t58 -13l-12 -95l-96 -24q-11 -3 -14.5 -7.5t-3.5 -15.5t0.5 -28t1.5 -34t1.5 -32t0.5 -22q0 -34 -7.5 -60.5t-25 -48t-47.5 -39t-75 -33.5
q66 -26 93 -54t27 -69q0 -22 -6 -50t-13.5 -54.5t-13.5 -47.5t-6 -29q0 -7 3 -10.5t13 -6.5l88 -23l-12 -95q-25 -8 -57 -13t-58 -5q-30 0 -55 7.5t-43.5 21.5t-29 35t-10.5 48q0 26 7 56.5t15.5 59.5t15.5 54.5t7 42.5q0 25 -17.5 42.5t-68.5 38.5z" />
    <glyph glyph-name="braceright.cap" horiz-adv-x="391" 
d="M350 281q-35 -14 -56 -25t-32.5 -24t-15.5 -30t-4 -42t2 -59.5t2 -63.5q0 -41 -13 -71.5t-35.5 -50.5t-54 -30t-67.5 -10q-25 0 -54 5t-58 13l12 95l96 24q11 3 14.5 7.5t3.5 15.5t-0.5 27.5t-1.5 34t-1.5 32.5t-0.5 22q0 34 7.5 60.5t25 48t47.5 39t75 33.5
q-66 26 -93 54t-27 69q0 22 6 50t13.5 54.5t13.5 47.5t6 29q0 7 -3 10.5t-13 6.5l-88 23l12 95q25 8 57 13t58 5q30 0 55 -7.5t43.5 -21.5t29 -35t10.5 -48q0 -26 -7 -56.5t-15.5 -60t-15.5 -55t-7 -41.5q0 -13 4 -23t13.5 -19.5t26 -19t42.5 -19.5z" />
    <glyph glyph-name="questiondown.cap" horiz-adv-x="531" 
d="M371.978 459.972l3.99902 -75.9951q1 -19.999 0 -33.498q-0.999023 -13.499 -5.49902 -22.998q-4.5 -9.5 -12.999 -16.499q-8.5 -7 -21.499 -14l-41.9971 -22.998q-49.9971 -27.998 -73.9961 -46.4971q-23.998 -18.499 -23.998 -45.4971q0 -25.999 17.999 -37.498
t46.9971 -11.499q19.998 0 46.9971 3.49902q26.998 3.5 73.9951 13.5l68.9961 13.999l36.998 -95.9941q-62.9971 -37.998 -124.493 -57.9971q-61.4961 -19.998 -122.492 -19.998q-43.9971 0 -82.4951 12.499t-66.9961 34.998q-28.498 22.498 -44.9971 55.4961
t-16.499 72.9961q0 39.9971 14.999 72.4951t42.9971 58.9961q27.999 26.499 67.4961 47.9971q39.498 21.499 87.4951 39.498l23.998 74.9951h104.994zM399.976 517.969h-114.993q-20.998 0 -28.998 5.99902q-8 6 -5 28.998l13 109.994h153.99z" />
    <glyph glyph-name="exclamdown.cap" horiz-adv-x="289" 
d="M56.9961 156.99q4 31.998 11 69.4961q6.99902 37.498 18.999 85.4941l33.9971 135.992h101.994l1 -149.991q0 -43.9971 -1.5 -76.9951t-5.5 -66.9961l-17.998 -153.99h-159.99zM257.984 510.969h-120.993q-21.998 0 -29.998 6.5q-7.99902 6.49902 -4.99902 29.498
l13.999 115.993h159.99z" />
    <glyph glyph-name="guillemotleft.cap" horiz-adv-x="659" 
d="M344 377l249 178l61 -70l-152 -154l117 -160l-72 -64l-202 185q-5 5 -7.5 10t-0.5 16zM53 377l249 178l61 -70l-152 -154l117 -160l-72 -64l-202 185q-5 5 -7.5 10t-0.5 16z" />
    <glyph glyph-name="guillemotright.cap" horiz-adv-x="659" 
d="M340 285l-249 -178l-61 70l152 154l-117 160l72 64l202 -185q5 -5 7.5 -10t0.5 -16zM631 285l-249 -178l-61 70l152 154l-117 160l72 64l202 -185q5 -5 7.5 -10t0.5 -16z" />
    <glyph glyph-name="guilsinglleft.cap" horiz-adv-x="368" 
d="M53 377l249 178l61 -70l-152 -154l117 -160l-72 -64l-202 185q-5 5 -7.5 10t-0.5 16z" />
    <glyph glyph-name="guilsinglright.cap" horiz-adv-x="368" 
d="M340 285l-249 -178l-61 70l152 154l-117 160l72 64l202 -185q5 -5 7.5 -10t0.5 -16z" />
    <glyph glyph-name="hyphen.cap" horiz-adv-x="408" 
d="M43 267l15 126h327l-15 -126h-327z" />
    <glyph glyph-name="uni00AD.cap" horiz-adv-x="408" 
d="M43 267l15 126h327l-15 -126h-327z" />
    <glyph glyph-name="endash.cap" horiz-adv-x="561" 
d="M43 267l15 126h480l-15 -126h-480z" />
    <glyph glyph-name="emdash.cap" horiz-adv-x="1041" 
d="M43 267l15 126h960l-15 -126h-960z" />
    <glyph glyph-name="Agrave" unicode="&#xc0;" horiz-adv-x="691" 
d="M294 663h158q12 0 16.5 -3.5t6.5 -11.5l179 -648h-153q-9 0 -13 2t-6 12l-26 102h-257l-46 -102q-5 -10 -9.5 -12t-12.5 -2h-154zM367 515q-11 -35 -32.5 -89t-52.5 -124l-23 -55h164l-12 52q-16 66 -26.5 118.5t-15.5 97.5h-2zM259 832l70 90q8 11 17 13t20 -9l157 -147
l-55 -62z" />
    <glyph glyph-name="Aacute" unicode="&#xc1;" horiz-adv-x="691" 
d="M294 663h158q12 0 16.5 -3.5t6.5 -11.5l179 -648h-153q-9 0 -13 2t-6 12l-26 102h-257l-46 -102q-5 -10 -9.5 -12t-12.5 -2h-154zM367 515q-11 -35 -32.5 -89t-52.5 -124l-23 -55h164l-12 52q-16 66 -26.5 118.5t-15.5 97.5h-2zM321 717l-39 62l187 145q11 8 20.5 8.5
t17.5 -14.5l48 -88z" />
    <glyph glyph-name="Acircumflex" unicode="&#xc2;" horiz-adv-x="691" 
d="M294 663h158q12 0 16.5 -3.5t6.5 -11.5l179 -648h-153q-9 0 -13 2t-6 12l-26 102h-257l-46 -102q-5 -10 -9.5 -12t-12.5 -2h-154zM367 515q-11 -35 -32.5 -89t-52.5 -124l-23 -55h164l-12 52q-16 66 -26.5 118.5t-15.5 97.5h-2zM438 919q11 0 17 -2.5t13 -10.5l106 -132
l-63 -57l-111 92h-1l-133 -92l-50 57l139 132q8 8 14 10.5t17 2.5h52z" />
    <glyph glyph-name="Atilde" unicode="&#xc3;" horiz-adv-x="691" 
d="M294 663h158q12 0 16.5 -3.5t6.5 -11.5l179 -648h-153q-9 0 -13 2t-6 12l-26 102h-257l-46 -102q-5 -10 -9.5 -12t-12.5 -2h-154zM367 515q-11 -35 -32.5 -89t-52.5 -124l-23 -55h164l-12 52q-16 66 -26.5 118.5t-15.5 97.5h-2zM449 736q-21 0 -38 7.5t-31 16t-25.5 16
t-22.5 7.5q-14 0 -26 -13t-27 -39l-79 23q6 27 18 51.5t29 44t39.5 31t49.5 11.5q21 0 38 -7.5t31 -16t25.5 -16t22.5 -7.5q15 0 27.5 13.5t26.5 38.5l79 -23q-6 -27 -18 -51.5t-29.5 -44t-40 -31t-49.5 -11.5z" />
    <glyph glyph-name="Adieresis" unicode="&#xc4;" horiz-adv-x="691" 
d="M294 663h158q12 0 16.5 -3.5t6.5 -11.5l179 -648h-153q-9 0 -13 2t-6 12l-26 102h-257l-46 -102q-5 -10 -9.5 -12t-12.5 -2h-154zM367 515q-11 -35 -32.5 -89t-52.5 -124l-23 -55h164l-12 52q-16 66 -26.5 118.5t-15.5 97.5h-2zM340 879q18 0 24 -6t4 -23l-13 -108h-136
l16 137h105zM550 879q18 0 24 -6t4 -23l-13 -108h-136l16 137h105z" />
    <glyph glyph-name="Amacron" unicode="&#x100;" horiz-adv-x="691" 
d="M294 663h158q12 0 16.5 -3.5t6.5 -11.5l179 -648h-153q-9 0 -13 2t-6 12l-26 102h-257l-46 -102q-5 -10 -9.5 -12t-12.5 -2h-154zM367 515q-11 -35 -32.5 -89t-52.5 -124l-23 -55h164l-12 52q-16 66 -26.5 118.5t-15.5 97.5h-2zM235 755l13 114h315l-13 -114h-315z" />
    <glyph glyph-name="Abreve" unicode="&#x102;" horiz-adv-x="691" 
d="M294 663h158q12 0 16.5 -3.5t6.5 -11.5l179 -648h-153q-9 0 -13 2t-6 12l-26 102h-257l-46 -102q-5 -10 -9.5 -12t-12.5 -2h-154zM367 515q-11 -35 -32.5 -89t-52.5 -124l-23 -55h164l-12 52q-16 66 -26.5 118.5t-15.5 97.5h-2zM386 730q-37 0 -65.5 12.5t-47.5 34
t-28.5 50t-9.5 60.5l97 17q12 -67 66 -67q29 0 48 17t33 50l93 -17q-7 -33 -23 -61.5t-40 -50t-55 -33.5t-68 -12z" />
    <glyph glyph-name="Acaron" unicode="&#x1cd;" horiz-adv-x="691" 
d="M294 663h158q12 0 16.5 -3.5t6.5 -11.5l179 -648h-153q-9 0 -13 2t-6 12l-26 102h-257l-46 -102q-5 -10 -9.5 -12t-12.5 -2h-154zM367 515q-11 -35 -32.5 -89t-52.5 -124l-23 -55h164l-12 52q-16 66 -26.5 118.5t-15.5 97.5h-2zM365 729q-11 0 -16.5 2.5t-12.5 10.5
l-107 131l64 58l111 -93h1l133 93q13 -14 25 -29t24 -29l-138 -131q-8 -8 -14 -10.5t-18 -2.5h-52z" />
    <glyph glyph-name="Aring" unicode="&#xc5;" horiz-adv-x="691" 
d="M654 0h-153q-9 0 -13 2t-6 12l-26 102h-257l-46 -102q-5 -10 -9.5 -12t-12.5 -2h-154l321 672q-17 17 -26.5 39.5t-9.5 49.5q0 29 10.5 54.5t29.5 44t44.5 29t55.5 10.5q28 0 51.5 -9.5t40 -26.5t26 -40t9.5 -50q0 -37 -16 -66.5t-42 -43.5zM393 718q26 0 39 14.5
t13 37.5q0 20 -12 34t-35 14q-25 0 -38.5 -15.5t-13.5 -38.5q0 -20 12 -33t35 -13zM367 515q-11 -35 -32.5 -89t-52.5 -124l-23 -55h164l-12 52q-16 66 -26.5 118.5t-15.5 97.5h-2z" />
    <glyph glyph-name="Aringacute" unicode="&#x1fa;" horiz-adv-x="691" 
d="M321 915l-39 62l187 145q11 8 20.5 8.5t17.5 -14.5l48 -88zM654 0h-153q-9 0 -13 2t-6 12l-26 102h-257l-46 -102q-5 -10 -9.5 -12t-12.5 -2h-154l321 672q-17 17 -26.5 39.5t-9.5 49.5q0 29 10.5 54.5t29.5 44t44.5 29t55.5 10.5q28 0 51.5 -9.5t40 -26.5t26 -40
t9.5 -50q0 -37 -16 -66.5t-42 -43.5zM393 718q26 0 39 14.5t13 37.5q0 20 -12 34t-35 14q-25 0 -38.5 -15.5t-13.5 -38.5q0 -20 12 -33t35 -13zM367 515q-11 -35 -32.5 -89t-52.5 -124l-23 -55h164l-12 52q-16 66 -26.5 118.5t-15.5 97.5h-2z" />
    <glyph glyph-name="Aogonek" unicode="&#x104;" horiz-adv-x="691" 
d="M456 116h-257l-46 -102q-5 -10 -9.5 -12t-12.5 -2h-154l317 663h158q12 0 16.5 -3.5t6.5 -11.5l179 -648h-57q-45 0 -67.5 -22.5t-22.5 -57.5q0 -20 13.5 -34t40.5 -14q11 0 26.5 2t30.5 4l13 -77q-24 -13 -55.5 -20t-56.5 -7q-57 0 -91 30.5t-34 78.5q0 40 24 74.5
t63 62.5zM321 717l-39 62l187 145q11 8 20.5 8.5t17.5 -14.5l48 -88zM367 515q-11 -35 -32.5 -89t-52.5 -124l-23 -55h164l-12 52q-16 66 -26.5 118.5t-15.5 97.5h-2z" />
    <glyph glyph-name="AE" unicode="&#xc6;" horiz-adv-x="1007" 
d="M990 527h-322l-14 -125h289l-16 -134h-290l-15 -132h331l-16 -136h-496l14 116h-228l-74 -103q-6 -8 -11.5 -10.5t-16.5 -2.5h-170l492 663h559zM502 513q-8 -15 -22 -36t-30.5 -46t-35.5 -51.5t-36.5 -51.5t-32.5 -46l-25 -35h150z" />
    <glyph glyph-name="AEacute" unicode="&#x1fc;" horiz-adv-x="1007" 
d="M990 527h-322l-14 -125h289l-16 -134h-290l-15 -132h331l-16 -136h-496l14 116h-228l-74 -103q-6 -8 -11.5 -10.5t-16.5 -2.5h-170l492 663h559zM502 513q-8 -15 -22 -36t-30.5 -46t-35.5 -51.5t-36.5 -51.5t-32.5 -46l-25 -35h150zM602 717l-39 62l187 145
q11 8 20.5 8.5t17.5 -14.5l48 -88z" />
    <glyph glyph-name="Cacute" unicode="&#x106;" horiz-adv-x="669" 
d="M638 106q-28 -26 -63 -47.5t-74.5 -37t-81 -24t-82.5 -8.5q-68 0 -123.5 23t-94.5 64.5t-60 99.5t-21 127q0 73 26 140t72.5 118t110 81t139.5 30q45 0 87 -13.5t78 -39.5t63.5 -63.5t44.5 -86.5l-109 -65l-81 70q-26 23 -48 34t-53 11q-35 0 -64 -16t-50 -44t-33 -66.5
t-12 -83.5q0 -82 41.5 -122.5t113.5 -40.5q54 0 134 26l91 29zM312 717l-39 62l187 145q11 8 20.5 8.5t17.5 -14.5l48 -88z" />
    <glyph glyph-name="Ccedilla" unicode="&#xc7;" horiz-adv-x="669" 
d="M638 106q-51 -47 -122 -78t-146 -37q-13 -16 -13 -26q0 -8 14.5 -14t31.5 -15t31.5 -23.5t14.5 -39.5q0 -28 -16.5 -50t-44 -37t-65 -24t-79.5 -10l-5 82l53 9q34 6 34 20q0 8 -12 14t-27 13t-27 17t-12 25q0 25 38 61q-57 8 -103 34t-78.5 66.5t-49.5 93.5t-17 116
q0 73 26 140t72.5 118t110 81t139.5 30q45 0 87 -13.5t78 -39.5t63.5 -63.5t44.5 -86.5l-109 -65l-81 70q-26 23 -48 34t-53 11q-35 0 -64 -16t-50 -44t-33 -66.5t-12 -83.5q0 -82 41.5 -122.5t113.5 -40.5q54 0 134 26l91 29z" />
    <glyph glyph-name="Ccircumflex" unicode="&#x108;" horiz-adv-x="669" 
d="M638 106q-28 -26 -63 -47.5t-74.5 -37t-81 -24t-82.5 -8.5q-68 0 -123.5 23t-94.5 64.5t-60 99.5t-21 127q0 73 26 140t72.5 118t110 81t139.5 30q45 0 87 -13.5t78 -39.5t63.5 -63.5t44.5 -86.5l-109 -65l-81 70q-26 23 -48 34t-53 11q-35 0 -64 -16t-50 -44t-33 -66.5
t-12 -83.5q0 -82 41.5 -122.5t113.5 -40.5q54 0 134 26l91 29zM442 919q11 0 17 -2.5t13 -10.5l106 -132l-63 -57l-111 92h-1l-133 -92l-50 57l139 132q8 8 14 10.5t17 2.5h52z" />
    <glyph glyph-name="Ccaron" unicode="&#x10c;" horiz-adv-x="669" 
d="M638 106q-28 -26 -63 -47.5t-74.5 -37t-81 -24t-82.5 -8.5q-68 0 -123.5 23t-94.5 64.5t-60 99.5t-21 127q0 73 26 140t72.5 118t110 81t139.5 30q45 0 87 -13.5t78 -39.5t63.5 -63.5t44.5 -86.5l-109 -65l-81 70q-26 23 -48 34t-53 11q-35 0 -64 -16t-50 -44t-33 -66.5
t-12 -83.5q0 -82 41.5 -122.5t113.5 -40.5q54 0 134 26l91 29zM368 729q-11 0 -16.5 2.5t-12.5 10.5l-107 131l64 58l111 -93h1l133 93q13 -14 25 -29t24 -29l-138 -131q-8 -8 -14 -10.5t-18 -2.5h-52z" />
    <glyph glyph-name="Cdotaccent" unicode="&#x10a;" horiz-adv-x="669" 
d="M638 106q-28 -26 -63 -47.5t-74.5 -37t-81 -24t-82.5 -8.5q-68 0 -123.5 23t-94.5 64.5t-60 99.5t-21 127q0 73 26 140t72.5 118t110 81t139.5 30q45 0 87 -13.5t78 -39.5t63.5 -63.5t44.5 -86.5l-109 -65l-81 70q-26 23 -48 34t-53 11q-35 0 -64 -16t-50 -44t-33 -66.5
t-12 -83.5q0 -82 41.5 -122.5t113.5 -40.5q54 0 134 26l91 29zM448 875q18 0 24.5 -6.5t4.5 -23.5l-14 -112h-141l17 142h109z" />
    <glyph glyph-name="Dcaron" unicode="&#x10e;" horiz-adv-x="698" 
d="M110 663h221q99 0 169.5 -21.5t114.5 -68.5q32 -35 49.5 -83t17.5 -112q0 -85 -30.5 -157.5t-89.5 -123.5q-53 -46 -127 -71.5t-176 -25.5h-228zM276 144q60 0 101.5 14.5t70.5 42.5q63 61 63 176q0 38 -9 63t-26 42q-23 22 -60 29.5t-89 7.5h-69l-44 -375h62zM365 729
q-11 0 -16.5 2.5t-12.5 10.5l-107 131l64 58l111 -93h1l133 93q13 -14 25 -29t24 -29l-138 -131q-8 -8 -14 -10.5t-18 -2.5h-52z" />
    <glyph glyph-name="Dcroat" unicode="&#x110;" horiz-adv-x="722" 
d="M101 400l31 263h221q99 0 169.5 -21.5t114.5 -68.5q32 -35 49.5 -83t17.5 -112q0 -85 -30.5 -157.5t-89.5 -123.5q-53 -46 -127 -71.5t-176 -25.5h-228l33 275h-74l15 125h74zM298 143q60 0 101.5 14.5t70.5 42.5q32 31 47.5 76t15.5 102q0 38 -9 63t-26 42
q-23 22 -60 29.5t-89 7.5h-69l-14 -120h133l-15 -125h-133l-15 -132h62z" />
    <glyph glyph-name="Eth" unicode="&#xd0;" horiz-adv-x="722" 
d="M101 400l31 263h221q99 0 169.5 -21.5t114.5 -68.5q32 -35 49.5 -83t17.5 -112q0 -85 -30.5 -157.5t-89.5 -123.5q-53 -46 -127 -71.5t-176 -25.5h-228l33 275h-74l15 125h74zM298 143q60 0 101.5 14.5t70.5 42.5q32 31 47.5 76t15.5 102q0 38 -9 63t-26 42
q-23 22 -60 29.5t-89 7.5h-69l-14 -120h133l-15 -125h-133l-15 -132h62z" />
    <glyph glyph-name="Egrave" unicode="&#xc8;" horiz-adv-x="598" 
d="M597 663l-16 -136h-322l-14 -125h289l-16 -134h-290l-15 -132h331l-16 -136h-496l79 663h486zM229 832l70 90q8 11 17 13t20 -9l157 -147l-55 -62z" />
    <glyph glyph-name="Eacute" unicode="&#xc9;" horiz-adv-x="598" 
d="M597 663l-16 -136h-322l-14 -125h289l-16 -134h-290l-15 -132h331l-16 -136h-496l79 663h486zM285 717l-39 62l187 145q11 8 20.5 8.5t17.5 -14.5l48 -88z" />
    <glyph glyph-name="Ecircumflex" unicode="&#xca;" horiz-adv-x="598" 
d="M597 663l-16 -136h-322l-14 -125h289l-16 -134h-290l-15 -132h331l-16 -136h-496l79 663h486zM412 919q11 0 17 -2.5t13 -10.5l106 -132l-63 -57l-111 92h-1l-133 -92l-50 57l139 132q8 8 14 10.5t17 2.5h52z" />
    <glyph glyph-name="Ecaron" unicode="&#x11a;" horiz-adv-x="598" 
d="M597 663l-16 -136h-322l-14 -125h289l-16 -134h-290l-15 -132h331l-16 -136h-496l79 663h486zM342 729q-11 0 -16.5 2.5t-12.5 10.5l-107 131l64 58l111 -93h1l133 93q13 -14 25 -29t24 -29l-138 -131q-8 -8 -14 -10.5t-18 -2.5h-52z" />
    <glyph glyph-name="Edieresis" unicode="&#xcb;" horiz-adv-x="598" 
d="M597 663l-16 -136h-322l-14 -125h289l-16 -134h-290l-15 -132h331l-16 -136h-496l79 663h486zM308 879q18 0 24 -6t4 -23l-13 -108h-136l16 137h105zM518 879q18 0 24 -6t4 -23l-13 -108h-136l16 137h105z" />
    <glyph glyph-name="Emacron" unicode="&#x112;" horiz-adv-x="598" 
d="M597 663l-16 -136h-322l-14 -125h289l-16 -134h-290l-15 -132h331l-16 -136h-496l79 663h486zM196 755l13 114h315l-13 -114h-315z" />
    <glyph glyph-name="Ebreve" unicode="&#x114;" horiz-adv-x="598" 
d="M597 663l-16 -136h-322l-14 -125h289l-16 -134h-290l-15 -132h331l-16 -136h-496l79 663h486zM359 730q-37 0 -65.5 12.5t-47.5 34t-28.5 50t-9.5 60.5l97 17q12 -67 66 -67q29 0 48 17t33 50l93 -17q-7 -33 -23 -61.5t-40 -50t-55 -33.5t-68 -12z" />
    <glyph glyph-name="Edotaccent" unicode="&#x116;" horiz-adv-x="598" 
d="M597 663l-16 -136h-322l-14 -125h289l-16 -134h-290l-15 -132h331l-16 -136h-496l79 663h486zM413 875q18 0 24.5 -6.5t4.5 -23.5l-14 -112h-141l17 142h109z" />
    <glyph glyph-name="Eogonek" unicode="&#x118;" horiz-adv-x="598" 
d="M596 663l-16 -136h-322l-14 -125h289l-16 -134h-290l-15 -132h331l-16 -136h-83q-14 0 -22.5 -4.5t-18.5 -16.5q-27 -35 -27 -66q0 -41 51 -41q8 0 25.5 1.5t34.5 4.5l13 -77q-24 -13 -55.5 -20.5t-56.5 -7.5q-57 0 -91 31t-34 79q0 62 57 117h-289l79 663h486z" />
    <glyph glyph-name="Gcircumflex" unicode="&#x11c;" horiz-adv-x="717" 
d="M509 51l-33 -19q-35 -20 -74.5 -31.5t-76.5 -11.5q-62 0 -115 23t-91 64.5t-59.5 98t-21.5 122.5q0 84 29 153t78 118.5t114.5 76.5t138.5 27q44 0 86 -12.5t78 -35.5t64.5 -57t46.5 -76l-107 -69l-65 48q-33 24 -60 38t-59 14q-38 0 -69.5 -16t-54.5 -44t-36 -67
t-13 -85q0 -82 41.5 -124t119.5 -42q13 0 28.5 1.5t31 4t30 6t25.5 6.5q10 3 12 6.5t4 17.5l7 57h-94l13 112h226q11 0 18.5 -4.5t5.5 -20.5l-39 -330h-112zM457 919q11 0 17 -2.5t13 -10.5l106 -132l-63 -57l-111 92h-1l-133 -92l-50 57l139 132q8 8 14 10.5t17 2.5h52z
" />
    <glyph glyph-name="Gbreve" unicode="&#x11e;" horiz-adv-x="717" 
d="M509 51l-33 -19q-35 -20 -74.5 -31.5t-76.5 -11.5q-62 0 -115 23t-91 64.5t-59.5 98t-21.5 122.5q0 84 29 153t78 118.5t114.5 76.5t138.5 27q44 0 86 -12.5t78 -35.5t64.5 -57t46.5 -76l-107 -69l-65 48q-33 24 -60 38t-59 14q-38 0 -69.5 -16t-54.5 -44t-36 -67
t-13 -85q0 -82 41.5 -124t119.5 -42q13 0 28.5 1.5t31 4t30 6t25.5 6.5q10 3 12 6.5t4 17.5l7 57h-94l13 112h226q11 0 18.5 -4.5t5.5 -20.5l-39 -330h-112zM413 730q-37 0 -65.5 12.5t-47.5 34t-28.5 50t-9.5 60.5l97 17q12 -67 66 -67q29 0 48 17t33 50l93 -17
q-7 -33 -23 -61.5t-40 -50t-55 -33.5t-68 -12z" />
    <glyph glyph-name="Gdotaccent" unicode="&#x120;" horiz-adv-x="717" 
d="M509 51l-33 -19q-35 -20 -74.5 -31.5t-76.5 -11.5q-62 0 -115 23t-91 64.5t-59.5 98t-21.5 122.5q0 84 29 153t78 118.5t114.5 76.5t138.5 27q44 0 86 -12.5t78 -35.5t64.5 -57t46.5 -76l-107 -69l-65 48q-33 24 -60 38t-59 14q-38 0 -69.5 -16t-54.5 -44t-36 -67
t-13 -85q0 -82 41.5 -124t119.5 -42q13 0 28.5 1.5t31 4t30 6t25.5 6.5q10 3 12 6.5t4 17.5l7 57h-94l13 112h226q11 0 18.5 -4.5t5.5 -20.5l-39 -330h-112zM466 875q18 0 24.5 -6.5t4.5 -23.5l-14 -112h-141l17 142h109z" />
    <glyph glyph-name="Gcommaaccent" unicode="&#x122;" horiz-adv-x="717" 
d="M509 51l-33 -19q-35 -20 -74.5 -31.5t-76.5 -11.5q-62 0 -115 23t-91 64.5t-59.5 98t-21.5 122.5q0 84 29 153t78 118.5t114.5 76.5t138.5 27q44 0 86 -12.5t78 -35.5t64.5 -57t46.5 -76l-107 -69l-65 48q-33 24 -60 38t-59 14q-38 0 -69.5 -16t-54.5 -44t-36 -67
t-13 -85q0 -82 41.5 -124t119.5 -42q13 0 28.5 1.5t31 4t30 6t25.5 6.5q10 3 12 6.5t4 17.5l7 57h-94l13 112h226q11 0 18.5 -4.5t5.5 -20.5l-39 -330h-112zM232 -301l45 243h81q23 0 31 -12t8 -39q0 -21 -9 -44t-33 -63l-60 -99z" />
    <glyph glyph-name="Hcircumflex" unicode="&#x124;" horiz-adv-x="713" 
d="M623 0h-164l31 269h-262l-32 -269h-165l79 663h165l-30 -252h262l30 252h165zM458 919q11 0 17 -2.5t13 -10.5l106 -132l-63 -57l-111 92h-1l-133 -92l-50 57l139 132q8 8 14 10.5t17 2.5h52z" />
    <glyph glyph-name="Hbar" unicode="&#x126;" horiz-adv-x="738" 
d="M114 587l9 76h165l-9 -76h262l9 76h165l-9 -76h67l-12 -102h-67l-58 -485h-164l31 269h-262l-32 -269h-165l58 485h-67l12 102h67zM520 411l8 74h-262l-8 -74h262z" />
    <glyph glyph-name="Igrave" unicode="&#xcc;" horiz-adv-x="296" 
d="M198 0h-165l79 663h165zM73 832l70 90q8 11 17 13t20 -9l157 -147l-55 -62z" />
    <glyph glyph-name="Iacute" unicode="&#xcd;" horiz-adv-x="296" 
d="M198 0h-165l79 663h165zM133 717l-39 62l187 145q11 8 20.5 8.5t17.5 -14.5l48 -88z" />
    <glyph glyph-name="Icircumflex" unicode="&#xce;" horiz-adv-x="296" 
d="M198 0h-165l79 663h165zM253 919q11 0 17 -2.5t13 -10.5l106 -132l-63 -57l-111 92h-1l-133 -92l-50 57l139 132q8 8 14 10.5t17 2.5h52z" />
    <glyph glyph-name="Itilde" unicode="&#x128;" horiz-adv-x="296" 
d="M198 0h-165l79 663h165zM271 736q-21 0 -38 7.5t-31 16t-25.5 16t-22.5 7.5q-14 0 -26 -13t-27 -39l-79 23q6 27 18 51.5t29 44t39.5 31t49.5 11.5q21 0 38 -7.5t31 -16t25.5 -16t22.5 -7.5q15 0 27.5 13.5t26.5 38.5l79 -23q-6 -27 -18 -51.5t-29.5 -44t-40 -31
t-49.5 -11.5z" />
    <glyph glyph-name="Idieresis" unicode="&#xcf;" horiz-adv-x="296" 
d="M198 0h-165l79 663h165zM154 879q18 0 24 -6t4 -23l-13 -108h-136l16 137h105zM364 879q18 0 24 -6t4 -23l-13 -108h-136l16 137h105z" />
    <glyph glyph-name="Imacron" unicode="&#x12a;" horiz-adv-x="296" 
d="M198 0h-165l79 663h165zM54 755l13 114h315l-13 -114h-315z" />
    <glyph glyph-name="Ibreve" unicode="&#x12c;" horiz-adv-x="296" 
d="M198 0h-165l79 663h165zM208 730q-37 0 -65.5 12.5t-47.5 34t-28.5 50t-9.5 60.5l97 17q12 -67 66 -67q29 0 48 17t33 50l93 -17q-7 -33 -23 -61.5t-40 -50t-55 -33.5t-68 -12z" />
    <glyph glyph-name="Idotaccent" unicode="&#x130;" horiz-adv-x="296" 
d="M198 0h-165l79 663h165zM260 875q18 0 24.5 -6.5t4.5 -23.5l-14 -112h-141l17 142h109z" />
    <glyph glyph-name="Iogonek" unicode="&#x12e;" horiz-adv-x="296" 
d="M198 0h-22q-28 0 -46 -7.5t-33 -30.5q-16 -26 -16 -49q0 -41 51 -41q8 0 25.5 1.5t34.5 4.5l13 -77q-24 -13 -55.5 -20.5t-56.5 -7.5q-57 0 -91 31t-34 79q0 63 66 122l78 658h165z" />
    <glyph glyph-name="IJ" unicode="&#x132;" horiz-adv-x="803" 
d="M198 0h-165l79 663h165zM323 157l59 -8q38 -5 65 -8t44 -3q50 0 68.5 19.5t23.5 66.5l51 439h165l-52 -435q-8 -64 -28 -109t-51 -73.5t-72.5 -42t-90.5 -13.5q-56 0 -112.5 17.5t-102.5 47.5z" />
    <glyph glyph-name="Jcircumflex" unicode="&#x134;" horiz-adv-x="507" 
d="M27 157l59 -8q38 -5 65 -8t44 -3q50 0 68.5 19.5t23.5 66.5l51 439h165l-52 -435q-8 -64 -28 -109t-51 -73.5t-72.5 -42t-90.5 -13.5q-56 0 -112.5 17.5t-102.5 47.5zM471 919q11 0 17 -2.5t13 -10.5l106 -132l-63 -57l-111 92h-1l-133 -92l-50 57l139 132q8 8 14 10.5
t17 2.5h52z" />
    <glyph glyph-name="Kcommaaccent" unicode="&#x136;" horiz-adv-x="668" 
d="M196 0h-165l79 663h165l-34 -281l349 289l87 -104l-231 -186l191 -381h-157q-13 0 -19 2.5t-11 13.5l-130 269q-21 -14 -48.5 -28t-47.5 -20zM208 -301l45 243h81q23 0 31 -12t8 -39q0 -21 -9 -44t-33 -63l-60 -99z" />
    <glyph glyph-name="Lacute" unicode="&#x139;" horiz-adv-x="567" 
d="M110 663h165l-62 -527h309l-17 -136h-474zM168 717l-39 62l187 145q11 8 20.5 8.5t17.5 -14.5l48 -88z" />
    <glyph glyph-name="Lcaron" unicode="&#x13d;" horiz-adv-x="567" 
d="M110 663h165l-62 -527h309l-17 -136h-474zM332 420l45 243h81q23 0 31 -12t8 -39q0 -21 -9 -44t-33 -63l-60 -99z" />
    <glyph glyph-name="Lcommaaccent" unicode="&#x13b;" horiz-adv-x="567" 
d="M110 663h165l-62 -527h309l-17 -136h-474zM174 -301l45 243h81q23 0 31 -12t8 -39q0 -21 -9 -44t-33 -63l-60 -99z" />
    <glyph glyph-name="Lslash" unicode="&#x141;" horiz-adv-x="630" 
d="M295 297l-19 -161h309l-17 -136h-474l26 225l-63 -39l-67 119l151 93l32 265h165l-22 -190l134 84l67 -119z" />
    <glyph glyph-name="Ldot" unicode="&#x13f;" horiz-adv-x="567" 
d="M110 663h165l-62 -527h309l-17 -136h-474zM487 433q18 0 24.5 -6.5t4.5 -23.5l-14 -112h-141l17 142h109z" />
    <glyph glyph-name="Nacute" unicode="&#x143;" horiz-adv-x="722" 
d="M185 0h-154l79 663h117q11 0 16 -2.5t11 -11.5l202 -311q14 -21 27.5 -42.5t23.5 -38.5h2l49 406h153l-79 -663h-116q-11 0 -16 2t-10 10l-200 308q-14 20 -29 44.5t-26 43.5h-2zM357 717l-39 62l187 145q11 8 20.5 8.5t17.5 -14.5l48 -88z" />
    <glyph glyph-name="Ncaron" unicode="&#x147;" horiz-adv-x="722" 
d="M185 0h-154l79 663h117q11 0 16 -2.5t11 -11.5l202 -311q14 -21 27.5 -42.5t23.5 -38.5h2l49 406h153l-79 -663h-116q-11 0 -16 2t-10 10l-200 308q-14 20 -29 44.5t-26 43.5h-2zM391 729q-11 0 -16.5 2.5t-12.5 10.5l-107 131l64 58l111 -93h1l133 93q13 -14 25 -29
t24 -29l-138 -131q-8 -8 -14 -10.5t-18 -2.5h-52z" />
    <glyph glyph-name="Ntilde" unicode="&#xd1;" horiz-adv-x="722" 
d="M185 0h-154l79 663h117q11 0 16 -2.5t11 -11.5l202 -311q14 -21 27.5 -42.5t23.5 -38.5h2l49 406h153l-79 -663h-116q-11 0 -16 2t-10 10l-200 308q-14 20 -29 44.5t-26 43.5h-2zM482 736q-21 0 -38 7.5t-31 16t-25.5 16t-22.5 7.5q-14 0 -26 -13t-27 -39l-79 23
q6 27 18 51.5t29 44t39.5 31t49.5 11.5q21 0 38 -7.5t31 -16t25.5 -16t22.5 -7.5q15 0 27.5 13.5t26.5 38.5l79 -23q-6 -27 -18 -51.5t-29.5 -44t-40 -31t-49.5 -11.5z" />
    <glyph glyph-name="Ncommaaccent" unicode="&#x145;" horiz-adv-x="722" 
d="M185 0h-154l79 663h117q11 0 16 -2.5t11 -11.5l202 -311q14 -21 27.5 -42.5t23.5 -38.5h2l49 406h153l-79 -663h-116q-11 0 -16 2t-10 10l-200 308q-14 20 -29 44.5t-26 43.5h-2zM244 -301l45 243h81q23 0 31 -12t8 -39q0 -21 -9 -44t-33 -63l-60 -99z" />
    <glyph glyph-name="Eng" unicode="&#x14a;" horiz-adv-x="722" 
d="M479 30l-186 285q-14 20 -30.5 47t-27.5 46h-2l-48 -408h-154l79 663h117q11 0 16 -2.5t11 -11.5l199 -306q14 -21 29 -45t25 -41h2l49 406h153l-79 -663q-8 -64 -22 -109t-38 -73.5t-58.5 -42t-82.5 -13.5q-50 0 -95.5 15.5t-73.5 32.5l34 101q30 -4 55 -6t40 -2
q25 0 40.5 5t23.5 15.5t12 27t7 39.5z" />
    <glyph glyph-name="Ograve" unicode="&#xd2;" horiz-adv-x="719" 
d="M701 363q0 -86 -29 -155t-78 -117.5t-113.5 -75t-136.5 -26.5q-65 0 -120.5 23.5t-97 64.5t-65 98t-23.5 124q0 81 29 149.5t78 118t113.5 77.5t136.5 28q64 0 120 -23t97.5 -64.5t65 -98t23.5 -123.5zM530 350q0 74 -40 118.5t-106 44.5q-38 0 -70 -14.5t-55.5 -41.5
t-36.5 -64t-13 -82q0 -76 40 -119t106 -43q38 0 70 14t55.5 40.5t36.5 63.5t13 83zM279 832l70 90q8 11 17 13t20 -9l157 -147l-55 -62z" />
    <glyph glyph-name="Oacute" unicode="&#xd3;" horiz-adv-x="719" 
d="M701 363q0 -86 -29 -155t-78 -117.5t-113.5 -75t-136.5 -26.5q-65 0 -120.5 23.5t-97 64.5t-65 98t-23.5 124q0 81 29 149.5t78 118t113.5 77.5t136.5 28q64 0 120 -23t97.5 -64.5t65 -98t23.5 -123.5zM530 350q0 74 -40 118.5t-106 44.5q-38 0 -70 -14.5t-55.5 -41.5
t-36.5 -64t-13 -82q0 -76 40 -119t106 -43q38 0 70 14t55.5 40.5t36.5 63.5t13 83zM325 717l-39 62l187 145q11 8 20.5 8.5t17.5 -14.5l48 -88z" />
    <glyph glyph-name="Ocircumflex" unicode="&#xd4;" horiz-adv-x="719" 
d="M701 363q0 -86 -29 -155t-78 -117.5t-113.5 -75t-136.5 -26.5q-65 0 -120.5 23.5t-97 64.5t-65 98t-23.5 124q0 81 29 149.5t78 118t113.5 77.5t136.5 28q64 0 120 -23t97.5 -64.5t65 -98t23.5 -123.5zM530 350q0 74 -40 118.5t-106 44.5q-38 0 -70 -14.5t-55.5 -41.5
t-36.5 -64t-13 -82q0 -76 40 -119t106 -43q38 0 70 14t55.5 40.5t36.5 63.5t13 83zM453 919q11 0 17 -2.5t13 -10.5l106 -132l-63 -57l-111 92h-1l-133 -92l-50 57l139 132q8 8 14 10.5t17 2.5h52z" />
    <glyph glyph-name="Otilde" unicode="&#xd5;" horiz-adv-x="719" 
d="M701 363q0 -86 -29 -155t-78 -117.5t-113.5 -75t-136.5 -26.5q-65 0 -120.5 23.5t-97 64.5t-65 98t-23.5 124q0 81 29 149.5t78 118t113.5 77.5t136.5 28q64 0 120 -23t97.5 -64.5t65 -98t23.5 -123.5zM530 350q0 74 -40 118.5t-106 44.5q-38 0 -70 -14.5t-55.5 -41.5
t-36.5 -64t-13 -82q0 -76 40 -119t106 -43q38 0 70 14t55.5 40.5t36.5 63.5t13 83zM469 736q-21 0 -38 7.5t-31 16t-25.5 16t-22.5 7.5q-14 0 -26 -13t-27 -39l-79 23q6 27 18 51.5t29 44t39.5 31t49.5 11.5q21 0 38 -7.5t31 -16t25.5 -16t22.5 -7.5q15 0 27.5 13.5
t26.5 38.5l79 -23q-6 -27 -18 -51.5t-29.5 -44t-40 -31t-49.5 -11.5z" />
    <glyph glyph-name="Odieresis" unicode="&#xd6;" horiz-adv-x="719" 
d="M701 363q0 -86 -29 -155t-78 -117.5t-113.5 -75t-136.5 -26.5q-65 0 -120.5 23.5t-97 64.5t-65 98t-23.5 124q0 81 29 149.5t78 118t113.5 77.5t136.5 28q64 0 120 -23t97.5 -64.5t65 -98t23.5 -123.5zM530 350q0 74 -40 118.5t-106 44.5q-38 0 -70 -14.5t-55.5 -41.5
t-36.5 -64t-13 -82q0 -76 40 -119t106 -43q38 0 70 14t55.5 40.5t36.5 63.5t13 83zM352 879q18 0 24 -6t4 -23l-13 -108h-136l16 137h105zM562 879q18 0 24 -6t4 -23l-13 -108h-136l16 137h105z" />
    <glyph glyph-name="Omacron" unicode="&#x14c;" horiz-adv-x="719" 
d="M701 363q0 -86 -29 -155t-78 -117.5t-113.5 -75t-136.5 -26.5q-65 0 -120.5 23.5t-97 64.5t-65 98t-23.5 124q0 81 29 149.5t78 118t113.5 77.5t136.5 28q64 0 120 -23t97.5 -64.5t65 -98t23.5 -123.5zM530 350q0 74 -40 118.5t-106 44.5q-38 0 -70 -14.5t-55.5 -41.5
t-36.5 -64t-13 -82q0 -76 40 -119t106 -43q38 0 70 14t55.5 40.5t36.5 63.5t13 83zM247 755l13 114h315l-13 -114h-315z" />
    <glyph glyph-name="Obreve" unicode="&#x14e;" horiz-adv-x="719" 
d="M701 363q0 -86 -29 -155t-78 -117.5t-113.5 -75t-136.5 -26.5q-65 0 -120.5 23.5t-97 64.5t-65 98t-23.5 124q0 81 29 149.5t78 118t113.5 77.5t136.5 28q64 0 120 -23t97.5 -64.5t65 -98t23.5 -123.5zM530 350q0 74 -40 118.5t-106 44.5q-38 0 -70 -14.5t-55.5 -41.5
t-36.5 -64t-13 -82q0 -76 40 -119t106 -43q38 0 70 14t55.5 40.5t36.5 63.5t13 83zM406 730q-37 0 -65.5 12.5t-47.5 34t-28.5 50t-9.5 60.5l97 17q12 -67 66 -67q29 0 48 17t33 50l93 -17q-7 -33 -23 -61.5t-40 -50t-55 -33.5t-68 -12z" />
    <glyph glyph-name="Ohungarumlaut" unicode="&#x150;" horiz-adv-x="719" 
d="M701 363q0 -86 -29 -155t-78 -117.5t-113.5 -75t-136.5 -26.5q-65 0 -120.5 23.5t-97 64.5t-65 98t-23.5 124q0 81 29 149.5t78 118t113.5 77.5t136.5 28q64 0 120 -23t97.5 -64.5t65 -98t23.5 -123.5zM530 350q0 74 -40 118.5t-106 44.5q-38 0 -70 -14.5t-55.5 -41.5
t-36.5 -64t-13 -82q0 -76 40 -119t106 -43q38 0 70 14t55.5 40.5t36.5 63.5t13 83zM685 913l-187 -180l-65 53l142 187q9 12 17.5 14.5t19.5 -7.5zM470 913l-187 -180l-65 53l142 187q9 12 17.5 14.5t19.5 -7.5z" />
    <glyph glyph-name="Oslash" unicode="&#xd8;" horiz-adv-x="719" 
d="M701 363q0 -86 -29 -155t-78 -117.5t-113.5 -75t-136.5 -26.5q-46 0 -87 11.5t-76 33.5l-75 -85l-76 68l75 84q-32 40 -49.5 90t-17.5 108q0 81 29 149.5t78 118t113.5 77.5t136.5 28q93 0 167 -48l85 97l76 -68l-85 -98q30 -39 46.5 -87t16.5 -105zM209 311
q0 -20 3.5 -40t9.5 -36l230 263q-12 7 -30.5 11t-36.5 4q-39 0 -71 -14.5t-55.5 -41.5t-36.5 -64t-13 -82zM530 350q0 18 -3.5 38t-8.5 32l-226 -259q27 -12 63 -12q39 0 71 14t55 40.5t36 63.5t13 83z" />
    <glyph glyph-name="Oslashacute" unicode="&#x1fe;" horiz-adv-x="719" 
d="M701 363q0 -86 -29 -155t-78 -117.5t-113.5 -75t-136.5 -26.5q-46 0 -87 11.5t-76 33.5l-75 -85l-76 68l75 84q-32 40 -49.5 90t-17.5 108q0 81 29 149.5t78 118t113.5 77.5t136.5 28q93 0 167 -48l85 97l76 -68l-85 -98q30 -39 46.5 -87t16.5 -105zM209 311
q0 -20 3.5 -40t9.5 -36l230 263q-12 7 -30.5 11t-36.5 4q-39 0 -71 -14.5t-55.5 -41.5t-36.5 -64t-13 -82zM530 350q0 18 -3.5 38t-8.5 32l-226 -259q27 -12 63 -12q39 0 71 14t55 40.5t36 63.5t13 83zM325 717l-39 62l187 145q11 8 20.5 8.5t17.5 -14.5l48 -88z" />
    <glyph glyph-name="OE" unicode="&#x152;" horiz-adv-x="1051" 
d="M1050 663l-16 -136h-322l-14 -125h289l-16 -134h-290l-15 -132h331l-16 -136h-496l7 56q-32 -30 -77.5 -48.5t-93.5 -18.5q-62 0 -114 24t-89.5 66t-58.5 98.5t-21 122.5q0 78 25.5 145.5t70 118t104.5 79.5t129 29q61 0 109 -27t78 -66l10 84h486zM534 350q0 37 -11 67
t-30.5 51t-46.5 32.5t-60 11.5q-38 0 -70.5 -14.5t-56 -40.5t-37 -63t-13.5 -83q0 -36 11 -66t30.5 -51t46.5 -32.5t60 -11.5q38 0 70.5 14t56 40t37 63t13.5 83z" />
    <glyph glyph-name="Thorn" unicode="&#xde;" horiz-adv-x="634" 
d="M208 100l-12 -100h-165l79 663h165l-12 -100h90q130 0 196.5 -47t66.5 -157q0 -27 -6 -55.5t-17.5 -56t-28 -52.5t-38.5 -44q-30 -27 -70.5 -39t-101.5 -12h-146zM224 230h152q17 0 27 3t19 14q13 15 21.5 43t8.5 55q0 19 -5.5 36t-16.5 26t-29 13.5t-49 4.5h-105z" />
    <glyph glyph-name="Racute" unicode="&#x154;" horiz-adv-x="660" 
d="M366 663q83 0 135.5 -15t84.5 -48q24 -25 36.5 -59t12.5 -82q0 -72 -35 -128t-94 -94l112 -237h-153q-12 0 -17.5 2.5t-10.5 13.5l-78 177q-5 12 -10.5 14t-18.5 2h-109l-25 -209h-165l79 663h256zM469 444q0 40 -17 58q-21 22 -86 22h-108l-21 -180h158q17 0 27.5 3
t19.5 14q13 15 20 38.5t7 44.5zM309 717l-39 62l187 145q11 8 20.5 8.5t17.5 -14.5l48 -88z" />
    <glyph glyph-name="Rcaron" unicode="&#x158;" horiz-adv-x="660" 
d="M366 663q83 0 135.5 -15t84.5 -48q24 -25 36.5 -59t12.5 -82q0 -72 -35 -128t-94 -94l112 -237h-153q-12 0 -17.5 2.5t-10.5 13.5l-78 177q-5 12 -10.5 14t-18.5 2h-109l-25 -209h-165l79 663h256zM469 444q0 40 -17 58q-21 22 -86 22h-108l-21 -180h158q17 0 27.5 3
t19.5 14q13 15 20 38.5t7 44.5zM352 729q-11 0 -16.5 2.5t-12.5 10.5l-107 131l64 58l111 -93h1l133 93q13 -14 25 -29t24 -29l-138 -131q-8 -8 -14 -10.5t-18 -2.5h-52z" />
    <glyph glyph-name="Rcommaaccent" unicode="&#x156;" horiz-adv-x="660" 
d="M366 663q83 0 135.5 -15t84.5 -48q24 -25 36.5 -59t12.5 -82q0 -72 -35 -128t-94 -94l112 -237h-153q-12 0 -17.5 2.5t-10.5 13.5l-78 177q-5 12 -10.5 14t-18.5 2h-109l-25 -209h-165l79 663h256zM469 444q0 40 -17 58q-21 22 -86 22h-108l-21 -180h158q17 0 27.5 3
t19.5 14q13 15 20 38.5t7 44.5zM211 -301l45 243h81q23 0 31 -12t8 -39q0 -21 -9 -44t-33 -63l-60 -99z" />
    <glyph glyph-name="Sacute" unicode="&#x15a;" horiz-adv-x="589" 
d="M116 149q60 -8 101 -12.5t73 -4.5q48 0 75.5 16.5t27.5 50.5q0 23 -19 37t-68 31l-51 19q-45 17 -82 35.5t-62.5 41.5t-39.5 52t-14 67q0 48 21 84t57.5 59.5t86.5 35t108 11.5q60 0 121.5 -11.5t109.5 -29.5l-21 -112l-76 4q-38 2 -72 3.5t-61 1.5q-62 0 -88.5 -8.5
t-26.5 -31.5q0 -16 18 -27t62 -27l54 -20q52 -19 90.5 -38t64 -42t38.5 -52t13 -68q0 -50 -18.5 -91.5t-53.5 -71t-86 -46t-117 -16.5q-69 0 -141.5 16.5t-130.5 42.5l35 111zM265 717l-39 62l187 145q11 8 20.5 8.5t17.5 -14.5l48 -88z" />
    <glyph glyph-name="Scircumflex" unicode="&#x15c;" horiz-adv-x="589" 
d="M116 149q60 -8 101 -12.5t73 -4.5q48 0 75.5 16.5t27.5 50.5q0 23 -19 37t-68 31l-51 19q-45 17 -82 35.5t-62.5 41.5t-39.5 52t-14 67q0 48 21 84t57.5 59.5t86.5 35t108 11.5q60 0 121.5 -11.5t109.5 -29.5l-21 -112l-76 4q-38 2 -72 3.5t-61 1.5q-62 0 -88.5 -8.5
t-26.5 -31.5q0 -16 18 -27t62 -27l54 -20q52 -19 90.5 -38t64 -42t38.5 -52t13 -68q0 -50 -18.5 -91.5t-53.5 -71t-86 -46t-117 -16.5q-69 0 -141.5 16.5t-130.5 42.5l35 111zM396 919q11 0 17 -2.5t13 -10.5l106 -132l-63 -57l-111 92h-1l-133 -92l-50 57l139 132
q8 8 14 10.5t17 2.5h52z" />
    <glyph glyph-name="Scaron" unicode="&#x160;" horiz-adv-x="589" 
d="M116 149q60 -8 101 -12.5t73 -4.5q48 0 75.5 16.5t27.5 50.5q0 23 -19 37t-68 31l-51 19q-45 17 -82 35.5t-62.5 41.5t-39.5 52t-14 67q0 48 21 84t57.5 59.5t86.5 35t108 11.5q60 0 121.5 -11.5t109.5 -29.5l-21 -112l-76 4q-38 2 -72 3.5t-61 1.5q-62 0 -88.5 -8.5
t-26.5 -31.5q0 -16 18 -27t62 -27l54 -20q52 -19 90.5 -38t64 -42t38.5 -52t13 -68q0 -50 -18.5 -91.5t-53.5 -71t-86 -46t-117 -16.5q-69 0 -141.5 16.5t-130.5 42.5l35 111zM325 729q-11 0 -16.5 2.5t-12.5 10.5l-107 131l64 58l111 -93h1l133 93q13 -14 25 -29t24 -29
l-138 -131q-8 -8 -14 -10.5t-18 -2.5h-52z" />
    <glyph glyph-name="Scedilla" unicode="&#x15e;" horiz-adv-x="589" 
d="M116 149q60 -8 101 -12.5t73 -4.5q48 0 75.5 16.5t27.5 50.5q0 23 -19 37t-68 31l-51 19q-45 17 -82 35.5t-62.5 41.5t-39.5 52t-14 67q0 48 21 84t57.5 59.5t86.5 35t108 11.5q60 0 121.5 -11.5t109.5 -29.5l-21 -112l-76 4q-38 2 -72 3.5t-61 1.5q-62 0 -88.5 -8.5
t-26.5 -31.5q0 -16 18 -27t62 -27l54 -20q52 -19 90.5 -38t64 -42t38.5 -52t13 -68q0 -47 -16 -86t-46.5 -68t-75 -47t-101.5 -22q-13 -16 -13 -26q0 -8 14.5 -14t31.5 -15t31.5 -23.5t14.5 -39.5q0 -28 -16.5 -50t-44 -37t-65 -24t-79.5 -10l-5 82l53 9q34 6 34 20
q0 8 -12 14t-27 13t-27 17t-12 25q0 25 36 59q-58 5 -116 20.5t-106 36.5l35 111z" />
    <glyph glyph-name="Scommaaccent" unicode="&#x218;" horiz-adv-x="589" 
d="M116 149q60 -8 101 -12.5t73 -4.5q48 0 75.5 16.5t27.5 50.5q0 23 -19 37t-68 31l-51 19q-45 17 -82 35.5t-62.5 41.5t-39.5 52t-14 67q0 48 21 84t57.5 59.5t86.5 35t108 11.5q60 0 121.5 -11.5t109.5 -29.5l-21 -112l-76 4q-38 2 -72 3.5t-61 1.5q-62 0 -88.5 -8.5
t-26.5 -31.5q0 -16 18 -27t62 -27l54 -20q52 -19 90.5 -38t64 -42t38.5 -52t13 -68q0 -50 -18.5 -91.5t-53.5 -71t-86 -46t-117 -16.5q-69 0 -141.5 16.5t-130.5 42.5l35 111zM172 -301l45 243h81q23 0 31 -12t8 -39q0 -21 -9 -44t-33 -63l-60 -99z" />
    <glyph glyph-name="Tcaron" unicode="&#x164;" horiz-adv-x="614" 
d="M255 527h-211l17 136h585l-17 -136h-209l-62 -527h-165zM333 729q-11 0 -16.5 2.5t-12.5 10.5l-107 131l64 58l111 -93h1l133 93q13 -14 25 -29t24 -29l-138 -131q-8 -8 -14 -10.5t-18 -2.5h-52z" />
    <glyph glyph-name="Tcommaaccent" unicode="&#x162;" horiz-adv-x="614" 
d="M255 527h-211l17 136h585l-17 -136h-209l-62 -527h-165zM165 -301l45 243h81q23 0 31 -12t8 -39q0 -21 -9 -44t-33 -63l-60 -99z" />
    <glyph glyph-name="uni021A" unicode="&#x21a;" horiz-adv-x="614" 
d="M255 527h-211l17 136h585l-17 -136h-209l-62 -527h-165zM165 -301l45 243h81q23 0 31 -12t8 -39q0 -21 -9 -44t-33 -63l-60 -99z" />
    <glyph glyph-name="Tbar" unicode="&#x166;" horiz-adv-x="614" 
d="M224 260h-124l14 116h123l18 151h-211l17 136h585l-17 -136h-209l-18 -151h128l-14 -116h-127l-31 -260h-165z" />
    <glyph glyph-name="Ugrave" unicode="&#xd9;" horiz-adv-x="686" 
d="M524 663h161l-43 -362q-10 -86 -38 -145.5t-70 -96.5t-97.5 -53t-119.5 -16q-58 0 -106.5 17.5t-84 49.5t-55.5 77.5t-20 101.5q0 24 3 61t8 82l34 284h165l-39 -321q-4 -33 -5.5 -53.5t-1.5 -34.5q0 -52 31 -78.5t86 -26.5q75 0 108 43.5t43 125.5zM246 832l70 90
q8 11 17 13t20 -9l157 -147l-55 -62z" />
    <glyph glyph-name="Uacute" unicode="&#xda;" horiz-adv-x="686" 
d="M524 663h161l-43 -362q-10 -86 -38 -145.5t-70 -96.5t-97.5 -53t-119.5 -16q-58 0 -106.5 17.5t-84 49.5t-55.5 77.5t-20 101.5q0 24 3 61t8 82l34 284h165l-39 -321q-4 -33 -5.5 -53.5t-1.5 -34.5q0 -52 31 -78.5t86 -26.5q75 0 108 43.5t43 125.5zM336 717l-39 62
l187 145q11 8 20.5 8.5t17.5 -14.5l48 -88z" />
    <glyph glyph-name="Ucircumflex" unicode="&#xdb;" horiz-adv-x="686" 
d="M524 663h161l-43 -362q-10 -86 -38 -145.5t-70 -96.5t-97.5 -53t-119.5 -16q-58 0 -106.5 17.5t-84 49.5t-55.5 77.5t-20 101.5q0 24 3 61t8 82l34 284h165l-39 -321q-4 -33 -5.5 -53.5t-1.5 -34.5q0 -52 31 -78.5t86 -26.5q75 0 108 43.5t43 125.5zM451 919
q11 0 17 -2.5t13 -10.5l106 -132l-63 -57l-111 92h-1l-133 -92l-50 57l139 132q8 8 14 10.5t17 2.5h52z" />
    <glyph glyph-name="Utilde" unicode="&#x168;" horiz-adv-x="686" 
d="M524 663h161l-43 -362q-10 -86 -38 -145.5t-70 -96.5t-97.5 -53t-119.5 -16q-58 0 -106.5 17.5t-84 49.5t-55.5 77.5t-20 101.5q0 24 3 61t8 82l34 284h165l-39 -321q-4 -33 -5.5 -53.5t-1.5 -34.5q0 -52 31 -78.5t86 -26.5q75 0 108 43.5t43 125.5zM469 736
q-21 0 -38 7.5t-31 16t-25.5 16t-22.5 7.5q-14 0 -26 -13t-27 -39l-79 23q6 27 18 51.5t29 44t39.5 31t49.5 11.5q21 0 38 -7.5t31 -16t25.5 -16t22.5 -7.5q15 0 27.5 13.5t26.5 38.5l79 -23q-6 -27 -18 -51.5t-29.5 -44t-40 -31t-49.5 -11.5z" />
    <glyph glyph-name="Udieresis" unicode="&#xdc;" horiz-adv-x="686" 
d="M524 663h161l-43 -362q-10 -86 -38 -145.5t-70 -96.5t-97.5 -53t-119.5 -16q-58 0 -106.5 17.5t-84 49.5t-55.5 77.5t-20 101.5q0 24 3 61t8 82l34 284h165l-39 -321q-4 -33 -5.5 -53.5t-1.5 -34.5q0 -52 31 -78.5t86 -26.5q75 0 108 43.5t43 125.5zM345 879q18 0 24 -6
t4 -23l-13 -108h-136l16 137h105zM555 879q18 0 24 -6t4 -23l-13 -108h-136l16 137h105z" />
    <glyph glyph-name="Umacron" unicode="&#x16a;" horiz-adv-x="686" 
d="M524 663h161l-43 -362q-10 -86 -38 -145.5t-70 -96.5t-97.5 -53t-119.5 -16q-58 0 -106.5 17.5t-84 49.5t-55.5 77.5t-20 101.5q0 24 3 61t8 82l34 284h165l-39 -321q-4 -33 -5.5 -53.5t-1.5 -34.5q0 -52 31 -78.5t86 -26.5q75 0 108 43.5t43 125.5zM243 755l13 114h315
l-13 -114h-315z" />
    <glyph glyph-name="Ubreve" unicode="&#x16c;" horiz-adv-x="686" 
d="M524 663h161l-43 -362q-10 -86 -38 -145.5t-70 -96.5t-97.5 -53t-119.5 -16q-58 0 -106.5 17.5t-84 49.5t-55.5 77.5t-20 101.5q0 24 3 61t8 82l34 284h165l-39 -321q-4 -33 -5.5 -53.5t-1.5 -34.5q0 -52 31 -78.5t86 -26.5q75 0 108 43.5t43 125.5zM399 730
q-37 0 -65.5 12.5t-47.5 34t-28.5 50t-9.5 60.5l97 17q12 -67 66 -67q29 0 48 17t33 50l93 -17q-7 -33 -23 -61.5t-40 -50t-55 -33.5t-68 -12z" />
    <glyph glyph-name="Uring" unicode="&#x16e;" horiz-adv-x="686" 
d="M524 663h161l-43 -362q-10 -86 -38 -145.5t-70 -96.5t-97.5 -53t-119.5 -16q-58 0 -106.5 17.5t-84 49.5t-55.5 77.5t-20 101.5q0 24 3 61t8 82l34 284h165l-39 -321q-4 -33 -5.5 -53.5t-1.5 -34.5q0 -52 31 -78.5t86 -26.5q75 0 108 43.5t43 125.5zM422 988
q28 0 51.5 -9.5t40 -26.5t26 -40t9.5 -49q0 -31 -10.5 -56t-29.5 -43t-44.5 -28t-55.5 -10q-57 0 -92 35.5t-35 89.5q0 29 10.5 54t29 43.5t44.5 29t56 10.5zM413 808q25 0 38.5 14.5t13.5 37.5q0 20 -12 33.5t-35 13.5q-26 0 -39 -15t-13 -38q0 -20 12 -33t35 -13z" />
    <glyph glyph-name="Uhungarumlaut" unicode="&#x170;" horiz-adv-x="686" 
d="M524 663h161l-43 -362q-10 -86 -38 -145.5t-70 -96.5t-97.5 -53t-119.5 -16q-58 0 -106.5 17.5t-84 49.5t-55.5 77.5t-20 101.5q0 24 3 61t8 82l34 284h165l-39 -321q-4 -33 -5.5 -53.5t-1.5 -34.5q0 -52 31 -78.5t86 -26.5q75 0 108 43.5t43 125.5zM680 913l-187 -180
l-65 53l142 187q9 12 17.5 14.5t19.5 -7.5zM465 913l-187 -180l-65 53l142 187q9 12 17.5 14.5t19.5 -7.5z" />
    <glyph glyph-name="Uogonek" unicode="&#x172;" horiz-adv-x="686" 
d="M222 342q-4 -33 -5.5 -53.5t-1.5 -34.5q0 -52 31 -78.5t86 -26.5q75 0 108 43.5t43 125.5l41 345h161l-43 -362q-8 -68 -27.5 -115t-49 -80t-67 -57t-81.5 -46q-29 -14 -46.5 -26t-28 -22.5t-14 -21t-3.5 -22.5q0 -39 52 -39q8 0 25.5 1.5t34.5 4.5l12 -77
q-24 -13 -55.5 -20.5t-55.5 -7.5q-57 0 -91.5 31t-34.5 79q0 30 17 57.5t47 52.5q-50 5 -91 24.5t-71 51t-46.5 74t-16.5 93.5q0 24 3 61t8 82l34 284h165z" />
    <glyph glyph-name="Wgrave" unicode="&#x1e80;" horiz-adv-x="985" 
d="M654 404q11 -75 16.5 -131.5t6.5 -101.5q17 50 38.5 108t51.5 133l96 239q3 7 6.5 9.5t12.5 2.5h153l-276 -663h-173q-12 0 -16 3.5t-6 11.5l-24 160q-5 30 -9.5 66t-8 71.5t-7 67t-4.5 54.5q-7 -22 -16.5 -52.5t-21 -64.5t-24 -69.5t-25.5 -68.5l-70 -179h-173
q-11 0 -15.5 3.5t-6.5 11.5l-115 648h153q8 0 11 -2.5t5 -10.5l48 -303q7 -45 13.5 -90.5t9.5 -85.5q4 14 10.5 35t14.5 44t16.5 46.5t16.5 43.5l125 323h131q9 0 12.5 -3t5.5 -11zM412 832l70 90q8 11 17 13t20 -9l157 -147l-55 -62z" />
    <glyph glyph-name="Wacute" unicode="&#x1e82;" horiz-adv-x="985" 
d="M654 404q11 -75 16.5 -131.5t6.5 -101.5q17 50 38.5 108t51.5 133l96 239q3 7 6.5 9.5t12.5 2.5h153l-276 -663h-173q-12 0 -16 3.5t-6 11.5l-24 160q-5 30 -9.5 66t-8 71.5t-7 67t-4.5 54.5q-7 -22 -16.5 -52.5t-21 -64.5t-24 -69.5t-25.5 -68.5l-70 -179h-173
q-11 0 -15.5 3.5t-6.5 11.5l-115 648h153q8 0 11 -2.5t5 -10.5l48 -303q7 -45 13.5 -90.5t9.5 -85.5q4 14 10.5 35t14.5 44t16.5 46.5t16.5 43.5l125 323h131q9 0 12.5 -3t5.5 -11zM476 717l-39 62l187 145q11 8 20.5 8.5t17.5 -14.5l48 -88z" />
    <glyph glyph-name="Wcircumflex" unicode="&#x174;" horiz-adv-x="985" 
d="M654 404q11 -75 16.5 -131.5t6.5 -101.5q17 50 38.5 108t51.5 133l96 239q3 7 6.5 9.5t12.5 2.5h153l-276 -663h-173q-12 0 -16 3.5t-6 11.5l-24 160q-5 30 -9.5 66t-8 71.5t-7 67t-4.5 54.5q-7 -22 -16.5 -52.5t-21 -64.5t-24 -69.5t-25.5 -68.5l-70 -179h-173
q-11 0 -15.5 3.5t-6.5 11.5l-115 648h153q8 0 11 -2.5t5 -10.5l48 -303q7 -45 13.5 -90.5t9.5 -85.5q4 14 10.5 35t14.5 44t16.5 46.5t16.5 43.5l125 323h131q9 0 12.5 -3t5.5 -11zM597 919q11 0 17 -2.5t13 -10.5l106 -132l-63 -57l-111 92h-1l-133 -92l-50 57l139 132
q8 8 14 10.5t17 2.5h52z" />
    <glyph glyph-name="Wdieresis" unicode="&#x1e84;" horiz-adv-x="985" 
d="M654 404q11 -75 16.5 -131.5t6.5 -101.5q17 50 38.5 108t51.5 133l96 239q3 7 6.5 9.5t12.5 2.5h153l-276 -663h-173q-12 0 -16 3.5t-6 11.5l-24 160q-5 30 -9.5 66t-8 71.5t-7 67t-4.5 54.5q-7 -22 -16.5 -52.5t-21 -64.5t-24 -69.5t-25.5 -68.5l-70 -179h-173
q-11 0 -15.5 3.5t-6.5 11.5l-115 648h153q8 0 11 -2.5t5 -10.5l48 -303q7 -45 13.5 -90.5t9.5 -85.5q4 14 10.5 35t14.5 44t16.5 46.5t16.5 43.5l125 323h131q9 0 12.5 -3t5.5 -11zM493 879q18 0 24 -6t4 -23l-13 -108h-136l16 137h105zM703 879q18 0 24 -6t4 -23l-13 -108
h-136l16 137h105z" />
    <glyph glyph-name="Ygrave" unicode="&#x1ef2;" horiz-adv-x="668" 
d="M346 338q10 19 20.5 38t23 40.5t27.5 46.5t35 56l83 132q5 8 9 10t12 2h172l-315 -456l-25 -207h-164l25 207l-212 456h166q8 0 12 -2t7 -10l54 -128q13 -32 23.5 -58t19 -47.5t14.5 -41t12 -38.5h1zM207 832l70 90q8 11 17 13t20 -9l157 -147l-55 -62z" />
    <glyph glyph-name="Yacute" unicode="&#xdd;" horiz-adv-x="668" 
d="M346 338q10 19 20.5 38t23 40.5t27.5 46.5t35 56l83 132q5 8 9 10t12 2h172l-315 -456l-25 -207h-164l25 207l-212 456h166q8 0 12 -2t7 -10l54 -128q13 -32 23.5 -58t19 -47.5t14.5 -41t12 -38.5h1zM328 717l-39 62l187 145q11 8 20.5 8.5t17.5 -14.5l48 -88z" />
    <glyph glyph-name="Ycircumflex" unicode="&#x176;" horiz-adv-x="668" 
d="M346 338q10 19 20.5 38t23 40.5t27.5 46.5t35 56l83 132q5 8 9 10t12 2h172l-315 -456l-25 -207h-164l25 207l-212 456h166q8 0 12 -2t7 -10l54 -128q13 -32 23.5 -58t19 -47.5t14.5 -41t12 -38.5h1zM429 919q11 0 17 -2.5t13 -10.5l106 -132l-63 -57l-111 92h-1
l-133 -92l-50 57l139 132q8 8 14 10.5t17 2.5h52z" />
    <glyph glyph-name="Ydieresis" unicode="&#x178;" horiz-adv-x="668" 
d="M346 338q10 19 20.5 38t23 40.5t27.5 46.5t35 56l83 132q5 8 9 10t12 2h172l-315 -456l-25 -207h-164l25 207l-212 456h166q8 0 12 -2t7 -10l54 -128q13 -32 23.5 -58t19 -47.5t14.5 -41t12 -38.5h1zM329 879q18 0 24 -6t4 -23l-13 -108h-136l16 137h105zM539 879
q18 0 24 -6t4 -23l-13 -108h-136l16 137h105z" />
    <glyph glyph-name="Zacute" unicode="&#x179;" horiz-adv-x="600" 
d="M65 527l18 136h527l-11 -87q-2 -12 -3.5 -19.5t-5 -14.5t-9 -14t-15.5 -18l-195 -219q-18 -20 -38 -42t-39.5 -43t-37.5 -39t-32 -31h331l-17 -136h-535l10 83q2 21 9 34.5t25 34.5l193 219q17 19 37 41t40 43t38.5 40t32.5 32h-323zM279 717l-39 62l187 145
q11 8 20.5 8.5t17.5 -14.5l48 -88z" />
    <glyph glyph-name="Zcaron" unicode="&#x17d;" horiz-adv-x="600" 
d="M65 527l18 136h527l-11 -87q-2 -12 -3.5 -19.5t-5 -14.5t-9 -14t-15.5 -18l-195 -219q-18 -20 -38 -42t-39.5 -43t-37.5 -39t-32 -31h331l-17 -136h-535l10 83q2 21 9 34.5t25 34.5l193 219q17 19 37 41t40 43t38.5 40t32.5 32h-323zM328 729q-11 0 -16.5 2.5t-12.5 10.5
l-107 131l64 58l111 -93h1l133 93q13 -14 25 -29t24 -29l-138 -131q-8 -8 -14 -10.5t-18 -2.5h-52z" />
    <glyph glyph-name="Zdotaccent" unicode="&#x17b;" horiz-adv-x="600" 
d="M65 527l18 136h527l-11 -87q-2 -12 -3.5 -19.5t-5 -14.5t-9 -14t-15.5 -18l-195 -219q-18 -20 -38 -42t-39.5 -43t-37.5 -39t-32 -31h331l-17 -136h-535l10 83q2 21 9 34.5t25 34.5l193 219q17 19 37 41t40 43t38.5 40t32.5 32h-323zM407 875q18 0 24.5 -6.5t4.5 -23.5
l-14 -112h-141l17 142h109z" />
    <glyph glyph-name="agrave" unicode="&#xe0;" horiz-adv-x="576" 
d="M550 101l-9 -78q-24 -13 -52 -19.5t-51 -6.5q-31 0 -55.5 12.5t-38.5 35.5l-27 -16q-24 -14 -55 -25.5t-60 -11.5q-39 0 -72 16.5t-57 46.5t-37.5 70.5t-13.5 88.5q0 57 20 108t53 90t77 61.5t92 22.5q29 0 53 -10t48 -27l19 -15l25 45l115 -8l-43 -361zM352 330
q1 8 -1 11.5t-10 6.5q-9 4 -23.5 7.5t-31.5 3.5q-51 0 -78 -39.5t-27 -100.5q0 -40 17 -65t55 -25q18 0 36.5 5.5t29.5 10.5q8 4 10 7.5t3 11.5zM160 660l70 90q8 11 17 13t20 -9l157 -147l-55 -62z" />
    <glyph glyph-name="aacute" unicode="&#xe1;" horiz-adv-x="576" 
d="M550 101l-9 -78q-24 -13 -52 -19.5t-51 -6.5q-31 0 -55.5 12.5t-38.5 35.5l-27 -16q-24 -14 -55 -25.5t-60 -11.5q-39 0 -72 16.5t-57 46.5t-37.5 70.5t-13.5 88.5q0 57 20 108t53 90t77 61.5t92 22.5q29 0 53 -10t48 -27l19 -15l25 45l115 -8l-43 -361zM352 330
q1 8 -1 11.5t-10 6.5q-9 4 -23.5 7.5t-31.5 3.5q-51 0 -78 -39.5t-27 -100.5q0 -40 17 -65t55 -25q18 0 36.5 5.5t29.5 10.5q8 4 10 7.5t3 11.5zM226 547l-39 62l187 145q11 8 20.5 8.5t17.5 -14.5l48 -88z" />
    <glyph glyph-name="acircumflex" unicode="&#xe2;" horiz-adv-x="576" 
d="M550 101l-9 -78q-24 -13 -52 -19.5t-51 -6.5q-31 0 -55.5 12.5t-38.5 35.5l-27 -16q-24 -14 -55 -25.5t-60 -11.5q-39 0 -72 16.5t-57 46.5t-37.5 70.5t-13.5 88.5q0 57 20 108t53 90t77 61.5t92 22.5q29 0 53 -10t48 -27l19 -15l25 45l115 -8l-43 -361zM352 330
q1 8 -1 11.5t-10 6.5q-9 4 -23.5 7.5t-31.5 3.5q-51 0 -78 -39.5t-27 -100.5q0 -40 17 -65t55 -25q18 0 36.5 5.5t29.5 10.5q8 4 10 7.5t3 11.5zM353 747q11 0 17 -2.5t13 -10.5l106 -132l-63 -57l-111 92h-1l-133 -92l-50 57l139 132q8 8 14 10.5t17 2.5h52z" />
    <glyph glyph-name="atilde" unicode="&#xe3;" horiz-adv-x="576" 
d="M550 101l-9 -78q-24 -13 -52 -19.5t-51 -6.5q-31 0 -55.5 12.5t-38.5 35.5l-27 -16q-24 -14 -55 -25.5t-60 -11.5q-39 0 -72 16.5t-57 46.5t-37.5 70.5t-13.5 88.5q0 57 20 108t53 90t77 61.5t92 22.5q29 0 53 -10t48 -27l19 -15l25 45l115 -8l-43 -361zM352 330
q1 8 -1 11.5t-10 6.5q-9 4 -23.5 7.5t-31.5 3.5q-51 0 -78 -39.5t-27 -100.5q0 -40 17 -65t55 -25q18 0 36.5 5.5t29.5 10.5q8 4 10 7.5t3 11.5zM379 564q-21 0 -38 7.5t-31 16t-25.5 16t-22.5 7.5q-14 0 -26 -13t-27 -39l-79 23q6 27 18 51.5t29 44t39.5 31t49.5 11.5
q21 0 38 -7.5t31 -16t25.5 -16t22.5 -7.5q15 0 27.5 13.5t26.5 38.5l79 -23q-6 -27 -18 -51.5t-29.5 -44t-40 -31t-49.5 -11.5z" />
    <glyph glyph-name="adieresis" unicode="&#xe4;" horiz-adv-x="576" 
d="M550 101l-9 -78q-24 -13 -52 -19.5t-51 -6.5q-31 0 -55.5 12.5t-38.5 35.5l-27 -16q-24 -14 -55 -25.5t-60 -11.5q-39 0 -72 16.5t-57 46.5t-37.5 70.5t-13.5 88.5q0 57 20 108t53 90t77 61.5t92 22.5q29 0 53 -10t48 -27l19 -15l25 45l115 -8l-43 -361zM352 330
q1 8 -1 11.5t-10 6.5q-9 4 -23.5 7.5t-31.5 3.5q-51 0 -78 -39.5t-27 -100.5q0 -40 17 -65t55 -25q18 0 36.5 5.5t29.5 10.5q8 4 10 7.5t3 11.5zM259 707q18 0 24 -6t4 -23l-13 -108h-136l16 137h105zM469 707q18 0 24 -6t4 -23l-13 -108h-136l16 137h105z" />
    <glyph glyph-name="amacron" unicode="&#x101;" horiz-adv-x="576" 
d="M550 101l-9 -78q-24 -13 -52 -19.5t-51 -6.5q-31 0 -55.5 12.5t-38.5 35.5l-27 -16q-24 -14 -55 -25.5t-60 -11.5q-39 0 -72 16.5t-57 46.5t-37.5 70.5t-13.5 88.5q0 57 20 108t53 90t77 61.5t92 22.5q29 0 53 -10t48 -27l19 -15l25 45l115 -8l-43 -361zM352 330
q1 8 -1 11.5t-10 6.5q-9 4 -23.5 7.5t-31.5 3.5q-51 0 -78 -39.5t-27 -100.5q0 -40 17 -65t55 -25q18 0 36.5 5.5t29.5 10.5q8 4 10 7.5t3 11.5zM165 583l13 114h315l-13 -114h-315z" />
    <glyph glyph-name="abreve" unicode="&#x103;" horiz-adv-x="576" 
d="M550 101l-9 -78q-24 -13 -52 -19.5t-51 -6.5q-31 0 -55.5 12.5t-38.5 35.5l-27 -16q-24 -14 -55 -25.5t-60 -11.5q-39 0 -72 16.5t-57 46.5t-37.5 70.5t-13.5 88.5q0 57 20 108t53 90t77 61.5t92 22.5q29 0 53 -10t48 -27l19 -15l25 45l115 -8l-43 -361zM352 330
q1 8 -1 11.5t-10 6.5q-9 4 -23.5 7.5t-31.5 3.5q-51 0 -78 -39.5t-27 -100.5q0 -40 17 -65t55 -25q18 0 36.5 5.5t29.5 10.5q8 4 10 7.5t3 11.5zM309 558q-37 0 -65.5 12.5t-47.5 34t-28.5 50t-9.5 60.5l97 17q12 -67 66 -67q29 0 48 17t33 50l93 -17q-7 -33 -23 -61.5
t-40 -50t-55 -33.5t-68 -12z" />
    <glyph glyph-name="acaron" unicode="&#x1ce;" horiz-adv-x="576" 
d="M550 101l-9 -78q-24 -13 -52 -19.5t-51 -6.5q-31 0 -55.5 12.5t-38.5 35.5l-27 -16q-24 -14 -55 -25.5t-60 -11.5q-39 0 -72 16.5t-57 46.5t-37.5 70.5t-13.5 88.5q0 57 20 108t53 90t77 61.5t92 22.5q29 0 53 -10t48 -27l19 -15l25 45l115 -8l-43 -361zM352 330
q1 8 -1 11.5t-10 6.5q-9 4 -23.5 7.5t-31.5 3.5q-51 0 -78 -39.5t-27 -100.5q0 -40 17 -65t55 -25q18 0 36.5 5.5t29.5 10.5q8 4 10 7.5t3 11.5zM278 557q-11 0 -16.5 2.5t-12.5 10.5l-107 131l64 58l111 -93h1l133 93q13 -14 25 -29t24 -29l-138 -131q-8 -8 -14 -10.5
t-18 -2.5h-52z" />
    <glyph glyph-name="aring" unicode="&#xe5;" horiz-adv-x="576" 
d="M550 101l-9 -78q-24 -13 -52 -19.5t-51 -6.5q-31 0 -55.5 12.5t-38.5 35.5l-27 -16q-24 -14 -55 -25.5t-60 -11.5q-39 0 -72 16.5t-57 46.5t-37.5 70.5t-13.5 88.5q0 57 20 108t53 90t77 61.5t92 22.5q29 0 53 -10t48 -27l19 -15l25 45l115 -8l-43 -361zM352 330
q1 8 -1 11.5t-10 6.5q-9 4 -23.5 7.5t-31.5 3.5q-51 0 -78 -39.5t-27 -100.5q0 -40 17 -65t55 -25q18 0 36.5 5.5t29.5 10.5q8 4 10 7.5t3 11.5zM325 816q28 0 51.5 -9.5t40 -26.5t26 -40t9.5 -49q0 -31 -10.5 -56t-29.5 -43t-44.5 -28t-55.5 -10q-57 0 -92 35.5t-35 89.5
q0 29 10.5 54t29 43.5t44.5 29t56 10.5zM316 636q25 0 38.5 14.5t13.5 37.5q0 20 -12 33.5t-35 13.5q-26 0 -39 -15t-13 -38q0 -20 12 -33t35 -13z" />
    <glyph glyph-name="aringacute" unicode="&#x1fb;" horiz-adv-x="576" 
d="M550 101l-9 -78q-24 -13 -52 -19.5t-51 -6.5q-31 0 -55.5 12.5t-38.5 35.5l-27 -16q-24 -14 -55 -25.5t-60 -11.5q-39 0 -72 16.5t-57 46.5t-37.5 70.5t-13.5 88.5q0 57 20 108t53 90t77 61.5t92 22.5q29 0 53 -10t48 -27l19 -15l25 45l115 -8l-43 -361zM352 330
q1 8 -1 11.5t-10 6.5q-9 4 -23.5 7.5t-31.5 3.5q-51 0 -78 -39.5t-27 -100.5q0 -40 17 -65t55 -25q18 0 36.5 5.5t29.5 10.5q8 4 10 7.5t3 11.5zM324 793q28 0 51.5 -9.5t40 -26.5t26 -40t9.5 -49q0 -31 -10.5 -56t-29.5 -43t-44.5 -28t-55.5 -10q-57 0 -92 35.5t-35 89.5
q0 29 10.5 54t29 43.5t44.5 29t56 10.5zM315 613q25 0 38.5 14.5t13.5 37.5q0 20 -12 33.5t-35 13.5q-26 0 -39 -15t-13 -38q0 -20 12 -33t35 -13zM251 806l-39 62l187 145q11 8 20.5 8.5t17.5 -14.5l48 -88z" />
    <glyph glyph-name="aogonek" unicode="&#x105;" horiz-adv-x="576" 
d="M378 12q-9 5 -18 13.5t-16 19.5l-27 -16q-24 -14 -55 -25.5t-60 -11.5q-39 0 -72 16.5t-57 46.5t-37.5 70.5t-13.5 88.5q0 57 20 108t53 90t77 61.5t92 22.5q29 0 53 -10t48 -27l19 -15l25 45l115 -8l-43 -361l69 -19l-9 -78q-20 -6 -46.5 -16.5t-51 -25.5t-41.5 -33.5
t-17 -41.5q0 -42 52 -42q8 0 25.5 2t34.5 5l12 -77q-24 -13 -55.5 -20t-55.5 -7q-57 0 -91.5 30.5t-34.5 78.5q0 26 11 47.5t27 38.5t34.5 29.5t33.5 20.5zM352 330q1 8 -1 11.5t-10 6.5q-9 4 -23.5 7.5t-31.5 3.5q-51 0 -78 -39.5t-27 -100.5q0 -40 17 -65t55 -25
q18 0 36.5 5.5t29.5 10.5q8 4 10 7.5t3 11.5z" />
    <glyph glyph-name="ae" unicode="&#xe6;" horiz-adv-x="813" 
d="M190 198q-33 0 -33 -36q0 -22 15.5 -37.5t50.5 -15.5q23 0 51 7.5t48 18.5q-5 14 -8.5 30t-4.5 33h-119zM544 -8q-52 0 -94.5 16t-74.5 45l-47 -24q-31 -16 -68 -26.5t-72 -10.5q-39 0 -70.5 12t-54 33t-34.5 50t-12 62q0 35 12.5 62.5t35 47t54 30t68.5 10.5
q30 0 62.5 -6t61.5 -17q2 9 4.5 21t2.5 25q0 21 -16 33t-52 12q-46 0 -110 -14l-47 -10l-30 84q47 30 104 49.5t108 19.5q45 0 81.5 -14t59.5 -35q32 23 69 36t79 13q46 0 86.5 -15.5t71 -44.5t48 -70t17.5 -91q0 -41 -7.5 -59t-27.5 -18h-290q4 -35 32.5 -54.5t70.5 -19.5
q20 0 42.5 3.5t57.5 11.5l60 14l38 -84q-18 -16 -43.5 -30t-54.5 -24.5t-60 -16.5t-61 -6zM640 300q-2 31 -23 50t-55 19q-35 0 -59 -18t-33 -51h170z" />
    <glyph glyph-name="aeacute" unicode="&#x1fd;" horiz-adv-x="813" 
d="M190 198q-33 0 -33 -36q0 -22 15.5 -37.5t50.5 -15.5q23 0 51 7.5t48 18.5q-5 14 -8.5 30t-4.5 33h-119zM544 -8q-52 0 -94.5 16t-74.5 45l-47 -24q-31 -16 -68 -26.5t-72 -10.5q-39 0 -70.5 12t-54 33t-34.5 50t-12 62q0 35 12.5 62.5t35 47t54 30t68.5 10.5
q30 0 62.5 -6t61.5 -17q2 9 4.5 21t2.5 25q0 21 -16 33t-52 12q-46 0 -110 -14l-47 -10l-30 84q47 30 104 49.5t108 19.5q45 0 81.5 -14t59.5 -35q32 23 69 36t79 13q46 0 86.5 -15.5t71 -44.5t48 -70t17.5 -91q0 -41 -7.5 -59t-27.5 -18h-290q4 -35 32.5 -54.5t70.5 -19.5
q20 0 42.5 3.5t57.5 11.5l60 14l38 -84q-18 -16 -43.5 -30t-54.5 -24.5t-60 -16.5t-61 -6zM640 300q-2 31 -23 50t-55 19q-35 0 -59 -18t-33 -51h170zM365 547l-39 62l187 145q11 8 20.5 8.5t17.5 -14.5l48 -88z" />
    <glyph glyph-name="cacute" unicode="&#x107;" horiz-adv-x="510" 
d="M480 84q-22 -21 -50 -38t-58.5 -29t-61.5 -18.5t-58 -6.5q-50 0 -92 16t-73 46t-48 72.5t-17 95.5q0 58 20 108t55 87t82.5 58t101.5 21q39 0 74 -12.5t62.5 -35t47 -55t28.5 -72.5l-102 -46l-40 40q-26 26 -41 36t-35 10t-37 -10t-30 -27.5t-20 -41t-7 -49.5
q0 -48 23.5 -77t72.5 -29q35 0 103 21l58 19zM223 547l-39 62l187 145q11 8 20.5 8.5t17.5 -14.5l48 -88z" />
    <glyph glyph-name="ccedilla" unicode="&#xe7;" horiz-adv-x="510" 
d="M480 85q-20 -19 -45 -35t-53 -28t-56 -19.5t-54 -9.5q-14 -15 -14 -27q0 -8 14.5 -14t31.5 -15t31.5 -23.5t14.5 -39.5q0 -28 -16.5 -50t-44 -37t-65 -24t-79.5 -10l-5 82l53 9q34 6 34 20q0 8 -12 14t-27 13t-27 17t-12 25q0 14 11.5 30.5t31.5 35.5q-76 17 -123 75
t-47 148q0 58 20 108t55 87t82.5 58t101.5 21q39 0 74 -12.5t62.5 -35t47 -55t28.5 -72.5l-102 -46l-40 40q-26 26 -41 36t-35 10t-37 -10t-30 -27.5t-20 -41t-7 -49.5q0 -48 23.5 -77t72.5 -29q19 0 44 5.5t59 16.5l58 19z" />
    <glyph glyph-name="ccircumflex" unicode="&#x109;" horiz-adv-x="510" 
d="M480 84q-22 -21 -50 -38t-58.5 -29t-61.5 -18.5t-58 -6.5q-50 0 -92 16t-73 46t-48 72.5t-17 95.5q0 58 20 108t55 87t82.5 58t101.5 21q39 0 74 -12.5t62.5 -35t47 -55t28.5 -72.5l-102 -46l-40 40q-26 26 -41 36t-35 10t-37 -10t-30 -27.5t-20 -41t-7 -49.5
q0 -48 23.5 -77t72.5 -29q35 0 103 21l58 19zM343 747q11 0 17 -2.5t13 -10.5l106 -132l-63 -57l-111 92h-1l-133 -92l-50 57l139 132q8 8 14 10.5t17 2.5h52z" />
    <glyph glyph-name="ccaron" unicode="&#x10d;" horiz-adv-x="510" 
d="M480 84q-22 -21 -50 -38t-58.5 -29t-61.5 -18.5t-58 -6.5q-50 0 -92 16t-73 46t-48 72.5t-17 95.5q0 58 20 108t55 87t82.5 58t101.5 21q39 0 74 -12.5t62.5 -35t47 -55t28.5 -72.5l-102 -46l-40 40q-26 26 -41 36t-35 10t-37 -10t-30 -27.5t-20 -41t-7 -49.5
q0 -48 23.5 -77t72.5 -29q35 0 103 21l58 19zM266 557q-11 0 -16.5 2.5t-12.5 10.5l-107 131l64 58l111 -93h1l133 93q13 -14 25 -29t24 -29l-138 -131q-8 -8 -14 -10.5t-18 -2.5h-52z" />
    <glyph glyph-name="cdotaccent" unicode="&#x10b;" horiz-adv-x="510" 
d="M480 84q-22 -21 -50 -38t-58.5 -29t-61.5 -18.5t-58 -6.5q-50 0 -92 16t-73 46t-48 72.5t-17 95.5q0 58 20 108t55 87t82.5 58t101.5 21q39 0 74 -12.5t62.5 -35t47 -55t28.5 -72.5l-102 -46l-40 40q-26 26 -41 36t-35 10t-37 -10t-30 -27.5t-20 -41t-7 -49.5
q0 -48 23.5 -77t72.5 -29q35 0 103 21l58 19zM348 703q18 0 24.5 -6.5t4.5 -23.5l-14 -112h-141l17 142h109z" />
    <glyph glyph-name="dcaron" unicode="&#x10f;" horiz-adv-x="699" 
d="M259 496q30 0 56.5 -10.5t52.5 -28.5l30 252h156l-70 -589l69 -19l-10 -78q-23 -13 -51 -19t-51 -6q-32 0 -57 13t-39 36l-26 -16q-8 -5 -21 -11.5t-28.5 -12.5t-33.5 -10.5t-36 -4.5q-39 0 -71.5 16.5t-56.5 46.5t-37 70.5t-13 88.5q0 56 19 107t51.5 90t75.5 62t91 23z
M354 328q1 9 0 12.5t-8 6.5q-25 11 -62 11q-48 0 -75.5 -37.5t-27.5 -100.5q0 -42 17.5 -65.5t52.5 -23.5q17 0 38.5 5t33.5 13q6 4 8 7t3 11zM582 466l45 243h81q23 0 31 -12t8 -39q0 -21 -9 -44t-33 -63l-60 -99z" />
    <glyph glyph-name="dcroat" unicode="&#x111;" horiz-adv-x="580" 
d="M259 496q30 0 56.5 -10.5t52.5 -28.5l11 92h-127l11 91h127l8 69h156l-8 -69l64 -12l-9 -79h-66l-51 -429l69 -19l-10 -78q-23 -13 -51 -19t-51 -6q-32 0 -57 13t-39 36l-26 -16q-8 -5 -21 -11.5t-28.5 -12.5t-33.5 -10.5t-36 -4.5q-39 0 -71.5 16.5t-56.5 46.5t-37 70.5
t-13 88.5q0 56 19 107t51.5 90t75.5 62t91 23zM354 328q2 10 0.5 13t-8.5 6q-25 11 -62 11q-48 0 -75.5 -37.5t-27.5 -100.5q0 -42 17.5 -65.5t52.5 -23.5q17 0 38.5 5t33.5 13q6 4 8 7t3 11z" />
    <glyph glyph-name="eth" unicode="&#xf0;" horiz-adv-x="557" 
d="M364 433q-5 26 -16.5 55t-29.5 52l-111 -56l-49 89l74 39q-17 10 -36 21t-36 20l54 84q35 -9 71.5 -25.5t66.5 -36.5l132 70l49 -90l-97 -52q45 -53 70 -120t25 -150q0 -64 -16 -125.5t-49.5 -109.5t-85 -77t-122.5 -29q-46 0 -87 15.5t-72.5 45.5t-50 73.5t-18.5 98.5
q0 52 17 96t46.5 75t69.5 48.5t86 17.5q27 0 58 -7.5t57 -21.5zM269 131q54 0 79.5 46.5t25.5 125.5q0 11 -2.5 15.5t-10.5 8.5q-13 6 -32.5 10.5t-42.5 4.5q-48 0 -76 -27t-28 -79q0 -48 22.5 -76.5t64.5 -28.5z" />
    <glyph glyph-name="egrave" unicode="&#xe8;" horiz-adv-x="529" 
d="M178 198q5 -35 33 -54.5t70 -19.5q20 0 42.5 3.5t57.5 11.5l60 14l38 -84q-18 -16 -43.5 -30t-54.5 -24.5t-60 -16.5t-61 -6q-53 0 -96.5 16.5t-75 46.5t-49 73t-17.5 96q0 61 21 111t56.5 86t82.5 55.5t99 19.5q46 0 86.5 -15.5t70.5 -44.5t47.5 -70t17.5 -91
q0 -41 -7.5 -59t-27.5 -18h-290zM356 300q-2 30 -22.5 49.5t-55.5 19.5t-59 -17.5t-33 -51.5h170zM169 660l70 90q8 11 17 13t20 -9l157 -147l-55 -62z" />
    <glyph glyph-name="eacute" unicode="&#xe9;" horiz-adv-x="529" 
d="M178 198q5 -35 33 -54.5t70 -19.5q20 0 42.5 3.5t57.5 11.5l60 14l38 -84q-18 -16 -43.5 -30t-54.5 -24.5t-60 -16.5t-61 -6q-53 0 -96.5 16.5t-75 46.5t-49 73t-17.5 96q0 61 21 111t56.5 86t82.5 55.5t99 19.5q46 0 86.5 -15.5t70.5 -44.5t47.5 -70t17.5 -91
q0 -41 -7.5 -59t-27.5 -18h-290zM356 300q-2 30 -22.5 49.5t-55.5 19.5t-59 -17.5t-33 -51.5h170zM214 547l-39 62l187 145q11 8 20.5 8.5t17.5 -14.5l48 -88z" />
    <glyph glyph-name="ecircumflex" unicode="&#xea;" horiz-adv-x="529" 
d="M178 198q5 -35 33 -54.5t70 -19.5q20 0 42.5 3.5t57.5 11.5l60 14l38 -84q-18 -16 -43.5 -30t-54.5 -24.5t-60 -16.5t-61 -6q-53 0 -96.5 16.5t-75 46.5t-49 73t-17.5 96q0 61 21 111t56.5 86t82.5 55.5t99 19.5q46 0 86.5 -15.5t70.5 -44.5t47.5 -70t17.5 -91
q0 -41 -7.5 -59t-27.5 -18h-290zM356 300q-2 30 -22.5 49.5t-55.5 19.5t-59 -17.5t-33 -51.5h170zM343 747q11 0 17 -2.5t13 -10.5l106 -132l-63 -57l-111 92h-1l-133 -92l-50 57l139 132q8 8 14 10.5t17 2.5h52z" />
    <glyph glyph-name="ecaron" unicode="&#x11b;" horiz-adv-x="529" 
d="M178 198q5 -35 33 -54.5t70 -19.5q20 0 42.5 3.5t57.5 11.5l60 14l38 -84q-18 -16 -43.5 -30t-54.5 -24.5t-60 -16.5t-61 -6q-53 0 -96.5 16.5t-75 46.5t-49 73t-17.5 96q0 61 21 111t56.5 86t82.5 55.5t99 19.5q46 0 86.5 -15.5t70.5 -44.5t47.5 -70t17.5 -91
q0 -41 -7.5 -59t-27.5 -18h-290zM356 300q-2 30 -22.5 49.5t-55.5 19.5t-59 -17.5t-33 -51.5h170zM267 557q-11 0 -16.5 2.5t-12.5 10.5l-107 131l64 58l111 -93h1l133 93q13 -14 25 -29t24 -29l-138 -131q-8 -8 -14 -10.5t-18 -2.5h-52z" />
    <glyph glyph-name="edieresis" unicode="&#xeb;" horiz-adv-x="529" 
d="M178 198q5 -35 33 -54.5t70 -19.5q20 0 42.5 3.5t57.5 11.5l60 14l38 -84q-18 -16 -43.5 -30t-54.5 -24.5t-60 -16.5t-61 -6q-53 0 -96.5 16.5t-75 46.5t-49 73t-17.5 96q0 61 21 111t56.5 86t82.5 55.5t99 19.5q46 0 86.5 -15.5t70.5 -44.5t47.5 -70t17.5 -91
q0 -41 -7.5 -59t-27.5 -18h-290zM356 300q-2 30 -22.5 49.5t-55.5 19.5t-59 -17.5t-33 -51.5h170zM244 707q18 0 24 -6t4 -23l-13 -108h-136l16 137h105zM454 707q18 0 24 -6t4 -23l-13 -108h-136l16 137h105z" />
    <glyph glyph-name="emacron" unicode="&#x113;" horiz-adv-x="529" 
d="M178 198q5 -35 33 -54.5t70 -19.5q20 0 42.5 3.5t57.5 11.5l60 14l38 -84q-18 -16 -43.5 -30t-54.5 -24.5t-60 -16.5t-61 -6q-53 0 -96.5 16.5t-75 46.5t-49 73t-17.5 96q0 61 21 111t56.5 86t82.5 55.5t99 19.5q46 0 86.5 -15.5t70.5 -44.5t47.5 -70t17.5 -91
q0 -41 -7.5 -59t-27.5 -18h-290zM356 300q-2 30 -22.5 49.5t-55.5 19.5t-59 -17.5t-33 -51.5h170zM141 583l13 114h315l-13 -114h-315z" />
    <glyph glyph-name="ebreve" unicode="&#x115;" horiz-adv-x="529" 
d="M178 198q5 -35 33 -54.5t70 -19.5q20 0 42.5 3.5t57.5 11.5l60 14l38 -84q-18 -16 -43.5 -30t-54.5 -24.5t-60 -16.5t-61 -6q-53 0 -96.5 16.5t-75 46.5t-49 73t-17.5 96q0 61 21 111t56.5 86t82.5 55.5t99 19.5q46 0 86.5 -15.5t70.5 -44.5t47.5 -70t17.5 -91
q0 -41 -7.5 -59t-27.5 -18h-290zM356 300q-2 30 -22.5 49.5t-55.5 19.5t-59 -17.5t-33 -51.5h170zM292 558q-37 0 -65.5 12.5t-47.5 34t-28.5 50t-9.5 60.5l97 17q12 -67 66 -67q29 0 48 17t33 50l93 -17q-7 -33 -23 -61.5t-40 -50t-55 -33.5t-68 -12z" />
    <glyph glyph-name="edotaccent" unicode="&#x117;" horiz-adv-x="529" 
d="M178 198q5 -35 33 -54.5t70 -19.5q20 0 42.5 3.5t57.5 11.5l60 14l38 -84q-18 -16 -43.5 -30t-54.5 -24.5t-60 -16.5t-61 -6q-53 0 -96.5 16.5t-75 46.5t-49 73t-17.5 96q0 61 21 111t56.5 86t82.5 55.5t99 19.5q46 0 86.5 -15.5t70.5 -44.5t47.5 -70t17.5 -91
q0 -41 -7.5 -59t-27.5 -18h-290zM356 300q-2 30 -22.5 49.5t-55.5 19.5t-59 -17.5t-33 -51.5h170zM350 703q18 0 24.5 -6.5t4.5 -23.5l-14 -112h-141l17 142h109z" />
    <glyph glyph-name="eogonek" unicode="&#x119;" horiz-adv-x="529" 
d="M356 300q-2 31 -23 50t-55 19q-35 0 -59 -18t-33 -51h170zM294 -5q-15 -3 -34 -3q-53 0 -96.5 16.5t-75 46.5t-49 73t-17.5 96q0 61 21 111t56.5 86t82.5 55.5t98 19.5q46 0 86.5 -16t71 -45t48 -70t17.5 -91q0 -41 -7.5 -58.5t-27.5 -17.5h-290q5 -35 31.5 -54.5
t71.5 -19.5q20 0 42.5 3.5t57.5 11.5l60 14l38 -84q-39 -26 -66.5 -47.5t-45 -41t-25.5 -37.5t-8 -37q0 -42 52 -42q8 0 25.5 2t34.5 5l12 -77q-24 -13 -55.5 -20t-55.5 -7q-57 0 -91.5 30.5t-34.5 78.5q0 38 22 69t51 50z" />
    <glyph glyph-name="gcircumflex" unicode="&#x11d;" horiz-adv-x="548" 
d="M472 12q-14 -116 -71.5 -180t-167.5 -64q-45 0 -95 13.5t-95 34.5l29 97l60 -8q27 -4 46.5 -5.5t33.5 -1.5q27 0 45.5 6t30.5 19.5t18.5 34.5t10.5 51l3 25q-59 -36 -116 -36q-39 0 -72 16.5t-57.5 45.5t-38.5 69t-14 88q0 57 20 108t53 89t76.5 60t91.5 22
q29 0 55.5 -11t49.5 -27l20 -14l24 45l115 -8zM355 328q1 8 0 11t-9 7q-24 12 -58 12q-48 0 -78.5 -34t-30.5 -98q0 -42 19.5 -67t55.5 -25q18 0 37 4t33 11q10 5 11 16zM349 747q11 0 17 -2.5t13 -10.5l106 -132l-63 -57l-111 92h-1l-133 -92l-50 57l139 132q8 8 14 10.5
t17 2.5h52z" />
    <glyph glyph-name="gbreve" unicode="&#x11f;" horiz-adv-x="548" 
d="M472 12q-14 -116 -71.5 -180t-167.5 -64q-45 0 -95 13.5t-95 34.5l29 97l60 -8q27 -4 46.5 -5.5t33.5 -1.5q27 0 45.5 6t30.5 19.5t18.5 34.5t10.5 51l3 25q-59 -36 -116 -36q-39 0 -72 16.5t-57.5 45.5t-38.5 69t-14 88q0 57 20 108t53 89t76.5 60t91.5 22
q29 0 55.5 -11t49.5 -27l20 -14l24 45l115 -8zM355 328q1 8 0 11t-9 7q-24 12 -58 12q-48 0 -78.5 -34t-30.5 -98q0 -42 19.5 -67t55.5 -25q18 0 37 4t33 11q10 5 11 16zM301 558q-37 0 -65.5 12.5t-47.5 34t-28.5 50t-9.5 60.5l97 17q12 -67 66 -67q29 0 48 17t33 50
l93 -17q-7 -33 -23 -61.5t-40 -50t-55 -33.5t-68 -12z" />
    <glyph glyph-name="gdotaccent" unicode="&#x121;" horiz-adv-x="548" 
d="M472 12q-14 -116 -71.5 -180t-167.5 -64q-45 0 -95 13.5t-95 34.5l29 97l60 -8q27 -4 46.5 -5.5t33.5 -1.5q27 0 45.5 6t30.5 19.5t18.5 34.5t10.5 51l3 25q-59 -36 -116 -36q-39 0 -72 16.5t-57.5 45.5t-38.5 69t-14 88q0 57 20 108t53 89t76.5 60t91.5 22
q29 0 55.5 -11t49.5 -27l20 -14l24 45l115 -8zM355 328q1 8 0 11t-9 7q-24 12 -58 12q-48 0 -78.5 -34t-30.5 -98q0 -42 19.5 -67t55.5 -25q18 0 37 4t33 11q10 5 11 16zM357 703q18 0 24.5 -6.5t4.5 -23.5l-14 -112h-141l17 142h109z" />
    <glyph glyph-name="gcommaaccent" unicode="&#x123;" horiz-adv-x="548" 
d="M472 12q-14 -116 -71.5 -180t-167.5 -64q-45 0 -95 13.5t-95 34.5l29 97l60 -8q27 -4 46.5 -5.5t33.5 -1.5q27 0 45.5 6t30.5 19.5t18.5 34.5t10.5 51l3 25q-59 -36 -116 -36q-39 0 -72 16.5t-57.5 45.5t-38.5 69t-14 88q0 57 20 108t53 89t76.5 60t91.5 22
q29 0 55.5 -11t49.5 -27l20 -14l24 45l115 -8zM355 328q1 8 0 11t-9 7q-24 12 -58 12q-48 0 -78.5 -34t-30.5 -98q0 -42 19.5 -67t55.5 -25q18 0 37 4t33 11q10 5 11 16zM405.976 791.951l-44.998 -242.984h-80.9951q-22.998 0 -30.998 11.999
q-7.99902 11.999 -7.99902 38.9971q0 20.999 8.99902 43.998q9 22.998 32.998 62.9961l59.9971 98.9941z" />
    <glyph glyph-name="hcircumflex" unicode="&#x125;" horiz-adv-x="551" 
d="M355 278q1 6 2 15.5t1 14.5q0 24 -15.5 33.5t-44.5 9.5q-19 0 -37.5 -4t-32.5 -9q-8 -3 -9.5 -5.5t-2.5 -9.5l-38 -323h-156l84 709h156l-30 -255l9 5q32 17 61 27t57 10q33 0 61.5 -11t49.5 -32t33 -51.5t12 -69.5q0 -13 -1.5 -28.5t-3.5 -32.5l-32 -271h-156zM231 931
q11 0 17 -2.5t13 -10.5l106 -132l-63 -57l-111 92h-1l-133 -92l-50 57l139 132q8 8 14 10.5t17 2.5h52z" />
    <glyph glyph-name="hbar" unicode="&#x127;" horiz-adv-x="551" 
d="M355 278q1 6 2 15.5t1 14.5q0 24 -15.5 33.5t-44.5 9.5q-19 0 -37.5 -4t-32.5 -9q-8 -3 -9.5 -5.5t-2.5 -9.5l-38 -323h-156l65 549h-67l10 79l68 11l8 70h156l-8 -69h127l-10 -91h-128l-11 -95l9 5q32 17 61 27t57 10q33 0 61.5 -11t49.5 -32t33 -51.5t12 -69.5
q0 -13 -1.5 -28.5t-3.5 -32.5l-32 -271h-156z" />
    <glyph glyph-name="dotlessi" unicode="&#x131;" horiz-adv-x="262" 
d="M82 488h156l-58 -488h-156z" />
    <glyph glyph-name="igrave" unicode="&#xec;" horiz-adv-x="262" 
d="M31 660l70 90q8 11 17 13t20 -9l157 -147l-55 -62zM82 488h156l-58 -488h-156z" />
    <glyph glyph-name="iacute" unicode="&#xed;" horiz-adv-x="262" 
d="M94 547l-39 62l187 145q11 8 20.5 8.5t17.5 -14.5l48 -88zM82 488h156l-58 -488h-156z" />
    <glyph glyph-name="icircumflex" unicode="&#xee;" horiz-adv-x="262" 
d="M82 488h156l-58 -488h-156zM214 747q11 0 17 -2.5t13 -10.5l106 -132l-63 -57l-111 92h-1l-133 -92l-50 57l139 132q8 8 14 10.5t17 2.5h52z" />
    <glyph glyph-name="itilde" unicode="&#x129;" horiz-adv-x="262" 
d="M236 564q-21 0 -38 7.5t-31 16t-25.5 16t-22.5 7.5q-14 0 -26 -13t-27 -39l-79 23q6 27 18 51.5t29 44t39.5 31t49.5 11.5q21 0 38 -7.5t31 -16t25.5 -16t22.5 -7.5q15 0 27.5 13.5t26.5 38.5l79 -23q-6 -27 -18 -51.5t-29.5 -44t-40 -31t-49.5 -11.5zM82 488h156
l-58 -488h-156z" />
    <glyph glyph-name="idieresis" unicode="&#xef;" horiz-adv-x="262" 
d="M118 707q18 0 24 -6t4 -23l-13 -108h-136l16 137h105zM328 707q18 0 24 -6t4 -23l-13 -108h-136l16 137h105zM82 488h156l-58 -488h-156z" />
    <glyph glyph-name="imacron" unicode="&#x12b;" horiz-adv-x="262" 
d="M14 583l13 114h315l-13 -114h-315zM82 488h156l-58 -488h-156z" />
    <glyph glyph-name="ibreve" unicode="&#x12d;" horiz-adv-x="262" 
d="M169 558q-37 0 -65.5 12.5t-47.5 34t-28.5 50t-9.5 60.5l97 17q12 -67 66 -67q29 0 48 17t33 50l93 -17q-7 -33 -23 -61.5t-40 -50t-55 -33.5t-68 -12zM82 488h156l-58 -488h-156z" />
    <glyph glyph-name="iogonek" unicode="&#x12f;" horiz-adv-x="262" 
d="M82 488h156l-58 -488h-12q-23 0 -40.5 -8t-29 -20.5t-17.5 -28.5t-6 -31q0 -42 52 -42q8 0 25.5 2t34.5 5l12 -77q-24 -13 -55.5 -20t-55.5 -7q-57 0 -91.5 30.5t-34.5 78.5q0 37 18.5 67.5t44.5 53.5zM108 704h118q21 0 28 -8t5 -27l-13 -113h-156z" />
    <glyph glyph-name="ij" unicode="&#x133;" horiz-adv-x="524" 
d="M82 488h156l-58 -488h-156zM108 704h118q21 0 28 -8t5 -27l-13 -113h-156zM344 488h156l-62 -529q-7 -56 -21 -91.5t-37 -58.5q-42 -41 -114 -41q-26 0 -56.5 5.5t-59.5 15.5l10 81l60 10q34 6 45 16t14 38zM370 704h118q21 0 28 -8t5 -27l-13 -113h-156z" />
    <glyph glyph-name="jcircumflex" unicode="&#x135;" horiz-adv-x="262" 
d="M82 488h156l-62 -529q-7 -56 -21 -91.5t-37 -58.5q-42 -41 -114 -41q-26 0 -56.5 5.5t-59.5 15.5l10 81l60 10q17 3 27.5 6.5t17 9.5t9.5 15t5 23zM214 747q11 0 17 -2.5t13 -10.5l106 -132l-63 -57l-111 92h-1l-133 -92l-50 57l139 132q8 8 14 10.5t17 2.5h52z" />
    <glyph glyph-name="kcommaaccent" unicode="&#x137;" horiz-adv-x="561" 
d="M387 283l149 -283h-153q-13 0 -18 3t-10 12l-94 188q-16 -9 -31.5 -15t-30.5 -11l-21 -177h-156l84 709h156l-47 -399l267 201l77 -100zM158 -301l45 243h81q23 0 31 -12t8 -39q0 -21 -9 -44t-33 -63l-60 -99z" />
    <glyph glyph-name="kgreenlandic" unicode="&#x138;" horiz-adv-x="561" 
d="M390 276l146 -276h-153q-13 0 -18 3t-10 12l-90 180q-16 -9 -34 -16t-33 -12l-20 -167h-156l58 488h156l-22 -188l268 211l77 -100z" />
    <glyph glyph-name="lacute" unicode="&#x13a;" horiz-adv-x="292" 
d="M258 23q-21 -10 -52 -18t-56 -8q-55 0 -84 28.5t-29 77.5q0 6 0.5 14.5t1.5 19.5l67 572h156l-69 -587l74 -21zM113 751l-39 62l187 145q11 8 20.5 8.5t17.5 -14.5l48 -88z" />
    <glyph glyph-name="lcaron" unicode="&#x13e;" horiz-adv-x="408" 
d="M258 23q-21 -10 -52 -18t-56 -8q-55 0 -84 28.5t-29 77.5q0 6 0.5 14.5t1.5 19.5l67 572h156l-69 -587l74 -21zM290 466l45 243h81q23 0 31 -12t8 -39q0 -21 -9 -44t-33 -63l-60 -99z" />
    <glyph glyph-name="lcommaaccent" unicode="&#x13c;" horiz-adv-x="292" 
d="M258 23q-21 -10 -52 -18t-56 -8q-55 0 -84 28.5t-29 77.5q0 6 0.5 14.5t1.5 19.5l67 572h156l-69 -587l74 -21zM25 -301l45 243h81q23 0 31 -12t8 -39q0 -21 -9 -44t-33 -63l-60 -99z" />
    <glyph glyph-name="lslash" unicode="&#x142;" horiz-adv-x="403" 
d="M323 23q-21 -10 -52 -18t-56 -8q-55 0 -84 28.5t-29 77.5v13t2 21l9 81l-51 -32l-60 104l129 80l40 339h156l-31 -264l76 48l60 -104l-153 -95l-21 -172l74 -21z" />
    <glyph glyph-name="longs" unicode="&#x17f;" horiz-adv-x="341" 
d="M188 -206h-156l66 573h-83l12 99l84 18q-5 13 -7.5 27.5t-2.5 29.5q0 40 16 73.5t43.5 57.5t66 37t83.5 13q46 0 91 -15.5t80 -44.5l-42 -89l-44 10q-39 9 -67 9q-35 0 -54 -17t-19 -59q0 -14 0.5 -35t0.5 -35q0 -34 -2.5 -70t-8.5 -90z" />
    <glyph glyph-name="ldot" unicode="&#x140;" horiz-adv-x="427" 
d="M258 23q-21 -10 -52 -18t-56 -8q-55 0 -84 28.5t-29 77.5q0 6 0.5 14.5t1.5 19.5l67 572h156l-69 -587l74 -21zM413 457q18 0 24.5 -6.5t4.5 -23.5l-14 -112h-141l17 142h109z" />
    <glyph glyph-name="nacute" unicode="&#x144;" horiz-adv-x="551" 
d="M355 278q1 6 2 15.5t1 14.5q0 24 -15.5 33.5t-44.5 9.5q-19 0 -37.5 -4t-32.5 -9q-8 -3 -9.5 -5.5t-2.5 -9.5l-38 -323h-156l58 488h119l12 -45l31 17q31 17 59.5 26.5t57.5 9.5q33 0 61.5 -11t49.5 -32t33 -51.5t12 -69.5q0 -13 -1.5 -28.5t-3.5 -32.5l-32 -271h-156z
M265 547l-39 62l187 145q11 8 20.5 8.5t17.5 -14.5l48 -88z" />
    <glyph glyph-name="ncaron" unicode="&#x148;" horiz-adv-x="551" 
d="M355 278q1 6 2 15.5t1 14.5q0 24 -15.5 33.5t-44.5 9.5q-19 0 -37.5 -4t-32.5 -9q-8 -3 -9.5 -5.5t-2.5 -9.5l-38 -323h-156l58 488h119l12 -45l31 17q31 17 59.5 26.5t57.5 9.5q33 0 61.5 -11t49.5 -32t33 -51.5t12 -69.5q0 -13 -1.5 -28.5t-3.5 -32.5l-32 -271h-156z
M306 557q-11 0 -16.5 2.5t-12.5 10.5l-107 131l64 58l111 -93h1l133 93q13 -14 25 -29t24 -29l-138 -131q-8 -8 -14 -10.5t-18 -2.5h-52z" />
    <glyph glyph-name="ntilde" unicode="&#xf1;" horiz-adv-x="551" 
d="M355 278q1 6 2 15.5t1 14.5q0 24 -15.5 33.5t-44.5 9.5q-19 0 -37.5 -4t-32.5 -9q-8 -3 -9.5 -5.5t-2.5 -9.5l-38 -323h-156l58 488h119l12 -45l31 17q31 17 59.5 26.5t57.5 9.5q33 0 61.5 -11t49.5 -32t33 -51.5t12 -69.5q0 -13 -1.5 -28.5t-3.5 -32.5l-32 -271h-156z
M391 564q-21 0 -38 7.5t-31 16t-25.5 16t-22.5 7.5q-14 0 -26 -13t-27 -39l-79 23q6 27 18 51.5t29 44t39.5 31t49.5 11.5q21 0 38 -7.5t31 -16t25.5 -16t22.5 -7.5q15 0 27.5 13.5t26.5 38.5l79 -23q-6 -27 -18 -51.5t-29.5 -44t-40 -31t-49.5 -11.5z" />
    <glyph glyph-name="ncommaaccent" unicode="&#x146;" horiz-adv-x="551" 
d="M355 278q1 6 2 15.5t1 14.5q0 24 -15.5 33.5t-44.5 9.5q-19 0 -37.5 -4t-32.5 -9q-8 -3 -9.5 -5.5t-2.5 -9.5l-38 -323h-156l58 488h119l12 -45l31 17q31 17 59.5 26.5t57.5 9.5q33 0 61.5 -11t49.5 -32t33 -51.5t12 -69.5q0 -13 -1.5 -28.5t-3.5 -32.5l-32 -271h-156z
M143 -301l45 243h81q23 0 31 -12t8 -39q0 -21 -9 -44t-33 -63l-60 -99z" />
    <glyph glyph-name="napostrophe" unicode="&#x149;" horiz-adv-x="734" 
d="M210 663q20 0 27.5 -8t5.5 -27l-8 -71q-4 -32 -10.5 -56.5t-22 -49.5t-44 -53.5t-76.5 -68.5l-56 44l61 86q23 33 23 39q0 5 -9 11l-12 9q-12 9 -15 16t-3 18q0 5 0.5 12t2.5 21l9 78h127zM538 278q1 6 2 15.5t1 14.5q0 24 -15.5 33.5t-44.5 9.5q-19 0 -37.5 -4t-32.5 -9
q-8 -3 -9.5 -5.5t-2.5 -9.5l-38 -323h-156l58 488h119l12 -45l31 17q31 17 59.5 26.5t57.5 9.5q33 0 61.5 -11t49.5 -32t33 -51.5t12 -69.5q0 -13 -1.5 -28.5t-3.5 -32.5l-32 -271h-156z" />
    <glyph glyph-name="eng" unicode="&#x14b;" horiz-adv-x="551" 
d="M355 278q1 6 2 15.5t1 14.5q0 24 -15.5 33.5t-44.5 9.5q-19 0 -37.5 -4t-32.5 -9q-8 -3 -9.5 -5.5t-2.5 -9.5l-38 -323h-156l58 488h119l12 -45l31 17q31 17 59.5 26.5t57.5 9.5q33 0 61.5 -11t49.5 -32t33 -51.5t12 -69.5q0 -13 -1.5 -28.5t-3.5 -32.5l-34 -287
q-13 -113 -58 -156q-42 -41 -114 -41q-51 0 -109 20l10 83l53 9q34 6 44.5 18t14.5 42z" />
    <glyph glyph-name="ograve" unicode="&#xf2;" horiz-adv-x="545" 
d="M264 133q23 0 41.5 10t31.5 27t20 40.5t7 49.5q0 39 -20.5 67t-62.5 28q-23 0 -41.5 -10t-31.5 -27.5t-20 -40.5t-7 -49q0 -39 20.5 -67t62.5 -28zM258 -8q-50 0 -93 17t-75 47.5t-50 73.5t-18 94q0 54 19.5 103.5t55 87t84 59.5t106.5 22q50 0 93 -17t75 -48t50 -73.5
t18 -94.5q0 -58 -20 -107.5t-55 -86t-83.5 -57t-106.5 -20.5zM160 660l70 90q8 11 17 13t20 -9l157 -147l-55 -62z" />
    <glyph glyph-name="oacute" unicode="&#xf3;" horiz-adv-x="545" 
d="M264 133q23 0 41.5 10t31.5 27t20 40.5t7 49.5q0 39 -20.5 67t-62.5 28q-23 0 -41.5 -10t-31.5 -27.5t-20 -40.5t-7 -49q0 -39 20.5 -67t62.5 -28zM258 -8q-50 0 -93 17t-75 47.5t-50 73.5t-18 94q0 54 19.5 103.5t55 87t84 59.5t106.5 22q50 0 93 -17t75 -48t50 -73.5
t18 -94.5q0 -58 -20 -107.5t-55 -86t-83.5 -57t-106.5 -20.5zM211 547l-39 62l187 145q11 8 20.5 8.5t17.5 -14.5l48 -88z" />
    <glyph glyph-name="ocircumflex" unicode="&#xf4;" horiz-adv-x="545" 
d="M264 133q23 0 41.5 10t31.5 27t20 40.5t7 49.5q0 39 -20.5 67t-62.5 28q-23 0 -41.5 -10t-31.5 -27.5t-20 -40.5t-7 -49q0 -39 20.5 -67t62.5 -28zM258 -8q-50 0 -93 17t-75 47.5t-50 73.5t-18 94q0 54 19.5 103.5t55 87t84 59.5t106.5 22q50 0 93 -17t75 -48t50 -73.5
t18 -94.5q0 -58 -20 -107.5t-55 -86t-83.5 -57t-106.5 -20.5zM354 747q11 0 17 -2.5t13 -10.5l106 -132l-63 -57l-111 92h-1l-133 -92l-50 57l139 132q8 8 14 10.5t17 2.5h52z" />
    <glyph glyph-name="otilde" unicode="&#xf5;" horiz-adv-x="545" 
d="M264 133q23 0 41.5 10t31.5 27t20 40.5t7 49.5q0 39 -20.5 67t-62.5 28q-23 0 -41.5 -10t-31.5 -27.5t-20 -40.5t-7 -49q0 -39 20.5 -67t62.5 -28zM258 -8q-50 0 -93 17t-75 47.5t-50 73.5t-18 94q0 54 19.5 103.5t55 87t84 59.5t106.5 22q50 0 93 -17t75 -48t50 -73.5
t18 -94.5q0 -58 -20 -107.5t-55 -86t-83.5 -57t-106.5 -20.5zM372 564q-21 0 -38 7.5t-31 16t-25.5 16t-22.5 7.5q-14 0 -26 -13t-27 -39l-79 23q6 27 18 51.5t29 44t39.5 31t49.5 11.5q21 0 38 -7.5t31 -16t25.5 -16t22.5 -7.5q15 0 27.5 13.5t26.5 38.5l79 -23
q-6 -27 -18 -51.5t-29.5 -44t-40 -31t-49.5 -11.5z" />
    <glyph glyph-name="odieresis" unicode="&#xf6;" horiz-adv-x="545" 
d="M264 133q23 0 41.5 10t31.5 27t20 40.5t7 49.5q0 39 -20.5 67t-62.5 28q-23 0 -41.5 -10t-31.5 -27.5t-20 -40.5t-7 -49q0 -39 20.5 -67t62.5 -28zM258 -8q-50 0 -93 17t-75 47.5t-50 73.5t-18 94q0 54 19.5 103.5t55 87t84 59.5t106.5 22q50 0 93 -17t75 -48t50 -73.5
t18 -94.5q0 -58 -20 -107.5t-55 -86t-83.5 -57t-106.5 -20.5zM248 707q18 0 24 -6t4 -23l-13 -108h-136l16 137h105zM458 707q18 0 24 -6t4 -23l-13 -108h-136l16 137h105z" />
    <glyph glyph-name="omacron" unicode="&#x14d;" horiz-adv-x="545" 
d="M264 133q23 0 41.5 10t31.5 27t20 40.5t7 49.5q0 39 -20.5 67t-62.5 28q-23 0 -41.5 -10t-31.5 -27.5t-20 -40.5t-7 -49q0 -39 20.5 -67t62.5 -28zM258 -8q-50 0 -93 17t-75 47.5t-50 73.5t-18 94q0 54 19.5 103.5t55 87t84 59.5t106.5 22q50 0 93 -17t75 -48t50 -73.5
t18 -94.5q0 -58 -20 -107.5t-55 -86t-83.5 -57t-106.5 -20.5zM135 583l13 114h315l-13 -114h-315z" />
    <glyph glyph-name="obreve" unicode="&#x14f;" horiz-adv-x="545" 
d="M264 133q23 0 41.5 10t31.5 27t20 40.5t7 49.5q0 39 -20.5 67t-62.5 28q-23 0 -41.5 -10t-31.5 -27.5t-20 -40.5t-7 -49q0 -39 20.5 -67t62.5 -28zM258 -8q-50 0 -93 17t-75 47.5t-50 73.5t-18 94q0 54 19.5 103.5t55 87t84 59.5t106.5 22q50 0 93 -17t75 -48t50 -73.5
t18 -94.5q0 -58 -20 -107.5t-55 -86t-83.5 -57t-106.5 -20.5zM302 558q-37 0 -65.5 12.5t-47.5 34t-28.5 50t-9.5 60.5l97 17q12 -67 66 -67q29 0 48 17t33 50l93 -17q-7 -33 -23 -61.5t-40 -50t-55 -33.5t-68 -12z" />
    <glyph glyph-name="ohungarumlaut" unicode="&#x151;" horiz-adv-x="545" 
d="M264 133q23 0 41.5 10t31.5 27t20 40.5t7 49.5q0 39 -20.5 67t-62.5 28q-23 0 -41.5 -10t-31.5 -27.5t-20 -40.5t-7 -49q0 -39 20.5 -67t62.5 -28zM258 -8q-50 0 -93 17t-75 47.5t-50 73.5t-18 94q0 54 19.5 103.5t55 87t84 59.5t106.5 22q50 0 93 -17t75 -48t50 -73.5
t18 -94.5q0 -58 -20 -107.5t-55 -86t-83.5 -57t-106.5 -20.5zM568 740l-187 -180l-65 53l142 187q9 12 17.5 14.5t19.5 -7.5zM353 740l-187 -180l-65 53l142 187q9 12 17.5 14.5t19.5 -7.5z" />
    <glyph glyph-name="oslash" unicode="&#xf8;" horiz-adv-x="545" 
d="M258 -8q-59 0 -108 23v-1l-64 -91l-55 38l64 90q-34 31 -53.5 75t-19.5 98t19.5 103.5t55 87t84 59.5t106.5 22q59 0 109 -24l59 84l55 -37l-59 -84q34 -31 53 -74.5t19 -97.5q0 -58 -20 -107.5t-55 -86t-83.5 -57t-106.5 -20.5zM179 228q0 -27 9 -48l122 172
q-13 5 -29 5q-24 0 -42.5 -10t-32 -27.5t-20.5 -41t-7 -50.5zM264 131q24 0 42.5 10t32 28t20.5 41.5t7 50.5q0 23 -8 44l-122 -170q11 -4 28 -4z" />
    <glyph glyph-name="oslashacute" unicode="&#x1ff;" horiz-adv-x="545" 
d="M211 547l-39 62l187 145q11 8 20.5 8.5t17.5 -14.5l48 -88zM258 -8q-59 0 -108 23v-1l-64 -91l-55 38l64 90q-34 31 -53.5 75t-19.5 98t19.5 103.5t55 87t84 59.5t106.5 22q59 0 109 -24l59 84l55 -37l-59 -84q34 -31 53 -74.5t19 -97.5q0 -58 -20 -107.5t-55 -86
t-83.5 -57t-106.5 -20.5zM179 228q0 -27 9 -48l122 172q-13 5 -29 5q-24 0 -42.5 -10t-32 -27.5t-20.5 -41t-7 -50.5zM264 131q24 0 42.5 10t32 28t20.5 41.5t7 50.5q0 23 -8 44l-122 -170q11 -4 28 -4z" />
    <glyph glyph-name="oe" unicode="&#x153;" horiz-adv-x="869" 
d="M518 198q5 -35 33 -54.5t70 -19.5q20 0 42.5 3.5t57.5 11.5l60 14l38 -84q-18 -16 -43.5 -30t-54.5 -24.5t-60 -16.5t-61 -6q-57 0 -98 16.5t-70 46.5q-31 -26 -75 -44.5t-99 -18.5q-50 0 -93 17t-75 47.5t-50 73.5t-18 94q0 54 19.5 103.5t55 87t84 59.5t106.5 22
q53 0 97 -19t67 -47q29 29 73.5 47.5t95.5 18.5q46 0 86.5 -15.5t71 -44.5t48 -70t17.5 -91q0 -41 -7.5 -59t-27.5 -18h-290zM265 133q23 0 42 10t32 27t20 40.5t7 49.5q0 39 -21 67t-63 28q-23 0 -42 -10t-32 -27.5t-20 -40.5t-7 -49q0 -39 21 -67t63 -28zM696 300
q-2 31 -22.5 50t-54.5 19q-35 0 -59.5 -18t-33.5 -51h170z" />
    <glyph glyph-name="thorn" unicode="&#xfe;" horiz-adv-x="549" 
d="M151 -229h-155l110 938h156l-30 -254l12 7q25 14 53 24t55 10q35 0 67 -16.5t56 -46t38 -70.5t14 -90q0 -56 -18 -107t-49.5 -89.5t-73.5 -61.5t-90 -23q-50 0 -91 25l-23 14zM196 160q-2 -11 1.5 -14t12.5 -6q30 -9 61 -9q48 0 72.5 38t24.5 99q0 42 -16.5 65t-53.5 23
q-18 0 -36 -4t-33 -11q-8 -4 -10 -7t-4 -13z" />
    <glyph glyph-name="racute" unicode="&#x155;" horiz-adv-x="386" 
d="M213 423l33 22q19 13 33.5 22.5t26.5 16t22.5 9.5t21.5 3q16 0 31.5 -6t29.5 -14l-13 -110q-35 -7 -76 -16t-70 -18q-25 -8 -30.5 -13t-7.5 -16l-36 -303h-156l58 488h118zM186 547l-39 62l187 145q11 8 20.5 8.5t17.5 -14.5l48 -88z" />
    <glyph glyph-name="rcaron" unicode="&#x159;" horiz-adv-x="386" 
d="M213 423l33 22q19 13 33.5 22.5t26.5 16t22.5 9.5t21.5 3q16 0 31.5 -6t29.5 -14l-13 -110q-35 -7 -76 -16t-70 -18q-25 -8 -30.5 -13t-7.5 -16l-36 -303h-156l58 488h118zM237 557q-11 0 -16.5 2.5t-12.5 10.5l-107 131l64 58l111 -93h1l133 93q13 -14 25 -29t24 -29
l-138 -131q-8 -8 -14 -10.5t-18 -2.5h-52z" />
    <glyph glyph-name="rcommaaccent" unicode="&#x157;" horiz-adv-x="386" 
d="M213 423l33 22q19 13 33.5 22.5t26.5 16t22.5 9.5t21.5 3q16 0 31.5 -6t29.5 -14l-13 -110q-35 -7 -76 -16t-70 -18q-25 -8 -30.5 -13t-7.5 -16l-36 -303h-156l58 488h118zM-11 -301l45 243h81q23 0 31 -12t8 -39q0 -21 -9 -44t-33 -63l-60 -99z" />
    <glyph glyph-name="sacute" unicode="&#x15b;" horiz-adv-x="467" 
d="M36 138l75 -11q40 -6 70 -8.5t54 -2.5q57 0 57 32q0 11 -10 17.5t-40 14.5l-48 13q-73 20 -113.5 52t-40.5 91q0 38 16.5 68t45.5 50q29 21 69.5 31.5t88.5 10.5q45 0 91.5 -10t88.5 -28l-26 -96l-63 6q-27 2 -51.5 3.5t-47.5 1.5q-42 0 -56.5 -6.5t-14.5 -17.5
q0 -9 10 -14.5t34 -12.5l40 -11q37 -10 68.5 -21.5t54 -27.5t35 -38.5t12.5 -55.5q0 -84 -58 -129.5t-154 -45.5q-51 0 -109 14t-107 35zM191 547l-39 62l187 145q11 8 20.5 8.5t17.5 -14.5l48 -88z" />
    <glyph glyph-name="scircumflex" unicode="&#x15d;" horiz-adv-x="467" 
d="M36 138l75 -11q40 -6 70 -8.5t54 -2.5q57 0 57 32q0 11 -10 17.5t-40 14.5l-48 13q-73 20 -113.5 52t-40.5 91q0 38 16.5 68t45.5 50q29 21 69.5 31.5t88.5 10.5q45 0 91.5 -10t88.5 -28l-26 -96l-63 6q-27 2 -51.5 3.5t-47.5 1.5q-42 0 -56.5 -6.5t-14.5 -17.5
q0 -9 10 -14.5t34 -12.5l40 -11q37 -10 68.5 -21.5t54 -27.5t35 -38.5t12.5 -55.5q0 -84 -58 -129.5t-154 -45.5q-51 0 -109 14t-107 35zM317 747q11 0 17 -2.5t13 -10.5l106 -132l-63 -57l-111 92h-1l-133 -92l-50 57l139 132q8 8 14 10.5t17 2.5h52z" />
    <glyph glyph-name="scaron" unicode="&#x161;" horiz-adv-x="467" 
d="M36 138l75 -11q40 -6 70 -8.5t54 -2.5q57 0 57 32q0 11 -10 17.5t-40 14.5l-48 13q-73 20 -113.5 52t-40.5 91q0 38 16.5 68t45.5 50q29 21 69.5 31.5t88.5 10.5q45 0 91.5 -10t88.5 -28l-26 -96l-63 6q-27 2 -51.5 3.5t-47.5 1.5q-42 0 -56.5 -6.5t-14.5 -17.5
q0 -9 10 -14.5t34 -12.5l40 -11q37 -10 68.5 -21.5t54 -27.5t35 -38.5t12.5 -55.5q0 -84 -58 -129.5t-154 -45.5q-51 0 -109 14t-107 35zM241 557q-11 0 -16.5 2.5t-12.5 10.5l-107 131l64 58l111 -93h1l133 93q13 -14 25 -29t24 -29l-138 -131q-8 -8 -14 -10.5t-18 -2.5
h-52z" />
    <glyph glyph-name="scedilla" unicode="&#x15f;" horiz-adv-x="467" 
d="M36 138l75 -11q40 -6 70 -8.5t54 -2.5q57 0 57 32q0 11 -10 17.5t-40 14.5l-48 13q-73 20 -113.5 52t-40.5 91q0 38 16.5 68t45.5 50q29 21 69.5 31.5t88.5 10.5q45 0 91.5 -10t88.5 -28l-26 -96l-63 6q-27 2 -51.5 3.5t-47.5 1.5q-42 0 -56.5 -6.5t-14.5 -17.5
q0 -9 10 -14.5t34 -12.5l40 -11q37 -10 68.5 -21.5t54 -27.5t35 -38.5t12.5 -55.5q0 -79 -51 -124t-137 -50q-15 -16 -15 -28q0 -8 14.5 -14t31.5 -15t31.5 -23.5t14.5 -39.5q0 -28 -16.5 -50t-44 -37t-65 -24t-79.5 -10l-5 82l53 9q34 6 34 20q0 8 -12 14t-27 13t-27 17
t-12 25q0 27 42 64q-41 5 -82 17t-76 28z" />
    <glyph glyph-name="scommaaccent" unicode="&#x219;" horiz-adv-x="467" 
d="M36 138l75 -11q40 -6 70 -8.5t54 -2.5q57 0 57 32q0 11 -10 17.5t-40 14.5l-48 13q-73 20 -113.5 52t-40.5 91q0 38 16.5 68t45.5 50q29 21 69.5 31.5t88.5 10.5q45 0 91.5 -10t88.5 -28l-26 -96l-63 6q-27 2 -51.5 3.5t-47.5 1.5q-42 0 -56.5 -6.5t-14.5 -17.5
q0 -9 10 -14.5t34 -12.5l40 -11q37 -10 68.5 -21.5t54 -27.5t35 -38.5t12.5 -55.5q0 -84 -58 -129.5t-154 -45.5q-51 0 -109 14t-107 35zM109 -301l45 243h81q23 0 31 -12t8 -39q0 -21 -9 -44t-33 -63l-60 -99z" />
    <glyph glyph-name="germandbls" unicode="&#xdf;" horiz-adv-x="694" 
d="M113 484q10 52 36.5 96t66.5 75.5t91 49t110 17.5q47 0 85.5 -11.5t66 -32t42.5 -48.5t15 -60q0 -51 -27 -85t-75 -66l-33 -22q-25 -17 -32 -23t-7 -13q0 -8 10.5 -13.5t33.5 -14.5l19 -7q36 -13 64.5 -27t49 -32t31 -42.5t10.5 -59.5q0 -37 -14 -68.5t-41 -55
t-66.5 -36.5t-90.5 -13q-24 0 -50.5 3.5t-51.5 10.5t-48 16t-41 20l31 94l58 -9q31 -5 57.5 -8.5t46.5 -3.5q28 0 47.5 10t19.5 31q0 14 -12 22.5t-47 21.5l-35 13q-61 23 -92 50.5t-31 68.5q0 33 18 61t56 58q29 23 46.5 37.5t27.5 24.5t13 17.5t3 15.5q0 22 -18.5 34
t-50.5 12q-36 0 -61.5 -13t-42.5 -36.5t-27 -56t-14 -71.5l-66 -568h-156l61 520h-84l12 99z" />
    <glyph glyph-name="tcaron" unicode="&#x165;" horiz-adv-x="432" 
d="M108 485l17 144h156l-17 -141h148l-14 -121h-148l-18 -147q-2 -20 -3.5 -33t-1.5 -21q0 -42 49 -42q11 0 29.5 2t32.5 4l37 5l24 -90q-18 -12 -40 -21.5t-45.5 -16.5t-46.5 -11t-43 -4q-69 0 -111.5 37.5t-42.5 109.5q0 32 6 80l18 148h-83l12 99zM339 584l45 243h81
q23 0 31 -12t8 -39q0 -21 -9 -44t-33 -63l-60 -99z" />
    <glyph glyph-name="tcommaaccent" unicode="&#x163;" horiz-adv-x="432" 
d="M108 485l17 144h156l-17 -141h148l-14 -121h-148l-18 -147q-2 -20 -3.5 -33t-1.5 -21q0 -42 49 -42q11 0 29.5 2t32.5 4l37 5l24 -90q-18 -12 -40 -21.5t-45.5 -16.5t-46.5 -11t-43 -4q-69 0 -111.5 37.5t-42.5 109.5q0 32 6 80l18 148h-83l12 99zM110 -301l45 243h81
q23 0 31 -12t8 -39q0 -21 -9 -44t-33 -63l-60 -99z" />
    <glyph glyph-name="uni021B" unicode="&#x21b;" horiz-adv-x="432" 
d="M108 485l17 144h156l-17 -141h148l-14 -121h-148l-18 -147q-2 -20 -3.5 -33t-1.5 -21q0 -42 49 -42q11 0 29.5 2t32.5 4l37 5l24 -90q-18 -12 -40 -21.5t-45.5 -16.5t-46.5 -11t-43 -4q-69 0 -111.5 37.5t-42.5 109.5q0 32 6 80l18 148h-83l12 99zM110 -301l45 243h81
q23 0 31 -12t8 -39q0 -21 -9 -44t-33 -63l-60 -99z" />
    <glyph glyph-name="tbar" unicode="&#x167;" horiz-adv-x="432" 
d="M108 485l17 144h156l-17 -141h148l-14 -121h-148l-8 -69h118l-11 -94h-119q-3 -27 -3 -38q0 -42 49 -42q11 0 29.5 2t32.5 4l37 5l24 -90q-18 -12 -40 -21.5t-45.5 -16.5t-46.5 -11t-43 -4q-69 0 -111.5 37.5t-42.5 109.5q0 13 1 32t3 33h-62l10 82l64 10l8 71h-83l12 99
z" />
    <glyph glyph-name="ugrave" unicode="&#xf9;" horiz-adv-x="548" 
d="M196 210q-1 -6 -2 -15.5t-1 -15.5q0 -23 15.5 -32.5t44.5 -9.5q40 0 69 13q7 3 8.5 6t2.5 9l38 323h156l-58 -488h-119l-12 45l-30 -18q-27 -17 -57.5 -26t-59.5 -9q-33 0 -61.5 11t-49.5 32t-32.5 51.5t-11.5 68.5q0 14 1.5 29t3.5 32l32 272h156zM155 660l70 90
q8 11 17 13t20 -9l157 -147l-55 -62z" />
    <glyph glyph-name="uacute" unicode="&#xfa;" horiz-adv-x="548" 
d="M196 210q-1 -6 -2 -15.5t-1 -15.5q0 -23 15.5 -32.5t44.5 -9.5q40 0 69 13q7 3 8.5 6t2.5 9l38 323h156l-58 -488h-119l-12 45l-30 -18q-27 -17 -57.5 -26t-59.5 -9q-33 0 -61.5 11t-49.5 32t-32.5 51.5t-11.5 68.5q0 14 1.5 29t3.5 32l32 272h156zM241 547l-39 62
l187 145q11 8 20.5 8.5t17.5 -14.5l48 -88z" />
    <glyph glyph-name="ucircumflex" unicode="&#xfb;" horiz-adv-x="548" 
d="M196 210q-1 -6 -2 -15.5t-1 -15.5q0 -23 15.5 -32.5t44.5 -9.5q40 0 69 13q7 3 8.5 6t2.5 9l38 323h156l-58 -488h-119l-12 45l-30 -18q-27 -17 -57.5 -26t-59.5 -9q-33 0 -61.5 11t-49.5 32t-32.5 51.5t-11.5 68.5q0 14 1.5 29t3.5 32l32 272h156zM357 747q11 0 17 -2.5
t13 -10.5l106 -132l-63 -57l-111 92h-1l-133 -92l-50 57l139 132q8 8 14 10.5t17 2.5h52z" />
    <glyph glyph-name="utilde" unicode="&#x169;" horiz-adv-x="548" 
d="M196 210q-1 -6 -2 -15.5t-1 -15.5q0 -23 15.5 -32.5t44.5 -9.5q40 0 69 13q7 3 8.5 6t2.5 9l38 323h156l-58 -488h-119l-12 45l-30 -18q-27 -17 -57.5 -26t-59.5 -9q-33 0 -61.5 11t-49.5 32t-32.5 51.5t-11.5 68.5q0 14 1.5 29t3.5 32l32 272h156zM375 564
q-21 0 -38 7.5t-31 16t-25.5 16t-22.5 7.5q-14 0 -26 -13t-27 -39l-79 23q6 27 18 51.5t29 44t39.5 31t49.5 11.5q21 0 38 -7.5t31 -16t25.5 -16t22.5 -7.5q15 0 27.5 13.5t26.5 38.5l79 -23q-6 -27 -18 -51.5t-29.5 -44t-40 -31t-49.5 -11.5z" />
    <glyph glyph-name="udieresis" unicode="&#xfc;" horiz-adv-x="548" 
d="M196 210q-1 -6 -2 -15.5t-1 -15.5q0 -23 15.5 -32.5t44.5 -9.5q40 0 69 13q7 3 8.5 6t2.5 9l38 323h156l-58 -488h-119l-12 45l-30 -18q-27 -17 -57.5 -26t-59.5 -9q-33 0 -61.5 11t-49.5 32t-32.5 51.5t-11.5 68.5q0 14 1.5 29t3.5 32l32 272h156zM252 707q18 0 24 -6
t4 -23l-13 -108h-136l16 137h105zM462 707q18 0 24 -6t4 -23l-13 -108h-136l16 137h105z" />
    <glyph glyph-name="umacron" unicode="&#x16b;" horiz-adv-x="548" 
d="M196 210q-1 -6 -2 -15.5t-1 -15.5q0 -23 15.5 -32.5t44.5 -9.5q40 0 69 13q7 3 8.5 6t2.5 9l38 323h156l-58 -488h-119l-12 45l-30 -18q-27 -17 -57.5 -26t-59.5 -9q-33 0 -61.5 11t-49.5 32t-32.5 51.5t-11.5 68.5q0 14 1.5 29t3.5 32l32 272h156zM153 583l13 114h315
l-13 -114h-315z" />
    <glyph glyph-name="ubreve" unicode="&#x16d;" horiz-adv-x="548" 
d="M196 210q-1 -6 -2 -15.5t-1 -15.5q0 -23 15.5 -32.5t44.5 -9.5q40 0 69 13q7 3 8.5 6t2.5 9l38 323h156l-58 -488h-119l-12 45l-30 -18q-27 -17 -57.5 -26t-59.5 -9q-33 0 -61.5 11t-49.5 32t-32.5 51.5t-11.5 68.5q0 14 1.5 29t3.5 32l32 272h156zM306 558
q-37 0 -65.5 12.5t-47.5 34t-28.5 50t-9.5 60.5l97 17q12 -67 66 -67q29 0 48 17t33 50l93 -17q-7 -33 -23 -61.5t-40 -50t-55 -33.5t-68 -12z" />
    <glyph glyph-name="uring" unicode="&#x16f;" horiz-adv-x="548" 
d="M196 210q-1 -6 -2 -15.5t-1 -15.5q0 -23 15.5 -32.5t44.5 -9.5q40 0 69 13q7 3 8.5 6t2.5 9l38 323h156l-58 -488h-119l-12 45l-30 -18q-27 -17 -57.5 -26t-59.5 -9q-33 0 -61.5 11t-49.5 32t-32.5 51.5t-11.5 68.5q0 14 1.5 29t3.5 32l32 272h156zM325 816
q28 0 51.5 -9.5t40 -26.5t26 -40t9.5 -49q0 -31 -10.5 -56t-29.5 -43t-44.5 -28t-55.5 -10q-57 0 -92 35.5t-35 89.5q0 29 10.5 54t29 43.5t44.5 29t56 10.5zM316 636q25 0 38.5 14.5t13.5 37.5q0 20 -12 33.5t-35 13.5q-26 0 -39 -15t-13 -38q0 -20 12 -33t35 -13z" />
    <glyph glyph-name="uhungarumlaut" unicode="&#x171;" horiz-adv-x="548" 
d="M196 210q-1 -6 -2 -15.5t-1 -15.5q0 -23 15.5 -32.5t44.5 -9.5q40 0 69 13q7 3 8.5 6t2.5 9l38 323h156l-58 -488h-119l-12 45l-30 -18q-27 -17 -57.5 -26t-59.5 -9q-33 0 -61.5 11t-49.5 32t-32.5 51.5t-11.5 68.5q0 14 1.5 29t3.5 32l32 272h156zM587 740l-187 -180
l-65 53l142 187q9 12 17.5 14.5t19.5 -7.5zM372 740l-187 -180l-65 53l142 187q9 12 17.5 14.5t19.5 -7.5z" />
    <glyph glyph-name="uogonek" unicode="&#x173;" horiz-adv-x="548" 
d="M338 45l-30 -18q-27 -17 -57.5 -26t-59.5 -9q-33 0 -61.5 11t-49.5 32t-32.5 51.5t-11.5 68.5q0 14 1.5 29t3.5 32l32 272h156l-33 -278q-1 -6 -2 -15.5t-1 -15.5q0 -23 15.5 -32.5t44.5 -9.5q40 0 69 13q7 3 8.5 6t2.5 9l38 323h156l-58 -488q-63 -5 -94 -31t-31 -64
q0 -42 52 -42q8 0 25.5 2t34.5 5l12 -77q-24 -13 -55.5 -20t-55.5 -7q-57 0 -91.5 30.5t-34.5 78.5q0 26 9.5 47.5t25.5 39t36.5 31.5t42.5 25z" />
    <glyph glyph-name="wgrave" unicode="&#x1e81;" horiz-adv-x="804" 
d="M526 352q11 -62 18 -114.5t12 -90.5q7 23 15.5 49.5t19.5 57.5l81 218q4 9 7.5 12.5t15.5 3.5h148l-219 -488h-158q-11 0 -15.5 3t-6.5 12l-21 124q-7 41 -12 80t-7 73q-4 -15 -11 -36t-15.5 -44t-17.5 -46t-16 -42l-50 -124h-159q-11 0 -15.5 3t-6.5 12l-103 473h146
q11 0 14.5 -3.5t5.5 -11.5l34 -222q4 -27 6.5 -54t4.5 -50q7 20 14.5 41.5t16.5 46.5t20 55t26 68l51 130h136q10 0 14 -3t6 -13zM290 660l70 90q8 11 17 13t20 -9l157 -147l-55 -62z" />
    <glyph glyph-name="wacute" unicode="&#x1e83;" horiz-adv-x="804" 
d="M526 352q11 -62 18 -114.5t12 -90.5q7 23 15.5 49.5t19.5 57.5l81 218q4 9 7.5 12.5t15.5 3.5h148l-219 -488h-158q-11 0 -15.5 3t-6.5 12l-21 124q-7 41 -12 80t-7 73q-4 -15 -11 -36t-15.5 -44t-17.5 -46t-16 -42l-50 -124h-159q-11 0 -15.5 3t-6.5 12l-103 473h146
q11 0 14.5 -3.5t5.5 -11.5l34 -222q4 -27 6.5 -54t4.5 -50q7 20 14.5 41.5t16.5 46.5t20 55t26 68l51 130h136q10 0 14 -3t6 -13zM357 547l-39 62l187 145q11 8 20.5 8.5t17.5 -14.5l48 -88z" />
    <glyph glyph-name="wcircumflex" unicode="&#x175;" horiz-adv-x="804" 
d="M526 352q11 -62 18 -114.5t12 -90.5q7 23 15.5 49.5t19.5 57.5l81 218q4 9 7.5 12.5t15.5 3.5h148l-219 -488h-158q-11 0 -15.5 3t-6.5 12l-21 124q-7 41 -12 80t-7 73q-4 -15 -11 -36t-15.5 -44t-17.5 -46t-16 -42l-50 -124h-159q-11 0 -15.5 3t-6.5 12l-103 473h146
q11 0 14.5 -3.5t5.5 -11.5l34 -222q4 -27 6.5 -54t4.5 -50q7 20 14.5 41.5t16.5 46.5t20 55t26 68l51 130h136q10 0 14 -3t6 -13zM481 747q11 0 17 -2.5t13 -10.5l106 -132l-63 -57l-111 92h-1l-133 -92l-50 57l139 132q8 8 14 10.5t17 2.5h52z" />
    <glyph glyph-name="wdieresis" unicode="&#x1e85;" horiz-adv-x="804" 
d="M526 352q11 -62 18 -114.5t12 -90.5q7 23 15.5 49.5t19.5 57.5l81 218q4 9 7.5 12.5t15.5 3.5h148l-219 -488h-158q-11 0 -15.5 3t-6.5 12l-21 124q-7 41 -12 80t-7 73q-4 -15 -11 -36t-15.5 -44t-17.5 -46t-16 -42l-50 -124h-159q-11 0 -15.5 3t-6.5 12l-103 473h146
q11 0 14.5 -3.5t5.5 -11.5l34 -222q4 -27 6.5 -54t4.5 -50q7 20 14.5 41.5t16.5 46.5t20 55t26 68l51 130h136q10 0 14 -3t6 -13zM382 707q18 0 24 -6t4 -23l-13 -108h-136l16 137h105zM592 707q18 0 24 -6t4 -23l-13 -108h-136l16 137h105z" />
    <glyph glyph-name="ygrave" unicode="&#x1ef3;" horiz-adv-x="520" 
d="M156 488q11 0 15.5 -2.5t6.5 -12.5l36 -153q11 -45 19.5 -88t13.5 -78h2q11 31 28 73t37 87l69 159q5 10 9.5 12.5t15.5 2.5h153l-372 -735l-152 39l114 206l-142 490h147zM139 660l70 90q8 11 17 13t20 -9l157 -147l-55 -62z" />
    <glyph glyph-name="yacute" unicode="&#xfd;" horiz-adv-x="520" 
d="M156 488q11 0 15.5 -2.5t6.5 -12.5l36 -153q11 -45 19.5 -88t13.5 -78h2q11 31 28 73t37 87l69 159q5 10 9.5 12.5t15.5 2.5h153l-372 -735l-152 39l114 206l-142 490h147zM223 547l-39 62l187 145q11 8 20.5 8.5t17.5 -14.5l48 -88z" />
    <glyph glyph-name="ycircumflex" unicode="&#x177;" horiz-adv-x="520" 
d="M156 488q11 0 15.5 -2.5t6.5 -12.5l36 -153q11 -45 19.5 -88t13.5 -78h2q11 31 28 73t37 87l69 159q5 10 9.5 12.5t15.5 2.5h153l-372 -735l-152 39l114 206l-142 490h147zM338 747q11 0 17 -2.5t13 -10.5l106 -132l-63 -57l-111 92h-1l-133 -92l-50 57l139 132
q8 8 14 10.5t17 2.5h52z" />
    <glyph glyph-name="ydieresis" unicode="&#xff;" horiz-adv-x="520" 
d="M156 488q11 0 15.5 -2.5t6.5 -12.5l36 -153q11 -45 19.5 -88t13.5 -78h2q11 31 28 73t37 87l69 159q5 10 9.5 12.5t15.5 2.5h153l-372 -735l-152 39l114 206l-142 490h147zM236 707q18 0 24 -6t4 -23l-13 -108h-136l16 137h105zM446 707q18 0 24 -6t4 -23l-13 -108h-136
l16 137h105z" />
    <glyph glyph-name="zacute" unicode="&#x17a;" horiz-adv-x="484" 
d="M51 367l14 121h416l-6 -60q-2 -24 -6 -33t-17 -23l-175 -190q-17 -17 -33 -33.5t-29 -27.5h224l-13 -121h-427l6 58q2 24 6 33t17 23l167 184q17 18 36 37t34 32h-214zM208 547l-39 62l187 145q11 8 20.5 8.5t17.5 -14.5l48 -88z" />
    <glyph glyph-name="zcaron" unicode="&#x17e;" horiz-adv-x="484" 
d="M51 367l14 121h416l-6 -60q-2 -24 -6 -33t-17 -23l-175 -190q-17 -17 -33 -33.5t-29 -27.5h224l-13 -121h-427l6 58q2 24 6 33t17 23l167 184q17 18 36 37t34 32h-214zM252 557q-11 0 -16.5 2.5t-12.5 10.5l-107 131l64 58l111 -93h1l133 93q13 -14 25 -29t24 -29
l-138 -131q-8 -8 -14 -10.5t-18 -2.5h-52z" />
    <glyph glyph-name="zdotaccent" unicode="&#x17c;" horiz-adv-x="484" 
d="M51 367l14 121h416l-6 -60q-2 -24 -6 -33t-17 -23l-175 -190q-17 -17 -33 -33.5t-29 -27.5h224l-13 -121h-427l6 58q2 24 6 33t17 23l167 184q17 18 36 37t34 32h-214zM337 703q18 0 24.5 -6.5t4.5 -23.5l-14 -112h-141l17 142h109z" />
    <glyph glyph-name="apple" unicode="&#xf8ff;" horiz-adv-x="536" 
d="M208 357q0 13 9.5 22t21.5 9q13 0 21.5 -9t8.5 -22t-8.5 -21.5t-21.5 -8.5q-12 0 -21.5 8.5t-9.5 21.5zM405 357q0 13 9.5 22t21.5 9q13 0 21.5 -9t8.5 -22t-8.5 -21.5t-21.5 -8.5q-12 0 -21.5 8.5t-9.5 21.5zM78 161q0 13 8.5 21.5t21.5 8.5q12 0 21.5 -8.5t9.5 -21.5
t-9.5 -22t-21.5 -9q-13 0 -21.5 9t-8.5 22zM78 357q0 13 8.5 22t21.5 9q12 0 21.5 -9t9.5 -22t-9.5 -21.5t-21.5 -8.5q-13 0 -21.5 8.5t-8.5 21.5zM275 357q0 13 8.5 22t21.5 9q12 0 21.5 -9t9.5 -22t-9.5 -21.5t-21.5 -8.5q-13 0 -21.5 8.5t-8.5 21.5zM340 620q0 12 8.5 21
t22.5 9q11 0 20.5 -9t9.5 -21q0 -14 -9.5 -22.5t-20.5 -8.5q-14 0 -22.5 8.5t-8.5 22.5zM78 620q0 12 8.5 21t21.5 9q12 0 21.5 -9t9.5 -21q0 -14 -9.5 -22.5t-21.5 -8.5q-13 0 -21.5 8.5t-8.5 22.5zM275 620q0 12 8.5 21t21.5 9q12 0 21.5 -9t9.5 -21q0 -14 -9.5 -22.5
t-21.5 -8.5q-13 0 -21.5 8.5t-8.5 22.5zM405 620q0 12 9.5 21t21.5 9q13 0 21.5 -9t8.5 -21q0 -14 -8.5 -22.5t-21.5 -8.5q-12 0 -21.5 8.5t-9.5 22.5zM208 620q0 12 9.5 21t21.5 9q13 0 21.5 -9t8.5 -21q0 -14 -8.5 -22.5t-21.5 -8.5q-12 0 -21.5 8.5t-9.5 22.5zM340 357
q0 13 8.5 22t22.5 9q11 0 20.5 -9t9.5 -22t-9.5 -21.5t-20.5 -8.5q-14 0 -22.5 8.5t-8.5 21.5zM208 30q0 12 9.5 21.5t21.5 9.5q13 0 21.5 -9.5t8.5 -21.5q0 -13 -8.5 -21.5t-21.5 -8.5q-12 0 -21.5 8.5t-9.5 21.5zM78 30q0 12 8.5 21.5t21.5 9.5q12 0 21.5 -9.5t9.5 -21.5
q0 -13 -9.5 -21.5t-21.5 -8.5q-13 0 -21.5 8.5t-8.5 21.5zM208 95q0 14 9.5 22t21.5 8q13 0 21.5 -8t8.5 -22q0 -13 -8.5 -21.5t-21.5 -8.5q-12 0 -21.5 8.5t-9.5 21.5zM78 95q0 14 8.5 22t21.5 8q12 0 21.5 -8t9.5 -22q0 -13 -9.5 -21.5t-21.5 -8.5q-13 0 -21.5 8.5
t-8.5 21.5zM144 620q0 12 9 21t21 9q13 0 21.5 -9t8.5 -21q0 -14 -8.5 -22.5t-21.5 -8.5q-12 0 -21 8.5t-9 22.5zM78 489q0 12 8.5 20.5t21.5 8.5q12 0 21.5 -8.5t9.5 -20.5q0 -13 -9.5 -22t-21.5 -9q-13 0 -21.5 9t-8.5 22zM275 489q0 12 8.5 20.5t21.5 8.5q12 0 21.5 -8.5
t9.5 -20.5q0 -13 -9.5 -22t-21.5 -9q-13 0 -21.5 9t-8.5 22zM208 489q0 12 9.5 20.5t21.5 8.5q13 0 21.5 -8.5t8.5 -20.5q0 -13 -8.5 -22t-21.5 -9q-12 0 -21.5 9t-9.5 22zM405 489q0 12 9.5 20.5t21.5 8.5q13 0 21.5 -8.5t8.5 -20.5q0 -13 -8.5 -22t-21.5 -9q-12 0 -21.5 9
t-9.5 22zM340 489q0 12 8.5 20.5t22.5 8.5q11 0 20.5 -8.5t9.5 -20.5q0 -13 -9.5 -22t-20.5 -9q-14 0 -22.5 9t-8.5 22zM144 30q0 12 9 21.5t21 9.5q13 0 21.5 -9.5t8.5 -21.5q0 -13 -8.5 -21.5t-21.5 -8.5q-12 0 -21 8.5t-9 21.5zM78 292q0 12 8.5 21t21.5 9q12 0 21.5 -9
t9.5 -21q0 -13 -9.5 -21.5t-21.5 -8.5q-13 0 -21.5 8.5t-8.5 21.5zM78 554q0 12 8.5 21t21.5 9q12 0 21.5 -9t9.5 -21q0 -13 -9.5 -21.5t-21.5 -8.5q-13 0 -21.5 8.5t-8.5 21.5zM405 292q0 12 9.5 21t21.5 9q13 0 21.5 -9t8.5 -21q0 -13 -8.5 -21.5t-21.5 -8.5
q-12 0 -21.5 8.5t-9.5 21.5zM78 423q0 13 8.5 21.5t21.5 8.5q12 0 21.5 -8.5t9.5 -21.5t-9.5 -21t-21.5 -8q-13 0 -21.5 8t-8.5 21zM208 423q0 13 9.5 21.5t21.5 8.5q13 0 21.5 -8.5t8.5 -21.5t-8.5 -21t-21.5 -8q-12 0 -21.5 8t-9.5 21zM208 227q0 12 9.5 20.5t21.5 8.5
q13 0 21.5 -8.5t8.5 -20.5q0 -13 -8.5 -21.5t-21.5 -8.5q-12 0 -21.5 8.5t-9.5 21.5zM405 227q0 12 9.5 20.5t21.5 8.5q13 0 21.5 -8.5t8.5 -20.5q0 -13 -8.5 -21.5t-21.5 -8.5q-12 0 -21.5 8.5t-9.5 21.5zM78 227q0 12 8.5 20.5t21.5 8.5q12 0 21.5 -8.5t9.5 -20.5
q0 -13 -9.5 -21.5t-21.5 -8.5q-13 0 -21.5 8.5t-8.5 21.5zM275 227q0 12 8.5 20.5t21.5 8.5q12 0 21.5 -8.5t9.5 -20.5q0 -13 -9.5 -21.5t-21.5 -8.5q-13 0 -21.5 8.5t-8.5 21.5zM340 227q0 12 8.5 20.5t22.5 8.5q11 0 20.5 -8.5t9.5 -20.5q0 -13 -9.5 -21.5t-20.5 -8.5
q-14 0 -22.5 8.5t-8.5 21.5z" />
    </font>
</defs>
</svg>
