<?xml version="1.0" encoding="utf-8"?>
<!-- Generator: Adobe Illustrator 25.3.1, SVG Export Plug-In . SVG Version: 6.00 Build 0)  -->
<svg version="1.1" id="Layer_1" xmlns="http://www.w3.org/2000/svg" xmlns:xlink="http://www.w3.org/1999/xlink" x="0px" y="0px"
	 viewBox="0 0 400 482.79" style="enable-background:new 0 0 400 482.79;" xml:space="preserve">
<style type="text/css">
	.st0{fill:#ED1C24;stroke:#00AEEF;stroke-width:4;stroke-miterlimit:10;}
	.st1{fill:#FFFFFF;stroke:#00AEEF;stroke-width:4;stroke-miterlimit:10;}
	.st2{fill:#FFFFFF;}
	.st3{fill:#00AEEF;}
</style>
<path class="st0" d="M350,146.75c-40.37,22.46-86.3,36.14-135.2,38.45c2.31-48.9,15.99-94.82,38.45-135.2h-106.5
	c22.46,40.37,36.14,86.3,38.45,135.2c-48.9-2.31-94.82-15.99-135.2-38.45v106.5c40.37-22.46,86.3-36.14,135.2-38.45
	c-2.31,48.9-15.99,94.82-38.45,135.2h106.5c-22.46-40.37-36.14-86.3-38.45-135.2c48.9,2.31,94.82,15.99,135.2,38.45V146.75z"/>
<rect x="142.67" y="346.08" transform="matrix(6.123234e-17 -1 1 6.123234e-17 -203.4038 496.7499)" class="st1" width="8" height="8"/>
<rect x="249.33" y="346.08" transform="matrix(6.123234e-17 -1 1 6.123234e-17 -96.7499 603.4037)" class="st1" width="8" height="8"/>
<rect x="142.67" y="46.08" transform="matrix(6.123234e-17 -1 1 6.123234e-17 96.5962 196.7499)" class="st1" width="8" height="8"/>
<rect x="249.33" y="46.08" transform="matrix(6.123234e-17 -1 1 6.123234e-17 203.2501 303.4038)" class="st1" width="8" height="8"/>
<rect x="210.8" y="181.2" transform="matrix(6.123234e-17 -1 1 6.123234e-17 29.6028 400)" class="st1" width="8" height="8"/>
<rect x="210.8" y="210.72" transform="matrix(6.123234e-17 -1 1 6.123234e-17 0.0854 429.5173)" class="st1" width="8" height="8"/>
<rect x="181.21" y="210.72" transform="matrix(6.123234e-17 -1 1 6.123234e-17 -29.5021 399.9297)" class="st1" width="8" height="8"/>
<g>
	<rect x="46" y="142.75" class="st1" width="8" height="8"/>
	<rect x="46" y="249.4" class="st1" width="8" height="8"/>
	<rect x="346" y="142.75" class="st1" width="8" height="8"/>
	<rect x="346" y="249.4" class="st1" width="8" height="8"/>
</g>
<g>
	<g>
		<line class="st0" x1="185.21" y1="185.2" x2="108.95" y2="261.47"/>
		<circle class="st1" cx="108.95" cy="261.47" r="8"/>
	</g>
	<g>
		<line class="st0" x1="185.21" y1="185.2" x2="261.48" y2="108.93"/>
		<circle class="st1" cx="261.48" cy="108.93" r="8"/>
	</g>
</g>
<rect x="177.21" y="177.2" transform="matrix(6.123234e-17 -1 1 6.123234e-17 0.0152 370.4124)" class="st1" width="16" height="16"/>
<g>
	<path class="st2" d="M60.03,392.15H46.89v-8.7h36.82v8.7H70.57v30.54H60.03V392.15z"/>
	<path class="st2" d="M90.57,410.97c0.2,1.22,0.82,2.2,1.86,2.93c1.04,0.73,2.5,1.09,4.35,1.09c0.87,0,1.82-0.09,2.87-0.27
		c1.04-0.18,1.98-0.36,2.81-0.56l4.14-1.07l2.84,5.33c-1.66,1.38-3.69,2.52-6.1,3.4c-2.41,0.89-4.85,1.33-7.34,1.33
		c-2.25,0-4.35-0.36-6.3-1.07c-1.95-0.71-3.62-1.76-5-3.14c-1.3-1.26-2.33-2.8-3.08-4.62c-0.75-1.81-1.12-3.83-1.12-6.04
		c0-2.29,0.4-4.35,1.21-6.19c0.81-1.83,1.89-3.4,3.26-4.71s2.94-2.31,4.74-3.02c1.79-0.71,3.68-1.07,5.65-1.07
		c2.13,0,4.09,0.37,5.89,1.09c1.79,0.73,3.34,1.74,4.65,3.02c1.3,1.28,2.33,2.77,3.08,4.47c0.75,1.7,1.12,3.49,1.12,5.39
		c0,1.22-0.06,2.09-0.18,2.6c-0.16,0.71-0.57,1.06-1.24,1.06H90.57z M100.51,404.87c-0.16-1.34-0.7-2.33-1.63-2.96
		c-0.93-0.63-2.02-0.95-3.28-0.95c-1.26,0-2.37,0.31-3.31,0.92c-0.95,0.61-1.5,1.61-1.66,2.99H100.51z"/>
	<path class="st2" d="M122.47,393.8l1.06,2.72l1.48-0.89c1.14-0.71,2.29-1.27,3.43-1.69c1.14-0.41,2.37-0.62,3.67-0.62
		c3.23,0,5.82,1.2,7.75,3.61l2.01-1.18c1.46-0.83,2.81-1.44,4.05-1.83c1.24-0.39,2.52-0.59,3.82-0.59c1.58,0,2.99,0.29,4.23,0.86
		c1.24,0.57,2.3,1.33,3.17,2.28c1.89,2.13,2.84,4.99,2.84,8.58v17.64h-9.94V405.4c0-0.59-0.06-1.05-0.18-1.39
		c-0.12-0.33-0.28-0.6-0.47-0.8c-0.51-0.51-1.46-0.77-2.84-0.77c-0.63,0-1.27,0.04-1.92,0.12c-0.65,0.08-1.25,0.22-1.81,0.41
		c-0.24,0.08-0.38,0.19-0.41,0.33c-0.04,0.14-0.06,0.31-0.06,0.5v18.88h-9.94V405.4c0-0.59-0.06-1.05-0.18-1.39
		c-0.12-0.33-0.28-0.6-0.47-0.8c-0.51-0.51-1.46-0.77-2.84-0.77c-0.63,0-1.27,0.04-1.92,0.12c-0.65,0.08-1.25,0.22-1.81,0.41
		c-0.24,0.08-0.38,0.19-0.41,0.33c-0.04,0.14-0.06,0.31-0.06,0.5v18.88h-9.94V393.8H122.47z"/>
	<path class="st2" d="M176.51,395.34c1.26-0.67,2.46-1.17,3.58-1.51c1.12-0.33,2.24-0.5,3.34-0.5c1.7,0,3.29,0.35,4.76,1.04
		c1.48,0.69,2.77,1.69,3.88,2.99c1.1,1.3,1.98,2.87,2.63,4.71c0.65,1.83,0.98,3.9,0.98,6.18c0,2.25-0.32,4.29-0.95,6.13
		c-0.63,1.83-1.5,3.4-2.6,4.71c-1.1,1.3-2.41,2.31-3.91,3.02c-1.5,0.71-3.12,1.07-4.85,1.07c-1.22,0-2.37-0.16-3.43-0.47
		c-1.07-0.32-2.11-0.75-3.14-1.3l-1.12-0.59v15.45h-9.94V393.8h7.69l1.01,2.6L176.51,395.34z M185.57,408.25
		c0-2.13-0.41-3.64-1.24-4.53s-2.15-1.33-3.97-1.33c-0.71,0-1.43,0.06-2.16,0.18c-0.73,0.12-1.37,0.28-1.92,0.47
		c-0.2,0.08-0.35,0.17-0.44,0.27c-0.1,0.1-0.15,0.31-0.15,0.62v8.64c0,0.32,0.05,0.52,0.15,0.62c0.1,0.1,0.25,0.19,0.44,0.27
		c0.55,0.2,1.19,0.37,1.92,0.5c0.73,0.14,1.45,0.21,2.16,0.21c1.81,0,3.14-0.45,3.97-1.36C185.15,411.9,185.57,410.38,185.57,408.25
		z"/>
	<path class="st2" d="M215.04,421.27c-0.87,0.43-1.9,0.81-3.11,1.12c-1.2,0.32-2.34,0.47-3.4,0.47c-1.26,0-2.43-0.21-3.49-0.62
		c-1.07-0.41-1.95-1-2.66-1.75c-0.67-0.67-1.17-1.5-1.51-2.49c-0.34-0.99-0.5-2.19-0.5-3.61v-33.68h9.94v34.27l4.73,1.3V421.27z"/>
	<path class="st2" d="M234.87,404.34c0-0.59-0.08-1.07-0.24-1.42c-0.16-0.36-0.38-0.63-0.65-0.83c-0.4-0.32-0.88-0.51-1.45-0.59
		c-0.57-0.08-1.19-0.12-1.86-0.12c-0.95,0-1.97,0.09-3.08,0.27c-1.11,0.18-2.37,0.48-3.79,0.92l-2.43,0.71l-2.78-5.15
		c1.81-1.5,3.9-2.67,6.24-3.52c2.35-0.85,4.71-1.27,7.07-1.27c1.97,0,3.83,0.28,5.56,0.83c1.74,0.55,3.22,1.42,4.44,2.6
		c0.91,0.91,1.62,2.01,2.13,3.31c0.51,1.3,0.77,2.9,0.77,4.79v10.48l3.91,0.95v4.97c-0.79,0.43-1.74,0.81-2.84,1.12
		s-2.11,0.47-3.02,0.47c-1.14,0-2.19-0.21-3.14-0.62c-0.95-0.41-1.95-1.07-3.02-1.98l-1.89,1.07c-1.03,0.55-2.13,1-3.31,1.33
		s-2.35,0.5-3.49,0.5c-1.58,0-3.02-0.24-4.32-0.71c-1.3-0.47-2.43-1.13-3.37-1.98c-0.95-0.85-1.69-1.86-2.22-3.05
		c-0.53-1.18-0.8-2.49-0.8-3.91c0-1.42,0.27-2.66,0.8-3.73c0.53-1.07,1.24-1.95,2.13-2.66s1.93-1.23,3.14-1.57
		c1.2-0.33,2.48-0.5,3.82-0.5c1.34,0,2.68,0.16,4.02,0.47c1.34,0.32,2.56,0.75,3.67,1.3V404.34z M226.41,390.31l-2.78-4.02
		l10.36-8.58c0.55-0.43,0.97-0.65,1.24-0.65c0.43,0,0.89,0.35,1.36,1.07l3.73,5.45L226.41,390.31z M234.87,412.09
		c0-0.2-0.03-0.32-0.09-0.36c-0.06-0.04-0.21-0.06-0.44-0.06h-6.39c-0.59,0-1.01,0.14-1.24,0.41c-0.16,0.2-0.24,0.51-0.24,0.95
		c0,0.79,0.3,1.47,0.92,2.04c0.61,0.57,1.49,0.86,2.63,0.86c0.67,0,1.44-0.1,2.31-0.3c0.87-0.2,1.56-0.42,2.07-0.65
		c0.32-0.16,0.47-0.39,0.47-0.71V412.09z"/>
	<path class="st2" d="M261.21,397.83l1.78-1.42c1.38-1.14,2.54-1.94,3.46-2.4c0.93-0.45,1.86-0.68,2.81-0.68
		c0.67,0,1.34,0.12,2.01,0.36c0.67,0.24,1.32,0.53,1.95,0.89v6.87l-3.37,0.77c-1.42,0.32-2.74,0.63-3.97,0.95
		c-1.22,0.32-2.13,0.57-2.72,0.77c-0.32,0.12-0.52,0.24-0.62,0.36c-0.1,0.12-0.15,0.33-0.15,0.65v17.76h-9.94V393.8h7.69
		L261.21,397.83z"/>
	<path class="st2" d="M276.66,380.72H284c0.99,0,1.67,0.18,2.04,0.53s0.56,0.95,0.56,1.78v6.98h-9.94V380.72z M276.66,393.8h9.94
		v28.88h-9.94V393.8z"/>
	<path class="st2" d="M321.76,408.25c0,2.29-0.38,4.35-1.15,6.19s-1.83,3.4-3.2,4.71c-1.36,1.3-2.98,2.3-4.85,2.99
		c-1.88,0.69-3.9,1.04-6.07,1.04c-2.17,0-4.19-0.35-6.07-1.04c-1.87-0.69-3.49-1.69-4.85-2.99c-1.36-1.3-2.43-2.87-3.2-4.71
		c-0.77-1.83-1.15-3.9-1.15-6.19c0-2.29,0.38-4.35,1.15-6.18c0.77-1.83,1.83-3.4,3.2-4.71c1.36-1.3,2.98-2.3,4.85-2.99
		s3.9-1.04,6.07-1.04c2.17,0,4.19,0.35,6.07,1.04c1.87,0.69,3.49,1.69,4.85,2.99c1.36,1.3,2.43,2.87,3.2,4.71
		S321.76,405.96,321.76,408.25z M311.64,408.25c0-2.21-0.46-3.75-1.39-4.62c-0.93-0.87-2.18-1.3-3.76-1.3
		c-1.58,0-2.83,0.43-3.76,1.3c-0.93,0.87-1.39,2.41-1.39,4.62c0,2.21,0.46,3.75,1.39,4.62c0.93,0.87,2.18,1.3,3.76,1.3
		c1.58,0,2.83-0.43,3.76-1.3C311.17,412,311.64,410.46,311.64,408.25z"/>
	<path class="st2" d="M348.39,401.79l-3.31-0.36c-1.34-0.16-2.61-0.28-3.82-0.35c-1.2-0.08-2.24-0.12-3.11-0.12
		c-1.66,0-2.77,0.09-3.34,0.27c-0.57,0.18-0.86,0.48-0.86,0.92c0,0.32,0.18,0.56,0.53,0.74c0.36,0.18,1.03,0.37,2.01,0.56l3.73,0.71
		c1.78,0.36,3.35,0.75,4.74,1.18c1.38,0.43,2.55,0.99,3.52,1.66s1.7,1.51,2.19,2.52c0.49,1.01,0.74,2.26,0.74,3.76
		c0,1.42-0.27,2.73-0.8,3.94c-0.53,1.2-1.33,2.25-2.4,3.14c-1.06,0.89-2.42,1.58-4.05,2.07c-1.64,0.49-3.56,0.74-5.77,0.74
		c-2.37,0-4.81-0.35-7.34-1.04c-2.53-0.69-4.68-1.57-6.45-2.63l2.13-5.92l3.73,0.83c1.66,0.35,3.19,0.63,4.59,0.83
		c1.4,0.2,2.65,0.3,3.76,0.3c2.52,0,3.79-0.51,3.79-1.54c0-0.39-0.17-0.67-0.5-0.83c-0.33-0.16-0.84-0.32-1.51-0.47l-4.2-0.83
		c-1.78-0.36-3.34-0.78-4.71-1.27s-2.52-1.1-3.46-1.81c-2.01-1.54-3.02-3.69-3.02-6.45c0-2.96,1.17-5.2,3.52-6.72
		c2.35-1.52,5.51-2.28,9.5-2.28c2.01,0,4.03,0.19,6.07,0.56c2.03,0.38,3.9,0.94,5.59,1.69L348.39,401.79z"/>
</g>
<g>
	<path class="st3" d="M224.39,433.84h5.29c0.83,0,1.49,0.07,2,0.2c0.5,0.14,0.92,0.37,1.25,0.7c0.25,0.24,0.44,0.53,0.57,0.88
		c0.13,0.35,0.2,0.71,0.2,1.08c0,0.45-0.1,0.88-0.3,1.28c-0.2,0.4-0.45,0.74-0.74,1.01c0.52,0.23,0.94,0.56,1.27,1
		s0.48,0.99,0.48,1.65c0,0.52-0.08,0.98-0.24,1.38c-0.16,0.4-0.39,0.74-0.68,1.02c-0.73,0.71-1.93,1.07-3.62,1.07h-5.48V433.84z
		 M230.09,438.35c0.1,0,0.19-0.01,0.25-0.03s0.13-0.08,0.19-0.17c0.06-0.09,0.1-0.22,0.14-0.4s0.05-0.33,0.05-0.47
		c0-0.34-0.07-0.58-0.22-0.73c-0.09-0.09-0.21-0.15-0.37-0.19c-0.15-0.03-0.35-0.05-0.59-0.05h-2.13v2.04H230.09z M227.41,442.66
		h2.65c0.5,0,0.83-0.08,1-0.26c0.17-0.17,0.26-0.45,0.26-0.85c0-0.33-0.08-0.57-0.24-0.73c-0.09-0.09-0.22-0.16-0.38-0.2
		c-0.16-0.04-0.37-0.06-0.65-0.06h-2.65V442.66z"/>
	<path class="st3" d="M240.41,439.22c0.18-0.44,0.4-0.92,0.66-1.44s0.57-1.11,0.94-1.79l1.04-1.94c0.06-0.09,0.1-0.15,0.14-0.17
		c0.04-0.02,0.1-0.03,0.2-0.03h3.15l-4.68,7.88v3.4h-3.03v-3.4l-4.76-7.88h3.28c0.09,0,0.16,0.01,0.2,0.03
		c0.04,0.02,0.09,0.08,0.14,0.17l1.12,2.01c0.2,0.38,0.38,0.71,0.54,1c0.16,0.29,0.3,0.56,0.42,0.8c0.12,0.24,0.23,0.48,0.33,0.7
		c0.1,0.22,0.2,0.45,0.29,0.67H240.41z"/>
	<path class="st3" d="M260.69,434.13c0.1-0.12,0.19-0.2,0.26-0.24c0.07-0.03,0.2-0.05,0.37-0.05h2.3v11.28h-2.91v-6.96h-0.02
		l-2.4,2.98h-1.68c-0.12,0-0.22-0.01-0.3-0.04c-0.07-0.03-0.14-0.09-0.21-0.18l-2.18-2.76h-0.02v6.96h-2.89v-11.28h2.45
		c0.17,0,0.29,0.02,0.37,0.05s0.16,0.11,0.26,0.24l3.28,4.1h0.05L260.69,434.13z"/>
	<path class="st3" d="M274.46,433.84v2.5h-5.73v1.85h5.22v2.45h-5.22v1.97h5.89v2.5h-8.92v-11.28H274.46z"/>
	<path class="st3" d="M276.52,445.13v-11.28h4.12c1.17,0,2.2,0.13,3.08,0.39s1.63,0.69,2.23,1.29c0.45,0.45,0.81,1.01,1.05,1.67
		c0.25,0.66,0.38,1.42,0.38,2.3s-0.12,1.64-0.38,2.29c-0.25,0.65-0.6,1.21-1.05,1.66c-0.6,0.6-1.34,1.03-2.23,1.29
		c-0.88,0.26-1.91,0.39-3.08,0.39H276.52z M280.55,442.52c0.66,0,1.22-0.04,1.68-0.14c0.46-0.09,0.85-0.27,1.16-0.54
		c0.26-0.23,0.46-0.53,0.61-0.91s0.22-0.86,0.22-1.44s-0.07-1.06-0.22-1.45s-0.35-0.69-0.61-0.92c-0.31-0.27-0.69-0.45-1.16-0.54
		c-0.47-0.09-1.03-0.14-1.68-0.14h-1v6.07H280.55z"/>
	<path class="st3" d="M297.57,438.01l-1.75-1.07c-0.31-0.19-0.59-0.33-0.85-0.41c-0.26-0.08-0.56-0.12-0.88-0.12
		c-0.34,0-0.66,0.07-0.96,0.2c-0.3,0.14-0.56,0.33-0.79,0.6c-0.23,0.26-0.41,0.58-0.54,0.94c-0.13,0.37-0.2,0.79-0.2,1.27
		c0,0.96,0.25,1.71,0.76,2.24s1.23,0.79,2.17,0.79h0.03c0.17,0,0.35-0.01,0.54-0.02c0.19-0.01,0.37-0.03,0.55-0.05
		s0.35-0.05,0.52-0.08c0.16-0.03,0.31-0.07,0.43-0.1c0.07-0.02,0.11-0.05,0.13-0.09c0.02-0.04,0.03-0.09,0.03-0.14v-0.97h-1.57
		v-1.96h4c0.2,0,0.34,0.03,0.42,0.09c0.07,0.06,0.11,0.18,0.11,0.37v5.63h-2.09l-0.48-0.97l-0.83,0.48
		c-0.41,0.24-0.81,0.41-1.19,0.51c-0.39,0.1-0.8,0.15-1.24,0.15c-0.84,0-1.59-0.15-2.26-0.45c-0.67-0.3-1.24-0.71-1.71-1.23
		c-0.47-0.52-0.83-1.13-1.09-1.84c-0.25-0.71-0.38-1.47-0.38-2.29c0-0.9,0.15-1.7,0.46-2.42c0.31-0.72,0.73-1.33,1.26-1.84
		c0.53-0.5,1.16-0.89,1.87-1.16s1.47-0.4,2.28-0.4c0.59,0,1.15,0.08,1.68,0.23c0.53,0.15,1.02,0.37,1.46,0.64s0.83,0.6,1.16,0.97
		s0.58,0.78,0.75,1.22L297.57,438.01z"/>
	<path class="st3" d="M304.71,445.13h-3.03v-11.28h4.93c0.95,0,1.74,0.08,2.37,0.25c0.63,0.17,1.14,0.44,1.54,0.83
		c0.31,0.31,0.54,0.68,0.71,1.12c0.17,0.44,0.26,0.95,0.26,1.51c0,0.81-0.18,1.51-0.54,2.1c-0.36,0.6-0.81,1.06-1.33,1.39l2.54,4.08
		h-3.01c-0.14,0-0.24-0.02-0.3-0.05s-0.13-0.11-0.21-0.24l-1.72-2.93c-0.09-0.16-0.17-0.25-0.22-0.29s-0.16-0.05-0.32-0.05h-1.67
		V445.13z M307.57,439.17c0.15,0,0.26-0.02,0.35-0.06s0.17-0.12,0.26-0.25c0.09-0.15,0.16-0.33,0.2-0.56
		c0.04-0.23,0.06-0.42,0.06-0.6c0-0.2-0.03-0.4-0.09-0.59c-0.06-0.19-0.14-0.33-0.23-0.42c-0.14-0.12-0.32-0.21-0.54-0.26
		c-0.23-0.04-0.53-0.07-0.9-0.07h-1.96v2.79H307.57z"/>
	<path class="st3" d="M323.94,440.26c0,0.83-0.1,1.55-0.31,2.15c-0.2,0.61-0.53,1.13-0.97,1.56c-0.43,0.42-0.98,0.75-1.64,0.98
		c-0.66,0.23-1.44,0.35-2.32,0.35s-1.66-0.12-2.32-0.35c-0.66-0.23-1.21-0.56-1.64-0.98c-0.44-0.43-0.77-0.95-0.98-1.56
		c-0.21-0.61-0.31-1.32-0.31-2.15v-6.42h3.03v6.64c0,0.65,0.15,1.11,0.46,1.38c0.18,0.16,0.43,0.28,0.75,0.37s0.67,0.14,1.05,0.14
		s0.73-0.04,1.04-0.14c0.31-0.09,0.55-0.21,0.73-0.37c0.31-0.27,0.46-0.73,0.46-1.38v-6.64h2.98V440.26z"/>
	<path class="st3" d="M328.87,441.81v3.32h-3.03v-11.28h4.87c0.94,0,1.72,0.09,2.35,0.27c0.62,0.18,1.13,0.47,1.53,0.87
		c0.65,0.65,0.97,1.57,0.97,2.77c0,0.65-0.09,1.22-0.26,1.71c-0.18,0.49-0.43,0.9-0.76,1.23c-0.37,0.37-0.83,0.65-1.37,0.83
		c-0.54,0.18-1.23,0.27-2.08,0.27H328.87z M331.66,439.38c0.15,0,0.26-0.02,0.34-0.06s0.16-0.12,0.24-0.25
		c0.09-0.15,0.16-0.35,0.2-0.6c0.04-0.26,0.06-0.49,0.06-0.69c0-0.21-0.03-0.42-0.09-0.61c-0.06-0.19-0.14-0.34-0.24-0.44
		c-0.14-0.14-0.32-0.23-0.55-0.27c-0.23-0.04-0.55-0.07-0.94-0.07h-1.8v3H331.66z"/>
	<path class="st3" d="M348.24,439.49c0,0.88-0.16,1.68-0.47,2.4c-0.31,0.71-0.73,1.32-1.26,1.83c-0.53,0.5-1.14,0.89-1.85,1.17
		s-1.45,0.41-2.25,0.41s-1.54-0.14-2.25-0.41s-1.32-0.66-1.85-1.17s-0.95-1.12-1.26-1.83c-0.31-0.71-0.47-1.51-0.47-2.4
		s0.16-1.68,0.47-2.4c0.31-0.71,0.73-1.32,1.26-1.83c0.53-0.5,1.14-0.9,1.85-1.17c0.7-0.28,1.45-0.42,2.25-0.42s1.54,0.14,2.25,0.42
		c0.7,0.28,1.32,0.67,1.85,1.17c0.53,0.5,0.95,1.11,1.26,1.83C348.08,437.81,348.24,438.61,348.24,439.49z M345.07,439.49
		c0-0.9-0.23-1.6-0.69-2.1c-0.46-0.5-1.11-0.76-1.96-0.76s-1.51,0.25-1.96,0.76c-0.46,0.5-0.69,1.21-0.69,2.1s0.23,1.59,0.69,2.09
		c0.46,0.5,1.11,0.75,1.96,0.75s1.51-0.25,1.96-0.75C344.84,441.09,345.07,440.39,345.07,439.49z"/>
</g>
</svg>
