<?xml version="1.0" encoding="utf-8"?>
<!-- Generator: Adobe Illustrator 25.3.1, SVG Export Plug-In . SVG Version: 6.00 Build 0)  -->
<svg version="1.1" id="Layer_1" xmlns="http://www.w3.org/2000/svg" xmlns:xlink="http://www.w3.org/1999/xlink" x="0px" y="0px"
	 viewBox="0 0 845.64 219.24" style="enable-background:new 0 0 845.64 219.24;" xml:space="preserve">
<style type="text/css">
	.st0{fill:#ED1C24;stroke:#00AEEF;stroke-width:4;stroke-miterlimit:10;}
	.st1{fill:#FFFFFF;stroke:#00AEEF;stroke-width:4;stroke-miterlimit:10;}
	.st2{fill:#FFFFFF;}
	.st3{fill:#00AEEF;}
</style>
<g>
	<path class="st0" d="M202.76,80.72c-22.65,12.6-48.42,20.28-75.85,21.57c1.3-27.44,8.97-53.2,21.57-75.85H88.73
		c12.6,22.65,20.28,48.42,21.57,75.85c-27.44-1.3-53.2-8.97-75.85-21.57v59.75c22.65-12.6,48.42-20.28,75.85-21.57
		c-1.3,27.44-8.97,53.2-21.57,75.85h59.75c-12.6-22.65-20.28-48.42-21.57-75.85c27.44,1.3,53.2,8.97,75.85,21.57V80.72z"/>

		<rect x="86.44" y="192.55" transform="matrix(6.123234e-17 -1 1 6.123234e-17 -106.1075 283.4841)" class="st1" width="4.49" height="4.49"/>

		<rect x="146.28" y="192.55" transform="matrix(6.123234e-17 -1 1 6.123234e-17 -46.2701 343.3216)" class="st1" width="4.49" height="4.49"/>

		<rect x="86.44" y="24.24" transform="matrix(6.123234e-17 -1 1 6.123234e-17 62.2055 115.1711)" class="st1" width="4.49" height="4.49"/>

		<rect x="146.28" y="24.24" transform="matrix(6.123234e-17 -1 1 6.123234e-17 122.043 175.0085)" class="st1" width="4.49" height="4.49"/>

		<rect x="124.67" y="100.05" transform="matrix(6.123234e-17 -1 1 6.123234e-17 24.6193 229.2032)" class="st1" width="4.49" height="4.49"/>

		<rect x="124.67" y="116.61" transform="matrix(6.123234e-17 -1 1 6.123234e-17 8.0588 245.7637)" class="st1" width="4.49" height="4.49"/>

		<rect x="108.07" y="116.61" transform="matrix(6.123234e-17 -1 1 6.123234e-17 -8.5411 229.1638)" class="st1" width="4.49" height="4.49"/>
	<g>
		<rect x="32.21" y="78.48" class="st1" width="4.49" height="4.49"/>
		<rect x="32.21" y="138.31" class="st1" width="4.49" height="4.49"/>
		<rect x="200.52" y="78.48" class="st1" width="4.49" height="4.49"/>
		<rect x="200.52" y="138.31" class="st1" width="4.49" height="4.49"/>
	</g>
	<g>
		<g>
			<line class="st0" x1="110.31" y1="102.29" x2="67.52" y2="145.08"/>
			<circle class="st1" cx="67.52" cy="145.08" r="4.49"/>
		</g>
		<g>
			<line class="st0" x1="110.31" y1="102.29" x2="153.1" y2="59.5"/>
			<circle class="st1" cx="153.1" cy="59.5" r="4.49"/>
		</g>
	</g>

		<rect x="105.82" y="97.8" transform="matrix(6.123234e-17 -1 1 6.123234e-17 8.0194 212.6033)" class="st1" width="8.98" height="8.98"/>
</g>
<g>
	<path class="st2" d="M276.13,71.99h-24.11V56.02h67.54v15.96h-24.11v56.03h-19.33V71.99z"/>
	<path class="st2" d="M332.16,106.52c0.36,2.24,1.5,4.04,3.42,5.38c1.92,1.34,4.58,2.01,7.98,2.01c1.59,0,3.35-0.16,5.27-0.49
		c1.92-0.33,3.64-0.67,5.16-1.03l7.6-1.95l5.21,9.77c-3.04,2.54-6.77,4.62-11.19,6.24c-4.42,1.63-8.9,2.44-13.46,2.44
		c-4.13,0-7.98-0.65-11.56-1.95c-3.58-1.3-6.64-3.22-9.18-5.75c-2.39-2.32-4.27-5.14-5.65-8.47c-1.38-3.33-2.06-7.02-2.06-11.08
		c0-4.2,0.74-7.98,2.23-11.35c1.48-3.36,3.47-6.24,5.97-8.63s5.39-4.24,8.69-5.54c3.29-1.3,6.75-1.95,10.37-1.95
		c3.91,0,7.51,0.67,10.8,2.01c3.29,1.34,6.14,3.19,8.52,5.54c2.39,2.35,4.27,5.09,5.65,8.2c1.37,3.11,2.06,6.41,2.06,9.88
		c0,2.24-0.11,3.84-0.33,4.78c-0.29,1.3-1.05,1.95-2.28,1.95H332.16z M350.41,95.33c-0.29-2.46-1.29-4.27-2.99-5.43
		c-1.7-1.16-3.71-1.74-6.03-1.74c-2.32,0-4.34,0.56-6.08,1.68c-1.74,1.12-2.75,2.95-3.04,5.48H350.41z"/>
	<path class="st2" d="M390.69,75.03l1.95,5l2.72-1.63c2.1-1.3,4.2-2.33,6.3-3.1c2.1-0.76,4.34-1.14,6.73-1.14
		c5.93,0,10.68,2.21,14.23,6.62l3.69-2.17c2.68-1.52,5.16-2.64,7.44-3.37c2.28-0.72,4.62-1.09,7-1.09c2.89,0,5.48,0.53,7.76,1.57
		c2.28,1.05,4.22,2.44,5.81,4.18c3.47,3.91,5.21,9.16,5.21,15.75v32.36h-18.24V96.31c0-1.09-0.11-1.93-0.33-2.55
		c-0.22-0.61-0.51-1.1-0.87-1.47c-0.94-0.94-2.68-1.41-5.21-1.41c-1.16,0-2.33,0.07-3.53,0.22c-1.2,0.15-2.3,0.4-3.31,0.76
		c-0.43,0.15-0.69,0.35-0.76,0.6c-0.07,0.25-0.11,0.56-0.11,0.92v34.64h-18.24V96.31c0-1.09-0.11-1.93-0.33-2.55
		c-0.22-0.61-0.51-1.1-0.87-1.47c-0.94-0.94-2.68-1.41-5.21-1.41c-1.16,0-2.33,0.07-3.53,0.22c-1.2,0.15-2.3,0.4-3.31,0.76
		c-0.43,0.15-0.69,0.35-0.76,0.6c-0.07,0.25-0.11,0.56-0.11,0.92v34.64h-18.24V75.03H390.69z"/>
	<path class="st2" d="M489.83,77.85c2.32-1.23,4.51-2.15,6.57-2.77c2.06-0.61,4.11-0.92,6.13-0.92c3.11,0,6.03,0.63,8.74,1.9
		c2.72,1.27,5.09,3.09,7.11,5.48c2.03,2.39,3.64,5.27,4.83,8.63c1.2,3.37,1.79,7.15,1.79,11.35c0,4.13-0.58,7.87-1.74,11.24
		c-1.16,3.37-2.75,6.24-4.78,8.63c-2.03,2.39-4.42,4.24-7.17,5.54c-2.75,1.3-5.72,1.95-8.9,1.95c-2.24,0-4.34-0.29-6.3-0.87
		c-1.95-0.58-3.87-1.37-5.76-2.39l-2.06-1.09v28.34h-18.24V75.03h14.12l1.85,4.78L489.83,77.85z M506.45,101.52
		c0-3.91-0.76-6.68-2.28-8.31c-1.52-1.63-3.95-2.44-7.28-2.44c-1.3,0-2.62,0.11-3.96,0.33c-1.34,0.22-2.52,0.51-3.53,0.87
		c-0.36,0.15-0.63,0.31-0.81,0.49c-0.18,0.18-0.27,0.56-0.27,1.14v15.85c0,0.58,0.09,0.96,0.27,1.14c0.18,0.18,0.45,0.35,0.81,0.49
		c1.01,0.36,2.19,0.67,3.53,0.92c1.34,0.25,2.66,0.38,3.96,0.38c3.33,0,5.76-0.83,7.28-2.5
		C505.69,108.22,506.45,105.43,506.45,101.52z"/>
	<path class="st2" d="M560.52,125.41c-1.59,0.8-3.49,1.49-5.7,2.06c-2.21,0.58-4.29,0.87-6.24,0.87c-2.32,0-4.45-0.38-6.41-1.14
		c-1.95-0.76-3.58-1.83-4.89-3.2c-1.23-1.23-2.16-2.75-2.77-4.56c-0.62-1.81-0.92-4.02-0.92-6.62V51.03h18.24v62.87l8.69,2.39
		V125.41z"/>
	<path class="st2" d="M596.9,94.35c0-1.09-0.15-1.95-0.43-2.61c-0.29-0.65-0.69-1.16-1.2-1.52c-0.73-0.58-1.61-0.94-2.66-1.09
		c-1.05-0.14-2.19-0.22-3.42-0.22c-1.74,0-3.62,0.16-5.65,0.49c-2.03,0.32-4.34,0.89-6.95,1.68l-4.45,1.3l-5.1-9.45
		c3.33-2.75,7.15-4.9,11.46-6.46c4.31-1.56,8.63-2.33,12.98-2.33c3.62,0,7.02,0.51,10.21,1.52c3.18,1.01,5.9,2.61,8.14,4.78
		c1.66,1.67,2.97,3.69,3.91,6.08c0.94,2.39,1.41,5.32,1.41,8.8v19.22l7.17,1.74v9.12c-1.45,0.8-3.19,1.49-5.21,2.06
		c-2.03,0.58-3.87,0.87-5.54,0.87c-2.1,0-4.02-0.38-5.75-1.14c-1.74-0.76-3.58-1.97-5.54-3.64l-3.48,1.95
		c-1.88,1.01-3.91,1.83-6.08,2.44c-2.17,0.61-4.31,0.92-6.41,0.92c-2.9,0-5.54-0.44-7.93-1.3c-2.39-0.87-4.45-2.08-6.19-3.64
		c-1.74-1.56-3.09-3.42-4.07-5.59c-0.98-2.17-1.47-4.56-1.47-7.17c0-2.61,0.49-4.89,1.47-6.84c0.98-1.95,2.28-3.58,3.91-4.89
		c1.63-1.3,3.55-2.26,5.76-2.88c2.21-0.61,4.54-0.92,7-0.92c2.46,0,4.92,0.29,7.38,0.87c2.46,0.58,4.7,1.38,6.73,2.39V94.35z
		 M581.37,68.62l-5.1-7.38l19-15.75c1.01-0.8,1.77-1.19,2.28-1.19c0.8,0,1.63,0.65,2.5,1.95l6.84,9.99L581.37,68.62z M596.9,108.58
		c0-0.36-0.05-0.58-0.16-0.65c-0.11-0.07-0.38-0.11-0.82-0.11h-11.73c-1.09,0-1.85,0.25-2.28,0.76c-0.29,0.36-0.43,0.94-0.43,1.74
		c0,1.45,0.56,2.7,1.68,3.75c1.12,1.05,2.73,1.57,4.83,1.57c1.23,0,2.64-0.18,4.24-0.54c1.59-0.36,2.86-0.76,3.8-1.2
		c0.58-0.29,0.87-0.72,0.87-1.3V108.58z"/>
	<path class="st2" d="M645.22,82.41l3.26-2.61c2.53-2.1,4.65-3.57,6.35-4.4c1.7-0.83,3.42-1.25,5.16-1.25
		c1.23,0,2.46,0.22,3.69,0.65c1.23,0.43,2.43,0.98,3.58,1.63v12.6l-6.19,1.41c-2.61,0.58-5.03,1.16-7.28,1.74
		c-2.24,0.58-3.91,1.05-5,1.41c-0.58,0.22-0.96,0.43-1.14,0.65c-0.18,0.22-0.27,0.61-0.27,1.19v32.58h-18.24V75.03h14.12
		L645.22,82.41z"/>
	<path class="st2" d="M673.56,51.03h13.46c1.81,0,3.06,0.33,3.75,0.98c0.69,0.65,1.03,1.74,1.03,3.26v12.81h-18.24V51.03z
		 M673.56,75.03h18.24v52.99h-18.24V75.03z"/>
	<path class="st2" d="M756.3,101.52c0,4.2-0.71,7.98-2.12,11.35s-3.37,6.24-5.86,8.63c-2.5,2.39-5.47,4.22-8.9,5.48
		c-3.44,1.27-7.15,1.9-11.13,1.9c-3.98,0-7.69-0.63-11.13-1.9c-3.44-1.26-6.41-3.09-8.9-5.48c-2.5-2.39-4.45-5.27-5.86-8.63
		c-1.41-3.37-2.12-7.15-2.12-11.35c0-4.2,0.71-7.98,2.12-11.35c1.41-3.37,3.37-6.24,5.86-8.63c2.5-2.39,5.47-4.22,8.9-5.48
		s7.15-1.9,11.13-1.9c3.98,0,7.69,0.63,11.13,1.9c3.44,1.27,6.41,3.09,8.9,5.48c2.5,2.39,4.45,5.27,5.86,8.63
		C755.6,93.54,756.3,97.33,756.3,101.52z M737.73,101.52c0-4.05-0.85-6.88-2.55-8.47c-1.7-1.59-4-2.39-6.89-2.39
		c-2.9,0-5.2,0.8-6.9,2.39c-1.7,1.59-2.55,4.42-2.55,8.47c0,4.06,0.85,6.88,2.55,8.47c1.7,1.59,4,2.39,6.9,2.39
		c2.89,0,5.19-0.8,6.89-2.39C736.88,108.4,737.73,105.58,737.73,101.52z"/>
	<path class="st2" d="M805.17,89.69l-6.08-0.65c-2.46-0.29-4.8-0.51-7-0.65c-2.21-0.15-4.11-0.22-5.7-0.22
		c-3.04,0-5.09,0.16-6.13,0.49c-1.05,0.33-1.57,0.89-1.57,1.68c0,0.58,0.33,1.03,0.98,1.36c0.65,0.33,1.88,0.67,3.69,1.03l6.84,1.3
		c3.26,0.65,6.15,1.38,8.69,2.17c2.53,0.8,4.69,1.81,6.46,3.04c1.77,1.23,3.11,2.77,4.02,4.62c0.9,1.85,1.36,4.14,1.36,6.89
		c0,2.61-0.49,5.01-1.47,7.22c-0.98,2.21-2.44,4.13-4.4,5.75c-1.95,1.63-4.43,2.9-7.44,3.8c-3,0.9-6.53,1.36-10.59,1.36
		c-4.34,0-8.83-0.63-13.46-1.9c-4.63-1.26-8.58-2.88-11.84-4.83l3.91-10.86l6.84,1.52c3.04,0.65,5.84,1.16,8.42,1.52
		c2.57,0.36,4.87,0.54,6.9,0.54c4.63,0,6.95-0.94,6.95-2.82c0-0.72-0.31-1.23-0.92-1.52c-0.61-0.29-1.54-0.58-2.77-0.87l-7.71-1.52
		c-3.26-0.65-6.14-1.43-8.63-2.33s-4.62-2.01-6.35-3.31c-3.69-2.82-5.54-6.77-5.54-11.84c0-5.43,2.15-9.54,6.46-12.32
		c4.31-2.79,10.12-4.18,17.43-4.18c3.69,0,7.4,0.34,11.13,1.03c3.73,0.69,7.15,1.72,10.26,3.09L805.17,89.69z"/>
</g>
<g>
	<path class="st3" d="M577.66,148.49h9.71c1.52,0,2.74,0.13,3.67,0.37c0.93,0.25,1.69,0.68,2.3,1.28c0.46,0.44,0.81,0.97,1.04,1.61
		c0.24,0.64,0.36,1.3,0.36,1.98c0,0.83-0.18,1.62-0.55,2.36c-0.37,0.74-0.82,1.36-1.36,1.86c0.96,0.42,1.73,1.03,2.33,1.84
		c0.59,0.81,0.89,1.82,0.89,3.03c0,0.96-0.15,1.8-0.44,2.53c-0.29,0.73-0.71,1.35-1.25,1.87c-1.33,1.31-3.55,1.97-6.65,1.97h-10.05
		V148.49z M588.12,156.76c0.19,0,0.34-0.02,0.47-0.06c0.13-0.04,0.24-0.15,0.34-0.31c0.1-0.16,0.19-0.41,0.25-0.73
		c0.06-0.32,0.09-0.61,0.09-0.86c0-0.63-0.13-1.07-0.4-1.34c-0.17-0.17-0.39-0.28-0.67-0.34c-0.28-0.06-0.64-0.09-1.08-0.09h-3.9
		v3.75H588.12z M583.22,164.66h4.87c0.92,0,1.53-0.16,1.84-0.47c0.31-0.31,0.47-0.83,0.47-1.56c0-0.6-0.15-1.05-0.44-1.34
		c-0.17-0.17-0.4-0.29-0.69-0.36c-0.29-0.07-0.69-0.11-1.19-0.11h-4.87V164.66z"/>
	<path class="st3" d="M607.07,158.35c0.33-0.81,0.74-1.69,1.22-2.64c0.48-0.95,1.05-2.04,1.72-3.29l1.9-3.56
		c0.1-0.16,0.19-0.27,0.27-0.31c0.07-0.04,0.19-0.06,0.36-0.06h5.78l-8.59,14.45v6.24h-5.56v-6.24l-8.74-14.45h6.02
		c0.17,0,0.29,0.02,0.36,0.06c0.07,0.04,0.16,0.15,0.27,0.31l2.06,3.68c0.37,0.69,0.71,1.3,1,1.83c0.29,0.53,0.55,1.02,0.77,1.47
		c0.22,0.45,0.42,0.87,0.61,1.28c0.19,0.4,0.36,0.82,0.53,1.23H607.07z"/>
	<path class="st3" d="M644.28,149.02c0.19-0.23,0.35-0.37,0.48-0.44c0.14-0.06,0.36-0.09,0.67-0.09h4.21v20.7h-5.34v-12.77h-0.03
		l-4.4,5.46h-3.09c-0.23,0-0.41-0.03-0.55-0.08c-0.14-0.05-0.27-0.16-0.39-0.33l-4-5.06h-0.03v12.77h-5.31v-20.7h4.5
		c0.31,0,0.53,0.03,0.67,0.09c0.14,0.06,0.3,0.21,0.48,0.44l6.03,7.52h0.09L644.28,149.02z"/>
	<path class="st3" d="M669.53,148.49v4.59h-10.52v3.4h9.58v4.5h-9.58v3.62h10.8v4.59h-16.36v-20.7H669.53z"/>
	<path class="st3" d="M673.31,169.18v-20.7h7.55c2.14,0,4.03,0.24,5.65,0.72c1.62,0.48,2.98,1.27,4.09,2.37
		c0.83,0.83,1.48,1.85,1.93,3.06c0.46,1.21,0.69,2.61,0.69,4.21s-0.23,3-0.69,4.2c-0.46,1.2-1.1,2.21-1.93,3.04
		c-1.1,1.1-2.47,1.89-4.09,2.37c-1.62,0.48-3.51,0.72-5.65,0.72H673.31z M680.71,164.41c1.21,0,2.24-0.08,3.09-0.25
		c0.85-0.17,1.56-0.5,2.12-1c0.48-0.42,0.85-0.97,1.12-1.67c0.27-0.7,0.4-1.58,0.4-2.64s-0.13-1.95-0.4-2.65
		c-0.27-0.71-0.64-1.27-1.12-1.69c-0.56-0.5-1.27-0.83-2.12-1c-0.85-0.17-1.88-0.25-3.09-0.25h-1.84v11.14H680.71z"/>
	<path class="st3" d="M711.92,156.14l-3.21-1.97c-0.56-0.35-1.08-0.6-1.56-0.75c-0.48-0.15-1.02-0.22-1.62-0.22
		c-0.62,0-1.21,0.13-1.76,0.37c-0.55,0.25-1.04,0.61-1.45,1.09c-0.42,0.48-0.75,1.06-0.98,1.73c-0.24,0.68-0.36,1.45-0.36,2.33
		c0,1.77,0.46,3.14,1.39,4.1s2.25,1.45,3.98,1.45h0.06c0.31,0,0.64-0.01,0.98-0.03c0.34-0.02,0.68-0.05,1.01-0.09
		c0.33-0.04,0.65-0.09,0.95-0.16c0.3-0.06,0.57-0.13,0.8-0.19c0.13-0.04,0.2-0.1,0.23-0.17c0.03-0.07,0.05-0.16,0.05-0.27v-1.78
		h-2.87v-3.59h7.33c0.37,0,0.63,0.06,0.77,0.17c0.14,0.11,0.2,0.34,0.2,0.67v10.33h-3.84l-0.87-1.78l-1.53,0.87
		c-0.75,0.44-1.48,0.75-2.19,0.94c-0.71,0.19-1.47,0.28-2.28,0.28c-1.54,0-2.92-0.28-4.15-0.83c-1.23-0.55-2.27-1.3-3.14-2.25
		c-0.86-0.95-1.53-2.07-2-3.37c-0.47-1.3-0.7-2.7-0.7-4.2c0-1.64,0.28-3.13,0.84-4.45c0.56-1.32,1.33-2.45,2.31-3.37
		c0.98-0.92,2.12-1.63,3.43-2.12s2.71-0.73,4.18-0.73c1.08,0,2.11,0.14,3.09,0.42c0.98,0.28,1.87,0.67,2.68,1.17
		c0.81,0.5,1.52,1.09,2.12,1.78c0.6,0.69,1.06,1.44,1.37,2.25L711.92,156.14z"/>
	<path class="st3" d="M725.03,169.18h-5.56v-20.7h9.05c1.75,0,3.2,0.15,4.36,0.45c1.15,0.3,2.1,0.81,2.83,1.51
		c0.56,0.56,1,1.25,1.31,2.06c0.31,0.81,0.47,1.74,0.47,2.78c0,1.48-0.33,2.76-1,3.85c-0.67,1.09-1.48,1.94-2.43,2.54l4.65,7.49
		h-5.53c-0.25,0-0.43-0.03-0.55-0.09c-0.11-0.06-0.24-0.21-0.39-0.44l-3.15-5.37c-0.17-0.29-0.3-0.47-0.41-0.53
		c-0.1-0.06-0.3-0.09-0.59-0.09h-3.06V169.18z M730.28,158.26c0.27,0,0.48-0.04,0.64-0.11c0.16-0.07,0.32-0.22,0.48-0.45
		c0.17-0.27,0.29-0.61,0.36-1.03c0.07-0.42,0.11-0.78,0.11-1.09c0-0.37-0.06-0.73-0.17-1.08c-0.11-0.34-0.26-0.6-0.42-0.76
		c-0.25-0.23-0.58-0.39-1-0.47c-0.42-0.08-0.97-0.13-1.65-0.13h-3.59v5.12H730.28z"/>
	<path class="st3" d="M760.31,160.26c0,1.52-0.19,2.84-0.56,3.95c-0.37,1.11-0.97,2.07-1.78,2.86c-0.79,0.77-1.8,1.37-3.01,1.8
		c-1.22,0.43-2.64,0.64-4.26,0.64s-3.04-0.21-4.26-0.64c-1.22-0.43-2.22-1.02-3.01-1.8c-0.81-0.79-1.41-1.74-1.8-2.86
		c-0.39-1.11-0.58-2.43-0.58-3.95v-11.77h5.56v12.17c0,1.19,0.28,2.03,0.84,2.53c0.33,0.29,0.79,0.52,1.37,0.69s1.23,0.25,1.93,0.25
		s1.34-0.08,1.9-0.25c0.56-0.17,1.01-0.39,1.34-0.69c0.56-0.5,0.84-1.34,0.84-2.53v-12.17h5.46V160.26z"/>
	<path class="st3" d="M769.36,163.1v6.09h-5.56v-20.7h8.93c1.73,0,3.16,0.17,4.31,0.5c1.14,0.33,2.08,0.86,2.81,1.59
		c1.19,1.19,1.78,2.88,1.78,5.09c0,1.19-0.16,2.23-0.48,3.14c-0.32,0.9-0.79,1.66-1.39,2.26c-0.69,0.69-1.52,1.2-2.51,1.53
		c-0.99,0.33-2.26,0.5-3.83,0.5H769.36z M774.48,158.63c0.27,0,0.48-0.04,0.62-0.11c0.15-0.07,0.29-0.22,0.44-0.45
		c0.17-0.27,0.29-0.64,0.36-1.11c0.07-0.47,0.11-0.89,0.11-1.26c0-0.39-0.05-0.77-0.16-1.12c-0.1-0.35-0.25-0.63-0.44-0.81
		c-0.25-0.25-0.59-0.42-1.01-0.5c-0.43-0.08-1-0.13-1.73-0.13h-3.31v5.49H774.48z"/>
	<path class="st3" d="M804.88,158.85c0,1.62-0.29,3.09-0.86,4.4c-0.57,1.31-1.34,2.43-2.31,3.36c-0.97,0.93-2.1,1.64-3.39,2.14
		c-1.29,0.5-2.66,0.75-4.12,0.75c-1.46,0-2.83-0.25-4.12-0.75c-1.29-0.5-2.42-1.21-3.39-2.14s-1.74-2.05-2.31-3.36
		c-0.57-1.31-0.86-2.78-0.86-4.4s0.29-3.09,0.86-4.4c0.57-1.31,1.34-2.43,2.31-3.36c0.97-0.92,2.1-1.64,3.39-2.15
		c1.29-0.51,2.66-0.77,4.12-0.77c1.46,0,2.83,0.26,4.12,0.77c1.29,0.51,2.42,1.23,3.39,2.15c0.97,0.93,1.74,2.04,2.31,3.36
		C804.59,155.76,804.88,157.23,804.88,158.85z M799.07,158.85c0-1.64-0.42-2.93-1.26-3.86c-0.84-0.93-2.04-1.39-3.6-1.39
		c-1.56,0-2.76,0.46-3.6,1.39c-0.84,0.93-1.26,2.21-1.26,3.86s0.42,2.92,1.26,3.84c0.84,0.92,2.04,1.37,3.6,1.37
		c1.56,0,2.76-0.46,3.6-1.37C798.65,161.78,799.07,160.5,799.07,158.85z"/>
</g>
</svg>
