<?xml version="1.0" standalone="no"?>
<!DOCTYPE svg PUBLIC "-//W3C//DTD SVG 1.1//EN" "http://www.w3.org/Graphics/SVG/1.1/DTD/svg11.dtd" >
<svg xmlns="http://www.w3.org/2000/svg">
<metadata>
Copyright (c) 2013 by Fontsmith Ltd. All rights reserved.
</metadata>
<defs>
<font id="FSEmericWeb-LightItalic" horiz-adv-x="582" >
  <font-face 
    font-family="FS Emeric Web Light"
    font-weight="300"
    font-style="italic"
    font-stretch="normal"
    units-per-em="1000"
    panose-1="2 0 5 6 4 0 0 9 0 4"
    ascent="731"
    descent="-269"
    x-height="488"
    cap-height="663"
    bbox="-120 -256 1157 1004.6"
    underline-thickness="50"
    underline-position="-50"
    slope="-7"
    unicode-range="U+000D-FB04"
  />
<missing-glyph horiz-adv-x="602" 
d="M69 650h464v-650h-464v650zM459 604h-316l159 -237zM487 88v474l-158 -237zM459 47l-157 236l-159 -236h316zM116 88l157 237l-157 237v-474z" />
    <glyph glyph-name="fi" unicode="fi" horiz-adv-x="530" 
d="M35 471l91 16q-2 11 -4 26.5t-2 30.5q0 40 13.5 72t37 54.5t55 34.5t67.5 12q32 0 66 -10.5t65 -29.5l-15 -34l-26 7q-51 14 -88 14q-54 0 -85 -29.5t-31 -88.5q0 -16 1.5 -31.5t4.5 -26.5h179l-6 -48h-172l-76 -646h-63l76 646h-92zM421 488h63l-58 -488h-63z" />
    <glyph glyph-name="fl" unicode="fl" horiz-adv-x="560" 
d="M35 471l91 16q-2 11 -4 26.5t-2 30.5q0 40 13.5 72t37 54.5t55 34.5t67.5 12q32 0 60.5 -9t51.5 -23l-16 -35l-22 5q-41 9 -67 9q-57 0 -89 -29.5t-32 -88.5q0 -16 1.5 -31.5t4.5 -26.5h179l-6 -48h-172l-76 -646h-63l76 646h-92zM519 13q-14 -5 -35.5 -10t-36.5 -5
q-31 0 -49.5 16t-18.5 50q0 11 3 38l72 607h63l-78 -655l83 -13z" />
    <glyph glyph-name="f_f" unicode="ff" horiz-adv-x="643" 
d="M35 471l92 16q-5 25 -5 49q0 40 13.5 71t36.5 52t53.5 32t64.5 11q32 0 67.5 -9.5t66.5 -28.5l-15 -34l-28 7q-22 5 -43 8.5t-46 3.5q-52 0 -82 -26t-30 -88q0 -22 5 -47h254q-2 11 -4 26t-2 30q0 40 13.5 72t37 54.5t55 34.5t67.5 12q32 0 66 -10.5t65 -29.5l-15 -34
l-26 7q-51 14 -88 14q-54 0 -85 -29.5t-31 -88.5q0 -16 1.5 -31.5t4.5 -26.5h179l-6 -48h-172l-73 -620h-63l73 620h-250l-76 -646h-63l76 646h-92z" />
    <glyph glyph-name="f_f_i" unicode="ffi" horiz-adv-x="843" 
d="M35 471l92 16q-5 25 -5 49q0 40 13.5 71t36.5 52t53.5 32t64.5 11q32 0 67.5 -9.5t66.5 -28.5l-15 -34l-28 7q-22 5 -43 8.5t-46 3.5q-52 0 -82 -26t-30 -88q0 -22 5 -47h254q-2 11 -4 26t-2 30q0 40 13.5 72t37 54.5t55 34.5t67.5 12q32 0 66 -10.5t65 -29.5l-15 -34
l-26 7q-51 14 -88 14q-54 0 -85 -29.5t-31 -88.5q0 -16 1.5 -31.5t4.5 -26.5h179l-6 -48h-172l-73 -620h-63l73 620h-250l-76 -646h-63l76 646h-92zM734 488h63l-58 -488h-63z" />
    <glyph glyph-name="f_j" unicode="fj" horiz-adv-x="530" 
d="M35 471l91 16q-2 11 -4 26.5t-2 30.5q0 40 13.5 72t37 54.5t55 34.5t67.5 12q32 0 66 -10.5t65 -29.5l-15 -34l-26 7q-51 14 -88 14q-54 0 -85 -29.5t-31 -88.5q0 -16 1.5 -31.5t4.5 -26.5h179l-6 -48h-172l-76 -646h-63l76 646h-92zM415 -90q-5 -38 -15 -63.5t-27 -42.5
q-35 -37 -103 -37q-14 0 -32 1.5t-33 4.5l5 33l36 3q29 2 48 8.5t31 18t18.5 29.5t9.5 44l68 579h63z" />
    <glyph glyph-name="f_f_j" unicode="ffj" horiz-adv-x="843" 
d="M35 471l92 16q-5 25 -5 49q0 40 13.5 71t36.5 52t53.5 32t64.5 11q32 0 67.5 -9.5t66.5 -28.5l-15 -34l-28 7q-22 5 -43 8.5t-46 3.5q-52 0 -82 -26t-30 -88q0 -22 5 -47h254q-2 11 -4 26t-2 30q0 40 13.5 72t37 54.5t55 34.5t67.5 12q32 0 66 -10.5t65 -29.5l-15 -34
l-26 7q-51 14 -88 14q-54 0 -85 -29.5t-31 -88.5q0 -16 1.5 -31.5t4.5 -26.5h179l-6 -48h-172l-73 -620h-63l73 620h-250l-76 -646h-63l76 646h-92zM728 -90q-5 -38 -15 -63.5t-27 -42.5q-35 -37 -103 -37q-14 0 -32 1.5t-33 4.5l5 33l36 3q29 2 48 8.5t31 18t18.5 29.5
t9.5 44l68 579h63z" />
    <glyph glyph-name="f_f_l" unicode="ffl" horiz-adv-x="873" 
d="M35 471l92 16q-5 25 -5 49q0 40 13.5 71t36.5 52t53.5 32t64.5 11q32 0 67.5 -9.5t66.5 -28.5l-15 -34l-28 7q-22 5 -43 8.5t-46 3.5q-52 0 -82 -26t-30 -88q0 -22 5 -47h254q-2 11 -4 26t-2 30q0 40 13.5 72t37 54.5t55 34.5t67.5 12q32 0 66 -10.5t65 -29.5l-15 -34
l-26 7q-51 14 -88 14q-54 0 -85 -29.5t-31 -88.5q0 -16 1.5 -31.5t4.5 -26.5h179l-6 -48h-172l-73 -620h-63l73 620h-250l-76 -646h-63l76 646h-92zM832 13q-14 -5 -35.5 -10t-36.5 -5q-31 0 -49.5 16t-18.5 50q0 11 3 38l72 607h63l-78 -655l83 -13z" />
    <glyph glyph-name="f_t" unicode="ft" horiz-adv-x="684" 
d="M644 34q-34 -19 -73 -30.5t-70 -11.5q-54 0 -84.5 30t-30.5 83q0 15 2 35.5t5 43.5l30 256h-237l-76 -646h-63l76 646h-92l4 31l91 16q-2 11 -4 26.5t-2 30.5q0 40 13.5 72t37 54.5t55 34.5t67.5 12q32 0 60.5 -9t51.5 -23l-16 -35l-22 5q-41 9 -67 9q-57 0 -89 -29.5
t-32 -88.5q0 -16 1.5 -31.5t4.5 -26.5h244l16 135h62l-16 -135h170l-6 -48h-169l-33 -273q-2 -19 -3.5 -35t-1.5 -27q0 -31 15 -45.5t49 -14.5q15 0 33.5 3t43.5 9l45 11z" />
    <glyph glyph-name="f_f_t" unicode="fft" horiz-adv-x="997" 
d="M426 -180h-63l73 620h-250l-76 -646h-63l76 646h-92l4 31l92 16q-5 25 -5 49q0 40 13.5 71t36.5 52t53.5 32t64.5 11q32 0 67.5 -9.5t66.5 -28.5l-15 -34l-28 7q-22 5 -43 8.5t-46 3.5q-52 0 -82 -26t-30 -88q0 -22 5 -47h254q-2 11 -4 26t-2 30q0 40 13.5 72t37 54.5
t55 34.5t67.5 12q32 0 66 -10.5t65 -29.5l-15 -34l-26 7q-51 14 -88 14q-54 0 -85 -29.5t-31 -88.5q0 -16 1.5 -31.5t4.5 -26.5h244l16 135h62l-16 -135h170l-6 -48h-169l-33 -273q-2 -19 -3.5 -35t-1.5 -27q0 -31 15 -45.5t49 -14.5q15 0 33.5 3t43.5 9l45 11l10 -34
q-34 -19 -73 -30.5t-70 -11.5q-54 0 -84.5 30t-30.5 83q0 15 2 35.5t5 43.5l30 256h-237z" />
    <glyph glyph-name=".notdef" horiz-adv-x="602" 
d="M69 650h464v-650h-464v650zM459 604h-316l159 -237zM487 88v474l-158 -237zM459 47l-157 236l-159 -236h316zM116 88l157 237l-157 237v-474z" />
    <glyph glyph-name=".null" horiz-adv-x="0" 
 />
    <glyph glyph-name=".null" horiz-adv-x="0" 
 />
    <glyph glyph-name="nonmarkingreturn" unicode="&#xd;" horiz-adv-x="216" 
 />
    <glyph glyph-name="space" unicode=" " horiz-adv-x="216" 
 />
    <glyph glyph-name="nonbreakingspace" unicode="&#xa0;" horiz-adv-x="216" 
 />
    <glyph glyph-name="A" unicode="A" horiz-adv-x="652" 
d="M544 0q-7 0 -9 2t-4 7l-46 161h-331l-81 -161q-3 -6 -5.5 -7.5t-10.5 -1.5h-56l341 663h53q7 0 8.5 -2t3.5 -7l193 -654h-56zM470 222l-50 171q-17 59 -30.5 109.5t-23.5 92.5h-1q-9 -19 -20 -43t-24 -50.5l-26 -53t-25 -50.5l-88 -176h288z" />
    <glyph glyph-name="B" unicode="B" horiz-adv-x="586" 
d="M131 663h212q53 0 91 -10.5t61 -33.5q33 -35 33 -92q0 -47 -25.5 -94t-65.5 -82v-2q45 -17 73 -52t28 -86q0 -45 -16.5 -82.5t-46.5 -66.5q-32 -29 -79 -45.5t-105 -16.5h-239zM124 54h163q50 0 84.5 11.5t57.5 33.5q21 20 32 50.5t11 63.5q0 51 -30 76q-18 15 -43.5 21
t-70.5 6h-173zM161 368h198q18 0 29 4.5t22 15.5q23 25 39 62.5t16 71.5q0 43 -20 62q-16 15 -42 20t-67 5h-147z" />
    <glyph glyph-name="C" unicode="C" horiz-adv-x="642" 
d="M597 90q-61 -46 -131 -73t-136 -27q-60 0 -109 20t-84 56q-39 41 -61 97.5t-22 124.5q0 76 25.5 145.5t70 122.5t106 85t133.5 32q45 0 81.5 -13.5t65.5 -37t50 -55.5t34 -69l-45 -21l-46 55q-35 41 -70 60.5t-80 19.5q-57 0 -104.5 -25.5t-82 -69t-53.5 -101.5t-19 -123
q0 -55 14 -99.5t41 -76t67 -49t93 -17.5q39 0 81.5 11.5t93.5 33.5l65 28z" />
    <glyph glyph-name="D" unicode="D" horiz-adv-x="670" 
d="M131 663h204q77 0 134 -16.5t97 -54.5q37 -35 57 -87t20 -117q0 -92 -31 -167t-85 -126q-101 -95 -274 -95h-201zM123 55h122q83 0 143 21.5t102 64.5t65 106t23 138q0 56 -14.5 99t-43.5 70q-32 30 -81 42t-124 12h-125z" />
    <glyph glyph-name="E" unicode="E" horiz-adv-x="524" 
d="M524 663l-7 -54h-327l-28 -236h299l-7 -54h-299l-32 -265h341l-7 -54h-405l79 663h393z" />
    <glyph glyph-name="F" unicode="F" horiz-adv-x="494" 
d="M518 663l-7 -54h-321l-28 -236h291l-7 -54h-291l-38 -319h-65l79 663h387z" />
    <glyph glyph-name="G" unicode="G" horiz-adv-x="700" 
d="M447 271l7 50h176q13 0 12 -12l-37 -309h-40l-10 61l-65 -30q-40 -18 -82 -29.5t-87 -11.5q-60 0 -109.5 23t-84.5 63.5t-54 95.5t-19 118q0 78 26 147.5t72 122t109.5 83t139.5 30.5q85 0 149 -45t96 -126l-41 -24l-51 57q-32 37 -70 57t-90 20q-61 0 -111.5 -24.5
t-86.5 -67.5t-56 -102t-20 -127q0 -112 58 -176t159 -64q46 0 102 18t105 41q8 4 10.5 7.5t3.5 11.5l17 142h-128z" />
    <glyph glyph-name="H" unicode="H" horiz-adv-x="665" 
d="M536 319h-381l-38 -319h-65l79 663h65l-34 -289h380l35 289h65l-79 -663h-65z" />
    <glyph glyph-name="I" unicode="I" horiz-adv-x="223" 
d="M119 0h-65l79 663h65z" />
    <glyph glyph-name="J" unicode="J" horiz-adv-x="449" 
d="M12 71l44 -9q40 -8 68.5 -12t51.5 -4q60 0 92 32q19 19 29 48.5t15 68.5l56 468h65l-56 -471q-6 -51 -19.5 -86t-38.5 -61t-61.5 -40.5t-82.5 -14.5q-39 0 -85.5 11.5t-93.5 33.5z" />
    <glyph glyph-name="K" unicode="K" horiz-adv-x="599" 
d="M337 397l223 -397h-57q-8 0 -11.5 1.5t-7.5 8.5l-195 347q-17 -15 -36.5 -30.5t-39 -29.5t-36.5 -26.5t-30 -21.5l-30 -249h-65l79 663h65l-42 -351l420 356l36 -41z" />
    <glyph glyph-name="L" unicode="L" horiz-adv-x="495" 
d="M131 663h65l-72 -609h323l-7 -54h-388z" />
    <glyph glyph-name="M" unicode="M" horiz-adv-x="790" 
d="M693 562q-9 -12 -22.5 -29t-29 -35.5t-31 -37.5t-28.5 -35l-160 -192h-36q-9 0 -13 2t-7 7l-111 182q-22 36 -43 72.5t-32 62.5l-67 -559h-61l79 663h39q13 0 18 -9l215 -363l300 363q5 5 8.5 7t13.5 2h42l-79 -663h-61z" />
    <glyph glyph-name="N" unicode="N" horiz-adv-x="696" 
d="M612 663h61l-79 -663h-36q-12 0 -18 9l-262 398q-12 18 -25 38.5t-26.5 42t-26 41.5t-21.5 37l-66 -566h-61l79 663h37q7 0 10 -1.5t7 -7.5l261 -398q26 -39 53 -82.5t46 -76.5z" />
    <glyph glyph-name="O" unicode="O" horiz-adv-x="699" 
d="M340 -10q-65 0 -118 24.5t-90 66t-57 96.5t-20 117q0 73 25.5 141.5t71 121.5t107 84.5t133.5 31.5q65 0 118 -24.5t90 -66t57 -97t20 -116.5q0 -74 -25.5 -142t-71 -121t-107 -84.5t-133.5 -31.5zM385 611q-55 0 -103 -23.5t-84 -65.5t-56.5 -99.5t-20.5 -124.5
q0 -50 14 -95t42.5 -78.5t71 -53t98.5 -19.5q55 0 103 23.5t84 65.5t56.5 99t20.5 125q0 50 -14 95t-42.5 78.5t-71 53t-98.5 19.5z" />
    <glyph glyph-name="P" unicode="P" horiz-adv-x="576" 
d="M117 0h-65l79 663h222q112 0 163 -51q23 -23 34.5 -55t11.5 -69q0 -51 -19.5 -106.5t-63.5 -98.5q-23 -23 -49 -33.5t-68 -10.5h-217zM152 292h211q38 0 56 11t35 35q20 29 32 65t12 78q0 60 -28 91q-19 21 -48.5 29t-74.5 8h-158z" />
    <glyph glyph-name="Q" unicode="Q" horiz-adv-x="699" 
d="M340 -10q-65 0 -118 24.5t-90 66t-57 96.5t-20 117q0 73 25.5 141.5t71 121.5t107 84.5t133.5 31.5q65 0 118 -24.5t90 -66t57 -97t20 -116.5q0 -51 -13 -100t-36 -92.5t-56.5 -79.5t-73.5 -61l108 -172l-59 -31l-101 177q-24 -10 -51.5 -15t-54.5 -5zM385 611
q-55 0 -103 -23.5t-84 -65.5t-56.5 -99.5t-20.5 -124.5q0 -50 14 -95t42.5 -78.5t71 -53t98.5 -19.5q55 0 103 23.5t84 65.5t56.5 99t20.5 125q0 50 -14 95t-42.5 78.5t-71 53t-98.5 19.5z" />
    <glyph glyph-name="R" unicode="R" horiz-adv-x="601" 
d="M483 0q-11 0 -15 9l-101 235q-3 8 -7 9.5t-12 1.5h-201l-30 -255h-65l79 663h230q106 0 157 -51q44 -44 44 -121q0 -32 -8.5 -65t-25.5 -63.5t-42.5 -56.5t-59.5 -44l116 -262h-59zM364 308q37 0 55.5 11t35.5 35q20 28 31.5 62.5t11.5 73.5q0 58 -28 86q-17 17 -44 25
t-71 8h-166l-35 -301h210z" />
    <glyph glyph-name="S" unicode="S" horiz-adv-x="527" 
d="M432 609q-32 3 -64.5 5t-57.5 2q-36 0 -66 -5t-51.5 -16.5t-33.5 -30t-12 -46.5q0 -18 7 -33t22 -29t38 -27.5t56 -29.5l46 -22q86 -41 122.5 -81.5t36.5 -98.5q0 -48 -18 -86t-49.5 -65t-74.5 -41.5t-94 -14.5q-25 0 -54 4t-58.5 11.5t-57 18t-50.5 22.5l17 36l55 -13
q87 -21 150 -21q34 0 65.5 8.5t55.5 26.5t38.5 45.5t14.5 65.5q0 21 -6.5 38t-21.5 32t-39 29.5t-60 31.5l-48 23q-38 18 -66.5 35.5t-48 37.5t-29 43t-9.5 52q0 37 16 66t45.5 49.5t70 31t90.5 10.5q21 0 45 -2.5t49 -7t48 -10t41 -12.5l-9 -37z" />
    <glyph glyph-name="T" unicode="T" horiz-adv-x="547" 
d="M291 609h-216l6 54h497l-6 -54h-216l-72 -609h-65z" />
    <glyph glyph-name="U" unicode="U" horiz-adv-x="653" 
d="M588 263q-8 -69 -28.5 -117.5t-53.5 -81.5q-36 -36 -86 -55t-109 -19q-57 0 -100.5 17t-73.5 46.5t-45 69.5t-15 86q0 17 2 42t5 51l43 361h65l-43 -362q-4 -29 -5.5 -51t-1.5 -39q0 -75 43.5 -117.5t128.5 -42.5q45 0 83.5 13t63.5 38q29 29 43.5 70t22.5 101l47 390h62
z" />
    <glyph glyph-name="V" unicode="V" horiz-adv-x="608" 
d="M126 663q7 0 9 -2t4 -7l101 -384q17 -64 30 -118t21 -92h1q16 36 39.5 86t56.5 119l188 389q2 5 5 7t11 2h56l-328 -663h-57q-11 0 -14 9l-179 654h56z" />
    <glyph glyph-name="W" unicode="W" horiz-adv-x="939" 
d="M538 663q7 0 8.5 -1.5t3.5 -7.5l72 -391q11 -60 21 -112.5t15 -85.5h1q6 17 15.5 40.5t20.5 50.5t22.5 55t21.5 53l160 390q2 6 5 7.5t10 1.5h55l-279 -663h-70q-11 0 -12 9l-70 372q-5 26 -10 54.5t-9.5 56t-8 52t-4.5 42.5h-1q-5 -14 -13.5 -38t-20 -53.5t-23.5 -60.5
t-22 -58l-145 -376h-66q-11 0 -12 9l-127 654h54q7 0 9 -2t3 -7l71 -382q4 -23 9 -51t10.5 -56t9.5 -53.5t7 -43.5h1q11 33 30 87.5t40 109.5l155 398h63z" />
    <glyph glyph-name="X" unicode="X" horiz-adv-x="603" 
d="M0 0l277 351l-191 312h58q8 0 10.5 -1.5t6.5 -7.5l159 -260l203 260q5 6 8 7.5t11 1.5h58l-251 -319l215 -344h-58q-6 0 -9.5 1.5t-7.5 7.5l-181 295l-229 -295q-6 -9 -18 -9h-61z" />
    <glyph glyph-name="Y" unicode="Y" horiz-adv-x="567" 
d="M620 663l-299 -441l-26 -222h-65l26 222l-196 441h57q8 0 10.5 -2t4.5 -7l80 -183q12 -28 24.5 -58t23.5 -57t19.5 -49.5t13.5 -35.5h1q8 13 21.5 35.5t31 49.5t36.5 56.5t38 57.5l123 184q5 6 8.5 7.5t10.5 1.5h57z" />
    <glyph glyph-name="Z" unicode="Z" horiz-adv-x="521" 
d="M479 54l-7 -54h-454l3 27q1 6 2.5 10t7.5 12l313 412q15 20 32.5 42t33.5 42.5t29.5 37t22.5 26.5h-377l7 54h454l-4 -28q-1 -10 -10 -22l-313 -412q-12 -17 -28.5 -38t-33 -41.5t-31.5 -39t-24 -28.5h377z" />
    <glyph glyph-name="a" unicode="a" horiz-adv-x="540" 
d="M481 484l-51 -430l70 -15l-3 -27q-14 -6 -33.5 -10t-32.5 -4q-23 0 -41 14t-21 37l-22 -13q-75 -44 -135 -44q-42 0 -74.5 16.5t-55 45t-34 67t-11.5 83.5q0 61 19 114.5t51.5 93t75.5 62t91 22.5q58 0 120 -40l26 -17l20 49zM359 91q8 5 11 9t4 12l32 270q1 8 -0.5 12.5
t-12.5 10.5q-27 16 -58 25.5t-60 9.5q-38 0 -70 -16.5t-55.5 -47t-36.5 -74t-13 -96.5q0 -70 29 -114.5t94 -44.5q32 0 70 13.5t66 30.5z" />
    <glyph glyph-name="b" unicode="b" horiz-adv-x="526" 
d="M152 443l21 11q79 42 141 42q42 0 74.5 -16.5t55 -45t34 -67t11.5 -83.5q0 -62 -18 -115t-49.5 -92.5t-74.5 -62t-92 -22.5q-34 0 -67.5 12.5t-67.5 33.5l-21 13l-20 -51l-41 4l83 705h63zM161 400q-8 -5 -11.5 -8.5t-4.5 -11.5l-32 -272q-1 -8 0.5 -12.5t12.5 -10.5
q29 -17 63.5 -27.5t63.5 -10.5q38 0 70 16.5t55 47.5t35.5 74.5t12.5 96.5q0 74 -29 116.5t-95 42.5q-33 0 -71.5 -12t-69.5 -29z" />
    <glyph glyph-name="c" unicode="c" horiz-adv-x="488" 
d="M441 72q-42 -34 -96 -57t-109 -23q-44 0 -78.5 14t-59.5 39q-30 31 -46 74t-16 94q0 55 17.5 106t49.5 90.5t76 63t98 23.5q34 0 63.5 -10.5t53 -28.5t40 -42t23.5 -51l-42 -21l-23 27q-30 35 -56.5 53.5t-61.5 18.5q-37 0 -69 -16.5t-55.5 -46.5t-37 -72t-13.5 -92
q0 -84 43 -129q37 -39 104 -39q55 0 121 30l56 25z" />
    <glyph glyph-name="d" unicode="d" horiz-adv-x="543" 
d="M274 496q30 0 58.5 -9.5t60.5 -30.5l23 -15l32 268h63l-78 -655l70 -15l-3 -27q-14 -6 -33.5 -10t-32.5 -4q-23 0 -41 14t-21 37l-22 -13q-38 -23 -73 -33.5t-65 -10.5q-42 0 -74.5 16.5t-55 45t-34 67t-11.5 83.5q0 61 19 114.5t51.5 93t75.5 62t91 22.5zM362 91
q8 5 11 8.5t4 11.5l32 269q1 8 -0.5 12t-12.5 11q-60 37 -121 37q-38 0 -70 -16.5t-55.5 -47t-36.5 -74t-13 -96.5q0 -70 29 -114.5t94 -44.5q32 0 71.5 13.5t67.5 30.5z" />
    <glyph glyph-name="e" unicode="e" horiz-adv-x="516" 
d="M100 230q-1 -5 -1 -8.5v-7.5q0 -36 9 -66.5t28 -53t48 -35t69 -12.5q49 0 123 29l56 22l17 -30q-20 -15 -44 -29t-51 -24.5t-54.5 -16.5t-54.5 -6q-44 0 -80.5 13.5t-62.5 38.5q-32 30 -49 73.5t-17 96.5q0 58 19 109.5t52.5 90t78.5 60.5t97 22q44 0 79.5 -17t60 -45.5
t38 -66.5t13.5 -79q0 -33 -8 -45.5t-27 -12.5h-339zM416 278q0 74 -36 118t-102 44q-35 0 -64 -12.5t-51 -34.5t-36.5 -51.5t-20.5 -63.5h310z" />
    <glyph glyph-name="f" unicode="f" horiz-adv-x="330" 
d="M35 471l91 16q-2 11 -4 26.5t-2 30.5q0 40 13.5 72t37 54.5t55 34.5t67.5 12q32 0 66 -10.5t65 -29.5l-15 -34l-26 7q-51 14 -88 14q-54 0 -85 -29.5t-31 -88.5q0 -16 1.5 -31.5t4.5 -26.5h179l-6 -48h-172l-76 -646h-63l76 646h-92z" />
    <glyph glyph-name="g" unicode="g" horiz-adv-x="530" 
d="M353 42q-38 -23 -75 -33.5t-67 -10.5q-41 0 -73.5 16.5t-55 45t-34 67t-11.5 83.5q0 61 19 113.5t51.5 91t75.5 60t91 21.5q30 0 62 -10t64 -30l26 -17l20 49l41 -4l-61 -508q-7 -54 -20.5 -90.5t-38.5 -62.5t-61 -40.5t-87 -14.5q-34 0 -72.5 8t-70.5 23l11 34l30 -4
q27 -4 53 -6.5t41 -2.5q42 0 70 11t45 33q16 20 24.5 50t13.5 71l8 68zM365 97q8 5 11 9t4 12l32 264q1 8 -0.5 12.5t-12.5 10.5q-29 17 -62 26t-62 9q-38 0 -70 -15.5t-55.5 -45t-36.5 -72t-13 -95.5q0 -70 28.5 -114.5t93.5 -44.5q16 0 35 4t38.5 10t37.5 14t32 16z" />
    <glyph glyph-name="h" unicode="h" horiz-adv-x="532" 
d="M181 462q76 34 136 34q33 0 61.5 -9.5t50.5 -27.5t34.5 -45t12.5 -62q0 -11 -1.5 -26.5t-3.5 -35.5l-34 -290h-63l35 293q2 18 3.5 32t1.5 24q0 43 -29.5 65.5t-83.5 22.5q-30 0 -63 -6.5t-62 -17.5l-16 -6q-8 -3 -10 -6t-3 -9l-46 -392h-63l84 709h63l-31 -259z" />
    <glyph glyph-name="i" unicode="i" horiz-adv-x="211" 
d="M103 488h63l-58 -488h-63zM121 663h56q13 0 12 -12l-7 -61h-70z" />
    <glyph glyph-name="j" unicode="j" horiz-adv-x="204" 
d="M90 -90q-5 -38 -15 -63.5t-27 -42.5q-35 -37 -103 -37q-14 0 -32 1.5t-33 4.5l5 33l36 3q29 2 48 8.5t31 18t18.5 29.5t9.5 44l68 579h63zM114 663h56q13 0 12 -12l-7 -61h-70z" />
    <glyph glyph-name="k" unicode="k" horiz-adv-x="506" 
d="M463 0h-57q-13 0 -18 9l-136 247q-16 -12 -35 -26t-37 -27.5t-34 -24.5t-26 -18l-19 -160h-63l84 709h63l-59 -489l336 272l32 -39l-194 -159z" />
    <glyph glyph-name="l" unicode="l" horiz-adv-x="233" 
d="M192 13q-14 -5 -35.5 -10t-36.5 -5q-31 0 -49.5 16t-18.5 50q0 11 3 38l72 607h63l-78 -655l83 -13z" />
    <glyph glyph-name="m" unicode="m" horiz-adv-x="842" 
d="M466 401q-5 -2 -7 -4t0 -7q5 -18 5 -39q0 -11 -1.5 -26.5t-3.5 -35.5l-34 -289h-63l35 292q2 18 3.5 32t1.5 24q0 43 -27.5 66t-79.5 23q-28 0 -59 -6.5t-60 -17.5l-16 -6q-8 -3 -10 -6t-3 -9l-46 -392h-63l58 488h43l9 -41l33 15q37 17 69 25.5t61 8.5q42 0 75 -15.5
t53 -44.5l46 21q43 20 81 29.5t67 9.5q33 0 61 -9.5t48.5 -28t32 -45.5t11.5 -61q0 -11 -1.5 -26.5t-3.5 -35.5l-34 -290h-63l35 293q2 18 3.5 32t1.5 24q0 43 -27.5 65.5t-79.5 22.5q-28 0 -59 -6.5t-60 -17.5z" />
    <glyph glyph-name="n" unicode="n" horiz-adv-x="532" 
d="M139 488l9 -41l33 15q76 34 136 34q33 0 61.5 -9.5t50.5 -27.5t34.5 -45t12.5 -62q0 -11 -1.5 -26.5t-3.5 -35.5l-34 -290h-63l35 293q2 18 3.5 32t1.5 24q0 43 -29.5 65.5t-83.5 22.5q-30 0 -63 -6.5t-62 -17.5l-16 -6q-8 -3 -10 -6t-3 -9l-46 -392h-63l58 488h43z" />
    <glyph glyph-name="o" unicode="o" horiz-adv-x="523" 
d="M487 277q0 -59 -19.5 -111t-53 -90.5t-78 -61t-95.5 -22.5q-42 0 -79.5 15.5t-65.5 44.5t-44 69t-16 90q0 59 19.5 111t53 90.5t78 61t95.5 22.5q42 0 79.5 -15.5t65.5 -44.5t44 -69.5t16 -89.5zM424 271q0 76 -37 121q-18 23 -45.5 35t-62.5 12t-64 -13t-52 -36
q-31 -32 -47.5 -78t-16.5 -95q0 -76 37 -121q38 -47 108 -47q35 0 64 13t52 36q31 32 47.5 78t16.5 95z" />
    <glyph glyph-name="p" unicode="p" horiz-adv-x="526" 
d="M73 -229h-63l85 717h46l11 -45l21 11q79 42 141 42q42 0 74.5 -16.5t55 -45t34 -67t11.5 -83.5q0 -62 -18 -115t-49.5 -92.5t-74.5 -62t-92 -22.5q-34 0 -67 13t-68 33l-14 8zM161 400q-8 -5 -11.5 -8.5t-4.5 -11.5l-32 -272q-1 -8 0.5 -12.5t12.5 -10.5
q29 -17 63.5 -27.5t63.5 -10.5q38 0 70 16.5t55 47.5t35.5 74.5t12.5 96.5q0 74 -29 116.5t-95 42.5q-33 0 -71.5 -12t-69.5 -29z" />
    <glyph glyph-name="q" unicode="q" horiz-adv-x="528" 
d="M336 -229l35 277l-21 -12q-38 -23 -73 -33.5t-65 -10.5q-42 0 -74.5 16.5t-55 45t-34 67t-11.5 83.5q0 61 19 114.5t51.5 93t75.5 62t91 22.5q58 0 123 -42l26 -17l20 51l42 -4l-86 -713h-63zM362 91q8 5 11 9t4 12l32 268q1 8 -0.5 12t-12.5 11q-60 37 -121 37
q-38 0 -70 -16.5t-55.5 -47t-36.5 -74t-13 -96.5q0 -70 29 -114.5t94 -44.5q32 0 71.5 13.5t67.5 30.5z" />
    <glyph glyph-name="r" unicode="r" horiz-adv-x="332" 
d="M147 415l41 23q31 18 53 29t37 17.5t25.5 9t19.5 2.5t18.5 -3.5t17.5 -8.5l-5 -38q-18 -5 -43.5 -13t-53 -18t-54.5 -20.5t-48 -20.5q-11 -5 -12 -15l-42 -359h-63l58 488h48z" />
    <glyph glyph-name="s" unicode="s" horiz-adv-x="429" 
d="M74 57q30 -7 57 -10t50 -3q57 0 94 24.5t37 67.5q0 29 -20.5 49.5t-71.5 40.5l-50 20q-54 22 -85 49t-31 73q0 33 16 57t41.5 40t57 23.5t62.5 7.5q38 0 78.5 -8t73.5 -21l-12 -38l-35 5q-27 4 -54.5 6.5t-52.5 2.5q-22 0 -43.5 -3.5t-38 -12t-27 -22t-10.5 -34.5
q0 -28 22 -44t65 -33l50 -20q56 -23 89.5 -52.5t33.5 -76.5q0 -36 -15.5 -64.5t-41.5 -48t-60 -30t-72 -10.5q-42 0 -88.5 12t-81.5 30l15 34z" />
    <glyph glyph-name="t" unicode="t" horiz-adv-x="384" 
d="M344 34q-34 -19 -73 -30.5t-70 -11.5q-54 0 -84.5 30t-30.5 83q0 15 2 35.5t5 43.5l30 256h-92l4 31l94 17l17 141h62l-17 -141h170l-6 -48h-169l-33 -273q-2 -19 -3.5 -35t-1.5 -27q0 -31 15 -45.5t49 -14.5q15 0 33.5 3t43.5 9l45 11z" />
    <glyph glyph-name="u" unicode="u" horiz-adv-x="533" 
d="M388 0l-9 41l-33 -15q-76 -34 -136 -34q-33 0 -61.5 9.5t-49.5 27.5t-33 45t-12 62q0 11 1.5 26.5t3.5 35.5l34 290h63l-35 -293q-2 -18 -3.5 -32t-1.5 -24q0 -88 110 -88q30 0 63 6.5t62 17.5l16 6q8 3 10 6t3 9l46 392h63l-58 -488h-43z" />
    <glyph glyph-name="v" unicode="v" horiz-adv-x="476" 
d="M494 488l-253 -488h-55q-11 0 -14 9l-145 479h56q9 0 11 -8l86 -301q13 -45 21 -75t13 -50h1q21 48 59 124l152 302q4 8 14 8h54z" />
    <glyph glyph-name="w" unicode="w" horiz-adv-x="755" 
d="M493 222q10 -46 18.5 -92.5t12.5 -75.5h1q10 28 27 71.5t36 87.5l116 267q2 5 4.5 6.5t8.5 1.5h52l-216 -488h-56q-11 0 -14 9l-58 263q-11 48 -18.5 91t-11.5 71h-1q-8 -26 -23 -66.5t-32 -81.5l-117 -286h-54q-11 0 -14 9l-125 479h53q6 0 8 -1.5t4 -6.5l55 -218
q6 -23 12.5 -52.5l13 -59t12 -55.5t7.5 -42h1q5 16 12.5 38t16 45.5l17 47t16.5 43.5l106 261h61q11 0 13 -8z" />
    <glyph glyph-name="x" unicode="x" horiz-adv-x="465" 
d="M101 488q8 0 10.5 -1t5.5 -6l118 -184l147 184q4 5 6.5 6t10.5 1h55l-191 -236l167 -252h-56q-11 0 -16 7l-135 207l-163 -207q-4 -5 -6.5 -6t-9.5 -1h-57l209 258l-151 230h56v0z" />
    <glyph glyph-name="y" unicode="y" horiz-adv-x="476" 
d="M83 488q9 0 11 -8l86 -301q13 -45 20.5 -75l12.5 -50h1q8 21 25 55.5t36 72.5l151 298q4 8 14 8h54l-375 -723l-53 19l111 207l-150 497h56z" />
    <glyph glyph-name="z" unicode="z" horiz-adv-x="443" 
d="M383 50l-6 -50h-371l3 25q1 11 7 18l239 285q28 33 54.5 63t43.5 49h-289l6 48h363l-3 -25q-1 -6 -2 -9.5t-5 -8.5l-239 -285q-26 -32 -52 -61t-44 -49h295z" />
    <glyph glyph-name="ampersand" unicode="&#x26;" horiz-adv-x="697" 
d="M477 157q22 27 45 62.5t43 71.5l55 103l38 -12q-13 -32 -29.5 -67.5t-35.5 -70t-40.5 -67.5t-43.5 -60l52 -66l85 -12l-2 -26q-16 -7 -34.5 -12t-32.5 -5q-26 0 -44 10.5t-38 35.5l-27 33q-45 -38 -99 -61.5t-110 -23.5q-45 0 -85.5 14.5t-72 40.5t-50 63t-18.5 82
q0 38 14 69.5t37.5 58t55 49t66.5 41.5q-14 22 -22 47t-8 51q0 34 13 64.5t36.5 53t55 36t68.5 13.5q31 0 59 -9.5t48 -27.5t32 -42.5t12 -54.5q0 -60 -41.5 -109.5t-116.5 -102.5zM229 376l-10 -7q-27 -19 -50 -38t-39.5 -39.5t-25.5 -44.5t-9 -54q0 -28 11 -54.5t31 -46.5
q22 -21 52 -33t74 -12q46 0 91.5 17.5t82.5 50.5zM360 396q24 23 40.5 41.5t26.5 34.5t14 31t4 31q0 39 -28.5 62t-70.5 23q-50 0 -81 -30t-31 -75q0 -18 4 -33.5t13.5 -33t25 -38.5t37.5 -48l4 -5z" />
    <glyph glyph-name="at" unicode="@" horiz-adv-x="723" 
d="M509 402l-26 -210q-3 -26 -3 -35q0 -15 9.5 -24.5t32.5 -9.5q28 0 50.5 15t38.5 41t24 59.5t8 71.5q0 53 -19 94t-51.5 69t-77 42.5t-95.5 14.5q-67 0 -123.5 -25.5t-97.5 -69.5t-64 -103.5t-23 -128.5q0 -58 18.5 -104t52 -78.5t81 -50t105.5 -17.5q41 0 84.5 11
t94.5 33l77 33l17 -25q-25 -21 -58 -40t-71 -33.5t-79 -23t-81 -8.5q-63 0 -118 22.5t-96 62.5t-64.5 95t-23.5 120q0 70 26 138.5t75 123t118 88t155 33.5q63 0 116.5 -21t92.5 -57.5t61 -86t22 -105.5q0 -45 -13.5 -87.5t-37.5 -75.5t-57.5 -53t-73.5 -20q-27 0 -47.5 11
t-31.5 26l-17 -10q-26 -15 -47 -22.5t-43 -7.5q-26 0 -47 11t-37 30.5t-24.5 46t-8.5 56.5q0 41 13.5 76.5t35.5 61t50.5 40t58.5 14.5q20 0 39 -8t42 -25l9 -8l15 37zM449 320q1 7 0 10t-8 7q-14 8 -31.5 15t-37.5 7q-45 0 -75 -39t-30 -102q0 -45 19.5 -69t54.5 -24
q16 0 36 5.5t43 19.5q6 4 7.5 6.5t2.5 7.5z" />
    <glyph glyph-name="exclam" unicode="!" horiz-adv-x="221" 
d="M131 663h62l-29 -240q-4 -32 -8.5 -63.5t-12.5 -67.5l-25 -124h-30l4 126q1 34 3.5 65.5t6.5 63.5zM55 78h59q9 0 12 -2.5t2 -10.5l-8 -65h-74z" />
    <glyph glyph-name="exclamdown" unicode="&#xa1;" horiz-adv-x="221" 
d="M87.9941 -174.989h-61.9961l28.999 239.985q3.99902 31.998 8.49902 63.4961t12.499 67.4961l24.999 123.992h29.998l-4 -125.992q-1 -33.998 -3.5 -65.4961t-6.49902 -63.4961zM163.99 409.975h-58.9971q-8.99902 0 -11.999 2.5t-2 10.5l8 64.9961h73.9951z" />
    <glyph glyph-name="question" unicode="?" horiz-adv-x="459" 
d="M167 168l-2 40q-1 14 -1.5 28t-0.5 19q0 23 5.5 34t28.5 23l34 18q39 21 69 39.5t50 39t30.5 44.5t10.5 55q0 51 -35.5 79t-93.5 28q-30 0 -63 -7.5t-69 -21.5l-58 -22l-17 32q51 36 108.5 56.5t105.5 20.5q39 0 72.5 -11.5t58 -33t39 -51.5t14.5 -66q0 -37 -13 -67.5
t-35.5 -56t-54 -46t-67.5 -38.5l-60 -29l-25 -106h-31zM134 78h59q9 0 12 -2.5t2 -10.5l-8 -65h-74z" />
    <glyph glyph-name="questiondown" unicode="&#xbf;" horiz-adv-x="459" 
d="M289.982 319.98l2 -39.998q1 -13.999 1.5 -27.998t0.5 -18.999q0 -22.998 -5.5 -33.9971q-5.5 -11 -28.498 -22.999l-33.998 -17.999q-38.998 -20.999 -68.9961 -39.4971q-29.998 -18.499 -49.9971 -38.998q-19.998 -20.499 -30.498 -44.4971
q-10.499 -23.999 -10.499 -54.9971q0 -50.9971 35.498 -78.9951q35.4971 -27.998 93.4941 -27.998q29.998 0 62.9961 7.49902q32.998 7.5 68.9961 21.499l57.9961 21.999l16.999 -31.998q-50.9971 -35.998 -108.493 -56.4971q-57.4971 -20.498 -105.494 -20.498
q-38.9971 0 -72.4951 11.499t-57.9971 32.998q-24.498 21.498 -38.9971 51.4971q-14.499 29.998 -14.499 65.9951q0 36.998 12.999 67.4961t35.498 55.9971q22.498 25.498 53.9961 45.9971t67.4961 38.4971l59.9961 28.999l24.999 105.993h30.998zM322.98 409.975h-58.9961
q-9 0 -12 2.5t-2 10.5l8 64.9961h73.9951z" />
    <glyph glyph-name="asterisk" unicode="*" horiz-adv-x="407" 
d="M307 333q-8 -5 -11.5 -3.5t-7.5 8.5l-60 121l-99 -133l-35 25q-6 5 -6.5 8.5t7.5 11.5l105 106l-128 44l20 43q4 8 8 9.5t12 -3.5l105 -62l5 155h47q13 0 10 -14l-29 -141l133 64l10 -40q2 -10 0 -12.5t-11 -5.5l-122 -37l88 -119z" />
    <glyph glyph-name="period" unicode="." horiz-adv-x="186" 
d="M36 80h61q9 0 11.5 -2.5t1.5 -10.5l-8 -67h-75z" />
    <glyph glyph-name="comma" unicode="," horiz-adv-x="184" 
d="M95 80q9 0 12 -2.5t2 -10.5l-3 -28q-3 -28 -8 -47.5t-19 -39.5q-11 -17 -31 -39t-52 -56l-20 15l69 111q4 7 0 12l-7 7q-8 8 -9.5 12t-0.5 13l6 53h61z" />
    <glyph glyph-name="colon" unicode=":" horiz-adv-x="184" 
d="M36 80h61q9 0 11.5 -2.5t1.5 -10.5l-8 -67h-75zM74 411h61q9 0 11.5 -2.5t1.5 -10.5l-8 -67h-75z" />
    <glyph glyph-name="semicolon" unicode=";" horiz-adv-x="182" 
d="M95 80q9 0 12 -2.5t2 -10.5l-3 -28q-3 -28 -8 -47.5t-19 -39.5q-11 -17 -31 -39t-52 -56l-20 15l69 111q4 7 0 12l-7 7q-8 8 -9.5 12t-0.5 13l6 53h61zM72 411h61q9 0 11.5 -2.5t1.5 -10.5l-8 -67h-75z" />
    <glyph glyph-name="ellipsis" unicode="&#x2026;" horiz-adv-x="550" 
d="M36 80h61q9 0 11.5 -2.5t1.5 -10.5l-8 -67h-75zM218 80h61q9 0 11.5 -2.5t1.5 -10.5l-8 -67h-75zM400 80h61q9 0 11.5 -2.5t1.5 -10.5l-8 -67h-75z" />
    <glyph glyph-name="periodcentered" unicode="&#xb7;" horiz-adv-x="186" 
d="M68 320h61q9 0 11.5 -2.5t1.5 -10.5l-8 -67h-75z" />
    <glyph glyph-name="bullet" unicode="&#x2022;" horiz-adv-x="328" 
d="M248 191h-175l21 179h155q13 0 15.5 -4.5t1.5 -14.5z" />
    <glyph glyph-name="slash" unicode="/" horiz-adv-x="411" 
d="M-4 0l399 663h61l-400 -663h-60z" />
    <glyph glyph-name="parenleft" unicode="(" horiz-adv-x="292" 
d="M359 652q-51 -51 -94 -109.5t-74 -122.5t-48 -132.5t-17 -138.5q0 -45 7.5 -92.5t23.5 -95t41 -93t59 -86.5l-37 -25q-78 83 -117.5 178.5t-39.5 205.5q0 81 19.5 155.5t54.5 142t83.5 127.5t107.5 111z" />
    <glyph glyph-name="brokenbar" unicode="&#xa6;" horiz-adv-x="222" 
d="M144 709h55l-50 -418h-55zM82 189h55l-49 -418h-55z" />
    <glyph glyph-name="parenright" unicode=")" horiz-adv-x="292" 
d="M-67 -218q51 51 94 109.5t74 122.5t48 132.5t17 138.5q0 45 -7.5 92.5t-23.5 95t-41 93t-59 86.5l37 25q78 -83 117.5 -178.5t39.5 -205.5q0 -81 -19.5 -155.5t-54.5 -142t-83.5 -127.5t-107.5 -111z" />
    <glyph glyph-name="bracketleft" unicode="[" horiz-adv-x="282" 
d="M148 663h194l-7 -54h-131l-93 -784h132l-7 -54h-194z" />
    <glyph glyph-name="backslash" unicode="\" horiz-adv-x="379" 
d="M282 0l-243 663h59l243 -663h-59z" />
    <glyph glyph-name="bracketright" unicode="]" horiz-adv-x="281" 
d="M127 -229h-194l7 54h131l93 784h-132l7 54h194z" />
    <glyph glyph-name="braceleft" unicode="{" horiz-adv-x="310" 
d="M55 238q31 6 54 16t37 25.5t21 39t7 58.5q0 18 -1 40t-2.5 44.5t-2.5 44.5t-1 40q0 61 29.5 94t86.5 33q22 0 45 -4t39 -9l-3 -30l-76 -9q-19 -2 -31 -7t-19 -14.5t-9.5 -24t-2.5 -35.5q0 -16 1 -38t2 -45t2 -44.5t1 -35.5q0 -57 -24.5 -96.5t-82.5 -62.5
q36 -15 56 -39.5t20 -63.5q0 -23 -5.5 -49t-17.5 -67l-17 -63q-11 -40 -14.5 -56.5t-3.5 -27.5q0 -17 9 -24.5t30 -10.5l85 -11l-3 -30q-17 -5 -41.5 -9t-46.5 -4q-46 0 -68 25.5t-22 60.5q0 15 4.5 37t16.5 64l19 70q8 27 13 50t5 44q0 38 -21.5 55.5t-72.5 28.5z" />
    <glyph glyph-name="bar" unicode="|" horiz-adv-x="222" 
d="M143 709h55l-111 -938h-55z" />
    <glyph glyph-name="braceright" unicode="}" horiz-adv-x="310" 
d="M256 198q-32 -6 -54.5 -16t-36.5 -25.5t-21 -39.5t-7 -58q0 -18 1 -40t2.5 -44.5t2.5 -44.5t1 -40q0 -61 -29.5 -94t-86.5 -33q-22 0 -45 4t-39 9l3 30l76 9q37 4 49.5 21.5t12.5 59.5q0 16 -1 38t-2 45t-2 44.5t-1 35.5q0 57 24.5 96.5t82.5 62.5q-36 15 -56 39.5
t-20 63.5q0 23 5.5 49t17.5 67l17 63q11 40 14.5 56.5t3.5 27.5q0 17 -9 24.5t-30 10.5l-85 11l3 30q17 5 41.5 9t46.5 4q46 0 68 -25.5t22 -60.5q0 -15 -4.5 -37t-16.5 -64l-19 -70q-8 -27 -13.5 -50t-5.5 -44q0 -38 22 -55.5t73 -28.5z" />
    <glyph glyph-name="hyphen" unicode="-" horiz-adv-x="387" 
d="M52 220l7 50h276l-7 -50h-276z" />
    <glyph glyph-name="uni00AD" unicode="&#xad;" horiz-adv-x="387" 
d="M52 220l7 50h276l-7 -50h-276z" />
    <glyph glyph-name="endash" unicode="&#x2013;" horiz-adv-x="591" 
d="M52 220l7 50h480l-7 -50h-480z" />
    <glyph glyph-name="emdash" unicode="&#x2014;" horiz-adv-x="1071" 
d="M52 220l7 50h960l-7 -50h-960z" />
    <glyph glyph-name="underscore" unicode="_" horiz-adv-x="406" 
d="M-46 -118l5 47h403l-5 -47h-403z" />
    <glyph glyph-name="dagger" unicode="&#x2020;" horiz-adv-x="511" 
d="M190 -77q2 23 3.5 45t4.5 51l16 146q2 20 6.5 44.5t10.5 57.5l16 93l-88 -6q-29 -2 -56 -3.5t-44 -1.5h-14l7 57h13q17 0 43 -1.5t55 -3.5l89 -6l4 82q3 69 9 115l9 71h60l-8 -71q-3 -24 -7 -51t-11 -65l-14 -81l87 6q32 2 57.5 3.5t42.5 1.5h14l-7 -57h-13
q-17 0 -43 1.5t-55 3.5l-89 6l-5 -93q-2 -26 -3.5 -50t-4.5 -52l-16 -146q-2 -20 -6 -45.5t-9 -50.5l-29 -152h-33z" />
    <glyph glyph-name="daggerdbl" unicode="&#x2021;" horiz-adv-x="509" 
d="M253 74l89 6q25 2 55 3.5t45 1.5h13l-6 -57h-14q-14 0 -44 1.5t-55 3.5l-86 6l-5 -81q-2 -29 -4 -60.5t-5 -55.5l-9 -71h-61l9 71q3 23 8 54t10 61l15 82l-90 -6q-29 -2 -55 -3.5t-43 -1.5h-14l7 57h13q17 0 43 -1.5t55 -3.5l88 -6l4 90q1 16 2 28.5t2.5 24.5t3.5 24.5
t5 29.5l16 89l-88 -6q-29 -2 -56 -3.5t-44 -1.5h-13l6 57h14q17 0 46.5 -1.5t51.5 -3.5l88 -6l4 82q3 70 9 115l9 71h61l-9 -71q-3 -26 -7.5 -56.5t-9.5 -59.5l-15 -81l88 6q30 2 57.5 3.5t41.5 1.5h14l-7 -57h-13q-14 0 -40.5 1.5t-57.5 3.5l-88 6l-5 -89q-3 -49 -13 -107z
" />
    <glyph glyph-name="section" unicode="&#xa7;" horiz-adv-x="539" 
d="M383 38q19 -19 30 -44.5t11 -58.5q0 -37 -15 -69t-43 -55.5t-66.5 -37t-86.5 -13.5q-44 0 -91.5 14.5t-94.5 39.5l18 37l44 -13q41 -12 70 -17.5t58 -5.5q66 0 104 29.5t38 83.5q0 44 -26.5 70.5t-81.5 49.5l-62 26q-74 31 -109.5 65.5t-35.5 91.5q0 26 9.5 50t23 45
t29.5 38t29 30q-22 22 -31.5 49t-9.5 54q0 37 15 69t43 55.5t66.5 37t86.5 13.5q44 0 90.5 -12.5t93.5 -38.5l-17 -37l-46 12q-32 8 -63 13.5t-61 5.5q-66 0 -105.5 -30t-39.5 -81q0 -43 26.5 -69.5t81.5 -49.5l62 -26q75 -32 110.5 -65.5t35.5 -82.5q0 -27 -7.5 -51
t-20 -45t-28.5 -40t-34 -37zM352 64q23 26 43.5 59t20.5 71q0 34 -26.5 60t-96.5 55l-58 24q-23 9 -38.5 17t-29.5 18q-8 -8 -19 -20.5t-21.5 -29t-18 -36t-7.5 -42.5q0 -35 27.5 -61.5t96.5 -55.5l58 -24q43 -17 69 -35z" />
    <glyph glyph-name="paragraph" unicode="&#xb6;" horiz-adv-x="484" 
d="M163 -229l77 660h-156q-17 0 -16 14l26 218h434l-6 -52h-85l-99 -840h-55l99 840h-65l-99 -840h-55z" />
    <glyph glyph-name="registered" unicode="&#xae;" horiz-adv-x="714" 
d="M437 189q-8 0 -11 6l-44 100q-2 6 -9 6h-67l-14 -112h-42l35 290h107q23 0 42 -5.5t32 -18.5q9 -9 14.5 -22t5.5 -30q0 -32 -16.5 -59.5t-48.5 -41.5l53 -113h-37zM310 340h96q8 0 13.5 2t10.5 9q7 10 10 22.5t3 23.5q0 19 -11 30q-13 12 -49 12h-61zM335 -10
q-63 0 -116.5 24.5t-92 66.5t-60.5 98t-22 119q0 76 29 144t79 119.5t116 81.5t141 30q63 0 116.5 -24.5t92 -66.5t60.5 -98t22 -119q0 -76 -29 -144t-79 -119.5t-116 -81.5t-141 -30zM404 623q-70 0 -127 -27t-97.5 -72t-62.5 -103.5t-22 -121.5q0 -56 18 -103t50.5 -82
t77.5 -54.5t99 -19.5q70 0 127 27t97.5 72t62.5 103.5t22 121.5q0 55 -18 102.5t-50.5 82.5t-77.5 54.5t-99 19.5z" />
    <glyph glyph-name="copyright" unicode="&#xa9;" horiz-adv-x="714" 
d="M481 234q-27 -21 -60.5 -35t-65.5 -14q-29 0 -52 10.5t-39 28.5t-24 42.5t-8 52.5q0 31 11.5 60.5t31 52.5t46.5 37t59 14q42 0 72 -25t40 -55l-26 -16l-22 21q-19 17 -34 25.5t-35 8.5q-21 0 -39 -9.5t-31.5 -25.5t-21 -38.5t-7.5 -47.5q0 -42 22.5 -67.5t60.5 -25.5
q16 0 33 4t45 15l30 11zM335 -10q-63 0 -116.5 24.5t-92 66.5t-60.5 98t-22 119q0 76 29 144t79 119.5t116 81.5t141 30q63 0 116.5 -24.5t92 -66.5t60.5 -98t22 -119q0 -76 -29 -144t-79 -119.5t-116 -81.5t-141 -30zM404 623q-70 0 -127 -27t-97.5 -72t-62.5 -103.5
t-22 -121.5q0 -56 18 -103t50.5 -82t77.5 -54.5t99 -19.5q70 0 127 27t97.5 72t62.5 103.5t22 121.5q0 55 -18 102.5t-50.5 82.5t-77.5 54.5t-99 19.5z" />
    <glyph glyph-name="trademark" unicode="&#x2122;" horiz-adv-x="665" 
d="M174 356h-50l32 267h-96l4 40h242l-4 -40h-96zM663 663l-37 -307h-47l27 218l-106 -117h-22q-6 0 -8.5 1t-4.5 5l-78 116l-27 -223h-46l37 307h29q8 0 12 -6l99 -152l133 152q4 4 6.5 5t8.5 1h24z" />
    <glyph glyph-name="quotedblleft" unicode="&#x201c;" horiz-adv-x="334" 
d="M237 440q-9 0 -12 2.5t-2 10.5l3 28q3 28 8 47.5t19 39.5q11 17 31 39t52 56l20 -15l-69 -111q-5 -8 0 -12l7 -7q8 -8 9.5 -12t0.5 -13l-6 -53h-61zM96 440q-9 0 -12 2.5t-2 10.5l3 28q3 28 8 47.5t19 39.5q11 17 31 39t52 56l20 -15l-69 -111q-5 -8 0 -12l7 -7
q8 -8 9.5 -12t0.5 -13l-6 -53h-61z" />
    <glyph glyph-name="quotedblright" unicode="&#x201d;" horiz-adv-x="334" 
d="M176 663q9 0 12 -2.5t2 -10.5l-3 -28q-3 -28 -8 -47.5t-19 -39.5q-11 -17 -31 -39t-52 -56l-20 15l69 111q4 7 0 12l-7 7q-8 8 -9.5 12t-0.5 13l6 53h61zM317 663q9 0 12 -2.5t2 -10.5l-3 -28q-3 -28 -8 -47.5t-19 -39.5q-11 -17 -31 -39t-52 -56l-20 15l69 111q4 7 0 12
l-7 7q-8 8 -9.5 12t-0.5 13l6 53h61z" />
    <glyph glyph-name="quoteleft" unicode="&#x2018;" horiz-adv-x="193" 
d="M96 440q-9 0 -12 2.5t-2 10.5l3 28q3 28 8 47.5t19 39.5q11 17 31 39t52 56l20 -15l-69 -111q-5 -8 0 -12l7 -7q8 -8 9.5 -12t0.5 -13l-6 -53h-61z" />
    <glyph glyph-name="quoteright" unicode="&#x2019;" horiz-adv-x="193" 
d="M176 663q9 0 12 -2.5t2 -10.5l-3 -28q-3 -28 -8 -47.5t-19 -39.5q-11 -17 -31 -39t-52 -56l-20 15l69 111q4 7 0 12l-7 7q-8 8 -9.5 12t-0.5 13l6 53h61z" />
    <glyph glyph-name="guillemotleft" unicode="&#xab;" horiz-adv-x="554" 
d="M231 56l-166 158q-6 6 -7.5 9.5t-0.5 9.5l5 37l214 166l24 -26l-180 -164l141 -164zM454 56l-166 158q-6 6 -7.5 9.5t-0.5 9.5l5 37l214 166l24 -26l-180 -164l141 -164z" />
    <glyph glyph-name="guillemotright" unicode="&#xbb;" horiz-adv-x="554" 
d="M322 436l166 -158q6 -6 7.5 -9.5t0.5 -9.5l-5 -37l-214 -166l-24 26l180 164l-141 164zM99 436l166 -158q6 -6 7.5 -9.5t0.5 -9.5l-5 -37l-214 -166l-24 26l180 164l-141 164z" />
    <glyph glyph-name="guilsinglleft" unicode="&#x2039;" horiz-adv-x="331" 
d="M231 56l-166 158q-6 6 -7.5 9.5t-0.5 9.5l5 37l214 166l24 -26l-180 -164l141 -164z" />
    <glyph glyph-name="guilsinglright" unicode="&#x203a;" horiz-adv-x="331" 
d="M99 436l166 -158q6 -6 7.5 -9.5t0.5 -9.5l-5 -37l-214 -166l-24 26l180 164l-141 164z" />
    <glyph glyph-name="quotesinglbase" unicode="&#x201a;" horiz-adv-x="194" 
d="M92 65q9 0 12 -2.5t2 -10.5l-3 -28q-3 -28 -8 -47.5t-19 -39.5q-11 -17 -31 -39t-52 -56l-20 15l69 111q4 7 0 12l-7 7q-8 8 -9.5 12t-0.5 13l6 53h61z" />
    <glyph glyph-name="quotedblbase" unicode="&#x201e;" horiz-adv-x="335" 
d="M92 65q9 0 12 -2.5t2 -10.5l-3 -28q-3 -28 -8 -47.5t-19 -39.5q-11 -17 -31 -39t-52 -56l-20 15l69 111q4 7 0 12l-7 7q-8 8 -9.5 12t-0.5 13l6 53h61zM233 65q9 0 12 -2.5t2 -10.5l-3 -28q-3 -28 -8 -47.5t-19 -39.5q-11 -17 -31 -39t-52 -56l-20 15l69 111q4 7 0 12
l-7 7q-8 8 -9.5 12t-0.5 13l6 53h61z" />
    <glyph glyph-name="ordfeminine" unicode="&#xaa;" horiz-adv-x="450" 
d="M422 664l-40 -348l58 -18l-2 -22q-11 -5 -27.5 -8.5t-29.5 -3.5q-22 0 -36.5 11t-14.5 31l-16 -10q-31 -20 -57.5 -28.5t-52.5 -8.5q-34 0 -61.5 13.5t-47 37.5t-30 56t-10.5 70q0 52 17 95.5t45 75t64.5 49t75.5 17.5q24 0 48.5 -9t48.5 -26l18 -12l19 41zM318 343
q7 3 9.5 6t3.5 11l26 216q1 8 -0.5 11.5t-10.5 8.5q-23 13 -44.5 18.5t-42.5 5.5q-30 0 -57 -11.5t-46.5 -34.5t-31 -57.5t-11.5 -80.5q0 -59 25 -91.5t75 -32.5q26 0 55.5 9.5t49.5 21.5z" />
    <glyph glyph-name="ordmasculine" unicode="&#xba;" horiz-adv-x="450" 
d="M439 492q0 -49 -16.5 -91.5t-45 -74t-67 -49.5t-81.5 -18q-38 0 -69.5 15t-54.5 39.5t-35.5 57.5t-12.5 69q0 49 16.5 91.5t45 74t66.5 49.5t82 18q38 0 69.5 -15t54.5 -39.5t35.5 -57.5t12.5 -69zM380 484q0 59 -30 97t-89 38q-31 0 -57.5 -12.5t-46 -35t-30.5 -54
t-11 -69.5q0 -59 30 -97t89 -38q31 0 57.5 12.5t46 35t30.5 54t11 69.5z" />
    <glyph glyph-name="arrowleft" unicode="&#x2190;" horiz-adv-x="773" 
d="M262 459l29 -29l-145 -158h558v-52h-559l146 -161l-29 -29l-194 193v35q0 6 1 8.5t6 7.5z" />
    <glyph glyph-name="arrowup" unicode="&#x2191;" horiz-adv-x="773" 
d="M413 556l188 -188l-29 -30l-156 146v-558h-57v558l-158 -146l-29 29l193 195h32q7 0 9.5 -1t6.5 -5z" />
    <glyph glyph-name="arrowright" unicode="&#x2192;" horiz-adv-x="773" 
d="M510 33l-29 29l145 158h-558v52h559l-146 161l29 29l194 -193v-35q0 -6 -1 -8.5t-6 -7.5z" />
    <glyph glyph-name="arrowdown" unicode="&#x2193;" horiz-adv-x="773" 
d="M359 -68l-187 188l29 29l156 -145v558h56v-558l159 145l29 -29l-193 -194h-33q-5 0 -8 0.5t-8 5.5z" />
    <glyph glyph-name="uni2196" unicode="&#x2196;" horiz-adv-x="773" 
d="M181 484h267v-42l-213 -9l393 -393l-39 -39l-395 394l-9 -216h-41v274l22 24q5 5 7.5 6t7.5 1z" />
    <glyph glyph-name="uni2197" unicode="&#x2197;" horiz-adv-x="773" 
d="M628 447v-268h-42l-8 215l-394 -394l-40 39l394 393l-214 10v42h273l24 -23q4 -5 5.5 -7t1.5 -7z" />
    <glyph glyph-name="uni2198" unicode="&#x2198;" horiz-adv-x="773" 
d="M591 1h-267v42l214 9l-394 394l40 39l394 -394l9 214h41v-273l-22 -24q-5 -4 -7.5 -5.5t-7.5 -1.5z" />
    <glyph glyph-name="uni2199" unicode="&#x2199;" horiz-adv-x="773" 
d="M144 37v267h42l8 -214l395 394l39 -39l-394 -394l214 -10v-41h-273l-24 23q-4 4 -5.5 6.5t-1.5 7.5z" />
    <glyph glyph-name="zero" unicode="0" 
d="M550 401q0 -75 -20.5 -148.5t-57.5 -132t-89 -94.5t-115 -36q-42 0 -79 18.5t-65.5 53t-45 85t-16.5 115.5q0 75 20.5 148.5t57.5 132t89 94.5t115 36q42 0 79 -18.5t65.5 -53t45 -85.5t16.5 -115zM485 399q0 47 -9.5 86.5t-27.5 68t-44.5 44.5t-60.5 16
q-55 0 -95.5 -33.5t-67.5 -85t-40 -113.5t-13 -118q0 -47 9.5 -86.5t27.5 -68t44.5 -44.5t60.5 -16q55 0 95.5 33.5t67.5 85t40 113.5t13 118z" />
    <glyph glyph-name="one" unicode="1" 
d="M103 51h174l65 545q-19 -11 -45.5 -22.5t-54.5 -22.5l-78 -29l-17 38l198 93q11 5 19.5 7.5t20.5 2.5h26l-73 -612h152l-6 -51h-387z" />
    <glyph glyph-name="two" unicode="2" 
d="M471 0h-407l4 37q1 11 11 21l215 212q29 28 57 58t49.5 60t35 60.5t13.5 61.5q0 53 -31 79t-85 26q-29 0 -61 -6t-72 -18l-65 -20l-15 39q59 30 114 46.5t109 16.5q36 0 67 -11t54.5 -31.5t36.5 -50.5t13 -67t-12.5 -70.5t-36 -67t-57.5 -69t-77 -76.5l-187 -176h334z
" />
    <glyph glyph-name="three" unicode="3" 
d="M119 80q44 -17 76 -24.5t64 -7.5q36 0 68 11.5t56 32.5t37.5 51.5t13.5 68.5q0 47 -25 72q-30 30 -101 30h-58q-8 0 -9.5 3t-0.5 9l6 38h99q23 0 34 5.5t20 18.5q17 24 31 56.5t14 70.5q0 49 -33.5 74.5t-86.5 25.5q-29 0 -63 -6t-72 -16l-58 -15l-15 37q121 58 221 58
q35 0 66 -10t54 -29.5t36 -47t13 -61.5q0 -56 -22 -100t-62 -82q39 -19 57.5 -55.5t18.5 -78.5q0 -48 -19 -88t-51.5 -69.5t-75.5 -45.5t-91 -16q-65 0 -124.5 23t-107.5 57l22 37z" />
    <glyph glyph-name="four" unicode="4" 
d="M426 651q7 8 11 10t14 2h49l-51 -435h101l-6 -52h-102l-21 -176h-60l21 176h-337l5 34q2 10 4 14t8 11zM389 228l42 358q-15 -20 -38 -48.5t-46 -54.5l-150 -172q-22 -26 -41.5 -47.5t-33.5 -35.5h267z" />
    <glyph glyph-name="five" unicode="5" 
d="M131 331q-5 3 -5.5 6t0.5 10l37 316h353l-6 -54h-297l-13 -118q-9 -80 -18 -123q36 15 74.5 24t71.5 9q39 0 72 -12.5t57 -35.5t38 -56t14 -75q0 -48 -17 -90.5t-48.5 -74t-75 -49.5t-96.5 -18q-55 0 -110.5 20t-104.5 53l22 35l47 -17q24 -9 43.5 -15t36 -10t32.5 -6
t33 -2q38 0 70 12.5t55.5 35.5t36.5 55t13 70q0 64 -39 94.5t-100 30.5q-35 0 -73 -9.5t-69 -20.5q-4 -2 -7 -1.5t-8 4.5z" />
    <glyph glyph-name="six" unicode="6" 
d="M176 361q47 24 88.5 37t84.5 13q35 0 67.5 -11.5t57.5 -33.5t40 -55.5t15 -76.5q0 -45 -17 -89t-48 -78.5t-74 -55.5t-94 -21q-50 0 -90 20t-68.5 56t-44 85.5t-15.5 107.5q0 73 21.5 147t63 133.5t101 96.5t136.5 37q34 0 69 -9t66 -24l-17 -39q-31 8 -62.5 12t-59.5 4
q-49 0 -91 -20.5t-74 -56.5t-53 -85.5t-29 -107.5zM161 306q-14 -8 -16.5 -18.5t-2.5 -35.5q0 -42 10 -79t29.5 -65.5t48.5 -45t67 -16.5q36 0 67 15.5t54 41.5t36 60t13 72q0 58 -36 89t-96 31q-40 0 -86 -13t-88 -36z" />
    <glyph glyph-name="seven" unicode="7" 
d="M156 0q7 40 16 73.5t23.5 67t36 70t53.5 83.5l217 315h-386l7 54h449l-4 -31q-2 -11 -5 -18t-11 -20l-216 -325q-30 -45 -49.5 -79t-32 -64t-21 -59.5t-15.5 -66.5h-62z" />
    <glyph glyph-name="eight" unicode="8" 
d="M285 -10q-50 0 -93 15t-74.5 41.5t-49.5 62.5t-18 78q0 33 12 62t32 54t45.5 45t52.5 34q-31 20 -49 50.5t-18 66.5q0 37 16.5 69t45 55.5t66.5 36.5t82 13q40 0 75.5 -12.5t62.5 -34.5t43 -52.5t16 -65.5q0 -28 -10 -53t-26.5 -47.5t-38 -42t-44.5 -35.5
q54 -28 85 -61.5t31 -80.5q0 -44 -20.5 -80.5t-54 -62.5t-77.5 -40.5t-92 -14.5zM111 188q0 -31 13.5 -57t37.5 -45t56 -30t69 -11t70 10.5t57.5 29t38.5 44t14 55.5q0 15 -5.5 29.5t-19.5 29.5t-37 30t-58 32l-97 46q-8 4 -13 3.5t-13 -5.5q-52 -30 -82.5 -69t-30.5 -92z
M474 504q0 27 -11.5 48t-30.5 36t-45 22.5t-54 7.5q-31 0 -58.5 -8t-48 -23t-32.5 -36t-12 -47q0 -38 31 -64t86 -52l59 -28q8 -4 12 -4t11 5q40 29 66.5 67t26.5 76z" />
    <glyph glyph-name="nine" unicode="9" 
d="M426 301q-39 -22 -84 -35.5t-88 -13.5q-35 0 -67.5 13t-57.5 37.5t-40 59t-15 78.5q0 53 19.5 96t51 73.5t72 47t82.5 16.5q52 0 93.5 -19.5t70.5 -55t44.5 -85t15.5 -109.5q0 -75 -18 -149t-55 -133t-93 -95.5t-131 -36.5q-35 0 -73.5 10t-68.5 26l16 38q32 -8 68 -13
t60 -5q48 0 85.5 20t65.5 55.5t46.5 85t27.5 109.5zM441 358q14 7 16.5 17.5t2.5 37.5q0 42 -9 79.5t-29 65t-51 44t-75 16.5q-33 0 -62 -12t-51.5 -34.5t-35.5 -56t-13 -75.5q0 -62 36.5 -97t97.5 -35q42 0 86.5 14t86.5 36z" />
    <glyph glyph-name="dollar" unicode="$" 
d="M460 609q-22 2 -44 3.5t-42 2.5l-29 -239q85 -41 121.5 -81t36.5 -98q0 -44 -15 -80t-42 -62.5t-64.5 -42.5t-82.5 -20v-1l-18 -95h-44l11 95q-24 1 -50.5 5.5t-53 12t-51.5 17t-46 20.5l17 36l55 -13q78 -19 136 -21l35 289l-22 11q-37 18 -65.5 35.5t-48 37.5t-29.5 43
t-10 52q0 36 15.5 65t44 49t68 31t87.5 12l18 93h44l-12 -96q37 -3 74.5 -11t65.5 -18l-9 -37zM443 194q0 39 -23.5 65t-82.5 55l-31 -264q28 4 53 14.5t44 28.5t29.5 43t10.5 58zM175 518q0 -37 29 -62.5t93 -56.5l26 217q-66 -2 -107 -24t-41 -74z" />
    <glyph glyph-name="cent" unicode="&#xa2;" 
d="M498 75q-38 -33 -89 -55.5t-105 -26.5l-19 -97h-42l12 99q-40 6 -71 25t-52.5 47.5t-32.5 65.5t-11 80q0 53 17 102.5t47 88.5t72 63.5t93 27.5l19 93h42l-12 -96q54 -8 89.5 -42t57.5 -85l-42 -21l-41 47q-19 22 -35 32.5t-36 16.5l-48 -393q26 2 54.5 10.5t58.5 22.5
l56 25zM152 215q0 -28 5.5 -54t18.5 -48t34 -38t53 -25l48 391q-34 -4 -63 -22.5t-50.5 -48t-33.5 -69t-12 -86.5z" />
    <glyph glyph-name="Euro" unicode="&#x20ac;" 
d="M540 62q-48 -36 -102.5 -54t-102.5 -18q-50 0 -89 18.5t-66.5 52t-43 80.5t-16.5 104h-80l4 34l76 8q2 22 4 40t5 37h-75l4 34l79 8q12 46 35 93.5t56.5 86t78 63t99.5 24.5q32 0 60 -10.5t51 -28.5t40.5 -42t28.5 -51l-37 -21l-45 46q-27 28 -49 40.5t-52 12.5
q-41 0 -74 -19t-58.5 -49.5t-43.5 -68t-28 -73.5h206l-6 -45h-209q-6 -34 -9 -74h210l-6 -45h-204q2 -94 44.5 -147.5t122.5 -53.5q26 0 55.5 7t67.5 23l51 21z" />
    <glyph glyph-name="florin" unicode="&#x192;" 
d="M277 -48q-5 -46 -18 -82t-37 -60q-23 -23 -56.5 -35t-71.5 -12q-27 0 -54 7t-47 15l11 37q22 -3 46 -5t38 -2q68 0 96 31q15 17 23.5 44t13.5 70l37 311h-110l3 32l112 14l20 167q5 46 18.5 82t37.5 60q23 23 56 35t71 12q27 0 54 -7t47 -15l-11 -37q-22 3 -46 5t-38 2
q-34 0 -57.5 -7t-38.5 -24t-23.5 -44t-13.5 -70l-20 -158h171l-4 -47h-171z" />
    <glyph glyph-name="sterling" unicode="&#xa3;" 
d="M518 52l-6 -52h-436l3 31q1 7 3 11t10 14l33 39q15 18 26 33t18 29.5t10.5 29.5t3.5 34q0 21 -3.5 41.5t-8.5 42.5h-93l4 34l80 10q-6 25 -11.5 55.5t-5.5 56.5q0 49 17 88.5t46 67t67.5 42t81.5 14.5q54 0 106.5 -24t92.5 -66l-26 -32l-49 26q-35 19 -65 28.5t-62 9.5
q-36 0 -64.5 -10.5t-48 -29.5t-29.5 -45.5t-10 -57.5q0 -33 5.5 -63.5t12.5 -58.5h213l-5 -45h-199q5 -22 8 -42t3 -43q0 -38 -16.5 -71t-55.5 -75l-21 -22h371z" />
    <glyph glyph-name="yen" unicode="&#xa5;" 
d="M256 255l-180 408h49q8 0 11 -2t6 -9l95 -216q10 -23 20 -47t19 -46.5t16.5 -41.5t11.5 -31h1q14 26 41.5 69.5t61.5 94.5l145 217q5 8 8.5 10t11.5 2h62l-284 -408h120l-5 -46h-138l-6 -47h138l-5 -46h-139l-13 -116h-60l13 116h-138l6 46h138l6 47h-139l5 46h122z" />
    <glyph glyph-name="numbersign" unicode="#" 
d="M140 191h-86l6 53h95l50 174h-123l6 53h133l55 192h59l-55 -192h132l55 192h59l-55 -192h86l-6 -53h-96l-50 -174h125l-6 -53h-134l-55 -191h-59l55 191h-132l-55 -191h-59zM214 244h132l50 174h-132z" />
    <glyph glyph-name="percent" unicode="%" horiz-adv-x="860" 
d="M354 512q0 48 -26 78t-70 30q-31 0 -53.5 -12t-37.5 -30.5t-22 -42t-7 -45.5q0 -48 26 -78t70 -30q31 0 53.5 12t37.5 30.5t22 41.5t7 46zM84 489q0 35 13 68t36 59t55.5 41.5t70.5 15.5q33 0 60.5 -12t47 -33.5t30.5 -51t11 -63.5q0 -35 -13 -68t-36.5 -59t-55.5 -41.5
t-70 -15.5q-33 0 -60.5 12t-47 33.5t-30.5 50.5t-11 64zM743 173q0 48 -26 78t-70 30q-31 0 -53.5 -12t-37.5 -30.5t-22 -42t-7 -45.5q0 -48 26 -78t70 -30q31 0 53.5 12t37.5 30.5t22 41.5t7 46zM473 150q0 35 13 68t36 59t55.5 41.5t70.5 15.5q33 0 60.5 -12t47 -33.5
t30.5 -51t11 -63.5q0 -35 -13 -68t-36.5 -59t-55.5 -41.5t-70 -15.5q-33 0 -60.5 12t-47 33.5t-30.5 50.5t-11 64zM214 0l394 663h60l-395 -663h-59z" />
    <glyph glyph-name="perthousand" unicode="&#x2030;" horiz-adv-x="1220" 
d="M354 512q0 48 -26 78t-70 30q-31 0 -53.5 -12t-37.5 -30.5t-22 -42t-7 -45.5q0 -48 26 -78t70 -30q31 0 53.5 12t37.5 30.5t22 41.5t7 46zM84 489q0 35 13 68t36 59t55.5 41.5t70.5 15.5q33 0 60.5 -12t47 -33.5t30.5 -51t11 -63.5q0 -35 -13 -68t-36.5 -59t-55.5 -41.5
t-70 -15.5q-33 0 -60.5 12t-47 33.5t-30.5 50.5t-11 64zM743 173q0 48 -26 78t-70 30q-31 0 -53.5 -12t-37.5 -30.5t-22 -42t-7 -45.5q0 -48 26 -78t70 -30q31 0 53.5 12t37.5 30.5t22 41.5t7 46zM473 150q0 35 13 68t36 59t55.5 41.5t70.5 15.5q33 0 60.5 -12t47 -33.5
t30.5 -51t11 -63.5q0 -35 -13 -68t-36.5 -59t-55.5 -41.5t-70 -15.5q-33 0 -60.5 12t-47 33.5t-30.5 50.5t-11 64zM1103 173q0 48 -26 78t-70 30q-31 0 -53.5 -12t-37.5 -30.5t-22 -42t-7 -45.5q0 -48 26 -78t70 -30q31 0 53.5 12t37.5 30.5t22 41.5t7 46zM833 150
q0 35 13 68t36 59t55.5 41.5t70.5 15.5q33 0 60.5 -12t47 -33.5t30.5 -51t11 -63.5q0 -35 -13 -68t-36.5 -59t-55.5 -41.5t-70 -15.5q-33 0 -60.5 12t-47 33.5t-30.5 50.5t-11 64zM214 0l394 663h60l-395 -663h-59z" />
    <glyph glyph-name="plus" unicode="+" horiz-adv-x="503" 
d="M245 428h54l-18 -157h148l-6 -50h-148l-19 -157h-54l19 157h-148l6 50h148z" />
    <glyph glyph-name="minus" unicode="&#x2212;" horiz-adv-x="503" 
d="M429 271l-6 -50h-350l6 50h350z" />
    <glyph glyph-name="multiply" unicode="&#xd7;" horiz-adv-x="505" 
d="M376 392l33 -35l-123 -113l94 -112l-39 -32l-93 110l-120 -110l-33 35l122 112l-94 113l40 32l92 -111z" />
    <glyph glyph-name="less" unicode="&#x3c;" horiz-adv-x="503" 
d="M439 433l-7 -58l-305 -132l274 -126l-7 -59l-330 164l6 47z" />
    <glyph glyph-name="divide" unicode="&#xf7;" horiz-adv-x="503" 
d="M429 271l-6 -50h-350l6 50h350zM200 129h60q9 0 11.5 -2t1.5 -10l-8 -66h-74zM238 441h59q10 0 12 -2t1 -10l-8 -66h-74z" />
    <glyph glyph-name="equal" unicode="=" horiz-adv-x="503" 
d="M440 361l-6 -50h-349l6 50h349zM418 181l-6 -50h-349l6 50h349z" />
    <glyph glyph-name="logicalnot" unicode="&#xac;" horiz-adv-x="503" 
d="M433 361l-28 -230h-51l22 180h-299l6 50h350z" />
    <glyph glyph-name="greater" unicode="&#x3e;" horiz-adv-x="503" 
d="M64 58l7 59l305 131l-274 127l7 58l330 -164l-6 -47z" />
    <glyph glyph-name="notequal" unicode="&#x2260;" horiz-adv-x="503" 
d="M440 361l-6 -50h-120l-71 -130h175l-6 -50h-196l-59 -108l-40 18l49 90h-103l6 50h124l71 130h-179l6 50h200l58 106l40 -18l-49 -88h100z" />
    <glyph glyph-name="approxequal" unicode="&#x2248;" horiz-adv-x="501" 
d="M333 281q-21 0 -40.5 7t-37.5 15t-35.5 15t-35.5 7q-27 0 -44.5 -12t-36.5 -36l-32 13q21 41 51.5 63.5t65.5 22.5q21 0 39.5 -7t36.5 -15t35.5 -15t35.5 -7q27 0 45 12t37 36l32 -13q-21 -41 -51.5 -63.5t-64.5 -22.5zM313 114q-21 0 -40.5 7t-37.5 15t-35.5 15t-35.5 7
q-27 0 -44.5 -12t-36.5 -36l-32 13q21 41 51.5 63.5t65.5 22.5q21 0 39.5 -7t36.5 -15t35.5 -15t35.5 -7q27 0 45 12t37 36l32 -13q-21 -41 -51.5 -63.5t-64.5 -22.5z" />
    <glyph glyph-name="plusminus" unicode="&#xb1;" horiz-adv-x="501" 
d="M260 488h54l-17 -147h148l-6 -50h-148l-17 -147h-54l17 147h-148l6 50h148zM412 50l-6 -50h-350l6 50h350z" />
    <glyph glyph-name="lessequal" unicode="&#x2264;" horiz-adv-x="500" 
d="M412 50l-6 -50h-350l6 50h350zM464 493l-7 -58l-304 -124l275 -118l-7 -59l-331 156l6 47z" />
    <glyph glyph-name="greaterequal" unicode="&#x2265;" horiz-adv-x="501" 
d="M412 50l-6 -50h-350l6 50h350zM71 135l7 58l304 124l-275 118l7 59l331 -156l-6 -47z" />
    <glyph glyph-name="asciicircum" unicode="^" horiz-adv-x="503" 
d="M454 457l-47 -27l-112 191l-160 -191l-37 32l175 211h52z" />
    <glyph glyph-name="asciitilde" unicode="~" horiz-adv-x="502" 
d="M353 303q-21 0 -40.5 7t-38 15t-36.5 15t-36 7q-26 0 -44.5 -12.5t-37.5 -36.5l-31 15q21 41 50.5 63t64.5 22q21 0 40.5 -7t37.5 -15t36 -15t36 -7q26 0 45.5 12.5t38.5 36.5l30 -15q-20 -41 -48.5 -63t-66.5 -22z" />
    <glyph glyph-name="lozenge" unicode="&#x25ca;" horiz-adv-x="579" 
d="M488 334l-150 268l-218 -272l150 -269zM65 312q-5 8 -6 11.5t-1 6.5q0 4 2 8.5t9 12.5l250 312h38q10 0 15 -9l170 -302q5 -8 6 -11.5t1 -6.5q0 -4 -2 -8.5t-9 -12.5l-249 -313h-38q-10 0 -15 9z" />
    <glyph glyph-name="degree" unicode="&#xb0;" horiz-adv-x="408" 
d="M338 520q0 45 -24.5 73t-65.5 28q-29 0 -50 -11t-35 -28.5t-21 -39t-7 -42.5q0 -45 24.5 -73t65.5 -28q29 0 50 11t35 28.5t21 39t7 42.5zM81 499q0 33 12.5 64.5t35 55.5t53.5 39t67 15q31 0 57.5 -11.5t45.5 -31.5t29.5 -48t10.5 -61t-12.5 -64.5t-35 -55.5t-53.5 -39
t-67 -15q-31 0 -57.5 11.5t-45.5 31.5t-29.5 48t-10.5 61z" />
    <glyph glyph-name="quotesingle" unicode="'" horiz-adv-x="215" 
d="M143 414h-35l2 103q1 35 2.5 59t4.5 47l5 40h66l-4 -40q-2 -26 -7 -49.5t-12 -56.5z" />
    <glyph glyph-name="quotedbl" unicode="&#x22;" horiz-adv-x="360" 
d="M143 414h-35l2 103q1 35 2.5 59t4.5 47l5 40h66l-4 -40q-2 -26 -7 -49.5t-12 -56.5zM288 414h-35l2 103q1 35 2.5 59t4.5 47l5 40h66l-4 -40q-2 -26 -7 -49.5t-12 -56.5z" />
    <glyph glyph-name="radical" unicode="&#x221a;" horiz-adv-x="672" 
d="M778 793l-408 -793h-49q-12 0 -15 9l-128 431h-92l7 48h121q10 0 13 -9l86 -300q12 -42 18.5 -68t11.5 -54h3q11 26 24.5 55t32.5 66l305 605q5 10 16 10h54z" />
    <glyph glyph-name="currency" unicode="&#xa4;" horiz-adv-x="578" 
d="M285 125q-38 0 -68 12.5t-51 35.5l-76 -68l-36 37l83 73q-18 39 -18 88q0 41 12 78.5t35 69.5l-66 69l44 37l59 -66q26 21 59 33.5t71 12.5t68 -12.5t51 -35.5l76 68l36 -37l-83 -73q18 -39 18 -88q0 -41 -12 -78.5t-35 -69.5l66 -69l-44 -37l-59 66q-26 -21 -59 -33.5
t-71 -12.5zM327 484q-34 0 -61.5 -15t-47.5 -40t-31 -57t-11 -66q0 -59 30.5 -93.5t84.5 -34.5q34 0 61.5 15t47.5 40t31 57t11 66q0 59 -30.5 93.5t-84.5 34.5z" />
    <glyph glyph-name="infinity" unicode="&#x221e;" horiz-adv-x="704" 
d="M249 474q-33 0 -56.5 -16.5t-38 -42.5t-21 -57.5t-6.5 -62.5q0 -47 19 -80t63 -33q22 0 40.5 11t36.5 34t36.5 57.5t39.5 82.5q5 11 5.5 15.5t-4.5 10.5q-21 30 -48.5 55.5t-65.5 25.5zM350 227q-29 -48 -64.5 -74t-79.5 -26q-61 0 -97.5 45.5t-36.5 123.5q0 44 12 85.5
t34.5 74t55.5 52.5t75 20q44 0 79 -27t66 -72q29 48 64.5 74t79.5 26q61 0 97.5 -45.5t36.5 -123.5q0 -44 -12 -85.5t-34.5 -74t-55.5 -52.5t-75 -20q-44 0 -79 27t-66 72zM495 182q33 0 56.5 16.5t38 42.5t21 57.5t6.5 62.5q0 47 -19.5 80t-62.5 33q-22 0 -40.5 -11
t-36.5 -34t-36.5 -57.5t-39.5 -82.5q-5 -11 -5.5 -15.5t4.5 -10.5q21 -30 48.5 -55.5t65.5 -25.5z" />
    <glyph glyph-name="mu" unicode="&#xb5;" horiz-adv-x="534" 
d="M157 488l-34 -290q-2 -19 -3.5 -32.5t-1.5 -24.5q0 -90 109 -90q30 0 63 6.5t62 17.5l16 6q8 3 10 6t3 9l46 392h63l-58 -488h-43l-9 41l-33 -15q-32 -14 -65.5 -24t-68.5 -10q-32 0 -61.5 9t-48.5 28l-30 -258h-63l84 717h63z" />
    <glyph glyph-name="partialdiff" unicode="&#x2202;" horiz-adv-x="581" 
d="M155 640q33 16 70.5 24.5t72.5 8.5q52 0 95 -20.5t73.5 -60t47.5 -97.5t17 -132q0 -70 -16.5 -137t-51.5 -119.5t-88.5 -84.5t-128.5 -32q-41 0 -76 14.5t-60.5 41t-39.5 62t-14 77.5q0 49 17 90.5t46.5 71.5t69.5 47t86 17q45 0 88 -14.5t83 -38.5l22 -13v24
q0 51 -11 96.5t-33.5 79.5t-57 53.5t-82.5 19.5t-121 -18zM459 273q2 14 -0.5 20t-11.5 12q-35 22 -77 36t-87 14q-39 0 -69.5 -13t-51.5 -35.5t-32 -53t-11 -66.5q0 -66 36 -103t101 -37q43 0 78 18.5t61.5 50t42.5 72.5t21 85z" />
    <glyph glyph-name="summation" unicode="&#x2211;" horiz-adv-x="536" 
d="M94 663h467l-7 -55h-383l280 -379l-5 -35l-353 -368h384l-7 -55h-475l3 23q2 10 3.5 15.5t8.5 12.5l377 393l-289 397q-6 8 -8 13t0 13z" />
    <glyph glyph-name="product" unicode="&#x220f;" horiz-adv-x="688" 
d="M212 608h-122l7 55h633l-7 -55h-122l-99 -837h-66l99 837h-257l-99 -837h-66z" />
    <glyph glyph-name="pi" unicode="&#x3c0;" horiz-adv-x="577" 
d="M523 41l-4 -28q-14 -6 -36 -10.5t-37 -4.5q-37 0 -55 23q-12 16 -12 40q0 6 0.5 12t1.5 12l42 355h-244l-52 -440h-60l52 440h-82l6 48h528l-6 -48h-82l-46 -386z" />
    <glyph glyph-name="integral" unicode="&#x222b;" horiz-adv-x="601" 
d="M396 -36q0 -43 -10.5 -80.5t-32.5 -65t-56.5 -43.5t-83.5 -16q-24 0 -45.5 6t-41.5 16l13 35q23 -5 40 -7t34 -2q33 0 57 11.5t39 32t22 48.5t7 62q0 57 -16.5 120.5t-36.5 129.5t-36.5 131.5t-16.5 125.5q0 43 10.5 80.5t32.5 65t56.5 43t83.5 15.5q24 0 45.5 -6
t41.5 -16l-13 -35q-23 5 -40 7t-34 2q-33 0 -57 -11.5t-39 -32t-22 -48.5t-7 -62q0 -57 16.5 -119.5t36.5 -127.5t36.5 -130.5t16.5 -128.5z" />
    <glyph glyph-name="Omega" unicode="&#x3a9;" horiz-adv-x="685" 
d="M375 32q2 12 5.5 19t10.5 15l67 81q27 32 50 62.5t40 62t26.5 65.5t9.5 72q0 47 -15 85t-42 64.5t-64.5 40.5t-81.5 14q-50 0 -93 -17t-75 -49.5t-50.5 -79t-18.5 -105.5q0 -62 18 -112t50 -103l48 -81q5 -9 7.5 -15t0.5 -19l-4 -32h-204l7 54h144l-35 50
q-44 63 -71 126.5t-27 138.5q0 57 20 112t59 97.5t95.5 68.5t128.5 26q60 0 109.5 -20t85 -55t55 -82.5t19.5 -102.5q0 -81 -45 -159t-117 -150l-50 -50h142l-7 -54h-202z" />
    <glyph glyph-name="Omega" unicode="&#x2126;" horiz-adv-x="685" 
d="M375 32q2 12 5.5 19t10.5 15l67 81q27 32 50 62.5t40 62t26.5 65.5t9.5 72q0 47 -15 85t-42 64.5t-64.5 40.5t-81.5 14q-50 0 -93 -17t-75 -49.5t-50.5 -79t-18.5 -105.5q0 -62 18 -112t50 -103l48 -81q5 -9 7.5 -15t0.5 -19l-4 -32h-204l7 54h144l-35 50
q-44 63 -71 126.5t-27 138.5q0 57 20 112t59 97.5t95.5 68.5t128.5 26q60 0 109.5 -20t85 -55t55 -82.5t19.5 -102.5q0 -81 -45 -159t-117 -150l-50 -50h142l-7 -54h-202z" />
    <glyph glyph-name="Delta" unicode="&#x2206;" horiz-adv-x="623" 
d="M568 83q6 -20 8 -31t0 -24l-3 -28h-561l3 28q1 7 2 13t4 13.5t9 19t15 29.5l288 560h54q8 0 9.5 -2t3.5 -7zM414 393q-17 59 -30.5 109t-24.5 93q-20 -42 -46 -95.5t-51 -101.5l-127 -251q-14 -26 -27 -50.5t-25 -43.5q26 2 54.5 2h66.5h192q39 0 68.5 -0.5t52.5 -1.5
q-7 17 -15 42.5t-16 51.5z" />
    <glyph glyph-name="litre" unicode="&#x2113;" horiz-adv-x="233" 
d="M192 13q-14 -5 -35.5 -10t-36.5 -5q-31 0 -49.5 16t-18.5 50q0 11 3 38l72 607h63l-78 -655l83 -13z" />
    <glyph glyph-name="estimated" unicode="&#x212e;" horiz-adv-x="875" 
d="M202 323q-8 0 -8 -6v-187q0 -7 3 -11t9 -10q44 -45 104.5 -71.5t129.5 -26.5q74 0 136.5 30t107.5 80h56q-54 -60 -132 -95.5t-169 -35.5q-79 0 -149 26.5t-122 72.5t-82 108.5t-30 133.5t30 133.5t82 109t122 73t149 26.5q78 0 147 -26.5t120.5 -73t82 -109t30.5 -133.5
v-8h-617zM680 537q0 6 -3.5 11t-9.5 11q-42 44 -101.5 69t-125.5 25q-69 0 -129 -26t-105 -71q-6 -6 -9 -11t-3 -13v-185q0 -5 8 -5h470q8 0 8 5v190z" />
    <glyph glyph-name="numero" unicode="&#x2116;" horiz-adv-x="1024" 
d="M889 622q-27 0 -49.5 -10.5t-39 -29t-25.5 -44t-9 -54.5q0 -44 23.5 -65t59.5 -21q27 0 49.5 10.5t39 29t25.5 44t9 54.5q0 44 -23.5 65t-59.5 21zM849 347q-63 0 -100 35.5t-37 101.5q0 39 14 73.5t38 60t56.5 40.5t68.5 15q63 0 100 -35.5t37 -101.5q0 -39 -14 -73.5
t-38 -60t-56.5 -40.5t-68.5 -15zM600 663h61l-79 -663h-36q-12 0 -18 9l-262 398q-12 18 -25 38.5t-26.5 42t-26 41.5t-21.5 37l-66 -566h-61l79 663h37q7 0 10 -1.5t7 -7.5l261 -398q26 -39 53 -82.5t46 -76.5z" />
    <glyph glyph-name="zero.otab" 
d="M519 272q0 -60 -20 -111.5t-54 -89t-79.5 -58.5t-95.5 -21q-42 0 -79.5 16t-66 45.5t-45.5 71t-17 91.5q0 60 20 111t54.5 88.5t80 59t95.5 21.5q42 0 79.5 -16t66 -45.5t45 -71t16.5 -91.5zM455 266q0 34 -9 65.5t-27.5 55t-46 37.5t-64.5 14q-42 0 -76 -18.5
t-57.5 -48.5t-36 -69t-12.5 -80q0 -35 9 -66t27.5 -54.5t46 -37.5t64.5 -14q42 0 76 18.5t57.5 48.5t36 69t12.5 80z" />
    <glyph glyph-name="one.otab" 
d="M117 48h162l45 374h-1q-15 -8 -41.5 -19t-55.5 -21l-72 -24l-16 38l194 85q9 4 15 5.5t14 1.5h32l-52 -440h136l-6 -48h-360z" />
    <glyph glyph-name="two.otab" 
d="M114 433q59 32 113 47.5t97 15.5q33 0 62 -8.5t50.5 -25.5t33.5 -41.5t12 -56.5q0 -30 -9.5 -56t-30.5 -51.5t-54 -52.5t-80 -60l-140 -97q17 2 34 2.5t36 0.5h222l-6 -50h-378l4 28q2 8 3.5 11t6.5 7l213 161q33 25 55 45.5t35.5 38.5t19 35.5t5.5 36.5q0 36 -26.5 55.5
t-72.5 19.5q-44 0 -132 -25l-58 -16z" />
    <glyph glyph-name="three.otab" 
d="M81 -92q35 -14 73 -24.5t77 -10.5q35 0 67 11t56.5 32.5t39 53.5t14.5 73q0 40 -18 63q-28 35 -102 35h-75q-8 0 -9.5 2.5t-0.5 8.5l5 40h123q8 0 14.5 2.5t12.5 10.5q21 29 37.5 64.5t16.5 73.5q0 48 -30.5 71.5t-88.5 23.5q-25 0 -58.5 -6t-73.5 -17l-59 -16l-14 38
q58 29 112 44t109 15q75 0 120 -39t45 -102q0 -48 -22 -91.5t-59 -91.5q39 -17 59 -49.5t20 -76.5q0 -50 -18.5 -92t-50.5 -73t-75.5 -48t-94.5 -17q-62 0 -121.5 23t-104.5 58l21 33z" />
    <glyph glyph-name="four.otab" 
d="M408 480q5 5 8.5 6.5t9.5 1.5h49l-51 -434h96l-6 -49h-96l-18 -161h-60l18 161h-335l5 32q1 7 2.5 10.5t7.5 10.5zM364 54l43 355q-6 -8 -15 -19t-19 -23l-20 -24t-18 -21l-165 -190q-23 -27 -40.5 -45.5t-31.5 -32.5h266z" />
    <glyph glyph-name="five.otab" 
d="M116 156q-4 2 -5 4.5t0 10.5l38 317h351l-6 -50h-295l-15 -123q-4 -32 -9 -65t-10 -57q36 14 73 22.5t72 8.5q40 0 73.5 -13.5t57.5 -36.5t37.5 -54t13.5 -67q0 -55 -18.5 -99t-50 -74.5t-74.5 -47t-91 -16.5q-57 0 -113.5 19t-98.5 48l19 34l40 -13q51 -17 86.5 -24
t67.5 -7q35 0 66 11t54.5 33t37 54.5t13.5 76.5q0 55 -33.5 89t-99.5 34q-35 0 -71 -7t-72 -21q-5 -2 -8 -2t-10 4z" />
    <glyph glyph-name="six.otab" 
d="M503 599q-35 9 -63 13t-54 4q-51 0 -93 -19.5t-73.5 -55t-52 -84.5t-29.5 -108l25 13q45 23 87 37.5t84 14.5q40 0 73.5 -13.5t57.5 -37t37 -56.5t13 -72q0 -53 -18.5 -97.5t-50.5 -76.5t-74.5 -50.5t-90.5 -18.5q-49 0 -89 19t-68.5 52.5t-44 80t-15.5 102.5
q0 81 22 157.5t63 136t101 95.5t136 36q35 0 69 -9t64 -24zM150 307q-16 -9 -19.5 -22t-3.5 -38q0 -41 9.5 -77.5t28.5 -63.5t48 -43t67 -16q40 0 72 15t54.5 40t35 57.5t12.5 68.5q0 67 -36.5 98.5t-98.5 31.5q-45 0 -89 -15.5t-80 -35.5z" />
    <glyph glyph-name="seven.otab" 
d="M117 -177q7 45 16.5 80t23.5 68.5t35.5 69t52.5 80.5l218 316h-382l6 51h446l-4 -31q-2 -10 -5 -16.5t-15 -25.5l-209 -312q-31 -46 -51 -81t-33.5 -66.5t-22 -63t-14.5 -69.5h-62z" />
    <glyph glyph-name="eight.otab" 
d="M520 185q0 -42 -19 -77.5t-52 -61t-76.5 -40t-91.5 -14.5q-49 0 -91.5 14.5t-74 41t-50 62.5t-18.5 78q0 32 11.5 60.5t31 53.5t44.5 44.5t53 33.5q-30 23 -49.5 54t-19.5 69q0 37 18 68.5t47 54t66.5 35t76.5 12.5q42 0 77.5 -12.5t62 -34.5t41.5 -52t15 -65
q0 -28 -10 -52.5t-26.5 -46.5t-37.5 -40.5t-43 -34.5q54 -28 84.5 -65.5t30.5 -84.5zM459 181q0 16 -5 31.5t-18.5 31t-36 30.5t-58.5 32l-96 44q-8 4 -13.5 4t-13.5 -5q-51 -29 -80 -67t-29 -89q0 -36 14.5 -63t38.5 -45.5t55.5 -28t65.5 -9.5q37 0 69 10t56 28t37.5 42.5
t13.5 53.5zM349 362q14 -6 24 2q38 29 64 66t26 78q0 27 -12 47.5t-31.5 34.5t-44 21t-50.5 7q-28 0 -54.5 -7t-47.5 -21.5t-33.5 -35.5t-12.5 -48q0 -40 31 -68t83 -50z" />
    <glyph glyph-name="nine.otab" 
d="M87 -112q28 -8 60 -12.5t58 -4.5q98 0 155.5 70.5t76.5 197.5l-25 -13q-45 -23 -87 -37.5t-84 -14.5q-41 0 -74 14t-57 38.5t-37 58t-13 73.5q0 52 18.5 96t50.5 75.5t74.5 49t90.5 17.5q49 0 89 -19t68.5 -52.5t44 -80.5t15.5 -102q0 -81 -19.5 -157.5t-58 -136t-96 -96
t-133.5 -36.5q-33 0 -68 9t-65 24zM425 181q16 9 19.5 22t3.5 38q0 41 -9.5 77.5t-28.5 63.5t-48 43t-67 16q-40 0 -72 -14t-54.5 -38t-35 -56t-12.5 -68q0 -69 36.5 -102t98.5 -33q45 0 89 15.5t80 35.5z" />
    <glyph glyph-name="dollar.otab" 
d="M165 57q26 -6 50 -9t44 -4l24 193l-22 9q-56 23 -85.5 49t-29.5 71q0 32 15 56t39 40t54 24.5t60 9.5l18 103h37l-13 -105q31 -3 61.5 -10t56.5 -17l-12 -38l-35 5q-20 2 -38.5 4t-38.5 4l-19 -165l7 -3q56 -23 89 -52.5t33 -76.5q0 -33 -13 -60t-35 -46.5t-51.5 -31
t-63.5 -14.5l-18 -97h-37l11 97q-38 2 -79 13t-72 28l15 34zM303 46q45 6 72.5 29.5t27.5 60.5q0 26 -17.5 45.5t-61.5 38.5zM307 443q-20 -1 -39 -5.5t-34 -12.5t-24 -21.5t-9 -32.5q0 -28 22 -44t66 -34z" />
    <glyph glyph-name="cent.otab" 
d="M259 -6q-36 5 -64.5 21.5t-48.5 42t-31 59t-11 72.5q0 47 15.5 91.5t43 79.5t66 57t84.5 24l17 95h37l-12 -98q49 -9 82 -42t45 -74l-39 -19l-20 24q-20 23 -37 37.5t-37 20.5l-40 -340q21 2 44 8t48 18l49 22l19 -30q-34 -28 -78 -47.5t-89 -22.5l-17 -97h-37zM162 192
q0 -53 25.5 -93.5t78.5 -51.5l40 341q-30 -3 -56 -18t-45.5 -40.5t-31 -60t-11.5 -77.5z" />
    <glyph glyph-name="Euro.otab" 
d="M520 72q-42 -34 -96 -57t-109 -23q-41 0 -75 14t-59.5 38.5t-42 59t-21.5 75.5h-68l3 28l63 11q0 11 1 22t3 22h-60l3 28l65 11q12 41 33 76.5t50.5 62t66 41.5t79.5 15q34 0 63.5 -10.5t53 -28.5t40 -42t23.5 -51l-42 -21l-23 27q-30 35 -56.5 53.5t-61.5 18.5
q-57 0 -100 -37t-62 -100h194l-5 -43h-199q-3 -20 -3 -40h197l-5 -43h-190q7 -58 43.5 -95t101.5 -37q27 0 57.5 8t62.5 22l57 25z" />
    <glyph glyph-name="florin.otab" 
d="M278 -84q-9 -78 -51.5 -115.5t-111.5 -37.5q-24 0 -50.5 6.5t-45.5 17.5l14 37q20 -5 39 -7.5t39 -2.5q54 0 78.5 22.5t31.5 82.5l25 217h-103l4 32l105 12l19 163q9 78 51.5 115.5t111.5 37.5q24 0 50.5 -6.5t45.5 -17.5l-14 -37q-20 5 -39 7.5t-39 2.5
q-54 0 -78.5 -22.5t-31.5 -82.5l-18 -159h150l-6 -45h-150z" />
    <glyph glyph-name="sterling.otab" 
d="M434 404q-31 18 -58 27.5t-58 9.5q-54 0 -85 -29t-31 -77q0 -22 2.5 -40.5t7.5 -34.5h188l-5 -44h-177q2 -14 4.5 -32.5t2.5 -32.5q0 -30 -19 -55t-53 -47h333l-6 -49h-403l4 28q1 6 2.5 10t8.5 10l21 19q16 14 26 24.5t16 19.5t8.5 18t2.5 20q0 6 -1 16t-2.5 20
t-2.5 18.5t-2 12.5h-72l3 30l63 11q-3 14 -6 34.5t-3 40.5q0 36 14 66.5t38 52t57 33.5t71 12q63 0 113.5 -29.5t82.5 -69.5l-26 -27z" />
    <glyph glyph-name="yen.otab" 
d="M316 92l-11 -92h-61l11 92h-141l5 43h141l5 38h-142l5 43h124l-150 272h56q8 0 12 -7l131 -247h1l187 247q3 4 5.5 5.5t7.5 1.5h56l-210 -272h125l-5 -43h-142l-5 -38h143l-5 -43h-143z" />
    <glyph glyph-name="numbersign.otab" 
d="M427 312l-39 -136h114l-5 -43h-121l-37 -133h-51l37 133h-128l-37 -133h-51l37 133h-84l5 43h91l39 136h-113l5 43h120l38 133h51l-38 -133h129l38 133h51l-38 -133h84l-5 -43h-92zM209 176h128l39 136h-128z" />
    <glyph glyph-name="percent.otab" horiz-adv-x="735" 
d="M173 0l332 488h56l-332 -488h-56zM277 363q0 37 -20.5 61t-54.5 24q-24 0 -41.5 -9.5t-29.5 -24t-17.5 -33t-5.5 -36.5q0 -37 20.5 -60.5t54.5 -23.5q24 0 41.5 9.5t29.5 24t17.5 32.5t5.5 36zM59 345q0 28 10.5 55.5t30 48.5t45.5 34t58 13q27 0 49.5 -10t39 -27.5
t25.5 -42t9 -52.5q0 -29 -10.5 -56t-30 -48t-46 -34t-57.5 -13q-27 0 -49.5 10t-39 27.5t-25.5 41.5t-9 53zM627 142q0 37 -20.5 61t-54.5 24q-24 0 -41.5 -9.5t-29.5 -24t-17.5 -33t-5.5 -36.5q0 -37 20.5 -60.5t54.5 -23.5q24 0 41.5 9.5t29.5 24t17.5 32.5t5.5 36z
M409 124q0 28 10.5 55.5t30 48.5t45.5 34t58 13q27 0 49.5 -10t39 -27.5t25.5 -42t9 -52.5q0 -29 -10.5 -56t-30 -48t-46 -34t-57.5 -13q-27 0 -49.5 10t-39 27.5t-25.5 41.5t-9 53z" />
    <glyph glyph-name="perthousand.otab" horiz-adv-x="1032" 
d="M173 0l332 488h56l-332 -488h-56zM277 363q0 37 -20.5 61t-54.5 24q-24 0 -41.5 -9.5t-29.5 -24t-17.5 -33t-5.5 -36.5q0 -37 20.5 -60.5t54.5 -23.5q24 0 41.5 9.5t29.5 24t17.5 32.5t5.5 36zM59 345q0 28 10.5 55.5t30 48.5t45.5 34t58 13q27 0 49.5 -10t39 -27.5
t25.5 -42t9 -52.5q0 -29 -10.5 -56t-30 -48t-46 -34t-57.5 -13q-27 0 -49.5 10t-39 27.5t-25.5 41.5t-9 53zM627 142q0 37 -20.5 61t-54.5 24q-24 0 -41.5 -9.5t-29.5 -24t-17.5 -33t-5.5 -36.5q0 -37 20.5 -60.5t54.5 -23.5q24 0 41.5 9.5t29.5 24t17.5 32.5t5.5 36z
M409 124q0 28 10.5 55.5t30 48.5t45.5 34t58 13q27 0 49.5 -10t39 -27.5t25.5 -42t9 -52.5q0 -29 -10.5 -56t-30 -48t-46 -34t-57.5 -13q-27 0 -49.5 10t-39 27.5t-25.5 41.5t-9 53zM924 142q0 37 -20.5 61t-54.5 24q-24 0 -41.5 -9.5t-29.5 -24t-17.5 -33t-5.5 -36.5
q0 -37 20.5 -60.5t54.5 -23.5q24 0 41.5 9.5t29.5 24t17.5 32.5t5.5 36zM706 124q0 28 10.5 55.5t30 48.5t45.5 34t58 13q27 0 49.5 -10t39 -27.5t25.5 -42t9 -52.5q0 -29 -10.5 -56t-30 -48t-46 -34t-57.5 -13q-27 0 -49.5 10t-39 27.5t-25.5 41.5t-9 53z" />
    <glyph glyph-name="zero.lprop" horiz-adv-x="579" 
d="M548 401q0 -75 -20.5 -148.5t-57.5 -132t-89 -94.5t-115 -36q-42 0 -79 18.5t-65.5 53t-45 85t-16.5 115.5q0 75 20.5 148.5t57.5 132t89 94.5t115 36q42 0 79 -18.5t65.5 -53t45 -85.5t16.5 -115zM483 399q0 47 -9.5 86.5t-27.5 68t-44.5 44.5t-60.5 16
q-55 0 -95.5 -33.5t-67.5 -85t-40 -113.5t-13 -118q0 -47 9.5 -86.5t27.5 -68t44.5 -44.5t60.5 -16q55 0 95.5 33.5t67.5 85t40 113.5t13 118z" />
    <glyph glyph-name="one.lprop" horiz-adv-x="477" 
d="M52 51h174l65 545q-19 -11 -45.5 -22.5t-54.5 -22.5l-78 -29l-17 38l198 93q11 5 19.5 7.5t20.5 2.5h26l-73 -612h152l-6 -51h-387z" />
    <glyph glyph-name="two.lprop" horiz-adv-x="502" 
d="M431 0h-407l4 37q1 11 11 21l215 212q29 28 57 58t49.5 60t35 60.5t13.5 61.5q0 53 -31 79t-85 26q-29 0 -61 -6t-72 -18l-65 -20l-15 39q59 30 114 46.5t109 16.5q36 0 67 -11t54.5 -31.5t36.5 -50.5t13 -67t-12.5 -70.5t-36 -67t-57.5 -69t-77 -76.5l-187 -176h334z
" />
    <glyph glyph-name="three.lprop" horiz-adv-x="533" 
d="M98 80q44 -17 76 -24.5t64 -7.5q36 0 68 11.5t56 32.5t37.5 51.5t13.5 68.5q0 47 -25 72q-30 30 -101 30h-58q-8 0 -9.5 3t-0.5 9l6 38h99q23 0 34 5.5t20 18.5q17 24 31 56.5t14 70.5q0 49 -33.5 74.5t-86.5 25.5q-29 0 -63 -6t-72 -16l-58 -15l-15 37q121 58 221 58
q35 0 66 -10t54 -29.5t36 -47t13 -61.5q0 -56 -22 -100t-62 -82q39 -19 57.5 -55.5t18.5 -78.5q0 -48 -19 -88t-51.5 -69.5t-75.5 -45.5t-91 -16q-65 0 -124.5 23t-107.5 57l22 37z" />
    <glyph glyph-name="four.lprop" horiz-adv-x="567" 
d="M412 651q7 8 11 10t14 2h49l-51 -435h101l-6 -52h-102l-21 -176h-60l21 176h-337l5 34q2 10 4 14t8 11zM375 228l42 358q-15 -20 -38 -48.5t-46 -54.5l-150 -172q-22 -26 -41.5 -47.5t-33.5 -35.5h267z" />
    <glyph glyph-name="five.lprop" horiz-adv-x="526" 
d="M102 331q-5 3 -5.5 6t0.5 10l37 316h353l-6 -54h-297l-13 -118q-9 -80 -18 -123q36 15 74.5 24t71.5 9q39 0 72 -12.5t57 -35.5t38 -56t14 -75q0 -48 -17 -90.5t-48.5 -74t-75 -49.5t-96.5 -18q-55 0 -110.5 20t-104.5 53l22 35l47 -17q24 -9 43.5 -15t36 -10t32.5 -6
t33 -2q38 0 70 12.5t55.5 35.5t36.5 55t13 70q0 64 -39 94.5t-100 30.5q-35 0 -73 -9.5t-69 -20.5q-4 -2 -7 -1.5t-8 4.5z" />
    <glyph glyph-name="six.lprop" horiz-adv-x="563" 
d="M166 361q47 24 88.5 37t84.5 13q35 0 67.5 -11.5t57.5 -33.5t40 -55.5t15 -76.5q0 -45 -17 -89t-48 -78.5t-74 -55.5t-94 -21q-50 0 -90 20t-68.5 56t-44 85.5t-15.5 107.5q0 73 21.5 147t63 133.5t101 96.5t136.5 37q34 0 69 -9t66 -24l-17 -39q-31 8 -62.5 12t-59.5 4
q-49 0 -91 -20.5t-74 -56.5t-53 -85.5t-29 -107.5zM151 306q-14 -8 -16.5 -18.5t-2.5 -35.5q0 -42 10 -79t29.5 -65.5t48.5 -45t67 -16.5q36 0 67 15.5t54 41.5t36 60t13 72q0 58 -36 89t-96 31q-40 0 -86 -13t-88 -36z" />
    <glyph glyph-name="seven.lprop" horiz-adv-x="470" 
d="M103 0q7 40 16 73.5t23.5 67t36 70t53.5 83.5l217 315h-386l7 54h449l-4 -31q-2 -11 -5 -18t-11 -20l-216 -325q-30 -45 -49.5 -79t-32 -64t-21 -59.5t-15.5 -66.5h-62z" />
    <glyph glyph-name="eight.lprop" horiz-adv-x="562" 
d="M280 -10q-50 0 -93 15t-74.5 41.5t-49.5 62.5t-18 78q0 33 12 62t32 54t45.5 45t52.5 34q-31 20 -49 50.5t-18 66.5q0 37 16.5 69t45 55.5t66.5 36.5t82 13q40 0 75.5 -12.5t62.5 -34.5t43 -52.5t16 -65.5q0 -28 -10 -53t-26.5 -47.5t-38 -42t-44.5 -35.5
q54 -28 85 -61.5t31 -80.5q0 -44 -20.5 -80.5t-54 -62.5t-77.5 -40.5t-92 -14.5zM106 188q0 -31 13.5 -57t37.5 -45t56 -30t69 -11t70 10.5t57.5 29t38.5 44t14 55.5q0 15 -5.5 29.5t-19.5 29.5t-37 30t-58 32l-97 46q-8 4 -13 3.5t-13 -5.5q-52 -30 -82.5 -69t-30.5 -92z
M469 504q0 27 -11.5 48t-30.5 36t-45 22.5t-54 7.5q-31 0 -58.5 -8t-48 -23t-32.5 -36t-12 -47q0 -38 31 -64t86 -52l59 -28q8 -4 12 -4t11 5q40 29 66.5 67t26.5 76z" />
    <glyph glyph-name="nine.lprop" horiz-adv-x="563" 
d="M428 301q-39 -22 -84 -35.5t-88 -13.5q-35 0 -67.5 13t-57.5 37.5t-40 59t-15 78.5q0 53 19.5 96t51 73.5t72 47t82.5 16.5q52 0 93.5 -19.5t70.5 -55t44.5 -85t15.5 -109.5q0 -75 -18 -149t-55 -133t-93 -95.5t-131 -36.5q-35 0 -73.5 10t-68.5 26l16 38q32 -8 68 -13
t60 -5q48 0 85.5 20t65.5 55.5t46.5 85t27.5 109.5zM443 358q14 7 16.5 17.5t2.5 37.5q0 42 -9 79.5t-29 65t-51 44t-75 16.5q-33 0 -62 -12t-51.5 -34.5t-35.5 -56t-13 -75.5q0 -62 36.5 -97t97.5 -35q42 0 86.5 14t86.5 36z" />
    <glyph glyph-name="dollar.lprop" horiz-adv-x="548" 
d="M447 609q-22 2 -44 3.5t-42 2.5l-29 -239q85 -41 121.5 -81t36.5 -98q0 -44 -15 -80t-42 -62.5t-64.5 -42.5t-82.5 -20v-1l-18 -95h-44l11 95q-24 1 -50.5 5.5t-53 12t-51.5 17t-46 20.5l17 36l55 -13q78 -19 136 -21l35 289l-22 11q-37 18 -65.5 35.5t-48 37.5t-29.5 43
t-10 52q0 36 15.5 65t44 49t68 31t87.5 12l18 93h44l-12 -96q37 -3 74.5 -11t65.5 -18l-9 -37zM430 194q0 39 -23.5 65t-82.5 55l-31 -264q28 4 53 14.5t44 28.5t29.5 43t10.5 58zM162 518q0 -37 29 -62.5t93 -56.5l26 217q-66 -2 -107 -24t-41 -74z" />
    <glyph glyph-name="cent.lprop" horiz-adv-x="510" 
d="M460 75q-38 -33 -89 -55.5t-105 -26.5l-19 -97h-42l12 99q-40 6 -71 25t-52.5 47.5t-32.5 65.5t-11 80q0 53 17 102.5t47 88.5t72 63.5t93 27.5l19 93h42l-12 -96q54 -8 89.5 -42t57.5 -85l-42 -21l-41 47q-19 22 -35 32.5t-36 16.5l-48 -393q26 2 54.5 10.5t58.5 22.5
l56 25zM114 215q0 -28 5.5 -54t18.5 -48t34 -38t53 -25l48 391q-34 -4 -63 -22.5t-50.5 -48t-33.5 -69t-12 -86.5z" />
    <glyph glyph-name="Euro.lprop" horiz-adv-x="583" 
d="M537 62q-48 -36 -102.5 -54t-102.5 -18q-50 0 -89 18.5t-66.5 52t-43 80.5t-16.5 104h-80l4 34l76 8q2 22 4 40t5 37h-75l4 34l79 8q12 46 35 93.5t56.5 86t78 63t99.5 24.5q32 0 60 -10.5t51 -28.5t40.5 -42t28.5 -51l-37 -21l-45 46q-27 28 -49 40.5t-52 12.5
q-41 0 -74 -19t-58.5 -49.5t-43.5 -68t-28 -73.5h206l-6 -45h-209q-6 -34 -9 -74h210l-6 -45h-204q2 -94 44.5 -147.5t122.5 -53.5q26 0 55.5 7t67.5 23l51 21z" />
    <glyph glyph-name="florin.lprop" horiz-adv-x="555" 
d="M253 -48q-5 -46 -18 -82t-37 -60q-23 -23 -56.5 -35t-71.5 -12q-27 0 -54 7t-47 15l11 37q22 -3 46 -5t38 -2q68 0 96 31q15 17 23.5 44t13.5 70l37 311h-110l3 32l112 14l20 167q5 46 18.5 82t37.5 60q23 23 56 35t71 12q27 0 54 -7t47 -15l-11 -37q-22 3 -46 5t-38 2
q-34 0 -57.5 -7t-38.5 -24t-23.5 -44t-13.5 -70l-20 -158h171l-4 -47h-171z" />
    <glyph glyph-name="sterling.lprop" horiz-adv-x="573" 
d="M517 52l-6 -52h-436l3 31q1 7 3 11t10 14l33 39q15 18 26 33t18 29.5t10.5 29.5t3.5 34q0 21 -3.5 41.5t-8.5 42.5h-93l4 34l80 10q-6 25 -11.5 55.5t-5.5 56.5q0 49 17 88.5t46 67t67.5 42t81.5 14.5q54 0 106.5 -24t92.5 -66l-26 -32l-49 26q-35 19 -65 28.5t-62 9.5
q-36 0 -64.5 -10.5t-48 -29.5t-29.5 -45.5t-10 -57.5q0 -33 5.5 -63.5t12.5 -58.5h213l-5 -45h-199q5 -22 8 -42t3 -43q0 -38 -16.5 -71t-55.5 -75l-21 -22h371z" />
    <glyph glyph-name="yen.lprop" horiz-adv-x="574" 
d="M253 255l-180 408h49q8 0 11 -2t6 -9l95 -216q10 -23 20 -47t19 -46.5t16.5 -41.5t11.5 -31h1q14 26 41.5 69.5t61.5 94.5l145 217q5 8 8.5 10t11.5 2h62l-284 -408h120l-5 -46h-138l-6 -47h138l-5 -46h-139l-13 -116h-60l13 116h-138l6 46h138l6 47h-139l5 46h122z" />
    <glyph glyph-name="numbersign.lprop" 
d="M140 191h-86l6 53h95l50 174h-123l6 53h133l55 192h59l-55 -192h132l55 192h59l-55 -192h86l-6 -53h-96l-50 -174h125l-6 -53h-134l-55 -191h-59l55 191h-132l-55 -191h-59zM214 244h132l50 174h-132z" />
    <glyph glyph-name="percent.lprop" horiz-adv-x="860" 
d="M354 512q0 48 -26 78t-70 30q-31 0 -53.5 -12t-37.5 -30.5t-22 -42t-7 -45.5q0 -48 26 -78t70 -30q31 0 53.5 12t37.5 30.5t22 41.5t7 46zM84 489q0 35 13 68t36 59t55.5 41.5t70.5 15.5q33 0 60.5 -12t47 -33.5t30.5 -51t11 -63.5q0 -35 -13 -68t-36.5 -59t-55.5 -41.5
t-70 -15.5q-33 0 -60.5 12t-47 33.5t-30.5 50.5t-11 64zM743 173q0 48 -26 78t-70 30q-31 0 -53.5 -12t-37.5 -30.5t-22 -42t-7 -45.5q0 -48 26 -78t70 -30q31 0 53.5 12t37.5 30.5t22 41.5t7 46zM473 150q0 35 13 68t36 59t55.5 41.5t70.5 15.5q33 0 60.5 -12t47 -33.5
t30.5 -51t11 -63.5q0 -35 -13 -68t-36.5 -59t-55.5 -41.5t-70 -15.5q-33 0 -60.5 12t-47 33.5t-30.5 50.5t-11 64zM214 0l394 663h60l-395 -663h-59z" />
    <glyph glyph-name="perthousand.lprop" horiz-adv-x="1220" 
d="M354 512q0 48 -26 78t-70 30q-31 0 -53.5 -12t-37.5 -30.5t-22 -42t-7 -45.5q0 -48 26 -78t70 -30q31 0 53.5 12t37.5 30.5t22 41.5t7 46zM84 489q0 35 13 68t36 59t55.5 41.5t70.5 15.5q33 0 60.5 -12t47 -33.5t30.5 -51t11 -63.5q0 -35 -13 -68t-36.5 -59t-55.5 -41.5
t-70 -15.5q-33 0 -60.5 12t-47 33.5t-30.5 50.5t-11 64zM743 173q0 48 -26 78t-70 30q-31 0 -53.5 -12t-37.5 -30.5t-22 -42t-7 -45.5q0 -48 26 -78t70 -30q31 0 53.5 12t37.5 30.5t22 41.5t7 46zM473 150q0 35 13 68t36 59t55.5 41.5t70.5 15.5q33 0 60.5 -12t47 -33.5
t30.5 -51t11 -63.5q0 -35 -13 -68t-36.5 -59t-55.5 -41.5t-70 -15.5q-33 0 -60.5 12t-47 33.5t-30.5 50.5t-11 64zM1103 173q0 48 -26 78t-70 30q-31 0 -53.5 -12t-37.5 -30.5t-22 -42t-7 -45.5q0 -48 26 -78t70 -30q31 0 53.5 12t37.5 30.5t22 41.5t7 46zM833 150
q0 35 13 68t36 59t55.5 41.5t70.5 15.5q33 0 60.5 -12t47 -33.5t30.5 -51t11 -63.5q0 -35 -13 -68t-36.5 -59t-55.5 -41.5t-70 -15.5q-33 0 -60.5 12t-47 33.5t-30.5 50.5t-11 64zM214 0l394 663h60l-395 -663h-59z" />
    <glyph glyph-name="zero.oprop" horiz-adv-x="552" 
d="M504 272q0 -60 -20 -111.5t-54 -89t-79.5 -58.5t-95.5 -21q-42 0 -79.5 16t-66 45.5t-45.5 71t-17 91.5q0 60 20 111t54.5 88.5t80 59t95.5 21.5q42 0 79.5 -16t66 -45.5t45 -71t16.5 -91.5zM440 266q0 34 -9 65.5t-27.5 55t-46 37.5t-64.5 14q-42 0 -76 -18.5
t-57.5 -48.5t-36 -69t-12.5 -80q0 -35 9 -66t27.5 -54.5t46 -37.5t64.5 -14q42 0 76 18.5t57.5 48.5t36 69t12.5 80z" />
    <glyph glyph-name="one.oprop" horiz-adv-x="453" 
d="M56 48h162l45 374h-1q-15 -8 -41.5 -19t-55.5 -21l-72 -24l-16 38l194 85q9 4 15 5.5t14 1.5h32l-52 -440h136l-6 -48h-360z" />
    <glyph glyph-name="two.oprop" horiz-adv-x="494" 
d="M80 433q59 32 113 47.5t97 15.5q33 0 62 -8.5t50.5 -25.5t33.5 -41.5t12 -56.5q0 -30 -9.5 -56t-30.5 -51.5t-54 -52.5t-80 -60l-140 -97q17 2 34 2.5t36 0.5h222l-6 -50h-378l4 28q2 8 3.5 11t6.5 7l213 161q33 25 55 45.5t35.5 38.5t19 35.5t5.5 36.5q0 36 -26.5 55.5
t-72.5 19.5q-44 0 -132 -25l-58 -16z" />
    <glyph glyph-name="three.oprop" horiz-adv-x="492" 
d="M43 -92q35 -14 73 -24.5t77 -10.5q35 0 67 11t56.5 32.5t39 53.5t14.5 73q0 40 -18 63q-28 35 -102 35h-75q-8 0 -9.5 2.5t-0.5 8.5l5 40h123q8 0 14.5 2.5t12.5 10.5q21 29 37.5 64.5t16.5 73.5q0 48 -30.5 71.5t-88.5 23.5q-25 0 -58.5 -6t-73.5 -17l-59 -16l-14 38
q58 29 112 44t109 15q75 0 120 -39t45 -102q0 -48 -22 -91.5t-59 -91.5q39 -17 59 -49.5t20 -76.5q0 -50 -18.5 -92t-50.5 -73t-75.5 -48t-94.5 -17q-62 0 -121.5 23t-104.5 58l21 33z" />
    <glyph glyph-name="four.oprop" horiz-adv-x="544" 
d="M394 480q5 5 8.5 6.5t9.5 1.5h49l-51 -434h96l-6 -49h-96l-18 -161h-60l18 161h-335l5 32q1 7 2.5 10.5t7.5 10.5zM350 54l43 355q-6 -8 -15 -19t-19 -23l-20 -24t-18 -21l-165 -190q-23 -27 -40.5 -45.5t-31.5 -32.5h266z" />
    <glyph glyph-name="five.oprop" horiz-adv-x="515" 
d="M80 156q-4 2 -5 4.5t0 10.5l38 317h351l-6 -50h-295l-15 -123q-4 -32 -9 -65t-10 -57q36 14 73 22.5t72 8.5q40 0 73.5 -13.5t57.5 -36.5t37.5 -54t13.5 -67q0 -55 -18.5 -99t-50 -74.5t-74.5 -47t-91 -16.5q-57 0 -113.5 19t-98.5 48l19 34l40 -13q51 -17 86.5 -24
t67.5 -7q35 0 66 11t54.5 33t37 54.5t13.5 76.5q0 55 -33.5 89t-99.5 34q-35 0 -71 -7t-72 -21q-5 -2 -8 -2t-10 4z" />
    <glyph glyph-name="six.oprop" horiz-adv-x="547" 
d="M487 599q-35 9 -63 13t-54 4q-51 0 -93 -19.5t-73.5 -55t-52 -84.5t-29.5 -108l25 13q45 23 87 37.5t84 14.5q40 0 73.5 -13.5t57.5 -37t37 -56.5t13 -72q0 -53 -18.5 -97.5t-50.5 -76.5t-74.5 -50.5t-90.5 -18.5q-49 0 -89 19t-68.5 52.5t-44 80t-15.5 102.5
q0 81 22 157.5t63 136t101 95.5t136 36q35 0 69 -9t64 -24zM134 307q-16 -9 -19.5 -22t-3.5 -38q0 -41 9.5 -77.5t28.5 -63.5t48 -43t67 -16q40 0 72 15t54.5 40t35 57.5t12.5 68.5q0 67 -36.5 98.5t-98.5 31.5q-45 0 -89 -15.5t-80 -35.5z" />
    <glyph glyph-name="seven.oprop" horiz-adv-x="483" 
d="M68 -177q7 45 16.5 80t23.5 68.5t35.5 69t52.5 80.5l218 316h-382l6 51h446l-4 -31q-2 -10 -5 -16.5t-15 -25.5l-209 -312q-31 -46 -51 -81t-33.5 -66.5t-22 -63t-14.5 -69.5h-62z" />
    <glyph glyph-name="eight.oprop" horiz-adv-x="543" 
d="M499 185q0 -42 -19 -77.5t-52 -61t-76.5 -40t-91.5 -14.5q-49 0 -91.5 14.5t-74 41t-50 62.5t-18.5 78q0 32 11.5 60.5t31 53.5t44.5 44.5t53 33.5q-30 23 -49.5 54t-19.5 69q0 37 18 68.5t47 54t66.5 35t76.5 12.5q42 0 77.5 -12.5t62 -34.5t41.5 -52t15 -65
q0 -28 -10 -52.5t-26.5 -46.5t-37.5 -40.5t-43 -34.5q54 -28 84.5 -65.5t30.5 -84.5zM438 181q0 16 -5 31.5t-18.5 31t-36 30.5t-58.5 32l-96 44q-8 4 -13.5 4t-13.5 -5q-51 -29 -80 -67t-29 -89q0 -36 14.5 -63t38.5 -45.5t55.5 -28t65.5 -9.5q37 0 69 10t56 28t37.5 42.5
t13.5 53.5zM328 362q14 -6 24 2q38 29 64 66t26 78q0 27 -12 47.5t-31.5 34.5t-44 21t-50.5 7q-28 0 -54.5 -7t-47.5 -21.5t-33.5 -35.5t-12.5 -48q0 -40 31 -68t83 -50z" />
    <glyph glyph-name="nine.oprop" horiz-adv-x="546" 
d="M71 -112q28 -8 60 -12.5t58 -4.5q98 0 155.5 70.5t76.5 197.5l-25 -13q-45 -23 -87 -37.5t-84 -14.5q-41 0 -74 14t-57 38.5t-37 58t-13 73.5q0 52 18.5 96t50.5 75.5t74.5 49t90.5 17.5q49 0 89 -19t68.5 -52.5t44 -80.5t15.5 -102q0 -81 -19.5 -157.5t-58 -136t-96 -96
t-133.5 -36.5q-33 0 -68 9t-65 24zM409 181q16 9 19.5 22t3.5 38q0 41 -9.5 77.5t-28.5 63.5t-48 43t-67 16q-40 0 -72 -14t-54.5 -38t-35 -56t-12.5 -68q0 -69 36.5 -102t98.5 -33q45 0 89 15.5t80 35.5z" />
    <glyph glyph-name="dollar.oprop" horiz-adv-x="482" 
d="M111 57q26 -6 50 -9t44 -4l24 193l-22 9q-56 23 -85.5 49t-29.5 71q0 32 15 56t39 40t54 24.5t60 9.5l18 103h37l-13 -105q31 -3 61.5 -10t56.5 -17l-12 -38l-35 5q-20 2 -38.5 4t-38.5 4l-19 -165l7 -3q56 -23 89 -52.5t33 -76.5q0 -33 -13 -60t-35 -46.5t-51.5 -31
t-63.5 -14.5l-18 -97h-37l11 97q-38 2 -79 13t-72 28l15 34zM249 46q45 6 72.5 29.5t27.5 60.5q0 26 -17.5 45.5t-61.5 38.5zM253 443q-20 -1 -39 -5.5t-34 -12.5t-24 -21.5t-9 -32.5q0 -28 22 -44t66 -34z" />
    <glyph glyph-name="cent.oprop" horiz-adv-x="472" 
d="M200 -6q-36 5 -64.5 21.5t-48.5 42t-31 59t-11 72.5q0 47 15.5 91.5t43 79.5t66 57t84.5 24l17 95h37l-12 -98q49 -9 82 -42t45 -74l-39 -19l-20 24q-20 23 -37 37.5t-37 20.5l-40 -340q21 2 44 8t48 18l49 22l19 -30q-34 -28 -78 -47.5t-89 -22.5l-17 -97h-37zM103 192
q0 -53 25.5 -93.5t78.5 -51.5l40 341q-30 -3 -56 -18t-45.5 -40.5t-31 -60t-11.5 -77.5z" />
    <glyph glyph-name="Euro.oprop" horiz-adv-x="572" 
d="M508 72q-42 -34 -96 -57t-109 -23q-41 0 -75 14t-59.5 38.5t-42 59t-21.5 75.5h-68l3 28l63 11q0 11 1 22t3 22h-60l3 28l65 11q12 41 33 76.5t50.5 62t66 41.5t79.5 15q34 0 63.5 -10.5t53 -28.5t40 -42t23.5 -51l-42 -21l-23 27q-30 35 -56.5 53.5t-61.5 18.5
q-57 0 -100 -37t-62 -100h194l-5 -43h-199q-3 -20 -3 -40h197l-5 -43h-190q7 -58 43.5 -95t101.5 -37q27 0 57.5 8t62.5 22l57 25z" />
    <glyph glyph-name="florin.oprop" horiz-adv-x="434" 
d="M186 -84q-9 -78 -51.5 -115.5t-111.5 -37.5q-24 0 -50.5 6.5t-45.5 17.5l14 37q20 -5 39 -7.5t39 -2.5q54 0 78.5 22.5t31.5 82.5l25 217h-103l4 32l105 12l19 163q9 78 51.5 115.5t111.5 37.5q24 0 50.5 -6.5t45.5 -17.5l-14 -37q-20 5 -39 7.5t-39 2.5
q-54 0 -78.5 -22.5t-31.5 -82.5l-18 -159h150l-6 -45h-150z" />
    <glyph glyph-name="sterling.oprop" horiz-adv-x="523" 
d="M405 404q-31 18 -58 27.5t-58 9.5q-54 0 -85 -29t-31 -77q0 -22 2.5 -40.5t7.5 -34.5h188l-5 -44h-177q2 -14 4.5 -32.5t2.5 -32.5q0 -30 -19 -55t-53 -47h333l-6 -49h-403l4 28q1 6 2.5 10t8.5 10l21 19q16 14 26 24.5t16 19.5t8.5 18t2.5 20q0 6 -1 16t-2.5 20
t-2.5 18.5t-2 12.5h-72l3 30l63 11q-3 14 -6 34.5t-3 40.5q0 36 14 66.5t38 52t57 33.5t71 12q63 0 113.5 -29.5t82.5 -69.5l-26 -27z" />
    <glyph glyph-name="yen.oprop" horiz-adv-x="523" 
d="M283 92l-11 -92h-61l11 92h-141l5 43h141l5 38h-142l5 43h124l-150 272h56q8 0 12 -7l131 -247h1l187 247q3 4 5.5 5.5t7.5 1.5h56l-210 -272h125l-5 -43h-142l-5 -38h143l-5 -43h-143z" />
    <glyph glyph-name="numbersign.oprop" horiz-adv-x="580" 
d="M426 312l-39 -136h114l-5 -43h-121l-37 -133h-51l37 133h-128l-37 -133h-51l37 133h-84l5 43h91l39 136h-113l5 43h120l38 133h51l-38 -133h129l38 133h51l-38 -133h84l-5 -43h-92zM208 176h128l39 136h-128z" />
    <glyph glyph-name="percent.oprop" horiz-adv-x="735" 
d="M173 0l332 488h56l-332 -488h-56zM277 363q0 37 -20.5 61t-54.5 24q-24 0 -41.5 -9.5t-29.5 -24t-17.5 -33t-5.5 -36.5q0 -37 20.5 -60.5t54.5 -23.5q24 0 41.5 9.5t29.5 24t17.5 32.5t5.5 36zM59 345q0 28 10.5 55.5t30 48.5t45.5 34t58 13q27 0 49.5 -10t39 -27.5
t25.5 -42t9 -52.5q0 -29 -10.5 -56t-30 -48t-46 -34t-57.5 -13q-27 0 -49.5 10t-39 27.5t-25.5 41.5t-9 53zM627 142q0 37 -20.5 61t-54.5 24q-24 0 -41.5 -9.5t-29.5 -24t-17.5 -33t-5.5 -36.5q0 -37 20.5 -60.5t54.5 -23.5q24 0 41.5 9.5t29.5 24t17.5 32.5t5.5 36z
M409 124q0 28 10.5 55.5t30 48.5t45.5 34t58 13q27 0 49.5 -10t39 -27.5t25.5 -42t9 -52.5q0 -29 -10.5 -56t-30 -48t-46 -34t-57.5 -13q-27 0 -49.5 10t-39 27.5t-25.5 41.5t-9 53z" />
    <glyph glyph-name="perthousand.oprop" horiz-adv-x="1032" 
d="M173 0l332 488h56l-332 -488h-56zM277 363q0 37 -20.5 61t-54.5 24q-24 0 -41.5 -9.5t-29.5 -24t-17.5 -33t-5.5 -36.5q0 -37 20.5 -60.5t54.5 -23.5q24 0 41.5 9.5t29.5 24t17.5 32.5t5.5 36zM59 345q0 28 10.5 55.5t30 48.5t45.5 34t58 13q27 0 49.5 -10t39 -27.5
t25.5 -42t9 -52.5q0 -29 -10.5 -56t-30 -48t-46 -34t-57.5 -13q-27 0 -49.5 10t-39 27.5t-25.5 41.5t-9 53zM627 142q0 37 -20.5 61t-54.5 24q-24 0 -41.5 -9.5t-29.5 -24t-17.5 -33t-5.5 -36.5q0 -37 20.5 -60.5t54.5 -23.5q24 0 41.5 9.5t29.5 24t17.5 32.5t5.5 36z
M409 124q0 28 10.5 55.5t30 48.5t45.5 34t58 13q27 0 49.5 -10t39 -27.5t25.5 -42t9 -52.5q0 -29 -10.5 -56t-30 -48t-46 -34t-57.5 -13q-27 0 -49.5 10t-39 27.5t-25.5 41.5t-9 53zM924 142q0 37 -20.5 61t-54.5 24q-24 0 -41.5 -9.5t-29.5 -24t-17.5 -33t-5.5 -36.5
q0 -37 20.5 -60.5t54.5 -23.5q24 0 41.5 9.5t29.5 24t17.5 32.5t5.5 36zM706 124q0 28 10.5 55.5t30 48.5t45.5 34t58 13q27 0 49.5 -10t39 -27.5t25.5 -42t9 -52.5q0 -29 -10.5 -56t-30 -48t-46 -34t-57.5 -13q-27 0 -49.5 10t-39 27.5t-25.5 41.5t-9 53z" />
    <glyph glyph-name="fraction" unicode="&#x2044;" horiz-adv-x="337" 
d="M-46 0l394 663h60l-395 -663h-59z" />
    <glyph glyph-name="onesuperior" unicode="&#xb9;" horiz-adv-x="391" 
d="M114 378h80l28 231q-5 -4 -21.5 -11t-33.5 -12l-29 -9l-13 31l109 50q11 5 22 5h23l-34 -285h71l-5 -42h-202z" />
    <glyph glyph-name="twosuperior" unicode="&#xb2;" horiz-adv-x="387" 
d="M189 460q19 18 35.5 33t29 29.5t19.5 29.5t7 32q0 22 -16 33t-42 11q-27 0 -74 -14l-23 -7l-13 31q63 35 118 35q45 0 72.5 -24.5t27.5 -62.5q0 -22 -7.5 -40t-20 -34.5t-30.5 -33t-39 -35.5l-73 -64h158l-5 -43h-223l3 26q1 8 3.5 12t7.5 9z" />
    <glyph glyph-name="threesuperior" unicode="&#xb3;" horiz-adv-x="385" 
d="M137 390q19 -6 36 -9.5t33 -3.5q32 0 53 16t21 45q0 23 -14 33t-47 10h-25q-8 0 -8 7l4 32h58q8 0 11.5 1.5t8.5 7.5q8 11 14 24.5t6 24.5q0 22 -12 35t-43 13t-65 -9l-32 -8l-12 32q26 13 56 22.5t58 9.5q23 0 41.5 -7t31.5 -19q25 -23 25 -61q0 -24 -12.5 -45
t-32.5 -38q20 -11 30 -27.5t10 -35.5q0 -26 -10 -46t-26.5 -34t-38 -21.5t-45.5 -7.5q-33 0 -69 12.5t-62 30.5l17 29z" />
    <glyph glyph-name="onehalf" unicode="&#xbd;" horiz-adv-x="825" 
d="M201 0l394 663h60l-395 -663h-59zM110 378h80l28 231q-5 -4 -21.5 -11t-33.5 -12l-29 -9l-13 31l109 50q11 5 22 5h23l-34 -285h71l-5 -42h-202zM604 124q19 18 35.5 33t29 29.5t19.5 29.5t7 32q0 22 -16 33t-42 11q-27 0 -74 -14l-23 -7l-13 31q63 35 118 35
q45 0 72.5 -24.5t27.5 -62.5q0 -22 -7.5 -40t-20 -34.5t-30.5 -33t-39 -35.5l-73 -64h158l-5 -43h-223l3 26q1 8 3.5 12t7.5 9z" />
    <glyph glyph-name="onequarter" unicode="&#xbc;" horiz-adv-x="826" 
d="M457 100q1 8 3 13.5t9 13.5l165 189q6 7 9 9t9 2h58l-24 -204h52l-5 -41h-52l-10 -82h-51l10 82h-175zM654 281q-6 -9 -17 -23t-23 -28l-53 -60q-14 -16 -25 -28t-18 -19h117zM205 0l394 663h60l-395 -663h-59zM112 378h80l28 231q-5 -4 -21.5 -11t-33.5 -12l-29 -9
l-13 31l109 50q11 5 22 5h23l-34 -285h71l-5 -42h-202z" />
    <glyph glyph-name="threequarters" unicode="&#xbe;" horiz-adv-x="825" 
d="M459 100q1 8 3 13.5t9 13.5l165 189q6 7 9 9t9 2h58l-24 -204h52l-5 -41h-52l-10 -82h-51l10 82h-175zM656 281q-6 -9 -17 -23t-23 -28l-53 -60q-14 -16 -25 -28t-18 -19h117zM208 0l394 663h60l-395 -663h-59zM143 390q19 -6 36 -9.5t33 -3.5q32 0 53 16t21 45
q0 23 -14 33t-47 10h-25q-8 0 -8 7l4 32h58q8 0 11.5 1.5t8.5 7.5q8 11 14 24.5t6 24.5q0 22 -12 35t-43 13t-65 -9l-32 -8l-12 32q26 13 56 22.5t58 9.5q23 0 41.5 -7t31.5 -19q25 -23 25 -61q0 -24 -12.5 -45t-32.5 -38q20 -11 30 -27.5t10 -35.5q0 -26 -10 -46t-26.5 -34
t-38 -21.5t-45.5 -7.5q-33 0 -69 12.5t-62 30.5l17 29z" />
    <glyph glyph-name="grave" unicode="`" horiz-adv-x="374" 
d="M120 655l37 48q5 7 11 2l165 -139l-23 -28z" />
    <glyph glyph-name="acute" unicode="&#xb4;" horiz-adv-x="374" 
d="M126 538l-17 28l197 139q7 4 11 -2l27 -48z" />
    <glyph glyph-name="dieresis" unicode="&#xa8;" horiz-adv-x="374" 
d="M111 652h60q10 0 12.5 -2.5t1.5 -10.5l-8 -69h-76zM277 652h60q10 0 12.5 -2.5t1.5 -10.5l-8 -69h-76z" />
    <glyph glyph-name="circumflex" unicode="&#x2c6;" horiz-adv-x="374" 
d="M375 566l-27 -23l-110 104h-3l-136 -104l-21 23l135 129q6 5 10 7t12 2h15q9 0 12 -2t8 -7z" />
    <glyph glyph-name="tilde" unicode="&#x2dc;" horiz-adv-x="374" 
d="M285 570q-17 0 -33 6.5t-31.5 15t-30.5 15t-30 6.5q-14 0 -30 -9.5t-30 -33.5l-30 10q16 41 41 64t57 23q16 0 32.5 -7t32 -15t30.5 -15t30 -7q14 0 30 10t30 34l30 -10q-16 -41 -41 -64t-57 -23z" />
    <glyph glyph-name="macron" unicode="&#xaf;" horiz-adv-x="374" 
d="M85 579l6 50h278l-6 -50h-278z" />
    <glyph glyph-name="breve" unicode="&#x2d8;" horiz-adv-x="374" 
d="M212 552q-52 0 -87 33.5t-40 95.5l36 6q10 -38 34.5 -59t62.5 -21t68.5 21t48.5 59l34 -6q-19 -62 -61.5 -95.5t-95.5 -33.5z" />
    <glyph glyph-name="dotaccent" unicode="&#x2d9;" horiz-adv-x="374" 
d="M191 652h67q9 0 12 -2.5t2 -10.5l-9 -72h-82z" />
    <glyph glyph-name="ring" unicode="&#x2da;" horiz-adv-x="374" 
d="M326 656q0 -21 -8 -40t-22 -33t-33 -22.5t-40 -8.5q-43 0 -69 28t-26 66q0 21 8 40t22 33t33 22.5t40 8.5q43 0 69 -28t26 -66zM283 654q0 20 -13.5 37.5t-39.5 17.5q-24 0 -41.5 -16t-17.5 -45q0 -20 13.5 -37.5t39.5 -17.5q24 0 41.5 16t17.5 45z" />
    <glyph glyph-name="cedilla" unicode="&#xb8;" horiz-adv-x="374" 
d="M191 16q-8 -11 -16.5 -25t-8.5 -24q0 -11 15.5 -17t33.5 -14.5t33.5 -22t15.5 -37.5q0 -22 -14.5 -38.5t-38 -27.5t-53.5 -17.5t-62 -7.5l-7 35l68 16q24 6 37 13t13 18q0 12 -15 19t-33 14.5t-33 17t-15 25.5q0 18 17 40.5t38 41.5z" />
    <glyph glyph-name="hungarumlaut" unicode="&#x2dd;" horiz-adv-x="374" 
d="M82 569l-21 23l145 153q6 7 12 1l31 -38zM246 569l-21 23l144 153q6 7 12 1l32 -38z" />
    <glyph glyph-name="ogonek" unicode="&#x2db;" horiz-adv-x="374" 
d="M210 9q-42 -26 -68 -57t-26 -58q0 -36 50 -36q11 0 29.5 3t30.5 6l6 -31q-15 -11 -38.5 -17.5t-44.5 -6.5q-39 0 -63.5 23t-24.5 54q0 22 11 42t29 37t40 31t45 24l24 -14v0z" />
    <glyph glyph-name="caron" unicode="&#x2c7;" horiz-adv-x="374" 
d="M249 552q-6 -6 -10 -7.5t-13 -1.5h-14q-8 0 -11.5 1.5t-8.5 7.5l-104 129l27 23l110 -104h3l136 104l21 -23z" />
    <glyph glyph-name="commaaccent" unicode="&#x326;" horiz-adv-x="374" 
d="M77 -250l55 192h52q13 0 13 -11q0 -7 -1 -14t-4.5 -16t-9.5 -21t-16 -29l-61 -107z" />
    <glyph glyph-name="grave.cap" horiz-adv-x="374" 
d="M120 841l37 48q5 7 11 2l165 -139l-23 -28z" />
    <glyph glyph-name="acute.cap" horiz-adv-x="374" 
d="M146 724l-17 28l197 139q7 4 11 -2l27 -48z" />
    <glyph glyph-name="dieresis.cap" horiz-adv-x="374" 
d="M131 832h60q10 0 12.5 -2.5t1.5 -10.5l-8 -69h-76zM297 832h60q10 0 12.5 -2.5t1.5 -10.5l-8 -69h-76z" />
    <glyph glyph-name="circumflex.cap" horiz-adv-x="374" 
d="M395 736l-27 -23l-110 104h-3l-136 -104l-21 23l135 129q6 5 10 7t12 2h15q9 0 12 -2t8 -7z" />
    <glyph glyph-name="tilde.cap" horiz-adv-x="374" 
d="M305 740q-17 0 -33 6.5t-31.5 15t-30.5 15t-30 6.5q-14 0 -30 -9.5t-30 -33.5l-30 10q16 41 41 64t57 23q16 0 32.5 -7t32 -15t30.5 -15t30 -7q14 0 30 10t30 34l30 -10q-16 -41 -41 -64t-57 -23z" />
    <glyph glyph-name="macron.cap" horiz-adv-x="374" 
d="M105 751l6 50h278l-6 -50h-278z" />
    <glyph glyph-name="breve.cap" horiz-adv-x="374" 
d="M232 722q-52 0 -87 33.5t-40 95.5l36 6q10 -38 34.5 -59t62.5 -21t68.5 21t48.5 59l34 -6q-19 -62 -61.5 -95.5t-95.5 -33.5z" />
    <glyph glyph-name="dotaccent.cap" horiz-adv-x="374" 
d="M211 822h67q9 0 12 -2.5t2 -10.5l-9 -72h-82z" />
    <glyph glyph-name="ring.cap" horiz-adv-x="374" 
d="M346 836q0 -21 -8 -40t-22 -33t-33 -22.5t-40 -8.5q-43 0 -69 28t-26 66q0 21 8 40t22 33t33 22.5t40 8.5q43 0 69 -28t26 -66zM303 834q0 20 -13.5 37.5t-39.5 17.5q-24 0 -41.5 -16t-17.5 -45q0 -20 13.5 -37.5t39.5 -17.5q24 0 41.5 16t17.5 45z" />
    <glyph glyph-name="hungarumlaut.cap" horiz-adv-x="374" 
d="M122 739l-21 23l145 153q6 7 12 1l31 -38zM286 739l-21 23l144 153q6 7 12 1l32 -38z" />
    <glyph glyph-name="caron.cap" horiz-adv-x="374" 
d="M283 732q-6 -6 -10 -7.5t-13 -1.5h-14q-8 0 -11.5 1.5t-8.5 7.5l-104 129l27 23l110 -104h3l136 104l21 -23z" />
    <glyph glyph-name="arrowleft.cap" horiz-adv-x="773" 
d="M262 545l29 -29l-145 -158h558v-52h-559l146 -161l-29 -29l-194 193v35q0 6 1 8.5t6 7.5z" />
    <glyph glyph-name="arrowup.cap" horiz-adv-x="773" 
d="M601 454l-29 -30l-156 146v-558h-57v558l-158 -146l-29 29l193 195h32q7 0 9.5 -1t6.5 -5z" />
    <glyph glyph-name="arrowright.cap" horiz-adv-x="773" 
d="M510 119l-29 29l145 158h-558v52h559l-146 161l29 29l194 -193v-35q0 -6 -1 -8.5t-6 -7.5z" />
    <glyph glyph-name="arrowdown.cap" horiz-adv-x="773" 
d="M172 206l29 29l156 -145v558h56v-558l159 145l29 -29l-193 -194h-33q-5 0 -8 0.5t-8 5.5z" />
    <glyph glyph-name="uni2196.cap" horiz-adv-x="773" 
d="M448 570v-42l-213 -9l393 -393l-39 -39l-395 394l-9 -216h-41v274l22 24q5 5 7.5 6t7.5 1h267z" />
    <glyph glyph-name="uni2197.cap" horiz-adv-x="773" 
d="M628 265h-42l-8 215l-394 -394l-40 39l394 393l-214 10v42h273l24 -23q4 -5 5.5 -7t1.5 -7v-268z" />
    <glyph glyph-name="uni2198.cap" horiz-adv-x="773" 
d="M324 87v42l214 9l-394 394l40 39l394 -394l9 214h41v-273l-22 -24q-5 -4 -7.5 -5.5t-7.5 -1.5h-267z" />
    <glyph glyph-name="uni2199.cap" horiz-adv-x="773" 
d="M144 390h42l8 -214l395 394l39 -39l-394 -394l214 -10v-41h-273l-24 23q-4 4 -5.5 6.5t-1.5 7.5v267z" />
    <glyph glyph-name="periodcentered.cap" horiz-adv-x="186" 
d="M74 371h61q9 0 11.5 -2.5t1.5 -10.5l-8 -67h-75z" />
    <glyph glyph-name="bullet.cap" horiz-adv-x="328" 
d="M254 241h-175l21 179h155q13 0 15.5 -4.5t1.5 -14.5z" />
    <glyph glyph-name="at.cap" horiz-adv-x="722" 
d="M515 492l-26 -210q-3 -26 -3 -35q0 -15 9.5 -24.5t32.5 -9.5q28 0 50.5 15t38.5 41t24 59.5t8 71.5q0 53 -19 94t-51.5 69t-77 42.5t-95.5 14.5q-67 0 -123.5 -25.5t-97.5 -69.5t-64 -103.5t-23 -128.5q0 -58 18.5 -104t52 -78.5t81 -50t105.5 -17.5q41 0 84.5 11
t94.5 33l77 33l17 -25q-25 -21 -58 -40t-71 -33.5t-79 -23t-81 -8.5q-63 0 -118 22.5t-96 62.5t-64.5 95t-23.5 120q0 70 26 138.5t75 123t118 88t155 33.5q63 0 116.5 -21t92.5 -57.5t61 -86t22 -105.5q0 -45 -13.5 -87.5t-37.5 -75.5t-57.5 -53t-73.5 -20q-27 0 -47.5 11
t-31.5 26l-17 -10q-26 -15 -47 -22.5t-43 -7.5q-26 0 -47 11t-37 30.5t-24.5 46t-8.5 56.5q0 41 13.5 76.5t35.5 61t50.5 40t58.5 14.5q20 0 39 -8t42 -25l9 -8l15 37zM455 410q1 7 0 10t-8 7q-14 8 -31.5 15t-37.5 7q-45 0 -75 -39t-30 -102q0 -45 19.5 -69t54.5 -24
q16 0 36 5.5t43 19.5q6 4 7.5 6.5t2.5 7.5z" />
    <glyph glyph-name="parenleft.cap" horiz-adv-x="292" 
d="M384 767q-51 -51 -94 -109.5t-74 -122.5t-48 -132.5t-17 -138.5q0 -45 7.5 -92.5t23.5 -95t41 -93t59 -86.5l-37 -25q-78 83 -117.5 178.5t-39.5 205.5q0 81 19.5 155.5t54.5 142t83.5 127.5t107.5 111z" />
    <glyph glyph-name="parenright.cap" horiz-adv-x="292" 
d="M-46 -103q51 51 94 109.5t74 122.5t48 132.5t17 138.5q0 45 -7.5 92.5t-23.5 95t-41 93t-59 86.5l37 25q78 -83 117.5 -178.5t39.5 -205.5q0 -81 -19.5 -155.5t-54.5 -142t-83.5 -127.5t-107.5 -111z" />
    <glyph glyph-name="bracketleft.cap" horiz-adv-x="272" 
d="M159 778h194l-7 -54h-131l-93 -784h132l-7 -54h-194z" />
    <glyph glyph-name="bracketright.cap" horiz-adv-x="271" 
d="M146 -114h-194l7 54h131l93 784h-132l7 54h194z" />
    <glyph glyph-name="braceleft.cap" horiz-adv-x="305" 
d="M83 351q31 6 54 16t37 25.5t21 39t7 58.5q0 18 -1 40t-2.5 44.5t-2.5 44.5t-1 40q0 61 29.5 94t86.5 33q22 0 45 -4t39 -9l-3 -30l-76 -9q-19 -2 -31 -7t-19 -14.5t-9.5 -24t-2.5 -35.5q0 -16 1 -38t2 -45t2 -44.5t1 -35.5q0 -57 -24.5 -96.5t-82.5 -62.5
q36 -15 56 -39.5t20 -63.5q0 -23 -5.5 -49t-17.5 -67l-17 -63q-11 -40 -14.5 -56.5t-3.5 -27.5q0 -17 9 -24.5t30 -10.5l85 -11l-3 -30q-17 -5 -41.5 -9t-46.5 -4q-46 0 -68 25.5t-22 60.5q0 15 4.5 37t16.5 64l19 70q8 27 13 50t5 44q0 38 -21.5 55.5t-72.5 28.5z" />
    <glyph glyph-name="braceright.cap" horiz-adv-x="306" 
d="M258 311q-32 -6 -54.5 -16t-36.5 -25.5t-21 -39.5t-7 -58q0 -18 1 -40t2.5 -44.5t2.5 -44.5t1 -40q0 -61 -29.5 -94t-86.5 -33q-22 0 -45 4t-39 9l3 30l76 9q37 4 49.5 21.5t12.5 59.5q0 16 -1 38t-2 45t-2 44.5t-1 35.5q0 57 24.5 96.5t82.5 62.5q-36 15 -56 39.5
t-20 63.5q0 23 5.5 49t17.5 67l17 63q11 40 14.5 56.5t3.5 27.5q0 17 -9 24.5t-30 10.5l-85 11l3 30q17 5 41.5 9t46.5 4q46 0 68 -25.5t22 -60.5q0 -15 -4.5 -37t-16.5 -64l-19 -70q-8 -27 -13.5 -50t-5.5 -44q0 -38 22 -55.5t73 -28.5z" />
    <glyph glyph-name="questiondown.cap" horiz-adv-x="459" 
d="M308.981 494.97l2 -39.9971q0.999023 -14 1.49902 -27.999t0.5 -18.999q0 -22.998 -5.49902 -33.9971q-5.5 -11 -28.498 -22.999l-33.998 -17.999q-38.998 -20.999 -68.9961 -39.4971q-29.998 -18.499 -49.9971 -38.998t-30.498 -44.4971
q-10.499 -23.999 -10.499 -54.9971q0 -50.9961 35.4971 -78.9951q35.498 -27.998 93.4951 -27.998q29.998 0 62.9961 7.5q32.998 7.49902 68.9951 21.498l57.9971 21.999l16.999 -31.998q-50.9971 -35.998 -108.494 -56.4971q-57.4961 -20.498 -105.493 -20.498
q-38.9971 0 -72.4951 11.499t-57.9971 32.998q-24.498 21.498 -38.9971 51.4971q-14.499 29.998 -14.499 65.9951q0 36.998 12.999 67.4961t35.498 55.9971q22.498 25.498 53.9961 45.9971t67.4961 38.498l59.9961 28.998l24.999 105.993h30.998zM341.979 584.964h-58.9971
q-8.99902 0 -11.999 2.5t-2 10.5l8 64.9961h73.9951z" />
    <glyph glyph-name="exclamdown.cap" horiz-adv-x="221" 
d="M110.993 0h-61.9961l28.998 239.985q4 31.998 8.5 63.4961q4.49902 31.498 12.499 67.4961l24.998 123.992h29.998l-3.99902 -125.992q-1 -33.998 -3.5 -65.4961t-6.5 -63.4961zM186.988 584.964h-58.9961q-8.99902 0 -11.999 2.5t-2 10.5l7.99902 64.9961h73.9961z" />
    <glyph glyph-name="guillemotleft.cap" horiz-adv-x="541" 
d="M233 143l-166 158q-6 6 -7.5 9.5t-0.5 9.5l5 37l214 166l24 -26l-180 -164l141 -164zM456 143l-166 158q-6 6 -7.5 9.5t-0.5 9.5l5 37l214 166l24 -26l-180 -164l141 -164z" />
    <glyph glyph-name="guillemotright.cap" horiz-adv-x="542" 
d="M338 523l166 -158q6 -6 7.5 -9.5t0.5 -9.5l-5 -37l-214 -166l-24 26l180 164l-141 164zM115 523l166 -158q6 -6 7.5 -9.5t0.5 -9.5l-5 -37l-214 -166l-24 26l180 164l-141 164z" />
    <glyph glyph-name="guilsinglleft.cap" horiz-adv-x="314" 
d="M233 143l-166 158q-6 6 -7.5 9.5t-0.5 9.5l5 37l214 166l24 -26l-180 -164l141 -164z" />
    <glyph glyph-name="guilsinglright.cap" horiz-adv-x="315" 
d="M111 523l166 -158q6 -6 7.5 -9.5t0.5 -9.5l-5 -37l-214 -166l-24 26l180 164l-141 164z" />
    <glyph glyph-name="hyphen.cap" horiz-adv-x="388" 
d="M63 307l7 50h276l-7 -50h-276z" />
    <glyph glyph-name="uni00AD.cap" horiz-adv-x="388" 
d="M63 307l7 50h276l-7 -50h-276z" />
    <glyph glyph-name="endash.cap" horiz-adv-x="592" 
d="M63 307l7 50h480l-7 -50h-480z" />
    <glyph glyph-name="emdash.cap" horiz-adv-x="1072" 
d="M63 307l7 50h960l-7 -50h-960z" />
    <glyph glyph-name="Agrave" unicode="&#xc0;" horiz-adv-x="652" 
d="M544 0q-7 0 -9 2t-4 7l-46 161h-331l-81 -161q-3 -6 -5.5 -7.5t-10.5 -1.5h-56l341 663h53q7 0 8.5 -2t3.5 -7l193 -654h-56zM470 222l-50 171q-17 59 -30.5 109.5t-23.5 92.5h-1q-9 -19 -20 -43t-24 -50.5l-26 -53t-25 -50.5l-88 -176h288zM277 841l37 48q5 7 11 2
l165 -139l-23 -28z" />
    <glyph glyph-name="Aacute" unicode="&#xc1;" horiz-adv-x="652" 
d="M544 0q-7 0 -9 2t-4 7l-46 161h-331l-81 -161q-3 -6 -5.5 -7.5t-10.5 -1.5h-56l341 663h53q7 0 8.5 -2t3.5 -7l193 -654h-56zM470 222l-50 171q-17 59 -30.5 109.5t-23.5 92.5h-1q-9 -19 -20 -43t-24 -50.5l-26 -53t-25 -50.5l-88 -176h288zM294 724l-17 28l197 139
q7 4 11 -2l27 -48z" />
    <glyph glyph-name="Acircumflex" unicode="&#xc2;" horiz-adv-x="652" 
d="M544 0q-7 0 -9 2t-4 7l-46 161h-331l-81 -161q-3 -6 -5.5 -7.5t-10.5 -1.5h-56l341 663h53q7 0 8.5 -2t3.5 -7l193 -654h-56zM470 222l-50 171q-17 59 -30.5 109.5t-23.5 92.5h-1q-9 -19 -20 -43t-24 -50.5l-26 -53t-25 -50.5l-88 -176h288zM528 736l-27 -23l-110 104h-3
l-136 -104l-21 23l135 129q6 5 10 7t12 2h15q9 0 12 -2t8 -7z" />
    <glyph glyph-name="Atilde" unicode="&#xc3;" horiz-adv-x="652" 
d="M544 0q-7 0 -9 2t-4 7l-46 161h-331l-81 -161q-3 -6 -5.5 -7.5t-10.5 -1.5h-56l341 663h53q7 0 8.5 -2t3.5 -7l193 -654h-56zM470 222l-50 171q-17 59 -30.5 109.5t-23.5 92.5h-1q-9 -19 -20 -43t-24 -50.5l-26 -53t-25 -50.5l-88 -176h288zM447 740q-17 0 -33 6.5
t-31.5 15t-30.5 15t-30 6.5q-14 0 -30 -9.5t-30 -33.5l-30 10q16 41 41 64t57 23q16 0 32.5 -7t32 -15t30.5 -15t30 -7q14 0 30 10t30 34l30 -10q-16 -41 -41 -64t-57 -23z" />
    <glyph glyph-name="Adieresis" unicode="&#xc4;" horiz-adv-x="652" 
d="M544 0q-7 0 -9 2t-4 7l-46 161h-331l-81 -161q-3 -6 -5.5 -7.5t-10.5 -1.5h-56l341 663h53q7 0 8.5 -2t3.5 -7l193 -654h-56zM470 222l-50 171q-17 59 -30.5 109.5t-23.5 92.5h-1q-9 -19 -20 -43t-24 -50.5l-26 -53t-25 -50.5l-88 -176h288zM270 832h60q10 0 12.5 -2.5
t1.5 -10.5l-8 -69h-76zM436 832h60q10 0 12.5 -2.5t1.5 -10.5l-8 -69h-76z" />
    <glyph glyph-name="Amacron" unicode="&#x100;" horiz-adv-x="652" 
d="M544 0q-7 0 -9 2t-4 7l-46 161h-331l-81 -161q-3 -6 -5.5 -7.5t-10.5 -1.5h-56l341 663h53q7 0 8.5 -2t3.5 -7l193 -654h-56zM470 222l-50 171q-17 59 -30.5 109.5t-23.5 92.5h-1q-9 -19 -20 -43t-24 -50.5l-26 -53t-25 -50.5l-88 -176h288zM241 751l6 50h278l-6 -50
h-278z" />
    <glyph glyph-name="Abreve" unicode="&#x102;" horiz-adv-x="652" 
d="M544 0q-7 0 -9 2t-4 7l-46 161h-331l-81 -161q-3 -6 -5.5 -7.5t-10.5 -1.5h-56l341 663h53q7 0 8.5 -2t3.5 -7l193 -654h-56zM470 222l-50 171q-17 59 -30.5 109.5t-23.5 92.5h-1q-9 -19 -20 -43t-24 -50.5l-26 -53t-25 -50.5l-88 -176h288zM383 722q-52 0 -87 33.5
t-40 95.5l36 6q10 -38 34.5 -59t62.5 -21t68.5 21t48.5 59l34 -6q-19 -62 -61.5 -95.5t-95.5 -33.5z" />
    <glyph glyph-name="Acaron" unicode="&#x1cd;" horiz-adv-x="652" 
d="M544 0q-7 0 -9 2t-4 7l-46 161h-331l-81 -161q-3 -6 -5.5 -7.5t-10.5 -1.5h-56l341 663h53q7 0 8.5 -2t3.5 -7l193 -654h-56zM470 222l-50 171q-17 59 -30.5 109.5t-23.5 92.5h-1q-9 -19 -20 -43t-24 -50.5l-26 -53t-25 -50.5l-88 -176h288zM408 732q-6 -6 -10 -7.5
t-13 -1.5h-14q-8 0 -11.5 1.5t-8.5 7.5l-104 129l27 23l110 -104h3l136 104l21 -23z" />
    <glyph glyph-name="Aring" unicode="&#xc5;" horiz-adv-x="652" 
d="M544 0q-7 0 -9 2t-4 7l-46 161h-331l-81 -161q-3 -6 -5.5 -7.5t-10.5 -1.5h-56l332 645q-23 12 -36.5 35t-13.5 49q0 21 8 40t22 33t33 22.5t40 8.5q43 0 69 -28t26 -66q0 -33 -19 -59t-51 -40l189 -640h-56zM470 222l-50 171q-17 59 -30.5 109.5t-23.5 92.5h-1
q-9 -19 -20 -43t-24 -50.5l-26 -53t-25 -50.5l-88 -176h288zM438 737q0 20 -13.5 37.5t-39.5 17.5q-24 0 -41.5 -16t-17.5 -45q0 -20 13.5 -37.5t39.5 -17.5q24 0 41.5 16t17.5 45z" />
    <glyph glyph-name="Aringacute" unicode="&#x1fa;" horiz-adv-x="652" 
d="M544 0q-7 0 -9 2t-4 7l-46 161h-331l-81 -161q-3 -6 -5.5 -7.5t-10.5 -1.5h-56l332 645q-23 12 -36.5 35t-13.5 49q0 21 8 40t22 33t33 22.5t40 8.5q43 0 69 -28t26 -66q0 -33 -19 -59t-51 -40l189 -640h-56zM470 222l-50 171q-17 59 -30.5 109.5t-23.5 92.5h-1
q-9 -19 -20 -43t-24 -50.5l-26 -53t-25 -50.5l-88 -176h288zM438 737q0 20 -13.5 37.5t-39.5 17.5q-24 0 -41.5 -16t-17.5 -45q0 -20 13.5 -37.5t39.5 -17.5q24 0 41.5 16t17.5 45zM306 836l-17 28l197 139q7 4 11 -2l27 -48z" />
    <glyph glyph-name="Aogonek" unicode="&#x104;" horiz-adv-x="652" 
d="M470 222l-50 171q-17 59 -30.5 109.5t-23.5 92.5h-1q-9 -19 -20 -43t-24 -50.5l-26 -53t-25 -50.5l-88 -176h288zM485 170h-331l-81 -161q-3 -6 -5.5 -7.5t-10.5 -1.5h-56l341 663h53q7 0 8.5 -2t3.5 -7l193 -654h-30q-14 0 -23 -3.5t-21 -12.5q-9 -7 -19.5 -17
t-19.5 -22t-14.5 -25t-5.5 -26q0 -36 50 -36q11 0 29.5 3t30.5 6l6 -31q-15 -11 -38.5 -17.5t-44.5 -6.5q-39 0 -63.5 23t-24.5 54q0 22 11 42.5t28 37t37.5 30t39.5 22.5z" />
    <glyph glyph-name="AE" unicode="&#xc6;" horiz-adv-x="890" 
d="M-8 0l480 663h418l-7 -54h-327l-28 -236h299l-7 -54h-299l-32 -265h341l-7 -54h-405l20 170h-251l-114 -160q-5 -7 -8 -8.5t-10 -1.5h-63zM223 222h221l46 380q-14 -20 -36 -52t-47 -67.5l-50 -71t-45 -63.5z" />
    <glyph glyph-name="AEacute" unicode="&#x1fc;" horiz-adv-x="890" 
d="M-8 0l480 663h418l-7 -54h-327l-28 -236h299l-7 -54h-299l-32 -265h341l-7 -54h-405l20 170h-251l-114 -160q-5 -7 -8 -8.5t-10 -1.5h-63zM223 222h221l46 380q-14 -20 -36 -52t-47 -67.5l-50 -71t-45 -63.5zM539 724l-17 28l197 139q7 4 11 -2l27 -48z" />
    <glyph glyph-name="Cacute" unicode="&#x106;" horiz-adv-x="642" 
d="M597 90q-61 -46 -131 -73t-136 -27q-60 0 -109 20t-84 56q-39 41 -61 97.5t-22 124.5q0 76 25.5 145.5t70 122.5t106 85t133.5 32q45 0 81.5 -13.5t65.5 -37t50 -55.5t34 -69l-45 -21l-46 55q-35 41 -70 60.5t-80 19.5q-57 0 -104.5 -25.5t-82 -69t-53.5 -101.5t-19 -123
q0 -55 14 -99.5t41 -76t67 -49t93 -17.5q39 0 81.5 11.5t93.5 33.5l65 28zM317 724l-17 28l197 139q7 4 11 -2l27 -48z" />
    <glyph glyph-name="Ccedilla" unicode="&#xc7;" horiz-adv-x="642" 
d="M597 90q-60 -45 -129 -72t-135 -28q-7 -14 -7 -23q0 -11 15.5 -17t33.5 -14.5t33.5 -22t15.5 -37.5q0 -22 -14.5 -38.5t-38 -27.5t-53.5 -17.5t-62 -7.5l-7 35l68 16q24 6 37 13t13 18q0 12 -15 19t-33 14.5t-33 17t-15 25.5q0 11 6 23.5t17 25.5q-97 11 -157 74
q-39 41 -61 97.5t-22 124.5q0 76 25.5 145.5t70 122.5t106 85t133.5 32q45 0 81.5 -13.5t65.5 -37t50 -55.5t34 -69l-45 -21l-46 55q-35 41 -70 60.5t-80 19.5q-57 0 -104.5 -25.5t-82 -69t-53.5 -101.5t-19 -123q0 -55 14 -99.5t41 -76t67 -49t93 -17.5q39 0 81.5 11.5
t93.5 33.5l65 28z" />
    <glyph glyph-name="Ccircumflex" unicode="&#x108;" horiz-adv-x="642" 
d="M597 90q-61 -46 -131 -73t-136 -27q-60 0 -109 20t-84 56q-39 41 -61 97.5t-22 124.5q0 76 25.5 145.5t70 122.5t106 85t133.5 32q45 0 81.5 -13.5t65.5 -37t50 -55.5t34 -69l-45 -21l-46 55q-35 41 -70 60.5t-80 19.5q-57 0 -104.5 -25.5t-82 -69t-53.5 -101.5t-19 -123
q0 -55 14 -99.5t41 -76t67 -49t93 -17.5q39 0 81.5 11.5t93.5 33.5l65 28zM545 736l-27 -23l-110 104h-3l-136 -104l-21 23l135 129q6 5 10 7t12 2h15q9 0 12 -2t8 -7z" />
    <glyph glyph-name="Ccaron" unicode="&#x10c;" horiz-adv-x="642" 
d="M597 90q-61 -46 -131 -73t-136 -27q-60 0 -109 20t-84 56q-39 41 -61 97.5t-22 124.5q0 76 25.5 145.5t70 122.5t106 85t133.5 32q45 0 81.5 -13.5t65.5 -37t50 -55.5t34 -69l-45 -21l-46 55q-35 41 -70 60.5t-80 19.5q-57 0 -104.5 -25.5t-82 -69t-53.5 -101.5t-19 -123
q0 -55 14 -99.5t41 -76t67 -49t93 -17.5q39 0 81.5 11.5t93.5 33.5l65 28zM429 732q-6 -6 -10 -7.5t-13 -1.5h-14q-8 0 -11.5 1.5t-8.5 7.5l-104 129l27 23l110 -104h3l136 104l21 -23z" />
    <glyph glyph-name="Cdotaccent" unicode="&#x10a;" horiz-adv-x="642" 
d="M597 90q-61 -46 -131 -73t-136 -27q-60 0 -109 20t-84 56q-39 41 -61 97.5t-22 124.5q0 76 25.5 145.5t70 122.5t106 85t133.5 32q45 0 81.5 -13.5t65.5 -37t50 -55.5t34 -69l-45 -21l-46 55q-35 41 -70 60.5t-80 19.5q-57 0 -104.5 -25.5t-82 -69t-53.5 -101.5t-19 -123
q0 -55 14 -99.5t41 -76t67 -49t93 -17.5q39 0 81.5 11.5t93.5 33.5l65 28zM373 822h67q9 0 12 -2.5t2 -10.5l-9 -72h-82z" />
    <glyph glyph-name="Dcaron" unicode="&#x10e;" horiz-adv-x="670" 
d="M131 663h204q77 0 134 -16.5t97 -54.5q37 -35 57 -87t20 -117q0 -92 -31 -167t-85 -126q-101 -95 -274 -95h-201zM123 55h122q83 0 143 21.5t102 64.5t65 106t23 138q0 56 -14.5 99t-43.5 70q-32 30 -81 42t-124 12h-125zM418 732q-6 -6 -10 -7.5t-13 -1.5h-14
q-8 0 -11.5 1.5t-8.5 7.5l-104 129l27 23l110 -104h3l136 104l21 -23z" />
    <glyph glyph-name="Dcroat" unicode="&#x110;" horiz-adv-x="692" 
d="M153 663h204q77 0 134 -16.5t97 -54.5q37 -35 57 -87t20 -117q0 -92 -31 -167t-85 -126q-101 -95 -272 -95h-203l37 315h-89l6 51h89zM146 55h121q83 0 143 21.5t102 64.5t65 106t23 138q0 56 -14.5 99t-43.5 70q-32 30 -81 42t-124 12h-125l-29 -242h155l-6 -51h-155z
" />
    <glyph glyph-name="Eth" unicode="&#xd0;" horiz-adv-x="692" 
d="M153 663h204q77 0 134 -16.5t97 -54.5q37 -35 57 -87t20 -117q0 -92 -31 -167t-85 -126q-101 -95 -272 -95h-203l37 315h-89l6 51h89zM146 55h121q83 0 143 21.5t102 64.5t65 106t23 138q0 56 -14.5 99t-43.5 70q-32 30 -81 42t-124 12h-125l-29 -242h155l-6 -51h-155z
" />
    <glyph glyph-name="Egrave" unicode="&#xc8;" horiz-adv-x="524" 
d="M524 663l-7 -54h-327l-28 -236h299l-7 -54h-299l-32 -265h341l-7 -54h-405l79 663h393zM224 841l37 48q5 7 11 2l165 -139l-23 -28z" />
    <glyph glyph-name="Eacute" unicode="&#xc9;" horiz-adv-x="524" 
d="M524 663l-7 -54h-327l-28 -236h299l-7 -54h-299l-32 -265h341l-7 -54h-405l79 663h393zM257 724l-17 28l197 139q7 4 11 -2l27 -48z" />
    <glyph glyph-name="Ecircumflex" unicode="&#xca;" horiz-adv-x="524" 
d="M524 663l-7 -54h-327l-28 -236h299l-7 -54h-299l-32 -265h341l-7 -54h-405l79 663h393zM486 736l-27 -23l-110 104h-3l-136 -104l-21 23l135 129q6 5 10 7t12 2h15q9 0 12 -2t8 -7z" />
    <glyph glyph-name="Ecaron" unicode="&#x11a;" horiz-adv-x="524" 
d="M524 663l-7 -54h-327l-28 -236h299l-7 -54h-299l-32 -265h341l-7 -54h-405l79 663h393zM369 732q-6 -6 -10 -7.5t-13 -1.5h-14q-8 0 -11.5 1.5t-8.5 7.5l-104 129l27 23l110 -104h3l136 104l21 -23z" />
    <glyph glyph-name="Edieresis" unicode="&#xcb;" horiz-adv-x="524" 
d="M524 663l-7 -54h-327l-28 -236h299l-7 -54h-299l-32 -265h341l-7 -54h-405l79 663h393zM220 832h60q10 0 12.5 -2.5t1.5 -10.5l-8 -69h-76zM386 832h60q10 0 12.5 -2.5t1.5 -10.5l-8 -69h-76z" />
    <glyph glyph-name="Emacron" unicode="&#x112;" horiz-adv-x="524" 
d="M524 663l-7 -54h-327l-28 -236h299l-7 -54h-299l-32 -265h341l-7 -54h-405l79 663h393zM191 751l6 50h278l-6 -50h-278z" />
    <glyph glyph-name="Ebreve" unicode="&#x114;" horiz-adv-x="524" 
d="M524 663l-7 -54h-327l-28 -236h299l-7 -54h-299l-32 -265h341l-7 -54h-405l79 663h393zM330 722q-52 0 -87 33.5t-40 95.5l36 6q10 -38 34.5 -59t62.5 -21t68.5 21t48.5 59l34 -6q-19 -62 -61.5 -95.5t-95.5 -33.5z" />
    <glyph glyph-name="Edotaccent" unicode="&#x116;" horiz-adv-x="524" 
d="M524 663l-7 -54h-327l-28 -236h299l-7 -54h-299l-32 -265h341l-7 -54h-405l79 663h393zM307 822h67q9 0 12 -2.5t2 -10.5l-9 -72h-82z" />
    <glyph glyph-name="Eogonek" unicode="&#x118;" horiz-adv-x="524" 
d="M386 -11q-30 -23 -47.5 -48.5t-17.5 -46.5q0 -36 50 -36q11 0 29.5 3t30.5 6l6 -31q-15 -11 -38.5 -17.5t-44.5 -6.5q-39 0 -63.5 23t-24.5 54q0 22 10 40.5t23 33t26 24t19 13.5h-292l79 663h393l-7 -54h-327l-28 -236h299l-7 -54h-299l-31 -265h340l-7 -54h-41
q-9 0 -15 -2t-15 -9z" />
    <glyph glyph-name="Gcircumflex" unicode="&#x11c;" horiz-adv-x="700" 
d="M447 271l7 50h176q13 0 12 -12l-37 -309h-40l-10 61l-65 -30q-40 -18 -82 -29.5t-87 -11.5q-60 0 -109.5 23t-84.5 63.5t-54 95.5t-19 118q0 78 26 147.5t72 122t109.5 83t139.5 30.5q85 0 149 -45t96 -126l-41 -24l-51 57q-32 37 -70 57t-90 20q-61 0 -111.5 -24.5
t-86.5 -67.5t-56 -102t-20 -127q0 -112 58 -176t159 -64q46 0 102 18t105 41q8 4 10.5 7.5t3.5 11.5l17 142h-128zM559 736l-27 -23l-110 104h-3l-136 -104l-21 23l135 129q6 5 10 7t12 2h15q9 0 12 -2t8 -7z" />
    <glyph glyph-name="Gbreve" unicode="&#x11e;" horiz-adv-x="700" 
d="M447 271l7 50h176q13 0 12 -12l-37 -309h-40l-10 61l-65 -30q-40 -18 -82 -29.5t-87 -11.5q-60 0 -109.5 23t-84.5 63.5t-54 95.5t-19 118q0 78 26 147.5t72 122t109.5 83t139.5 30.5q85 0 149 -45t96 -126l-41 -24l-51 57q-32 37 -70 57t-90 20q-61 0 -111.5 -24.5
t-86.5 -67.5t-56 -102t-20 -127q0 -112 58 -176t159 -64q46 0 102 18t105 41q8 4 10.5 7.5t3.5 11.5l17 142h-128zM413 722q-52 0 -87 33.5t-40 95.5l36 6q10 -38 34.5 -59t62.5 -21t68.5 21t48.5 59l34 -6q-19 -62 -61.5 -95.5t-95.5 -33.5z" />
    <glyph glyph-name="Gdotaccent" unicode="&#x120;" horiz-adv-x="700" 
d="M447 271l7 50h176q13 0 12 -12l-37 -309h-40l-10 61l-65 -30q-40 -18 -82 -29.5t-87 -11.5q-60 0 -109.5 23t-84.5 63.5t-54 95.5t-19 118q0 78 26 147.5t72 122t109.5 83t139.5 30.5q85 0 149 -45t96 -126l-41 -24l-51 57q-32 37 -70 57t-90 20q-61 0 -111.5 -24.5
t-86.5 -67.5t-56 -102t-20 -127q0 -112 58 -176t159 -64q46 0 102 18t105 41q8 4 10.5 7.5t3.5 11.5l17 142h-128zM380 822h67q9 0 12 -2.5t2 -10.5l-9 -72h-82z" />
    <glyph glyph-name="Gcommaaccent" unicode="&#x122;" horiz-adv-x="700" 
d="M447 271l7 50h176q13 0 12 -12l-37 -309h-40l-10 61l-65 -30q-40 -18 -82 -29.5t-87 -11.5q-60 0 -109.5 23t-84.5 63.5t-54 95.5t-19 118q0 78 26 147.5t72 122t109.5 83t139.5 30.5q85 0 149 -45t96 -126l-41 -24l-51 57q-32 37 -70 57t-90 20q-61 0 -111.5 -24.5
t-86.5 -67.5t-56 -102t-20 -127q0 -112 58 -176t159 -64q46 0 102 18t105 41q8 4 10.5 7.5t3.5 11.5l17 142h-128zM239 -250l55 192h52q13 0 13 -11q0 -7 -1 -14t-4.5 -16t-9.5 -21t-16 -29l-61 -107z" />
    <glyph glyph-name="Hcircumflex" unicode="&#x124;" horiz-adv-x="665" 
d="M536 319h-381l-38 -319h-65l79 663h65l-34 -289h380l35 289h65l-79 -663h-65zM543 736l-27 -23l-110 104h-3l-136 -104l-21 23l135 129q6 5 10 7t12 2h15q9 0 12 -2t8 -7z" />
    <glyph glyph-name="Hbar" unicode="&#x126;" horiz-adv-x="675" 
d="M540 319h-380l-38 -319h-65l61 515h-72l6 48h72l12 100h65l-12 -100h381l12 100h65l-12 -100h73l-6 -48h-73l-61 -515h-65zM547 374l17 141h-381l-16 -141h380z" />
    <glyph glyph-name="Igrave" unicode="&#xcc;" horiz-adv-x="223" 
d="M119 0h-65l79 663h65zM75 841l37 48q5 7 11 2l165 -139l-23 -28z" />
    <glyph glyph-name="Iacute" unicode="&#xcd;" horiz-adv-x="223" 
d="M119 0h-65l79 663h65zM88 724l-17 28l197 139q7 4 11 -2l27 -48z" />
    <glyph glyph-name="Icircumflex" unicode="&#xce;" horiz-adv-x="223" 
d="M119 0h-65l79 663h65zM321 736l-27 -23l-110 104h-3l-136 -104l-21 23l135 129q6 5 10 7t12 2h15q9 0 12 -2t8 -7z" />
    <glyph glyph-name="Itilde" unicode="&#x128;" horiz-adv-x="223" 
d="M119 0h-65l79 663h65zM241 740q-17 0 -33 6.5t-31.5 15t-30.5 15t-30 6.5q-14 0 -30 -9.5t-30 -33.5l-30 10q16 41 41 64t57 23q16 0 32.5 -7t32 -15t30.5 -15t30 -7q14 0 30 10t30 34l30 -10q-16 -41 -41 -64t-57 -23z" />
    <glyph glyph-name="Idieresis" unicode="&#xcf;" horiz-adv-x="223" 
d="M119 0h-65l79 663h65zM67 832h60q10 0 12.5 -2.5t1.5 -10.5l-8 -69h-76zM233 832h60q10 0 12.5 -2.5t1.5 -10.5l-8 -69h-76z" />
    <glyph glyph-name="Imacron" unicode="&#x12a;" horiz-adv-x="223" 
d="M119 0h-65l79 663h65zM38 751l6 50h278l-6 -50h-278z" />
    <glyph glyph-name="Ibreve" unicode="&#x12c;" horiz-adv-x="223" 
d="M119 0h-65l79 663h65zM175 722q-52 0 -87 33.5t-40 95.5l36 6q10 -38 34.5 -59t62.5 -21t68.5 21t48.5 59l34 -6q-19 -62 -61.5 -95.5t-95.5 -33.5z" />
    <glyph glyph-name="Idotaccent" unicode="&#x130;" horiz-adv-x="223" 
d="M119 0h-65l79 663h65zM144 822h67q9 0 12 -2.5t2 -10.5l-9 -72h-82z" />
    <glyph glyph-name="Iogonek" unicode="&#x12e;" horiz-adv-x="223" 
d="M133 663h65l-79 -663q-41 -19 -66.5 -49t-25.5 -57q0 -36 50 -36q11 0 29.5 3t30.5 6l6 -31q-15 -11 -38.5 -17.5t-44.5 -6.5q-39 0 -63.5 23t-24.5 54q0 18 7.5 33.5t19 29.5t26 25.5t29.5 20.5z" />
    <glyph glyph-name="IJ" unicode="&#x132;" horiz-adv-x="674" 
d="M119 0h-65l79 663h65zM237 71l44 -9q40 -8 68.5 -12t51.5 -4q60 0 92 32q19 19 29 48.5t15 68.5l56 468h65l-56 -471q-6 -51 -19.5 -86t-38.5 -61t-61.5 -40.5t-82.5 -14.5q-39 0 -85.5 11.5t-93.5 33.5z" />
    <glyph glyph-name="Jcircumflex" unicode="&#x134;" horiz-adv-x="444" 
d="M12 71l44 -9q40 -8 68.5 -12t51.5 -4q60 0 92 32q19 19 29 48.5t15 68.5l56 468h65l-56 -471q-6 -51 -19.5 -86t-38.5 -61t-61.5 -40.5t-82.5 -14.5q-39 0 -85.5 11.5t-93.5 33.5zM553 736l-27 -23l-110 104h-3l-136 -104l-21 23l135 129q6 5 10 7t12 2h15q9 0 12 -2
t8 -7z" />
    <glyph glyph-name="Kcommaaccent" unicode="&#x136;" horiz-adv-x="598" 
d="M337 397l223 -397h-57q-8 0 -11.5 1.5t-7.5 8.5l-195 347q-17 -15 -36.5 -30.5t-39 -29.5t-36.5 -26.5t-30 -21.5l-30 -249h-65l79 663h65l-42 -351l420 356l36 -41zM206 -250l55 192h52q13 0 13 -11q0 -7 -1 -14t-4.5 -16t-9.5 -21t-16 -29l-61 -107z" />
    <glyph glyph-name="Lacute" unicode="&#x139;" horiz-adv-x="495" 
d="M131 663h65l-72 -609h323l-7 -54h-388zM101 724l-17 28l197 139q7 4 11 -2l27 -48z" />
    <glyph glyph-name="Lcaron" unicode="&#x13d;" horiz-adv-x="495" 
d="M131 663h65l-72 -609h323l-7 -54h-388zM275 471l55 192h52q13 0 13 -11q0 -7 -1 -14t-4.5 -16t-9.5 -21t-16 -29l-61 -107z" />
    <glyph glyph-name="Lcommaaccent" unicode="&#x13b;" horiz-adv-x="495" 
d="M131 663h65l-72 -609h323l-7 -54h-388zM165 -250l55 192h52q13 0 13 -11q0 -7 -1 -14t-4.5 -16t-9.5 -21t-16 -29l-61 -107z" />
    <glyph glyph-name="Lslash" unicode="&#x141;" horiz-adv-x="542" 
d="M183 663h65l-33 -283l174 115l28 -45l-210 -138l-31 -258h323l-7 -54h-388l33 276l-87 -57l-28 45l123 80z" />
    <glyph glyph-name="Ldot" unicode="&#x13f;" horiz-adv-x="495" 
d="M131 663h65l-72 -609h323l-7 -54h-388zM336 418h67q9 0 12 -2.5t2 -10.5l-9 -72h-82z" />
    <glyph glyph-name="Nacute" unicode="&#x143;" horiz-adv-x="696" 
d="M612 663h61l-79 -663h-36q-12 0 -18 9l-262 398q-12 18 -25 38.5t-26.5 42t-26 41.5t-21.5 37l-66 -566h-61l79 663h37q7 0 10 -1.5t7 -7.5l261 -398q26 -39 53 -82.5t46 -76.5zM339 724l-17 28l197 139q7 4 11 -2l27 -48z" />
    <glyph glyph-name="Ncaron" unicode="&#x147;" horiz-adv-x="696" 
d="M612 663h61l-79 -663h-36q-12 0 -18 9l-262 398q-12 18 -25 38.5t-26.5 42t-26 41.5t-21.5 37l-66 -566h-61l79 663h37q7 0 10 -1.5t7 -7.5l261 -398q26 -39 53 -82.5t46 -76.5zM438 732q-6 -6 -10 -7.5t-13 -1.5h-14q-8 0 -11.5 1.5t-8.5 7.5l-104 129l27 23l110 -104h3
l136 104l21 -23z" />
    <glyph glyph-name="Ntilde" unicode="&#xd1;" horiz-adv-x="696" 
d="M612 663h61l-79 -663h-36q-12 0 -18 9l-262 398q-12 18 -25 38.5t-26.5 42t-26 41.5t-21.5 37l-66 -566h-61l79 663h37q7 0 10 -1.5t7 -7.5l261 -398q26 -39 53 -82.5t46 -76.5zM477 740q-17 0 -33 6.5t-31.5 15t-30.5 15t-30 6.5q-14 0 -30 -9.5t-30 -33.5l-30 10
q16 41 41 64t57 23q16 0 32.5 -7t32 -15t30.5 -15t30 -7q14 0 30 10t30 34l30 -10q-16 -41 -41 -64t-57 -23z" />
    <glyph glyph-name="Ncommaaccent" unicode="&#x145;" horiz-adv-x="696" 
d="M612 663h61l-79 -663h-36q-12 0 -18 9l-262 398q-12 18 -25 38.5t-26.5 42t-26 41.5t-21.5 37l-66 -566h-61l79 663h37q7 0 10 -1.5t7 -7.5l261 -398q26 -39 53 -82.5t46 -76.5zM234 -250l55 192h52q13 0 13 -11q0 -7 -1 -14t-4.5 -16t-9.5 -21t-16 -29l-61 -107z" />
    <glyph glyph-name="Eng" unicode="&#x14a;" horiz-adv-x="696" 
d="M493 -123q16 15 24 41.5t13 61.5l4 37l-257 390q-32 48 -57.5 88.5t-40.5 64.5l-66 -560h-61l79 663h37q7 0 10 -1.5t7 -7.5l262 -398q29 -45 55 -85t43 -67l67 559h61l-82 -689q-5 -43 -19 -78.5t-40 -59.5q-21 -20 -51.5 -31t-71.5 -11q-11 0 -24.5 1.5t-27 4.5
t-25.5 7t-21 9l12 37q17 -2 39 -4t40 -2q60 0 91 30z" />
    <glyph glyph-name="Ograve" unicode="&#xd2;" horiz-adv-x="699" 
d="M340 -10q-65 0 -118 24.5t-90 66t-57 96.5t-20 117q0 73 25.5 141.5t71 121.5t107 84.5t133.5 31.5q65 0 118 -24.5t90 -66t57 -97t20 -116.5q0 -74 -25.5 -142t-71 -121t-107 -84.5t-133.5 -31.5zM385 611q-55 0 -103 -23.5t-84 -65.5t-56.5 -99.5t-20.5 -124.5
q0 -50 14 -95t42.5 -78.5t71 -53t98.5 -19.5q55 0 103 23.5t84 65.5t56.5 99t20.5 125q0 50 -14 95t-42.5 78.5t-71 53t-98.5 19.5zM312 841l37 48q5 7 11 2l165 -139l-23 -28z" />
    <glyph glyph-name="Oacute" unicode="&#xd3;" horiz-adv-x="699" 
d="M340 -10q-65 0 -118 24.5t-90 66t-57 96.5t-20 117q0 73 25.5 141.5t71 121.5t107 84.5t133.5 31.5q65 0 118 -24.5t90 -66t57 -97t20 -116.5q0 -74 -25.5 -142t-71 -121t-107 -84.5t-133.5 -31.5zM385 611q-55 0 -103 -23.5t-84 -65.5t-56.5 -99.5t-20.5 -124.5
q0 -50 14 -95t42.5 -78.5t71 -53t98.5 -19.5q55 0 103 23.5t84 65.5t56.5 99t20.5 125q0 50 -14 95t-42.5 78.5t-71 53t-98.5 19.5zM316 724l-17 28l197 139q7 4 11 -2l27 -48z" />
    <glyph glyph-name="Ocircumflex" unicode="&#xd4;" horiz-adv-x="699" 
d="M340 -10q-65 0 -118 24.5t-90 66t-57 96.5t-20 117q0 73 25.5 141.5t71 121.5t107 84.5t133.5 31.5q65 0 118 -24.5t90 -66t57 -97t20 -116.5q0 -74 -25.5 -142t-71 -121t-107 -84.5t-133.5 -31.5zM385 611q-55 0 -103 -23.5t-84 -65.5t-56.5 -99.5t-20.5 -124.5
q0 -50 14 -95t42.5 -78.5t71 -53t98.5 -19.5q55 0 103 23.5t84 65.5t56.5 99t20.5 125q0 50 -14 95t-42.5 78.5t-71 53t-98.5 19.5zM555 736l-27 -23l-110 104h-3l-136 -104l-21 23l135 129q6 5 10 7t12 2h15q9 0 12 -2t8 -7z" />
    <glyph glyph-name="Otilde" unicode="&#xd5;" horiz-adv-x="699" 
d="M340 -10q-65 0 -118 24.5t-90 66t-57 96.5t-20 117q0 73 25.5 141.5t71 121.5t107 84.5t133.5 31.5q65 0 118 -24.5t90 -66t57 -97t20 -116.5q0 -74 -25.5 -142t-71 -121t-107 -84.5t-133.5 -31.5zM385 611q-55 0 -103 -23.5t-84 -65.5t-56.5 -99.5t-20.5 -124.5
q0 -50 14 -95t42.5 -78.5t71 -53t98.5 -19.5q55 0 103 23.5t84 65.5t56.5 99t20.5 125q0 50 -14 95t-42.5 78.5t-71 53t-98.5 19.5zM470 740q-17 0 -33 6.5t-31.5 15t-30.5 15t-30 6.5q-14 0 -30 -9.5t-30 -33.5l-30 10q16 41 41 64t57 23q16 0 32.5 -7t32 -15t30.5 -15
t30 -7q14 0 30 10t30 34l30 -10q-16 -41 -41 -64t-57 -23z" />
    <glyph glyph-name="Odieresis" unicode="&#xd6;" horiz-adv-x="699" 
d="M340 -10q-65 0 -118 24.5t-90 66t-57 96.5t-20 117q0 73 25.5 141.5t71 121.5t107 84.5t133.5 31.5q65 0 118 -24.5t90 -66t57 -97t20 -116.5q0 -74 -25.5 -142t-71 -121t-107 -84.5t-133.5 -31.5zM385 611q-55 0 -103 -23.5t-84 -65.5t-56.5 -99.5t-20.5 -124.5
q0 -50 14 -95t42.5 -78.5t71 -53t98.5 -19.5q55 0 103 23.5t84 65.5t56.5 99t20.5 125q0 50 -14 95t-42.5 78.5t-71 53t-98.5 19.5zM297 832h60q10 0 12.5 -2.5t1.5 -10.5l-8 -69h-76zM463 832h60q10 0 12.5 -2.5t1.5 -10.5l-8 -69h-76z" />
    <glyph glyph-name="Omacron" unicode="&#x14c;" horiz-adv-x="699" 
d="M340 -10q-65 0 -118 24.5t-90 66t-57 96.5t-20 117q0 73 25.5 141.5t71 121.5t107 84.5t133.5 31.5q65 0 118 -24.5t90 -66t57 -97t20 -116.5q0 -74 -25.5 -142t-71 -121t-107 -84.5t-133.5 -31.5zM385 611q-55 0 -103 -23.5t-84 -65.5t-56.5 -99.5t-20.5 -124.5
q0 -50 14 -95t42.5 -78.5t71 -53t98.5 -19.5q55 0 103 23.5t84 65.5t56.5 99t20.5 125q0 50 -14 95t-42.5 78.5t-71 53t-98.5 19.5zM268 751l6 50h278l-6 -50h-278z" />
    <glyph glyph-name="Obreve" unicode="&#x14e;" horiz-adv-x="699" 
d="M340 -10q-65 0 -118 24.5t-90 66t-57 96.5t-20 117q0 73 25.5 141.5t71 121.5t107 84.5t133.5 31.5q65 0 118 -24.5t90 -66t57 -97t20 -116.5q0 -74 -25.5 -142t-71 -121t-107 -84.5t-133.5 -31.5zM385 611q-55 0 -103 -23.5t-84 -65.5t-56.5 -99.5t-20.5 -124.5
q0 -50 14 -95t42.5 -78.5t71 -53t98.5 -19.5q55 0 103 23.5t84 65.5t56.5 99t20.5 125q0 50 -14 95t-42.5 78.5t-71 53t-98.5 19.5zM407 722q-52 0 -87 33.5t-40 95.5l36 6q10 -38 34.5 -59t62.5 -21t68.5 21t48.5 59l34 -6q-19 -62 -61.5 -95.5t-95.5 -33.5z" />
    <glyph glyph-name="Ohungarumlaut" unicode="&#x150;" horiz-adv-x="699" 
d="M340 -10q-65 0 -118 24.5t-90 66t-57 96.5t-20 117q0 73 25.5 141.5t71 121.5t107 84.5t133.5 31.5q65 0 118 -24.5t90 -66t57 -97t20 -116.5q0 -74 -25.5 -142t-71 -121t-107 -84.5t-133.5 -31.5zM385 611q-55 0 -103 -23.5t-84 -65.5t-56.5 -99.5t-20.5 -124.5
q0 -50 14 -95t42.5 -78.5t71 -53t98.5 -19.5q55 0 103 23.5t84 65.5t56.5 99t20.5 125q0 50 -14 95t-42.5 78.5t-71 53t-98.5 19.5zM288 739l-21 23l145 153q6 7 12 1l31 -38zM452 739l-21 23l144 153q6 7 12 1l32 -38z" />
    <glyph glyph-name="Oslash" unicode="&#xd8;" horiz-adv-x="698" 
d="M340 -10q-52 0 -95 15.5t-78 42.5l-78 -94l-42 35l81 97q-35 42 -54 95t-19 113q0 73 25.5 141.5t71 121.5t107 84.5t133.5 31.5q52 0 95.5 -15.5t78.5 -43.5l78 93l42 -35l-81 -96q35 -42 53.5 -95t18.5 -112q0 -74 -25.5 -142t-71 -121t-107 -84.5t-133.5 -31.5z
M385 611q-55 0 -103 -23.5t-84 -65.5t-56.5 -99.5t-20.5 -124.5q0 -46 13 -88t36 -74l356 429q-27 21 -62 33.5t-79 12.5zM611 365q0 45 -12.5 86.5t-35.5 73.5l-355 -428q26 -21 60.5 -33t78.5 -12q55 0 103 23.5t84 65.5t56.5 99t20.5 125z" />
    <glyph glyph-name="Oslashacute" unicode="&#x1fe;" horiz-adv-x="698" 
d="M340 -10q-52 0 -95 15.5t-78 42.5l-78 -94l-42 35l81 97q-35 42 -54 95t-19 113q0 73 25.5 141.5t71 121.5t107 84.5t133.5 31.5q52 0 95.5 -15.5t78.5 -43.5l78 93l42 -35l-81 -96q35 -42 53.5 -95t18.5 -112q0 -74 -25.5 -142t-71 -121t-107 -84.5t-133.5 -31.5z
M385 611q-55 0 -103 -23.5t-84 -65.5t-56.5 -99.5t-20.5 -124.5q0 -46 13 -88t36 -74l356 429q-27 21 -62 33.5t-79 12.5zM611 365q0 45 -12.5 86.5t-35.5 73.5l-355 -428q26 -21 60.5 -33t78.5 -12q55 0 103 23.5t84 65.5t56.5 99t20.5 125zM324 724l-17 28l197 139
q7 4 11 -2l27 -48z" />
    <glyph glyph-name="OE" unicode="&#x152;" horiz-adv-x="1041" 
d="M339 -10q-65 0 -117.5 24.5t-89.5 66t-57 96.5t-20 117q0 73 25.5 141.5t70.5 121.5t106.5 84.5t133.5 31.5q85 0 146 -40.5t94 -106.5l17 137h393l-7 -54h-327l-28 -236h299l-7 -54h-299l-32 -265h341l-7 -54h-405l13 114q-44 -57 -106 -90.5t-137 -33.5zM385 611
q-55 0 -103 -23.5t-84 -65.5t-56.5 -99.5t-20.5 -124.5q0 -50 14 -95t42.5 -78.5t71 -53t98.5 -19.5q55 0 102.5 23.5t82.5 65.5t55.5 99t20.5 125q0 50 -14 95t-41.5 78.5t-69.5 53t-98 19.5z" />
    <glyph glyph-name="Thorn" unicode="&#xde;" horiz-adv-x="569" 
d="M182 549h157q112 0 163 -51q23 -23 34.5 -55t11.5 -69q0 -51 -19.5 -106.5t-63.5 -98.5q-23 -23 -49 -33.5t-68 -10.5h-216l-15 -125h-65l79 663h65zM176 494l-38 -315h211q19 0 32.5 2.5t24 8t18.5 14t16 20.5q20 29 32 65.5t12 78.5q0 58 -28 89q-19 21 -48.5 29
t-74.5 8h-157z" />
    <glyph glyph-name="Racute" unicode="&#x154;" horiz-adv-x="601" 
d="M483 0q-11 0 -15 9l-101 235q-3 8 -7 9.5t-12 1.5h-201l-30 -255h-65l79 663h230q106 0 157 -51q44 -44 44 -121q0 -32 -8.5 -65t-25.5 -63.5t-42.5 -56.5t-59.5 -44l116 -262h-59zM364 308q37 0 55.5 11t35.5 35q20 28 31.5 62.5t11.5 73.5q0 58 -28 86q-17 17 -44 25
t-71 8h-166l-35 -301h210zM275 724l-17 28l197 139q7 4 11 -2l27 -48z" />
    <glyph glyph-name="Rcaron" unicode="&#x158;" horiz-adv-x="601" 
d="M483 0q-11 0 -15 9l-101 235q-3 8 -7 9.5t-12 1.5h-201l-30 -255h-65l79 663h230q106 0 157 -51q44 -44 44 -121q0 -32 -8.5 -65t-25.5 -63.5t-42.5 -56.5t-59.5 -44l116 -262h-59zM364 308q37 0 55.5 11t35.5 35q20 28 31.5 62.5t11.5 73.5q0 58 -28 86q-17 17 -44 25
t-71 8h-166l-35 -301h210zM383 732q-6 -6 -10 -7.5t-13 -1.5h-14q-8 0 -11.5 1.5t-8.5 7.5l-104 129l27 23l110 -104h3l136 104l21 -23z" />
    <glyph glyph-name="Rcommaaccent" unicode="&#x156;" horiz-adv-x="601" 
d="M483 0q-11 0 -15 9l-101 235q-3 8 -7 9.5t-12 1.5h-201l-30 -255h-65l79 663h230q106 0 157 -51q44 -44 44 -121q0 -32 -8.5 -65t-25.5 -63.5t-42.5 -56.5t-59.5 -44l116 -262h-59zM364 308q37 0 55.5 11t35.5 35q20 28 31.5 62.5t11.5 73.5q0 58 -28 86q-17 17 -44 25
t-71 8h-166l-35 -301h210zM199 -250l55 192h52q13 0 13 -11q0 -7 -1 -14t-4.5 -16t-9.5 -21t-16 -29l-61 -107z" />
    <glyph glyph-name="Sacute" unicode="&#x15a;" horiz-adv-x="527" 
d="M432 609q-32 3 -64.5 5t-57.5 2q-36 0 -66 -5t-51.5 -16.5t-33.5 -30t-12 -46.5q0 -18 7 -33t22 -29t38 -27.5t56 -29.5l46 -22q86 -41 122.5 -81.5t36.5 -98.5q0 -48 -18 -86t-49.5 -65t-74.5 -41.5t-94 -14.5q-25 0 -54 4t-58.5 11.5t-57 18t-50.5 22.5l17 36l55 -13
q87 -21 150 -21q34 0 65.5 8.5t55.5 26.5t38.5 45.5t14.5 65.5q0 21 -6.5 38t-21.5 32t-39 29.5t-60 31.5l-48 23q-38 18 -66.5 35.5t-48 37.5t-29 43t-9.5 52q0 37 16 66t45.5 49.5t70 31t90.5 10.5q21 0 45 -2.5t49 -7t48 -10t41 -12.5l-9 -37zM238 724l-17 28l197 139
q7 4 11 -2l27 -48z" />
    <glyph glyph-name="Scircumflex" unicode="&#x15c;" horiz-adv-x="527" 
d="M432 609q-32 3 -64.5 5t-57.5 2q-36 0 -66 -5t-51.5 -16.5t-33.5 -30t-12 -46.5q0 -18 7 -33t22 -29t38 -27.5t56 -29.5l46 -22q86 -41 122.5 -81.5t36.5 -98.5q0 -48 -18 -86t-49.5 -65t-74.5 -41.5t-94 -14.5q-25 0 -54 4t-58.5 11.5t-57 18t-50.5 22.5l17 36l55 -13
q87 -21 150 -21q34 0 65.5 8.5t55.5 26.5t38.5 45.5t14.5 65.5q0 21 -6.5 38t-21.5 32t-39 29.5t-60 31.5l-48 23q-38 18 -66.5 35.5t-48 37.5t-29 43t-9.5 52q0 37 16 66t45.5 49.5t70 31t90.5 10.5q21 0 45 -2.5t49 -7t48 -10t41 -12.5l-9 -37zM471 736l-27 -23l-110 104
h-3l-136 -104l-21 23l135 129q6 5 10 7t12 2h15q9 0 12 -2t8 -7z" />
    <glyph glyph-name="Scaron" unicode="&#x160;" horiz-adv-x="527" 
d="M432 609q-32 3 -64.5 5t-57.5 2q-36 0 -66 -5t-51.5 -16.5t-33.5 -30t-12 -46.5q0 -18 7 -33t22 -29t38 -27.5t56 -29.5l46 -22q86 -41 122.5 -81.5t36.5 -98.5q0 -48 -18 -86t-49.5 -65t-74.5 -41.5t-94 -14.5q-25 0 -54 4t-58.5 11.5t-57 18t-50.5 22.5l17 36l55 -13
q87 -21 150 -21q34 0 65.5 8.5t55.5 26.5t38.5 45.5t14.5 65.5q0 21 -6.5 38t-21.5 32t-39 29.5t-60 31.5l-48 23q-38 18 -66.5 35.5t-48 37.5t-29 43t-9.5 52q0 37 16 66t45.5 49.5t70 31t90.5 10.5q21 0 45 -2.5t49 -7t48 -10t41 -12.5l-9 -37zM348 732q-6 -6 -10 -7.5
t-13 -1.5h-14q-8 0 -11.5 1.5t-8.5 7.5l-104 129l27 23l110 -104h3l136 104l21 -23z" />
    <glyph glyph-name="Scedilla" unicode="&#x15e;" horiz-adv-x="527" 
d="M432 609q-32 3 -64.5 5t-57.5 2q-36 0 -66 -5t-51.5 -16.5t-33.5 -30t-12 -46.5q0 -18 7 -33t22 -29t38 -27.5t56 -29.5l46 -22q86 -41 122.5 -81.5t36.5 -98.5q0 -47 -17 -84.5t-48 -64.5t-73 -42t-91 -16q-7 -14 -7 -23q0 -11 15.5 -17t33.5 -14.5t33.5 -22t15.5 -37.5
q0 -22 -14.5 -38.5t-38 -27.5t-53.5 -17.5t-62 -7.5l-7 35l68 16q24 6 37 13t13 18q0 12 -15 19t-33 14.5t-33 17t-15 25.5q0 11 6 23.5t17 25.5q-48 4 -98.5 18.5t-89.5 35.5l17 36l55 -13q87 -21 150 -21q34 0 65.5 8.5t55.5 26.5t38.5 45.5t14.5 65.5q0 21 -6.5 38
t-21.5 32t-39 29.5t-60 31.5l-48 23q-38 18 -66.5 35.5t-48 37.5t-29 43t-9.5 52q0 37 16 66t45.5 49.5t70 31t90.5 10.5q21 0 45 -2.5t49 -7t48 -10t41 -12.5l-9 -37z" />
    <glyph glyph-name="Scommaaccent" unicode="&#x218;" horiz-adv-x="527" 
d="M432 609q-32 3 -64.5 5t-57.5 2q-36 0 -66 -5t-51.5 -16.5t-33.5 -30t-12 -46.5q0 -18 7 -33t22 -29t38 -27.5t56 -29.5l46 -22q86 -41 122.5 -81.5t36.5 -98.5q0 -48 -18 -86t-49.5 -65t-74.5 -41.5t-94 -14.5q-25 0 -54 4t-58.5 11.5t-57 18t-50.5 22.5l17 36l55 -13
q87 -21 150 -21q34 0 65.5 8.5t55.5 26.5t38.5 45.5t14.5 65.5q0 21 -6.5 38t-21.5 32t-39 29.5t-60 31.5l-48 23q-38 18 -66.5 35.5t-48 37.5t-29 43t-9.5 52q0 37 16 66t45.5 49.5t70 31t90.5 10.5q21 0 45 -2.5t49 -7t48 -10t41 -12.5l-9 -37zM162 -250l55 192h52
q13 0 13 -11q0 -7 -1 -14t-4.5 -16t-9.5 -21t-16 -29l-61 -107z" />
    <glyph glyph-name="Tcaron" unicode="&#x164;" horiz-adv-x="547" 
d="M291 609h-216l6 54h497l-6 -54h-216l-72 -609h-65zM360 732q-6 -6 -10 -7.5t-13 -1.5h-14q-8 0 -11.5 1.5t-8.5 7.5l-104 129l27 23l110 -104h3l136 104l21 -23z" />
    <glyph glyph-name="Tcommaaccent" unicode="&#x162;" horiz-adv-x="547" 
d="M291 609h-216l6 54h497l-6 -54h-216l-72 -609h-65zM157 -250l55 192h52q13 0 13 -11q0 -7 -1 -14t-4.5 -16t-9.5 -21t-16 -29l-61 -107z" />
    <glyph glyph-name="uni021A" unicode="&#x21a;" horiz-adv-x="547" 
d="M291 609h-216l6 54h497l-6 -54h-216l-72 -609h-65zM157 -250l55 192h52q13 0 13 -11q0 -7 -1 -14t-4.5 -16t-9.5 -21t-16 -29l-61 -107z" />
    <glyph glyph-name="Tbar" unicode="&#x166;" horiz-adv-x="547" 
d="M291 609h-216l6 54h497l-6 -54h-216l-30 -251h144l-6 -48h-144l-36 -310h-65l36 310h-142l6 48h142z" />
    <glyph glyph-name="Ugrave" unicode="&#xd9;" horiz-adv-x="653" 
d="M588 263q-8 -69 -28.5 -117.5t-53.5 -81.5q-36 -36 -86 -55t-109 -19q-57 0 -100.5 17t-73.5 46.5t-45 69.5t-15 86q0 17 2 42t5 51l43 361h65l-43 -362q-4 -29 -5.5 -51t-1.5 -39q0 -75 43.5 -117.5t128.5 -42.5q45 0 83.5 13t63.5 38q29 29 43.5 70t22.5 101l47 390h62
zM264 841l37 48q5 7 11 2l165 -139l-23 -28z" />
    <glyph glyph-name="Uacute" unicode="&#xda;" horiz-adv-x="653" 
d="M588 263q-8 -69 -28.5 -117.5t-53.5 -81.5q-36 -36 -86 -55t-109 -19q-57 0 -100.5 17t-73.5 46.5t-45 69.5t-15 86q0 17 2 42t5 51l43 361h65l-43 -362q-4 -29 -5.5 -51t-1.5 -39q0 -75 43.5 -117.5t128.5 -42.5q45 0 83.5 13t63.5 38q29 29 43.5 70t22.5 101l47 390h62
zM326 724l-17 28l197 139q7 4 11 -2l27 -48z" />
    <glyph glyph-name="Ucircumflex" unicode="&#xdb;" horiz-adv-x="653" 
d="M588 263q-8 -69 -28.5 -117.5t-53.5 -81.5q-36 -36 -86 -55t-109 -19q-57 0 -100.5 17t-73.5 46.5t-45 69.5t-15 86q0 17 2 42t5 51l43 361h65l-43 -362q-4 -29 -5.5 -51t-1.5 -39q0 -75 43.5 -117.5t128.5 -42.5q45 0 83.5 13t63.5 38q29 29 43.5 70t22.5 101l47 390h62
zM541 736l-27 -23l-110 104h-3l-136 -104l-21 23l135 129q6 5 10 7t12 2h15q9 0 12 -2t8 -7z" />
    <glyph glyph-name="Utilde" unicode="&#x168;" horiz-adv-x="653" 
d="M588 263q-8 -69 -28.5 -117.5t-53.5 -81.5q-36 -36 -86 -55t-109 -19q-57 0 -100.5 17t-73.5 46.5t-45 69.5t-15 86q0 17 2 42t5 51l43 361h65l-43 -362q-4 -29 -5.5 -51t-1.5 -39q0 -75 43.5 -117.5t128.5 -42.5q45 0 83.5 13t63.5 38q29 29 43.5 70t22.5 101l47 390h62
zM459 740q-17 0 -33 6.5t-31.5 15t-30.5 15t-30 6.5q-14 0 -30 -9.5t-30 -33.5l-30 10q16 41 41 64t57 23q16 0 32.5 -7t32 -15t30.5 -15t30 -7q14 0 30 10t30 34l30 -10q-16 -41 -41 -64t-57 -23z" />
    <glyph glyph-name="Udieresis" unicode="&#xdc;" horiz-adv-x="653" 
d="M588 263q-8 -69 -28.5 -117.5t-53.5 -81.5q-36 -36 -86 -55t-109 -19q-57 0 -100.5 17t-73.5 46.5t-45 69.5t-15 86q0 17 2 42t5 51l43 361h65l-43 -362q-4 -29 -5.5 -51t-1.5 -39q0 -75 43.5 -117.5t128.5 -42.5q45 0 83.5 13t63.5 38q29 29 43.5 70t22.5 101l47 390h62
zM283 832h60q10 0 12.5 -2.5t1.5 -10.5l-8 -69h-76zM449 832h60q10 0 12.5 -2.5t1.5 -10.5l-8 -69h-76z" />
    <glyph glyph-name="Umacron" unicode="&#x16a;" horiz-adv-x="653" 
d="M588 263q-8 -69 -28.5 -117.5t-53.5 -81.5q-36 -36 -86 -55t-109 -19q-57 0 -100.5 17t-73.5 46.5t-45 69.5t-15 86q0 17 2 42t5 51l43 361h65l-43 -362q-4 -29 -5.5 -51t-1.5 -39q0 -75 43.5 -117.5t128.5 -42.5q45 0 83.5 13t63.5 38q29 29 43.5 70t22.5 101l47 390h62
zM253 751l6 50h278l-6 -50h-278z" />
    <glyph glyph-name="Ubreve" unicode="&#x16c;" horiz-adv-x="653" 
d="M588 263q-8 -69 -28.5 -117.5t-53.5 -81.5q-36 -36 -86 -55t-109 -19q-57 0 -100.5 17t-73.5 46.5t-45 69.5t-15 86q0 17 2 42t5 51l43 361h65l-43 -362q-4 -29 -5.5 -51t-1.5 -39q0 -75 43.5 -117.5t128.5 -42.5q45 0 83.5 13t63.5 38q29 29 43.5 70t22.5 101l47 390h62
zM394 722q-52 0 -87 33.5t-40 95.5l36 6q10 -38 34.5 -59t62.5 -21t68.5 21t48.5 59l34 -6q-19 -62 -61.5 -95.5t-95.5 -33.5z" />
    <glyph glyph-name="Uring" unicode="&#x16e;" horiz-adv-x="653" 
d="M588 263q-8 -69 -28.5 -117.5t-53.5 -81.5q-36 -36 -86 -55t-109 -19q-57 0 -100.5 17t-73.5 46.5t-45 69.5t-15 86q0 17 2 42t5 51l43 361h65l-43 -362q-4 -29 -5.5 -51t-1.5 -39q0 -75 43.5 -117.5t128.5 -42.5q45 0 83.5 13t63.5 38q29 29 43.5 70t22.5 101l47 390h62
zM497 829q0 -21 -8 -40t-22 -33t-33 -22.5t-40 -8.5q-43 0 -69 28t-26 66q0 21 8 40t22 33t33 22.5t40 8.5q43 0 69 -28t26 -66zM454 827q0 20 -13.5 37.5t-39.5 17.5q-24 0 -41.5 -16t-17.5 -45q0 -20 13.5 -37.5t39.5 -17.5q24 0 41.5 16t17.5 45z" />
    <glyph glyph-name="Uhungarumlaut" unicode="&#x170;" horiz-adv-x="653" 
d="M588 263q-8 -69 -28.5 -117.5t-53.5 -81.5q-36 -36 -86 -55t-109 -19q-57 0 -100.5 17t-73.5 46.5t-45 69.5t-15 86q0 17 2 42t5 51l43 361h65l-43 -362q-4 -29 -5.5 -51t-1.5 -39q0 -75 43.5 -117.5t128.5 -42.5q45 0 83.5 13t63.5 38q29 29 43.5 70t22.5 101l47 390h62
zM285 738l-21 23l145 153q6 7 12 1l31 -38zM449 738l-21 23l144 153q6 7 12 1l32 -38z" />
    <glyph glyph-name="Uogonek" unicode="&#x172;" horiz-adv-x="653" 
d="M335 -37q-16 -16 -26 -34t-10 -35q0 -36 50 -36q11 0 29.5 3t30.5 6l6 -31q-15 -11 -38.5 -17.5t-44.5 -6.5q-39 0 -63.5 23t-24.5 54q0 18 7 34.5t17.5 30t21 23t18.5 13.5q-56 0 -99 17t-72.5 46.5t-44.5 69.5t-15 86q0 17 2 42t5 51l43 361h65l-43 -362
q-4 -29 -5.5 -51t-1.5 -39q0 -75 43.5 -117.5t128.5 -42.5q45 0 83.5 13t63.5 38q29 29 43.5 70t22.5 101l47 390h62l-48 -400q-8 -69 -28.5 -117.5t-53.5 -81.5q-25 -24 -48 -36.5t-45 -21t-41.5 -17.5t-36.5 -26z" />
    <glyph glyph-name="Wgrave" unicode="&#x1e80;" horiz-adv-x="939" 
d="M538 663q7 0 8.5 -1.5t3.5 -7.5l72 -391q11 -60 21 -112.5t15 -85.5h1q6 17 15.5 40.5t20.5 50.5t22.5 55t21.5 53l160 390q2 6 5 7.5t10 1.5h55l-279 -663h-70q-11 0 -12 9l-70 372q-5 26 -10 54.5t-9.5 56t-8 52t-4.5 42.5h-1q-5 -14 -13.5 -38t-20 -53.5t-23.5 -60.5
t-22 -58l-145 -376h-66q-11 0 -12 9l-127 654h54q7 0 9 -2t3 -7l71 -382q4 -23 9 -51t10.5 -56t9.5 -53.5t7 -43.5h1q11 33 30 87.5t40 109.5l155 398h63zM410 841l37 48q5 7 11 2l165 -139l-23 -28z" />
    <glyph glyph-name="Wacute" unicode="&#x1e82;" horiz-adv-x="939" 
d="M538 663q7 0 8.5 -1.5t3.5 -7.5l72 -391q11 -60 21 -112.5t15 -85.5h1q6 17 15.5 40.5t20.5 50.5t22.5 55t21.5 53l160 390q2 6 5 7.5t10 1.5h55l-279 -663h-70q-11 0 -12 9l-70 372q-5 26 -10 54.5t-9.5 56t-8 52t-4.5 42.5h-1q-5 -14 -13.5 -38t-20 -53.5t-23.5 -60.5
t-22 -58l-145 -376h-66q-11 0 -12 9l-127 654h54q7 0 9 -2t3 -7l71 -382q4 -23 9 -51t10.5 -56t9.5 -53.5t7 -43.5h1q11 33 30 87.5t40 109.5l155 398h63zM433 724l-17 28l197 139q7 4 11 -2l27 -48z" />
    <glyph glyph-name="Wcircumflex" unicode="&#x174;" horiz-adv-x="939" 
d="M538 663q7 0 8.5 -1.5t3.5 -7.5l72 -391q11 -60 21 -112.5t15 -85.5h1q6 17 15.5 40.5t20.5 50.5t22.5 55t21.5 53l160 390q2 6 5 7.5t10 1.5h55l-279 -663h-70q-11 0 -12 9l-70 372q-5 26 -10 54.5t-9.5 56t-8 52t-4.5 42.5h-1q-5 -14 -13.5 -38t-20 -53.5t-23.5 -60.5
t-22 -58l-145 -376h-66q-11 0 -12 9l-127 654h54q7 0 9 -2t3 -7l71 -382q4 -23 9 -51t10.5 -56t9.5 -53.5t7 -43.5h1q11 33 30 87.5t40 109.5l155 398h63zM670 736l-27 -23l-110 104h-3l-136 -104l-21 23l135 129q6 5 10 7t12 2h15q9 0 12 -2t8 -7z" />
    <glyph glyph-name="Wdieresis" unicode="&#x1e84;" horiz-adv-x="939" 
d="M538 663q7 0 8.5 -1.5t3.5 -7.5l72 -391q11 -60 21 -112.5t15 -85.5h1q6 17 15.5 40.5t20.5 50.5t22.5 55t21.5 53l160 390q2 6 5 7.5t10 1.5h55l-279 -663h-70q-11 0 -12 9l-70 372q-5 26 -10 54.5t-9.5 56t-8 52t-4.5 42.5h-1q-5 -14 -13.5 -38t-20 -53.5t-23.5 -60.5
t-22 -58l-145 -376h-66q-11 0 -12 9l-127 654h54q7 0 9 -2t3 -7l71 -382q4 -23 9 -51t10.5 -56t9.5 -53.5t7 -43.5h1q11 33 30 87.5t40 109.5l155 398h63zM413 832h60q10 0 12.5 -2.5t1.5 -10.5l-8 -69h-76zM579 832h60q10 0 12.5 -2.5t1.5 -10.5l-8 -69h-76z" />
    <glyph glyph-name="Ygrave" unicode="&#x1ef2;" horiz-adv-x="567" 
d="M620 663l-299 -441l-26 -222h-65l26 222l-196 441h57q8 0 10.5 -2t4.5 -7l80 -183q12 -28 24.5 -58t23.5 -57t19.5 -49.5t13.5 -35.5h1q8 13 21.5 35.5t31 49.5t36.5 56.5t38 57.5l123 184q5 6 8.5 7.5t10.5 1.5h57zM216 841l37 48q5 7 11 2l165 -139l-23 -28z" />
    <glyph glyph-name="Yacute" unicode="&#xdd;" horiz-adv-x="567" 
d="M620 663l-299 -441l-26 -222h-65l26 222l-196 441h57q8 0 10.5 -2t4.5 -7l80 -183q12 -28 24.5 -58t23.5 -57t19.5 -49.5t13.5 -35.5h1q8 13 21.5 35.5t31 49.5t36.5 56.5t38 57.5l123 184q5 6 8.5 7.5t10.5 1.5h57zM276 724l-17 28l197 139q7 4 11 -2l27 -48z" />
    <glyph glyph-name="Ycircumflex" unicode="&#x176;" horiz-adv-x="567" 
d="M620 663l-299 -441l-26 -222h-65l26 222l-196 441h57q8 0 10.5 -2t4.5 -7l80 -183q12 -28 24.5 -58t23.5 -57t19.5 -49.5t13.5 -35.5h1q8 13 21.5 35.5t31 49.5t36.5 56.5t38 57.5l123 184q5 6 8.5 7.5t10.5 1.5h57zM496 736l-27 -23l-110 104h-3l-136 -104l-21 23
l135 129q6 5 10 7t12 2h15q9 0 12 -2t8 -7z" />
    <glyph glyph-name="Ydieresis" unicode="&#x178;" horiz-adv-x="567" 
d="M620 663l-299 -441l-26 -222h-65l26 222l-196 441h57q8 0 10.5 -2t4.5 -7l80 -183q12 -28 24.5 -58t23.5 -57t19.5 -49.5t13.5 -35.5h1q8 13 21.5 35.5t31 49.5t36.5 56.5t38 57.5l123 184q5 6 8.5 7.5t10.5 1.5h57zM238 832h60q10 0 12.5 -2.5t1.5 -10.5l-8 -69h-76z
M404 832h60q10 0 12.5 -2.5t1.5 -10.5l-8 -69h-76z" />
    <glyph glyph-name="Zacute" unicode="&#x179;" horiz-adv-x="521" 
d="M479 54l-7 -54h-454l3 27q1 6 2.5 10t7.5 12l313 412q15 20 32.5 42t33.5 42.5t29.5 37t22.5 26.5h-377l7 54h454l-4 -28q-1 -10 -10 -22l-313 -412q-12 -17 -28.5 -38t-33 -41.5t-31.5 -39t-24 -28.5h377zM236 724l-17 28l197 139q7 4 11 -2l27 -48z" />
    <glyph glyph-name="Zcaron" unicode="&#x17d;" horiz-adv-x="521" 
d="M479 54l-7 -54h-454l3 27q1 6 2.5 10t7.5 12l313 412q15 20 32.5 42t33.5 42.5t29.5 37t22.5 26.5h-377l7 54h454l-4 -28q-1 -10 -10 -22l-313 -412q-12 -17 -28.5 -38t-33 -41.5t-31.5 -39t-24 -28.5h377zM348 732q-6 -6 -10 -7.5t-13 -1.5h-14q-8 0 -11.5 1.5t-8.5 7.5
l-104 129l27 23l110 -104h3l136 104l21 -23z" />
    <glyph glyph-name="Zdotaccent" unicode="&#x17b;" horiz-adv-x="521" 
d="M479 54l-7 -54h-454l3 27q1 6 2.5 10t7.5 12l313 412q15 20 32.5 42t33.5 42.5t29.5 37t22.5 26.5h-377l7 54h454l-4 -28q-1 -10 -10 -22l-313 -412q-12 -17 -28.5 -38t-33 -41.5t-31.5 -39t-24 -28.5h377zM291 822h67q9 0 12 -2.5t2 -10.5l-9 -72h-82z" />
    <glyph glyph-name="agrave" unicode="&#xe0;" horiz-adv-x="540" 
d="M481 484l-51 -430l70 -15l-3 -27q-14 -6 -33.5 -10t-32.5 -4q-23 0 -41 14t-21 37l-22 -13q-75 -44 -135 -44q-42 0 -74.5 16.5t-55 45t-34 67t-11.5 83.5q0 61 19 114.5t51.5 93t75.5 62t91 22.5q58 0 120 -40l26 -17l20 49zM359 91q8 5 11 9t4 12l32 270q1 8 -0.5 12.5
t-12.5 10.5q-27 16 -58 25.5t-60 9.5q-38 0 -70 -16.5t-55.5 -47t-36.5 -74t-13 -96.5q0 -70 29 -114.5t94 -44.5q32 0 70 13.5t66 30.5zM194 655l37 48q5 7 11 2l165 -139l-23 -28z" />
    <glyph glyph-name="aacute" unicode="&#xe1;" horiz-adv-x="540" 
d="M481 484l-51 -430l70 -15l-3 -27q-14 -6 -33.5 -10t-32.5 -4q-23 0 -41 14t-21 37l-22 -13q-75 -44 -135 -44q-42 0 -74.5 16.5t-55 45t-34 67t-11.5 83.5q0 61 19 114.5t51.5 93t75.5 62t91 22.5q58 0 120 -40l26 -17l20 49zM359 91q8 5 11 9t4 12l32 270q1 8 -0.5 12.5
t-12.5 10.5q-27 16 -58 25.5t-60 9.5q-38 0 -70 -16.5t-55.5 -47t-36.5 -74t-13 -96.5q0 -70 29 -114.5t94 -44.5q32 0 70 13.5t66 30.5zM217 538l-17 28l197 139q7 4 11 -2l27 -48z" />
    <glyph glyph-name="acircumflex" unicode="&#xe2;" horiz-adv-x="540" 
d="M481 484l-51 -430l70 -15l-3 -27q-14 -6 -33.5 -10t-32.5 -4q-23 0 -41 14t-21 37l-22 -13q-75 -44 -135 -44q-42 0 -74.5 16.5t-55 45t-34 67t-11.5 83.5q0 61 19 114.5t51.5 93t75.5 62t91 22.5q58 0 120 -40l26 -17l20 49zM359 91q8 5 11 9t4 12l32 270q1 8 -0.5 12.5
t-12.5 10.5q-27 16 -58 25.5t-60 9.5q-38 0 -70 -16.5t-55.5 -47t-36.5 -74t-13 -96.5q0 -70 29 -114.5t94 -44.5q32 0 70 13.5t66 30.5zM443 566l-27 -23l-110 104h-3l-136 -104l-21 23l135 129q6 5 10 7t12 2h15q9 0 12 -2t8 -7z" />
    <glyph glyph-name="atilde" unicode="&#xe3;" horiz-adv-x="540" 
d="M481 484l-51 -430l70 -15l-3 -27q-14 -6 -33.5 -10t-32.5 -4q-23 0 -41 14t-21 37l-22 -13q-75 -44 -135 -44q-42 0 -74.5 16.5t-55 45t-34 67t-11.5 83.5q0 61 19 114.5t51.5 93t75.5 62t91 22.5q58 0 120 -40l26 -17l20 49zM359 91q8 5 11 9t4 12l32 270q1 8 -0.5 12.5
t-12.5 10.5q-27 16 -58 25.5t-60 9.5q-38 0 -70 -16.5t-55.5 -47t-36.5 -74t-13 -96.5q0 -70 29 -114.5t94 -44.5q32 0 70 13.5t66 30.5zM361 570q-17 0 -33 6.5t-31.5 15t-30.5 15t-30 6.5q-14 0 -30 -9.5t-30 -33.5l-30 10q16 41 41 64t57 23q16 0 32.5 -7t32 -15
t30.5 -15t30 -7q14 0 30 10t30 34l30 -10q-16 -41 -41 -64t-57 -23z" />
    <glyph glyph-name="adieresis" unicode="&#xe4;" horiz-adv-x="540" 
d="M481 484l-51 -430l70 -15l-3 -27q-14 -6 -33.5 -10t-32.5 -4q-23 0 -41 14t-21 37l-22 -13q-75 -44 -135 -44q-42 0 -74.5 16.5t-55 45t-34 67t-11.5 83.5q0 61 19 114.5t51.5 93t75.5 62t91 22.5q58 0 120 -40l26 -17l20 49zM359 91q8 5 11 9t4 12l32 270q1 8 -0.5 12.5
t-12.5 10.5q-27 16 -58 25.5t-60 9.5q-38 0 -70 -16.5t-55.5 -47t-36.5 -74t-13 -96.5q0 -70 29 -114.5t94 -44.5q32 0 70 13.5t66 30.5zM184 652h60q10 0 12.5 -2.5t1.5 -10.5l-8 -69h-76zM350 652h60q10 0 12.5 -2.5t1.5 -10.5l-8 -69h-76z" />
    <glyph glyph-name="amacron" unicode="&#x101;" horiz-adv-x="540" 
d="M481 484l-51 -430l70 -15l-3 -27q-14 -6 -33.5 -10t-32.5 -4q-23 0 -41 14t-21 37l-22 -13q-75 -44 -135 -44q-42 0 -74.5 16.5t-55 45t-34 67t-11.5 83.5q0 61 19 114.5t51.5 93t75.5 62t91 22.5q58 0 120 -40l26 -17l20 49zM359 91q8 5 11 9t4 12l32 270q1 8 -0.5 12.5
t-12.5 10.5q-27 16 -58 25.5t-60 9.5q-38 0 -70 -16.5t-55.5 -47t-36.5 -74t-13 -96.5q0 -70 29 -114.5t94 -44.5q32 0 70 13.5t66 30.5zM152 579l6 50h278l-6 -50h-278z" />
    <glyph glyph-name="abreve" unicode="&#x103;" horiz-adv-x="540" 
d="M481 484l-51 -430l70 -15l-3 -27q-14 -6 -33.5 -10t-32.5 -4q-23 0 -41 14t-21 37l-22 -13q-75 -44 -135 -44q-42 0 -74.5 16.5t-55 45t-34 67t-11.5 83.5q0 61 19 114.5t51.5 93t75.5 62t91 22.5q58 0 120 -40l26 -17l20 49zM359 91q8 5 11 9t4 12l32 270q1 8 -0.5 12.5
t-12.5 10.5q-27 16 -58 25.5t-60 9.5q-38 0 -70 -16.5t-55.5 -47t-36.5 -74t-13 -96.5q0 -70 29 -114.5t94 -44.5q32 0 70 13.5t66 30.5zM289 552q-52 0 -87 33.5t-40 95.5l36 6q10 -38 34.5 -59t62.5 -21t68.5 21t48.5 59l34 -6q-19 -62 -61.5 -95.5t-95.5 -33.5z" />
    <glyph glyph-name="acaron" unicode="&#x1ce;" horiz-adv-x="540" 
d="M481 484l-51 -430l70 -15l-3 -27q-14 -6 -33.5 -10t-32.5 -4q-23 0 -41 14t-21 37l-22 -13q-75 -44 -135 -44q-42 0 -74.5 16.5t-55 45t-34 67t-11.5 83.5q0 61 19 114.5t51.5 93t75.5 62t91 22.5q58 0 120 -40l26 -17l20 49zM359 91q8 5 11 9t4 12l32 270q1 8 -0.5 12.5
t-12.5 10.5q-27 16 -58 25.5t-60 9.5q-38 0 -70 -16.5t-55.5 -47t-36.5 -74t-13 -96.5q0 -70 29 -114.5t94 -44.5q32 0 70 13.5t66 30.5zM319 552q-6 -6 -10 -7.5t-13 -1.5h-14q-8 0 -11.5 1.5t-8.5 7.5l-104 129l27 23l110 -104h3l136 104l21 -23z" />
    <glyph glyph-name="aring" unicode="&#xe5;" horiz-adv-x="540" 
d="M481 484l-51 -430l70 -15l-3 -27q-14 -6 -33.5 -10t-32.5 -4q-23 0 -41 14t-21 37l-22 -13q-75 -44 -135 -44q-42 0 -74.5 16.5t-55 45t-34 67t-11.5 83.5q0 61 19 114.5t51.5 93t75.5 62t91 22.5q58 0 120 -40l26 -17l20 49zM359 91q8 5 11 9t4 12l32 270q1 8 -0.5 12.5
t-12.5 10.5q-27 16 -58 25.5t-60 9.5q-38 0 -70 -16.5t-55.5 -47t-36.5 -74t-13 -96.5q0 -70 29 -114.5t94 -44.5q32 0 70 13.5t66 30.5zM409 656q0 -21 -8 -40t-22 -33t-33 -22.5t-40 -8.5q-43 0 -69 28t-26 66q0 21 8 40t22 33t33 22.5t40 8.5q43 0 69 -28t26 -66z
M366 654q0 20 -13.5 37.5t-39.5 17.5q-24 0 -41.5 -16t-17.5 -45q0 -20 13.5 -37.5t39.5 -17.5q24 0 41.5 16t17.5 45z" />
    <glyph glyph-name="aringacute" unicode="&#x1fb;" horiz-adv-x="540" 
d="M481 484l-51 -430l70 -15l-3 -27q-14 -6 -33.5 -10t-32.5 -4q-23 0 -41 14t-21 37l-22 -13q-75 -44 -135 -44q-42 0 -74.5 16.5t-55 45t-34 67t-11.5 83.5q0 61 19 114.5t51.5 93t75.5 62t91 22.5q58 0 120 -40l26 -17l20 49zM359 91q8 5 11 9t4 12l32 270q1 8 -0.5 12.5
t-12.5 10.5q-27 16 -58 25.5t-60 9.5q-38 0 -70 -16.5t-55.5 -47t-36.5 -74t-13 -96.5q0 -70 29 -114.5t94 -44.5q32 0 70 13.5t66 30.5zM409 645q0 -21 -8 -40t-22 -33t-33 -22.5t-40 -8.5q-43 0 -69 28t-26 66q0 21 8 40t22 33t33 22.5t40 8.5q43 0 69 -28t26 -66z
M366 643q0 20 -13.5 37.5t-39.5 17.5q-24 0 -41.5 -16t-17.5 -45q0 -20 13.5 -37.5t39.5 -17.5q24 0 41.5 16t17.5 45zM248 748l-17 28l197 139q7 4 11 -2l27 -48z" />
    <glyph glyph-name="aogonek" unicode="&#x105;" horiz-adv-x="540" 
d="M481 484l-51 -430l70 -15l-3 -27q-25 -10 -49.5 -22t-43.5 -26.5t-31 -32t-12 -37.5q0 -36 50 -36q11 0 29.5 3t30.5 6l6 -31q-15 -11 -38.5 -17.5t-44.5 -6.5q-39 0 -63.5 23t-24.5 54q0 19 8 36.5t22 32t31.5 26t37.5 19.5q-15 6 -24.5 19t-11.5 27l-22 -13
q-75 -44 -135 -44q-42 0 -74.5 16.5t-55 45t-34 67t-11.5 83.5q0 61 19 114.5t51.5 93t75.5 62t91 22.5q58 0 120 -40l26 -17l20 49zM359 91q8 5 11 9t4 12l32 270q1 8 -0.5 12.5t-12.5 10.5q-27 16 -58 25.5t-60 9.5q-38 0 -70 -16.5t-55.5 -47t-36.5 -74t-13 -96.5
q0 -70 29 -114.5t94 -44.5q32 0 70 13.5t66 30.5z" />
    <glyph glyph-name="ae" unicode="&#xe6;" horiz-adv-x="842" 
d="M212 46q19 0 43 5t48.5 14t48.5 21t42 25q-11 25 -15.5 54.5t-2.5 61.5h-155q-21 0 -43 -1.5t-40.5 -9t-30 -24t-11.5 -47.5q0 -48 31.5 -73.5t84.5 -25.5zM382 54q-46 -30 -88 -46t-90 -16q-34 0 -64.5 10t-54 29t-37 47t-13.5 64q0 72 49.5 104t135.5 32q6 0 22 -0.5
t48 -2.5l91 -4q4 24 6.5 42.5t2.5 32.5q0 52 -30 73t-76 21q-38 0 -66 -6t-49 -13l-55 -18l-13 35q51 29 96.5 43.5t91.5 14.5q54 0 95 -23.5t53 -72.5q13 18 31.5 35t42 30.5t52 22t60.5 8.5q44 0 79.5 -17t60 -46t38 -67t13.5 -81q0 -33 -8 -45.5t-27 -12.5h-339
q-1 -4 -1 -7.5v-5.5q0 -36 9 -66.5t28 -53t48 -35t69 -12.5q49 0 123 29l56 22l17 -30q-20 -15 -44 -29t-51 -24.5t-54.5 -16.5t-54.5 -6q-44 0 -80.5 13.5t-62.5 38.5q-10 9 -16.5 17.5t-10.5 14.5zM756 275q0 77 -36 121t-102 44q-35 0 -64 -12.5t-51.5 -35t-37 -52.5
t-20.5 -65h311z" />
    <glyph glyph-name="aeacute" unicode="&#x1fd;" horiz-adv-x="842" 
d="M212 46q19 0 43 5t48.5 14t48.5 21t42 25q-11 25 -15.5 54.5t-2.5 61.5h-155q-21 0 -43 -1.5t-40.5 -9t-30 -24t-11.5 -47.5q0 -48 31.5 -73.5t84.5 -25.5zM382 54q-46 -30 -88 -46t-90 -16q-34 0 -64.5 10t-54 29t-37 47t-13.5 64q0 72 49.5 104t135.5 32q6 0 22 -0.5
t48 -2.5l91 -4q4 24 6.5 42.5t2.5 32.5q0 52 -30 73t-76 21q-38 0 -66 -6t-49 -13l-55 -18l-13 35q51 29 96.5 43.5t91.5 14.5q54 0 95 -23.5t53 -72.5q13 18 31.5 35t42 30.5t52 22t60.5 8.5q44 0 79.5 -17t60 -46t38 -67t13.5 -81q0 -33 -8 -45.5t-27 -12.5h-339
q-1 -4 -1 -7.5v-5.5q0 -36 9 -66.5t28 -53t48 -35t69 -12.5q49 0 123 29l56 22l17 -30q-20 -15 -44 -29t-51 -24.5t-54.5 -16.5t-54.5 -6q-44 0 -80.5 13.5t-62.5 38.5q-10 9 -16.5 17.5t-10.5 14.5zM756 275q0 77 -36 121t-102 44q-35 0 -64 -12.5t-51.5 -35t-37 -52.5
t-20.5 -65h311zM431 538l-17 28l197 139q7 4 11 -2l27 -48z" />
    <glyph glyph-name="cacute" unicode="&#x107;" horiz-adv-x="488" 
d="M441 72q-42 -34 -96 -57t-109 -23q-44 0 -78.5 14t-59.5 39q-30 31 -46 74t-16 94q0 55 17.5 106t49.5 90.5t76 63t98 23.5q34 0 63.5 -10.5t53 -28.5t40 -42t23.5 -51l-42 -21l-23 27q-30 35 -56.5 53.5t-61.5 18.5q-37 0 -69 -16.5t-55.5 -46.5t-37 -72t-13.5 -92
q0 -84 43 -129q37 -39 104 -39q55 0 121 30l56 25zM207 538l-17 28l197 139q7 4 11 -2l27 -48z" />
    <glyph glyph-name="ccedilla" unicode="&#xe7;" horiz-adv-x="488" 
d="M441 72q-42 -34 -96 -57t-109 -23h-3q-8 -14 -8 -25t15.5 -17t33.5 -14.5t33.5 -22t15.5 -37.5q0 -22 -14.5 -38.5t-38 -27.5t-53.5 -17.5t-62 -7.5l-7 35l68 16q24 6 37 13t13 18q0 12 -15 19t-33 14.5t-33 17t-15 25.5q0 12 7.5 25.5t18.5 27.5q-30 5 -54.5 17.5
t-43.5 31.5q-30 31 -46 74t-16 94q0 55 17.5 106t49.5 90.5t76 63t98 23.5q34 0 63.5 -10.5t53 -28.5t40 -42t23.5 -51l-42 -21l-23 27q-30 35 -56.5 53.5t-61.5 18.5q-37 0 -69 -16.5t-55.5 -46.5t-37 -72t-13.5 -92q0 -84 43 -129q37 -39 104 -39q55 0 121 30l56 25z" />
    <glyph glyph-name="ccircumflex" unicode="&#x109;" horiz-adv-x="488" 
d="M441 72q-42 -34 -96 -57t-109 -23q-44 0 -78.5 14t-59.5 39q-30 31 -46 74t-16 94q0 55 17.5 106t49.5 90.5t76 63t98 23.5q34 0 63.5 -10.5t53 -28.5t40 -42t23.5 -51l-42 -21l-23 27q-30 35 -56.5 53.5t-61.5 18.5q-37 0 -69 -16.5t-55.5 -46.5t-37 -72t-13.5 -92
q0 -84 43 -129q37 -39 104 -39q55 0 121 30l56 25zM441 566l-27 -23l-110 104h-3l-136 -104l-21 23l135 129q6 5 10 7t12 2h15q9 0 12 -2t8 -7z" />
    <glyph glyph-name="ccaron" unicode="&#x10d;" horiz-adv-x="488" 
d="M441 72q-42 -34 -96 -57t-109 -23q-44 0 -78.5 14t-59.5 39q-30 31 -46 74t-16 94q0 55 17.5 106t49.5 90.5t76 63t98 23.5q34 0 63.5 -10.5t53 -28.5t40 -42t23.5 -51l-42 -21l-23 27q-30 35 -56.5 53.5t-61.5 18.5q-37 0 -69 -16.5t-55.5 -46.5t-37 -72t-13.5 -92
q0 -84 43 -129q37 -39 104 -39q55 0 121 30l56 25zM312 552q-6 -6 -10 -7.5t-13 -1.5h-14q-8 0 -11.5 1.5t-8.5 7.5l-104 129l27 23l110 -104h3l136 104l21 -23z" />
    <glyph glyph-name="cdotaccent" unicode="&#x10b;" horiz-adv-x="488" 
d="M441 72q-42 -34 -96 -57t-109 -23q-44 0 -78.5 14t-59.5 39q-30 31 -46 74t-16 94q0 55 17.5 106t49.5 90.5t76 63t98 23.5q34 0 63.5 -10.5t53 -28.5t40 -42t23.5 -51l-42 -21l-23 27q-30 35 -56.5 53.5t-61.5 18.5q-37 0 -69 -16.5t-55.5 -46.5t-37 -72t-13.5 -92
q0 -84 43 -129q37 -39 104 -39q55 0 121 30l56 25zM257 652h67q9 0 12 -2.5t2 -10.5l-9 -72h-82z" />
    <glyph glyph-name="dcaron" unicode="&#x10f;" horiz-adv-x="597" 
d="M274 496q30 0 58.5 -9.5t60.5 -30.5l23 -15l32 268h63l-78 -655l70 -15l-3 -27q-14 -6 -33.5 -10t-32.5 -4q-23 0 -41 14t-21 37l-22 -13q-38 -23 -73 -33.5t-65 -10.5q-42 0 -74.5 16.5t-55 45t-34 67t-11.5 83.5q0 61 19 114.5t51.5 93t75.5 62t91 22.5zM362 91
q8 5 11 8.5t4 11.5l32 269q1 8 -0.5 12t-12.5 11q-60 37 -121 37q-38 0 -70 -16.5t-55.5 -47t-36.5 -74t-13 -96.5q0 -70 29 -114.5t94 -44.5q32 0 71.5 13.5t67.5 30.5zM542 517l55 192h52q13 0 13 -11q0 -7 -1 -14t-4.5 -16t-9.5 -21t-16 -29l-61 -107z" />
    <glyph glyph-name="dcroat" unicode="&#x111;" horiz-adv-x="541" 
d="M274 496q30 0 58.5 -9.5t60.5 -30.5l23 -15l17 142h-199l4 46h200l10 80h63l-10 -83l75 -14l-2 -29h-78l-63 -529l70 -15l-3 -27q-14 -6 -33.5 -10t-32.5 -4q-23 0 -41 14t-21 37l-22 -13q-38 -23 -73 -33.5t-65 -10.5q-42 0 -74.5 16.5t-55 45t-34 67t-11.5 83.5
q0 61 19 114.5t51.5 93t75.5 62t91 22.5zM362 91q8 5 11 8.5t4 11.5l32 269q1 8 -0.5 12t-12.5 11q-60 37 -121 37q-38 0 -70 -16.5t-55.5 -47t-36.5 -74t-13 -96.5q0 -70 29 -114.5t94 -44.5q32 0 71.5 13.5t67.5 30.5z" />
    <glyph glyph-name="eth" unicode="&#xf0;" horiz-adv-x="525" 
d="M293 625q-22 18 -50.5 36t-58.5 35l22 31q41 -17 74 -37.5t62 -43.5l128 56l20 -40l-110 -49q104 -109 104 -270q0 -79 -18.5 -143.5t-52 -110.5t-79.5 -71.5t-101 -25.5q-46 0 -83.5 17.5t-64.5 47.5t-41.5 70.5t-14.5 86.5q0 54 18 99.5t49.5 79.5t74 53t92.5 19
q38 0 79 -14t76 -34q-2 24 -10 48t-20 46.5t-27 43t-33 36.5l-127 -57l-19 40zM425 348q0 10 -3 16t-14 12q-26 15 -63.5 25t-75.5 10q-80 0 -129.5 -49t-49.5 -148q0 -35 9.5 -65t27.5 -52.5t45 -35.5t63 -13q43 0 78.5 20.5t60 59.5t38 94.5t13.5 125.5z" />
    <glyph glyph-name="egrave" unicode="&#xe8;" horiz-adv-x="516" 
d="M100 230q-1 -5 -1 -8.5v-7.5q0 -36 9 -66.5t28 -53t48 -35t69 -12.5q49 0 123 29l56 22l17 -30q-20 -15 -44 -29t-51 -24.5t-54.5 -16.5t-54.5 -6q-44 0 -80.5 13.5t-62.5 38.5q-32 30 -49 73.5t-17 96.5q0 58 19 109.5t52.5 90t78.5 60.5t97 22q44 0 79.5 -17t60 -45.5
t38 -66.5t13.5 -79q0 -33 -8 -45.5t-27 -12.5h-339zM416 278q0 74 -36 118t-102 44q-35 0 -64 -12.5t-51 -34.5t-36.5 -51.5t-20.5 -63.5h310zM189 655l37 48q5 7 11 2l165 -139l-23 -28z" />
    <glyph glyph-name="eacute" unicode="&#xe9;" horiz-adv-x="516" 
d="M100 230q-1 -5 -1 -8.5v-7.5q0 -36 9 -66.5t28 -53t48 -35t69 -12.5q49 0 123 29l56 22l17 -30q-20 -15 -44 -29t-51 -24.5t-54.5 -16.5t-54.5 -6q-44 0 -80.5 13.5t-62.5 38.5q-32 30 -49 73.5t-17 96.5q0 58 19 109.5t52.5 90t78.5 60.5t97 22q44 0 79.5 -17t60 -45.5
t38 -66.5t13.5 -79q0 -33 -8 -45.5t-27 -12.5h-339zM416 278q0 74 -36 118t-102 44q-35 0 -64 -12.5t-51 -34.5t-36.5 -51.5t-20.5 -63.5h310zM202 538l-17 28l197 139q7 4 11 -2l27 -48z" />
    <glyph glyph-name="ecircumflex" unicode="&#xea;" horiz-adv-x="516" 
d="M100 230q-1 -5 -1 -8.5v-7.5q0 -36 9 -66.5t28 -53t48 -35t69 -12.5q49 0 123 29l56 22l17 -30q-20 -15 -44 -29t-51 -24.5t-54.5 -16.5t-54.5 -6q-44 0 -80.5 13.5t-62.5 38.5q-32 30 -49 73.5t-17 96.5q0 58 19 109.5t52.5 90t78.5 60.5t97 22q44 0 79.5 -17t60 -45.5
t38 -66.5t13.5 -79q0 -33 -8 -45.5t-27 -12.5h-339zM416 278q0 74 -36 118t-102 44q-35 0 -64 -12.5t-51 -34.5t-36.5 -51.5t-20.5 -63.5h310zM447 566l-27 -23l-110 104h-3l-136 -104l-21 23l135 129q6 5 10 7t12 2h15q9 0 12 -2t8 -7z" />
    <glyph glyph-name="ecaron" unicode="&#x11b;" horiz-adv-x="516" 
d="M100 230q-1 -5 -1 -8.5v-7.5q0 -36 9 -66.5t28 -53t48 -35t69 -12.5q49 0 123 29l56 22l17 -30q-20 -15 -44 -29t-51 -24.5t-54.5 -16.5t-54.5 -6q-44 0 -80.5 13.5t-62.5 38.5q-32 30 -49 73.5t-17 96.5q0 58 19 109.5t52.5 90t78.5 60.5t97 22q44 0 79.5 -17t60 -45.5
t38 -66.5t13.5 -79q0 -33 -8 -45.5t-27 -12.5h-339zM416 278q0 74 -36 118t-102 44q-35 0 -64 -12.5t-51 -34.5t-36.5 -51.5t-20.5 -63.5h310zM322 552q-6 -6 -10 -7.5t-13 -1.5h-14q-8 0 -11.5 1.5t-8.5 7.5l-104 129l27 23l110 -104h3l136 104l21 -23z" />
    <glyph glyph-name="edieresis" unicode="&#xeb;" horiz-adv-x="516" 
d="M100 230q-1 -5 -1 -8.5v-7.5q0 -36 9 -66.5t28 -53t48 -35t69 -12.5q49 0 123 29l56 22l17 -30q-20 -15 -44 -29t-51 -24.5t-54.5 -16.5t-54.5 -6q-44 0 -80.5 13.5t-62.5 38.5q-32 30 -49 73.5t-17 96.5q0 58 19 109.5t52.5 90t78.5 60.5t97 22q44 0 79.5 -17t60 -45.5
t38 -66.5t13.5 -79q0 -33 -8 -45.5t-27 -12.5h-339zM416 278q0 74 -36 118t-102 44q-35 0 -64 -12.5t-51 -34.5t-36.5 -51.5t-20.5 -63.5h310zM185 652h60q10 0 12.5 -2.5t1.5 -10.5l-8 -69h-76zM351 652h60q10 0 12.5 -2.5t1.5 -10.5l-8 -69h-76z" />
    <glyph glyph-name="emacron" unicode="&#x113;" horiz-adv-x="516" 
d="M100 230q-1 -5 -1 -8.5v-7.5q0 -36 9 -66.5t28 -53t48 -35t69 -12.5q49 0 123 29l56 22l17 -30q-20 -15 -44 -29t-51 -24.5t-54.5 -16.5t-54.5 -6q-44 0 -80.5 13.5t-62.5 38.5q-32 30 -49 73.5t-17 96.5q0 58 19 109.5t52.5 90t78.5 60.5t97 22q44 0 79.5 -17t60 -45.5
t38 -66.5t13.5 -79q0 -33 -8 -45.5t-27 -12.5h-339zM416 278q0 74 -36 118t-102 44q-35 0 -64 -12.5t-51 -34.5t-36.5 -51.5t-20.5 -63.5h310zM156 579l6 50h278l-6 -50h-278z" />
    <glyph glyph-name="ebreve" unicode="&#x115;" horiz-adv-x="516" 
d="M100 230q-1 -5 -1 -8.5v-7.5q0 -36 9 -66.5t28 -53t48 -35t69 -12.5q49 0 123 29l56 22l17 -30q-20 -15 -44 -29t-51 -24.5t-54.5 -16.5t-54.5 -6q-44 0 -80.5 13.5t-62.5 38.5q-32 30 -49 73.5t-17 96.5q0 58 19 109.5t52.5 90t78.5 60.5t97 22q44 0 79.5 -17t60 -45.5
t38 -66.5t13.5 -79q0 -33 -8 -45.5t-27 -12.5h-339zM416 278q0 74 -36 118t-102 44q-35 0 -64 -12.5t-51 -34.5t-36.5 -51.5t-20.5 -63.5h310zM298 552q-52 0 -87 33.5t-40 95.5l36 6q10 -38 34.5 -59t62.5 -21t68.5 21t48.5 59l34 -6q-19 -62 -61.5 -95.5t-95.5 -33.5z" />
    <glyph glyph-name="edotaccent" unicode="&#x117;" horiz-adv-x="516" 
d="M100 230q-1 -5 -1 -8.5v-7.5q0 -36 9 -66.5t28 -53t48 -35t69 -12.5q49 0 123 29l56 22l17 -30q-20 -15 -44 -29t-51 -24.5t-54.5 -16.5t-54.5 -6q-44 0 -80.5 13.5t-62.5 38.5q-32 30 -49 73.5t-17 96.5q0 58 19 109.5t52.5 90t78.5 60.5t97 22q44 0 79.5 -17t60 -45.5
t38 -66.5t13.5 -79q0 -33 -8 -45.5t-27 -12.5h-339zM416 278q0 74 -36 118t-102 44q-35 0 -64 -12.5t-51 -34.5t-36.5 -51.5t-20.5 -63.5h310zM263 652h67q9 0 12 -2.5t2 -10.5l-9 -72h-82z" />
    <glyph glyph-name="eogonek" unicode="&#x119;" horiz-adv-x="516" 
d="M449 68q-72 -56 -106.5 -95.5t-34.5 -75.5q0 -20 13.5 -29.5t36.5 -9.5q11 0 29.5 3t30.5 6l7 -31q-16 -11 -39 -17.5t-45 -6.5q-36 0 -62 21t-26 61q0 32 21 61t53 52q-17 -8 -38 -11.5t-44 -3.5q-44 0 -80.5 13.5t-62.5 38.5q-32 30 -49 73.5t-17 96.5q0 58 19 109.5
t52.5 90t78.5 60.5t97 22q44 0 79.5 -17t60 -45.5t38 -66.5t13.5 -79q0 -33 -8 -45.5t-27 -12.5h-339q-1 -5 -1 -8.5v-7.5q0 -36 9 -66.5t28 -53t48 -35t69 -12.5q49 0 123 29l56 22zM416 278q0 74 -36 118t-102 44q-35 0 -64 -12.5t-51 -34.5t-36.5 -51.5t-20.5 -63.5h310z
" />
    <glyph glyph-name="gcircumflex" unicode="&#x11d;" horiz-adv-x="530" 
d="M353 42q-38 -23 -75 -33.5t-67 -10.5q-41 0 -73.5 16.5t-55 45t-34 67t-11.5 83.5q0 61 19 113.5t51.5 91t75.5 60t91 21.5q30 0 62 -10t64 -30l26 -17l20 49l41 -4l-61 -508q-7 -54 -20.5 -90.5t-38.5 -62.5t-61 -40.5t-87 -14.5q-34 0 -72.5 8t-70.5 23l11 34l30 -4
q27 -4 53 -6.5t41 -2.5q42 0 70 11t45 33q16 20 24.5 50t13.5 71l8 68zM365 97q8 5 11 9t4 12l32 264q1 8 -0.5 12.5t-12.5 10.5q-29 17 -62 26t-62 9q-38 0 -70 -15.5t-55.5 -45t-36.5 -72t-13 -95.5q0 -70 28.5 -114.5t93.5 -44.5q16 0 35 4t38.5 10t37.5 14t32 16z
M454 566l-27 -23l-110 104h-3l-136 -104l-21 23l135 129q6 5 10 7t12 2h15q9 0 12 -2t8 -7z" />
    <glyph glyph-name="gbreve" unicode="&#x11f;" horiz-adv-x="530" 
d="M353 42q-38 -23 -75 -33.5t-67 -10.5q-41 0 -73.5 16.5t-55 45t-34 67t-11.5 83.5q0 61 19 113.5t51.5 91t75.5 60t91 21.5q30 0 62 -10t64 -30l26 -17l20 49l41 -4l-61 -508q-7 -54 -20.5 -90.5t-38.5 -62.5t-61 -40.5t-87 -14.5q-34 0 -72.5 8t-70.5 23l11 34l30 -4
q27 -4 53 -6.5t41 -2.5q42 0 70 11t45 33q16 20 24.5 50t13.5 71l8 68zM365 97q8 5 11 9t4 12l32 264q1 8 -0.5 12.5t-12.5 10.5q-29 17 -62 26t-62 9q-38 0 -70 -15.5t-55.5 -45t-36.5 -72t-13 -95.5q0 -70 28.5 -114.5t93.5 -44.5q16 0 35 4t38.5 10t37.5 14t32 16z
M307 552q-52 0 -87 33.5t-40 95.5l36 6q10 -38 34.5 -59t62.5 -21t68.5 21t48.5 59l34 -6q-19 -62 -61.5 -95.5t-95.5 -33.5z" />
    <glyph glyph-name="gdotaccent" unicode="&#x121;" horiz-adv-x="530" 
d="M353 42q-38 -23 -75 -33.5t-67 -10.5q-41 0 -73.5 16.5t-55 45t-34 67t-11.5 83.5q0 61 19 113.5t51.5 91t75.5 60t91 21.5q30 0 62 -10t64 -30l26 -17l20 49l41 -4l-61 -508q-7 -54 -20.5 -90.5t-38.5 -62.5t-61 -40.5t-87 -14.5q-34 0 -72.5 8t-70.5 23l11 34l30 -4
q27 -4 53 -6.5t41 -2.5q42 0 70 11t45 33q16 20 24.5 50t13.5 71l8 68zM365 97q8 5 11 9t4 12l32 264q1 8 -0.5 12.5t-12.5 10.5q-29 17 -62 26t-62 9q-38 0 -70 -15.5t-55.5 -45t-36.5 -72t-13 -95.5q0 -70 28.5 -114.5t93.5 -44.5q16 0 35 4t38.5 10t37.5 14t32 16z
M273 652h67q9 0 12 -2.5t2 -10.5l-9 -72h-82z" />
    <glyph glyph-name="gcommaaccent" unicode="&#x123;" horiz-adv-x="530" 
d="M385 744l-55 -192h-52q-13 0 -13 11q0 7 1 13.5t4.5 15.5t9.5 21.5t16 29.5l61 107zM353 42q-38 -23 -75 -33.5t-67 -10.5q-41 0 -73.5 16.5t-55 45t-34 67t-11.5 83.5q0 61 19 113.5t51.5 91t75.5 60t91 21.5q30 0 62 -10t64 -30l26 -17l20 49l41 -4l-61 -508
q-7 -54 -20.5 -90.5t-38.5 -62.5t-61 -40.5t-87 -14.5q-34 0 -72.5 8t-70.5 23l11 34l30 -4q27 -4 53 -6.5t41 -2.5q42 0 70 11t45 33q16 20 24.5 50t13.5 71l8 68zM365 97q8 5 11 9t4 12l32 264q1 8 -0.5 12.5t-12.5 10.5q-29 17 -62 26t-62 9q-38 0 -70 -15.5t-55.5 -45
t-36.5 -72t-13 -95.5q0 -70 28.5 -114.5t93.5 -44.5q16 0 35 4t38.5 10t37.5 14t32 16z" />
    <glyph glyph-name="hcircumflex" unicode="&#x125;" horiz-adv-x="531" 
d="M180 462q76 34 136 34q33 0 61.5 -9.5t50.5 -27.5t34.5 -45t12.5 -62q0 -11 -1.5 -26.5t-3.5 -35.5l-34 -290h-63l35 293q2 18 3.5 32t1.5 24q0 43 -29.5 65.5t-83.5 22.5q-30 0 -63 -6.5t-62 -17.5l-16 -6q-8 -3 -10 -6t-3 -9l-46 -392h-63l84 709h63l-31 -259zM298 720
l-27 -23l-110 104h-3l-136 -104l-21 23l135 129q6 5 10 7t12 2h15q9 0 12 -2t8 -7z" />
    <glyph glyph-name="hbar" unicode="&#x127;" horiz-adv-x="532" 
d="M181 462q76 34 136 34q33 0 61.5 -9.5t50.5 -27.5t34.5 -45t12.5 -62q0 -11 -1.5 -26.5t-3.5 -35.5l-34 -290h-63l35 293q2 18 3.5 32t1.5 24q0 43 -29.5 65.5t-83.5 22.5q-30 0 -63 -6.5t-62 -17.5l-16 -6q-8 -3 -10 -6t-3 -9l-46 -392h-63l69 583h-78l4 29l79 14l10 83
h63l-10 -80h200l-6 -46h-199l-16 -133z" />
    <glyph glyph-name="dotlessi" unicode="&#x131;" horiz-adv-x="212" 
d="M103 488h63l-58 -488h-63z" />
    <glyph glyph-name="igrave" unicode="&#xec;" horiz-adv-x="207" 
d="M102 488h63l-58 -488h-63zM38 655l37 48q5 7 11 2l165 -139l-23 -28z" />
    <glyph glyph-name="iacute" unicode="&#xed;" horiz-adv-x="207" 
d="M103 488h63l-58 -488h-63zM63 538l-17 28l197 139q7 4 11 -2l27 -48z" />
    <glyph glyph-name="icircumflex" unicode="&#xee;" horiz-adv-x="204" 
d="M101 488h63l-58 -488h-63zM290 566l-27 -23l-110 104h-3l-136 -104l-21 23l135 129q6 5 10 7t12 2h15q9 0 12 -2t8 -7z" />
    <glyph glyph-name="itilde" unicode="&#x129;" horiz-adv-x="204" 
d="M101 488h63l-58 -488h-63zM207 570q-17 0 -33 6.5t-31.5 15t-30.5 15t-30 6.5q-14 0 -30 -9.5t-30 -33.5l-30 10q16 41 41 64t57 23q16 0 32.5 -7t32 -15t30.5 -15t30 -7q14 0 30 10t30 34l30 -10q-16 -41 -41 -64t-57 -23z" />
    <glyph glyph-name="idieresis" unicode="&#xef;" horiz-adv-x="205" 
d="M101 488h63l-58 -488h-63zM29 652h60q10 0 12.5 -2.5t1.5 -10.5l-8 -69h-76zM195 652h60q10 0 12.5 -2.5t1.5 -10.5l-8 -69h-76z" />
    <glyph glyph-name="imacron" unicode="&#x12b;" horiz-adv-x="204" 
d="M101 488h63l-58 -488h-63zM5 579l6 50h278l-6 -50h-278z" />
    <glyph glyph-name="ibreve" unicode="&#x12d;" horiz-adv-x="204" 
d="M101 488h63l-58 -488h-63zM141 552q-52 0 -87 33.5t-40 95.5l36 6q10 -38 34.5 -59t62.5 -21t68.5 21t48.5 59l34 -6q-19 -62 -61.5 -95.5t-95.5 -33.5z" />
    <glyph glyph-name="iogonek" unicode="&#x12f;" horiz-adv-x="208" 
d="M105 0q-17 -9 -33.5 -21t-29 -26t-20 -29t-7.5 -30q0 -36 50 -36q11 0 29.5 3t30.5 6l6 -31q-15 -11 -38.5 -17.5t-44.5 -6.5q-39 0 -63.5 23t-24.5 54q0 34 23.5 62t58.5 49l58 488h63zM118 663h56q13 0 12 -12l-7 -61h-70z" />
    <glyph glyph-name="ij" unicode="&#x133;" horiz-adv-x="419" 
d="M103 488h63l-58 -488h-63zM121 663h56q13 0 12 -12l-7 -61h-70zM305 -90q-5 -38 -15 -63.5t-27 -42.5q-35 -37 -103 -37q-14 0 -32 1.5t-33 4.5l5 33l36 3q29 2 48 8.5t31 18t18.5 29.5t9.5 44l68 579h63zM329 663h56q13 0 12 -12l-7 -61h-70z" />
    <glyph glyph-name="jcircumflex" unicode="&#x135;" horiz-adv-x="199" 
d="M90 -90q-5 -38 -15 -63.5t-27 -42.5q-35 -37 -103 -37q-14 0 -32 1.5t-33 4.5l5 33l36 3q29 2 48 8.5t31 18t18.5 29.5t9.5 44l68 579h63zM285 566l-27 -23l-110 104h-3l-136 -104l-21 23l135 129q6 5 10 7t12 2h15q9 0 12 -2t8 -7z" />
    <glyph glyph-name="kcommaaccent" unicode="&#x137;" horiz-adv-x="506" 
d="M463 0h-57q-13 0 -18 9l-136 247q-16 -12 -35 -26t-37 -27.5t-34 -24.5t-26 -18l-19 -160h-63l84 709h63l-59 -489l336 272l32 -39l-194 -159zM146 -250l55 192h52q13 0 13 -11q0 -7 -1 -14t-4.5 -16t-9.5 -21t-16 -29l-61 -107z" />
    <glyph glyph-name="kgreenlandic" unicode="&#x138;" horiz-adv-x="506" 
d="M463 0h-57q-13 0 -18 9l-136 247q-16 -12 -35 -26t-37 -27.5t-34 -24.5t-26 -18l-19 -160h-63l58 488h63l-32 -266l335 271l32 -40l-194 -159z" />
    <glyph glyph-name="lacute" unicode="&#x13a;" horiz-adv-x="229" 
d="M192 13q-14 -5 -35.5 -10t-36.5 -5q-31 0 -49.5 16t-18.5 50q0 11 3 38l72 607h63l-78 -655l83 -13zM89 738l-17 28l197 139q7 4 11 -2l27 -48z" />
    <glyph glyph-name="lcaron" unicode="&#x13e;" horiz-adv-x="276" 
d="M192 13q-14 -5 -35.5 -10t-36.5 -5q-31 0 -49.5 16t-18.5 50q0 11 3 38l72 607h63l-78 -655l83 -13zM221 517l55 192h52q13 0 13 -11q0 -7 -1 -14t-4.5 -16t-9.5 -21t-16 -29l-61 -107z" />
    <glyph glyph-name="lcommaaccent" unicode="&#x13c;" horiz-adv-x="231" 
d="M190 13q-14 -5 -35.5 -10t-36.5 -5q-31 0 -49.5 16t-18.5 50q0 11 3 38l72 607h63l-78 -655l83 -13zM15 -250l55 192h52q13 0 13 -11q0 -7 -1 -14t-4.5 -16t-9.5 -21t-16 -29l-61 -107z" />
    <glyph glyph-name="lslash" unicode="&#x142;" horiz-adv-x="329" 
d="M19 282l129 80l41 347h63l-36 -313l116 74l24 -40l-147 -93l-35 -283l83 -13l-3 -28q-14 -5 -35.5 -10t-36.5 -5q-31 0 -49.5 16t-18.5 50q0 11 3 38l24 200l-98 -61z" />
    <glyph glyph-name="longs" unicode="&#x17f;" horiz-adv-x="256" 
d="M110 -206h-63l76 646h-92l4 31l91 16q-2 11 -4 26.5t-2 30.5q0 40 13.5 72t37 54.5t55 34.5t67.5 12q32 0 66 -10.5t65 -29.5l-15 -34l-26 7q-51 14 -88 14q-54 0 -85 -29.5t-31 -88.5q0 -22 3 -45t3 -46q0 -20 -3 -48z" />
    <glyph glyph-name="ldot" unicode="&#x140;" horiz-adv-x="362" 
d="M192 13q-14 -5 -35.5 -10t-36.5 -5q-31 0 -49.5 16t-18.5 50q0 11 3 38l72 607h63l-78 -655l83 -13zM262 430h67q9 0 12 -2.5t2 -10.5l-9 -72h-82z" />
    <glyph glyph-name="nacute" unicode="&#x144;" horiz-adv-x="532" 
d="M139 488l9 -41l33 15q76 34 136 34q33 0 61.5 -9.5t50.5 -27.5t34.5 -45t12.5 -62q0 -11 -1.5 -26.5t-3.5 -35.5l-34 -290h-63l35 293q2 18 3.5 32t1.5 24q0 43 -29.5 65.5t-83.5 22.5q-30 0 -63 -6.5t-62 -17.5l-16 -6q-8 -3 -10 -6t-3 -9l-46 -392h-63l58 488h43z
M239 538l-17 28l197 139q7 4 11 -2l27 -48z" />
    <glyph glyph-name="ncaron" unicode="&#x148;" horiz-adv-x="532" 
d="M139 488l9 -41l33 15q76 34 136 34q33 0 61.5 -9.5t50.5 -27.5t34.5 -45t12.5 -62q0 -11 -1.5 -26.5t-3.5 -35.5l-34 -290h-63l35 293q2 18 3.5 32t1.5 24q0 43 -29.5 65.5t-83.5 22.5q-30 0 -63 -6.5t-62 -17.5l-16 -6q-8 -3 -10 -6t-3 -9l-46 -392h-63l58 488h43z
M351 552q-6 -6 -10 -7.5t-13 -1.5h-14q-8 0 -11.5 1.5t-8.5 7.5l-104 129l27 23l110 -104h3l136 104l21 -23z" />
    <glyph glyph-name="ntilde" unicode="&#xf1;" horiz-adv-x="532" 
d="M139 488l9 -41l33 15q76 34 136 34q33 0 61.5 -9.5t50.5 -27.5t34.5 -45t12.5 -62q0 -11 -1.5 -26.5t-3.5 -35.5l-34 -290h-63l35 293q2 18 3.5 32t1.5 24q0 43 -29.5 65.5t-83.5 22.5q-30 0 -63 -6.5t-62 -17.5l-16 -6q-8 -3 -10 -6t-3 -9l-46 -392h-63l58 488h43z
M370 570q-17 0 -33 6.5t-31.5 15t-30.5 15t-30 6.5q-14 0 -30 -9.5t-30 -33.5l-30 10q16 41 41 64t57 23q16 0 32.5 -7t32 -15t30.5 -15t30 -7q14 0 30 10t30 34l30 -10q-16 -41 -41 -64t-57 -23z" />
    <glyph glyph-name="ncommaaccent" unicode="&#x146;" horiz-adv-x="532" 
d="M139 488l9 -41l33 15q76 34 136 34q33 0 61.5 -9.5t50.5 -27.5t34.5 -45t12.5 -62q0 -11 -1.5 -26.5t-3.5 -35.5l-34 -290h-63l35 293q2 18 3.5 32t1.5 24q0 43 -29.5 65.5t-83.5 22.5q-30 0 -63 -6.5t-62 -17.5l-16 -6q-8 -3 -10 -6t-3 -9l-46 -392h-63l58 488h43z
M148 -250l55 192h52q13 0 13 -11q0 -7 -1 -14t-4.5 -16t-9.5 -21t-16 -29l-61 -107z" />
    <glyph glyph-name="napostrophe" unicode="&#x149;" horiz-adv-x="623" 
d="M230 488l9 -41l33 15q76 34 136 34q33 0 61.5 -9.5t50.5 -27.5t34.5 -45t12.5 -62q0 -11 -1.5 -26.5t-3.5 -35.5l-34 -290h-63l35 293q2 18 3.5 32t1.5 24q0 43 -29.5 65.5t-83.5 22.5q-30 0 -63 -6.5t-62 -17.5l-16 -6q-8 -3 -10 -6t-3 -9l-46 -392h-63l58 488h43z
M176 663q9 0 12 -2.5t2 -10.5l-3 -28q-3 -28 -8 -47.5t-19 -39.5q-11 -17 -31 -39t-52 -56l-20 15l69 111q4 7 0 12l-7 7q-8 8 -9.5 12t-0.5 13l6 53h61z" />
    <glyph glyph-name="eng" unicode="&#x14b;" horiz-adv-x="532" 
d="M409 293q2 18 3.5 32t1.5 24q0 43 -29.5 65.5t-83.5 22.5q-30 0 -63 -6.5t-62 -17.5l-16 -6q-8 -3 -10 -6t-3 -9l-46 -392h-63l58 488h43l9 -41l33 15q76 34 136 34q33 0 61.5 -9.5t50.5 -27.5t34.5 -45t12.5 -62q0 -11 -1.5 -26.5t-3.5 -35.5l-39 -332q-5 -38 -15 -63.5
t-27 -42.5q-35 -37 -103 -37q-14 0 -32 1.5t-33 4.5l5 33l36 3q29 2 48 8.5t31 18t18.5 29.5t9.5 44z" />
    <glyph glyph-name="ograve" unicode="&#xf2;" horiz-adv-x="523" 
d="M487 277q0 -59 -19.5 -111t-53 -90.5t-78 -61t-95.5 -22.5q-42 0 -79.5 15.5t-65.5 44.5t-44 69t-16 90q0 59 19.5 111t53 90.5t78 61t95.5 22.5q42 0 79.5 -15.5t65.5 -44.5t44 -69.5t16 -89.5zM424 271q0 76 -37 121q-18 23 -45.5 35t-62.5 12t-64 -13t-52 -36
q-31 -32 -47.5 -78t-16.5 -95q0 -76 37 -121q38 -47 108 -47q35 0 64 13t52 36q31 32 47.5 78t16.5 95zM202 655l37 48q5 7 11 2l165 -139l-23 -28z" />
    <glyph glyph-name="oacute" unicode="&#xf3;" horiz-adv-x="523" 
d="M487 277q0 -59 -19.5 -111t-53 -90.5t-78 -61t-95.5 -22.5q-42 0 -79.5 15.5t-65.5 44.5t-44 69t-16 90q0 59 19.5 111t53 90.5t78 61t95.5 22.5q42 0 79.5 -15.5t65.5 -44.5t44 -69.5t16 -89.5zM424 271q0 76 -37 121q-18 23 -45.5 35t-62.5 12t-64 -13t-52 -36
q-31 -32 -47.5 -78t-16.5 -95q0 -76 37 -121q38 -47 108 -47q35 0 64 13t52 36q31 32 47.5 78t16.5 95zM215 538l-17 28l197 139q7 4 11 -2l27 -48z" />
    <glyph glyph-name="ocircumflex" unicode="&#xf4;" horiz-adv-x="523" 
d="M487 277q0 -59 -19.5 -111t-53 -90.5t-78 -61t-95.5 -22.5q-42 0 -79.5 15.5t-65.5 44.5t-44 69t-16 90q0 59 19.5 111t53 90.5t78 61t95.5 22.5q42 0 79.5 -15.5t65.5 -44.5t44 -69.5t16 -89.5zM424 271q0 76 -37 121q-18 23 -45.5 35t-62.5 12t-64 -13t-52 -36
q-31 -32 -47.5 -78t-16.5 -95q0 -76 37 -121q38 -47 108 -47q35 0 64 13t52 36q31 32 47.5 78t16.5 95zM447 566l-27 -23l-110 104h-3l-136 -104l-21 23l135 129q6 5 10 7t12 2h15q9 0 12 -2t8 -7z" />
    <glyph glyph-name="otilde" unicode="&#xf5;" horiz-adv-x="523" 
d="M487 277q0 -59 -19.5 -111t-53 -90.5t-78 -61t-95.5 -22.5q-42 0 -79.5 15.5t-65.5 44.5t-44 69t-16 90q0 59 19.5 111t53 90.5t78 61t95.5 22.5q42 0 79.5 -15.5t65.5 -44.5t44 -69.5t16 -89.5zM424 271q0 76 -37 121q-18 23 -45.5 35t-62.5 12t-64 -13t-52 -36
q-31 -32 -47.5 -78t-16.5 -95q0 -76 37 -121q38 -47 108 -47q35 0 64 13t52 36q31 32 47.5 78t16.5 95zM363 570q-17 0 -33 6.5t-31.5 15t-30.5 15t-30 6.5q-14 0 -30 -9.5t-30 -33.5l-30 10q16 41 41 64t57 23q16 0 32.5 -7t32 -15t30.5 -15t30 -7q14 0 30 10t30 34l30 -10
q-16 -41 -41 -64t-57 -23z" />
    <glyph glyph-name="odieresis" unicode="&#xf6;" horiz-adv-x="523" 
d="M487 277q0 -59 -19.5 -111t-53 -90.5t-78 -61t-95.5 -22.5q-42 0 -79.5 15.5t-65.5 44.5t-44 69t-16 90q0 59 19.5 111t53 90.5t78 61t95.5 22.5q42 0 79.5 -15.5t65.5 -44.5t44 -69.5t16 -89.5zM424 271q0 76 -37 121q-18 23 -45.5 35t-62.5 12t-64 -13t-52 -36
q-31 -32 -47.5 -78t-16.5 -95q0 -76 37 -121q38 -47 108 -47q35 0 64 13t52 36q31 32 47.5 78t16.5 95zM185 652h60q10 0 12.5 -2.5t1.5 -10.5l-8 -69h-76zM351 652h60q10 0 12.5 -2.5t1.5 -10.5l-8 -69h-76z" />
    <glyph glyph-name="omacron" unicode="&#x14d;" horiz-adv-x="523" 
d="M487 277q0 -59 -19.5 -111t-53 -90.5t-78 -61t-95.5 -22.5q-42 0 -79.5 15.5t-65.5 44.5t-44 69t-16 90q0 59 19.5 111t53 90.5t78 61t95.5 22.5q42 0 79.5 -15.5t65.5 -44.5t44 -69.5t16 -89.5zM424 271q0 76 -37 121q-18 23 -45.5 35t-62.5 12t-64 -13t-52 -36
q-31 -32 -47.5 -78t-16.5 -95q0 -76 37 -121q38 -47 108 -47q35 0 64 13t52 36q31 32 47.5 78t16.5 95zM158 579l6 50h278l-6 -50h-278z" />
    <glyph glyph-name="obreve" unicode="&#x14f;" horiz-adv-x="523" 
d="M487 277q0 -59 -19.5 -111t-53 -90.5t-78 -61t-95.5 -22.5q-42 0 -79.5 15.5t-65.5 44.5t-44 69t-16 90q0 59 19.5 111t53 90.5t78 61t95.5 22.5q42 0 79.5 -15.5t65.5 -44.5t44 -69.5t16 -89.5zM424 271q0 76 -37 121q-18 23 -45.5 35t-62.5 12t-64 -13t-52 -36
q-31 -32 -47.5 -78t-16.5 -95q0 -76 37 -121q38 -47 108 -47q35 0 64 13t52 36q31 32 47.5 78t16.5 95zM291 552q-52 0 -87 33.5t-40 95.5l36 6q10 -38 34.5 -59t62.5 -21t68.5 21t48.5 59l34 -6q-19 -62 -61.5 -95.5t-95.5 -33.5z" />
    <glyph glyph-name="ohungarumlaut" unicode="&#x151;" horiz-adv-x="523" 
d="M487 277q0 -59 -19.5 -111t-53 -90.5t-78 -61t-95.5 -22.5q-42 0 -79.5 15.5t-65.5 44.5t-44 69t-16 90q0 59 19.5 111t53 90.5t78 61t95.5 22.5q42 0 79.5 -15.5t65.5 -44.5t44 -69.5t16 -89.5zM424 271q0 76 -37 121q-18 23 -45.5 35t-62.5 12t-64 -13t-52 -36
q-31 -32 -47.5 -78t-16.5 -95q0 -76 37 -121q38 -47 108 -47q35 0 64 13t52 36q31 32 47.5 78t16.5 95zM177 569l-21 23l145 153q6 7 12 1l31 -38zM341 569l-21 23l144 153q6 7 12 1l32 -38z" />
    <glyph glyph-name="oslash" unicode="&#xf8;" horiz-adv-x="521" 
d="M486 277q0 -59 -19.5 -111t-53 -90.5t-78 -61t-95.5 -22.5q-70 0 -122 40l-73 -88l-37 30l76 91q-23 28 -36 64.5t-13 81.5q0 59 19.5 111t53 90.5t78 61t95.5 22.5q71 0 125 -42l76 92l37 -30l-79 -96q22 -28 34 -64t12 -79zM98 217q0 -63 25 -104l246 296
q-38 30 -91 30q-35 0 -64 -13t-52 -36q-31 -32 -47.5 -78t-16.5 -95zM423 271q0 24 -5 51.5t-18 49.5l-245 -296q17 -13 39.5 -20t48.5 -7q35 0 64 13t52 36q31 32 47.5 78t16.5 95z" />
    <glyph glyph-name="oslashacute" unicode="&#x1ff;" horiz-adv-x="521" 
d="M486 277q0 -59 -19.5 -111t-53 -90.5t-78 -61t-95.5 -22.5q-70 0 -122 40l-73 -88l-37 30l76 91q-23 28 -36 64.5t-13 81.5q0 59 19.5 111t53 90.5t78 61t95.5 22.5q71 0 125 -42l76 92l37 -30l-79 -96q22 -28 34 -64t12 -79zM98 217q0 -63 25 -104l246 296
q-38 30 -91 30q-35 0 -64 -13t-52 -36q-31 -32 -47.5 -78t-16.5 -95zM423 271q0 24 -5 51.5t-18 49.5l-245 -296q17 -13 39.5 -20t48.5 -7q35 0 64 13t52 36q31 32 47.5 78t16.5 95zM210 538l-17 28l197 139q7 4 11 -2l27 -48z" />
    <glyph glyph-name="oe" unicode="&#x153;" horiz-adv-x="902" 
d="M486 230q-1 -5 -1 -8.5v-7.5q0 -36 9 -66.5t28 -53t48 -35t69 -12.5q49 0 123 29l56 22l17 -30q-20 -15 -44 -29t-51 -24.5t-54.5 -16.5t-54.5 -6q-44 0 -80.5 13.5t-62.5 38.5q-30 27 -47 67q-34 -54 -86 -86.5t-114 -32.5q-42 0 -79.5 15.5t-65.5 44.5t-44 69t-16 90
q0 59 19.5 111t53 90.5t78 61t95.5 22.5q61 0 110 -31.5t74 -88.5q34 55 86.5 87.5t116.5 32.5q44 0 79.5 -17t60 -45.5t38 -66.5t13.5 -79q0 -33 -8 -45.5t-27 -12.5h-339zM424 271q0 76 -37 121q-18 23 -45.5 35t-62.5 12t-64 -13t-52 -36q-31 -32 -47.5 -78t-16.5 -95
q0 -76 37 -121q38 -47 108 -47q35 0 64 13t52 36q31 32 47.5 78t16.5 95zM802 278q0 74 -36 118t-102 44q-35 0 -64 -12.5t-51 -34.5t-36.5 -51.5t-20.5 -63.5h310z" />
    <glyph glyph-name="thorn" unicode="&#xfe;" horiz-adv-x="525" 
d="M73 -229h-63l111 938h63l-32 -266l21 11q79 42 140 42q42 0 74.5 -16.5t55 -45t34 -67t11.5 -83.5q0 -62 -18 -115t-49.5 -92.5t-74.5 -62t-92 -22.5q-34 0 -66.5 13t-67.5 33l-14 8zM161 400q-8 -5 -11.5 -8.5t-4.5 -11.5l-32 -272q-1 -8 0.5 -12.5t12.5 -10.5
q29 -17 63 -27.5t63 -10.5q38 0 70 16.5t55 47.5t35.5 74.5t12.5 96.5q0 74 -29 116.5t-95 42.5q-33 0 -71 -12t-69 -29z" />
    <glyph glyph-name="racute" unicode="&#x155;" horiz-adv-x="330" 
d="M147 415l41 23q31 18 53 29t37 17.5t25.5 9t19.5 2.5t18.5 -3.5t17.5 -8.5l-5 -38q-18 -5 -43.5 -13t-53 -18t-54.5 -20.5t-48 -20.5q-11 -5 -12 -15l-42 -359h-63l58 488h48zM175 538l-17 28l197 139q7 4 11 -2l27 -48z" />
    <glyph glyph-name="rcaron" unicode="&#x159;" horiz-adv-x="329" 
d="M147 415l41 23q31 18 53 29t37 17.5t25.5 9t19.5 2.5t18.5 -3.5t17.5 -8.5l-5 -38q-18 -5 -43.5 -13t-53 -18t-54.5 -20.5t-48 -20.5q-11 -5 -12 -15l-42 -359h-63l58 488h48zM282 552q-6 -6 -10 -7.5t-13 -1.5h-14q-8 0 -11.5 1.5t-8.5 7.5l-104 129l27 23l110 -104h3
l136 104l21 -23z" />
    <glyph glyph-name="rcommaaccent" unicode="&#x157;" horiz-adv-x="330" 
d="M145 415l41 23q31 18 53 29t37 17.5t25.5 9t19.5 2.5t18.5 -3.5t17.5 -8.5l-5 -38q-18 -5 -43.5 -13t-53 -18t-54.5 -20.5t-48 -20.5q-11 -5 -12 -15l-42 -359h-63l58 488h48zM-24 -250l55 192h52q13 0 13 -11q0 -7 -1 -14t-4.5 -16t-9.5 -21t-16 -29l-61 -107z" />
    <glyph glyph-name="sacute" unicode="&#x15b;" horiz-adv-x="429" 
d="M74 57q30 -7 57 -10t50 -3q57 0 94 24.5t37 67.5q0 29 -20.5 49.5t-71.5 40.5l-50 20q-54 22 -85 49t-31 73q0 33 16 57t41.5 40t57 23.5t62.5 7.5q38 0 78.5 -8t73.5 -21l-12 -38l-35 5q-27 4 -54.5 6.5t-52.5 2.5q-22 0 -43.5 -3.5t-38 -12t-27 -22t-10.5 -34.5
q0 -28 22 -44t65 -33l50 -20q56 -23 89.5 -52.5t33.5 -76.5q0 -36 -15.5 -64.5t-41.5 -48t-60 -30t-72 -10.5q-42 0 -88.5 12t-81.5 30l15 34zM165 538l-17 28l197 139q7 4 11 -2l27 -48z" />
    <glyph glyph-name="scircumflex" unicode="&#x15d;" horiz-adv-x="429" 
d="M74 57q30 -7 57 -10t50 -3q57 0 94 24.5t37 67.5q0 29 -20.5 49.5t-71.5 40.5l-50 20q-54 22 -85 49t-31 73q0 33 16 57t41.5 40t57 23.5t62.5 7.5q38 0 78.5 -8t73.5 -21l-12 -38l-35 5q-27 4 -54.5 6.5t-52.5 2.5q-22 0 -43.5 -3.5t-38 -12t-27 -22t-10.5 -34.5
q0 -28 22 -44t65 -33l50 -20q56 -23 89.5 -52.5t33.5 -76.5q0 -36 -15.5 -64.5t-41.5 -48t-60 -30t-72 -10.5q-42 0 -88.5 12t-81.5 30l15 34zM395 566l-27 -23l-110 104h-3l-136 -104l-21 23l135 129q6 5 10 7t12 2h15q9 0 12 -2t8 -7z" />
    <glyph glyph-name="scaron" unicode="&#x161;" horiz-adv-x="429" 
d="M74 57q30 -7 57 -10t50 -3q57 0 94 24.5t37 67.5q0 29 -20.5 49.5t-71.5 40.5l-50 20q-54 22 -85 49t-31 73q0 33 16 57t41.5 40t57 23.5t62.5 7.5q38 0 78.5 -8t73.5 -21l-12 -38l-35 5q-27 4 -54.5 6.5t-52.5 2.5q-22 0 -43.5 -3.5t-38 -12t-27 -22t-10.5 -34.5
q0 -28 22 -44t65 -33l50 -20q56 -23 89.5 -52.5t33.5 -76.5q0 -36 -15.5 -64.5t-41.5 -48t-60 -30t-72 -10.5q-42 0 -88.5 12t-81.5 30l15 34zM267 552q-6 -6 -10 -7.5t-13 -1.5h-14q-8 0 -11.5 1.5t-8.5 7.5l-104 129l27 23l110 -104h3l136 104l21 -23z" />
    <glyph glyph-name="scedilla" unicode="&#x15f;" horiz-adv-x="429" 
d="M74 57q30 -7 57 -10t50 -3q57 0 94 24.5t37 67.5q0 29 -20.5 49.5t-71.5 40.5l-50 20q-54 22 -85 49t-31 73q0 33 16 57t41.5 40t57 23.5t62.5 7.5q38 0 78.5 -8t73.5 -21l-12 -38l-35 5q-27 4 -54.5 6.5t-52.5 2.5q-22 0 -43.5 -3.5t-38 -12t-27 -22t-10.5 -34.5
q0 -28 22 -44t65 -33l50 -20q56 -23 89.5 -52.5t33.5 -76.5q0 -34 -14 -61t-37.5 -46.5t-54.5 -31t-66 -13.5q-9 -15 -9 -26t15.5 -17t33.5 -14.5t33.5 -22t15.5 -37.5q0 -22 -14.5 -38.5t-38 -27.5t-53.5 -17.5t-62 -7.5l-7 35l68 16q24 6 37 13t13 18q0 12 -15 19
t-33 14.5t-33 17t-15 25.5q0 11 6.5 24t17.5 26q-38 3 -77.5 14t-69.5 27l15 34z" />
    <glyph glyph-name="scommaaccent" unicode="&#x219;" horiz-adv-x="429" 
d="M74 57q30 -7 57 -10t50 -3q57 0 94 24.5t37 67.5q0 29 -20.5 49.5t-71.5 40.5l-50 20q-54 22 -85 49t-31 73q0 33 16 57t41.5 40t57 23.5t62.5 7.5q38 0 78.5 -8t73.5 -21l-12 -38l-35 5q-27 4 -54.5 6.5t-52.5 2.5q-22 0 -43.5 -3.5t-38 -12t-27 -22t-10.5 -34.5
q0 -28 22 -44t65 -33l50 -20q56 -23 89.5 -52.5t33.5 -76.5q0 -36 -15.5 -64.5t-41.5 -48t-60 -30t-72 -10.5q-42 0 -88.5 12t-81.5 30l15 34zM90 -250l55 192h52q13 0 13 -11q0 -7 -1 -14t-4.5 -16t-9.5 -21t-16 -29l-61 -107z" />
    <glyph glyph-name="germandbls" unicode="&#xdf;" horiz-adv-x="608" 
d="M128 487q6 49 27.5 91.5t54.5 73t75.5 48t92.5 17.5q33 0 63 -9t53 -26t37 -41.5t14 -54.5q0 -26 -7.5 -45.5t-20.5 -35t-30.5 -29t-38.5 -26.5l-57 -37q-29 -19 -44.5 -32.5t-15.5 -30.5q0 -19 18 -30t64 -30l37 -15q57 -23 86.5 -51.5t29.5 -73.5q0 -38 -16 -67.5
t-42 -49.5t-59.5 -30.5t-68.5 -10.5q-48 0 -90.5 14t-79.5 35l16 33l30 -8q41 -11 71.5 -16.5t55.5 -5.5t47.5 7t39.5 20t27 30.5t10 38.5q0 31 -20 48.5t-66 36.5l-44 18q-47 19 -75 42t-28 55q0 36 27 63t76 60l40 27q20 15 33.5 26.5t21 22t10.5 22.5t3 27q0 35 -32 55
t-78 20q-43 0 -75.5 -14t-56 -38.5t-37 -59.5t-18.5 -77l-74 -627h-61l70 593h-92l4 31l93 16v0z" />
    <glyph glyph-name="tcaron" unicode="&#x165;" horiz-adv-x="383" 
d="M344 34q-34 -19 -73 -30.5t-70 -11.5q-54 0 -84.5 30t-30.5 83q0 15 2 35.5t5 43.5l30 256h-92l4 31l94 17l17 141h62l-17 -141h170l-6 -48h-169l-33 -273q-2 -19 -3.5 -35t-1.5 -27q0 -31 15 -45.5t49 -14.5q15 0 33.5 3t43.5 9l45 11zM265 558l55 192h52q13 0 13 -11
q0 -7 -1 -14t-4.5 -16t-9.5 -21t-16 -29l-61 -107z" />
    <glyph glyph-name="tcommaaccent" unicode="&#x163;" horiz-adv-x="384" 
d="M344 34q-34 -19 -73 -30.5t-70 -11.5q-54 0 -84.5 30t-30.5 83q0 15 2 35.5t5 43.5l30 256h-92l4 31l94 17l17 141h62l-17 -141h170l-6 -48h-169l-33 -273q-2 -19 -3.5 -35t-1.5 -27q0 -31 15 -45.5t49 -14.5q15 0 33.5 3t43.5 9l45 11zM101 -250l55 192h52q13 0 13 -11
q0 -7 -1 -14t-4.5 -16t-9.5 -21t-16 -29l-61 -107z" />
    <glyph glyph-name="uni021B" unicode="&#x21b;" horiz-adv-x="384" 
d="M344 34q-34 -19 -73 -30.5t-70 -11.5q-54 0 -84.5 30t-30.5 83q0 15 2 35.5t5 43.5l30 256h-92l4 31l94 17l17 141h62l-17 -141h170l-6 -48h-169l-33 -273q-2 -19 -3.5 -35t-1.5 -27q0 -31 15 -45.5t49 -14.5q15 0 33.5 3t43.5 9l45 11zM101 -250l55 192h52q13 0 13 -11
q0 -7 -1 -14t-4.5 -16t-9.5 -21t-16 -29l-61 -107z" />
    <glyph glyph-name="tbar" unicode="&#x167;" horiz-adv-x="383" 
d="M343 34q-34 -19 -73 -30.5t-70 -11.5q-54 0 -84.5 30t-30.5 83q0 15 2 35.5t5 43.5l6 50h-81l4 28l82 14l19 164h-92l4 31l94 17l17 141h62l-17 -141h170l-6 -48h-169l-20 -161h157l-5 -45h-157l-8 -67q-2 -19 -3.5 -35t-1.5 -27q0 -31 15 -45.5t49 -14.5q15 0 33.5 3
t43.5 9l45 11z" />
    <glyph glyph-name="ugrave" unicode="&#xf9;" horiz-adv-x="533" 
d="M388 0l-9 41l-33 -15q-76 -34 -136 -34q-33 0 -61.5 9.5t-49.5 27.5t-33 45t-12 62q0 11 1.5 26.5t3.5 35.5l34 290h63l-35 -293q-2 -18 -3.5 -32t-1.5 -24q0 -88 110 -88q30 0 63 6.5t62 17.5l16 6q8 3 10 6t3 9l46 392h63l-58 -488h-43zM182 655l37 48q5 7 11 2
l165 -139l-23 -28z" />
    <glyph glyph-name="uacute" unicode="&#xfa;" horiz-adv-x="533" 
d="M388 0l-9 41l-33 -15q-76 -34 -136 -34q-33 0 -61.5 9.5t-49.5 27.5t-33 45t-12 62q0 11 1.5 26.5t3.5 35.5l34 290h63l-35 -293q-2 -18 -3.5 -32t-1.5 -24q0 -88 110 -88q30 0 63 6.5t62 17.5l16 6q8 3 10 6t3 9l46 392h63l-58 -488h-43zM235 538l-17 28l197 139
q7 4 11 -2l27 -48z" />
    <glyph glyph-name="ucircumflex" unicode="&#xfb;" horiz-adv-x="533" 
d="M388 0l-9 41l-33 -15q-76 -34 -136 -34q-33 0 -61.5 9.5t-49.5 27.5t-33 45t-12 62q0 11 1.5 26.5t3.5 35.5l34 290h63l-35 -293q-2 -18 -3.5 -32t-1.5 -24q0 -88 110 -88q30 0 63 6.5t62 17.5l16 6q8 3 10 6t3 9l46 392h63l-58 -488h-43zM445 566l-27 -23l-110 104h-3
l-136 -104l-21 23l135 129q6 5 10 7t12 2h15q9 0 12 -2t8 -7z" />
    <glyph glyph-name="utilde" unicode="&#x169;" horiz-adv-x="533" 
d="M388 0l-9 41l-33 -15q-76 -34 -136 -34q-33 0 -61.5 9.5t-49.5 27.5t-33 45t-12 62q0 11 1.5 26.5t3.5 35.5l34 290h63l-35 -293q-2 -18 -3.5 -32t-1.5 -24q0 -88 110 -88q30 0 63 6.5t62 17.5l16 6q8 3 10 6t3 9l46 392h63l-58 -488h-43zM367 570q-17 0 -33 6.5
t-31.5 15t-30.5 15t-30 6.5q-14 0 -30 -9.5t-30 -33.5l-30 10q16 41 41 64t57 23q16 0 32.5 -7t32 -15t30.5 -15t30 -7q14 0 30 10t30 34l30 -10q-16 -41 -41 -64t-57 -23z" />
    <glyph glyph-name="udieresis" unicode="&#xfc;" horiz-adv-x="533" 
d="M388 0l-9 41l-33 -15q-76 -34 -136 -34q-33 0 -61.5 9.5t-49.5 27.5t-33 45t-12 62q0 11 1.5 26.5t3.5 35.5l34 290h63l-35 -293q-2 -18 -3.5 -32t-1.5 -24q0 -88 110 -88q30 0 63 6.5t62 17.5l16 6q8 3 10 6t3 9l46 392h63l-58 -488h-43zM187 652h60q10 0 12.5 -2.5
t1.5 -10.5l-8 -69h-76zM353 652h60q10 0 12.5 -2.5t1.5 -10.5l-8 -69h-76z" />
    <glyph glyph-name="umacron" unicode="&#x16b;" horiz-adv-x="533" 
d="M388 0l-9 41l-33 -15q-76 -34 -136 -34q-33 0 -61.5 9.5t-49.5 27.5t-33 45t-12 62q0 11 1.5 26.5t3.5 35.5l34 290h63l-35 -293q-2 -18 -3.5 -32t-1.5 -24q0 -88 110 -88q30 0 63 6.5t62 17.5l16 6q8 3 10 6t3 9l46 392h63l-58 -488h-43zM158 579l6 50h278l-6 -50h-278z
" />
    <glyph glyph-name="ubreve" unicode="&#x16d;" horiz-adv-x="533" 
d="M388 0l-9 41l-33 -15q-76 -34 -136 -34q-33 0 -61.5 9.5t-49.5 27.5t-33 45t-12 62q0 11 1.5 26.5t3.5 35.5l34 290h63l-35 -293q-2 -18 -3.5 -32t-1.5 -24q0 -88 110 -88q30 0 63 6.5t62 17.5l16 6q8 3 10 6t3 9l46 392h63l-58 -488h-43zM299 552q-52 0 -87 33.5
t-40 95.5l36 6q10 -38 34.5 -59t62.5 -21t68.5 21t48.5 59l34 -6q-19 -62 -61.5 -95.5t-95.5 -33.5z" />
    <glyph glyph-name="uring" unicode="&#x16f;" horiz-adv-x="533" 
d="M388 0l-9 41l-33 -15q-76 -34 -136 -34q-33 0 -61.5 9.5t-49.5 27.5t-33 45t-12 62q0 11 1.5 26.5t3.5 35.5l34 290h63l-35 -293q-2 -18 -3.5 -32t-1.5 -24q0 -88 110 -88q30 0 63 6.5t62 17.5l16 6q8 3 10 6t3 9l46 392h63l-58 -488h-43zM406 656q0 -21 -8 -40t-22 -33
t-33 -22.5t-40 -8.5q-43 0 -69 28t-26 66q0 21 8 40t22 33t33 22.5t40 8.5q43 0 69 -28t26 -66zM363 654q0 20 -13.5 37.5t-39.5 17.5q-24 0 -41.5 -16t-17.5 -45q0 -20 13.5 -37.5t39.5 -17.5q24 0 41.5 16t17.5 45z" />
    <glyph glyph-name="uhungarumlaut" unicode="&#x171;" horiz-adv-x="531" 
d="M388 0l-9 41l-33 -15q-76 -34 -136 -34q-33 0 -61.5 9.5t-49.5 27.5t-33 45t-12 62q0 11 1.5 26.5t3.5 35.5l34 290h63l-35 -293q-2 -18 -3.5 -32t-1.5 -24q0 -88 110 -88q30 0 63 6.5t62 17.5l16 6q8 3 10 6t3 9l46 392h63l-58 -488h-43zM187 569l-21 23l145 153
q6 7 12 1l31 -38zM351 569l-21 23l144 153q6 7 12 1l32 -38z" />
    <glyph glyph-name="uogonek" unicode="&#x173;" horiz-adv-x="533" 
d="M431 0q-14 -5 -31.5 -15t-33 -23.5t-26.5 -30.5t-11 -37q0 -36 50 -36q11 0 29.5 3t30.5 6l6 -31q-15 -11 -38.5 -17.5t-44.5 -6.5q-39 0 -63.5 23t-24.5 54q0 22 9.5 40.5t25.5 34t36 27.5t40 21l-6 29l-33 -15q-76 -34 -136 -34q-33 0 -61.5 9.5t-49.5 27.5t-33 45
t-12 62q0 11 1.5 26.5t3.5 35.5l34 290h63l-35 -293q-2 -18 -3.5 -32t-1.5 -24q0 -88 110 -88q30 0 63 6.5t62 17.5l16 6q8 3 10 6t3 9l46 392h63z" />
    <glyph glyph-name="wgrave" unicode="&#x1e81;" horiz-adv-x="755" 
d="M493 222q10 -46 18.5 -92.5t12.5 -75.5h1q10 28 27 71.5t36 87.5l116 267q2 5 4.5 6.5t8.5 1.5h52l-216 -488h-56q-11 0 -14 9l-58 263q-11 48 -18.5 91t-11.5 71h-1q-8 -26 -23 -66.5t-32 -81.5l-117 -286h-54q-11 0 -14 9l-125 479h53q6 0 8 -1.5t4 -6.5l55 -218
q6 -23 12.5 -52.5l13 -59t12 -55.5t7.5 -42h1q5 16 12.5 38t16 45.5l17 47t16.5 43.5l106 261h61q11 0 13 -8zM292 655l37 48q5 7 11 2l165 -139l-23 -28z" />
    <glyph glyph-name="wacute" unicode="&#x1e83;" horiz-adv-x="755" 
d="M493 222q10 -46 18.5 -92.5t12.5 -75.5h1q10 28 27 71.5t36 87.5l116 267q2 5 4.5 6.5t8.5 1.5h52l-216 -488h-56q-11 0 -14 9l-58 263q-11 48 -18.5 91t-11.5 71h-1q-8 -26 -23 -66.5t-32 -81.5l-117 -286h-54q-11 0 -14 9l-125 479h53q6 0 8 -1.5t4 -6.5l55 -218
q6 -23 12.5 -52.5l13 -59t12 -55.5t7.5 -42h1q5 16 12.5 38t16 45.5l17 47t16.5 43.5l106 261h61q11 0 13 -8zM326 538l-17 28l197 139q7 4 11 -2l27 -48z" />
    <glyph glyph-name="wcircumflex" unicode="&#x175;" horiz-adv-x="755" 
d="M493 222q10 -46 18.5 -92.5t12.5 -75.5h1q10 28 27 71.5t36 87.5l116 267q2 5 4.5 6.5t8.5 1.5h52l-216 -488h-56q-11 0 -14 9l-58 263q-11 48 -18.5 91t-11.5 71h-1q-8 -26 -23 -66.5t-32 -81.5l-117 -286h-54q-11 0 -14 9l-125 479h53q6 0 8 -1.5t4 -6.5l55 -218
q6 -23 12.5 -52.5l13 -59t12 -55.5t7.5 -42h1q5 16 12.5 38t16 45.5l17 47t16.5 43.5l106 261h61q11 0 13 -8zM560 566l-27 -23l-110 104h-3l-136 -104l-21 23l135 129q6 5 10 7t12 2h15q9 0 12 -2t8 -7z" />
    <glyph glyph-name="wdieresis" unicode="&#x1e85;" horiz-adv-x="755" 
d="M493 222q10 -46 18.5 -92.5t12.5 -75.5h1q10 28 27 71.5t36 87.5l116 267q2 5 4.5 6.5t8.5 1.5h52l-216 -488h-56q-11 0 -14 9l-58 263q-11 48 -18.5 91t-11.5 71h-1q-8 -26 -23 -66.5t-32 -81.5l-117 -286h-54q-11 0 -14 9l-125 479h53q6 0 8 -1.5t4 -6.5l55 -218
q6 -23 12.5 -52.5l13 -59t12 -55.5t7.5 -42h1q5 16 12.5 38t16 45.5l17 47t16.5 43.5l106 261h61q11 0 13 -8zM300 652h60q10 0 12.5 -2.5t1.5 -10.5l-8 -69h-76zM466 652h60q10 0 12.5 -2.5t1.5 -10.5l-8 -69h-76z" />
    <glyph glyph-name="ygrave" unicode="&#x1ef3;" horiz-adv-x="476" 
d="M83 488q9 0 11 -8l86 -301q13 -45 20.5 -75l12.5 -50h1q8 21 25 55.5t36 72.5l151 298q4 8 14 8h54l-375 -723l-53 19l111 207l-150 497h56zM115 655l37 48q5 7 11 2l165 -139l-23 -28z" />
    <glyph glyph-name="yacute" unicode="&#xfd;" horiz-adv-x="476" 
d="M83 488q9 0 11 -8l86 -301q13 -45 20.5 -75l12.5 -50h1q8 21 25 55.5t36 72.5l151 298q4 8 14 8h54l-375 -723l-53 19l111 207l-150 497h56zM204 538l-17 28l197 139q7 4 11 -2l27 -48z" />
    <glyph glyph-name="ycircumflex" unicode="&#x177;" horiz-adv-x="476" 
d="M83 488q9 0 11 -8l86 -301q13 -45 20.5 -75l12.5 -50h1q8 21 25 55.5t36 72.5l151 298q4 8 14 8h54l-375 -723l-53 19l111 207l-150 497h56zM414 566l-27 -23l-110 104h-3l-136 -104l-21 23l135 129q6 5 10 7t12 2h15q9 0 12 -2t8 -7z" />
    <glyph glyph-name="ydieresis" unicode="&#xff;" horiz-adv-x="476" 
d="M83 488q9 0 11 -8l86 -301q13 -45 20.5 -75l12.5 -50h1q8 21 25 55.5t36 72.5l151 298q4 8 14 8h54l-375 -723l-53 19l111 207l-150 497h56zM152 652h60q10 0 12.5 -2.5t1.5 -10.5l-8 -69h-76zM318 652h60q10 0 12.5 -2.5t1.5 -10.5l-8 -69h-76z" />
    <glyph glyph-name="zacute" unicode="&#x17a;" horiz-adv-x="443" 
d="M383 50l-6 -50h-371l3 25q1 11 7 18l239 285q28 33 54.5 63t43.5 49h-289l6 48h363l-3 -25q-1 -6 -2 -9.5t-5 -8.5l-239 -285q-26 -32 -52 -61t-44 -49h295zM190 538l-17 28l197 139q7 4 11 -2l27 -48z" />
    <glyph glyph-name="zcaron" unicode="&#x17e;" horiz-adv-x="443" 
d="M383 50l-6 -50h-371l3 25q1 11 7 18l239 285q28 33 54.5 63t43.5 49h-289l6 48h363l-3 -25q-1 -6 -2 -9.5t-5 -8.5l-239 -285q-26 -32 -52 -61t-44 -49h295zM292 552q-6 -6 -10 -7.5t-13 -1.5h-14q-8 0 -11.5 1.5t-8.5 7.5l-104 129l27 23l110 -104h3l136 104l21 -23z
" />
    <glyph glyph-name="zdotaccent" unicode="&#x17c;" horiz-adv-x="443" 
d="M383 50l-6 -50h-371l3 25q1 11 7 18l239 285q28 33 54.5 63t43.5 49h-289l6 48h363l-3 -25q-1 -6 -2 -9.5t-5 -8.5l-239 -285q-26 -32 -52 -61t-44 -49h295zM229 650h67q9 0 12 -2.5t2 -10.5l-9 -72h-82z" />
    <glyph glyph-name="apple" unicode="&#xf8ff;" horiz-adv-x="536" 
d="M208 357q0 13 9.5 22t21.5 9q13 0 21.5 -9t8.5 -22t-8.5 -21.5t-21.5 -8.5q-12 0 -21.5 8.5t-9.5 21.5zM405 357q0 13 9.5 22t21.5 9q13 0 21.5 -9t8.5 -22t-8.5 -21.5t-21.5 -8.5q-12 0 -21.5 8.5t-9.5 21.5zM78 161q0 13 8.5 21.5t21.5 8.5q12 0 21.5 -8.5t9.5 -21.5
t-9.5 -22t-21.5 -9q-13 0 -21.5 9t-8.5 22zM78 357q0 13 8.5 22t21.5 9q12 0 21.5 -9t9.5 -22t-9.5 -21.5t-21.5 -8.5q-13 0 -21.5 8.5t-8.5 21.5zM275 357q0 13 8.5 22t21.5 9q12 0 21.5 -9t9.5 -22t-9.5 -21.5t-21.5 -8.5q-13 0 -21.5 8.5t-8.5 21.5zM340 620q0 12 8.5 21
t22.5 9q11 0 20.5 -9t9.5 -21q0 -14 -9.5 -22.5t-20.5 -8.5q-14 0 -22.5 8.5t-8.5 22.5zM78 620q0 12 8.5 21t21.5 9q12 0 21.5 -9t9.5 -21q0 -14 -9.5 -22.5t-21.5 -8.5q-13 0 -21.5 8.5t-8.5 22.5zM275 620q0 12 8.5 21t21.5 9q12 0 21.5 -9t9.5 -21q0 -14 -9.5 -22.5
t-21.5 -8.5q-13 0 -21.5 8.5t-8.5 22.5zM405 620q0 12 9.5 21t21.5 9q13 0 21.5 -9t8.5 -21q0 -14 -8.5 -22.5t-21.5 -8.5q-12 0 -21.5 8.5t-9.5 22.5zM208 620q0 12 9.5 21t21.5 9q13 0 21.5 -9t8.5 -21q0 -14 -8.5 -22.5t-21.5 -8.5q-12 0 -21.5 8.5t-9.5 22.5zM340 357
q0 13 8.5 22t22.5 9q11 0 20.5 -9t9.5 -22t-9.5 -21.5t-20.5 -8.5q-14 0 -22.5 8.5t-8.5 21.5zM208 30q0 12 9.5 21.5t21.5 9.5q13 0 21.5 -9.5t8.5 -21.5q0 -13 -8.5 -21.5t-21.5 -8.5q-12 0 -21.5 8.5t-9.5 21.5zM78 30q0 12 8.5 21.5t21.5 9.5q12 0 21.5 -9.5t9.5 -21.5
q0 -13 -9.5 -21.5t-21.5 -8.5q-13 0 -21.5 8.5t-8.5 21.5zM208 95q0 14 9.5 22t21.5 8q13 0 21.5 -8t8.5 -22q0 -13 -8.5 -21.5t-21.5 -8.5q-12 0 -21.5 8.5t-9.5 21.5zM78 95q0 14 8.5 22t21.5 8q12 0 21.5 -8t9.5 -22q0 -13 -9.5 -21.5t-21.5 -8.5q-13 0 -21.5 8.5
t-8.5 21.5zM144 620q0 12 9 21t21 9q13 0 21.5 -9t8.5 -21q0 -14 -8.5 -22.5t-21.5 -8.5q-12 0 -21 8.5t-9 22.5zM78 489q0 12 8.5 20.5t21.5 8.5q12 0 21.5 -8.5t9.5 -20.5q0 -13 -9.5 -22t-21.5 -9q-13 0 -21.5 9t-8.5 22zM275 489q0 12 8.5 20.5t21.5 8.5q12 0 21.5 -8.5
t9.5 -20.5q0 -13 -9.5 -22t-21.5 -9q-13 0 -21.5 9t-8.5 22zM208 489q0 12 9.5 20.5t21.5 8.5q13 0 21.5 -8.5t8.5 -20.5q0 -13 -8.5 -22t-21.5 -9q-12 0 -21.5 9t-9.5 22zM405 489q0 12 9.5 20.5t21.5 8.5q13 0 21.5 -8.5t8.5 -20.5q0 -13 -8.5 -22t-21.5 -9q-12 0 -21.5 9
t-9.5 22zM340 489q0 12 8.5 20.5t22.5 8.5q11 0 20.5 -8.5t9.5 -20.5q0 -13 -9.5 -22t-20.5 -9q-14 0 -22.5 9t-8.5 22zM144 30q0 12 9 21.5t21 9.5q13 0 21.5 -9.5t8.5 -21.5q0 -13 -8.5 -21.5t-21.5 -8.5q-12 0 -21 8.5t-9 21.5zM78 292q0 12 8.5 21t21.5 9q12 0 21.5 -9
t9.5 -21q0 -13 -9.5 -21.5t-21.5 -8.5q-13 0 -21.5 8.5t-8.5 21.5zM78 554q0 12 8.5 21t21.5 9q12 0 21.5 -9t9.5 -21q0 -13 -9.5 -21.5t-21.5 -8.5q-13 0 -21.5 8.5t-8.5 21.5zM405 292q0 12 9.5 21t21.5 9q13 0 21.5 -9t8.5 -21q0 -13 -8.5 -21.5t-21.5 -8.5
q-12 0 -21.5 8.5t-9.5 21.5zM78 423q0 13 8.5 21.5t21.5 8.5q12 0 21.5 -8.5t9.5 -21.5t-9.5 -21t-21.5 -8q-13 0 -21.5 8t-8.5 21zM208 423q0 13 9.5 21.5t21.5 8.5q13 0 21.5 -8.5t8.5 -21.5t-8.5 -21t-21.5 -8q-12 0 -21.5 8t-9.5 21zM208 227q0 12 9.5 20.5t21.5 8.5
q13 0 21.5 -8.5t8.5 -20.5q0 -13 -8.5 -21.5t-21.5 -8.5q-12 0 -21.5 8.5t-9.5 21.5zM405 227q0 12 9.5 20.5t21.5 8.5q13 0 21.5 -8.5t8.5 -20.5q0 -13 -8.5 -21.5t-21.5 -8.5q-12 0 -21.5 8.5t-9.5 21.5zM78 227q0 12 8.5 20.5t21.5 8.5q12 0 21.5 -8.5t9.5 -20.5
q0 -13 -9.5 -21.5t-21.5 -8.5q-13 0 -21.5 8.5t-8.5 21.5zM275 227q0 12 8.5 20.5t21.5 8.5q12 0 21.5 -8.5t9.5 -20.5q0 -13 -9.5 -21.5t-21.5 -8.5q-13 0 -21.5 8.5t-8.5 21.5zM340 227q0 12 8.5 20.5t22.5 8.5q11 0 20.5 -8.5t9.5 -20.5q0 -13 -9.5 -21.5t-20.5 -8.5
q-14 0 -22.5 8.5t-8.5 21.5z" />
    </font>
</defs>
</svg>
