<svg xmlns="http://www.w3.org/2000/svg" width="512" height="512"><style type="text/css"><![CDATA[
	.st0{fill:#4E8EF7;}
]]></style><path d="M434.6 121.3c4.5-5.4 7.2-12.4 7.2-20 0-17.3-14-31.3-31.3-31.3-7.6 0-14.5 2.7-20 7.2C353 48.8 306.3 32 255.8 32c-123.5 0-224 100.5-224 224s100.5 224 224 224 224-100.5 224-224c0-50.6-16.8-97.2-45.2-134.7zM255.8 471c-118.6 0-215-96.5-215-215 0-118.6 96.5-215 215-215 48.2 0 92.8 16 128.7 42.8-3.4 5-5.3 11-5.3 17.5 0 17.3 14 31.3 31.3 31.3 6.5 0 12.5-2 17.5-5.3 26.9 35.9 42.8 80.5 42.8 128.7 0 118.5-96.5 215-215 215z" class="st0"/><ellipse cx="255.8" cy="256" class="st0" rx="96.2" ry="96.1"/></svg>