<svg xmlns="http://www.w3.org/2000/svg" width="512" height="177.846" viewBox="0 167.078 512 177.846" enable-background="new 0 167.078 512 177.846"><g fill="#fff"><path d="M227.8 233.12h3.67v69.6h-3.68zM283.73 231.4c-20.88 0-36.63 15.77-36.63 36.52 0 20.88 15.75 36.5 36.63 36.5 20.88 0 36.64-15.62 36.64-36.5 0-20.75-15.76-36.5-36.64-36.5zm0 69.6c-18.78 0-32.96-14.17-32.96-33.08 0-18.9 14.18-33.1 32.96-33.1s32.96 14.2 32.96 33.1c0 18.9-14.2 33.1-32.97 33.1zM389.83 238.37c-7.88-6.43-17.33-6.96-22.2-6.96-11.02 0-23.23 5.13-27.56 15.1h-.27v-13.38h-3.68v69.6h3.68v-40.06c0-17.46 10.77-27.83 28.23-27.83 10.5 0 16.15 3.4 19.7 6.56 5.25 4.72 8.53 12.47 8.53 24.55v36.77h3.68v-36.77c0-12.48-3.28-21.8-10.1-27.58zM420.3 233.12h3.67v69.6h-3.68zM476.23 301c-17.73 0-32.96-13.4-32.96-33.08 0-9.46 3.94-18.65 9.6-23.77 7.2-6.44 13.64-9.32 23.5-9.32 13.65 0 25.73 7.6 30.46 20.87h4.07c-5.52-16.4-20.5-24.3-34.67-24.3-21.14 0-36.64 16.03-36.64 36.65 0 21.67 16.4 36.37 36.63 36.37 16.55 0 29.68-9.45 34.54-23.63h-4.07c-3.42 10.36-14.7 20.2-30.47 20.2z"/><circle cx="229.632" cy="211.546" r="3.969"/><circle cx="422.132" cy="211.546" r="3.969"/><circle cx="90.024" cy="256" r="36.306"/><path d="M164.12 194.4c0-6.9-5.6-12.5-12.5-12.5-3.12 0-5.97 1.17-8.16 3.07-14.9-11.23-33.4-17.9-53.44-17.9C41 167.08 1.1 206.98 1.1 256c0 49.03 39.9 88.92 88.92 88.92 49.04 0 88.93-39.9 88.93-88.92 0-20.04-6.67-38.55-17.9-53.43 1.9-2.2 3.06-5.05 3.06-8.17zm-74.1 147.53C42.64 341.93 4.1 303.38 4.1 256S42.63 170.07 90 170.07c19.27 0 37.07 6.37 51.42 17.12-1.44 2.03-2.3 4.5-2.3 7.2 0 6.9 5.6 12.48 12.5 12.48 2.67 0 5.15-.86 7.2-2.3 10.74 14.35 17.1 32.15 17.1 51.42 0 47.38-38.53 85.93-85.92 85.93z"/></g></svg>