<?xml version="1.0" encoding="utf-8"?>
<!-- Generator: Adobe Illustrator 16.2.1, SVG Export Plug-In . SVG Version: 6.00 Build 0)  -->
<!DOCTYPE svg PUBLIC "-//W3C//DTD SVG 1.1//EN" "http://www.w3.org/Graphics/SVG/1.1/DTD/svg11.dtd">
<svg version="1.1" id="Layer_1" xmlns="http://www.w3.org/2000/svg" xmlns:xlink="http://www.w3.org/1999/xlink" x="0px" y="0px"
	 width="512px" height="512px" viewBox="0 0 512 512" style="enable-background:new 0 0 512 512;" xml:space="preserve">
<style type="text/css">
<![CDATA[
	.st0{fill:#4E8EF7;}
]]>
</style>
<g>
	<path class="st0" d="M434.6,121.3c4.5-5.4,7.2-12.4,7.2-20c0-17.3-14-31.3-31.3-31.3c-7.6,0-14.5,2.7-20,7.2
		C353,48.8,306.3,32,255.8,32c-123.5,0-224,100.5-224,224c0,123.5,100.5,224,224,224s224-100.5,224-224
		C479.8,205.4,463,158.8,434.6,121.3z M255.8,471c-118.6,0-215-96.5-215-215c0-118.6,96.5-215,215-215c48.2,0,92.8,16,128.7,42.8
		c-3.4,5-5.3,11-5.3,17.5c0,17.3,14,31.3,31.3,31.3c6.5,0,12.5-2,17.5-5.3c26.9,35.9,42.8,80.5,42.8,128.7
		C470.8,374.5,374.3,471,255.8,471z"/>
	<ellipse class="st0" cx="255.8" cy="256" rx="96.2" ry="96.1"/>
</g>
</svg>
