<?xml version="1.0" standalone="no"?>
<!DOCTYPE svg PUBLIC "-//W3C//DTD SVG 1.1//EN" "http://www.w3.org/Graphics/SVG/1.1/DTD/svg11.dtd" >
<svg xmlns="http://www.w3.org/2000/svg">
<metadata>
Copyright (c) 2013 by Fontsmith Ltd. All rights reserved.
</metadata>
<defs>
<font id="FSEmericWeb-Italic" horiz-adv-x="605" >
  <font-face 
    font-family="FS Emeric Web"
    font-weight="400"
    font-style="italic"
    font-stretch="normal"
    units-per-em="1000"
    panose-1="2 0 5 3 4 0 0 9 0 4"
    ascent="731"
    descent="-269"
    x-height="488"
    cap-height="663"
    bbox="-117 -270 1176 1061.35"
    underline-thickness="50"
    underline-position="-50"
    slope="-7"
    unicode-range="U+000D-FB04"
  />
<missing-glyph horiz-adv-x="600" 
d="M68 650h464v-650h-464v650zM458 604h-316l159 -237zM486 88v474l-158 -237zM458 47l-157 236l-159 -236h316zM115 88l157 237l-157 237v-474z" />
    <glyph glyph-name="fi" unicode="fi" horiz-adv-x="554" 
d="M427 488h89l-57 -488h-89zM32 470l86 16q-6 25 -6 59q0 39 14 70.5t38 54t56 35t68 12.5q38 0 77.5 -11.5t74.5 -32.5l-21 -54l-42 10q-26 6 -44 8.5t-36 2.5q-45 0 -71.5 -23.5t-26.5 -71.5q0 -14 1.5 -29.5t4.5 -27.5h169l-8 -68h-164l-73 -626h-89l73 626h-88z" />
    <glyph glyph-name="fl" unicode="fl" horiz-adv-x="590" 
d="M553 15q-15 -6 -41 -12t-45 -6q-35 0 -56 19.5t-21 55.5q0 8 1 20t3 23l69 594h89l-74 -633l80 -17zM32 470l86 16q-6 25 -6 59q0 39 14 70.5t38 54t56 35t68 12.5q35 0 67.5 -10.5t58.5 -28.5l-20 -52l-19 4q-26 5 -43 8t-35 3q-45 0 -71.5 -24t-26.5 -72
q0 -14 1.5 -29.5t4.5 -27.5h169l-8 -68h-164l-73 -626h-89l73 626h-88z" />
    <glyph glyph-name="f_f" unicode="ff" horiz-adv-x="661" 
d="M129 -206h-89l73 626h-88l7 50l84 16q-2 10 -3 21t-1 23q0 39 14 70.5t38 54t56 35t68 12.5q35 0 71 -11.5t62 -28.5l-19 -52l-27 5q-23 5 -44 8t-40 3q-44 0 -68 -24t-24 -72q0 -23 3 -42h237q-2 12 -3.5 26.5t-1.5 30.5q0 39 14 70.5t38 54t56 35t68 12.5q75 0 147 -43
l-21 -54l-39 9q-26 6 -43 8.5t-35 2.5q-45 0 -71.5 -23.5t-26.5 -71.5q0 -14 1.5 -29.5t4.5 -27.5h169l-8 -68h-164l-70 -600h-89l70 600h-233z" />
    <glyph glyph-name="f_f_i" unicode="ffi" horiz-adv-x="876" 
d="M434 545q0 39 14 70.5t38 54t56 35t68 12.5q38 0 77.5 -11.5t74.5 -32.5l-21 -54l-42 10q-26 6 -44 8.5t-36 2.5q-45 0 -71.5 -23.5t-26.5 -71.5q0 -14 1.5 -29.5t4.5 -27.5h169l-8 -68h-164l-70 -600h-89l70 600h-233l-73 -626h-89l73 626h-88l7 50l84 16q-2 10 -3 21
t-1 23q0 39 14 70.5t38 54t56 35t68 12.5q35 0 71 -11.5t62 -28.5l-19 -52l-27 5q-23 5 -44 8t-40 3q-44 0 -68 -24t-24 -72q0 -23 3 -42h237q-2 12 -3.5 26.5t-1.5 30.5zM749 488h89l-57 -488h-89z" />
    <glyph glyph-name="f_j" unicode="fj" horiz-adv-x="554" 
d="M32 470l86 16q-6 25 -6 59q0 39 14 70.5t38 54t56 35t68 12.5q38 0 77.5 -11.5t74.5 -32.5l-21 -54l-42 10q-26 6 -44 8.5t-36 2.5q-45 0 -71.5 -23.5t-26.5 -71.5q0 -14 1.5 -29.5t4.5 -27.5h169l-8 -68h-164l-73 -626h-89l73 626h-88zM451 -68q-5 -43 -15 -74t-30 -52
q-36 -38 -106 -38q-23 0 -43.5 2.5t-35.5 7.5l5 48l39 6q28 4 45 9.5t27 15t15 24.5t8 39l67 568h89z" />
    <glyph glyph-name="f_f_j" unicode="ffj" horiz-adv-x="876" 
d="M434 545q0 39 14 70.5t38 54t56 35t68 12.5q38 0 77.5 -11.5t74.5 -32.5l-21 -54l-42 10q-26 6 -44 8.5t-36 2.5q-45 0 -71.5 -23.5t-26.5 -71.5q0 -14 1.5 -29.5t4.5 -27.5h169l-8 -68h-164l-70 -600h-89l70 600h-233l-73 -626h-89l73 626h-88l7 50l84 16q-2 10 -3 21
t-1 23q0 39 14 70.5t38 54t56 35t68 12.5q35 0 71 -11.5t62 -28.5l-19 -52l-27 5q-23 5 -44 8t-40 3q-44 0 -68 -24t-24 -72q0 -23 3 -42h237q-2 12 -3.5 26.5t-1.5 30.5zM773 -68q-5 -43 -15 -74t-30 -52q-36 -38 -106 -38q-23 0 -43.5 2.5t-35.5 7.5l5 48l39 6
q28 4 45 9.5t27 15t15 24.5t8 39l67 568h89z" />
    <glyph glyph-name="f_f_l" unicode="ffl" horiz-adv-x="912" 
d="M875 15q-15 -6 -41 -12t-45 -6q-35 0 -56 19.5t-21 55.5q0 8 1 20t3 23l69 594h89l-74 -633l80 -17zM521 545q0 -14 1.5 -29.5t4.5 -27.5h169l-8 -68h-164l-70 -600h-89l70 600h-233l-73 -626h-89l73 626h-88l7 50l84 16q-2 10 -3 21t-1 23q0 39 14 70.5t38 54t56 35
t68 12.5q35 0 71 -11.5t62 -28.5l-19 -52l-27 5q-23 5 -44 8t-40 3q-44 0 -68 -24t-24 -72q0 -23 3 -42h237q-2 12 -3.5 26.5t-1.5 30.5q0 39 14 70.5t38 54t56 35t68 12.5q35 0 67.5 -10.5t58.5 -28.5l-20 -52l-19 4q-26 5 -43 8t-35 3q-45 0 -71.5 -24t-26.5 -72z" />
    <glyph glyph-name="f_t" unicode="ft" horiz-adv-x="706" 
d="M670 36q-15 -9 -35.5 -17t-42 -14t-42.5 -9.5t-39 -3.5q-57 0 -90.5 32.5t-33.5 88.5q0 13 1.5 28.5t3.5 36.5l28 242h-218l-73 -626h-89l73 626h-88l7 50l86 16q-6 25 -6 59q0 39 14 70.5t38 54t56 35t68 12.5q35 0 67.5 -10.5t58.5 -28.5l-20 -52l-19 4q-26 5 -43 8
t-35 3q-45 0 -71.5 -24t-26.5 -72q0 -14 1.5 -29.5t4.5 -27.5h223l17 141h89l-17 -141h164l-8 -68h-164l-29 -254q-2 -18 -3 -29.5t-1 -19.5q0 -22 12.5 -35.5t40.5 -13.5q12 0 30.5 2.5t45.5 7.5l50 9z" />
    <glyph glyph-name="f_f_t" unicode="fft" horiz-adv-x="1028" 
d="M199 530q0 -23 3 -42h238q-2 12 -4 26.5t-2 30.5q0 39 14 70.5t38 54t56 35t68 12.5q35 0 67.5 -10.5t58.5 -28.5l-20 -52l-19 4q-26 5 -43 8t-35 3q-45 0 -71.5 -24t-26.5 -72q0 -14 1.5 -29.5t4.5 -27.5h223l17 141h89l-17 -141h164l-8 -68h-164l-29 -254
q-2 -18 -3 -29.5t-1 -19.5q0 -22 12.5 -35.5t40.5 -13.5q12 0 30.5 2.5t45.5 7.5l50 9l15 -51q-15 -9 -35.5 -17t-42 -14t-42.5 -9.5t-39 -3.5q-57 0 -90.5 32.5t-33.5 88.5q0 13 1.5 28.5t3.5 36.5l28 242h-218l-70 -600h-89l70 600h-233l-73 -626h-89l73 626h-88l7 50
l84 16q-2 10 -3 21t-1 23q0 39 14 70.5t38 54t56 35t68 12.5q35 0 71 -11.5t62 -28.5l-19 -52l-27 5q-23 5 -44 8t-40 3q-44 0 -68 -24t-24 -72z" />
    <glyph glyph-name=".notdef" horiz-adv-x="600" 
d="M68 650h464v-650h-464v650zM458 604h-316l159 -237zM486 88v474l-158 -237zM458 47l-157 236l-159 -236h316zM115 88l157 237l-157 237v-474z" />
    <glyph glyph-name=".null" horiz-adv-x="0" 
 />
    <glyph glyph-name=".null" horiz-adv-x="0" 
 />
    <glyph glyph-name="nonmarkingreturn" unicode="&#xd;" horiz-adv-x="216" 
 />
    <glyph glyph-name="space" unicode=" " horiz-adv-x="216" 
 />
    <glyph glyph-name="nonbreakingspace" unicode="&#xa0;" horiz-adv-x="216" 
 />
    <glyph glyph-name="A" unicode="A" horiz-adv-x="656" 
d="M528 0q-13 0 -16 10l-41 146h-315l-71 -146q-3 -6 -6.5 -8t-11.5 -2h-82l332 663h84q8 0 12 -2t6 -10l191 -651h-82zM450 230l-41 142q-18 63 -31 114.5t-20 91.5q-8 -17 -18.5 -41t-23 -51t-26.5 -56t-27 -57l-69 -143h256z" />
    <glyph glyph-name="B" unicode="B" horiz-adv-x="607" 
d="M128 663h221q113 0 163 -44q40 -35 40 -101q0 -42 -22 -86t-62 -81v-2q44 -18 69 -53.5t25 -83.5q0 -91 -62 -148q-32 -30 -81 -47t-115 -17h-254zM151 77h150q48 0 79.5 11.5t51.5 29.5q19 18 27.5 42.5t8.5 52.5q0 47 -27 67q-26 19 -89 19h-175zM185 373h185
q18 0 27 4t20 14q20 19 32.5 51.5t12.5 62.5q0 39 -18 57q-14 14 -37.5 19t-57.5 5h-138z" />
    <glyph glyph-name="C" unicode="C" horiz-adv-x="658" 
d="M611 90q-27 -21 -61 -39.5t-70.5 -32t-74 -21t-72.5 -7.5q-63 0 -114 22t-87 62t-55.5 95t-19.5 120q0 78 26 148t72 122.5t107.5 83t132.5 30.5q45 0 83.5 -15t69.5 -40.5t53 -60t35 -72.5l-66 -32l-56 61q-18 19 -33 33t-30.5 22.5t-32 12.5t-36.5 4q-41 0 -82 -18
t-74 -54t-53.5 -90.5t-20.5 -126.5q0 -101 49.5 -160.5t140.5 -59.5q32 0 68 8.5t87 25.5l87 29z" />
    <glyph glyph-name="D" unicode="D" horiz-adv-x="682" 
d="M128 663h209q86 0 147 -20t100 -59q72 -71 72 -198q0 -90 -31.5 -163.5t-86.5 -124.5q-51 -48 -117 -73t-155 -25h-216zM151 78h104q78 0 132 20t92 57q42 41 63 100.5t21 129.5q0 96 -46 144q-29 29 -75 42.5t-110 13.5h-122z" />
    <glyph glyph-name="E" unicode="E" horiz-adv-x="555" 
d="M549 663l-10 -77h-329l-23 -205h301l-10 -76h-301l-26 -228h340l-9 -77h-432l78 663h421z" />
    <glyph glyph-name="F" unicode="F" horiz-adv-x="527" 
d="M545 663l-9 -77h-325l-24 -205h295l-10 -76h-295l-35 -305h-92l78 663h417z" />
    <glyph glyph-name="G" unicode="G" horiz-adv-x="710" 
d="M438 267l9 71h197q16 0 15 -15l-39 -323h-58l-16 58l-58 -28q-34 -17 -74 -28.5t-83 -11.5q-57 0 -106.5 21t-87 60t-59 94.5t-21.5 125.5q0 86 29 156.5t76.5 120.5t108.5 77.5t126 27.5q45 0 85 -13.5t73 -37t58 -56t41 -70.5l-64 -36l-54 55q-37 38 -71 55t-76 17
q-50 0 -93.5 -21t-75.5 -59.5t-50.5 -92t-18.5 -118.5q0 -50 13 -90.5t38.5 -69t62.5 -44.5t85 -16q22 0 46.5 3.5t48 9.5t45 14t39.5 17q11 5 15 10.5t5 13.5l14 123h-125z" />
    <glyph glyph-name="H" unicode="H" horiz-adv-x="686" 
d="M528 305h-350l-36 -305h-92l78 663h92l-33 -279h350l33 279h92l-78 -663h-92z" />
    <glyph glyph-name="I" unicode="I" horiz-adv-x="248" 
d="M144 0h-92l78 663h92z" />
    <glyph glyph-name="J" unicode="J" horiz-adv-x="471" 
d="M21 94l49 -9q73 -14 113 -14q60 0 90 32q15 16 24.5 43.5t13.5 62.5l53 454h92l-55 -464q-7 -56 -22 -92.5t-41 -62.5t-62.5 -40t-85.5 -14q-48 0 -97.5 13.5t-91.5 36.5z" />
    <glyph glyph-name="K" unicode="K" horiz-adv-x="619" 
d="M358 387l224 -387h-90q-9 0 -13 1.5t-8 8.5l-182 322q-12 -10 -27.5 -21t-31.5 -21.5t-31.5 -20t-26.5 -15.5l-30 -254h-92l78 663h92l-38 -322l401 328l48 -58z" />
    <glyph glyph-name="L" unicode="L" horiz-adv-x="516" 
d="M130 663h92l-69 -586h318l-9 -77h-410z" />
    <glyph glyph-name="M" unicode="M" horiz-adv-x="808" 
d="M617 0q11 96 19.5 169.5t14.5 128t10.5 92.5t7.5 63q7 58 8 68l-242 -285h-55q-14 0 -22 12l-161 273l-60 -521h-87l78 663h68q8 0 12.5 -2t9.5 -10l193 -327h2l277 327q7 8 11 10t14 2h69l-78 -663h-89v0z" />
    <glyph glyph-name="N" unicode="N" horiz-adv-x="706" 
d="M287 375q-23 35 -47 73t-43 69l-61 -517h-86l78 663h56q8 0 12 -2t9 -9l238 -364q26 -39 49.5 -76t42.5 -68l61 519h86l-78 -663h-57q-8 0 -12.5 2t-9.5 9z" />
    <glyph glyph-name="O" unicode="O" horiz-adv-x="714" 
d="M688 366q0 -80 -27.5 -148.5t-74 -119t-108 -79.5t-130.5 -29q-62 0 -115.5 23.5t-92.5 64.5t-61 97t-22 122q0 80 27 148.5t73.5 119t108.5 79.5t131 29q62 0 115.5 -23.5t92.5 -64.5t61 -97t22 -122zM594 359q0 48 -13.5 89t-39 71t-63 47.5t-85.5 17.5q-54 0 -99 -22
t-76.5 -60t-49 -89t-17.5 -109q0 -48 13.5 -89t39 -71.5t63 -47.5t85.5 -17q54 0 99 22t76.5 60t49 89t17.5 109z" />
    <glyph glyph-name="P" unicode="P" horiz-adv-x="596" 
d="M142 0h-92l78 663h219q64 0 111 -13.5t77 -42.5q47 -47 47 -130q0 -54 -21.5 -108t-63.5 -94q-15 -15 -30.5 -24t-35 -14t-44 -7t-57.5 -2h-161zM178 304h203q26 0 40 8t28 28q18 26 29.5 61.5t11.5 70.5q0 53 -26 81q-17 17 -44.5 25t-70.5 8h-138z" />
    <glyph glyph-name="Q" unicode="Q" horiz-adv-x="714" 
d="M688 366q0 -55 -13 -105.5t-37 -93t-57.5 -76.5t-73.5 -57l120 -167l-92 -51l-109 184q-19 -5 -38.5 -7.5t-39.5 -2.5q-62 0 -115.5 23.5t-92.5 64.5t-61 97t-22 122q0 80 27 148.5t73.5 119t108.5 79.5t131 29q62 0 115.5 -23.5t92.5 -64.5t61 -97t22 -122zM594 359
q0 48 -13.5 89t-39 71t-63 47.5t-85.5 17.5q-54 0 -99 -22t-76.5 -60t-49 -89t-17.5 -109q0 -48 13.5 -89t39 -71.5t63 -47.5t85.5 -17q54 0 99 22t76.5 60t49 89t17.5 109z" />
    <glyph glyph-name="R" unicode="R" horiz-adv-x="624" 
d="M479 0q-14 0 -19 11l-94 220q-4 8 -8 10t-13 2h-175l-28 -243h-92l78 663h228q60 0 105.5 -13t74.5 -41q49 -46 49 -129q0 -67 -35 -126.5t-98 -97.5l115 -256h-88zM382 319q27 0 41.5 8t28.5 28q18 25 29 58t11 65q0 51 -23 75q-16 17 -43.5 25t-70.5 8h-144l-31 -267
h202z" />
    <glyph glyph-name="S" unicode="S" horiz-adv-x="549" 
d="M53 102l56 -11q49 -10 84.5 -15t69.5 -5q73 0 111 34t38 87q0 21 -6 37t-19.5 29t-35 25.5t-52.5 26.5l-50 23q-79 36 -120 75.5t-41 101.5q0 36 16 66t46 51.5t72 33.5t95 12q50 0 101.5 -9t94.5 -24l-13 -57l-55 4q-74 6 -124 6q-75 0 -111 -20.5t-36 -62.5
q0 -34 29 -55.5t83 -46.5l50 -23q39 -18 69.5 -36t51.5 -40t32 -48.5t11 -60.5q0 -46 -16.5 -84.5t-47 -66.5t-72.5 -43.5t-93 -15.5q-30 0 -62 4t-63.5 11.5t-61 18t-53.5 22.5z" />
    <glyph glyph-name="T" unicode="T" horiz-adv-x="569" 
d="M282 586h-215l10 77h521l-10 -77h-214l-69 -586h-92z" />
    <glyph glyph-name="U" unicode="U" horiz-adv-x="664" 
d="M605 283q-8 -62 -27.5 -115.5t-54.5 -93t-86.5 -62t-122.5 -22.5q-60 0 -105 17.5t-76 48.5t-46.5 73t-15.5 92q0 18 2 42.5t6 60.5l40 339h92l-41 -343q-4 -35 -5.5 -56t-1.5 -36q0 -75 41.5 -112.5t116.5 -37.5q49 0 83.5 15t57.5 43.5t36.5 69.5t19.5 92l44 365h89z
" />
    <glyph glyph-name="V" unicode="V" horiz-adv-x="613" 
d="M139 663q8 0 11 -2.5t5 -10.5l94 -372q16 -61 28 -113t17 -87h1q12 32 34.5 85t49.5 110l177 375q5 9 9 12t12 3h83l-320 -663h-95q-14 0 -17 11l-170 652h81z" />
    <glyph glyph-name="W" unicode="W" horiz-adv-x="964" 
d="M561 663q8 0 10.5 -2t4.5 -10l63 -351q11 -58 20 -115t13 -100q7 22 19 55.5t27 72t31 79.5t32 79l116 281q3 8 6 9.5t10 1.5h82q-18 -42 -39 -92.5t-44 -104.5t-46 -109.5t-45 -107.5q-51 -121 -104 -249h-97q-8 0 -10.5 2t-4.5 9l-55 291q-14 73 -23 135.5t-13 108.5
q-5 -17 -15 -46.5t-22.5 -63.5t-25.5 -68.5t-23 -61.5l-120 -306h-94q-8 0 -11 1.5t-5 9.5l-125 652h81q8 0 10 -1t4 -9l66 -362q11 -62 20 -115t13 -89q6 21 15.5 52.5t22.5 69.5t29 80t33 85l116 289h78z" />
    <glyph glyph-name="X" unicode="X" horiz-adv-x="612" 
d="M-17 0l278 350l-190 313h86q8 0 11.5 -2t7.5 -8l145 -240l189 241q5 6 8.5 7.5t11.5 1.5h87l-252 -317l215 -346h-85q-14 0 -20 10l-169 273l-215 -274q-4 -5 -7.5 -7t-12.5 -2h-88z" />
    <glyph glyph-name="Y" unicode="Y" horiz-adv-x="584" 
d="M652 663l-304 -447l-25 -216h-92l26 216l-201 447h86q8 0 11 -2t6 -9l77 -177q23 -54 43 -102.5t31 -80.5h2q9 15 22 37t28.5 46.5t33 51t34.5 52.5l117 174q5 6 9 8t12 2h84z" />
    <glyph glyph-name="Z" unicode="Z" horiz-adv-x="537" 
d="M488 77l-9 -77h-469l6 48q2 11 4.5 16t10.5 16l261 333q51 66 85.5 107.5t56.5 65.5h-361l10 77h468l-6 -49q-2 -11 -4 -15.5t-9 -13.5l-263 -335q-51 -66 -85.5 -107.5t-56.5 -65.5h361z" />
    <glyph glyph-name="a" unicode="a" horiz-adv-x="549" 
d="M490 483l-48 -408l71 -17l-5 -42q-17 -8 -38 -13t-40 -5q-24 0 -44.5 14t-27.5 35l-20 -12q-32 -19 -64.5 -31t-64.5 -12q-38 0 -70.5 16t-56 45t-36.5 68.5t-13 86.5q0 63 20.5 115.5t54.5 91t76.5 60t87.5 21.5q29 0 56 -10t56 -28l24 -15l21 46zM343 106q9 6 11.5 10
t4.5 14l29 235q1 11 -9 19q-17 13 -44.5 22t-56.5 9q-33 0 -61.5 -14t-49.5 -41t-33 -65t-12 -86q0 -64 27.5 -101t79.5 -37q29 0 60 10.5t54 24.5z" />
    <glyph glyph-name="b" unicode="b" horiz-adv-x="523" 
d="M166 448l19 10q36 19 66 28.5t59 9.5q35 0 66.5 -14t54.5 -40q26 -29 42 -70.5t16 -92.5q0 -62 -17.5 -114.5t-48.5 -90.5t-72.5 -60t-89.5 -22q-31 0 -64 11t-68 31l-22 13l-21 -48l-61 5l83 705h89zM127 123q-1 -8 1 -13t10 -10q20 -12 51 -20.5t55 -8.5q63 0 101 40
q26 26 40.5 68t14.5 99q0 66 -29 101.5t-86 35.5q-52 0 -111 -28q-11 -5 -14 -11t-5 -17z" />
    <glyph glyph-name="c" unicode="c" horiz-adv-x="493" 
d="M452 69q-20 -16 -45 -30t-52.5 -24.5t-56.5 -16.5t-56 -6q-51 0 -90 17.5t-65.5 47.5t-40 70t-13.5 86q0 56 18.5 107t51.5 90t78.5 62.5t100.5 23.5q34 0 63.5 -11.5t53.5 -31t41 -46t26 -57.5l-62 -30l-31 33q-29 31 -51 47.5t-53 16.5q-32 0 -58.5 -15.5t-46.5 -42.5
t-31 -63.5t-11 -77.5q0 -69 33 -107.5t99 -38.5q23 0 51 6.5t60 17.5l63 21z" />
    <glyph glyph-name="d" unicode="d" horiz-adv-x="554" 
d="M272 496q29 0 58 -10t58 -28l13 -9l31 260h89l-75 -634l71 -17l-5 -42q-17 -8 -38 -13t-40 -5q-24 0 -44.5 14t-27.5 35l-20 -12q-32 -19 -66 -31t-66 -12q-38 0 -70.5 16t-56 45t-37 68.5t-13.5 86.5q0 63 20.5 115.5t54.5 91t76.5 60t87.5 21.5zM347 106q9 5 11.5 9.5
t4.5 14.5l29 235q1 11 -9 19q-17 13 -46.5 22t-58.5 9q-33 0 -61.5 -14t-49.5 -41t-33 -65t-12 -86q0 -64 28 -101t80 -37q29 0 61.5 10.5t55.5 24.5z" />
    <glyph glyph-name="e" unicode="e" horiz-adv-x="523" 
d="M482 284q0 -38 -9 -50.5t-25 -12.5h-326q0 -32 8.5 -59t25.5 -47t43 -31.5t61 -11.5q22 0 49 4.5t62 15.5l61 18l22 -47q-19 -15 -44 -28t-52 -22.5t-55 -15t-53 -5.5q-44 0 -83.5 15t-69 43.5t-47 70t-17.5 95.5q0 60 20.5 111.5t55 89t80 58.5t95.5 21q44 0 80.5 -16
t62.5 -44.5t40.5 -67t14.5 -84.5zM397 288q-1 57 -31 92.5t-88 35.5q-57 0 -95.5 -35.5t-51.5 -92.5h266z" />
    <glyph glyph-name="f" unicode="f" horiz-adv-x="339" 
d="M32 470l86 16q-6 25 -6 59q0 39 14 70.5t38 54t56 35t68 12.5q75 0 147 -43l-21 -54l-39 9q-26 6 -43 8.5t-35 2.5q-45 0 -71.5 -23.5t-26.5 -71.5q0 -14 1.5 -29.5t4.5 -27.5h169l-8 -68h-164l-73 -626h-89l73 626h-88z" />
    <glyph glyph-name="g" unicode="g" horiz-adv-x="534" 
d="M311 -124q36 37 46 132l4 39l-12 -7q-33 -20 -67.5 -31.5t-66.5 -11.5q-39 0 -72 16t-57.5 44.5t-38.5 68t-14 87.5q0 63 21 115.5t55.5 89.5t78.5 57.5t89 20.5q29 0 58.5 -10t58.5 -28l24 -15l21 46l61 -6l-57 -483q-15 -126 -72 -180q-55 -52 -149 -52
q-38 0 -81.5 10.5t-77.5 27.5l16 53l46 -6q25 -3 50.5 -5.5t41.5 -2.5q64 0 94 31zM354 111q9 6 11.5 10t4.5 14l28 230q1 11 -9 19q-17 13 -47 22t-59 9q-33 0 -62.5 -13t-51.5 -38.5t-34.5 -63t-12.5 -86.5q0 -64 30.5 -101.5t82.5 -37.5q29 0 62.5 11t56.5 25z" />
    <glyph glyph-name="h" unicode="h" horiz-adv-x="539" 
d="M177 449l17 9q32 17 64.5 27.5t66.5 10.5q36 0 66 -11t51.5 -30.5t33.5 -47t12 -59.5q0 -16 -2.5 -37.5t-4.5 -40.5l-32 -270h-89l34 288q2 13 3 26.5t1 22.5q0 38 -25.5 56.5t-73.5 18.5q-26 0 -57.5 -6.5t-61.5 -19.5q-7 -3 -9 -7.5t-3 -10.5l-43 -368h-89l83 709h89z
" />
    <glyph glyph-name="i" unicode="i" horiz-adv-x="221" 
d="M95 488h89l-57 -488h-89zM116 675h74q18 0 17 -16l-10 -78h-93z" />
    <glyph glyph-name="j" unicode="j" horiz-adv-x="215" 
d="M113 -68q-5 -43 -15 -74t-30 -52q-36 -38 -106 -38q-23 0 -43.5 2.5t-35.5 7.5l5 48l39 6q28 4 45 9.5t27 15t15 24.5t8 39l67 568h89zM110 675h74q18 0 17 -16l-10 -78h-93z" />
    <glyph glyph-name="k" unicode="k" horiz-adv-x="516" 
d="M481 0h-85q-9 0 -13 2.5t-8 9.5l-123 233q-12 -9 -26.5 -19t-29.5 -19.5t-28 -17.5t-22 -12l-21 -177h-89l83 709h89l-53 -450l303 239l45 -56l-182 -144z" />
    <glyph glyph-name="l" unicode="l" horiz-adv-x="249" 
d="M212 15q-15 -6 -41 -12t-45 -6q-35 0 -56 19.5t-21 55.5q0 8 1 20t3 23l69 594h89l-74 -633l80 -17z" />
    <glyph glyph-name="m" unicode="m" horiz-adv-x="842" 
d="M159 488l9 -44l25 14q29 17 61 27.5t66 10.5q45 0 78.5 -17t53.5 -46l30 17q40 22 77 34t73 12t65.5 -11.5t50.5 -31.5t32 -47t11 -58q0 -16 -2.5 -37.5t-4.5 -40.5l-32 -270h-89l34 288q2 13 3 26.5t1 22.5q0 35 -23.5 55t-71.5 20q-26 0 -56 -6t-60 -19q-8 -4 -10 -9.5
t-2 -12.5q0 -18 -1.5 -43t-4.5 -52l-32 -270h-89l34 288q2 13 3 26.5t1 22.5q0 35 -23.5 55t-71.5 20q-53 0 -114 -26q-7 -3 -9 -7.5t-3 -10.5l-43 -368h-89l57 488h66z" />
    <glyph glyph-name="n" unicode="n" horiz-adv-x="539" 
d="M159 488l9 -44l26 14q32 17 64.5 27.5t66.5 10.5q36 0 66 -11t51.5 -30.5t33.5 -47t12 -59.5q0 -16 -2.5 -37.5t-4.5 -40.5l-32 -270h-89l34 288q2 13 3 26.5t1 22.5q0 38 -25.5 56.5t-73.5 18.5q-26 0 -57.5 -6.5t-61.5 -19.5q-11 -5 -12 -18l-43 -368h-89l57 488h66z
" />
    <glyph glyph-name="o" unicode="o" horiz-adv-x="530" 
d="M247 73q35 0 64 14.5t50 40.5t32.5 61.5t11.5 77.5q0 28 -7.5 55t-23 47.5t-39.5 33t-57 12.5q-35 0 -64.5 -14.5t-50.5 -40.5t-32.5 -61.5t-11.5 -77.5q0 -29 7.5 -55.5t23 -47t40 -33t57.5 -12.5zM243 -8q-46 0 -85 16.5t-67.5 46.5t-44.5 71t-16 89q0 57 19.5 108
t53 89.5t79.5 61t99 22.5q46 0 85 -16.5t67.5 -46.5t44.5 -71t16 -89q0 -57 -19.5 -108t-53 -89.5t-79.5 -61t-99 -22.5z" />
    <glyph glyph-name="p" unicode="p" horiz-adv-x="533" 
d="M127 41l-31 -270h-89l85 717h65l12 -43l25 13q39 20 68 29t58 9q35 0 66.5 -14t54.5 -40q26 -29 42 -70.5t16 -92.5q0 -62 -17.5 -114.5t-48.5 -90.5t-72.5 -60t-89.5 -22q-31 0 -65.5 11.5t-66.5 30.5zM137 123q-1 -8 1 -13t10 -10q20 -12 51 -20.5t55 -8.5q63 0 101 40
q26 26 40.5 68t14.5 99q0 66 -28.5 101.5t-85.5 35.5q-53 0 -112 -28q-11 -5 -14 -11t-5 -17z" />
    <glyph glyph-name="q" unicode="q" horiz-adv-x="528" 
d="M320 -229l32 270l-11 -6q-32 -19 -66 -31t-66 -12q-38 0 -70.5 16t-56 45t-36.5 68.5t-13 86.5q0 63 20.5 115.5t54.5 91t76.5 60t87.5 21.5q29 0 57.5 -10t57.5 -28l24 -15l21 46l61 -6l-84 -712h-89zM346 106q9 5 11.5 9.5t4.5 14.5l29 235q1 11 -9 19q-17 13 -46 22
t-58 9q-33 0 -61.5 -14t-49.5 -41t-33 -65t-12 -86q0 -64 27.5 -101t79.5 -37q29 0 61.5 10.5t55.5 24.5z" />
    <glyph glyph-name="r" unicode="r" horiz-adv-x="352" 
d="M168 421q34 22 60 36.5t45.5 23t33 12t23.5 3.5q22 0 45 -15l-8 -60q-42 -11 -93.5 -26.5t-96.5 -30.5q-11 -4 -12 -17l-40 -347h-89l57 488h68z" />
    <glyph glyph-name="s" unicode="s" horiz-adv-x="427" 
d="M28 91l60 -12q29 -6 56 -9.5t47 -3.5q46 0 78 19.5t32 57.5q0 23 -16.5 39t-62.5 33l-58 22q-52 20 -84 48t-32 79q0 31 14.5 56t39 41.5t57.5 25.5t70 9q42 0 84 -9t77 -24l-15 -54l-48 5q-29 3 -54.5 5t-44.5 2q-43 0 -72 -11.5t-29 -41.5q0 -20 16 -33.5t55 -28.5
l58 -22q63 -23 94.5 -53t31.5 -80q0 -38 -15 -67.5t-41 -50t-60.5 -31t-74.5 -10.5q-49 0 -97.5 13.5t-88.5 34.5z" />
    <glyph glyph-name="t" unicode="t" horiz-adv-x="398" 
d="M361 36q-15 -9 -35.5 -17t-42 -14t-42.5 -9.5t-39 -3.5q-57 0 -90.5 32.5t-33.5 88.5q0 13 1.5 28.5t3.5 36.5l28 242h-88l7 50l89 17l17 142h89l-17 -141h164l-8 -68h-164l-29 -254q-2 -18 -3 -29.5t-1 -19.5q0 -22 12.5 -35.5t40.5 -13.5q12 0 30.5 2.5t45.5 7.5l50 9z
" />
    <glyph glyph-name="u" unicode="u" horiz-adv-x="528" 
d="M369 0l-9 44l-26 -14q-32 -17 -63.5 -27.5t-64.5 -10.5q-36 0 -66 11t-51.5 31t-33 47t-11.5 60q0 15 2.5 37.5t4.5 39.5l32 270h89l-34 -288q-2 -13 -3 -26.5t-1 -22.5q0 -75 98 -75q55 0 116 26q7 3 9 7.5t3 10.5l43 368h89l-57 -488h-66z" />
    <glyph glyph-name="v" unicode="v" horiz-adv-x="477" 
d="M504 488l-248 -488h-78q-8 0 -11 2.5t-5 7.5l-144 478h80q13 0 16 -11l71 -254q10 -34 19 -71t15 -66q14 32 32.5 71.5t35.5 74.5l121 245q3 6 6 8.5t11 2.5h79z" />
    <glyph glyph-name="w" unicode="w" horiz-adv-x="763" 
d="M487 300q13 -67 22.5 -122.5t14.5 -91.5q14 38 34 88t46 109l84 194q5 11 16 11h77l-218 -488h-87q-13 0 -15 10l-38 192q-4 22 -8.5 47t-9 49.5t-8 46.5t-5.5 39q-6 -18 -15 -41.5t-19 -50t-20.5 -53t-20.5 -49.5l-78 -190h-84q-13 0 -15 11l-116 477h79q11 0 14 -10
l38 -163q7 -30 14 -62t13 -62.5t10.5 -57t7.5 -46.5q17 48 38.5 107.5t50.5 131.5l65 162h84q13 0 15 -11z" />
    <glyph glyph-name="x" unicode="x" horiz-adv-x="481" 
d="M381 479q5 6 8.5 7.5t11.5 1.5h84l-196 -241l158 -247h-85q-14 0 -19 8l-117 186l-144 -186q-4 -5 -7.5 -6.5t-11.5 -1.5h-86l209 255l-147 233h84q8 0 11 -1.5t7 -7.5l106 -168z" />
    <glyph glyph-name="y" unicode="y" horiz-adv-x="478" 
d="M18 488h82q8 0 10.5 -2.5t4.5 -7.5l64 -225q13 -45 24 -90.5t17 -77.5h1q5 14 13.5 33.5t18.5 41t20.5 42.5t18.5 38l118 238q3 6 5.5 8t10.5 2h79l-369 -724l-82 29l112 205z" />
    <glyph glyph-name="z" unicode="z" horiz-adv-x="445" 
d="M57 420l9 68h372l-4 -38q-2 -11 -4.5 -16.5t-11.5 -16.5l-184 -217q-13 -15 -28.5 -33t-31 -35.5t-30.5 -34t-26 -28.5h275l-8 -69h-381l4 38q2 11 4.5 16.5t11.5 16.5l184 217q13 15 28.5 33t31.5 36t31 34.5t26 28.5h-268z" />
    <glyph glyph-name="ampersand" unicode="&#x26;" horiz-adv-x="720" 
d="M485 185q29 35 64 90.5t76 128.5l56 -21q-28 -67 -66 -134.5t-81 -120.5l46 -56l84 -12l-3 -42q-17 -8 -39.5 -14.5t-40.5 -6.5q-26 0 -44.5 9.5t-40.5 35.5l-22 26q-45 -37 -95.5 -57.5t-105.5 -20.5q-51 0 -94 16t-74 43.5t-48.5 64.5t-17.5 79q0 36 12.5 65.5
t34.5 54.5t51.5 46t63.5 39q-13 22 -20.5 46.5t-7.5 51.5q0 36 14.5 68.5t40 56.5t60 38t74.5 14q33 0 62 -11t50.5 -30.5t34 -46t12.5 -57.5q0 -30 -9.5 -55t-26.5 -47t-40 -42t-50 -39l-28 -20zM233 352l-12 -10q-46 -38 -69.5 -69.5t-23.5 -71.5q0 -26 10.5 -50t30.5 -42
t48 -28.5t64 -10.5q39 0 75 14t68 40zM332 366q29 27 50 48t34.5 38.5t20 34t6.5 34.5q0 35 -24.5 57t-59.5 22q-48 0 -76.5 -27.5t-28.5 -69.5q0 -29 15.5 -56t46.5 -62z" />
    <glyph glyph-name="at" unicode="@" horiz-adv-x="742" 
d="M524 402l-26 -206q-1 -8 -1.5 -14.5t-0.5 -12.5q0 -14 9.5 -24t29.5 -10q24 0 42.5 12.5t31 35t19.5 53t7 65.5q0 51 -18 90.5t-49 66.5t-73 41.5t-90 14.5q-65 0 -118.5 -23.5t-91.5 -64t-59 -96.5t-21 -120q0 -56 17.5 -100.5t50 -75.5t78.5 -47.5t103 -16.5
q51 0 111.5 19.5t137.5 48.5l22 -38q-59 -43 -134.5 -71t-156.5 -28q-68 0 -124.5 23t-97 64t-63.5 97t-23 121q0 75 27.5 143t77 120.5t118 83.5t150.5 31q62 0 116 -21t94 -58t63 -88t23 -111q0 -45 -13 -86.5t-36 -73t-56 -50t-72 -18.5q-31 0 -52 11t-34 28
q-32 -22 -56 -32t-47 -10q-26 0 -48 11t-39 30.5t-26.5 46t-9.5 58.5q0 42 13.5 77t36 60.5t50 39.5t56.5 14q25 0 47 -11t45 -28l16 34zM445 315q1 11 -8 16q-10 6 -26 10.5t-32 4.5q-24 0 -41 -10.5t-28.5 -27.5t-17 -39t-5.5 -45q0 -39 17.5 -60.5t50.5 -21.5q32 0 61 18
q12 8 13 23z" />
    <glyph glyph-name="exclam" unicode="!" horiz-adv-x="236" 
d="M84 176q0 40 1 74t2.5 64t4 57.5t5.5 55.5l28 236h88l-31 -260q-3 -27 -7.5 -51.5t-9.5 -50.5t-11.5 -56t-15.5 -69h-54zM53 98h82q19 0 16 -16l-10 -82h-99z" />
    <glyph glyph-name="exclamdown" unicode="&#xa1;" horiz-adv-x="235" 
d="M146.991 311.98q0 -39.9971 -1 -73.9951t-2.5 -63.9961t-4 -57.4961q-2.5 -27.499 -5.49902 -55.4971l-27.999 -235.985h-87.9941l30.998 259.984q3 26.998 7.49902 51.4961q4.5 24.499 9.5 50.4971q5 25.999 11.499 55.9971q6.5 29.998 15.499 68.9951h53.9971z
M177.989 389.977h-81.9951q-18.999 0 -15.999 15.999l9.99902 81.9951h98.9941z" />
    <glyph glyph-name="question" unicode="?" horiz-adv-x="473" 
d="M160 175q-2 29 -3 47t-1 33q0 32 8.5 47t30.5 28l71 40q25 14 45 27.5t33.5 28t20.5 32t7 40.5q0 44 -30.5 68.5t-80.5 24.5q-25 0 -55 -5t-70 -16l-55 -14l-23 52q49 29 105 47t111 18q40 0 74.5 -12t60.5 -34t41 -53t15 -70q0 -38 -11.5 -67.5t-33.5 -53.5t-52.5 -43
t-69.5 -37l-53 -24l-29 -104h-56zM130 96h82q19 0 16 -16l-10 -80h-99z" />
    <glyph glyph-name="questiondown" unicode="&#xbf;" horiz-adv-x="473" 
d="M320.98 312.98q2 -28.998 3 -46.9971t1 -32.998q0 -31.998 -8.5 -46.9971q-8.49902 -14.999 -30.498 -27.998l-70.9951 -39.9971q-24.999 -13.999 -44.998 -27.499q-19.998 -13.499 -33.498 -27.998q-13.499 -14.499 -20.498 -31.998q-7 -17.499 -7 -40.4971
q0 -43.998 30.498 -68.4961q30.498 -24.499 80.4951 -24.499q24.999 0 54.9971 5t69.9951 15.999l54.9971 13.999l22.999 -51.9961q-48.9971 -28.999 -104.994 -46.998q-55.9961 -17.998 -110.993 -17.998q-39.9971 0 -74.4951 11.999t-60.4961 33.998
q-25.999 21.998 -40.998 52.9961t-14.999 69.9961q0 37.998 11.499 67.4961q11.5 29.498 33.498 53.4961q21.999 23.999 52.4971 42.998t69.4961 36.9971l52.9961 23.999l28.998 103.993h55.9971zM350.979 391.977h-81.9951q-18.999 0 -15.999 15.998l10 79.9961h98.9932z
" />
    <glyph glyph-name="asterisk" unicode="*" horiz-adv-x="418" 
d="M307 318q-13 -9 -19 5l-57 119l-94 -132l-49 36q-8 5 -7 9.5t9 12.5l106 105l-129 38l27 55q5 9 9.5 11t13.5 -4l99 -59l2 149h65q13 0 10 -14l-30 -135l129 65l15 -54q3 -10 -0.5 -13.5t-12.5 -6.5l-120 -32l90 -120z" />
    <glyph glyph-name="period" unicode="." horiz-adv-x="207" 
d="M37 102h82q19 0 16 -16l-11 -86h-99z" />
    <glyph glyph-name="comma" unicode="," horiz-adv-x="205" 
d="M118 102q11 0 13.5 -4t1.5 -12l-8 -62q-3 -24 -10.5 -43.5t-21.5 -38.5t-35.5 -40.5t-53.5 -51.5l-27 24l71 110q5 9 -1 15l-9 10q-8 8 -9.5 13t-0.5 15l7 65h83z" />
    <glyph glyph-name="colon" unicode=":" horiz-adv-x="205" 
d="M37 102h82q19 0 16 -16l-11 -86h-99zM75 425h82q19 0 16 -16l-11 -86h-99z" />
    <glyph glyph-name="semicolon" unicode=";" horiz-adv-x="203" 
d="M73 425h82q19 0 16 -16l-11 -86h-99zM118 102q11 0 13.5 -4t1.5 -12l-8 -62q-3 -24 -10.5 -43.5t-21.5 -38.5t-35.5 -40.5t-53.5 -51.5l-27 24l71 110q5 9 -1 15l-9 10q-8 8 -9.5 13t-0.5 15l7 65h83z" />
    <glyph glyph-name="ellipsis" unicode="&#x2026;" horiz-adv-x="613" 
d="M37 102h82q19 0 16 -16l-11 -86h-99zM443 102h82q19 0 16 -16l-11 -86h-99zM240 102h82q19 0 16 -16l-11 -86h-99z" />
    <glyph glyph-name="periodcentered" unicode="&#xb7;" horiz-adv-x="207" 
d="M63 330h82q19 0 16 -16l-11 -86h-99z" />
    <glyph glyph-name="bullet" unicode="&#x2022;" horiz-adv-x="336" 
d="M255 184h-195l22 194h174q23 0 20 -20z" />
    <glyph glyph-name="slash" unicode="/" horiz-adv-x="438" 
d="M-10 0l399 663h91l-399 -663h-91z" />
    <glyph glyph-name="parenleft" unicode="(" horiz-adv-x="315" 
d="M366 640q-97 -106 -153 -229t-56 -262q0 -94 26.5 -184.5t82.5 -170.5l-46 -37q-76 75 -116 176t-40 213q0 77 18.5 151t53 142t83.5 128t109 110l38 -37v0z" />
    <glyph glyph-name="brokenbar" unicode="&#xa6;" horiz-adv-x="241" 
d="M137 709h82l-49 -418h-82zM75 189h82l-49 -418h-82z" />
    <glyph glyph-name="parenright" unicode=")" horiz-adv-x="315" 
d="M-51 -206q95 106 152.5 229.5t57.5 261.5q0 94 -27 184.5t-83 170.5l47 37q76 -75 115.5 -176t39.5 -213q0 -77 -18.5 -151t-53 -142t-83 -128t-108.5 -110l-39 37v0z" />
    <glyph glyph-name="bracketleft" unicode="[" horiz-adv-x="308" 
d="M136 663h216l-9 -77h-130l-87 -738h130l-9 -77h-216z" />
    <glyph glyph-name="backslash" unicode="\" horiz-adv-x="423" 
d="M298 0l-243 663h88l244 -663h-89z" />
    <glyph glyph-name="bracketright" unicode="]" horiz-adv-x="308" 
d="M169 -229h-216l9 77h130l87 738h-130l9 77h216z" />
    <glyph glyph-name="braceleft" unicode="{" horiz-adv-x="335" 
d="M51 246q35 8 57.5 18.5t36 25.5t18.5 36.5t5 51.5q0 13 -1 31t-2 37.5t-2 38.5t-1 35q0 76 35.5 114.5t99.5 38.5q21 0 45.5 -4.5t42.5 -10.5l-6 -46l-81 -14q-33 -6 -43 -17.5t-10 -40.5q0 -14 1 -33t2 -39t2 -39.5t1 -34.5q0 -74 -29.5 -113.5t-89.5 -63.5
q45 -17 66 -44t21 -74q0 -25 -8 -58t-17.5 -65.5t-17.5 -61t-8 -44.5q0 -15 8 -22t29 -11l83 -14l-6 -46q-19 -5 -44.5 -9.5t-45.5 -4.5q-51 0 -79.5 28t-28.5 72q0 25 8 58.5t18 67.5t18 65.5t8 53.5q0 34 -21.5 53t-70.5 27z" />
    <glyph glyph-name="bar" unicode="|" horiz-adv-x="241" 
d="M137 709h82l-111 -938h-82z" />
    <glyph glyph-name="braceright" unicode="}" horiz-adv-x="335" 
d="M284 190q-35 -8 -57.5 -18.5t-36 -25.5t-18.5 -36.5t-5 -51.5q0 -13 1 -31t2 -37.5t2 -38.5t1 -35q0 -76 -35.5 -114.5t-99.5 -38.5q-21 0 -45.5 4.5t-42.5 10.5l6 46l81 14q33 6 43 17.5t10 40.5q0 13 -1 32.5t-2 39.5t-2 39.5t-1 34.5q0 74 29.5 113.5t89.5 63.5
q-45 17 -66 44t-21 74q0 25 8 58t17.5 65.5t17.5 61t8 44.5q0 15 -8 22t-29 11l-83 14l6 46q19 5 44.5 9.5t45.5 4.5q51 0 79.5 -28t28.5 -72q0 -26 -8 -59t-18 -67t-18 -65.5t-8 -53.5q0 -34 21.5 -53t70.5 -27z" />
    <glyph glyph-name="hyphen" unicode="-" horiz-adv-x="400" 
d="M50 207l9 74h291l-9 -74h-291z" />
    <glyph glyph-name="uni00AD" unicode="&#xad;" horiz-adv-x="400" 
d="M50 207l9 74h291l-9 -74h-291z" />
    <glyph glyph-name="endash" unicode="&#x2013;" horiz-adv-x="589" 
d="M50 207l9 74h480l-9 -74h-480z" />
    <glyph glyph-name="emdash" unicode="&#x2014;" horiz-adv-x="1069" 
d="M50 207l9 74h960l-9 -74h-960z" />
    <glyph glyph-name="underscore" unicode="_" horiz-adv-x="457" 
d="M-27 -129l9 69h425l-8 -69h-426z" />
    <glyph glyph-name="dagger" unicode="&#x2020;" horiz-adv-x="541" 
d="M191 -229q2 80 5 143t9 114l19 163q5 42 12 82.5t15 73.5q-19 -2 -40.5 -3.5l-43 -3t-42 -2.5t-36.5 -1h-34l9 78h34q35 0 77.5 -3t83.5 -8q1 43 3 88.5t6 77.5l11 93h81l-11 -91q-4 -34 -11.5 -80t-16.5 -88q43 5 85.5 8t76.5 3h34l-10 -78h-50q-17 0 -38 1t-41.5 2.5
t-38 3t-27.5 3.5q-1 -38 -2 -81.5t-6 -81.5l-19 -165q-3 -27 -8 -59t-11.5 -65t-13.5 -65t-14 -59h-47v0z" />
    <glyph glyph-name="daggerdbl" unicode="&#x2021;" horiz-adv-x="539" 
d="M282 83q42 6 84.5 10t69.5 4h42l-10 -78h-25q-34 0 -80 2t-89 7q0 -13 -0.5 -36t-2 -48t-3 -48.5t-3.5 -38.5l-11 -86h-81l12 96q5 37 12 78.5t16 82.5q-46 -5 -93.5 -7t-78.5 -2h-24l9 78h25q29 0 75 -3.5t93 -8.5q1 36 3 68t5.5 63.5t9 63t13.5 66.5q-21 -2 -45 -4
t-47 -3t-43.5 -1.5t-35.5 -0.5h-25l10 78h25q32 0 78 -3.5t91 -8.5q0 47 2 93t7 79l12 88h81l-13 -102q-5 -34 -12 -78t-16 -80q22 3 46.5 5t48 3.5t43.5 2.5t34 1h25l-10 -78h-25q-14 0 -34.5 0.5t-43 1.5t-46 3t-44.5 4q-1 -28 -3.5 -61t-6.5 -68t-9.5 -69.5t-11.5 -64.5z
" />
    <glyph glyph-name="section" unicode="&#xa7;" horiz-adv-x="569" 
d="M415 53q46 -45 46 -112q0 -42 -18.5 -75.5t-49.5 -57t-72 -36t-86 -12.5q-48 0 -96 13.5t-89 36.5l24 55l42 -10q32 -8 60.5 -12t57.5 -4q62 0 100 25t38 73q0 36 -27.5 60t-80.5 44l-44 17q-81 31 -118 67t-37 93q0 50 24.5 89t60.5 72q-46 45 -46 112q0 42 18.5 75.5
t49.5 57t72 36t86 12.5q48 0 96 -13.5t89 -36.5l-24 -55l-42 10q-32 8 -60.5 12t-57.5 4q-62 0 -100 -25t-38 -73q0 -36 27.5 -60t80.5 -44l44 -17q81 -31 118 -67t37 -93q0 -50 -24.5 -89t-60.5 -72zM201 341q-19 -23 -35 -50t-16 -57q0 -16 5.5 -28.5t18 -23.5t33 -21.5
t50.5 -22.5l40 -16q20 -8 36 -15.5t31 -15.5q19 23 35 50t16 57q0 31 -23.5 51.5t-83.5 44.5l-40 16q-20 8 -36 15.5t-31 15.5z" />
    <glyph glyph-name="paragraph" unicode="&#xb6;" horiz-adv-x="519" 
d="M167 -229l76 638h-136q-27 0 -34 7.5t-5 29.5l25 217h470l-8 -70h-81l-96 -822h-73l97 822h-66l-97 -822h-72z" />
    <glyph glyph-name="registered" unicode="&#xae;" horiz-adv-x="729" 
d="M433 189q-5 0 -8 1.5t-5 6.5l-37 90q-2 6 -10 6h-51l-13 -104h-58l34 290h111q58 0 82 -26q19 -21 19 -53q0 -66 -60 -99l49 -112h-53zM327 343h78q8 0 11.5 1.5t7.5 5.5q15 17 15 42q0 21 -11.5 28.5t-37.5 7.5h-52zM346 -10q-65 0 -119 24.5t-93.5 66.5t-61.5 98
t-22 118q0 73 27.5 141t76 120t114 83.5t142.5 31.5q64 0 118.5 -24.5t94 -66.5t61.5 -98t22 -119q0 -73 -27.5 -141t-76 -120t-114.5 -83t-142 -31zM405 603q-63 0 -115 -24t-89 -65t-57.5 -96t-20.5 -117q0 -51 16 -95.5t46 -77t72 -51t94 -18.5q63 0 115 24t89 65
t57.5 96t20.5 117q0 51 -16 95.5t-46 77t-72 51t-94 18.5z" />
    <glyph glyph-name="copyright" unicode="&#xa9;" horiz-adv-x="729" 
d="M488 235q-27 -20 -59.5 -35t-67.5 -15q-29 0 -52 10.5t-39 28.5t-24.5 42.5t-8.5 52.5q0 31 11.5 60.5t31.5 52.5t47 37t59 14q42 0 72.5 -24t42.5 -64l-39 -23l-24 27q-12 14 -25 21t-30 7q-18 0 -33.5 -8t-27 -22.5t-18 -34t-6.5 -41.5q0 -35 17.5 -56.5t53.5 -21.5
q14 0 27.5 3t36.5 11l37 12zM346 -10q-65 0 -119 24.5t-93.5 66.5t-61.5 98t-22 118q0 73 27.5 141t76 120t114 83.5t142.5 31.5q64 0 118.5 -24.5t94 -66.5t61.5 -98t22 -119q0 -73 -27.5 -141t-76 -120t-114.5 -83t-142 -31zM405 603q-63 0 -115 -24t-89 -65t-57.5 -96
t-20.5 -117q0 -51 16 -95.5t46 -77t72 -51t94 -18.5q63 0 115 24t89 65t57.5 96t20.5 117q0 51 -16 95.5t-46 77t-72 51t-94 18.5z" />
    <glyph glyph-name="trademark" unicode="&#x2122;" horiz-adv-x="683" 
d="M191 356h-65l30 252h-91l7 55h245l-7 -55h-89zM680 663l-37 -307h-59l23 198l-90 -105h-35q-10 0 -15 8l-65 100l-23 -201h-61l37 307h43q9 0 13 -6l92 -145l122 145q5 6 14 6h41z" />
    <glyph glyph-name="quotedblleft" unicode="&#x201c;" horiz-adv-x="374" 
d="M245 413q-11 0 -13.5 4t-1.5 12l8 62q3 24 10.5 43.5t21.5 38.5t35.5 40.5t53.5 51.5l27 -24l-71 -110q-5 -9 1 -15l9 -10q8 -8 9.5 -13t0.5 -15l-7 -65h-83zM85 413q-11 0 -13.5 4t-1.5 12l8 62q3 24 10.5 43.5t21.5 38.5t35.5 40.5t53.5 51.5l27 -24l-71 -110
q-5 -9 1 -15l9 -10q8 -8 9.5 -13t0.5 -15l-7 -65h-83z" />
    <glyph glyph-name="quotedblright" unicode="&#x201d;" horiz-adv-x="373" 
d="M195 663q11 0 13.5 -4t1.5 -12l-8 -62q-3 -24 -10.5 -43.5t-21.5 -38.5t-35.5 -40.5t-53.5 -51.5l-27 24l71 110q5 9 -1 15l-9 10q-8 8 -9.5 13t-0.5 15l7 65h83zM355 663q11 0 13.5 -4t1.5 -12l-8 -62q-3 -24 -10.5 -43.5t-21.5 -38.5t-35.5 -40.5t-53.5 -51.5l-27 24
l71 110q5 9 -1 15l-9 10q-8 8 -9.5 13t-0.5 15l7 65h83z" />
    <glyph glyph-name="quoteleft" unicode="&#x2018;" horiz-adv-x="214" 
d="M85 413q-11 0 -13.5 4t-1.5 12l8 62q3 24 10.5 43.5t21.5 38.5t35.5 40.5t53.5 51.5l27 -24l-71 -110q-5 -9 1 -15l9 -10q8 -8 9.5 -13t0.5 -15l-7 -65h-83z" />
    <glyph glyph-name="quoteright" unicode="&#x2019;" horiz-adv-x="213" 
d="M195 663q11 0 13.5 -4t1.5 -12l-8 -62q-3 -24 -10.5 -43.5t-21.5 -38.5t-35.5 -40.5t-53.5 -51.5l-27 24l71 110q5 9 -1 15l-9 10q-8 8 -9.5 13t-0.5 15l7 65h83z" />
    <glyph glyph-name="guillemotleft" unicode="&#xab;" horiz-adv-x="590" 
d="M241 45l-178 164q-5 5 -7 8.5t-1 10.5l6 45l227 172l36 -41l-175 -158v-2l137 -158zM479 45l-178 164q-5 5 -7 8.5t-1 10.5l6 45l227 172l36 -41l-175 -158v-2l137 -158z" />
    <glyph glyph-name="guillemotright" unicode="&#xbb;" horiz-adv-x="590" 
d="M349 445l178 -164q5 -5 7 -8.5t1 -10.5l-6 -45l-227 -172l-36 41l175 158v2l-137 158zM111 445l178 -164q5 -5 7 -8.5t1 -10.5l-6 -45l-227 -172l-36 41l175 158v2l-137 158z" />
    <glyph glyph-name="guilsinglleft" unicode="&#x2039;" horiz-adv-x="352" 
d="M241 45l-178 164q-5 5 -7 8.5t-1 10.5l6 45l227 172l36 -41l-175 -158v-2l137 -158z" />
    <glyph glyph-name="guilsinglright" unicode="&#x203a;" horiz-adv-x="352" 
d="M111 445l178 -164q5 -5 7 -8.5t1 -10.5l-6 -45l-227 -172l-36 41l175 158v2l-137 158z" />
    <glyph glyph-name="quotesinglbase" unicode="&#x201a;" horiz-adv-x="208" 
d="M115 63q11 0 13.5 -4t1.5 -12l-8 -62q-3 -24 -10.5 -43.5t-21.5 -38.5t-35.5 -40.5t-53.5 -51.5l-27 24l71 110q5 9 -1 15l-9 10q-8 8 -9.5 13t-0.5 15l7 65h83z" />
    <glyph glyph-name="quotedblbase" unicode="&#x201e;" horiz-adv-x="369" 
d="M115 63q11 0 13.5 -4t1.5 -12l-8 -62q-3 -24 -10.5 -43.5t-21.5 -38.5t-35.5 -40.5t-53.5 -51.5l-27 24l71 110q5 9 -1 15l-9 10q-8 8 -9.5 13t-0.5 15l7 65h83zM275 63q11 0 13.5 -4t1.5 -12l-8 -62q-3 -24 -10.5 -43.5t-21.5 -38.5t-35.5 -40.5t-53.5 -51.5l-27 24
l71 110q5 9 -1 15l-9 10q-8 8 -9.5 13t-0.5 15l7 65h83z" />
    <glyph glyph-name="ordfeminine" unicode="&#xaa;" horiz-adv-x="463" 
d="M385 666q12 -2 24 -2.5t24 -1.5l-39 -332l59 -15l-5 -36q-12 -6 -30 -10.5t-32 -4.5q-22 0 -38.5 11t-21.5 29l-16 -11q-51 -34 -101 -34q-34 0 -62 14t-48 38t-31 57t-11 72q0 47 16 89.5t43 74.5t63.5 50.5t78.5 18.5q45 0 93 -34l14 -10zM309 354q12 6 13 19l22 178
q2 13 0 18t-8 10q-12 8 -31.5 14.5t-40.5 6.5q-54 0 -91.5 -40.5t-37.5 -118.5q0 -51 24 -81t67 -30q21 0 43.5 7t39.5 17z" />
    <glyph glyph-name="ordmasculine" unicode="&#xba;" horiz-adv-x="464" 
d="M243 332q31 0 55 12.5t40 33t24 46.5t8 54q0 55 -26.5 88.5t-75.5 33.5q-31 0 -55 -12.5t-40 -33t-24 -46.5t-8 -54q0 -55 26.5 -88.5t75.5 -33.5zM239 259q-39 0 -71.5 14.5t-55.5 40t-36 59.5t-13 72q0 49 16.5 90.5t45 72t66.5 48t81 17.5q39 0 71.5 -14.5t55.5 -40
t36 -59.5t13 -72q0 -49 -16.5 -90.5t-45 -72t-66.5 -48t-81 -17.5z" />
    <glyph glyph-name="arrowleft" unicode="&#x2190;" horiz-adv-x="779" 
d="M264 469l39 -39l-133 -149h545v-71h-546l134 -152l-39 -39l-200 200v39q0 12 7 19z" />
    <glyph glyph-name="arrowup" unicode="&#x2191;" horiz-adv-x="779" 
d="M422 562l193 -193l-39 -39l-147 133v-545h-76v546l-150 -134l-38 39l199 200h39q8 0 11 -1t8 -6z" />
    <glyph glyph-name="arrowright" unicode="&#x2192;" horiz-adv-x="779" 
d="M708 214l-193 -192l-39 39l133 149h-545v71h546l-134 152l39 39l200 -200v-39q0 -7 -1 -10.5t-6 -8.5z" />
    <glyph glyph-name="arrowdown" unicode="&#x2193;" horiz-adv-x="779" 
d="M357 -74l-192 192l38 39l147 -133v545h76v-546l150 134l39 -38l-200 -201h-39q-7 0 -10.5 1.5t-8.5 6.5z" />
    <glyph glyph-name="uni2196" unicode="&#x2196;" horiz-adv-x="779" 
d="M182 492h273v-55l-197 -12l384 -383l-53 -54l-386 386l-11 -201h-55v283l27 28q5 5 9 6.5t9 1.5z" />
    <glyph glyph-name="uni2197" unicode="&#x2197;" horiz-adv-x="779" 
d="M641 448v-275h-55l-11 200l-384 -385l-54 53l384 384l-198 12v55h282l29 -28q5 -5 6 -8t1 -8z" />
    <glyph glyph-name="uni2198" unicode="&#x2198;" horiz-adv-x="779" 
d="M597 -12h-274v56l199 11l-385 385l54 53l384 -385l12 199h55v-282l-28 -29q-5 -5 -8 -6.5t-9 -1.5z" />
    <glyph glyph-name="uni2199" unicode="&#x2199;" horiz-adv-x="779" 
d="M137 32v274h55l11 -199l386 385l52 -53l-383 -384l197 -12v-55h-282l-28 28q-5 5 -6.5 7.5t-1.5 8.5z" />
    <glyph glyph-name="zero" unicode="0" 
d="M577 396q0 -80 -22 -153.5t-61.5 -129.5t-94 -89.5t-118.5 -33.5q-51 0 -93 21t-72 58.5t-46 88t-16 109.5q0 80 22 153.5t62 129.5t94 89.5t119 33.5q51 0 92.5 -21t71.5 -58.5t46 -88t16 -109.5zM484 392q0 94 -35.5 146t-100.5 52q-47 0 -84 -25t-63 -68t-40 -101.5
t-14 -124.5q0 -92 36 -145t101 -53q46 0 83.5 26t63 69.5t39.5 101.5t14 122z" />
    <glyph glyph-name="one" unicode="1" 
d="M107 72h169l57 493q-15 -8 -38.5 -17.5t-46.5 -17.5l-84 -28l-22 58l206 94q12 5 20 7t21 2h44l-69 -591h145l-9 -72h-402z" />
    <glyph glyph-name="two" unicode="2" 
d="M491 0h-427l5 43q2 13 5.5 20t11.5 15l212 205q35 34 62 62t46 52.5t28.5 48t9.5 48.5q0 54 -31.5 76t-79.5 22q-26 0 -56.5 -6t-72.5 -18l-62 -18l-23 54q59 34 115 51.5t113 17.5q38 0 72.5 -11.5t60.5 -34t41 -55t15 -73.5q0 -33 -12 -65t-35.5 -65t-59 -69t-82.5 -77
l-170 -149h323z" />
    <glyph glyph-name="three" unicode="3" 
d="M135 104q49 -17 81 -25t61 -8q69 0 111.5 39.5t42.5 107.5q0 44 -24.5 64.5t-80.5 20.5h-67q-14 0 -13 13l8 55h99q21 0 30.5 5.5t20.5 16.5q17 19 27.5 47t10.5 57q0 48 -29.5 71.5t-76.5 23.5q-26 0 -56.5 -5t-75.5 -17l-61 -16l-23 55q58 32 112.5 48t111.5 16
q40 0 74.5 -11t59.5 -31.5t39.5 -50t14.5 -66.5q0 -55 -22.5 -93.5t-61.5 -72.5q37 -19 55.5 -53.5t18.5 -76.5q0 -50 -19.5 -92t-52.5 -72t-77.5 -47t-93.5 -17q-68 0 -130.5 24t-110.5 63l30 51z" />
    <glyph glyph-name="four" unicode="4" 
d="M379 238l38 318q-5 -7 -13.5 -17.5t-18 -22t-19.5 -23.5t-19 -22l-133 -153q-17 -20 -38 -43.5t-35 -36.5h238zM405 648q9 10 14.5 12.5t17.5 2.5h80l-50 -425h92l-9 -72h-92l-19 -166h-88l20 166h-332l7 57q2 11 4 16.5t12 16.5z" />
    <glyph glyph-name="five" unicode="5" 
d="M133 326q-7 5 -9.5 8.5t-0.5 13.5l38 315h372q-3 -21 -5 -38t-4 -37h-293l-13 -111q-3 -28 -7.5 -56.5t-9.5 -43.5q33 14 67.5 22t68.5 8q40 0 74.5 -12t60 -35.5t40 -56.5t14.5 -75q0 -50 -19 -93.5t-52 -75.5t-79 -50.5t-100 -18.5q-60 0 -119 21.5t-107 57.5l31 53
l67 -24q38 -14 67.5 -20.5t61.5 -6.5q34 0 63 12t50 33t33 48.5t12 59.5q0 27 -10 47.5t-27.5 34t-40.5 20t-49 6.5q-31 0 -63.5 -7t-60.5 -17q-8 -3 -13 -2.5t-13 5.5z" />
    <glyph glyph-name="six" unicode="6" 
d="M225 382q35 16 68.5 24.5t66.5 8.5q42 0 76.5 -13t59.5 -37t38.5 -57t13.5 -72q0 -46 -17.5 -90.5t-49.5 -79t-76 -55.5t-98 -21q-56 0 -99 22t-72.5 59.5t-45 87t-15.5 103.5q0 86 25 161t70 130.5t106.5 87.5t134.5 32q34 0 73 -11.5t73 -31.5q0 -1 -4 -8.5t-9 -17.5
q-6 -11 -13 -26q-36 10 -64.5 14t-57.5 4q-45 0 -84 -16t-69.5 -46t-51 -74t-28.5 -101zM183 298q-11 -5 -14 -11.5t-3 -22.5q0 -41 9 -77t27 -62t45.5 -41t64.5 -15q32 0 59.5 13t47 35.5t30.5 52t11 62.5q0 56 -35.5 82t-90.5 26q-35 0 -75 -12t-76 -30z" />
    <glyph glyph-name="seven" unicode="7" 
d="M152 0q5 39 14 73t24 69t37 72.5t53 83.5l77 115q17 25 34.5 50.5t34 48.5t31 42.5t23.5 31.5h-368l10 77h465l-6 -44q-2 -12 -7 -23t-19 -32l-202 -308q-28 -42 -46.5 -75.5t-30.5 -62.5t-19.5 -57t-13.5 -61h-91z" />
    <glyph glyph-name="eight" unicode="8" 
d="M299 -10q-53 0 -97.5 16t-77 43.5t-50.5 64t-18 76.5q0 31 10.5 57.5t28.5 48.5t42 39.5t51 31.5q-25 20 -44 50.5t-19 72.5q0 39 18 72t49 58t71 39t84 14q46 0 84 -14t65.5 -38t42.5 -55.5t15 -65.5q0 -51 -29 -93t-74 -72q46 -25 76 -56t30 -80q0 -45 -21.5 -83.5
t-57 -66.5t-82 -43.5t-97.5 -15.5zM259 330q-9 4 -14.5 3t-16.5 -7q-16 -9 -31.5 -21t-27.5 -28t-19 -35t-7 -41q0 -27 11.5 -51t32.5 -42.5t51 -29t66 -10.5q33 0 63 9.5t52.5 26t35.5 39t13 48.5q0 30 -22 50t-75 42zM474 489q0 23 -10 42.5t-27.5 34t-41.5 22.5t-52 8
q-26 0 -50 -6.5t-42.5 -19.5t-30 -32t-11.5 -44q0 -20 8.5 -34.5t23 -26.5t33.5 -21.5t41 -18.5l60 -25q11 -5 16.5 -2.5t13.5 8.5q13 10 25.5 23.5t22.5 29t15.5 31.5t5.5 31z" />
    <glyph glyph-name="nine" unicode="9" 
d="M399 281q-30 -15 -66 -24t-69 -9q-44 0 -78.5 14.5t-59 40t-37.5 60t-13 73.5q0 55 20 98.5t53.5 74.5t77 47.5t90.5 16.5q55 0 98.5 -22.5t73 -60t45 -86.5t15.5 -103q0 -86 -23 -161t-64.5 -130.5t-98.5 -87.5t-126 -32q-41 0 -81 10.5t-72 30.5q1 5 3 9t4 8.5t4 9.5
q4 11 11 27q34 -8 66 -13t58 -5q90 0 146 61t72 177zM437 365q15 8 18 14t3 20q0 41 -9 76.5t-27 62t-45.5 42t-64.5 15.5q-32 0 -59.5 -11t-47 -31t-30.5 -47t-11 -59q0 -60 33 -92t93 -32q35 0 73 12t74 30z" />
    <glyph glyph-name="dollar" unicode="$" 
d="M80 102l56 -11q38 -8 68 -12.5t57 -6.5l30 253l-17 8q-42 18 -72.5 36.5t-50.5 39.5t-29.5 45.5t-9.5 55.5q0 36 15.5 65.5t44 51t69.5 33.5t92 13l21 105h54l-13 -108q38 -4 74 -11.5t68 -18.5l-13 -57l-55 4l-83 5l-25 -205q79 -35 122.5 -77t43.5 -110
q0 -44 -15.5 -81.5t-43 -65t-67 -44t-87.5 -19.5l-21 -106h-54l13 109q-52 5 -103.5 19t-90.5 34zM439 192q0 38 -20 61t-68 46l-27 -226q57 8 86 40t29 79zM198 510q0 -32 26 -53t78 -44l21 179q-125 -6 -125 -82z" />
    <glyph glyph-name="cent" unicode="&#xa2;" 
d="M258 -4q-41 6 -72.5 25.5t-52.5 48.5t-32 65.5t-11 77.5q0 53 16.5 102t47 87.5t72.5 63t93 29.5l21 107h51l-14 -110q54 -12 92.5 -50.5t53.5 -91.5l-62 -30l-31 33q-19 20 -33.5 33.5t-29.5 21.5l-41 -336q21 2 45 8.5t51 15.5l63 21l24 -48q-37 -29 -89 -50.5
t-103 -25.5l-21 -109h-51zM178 218q0 -57 22.5 -93.5t67.5 -47.5l41 339q-28 -4 -52 -21t-41.5 -43.5t-27.5 -61t-10 -72.5z" />
    <glyph glyph-name="Euro" unicode="&#x20ac;" 
d="M566 74q-21 -18 -46.5 -33.5t-54 -26.5t-58.5 -17.5t-59 -6.5q-50 0 -91 17.5t-70 49.5t-46 77.5t-20 101.5h-73l7 50l68 8q1 15 2 30.5t3 32.5h-65l6 48l69 9q13 54 38 101.5t60.5 82.5t80 55t95.5 20q33 0 62.5 -10.5t54.5 -29.5t44 -44t30 -54l-54 -35l-48 43
q-30 27 -51 39t-49 12q-31 0 -58.5 -13t-50 -36.5t-38.5 -56t-25 -72.5h204l-8 -59h-205q-2 -16 -3 -29.5t-2 -31.5h203l-8 -60h-197q5 -81 41.5 -123.5t106.5 -42.5q49 0 124 28l57 21z" />
    <glyph glyph-name="florin" unicode="&#x192;" 
d="M306 -33q-12 -104 -59 -153q-24 -25 -57.5 -38.5t-78.5 -13.5q-31 0 -61 8t-52 20l19 54q18 -3 41.5 -5.5t41.5 -2.5q31 0 52 7.5t34.5 22.5t20.5 37.5t11 53.5l35 303h-113l5 49l116 15l16 144q12 104 59 153q24 25 57.5 38.5t78.5 13.5q31 0 61 -8t52 -20l-19 -54
q-18 3 -41.5 5.5t-41.5 2.5q-32 0 -52.5 -7.5t-34 -22.5t-20.5 -37.5t-11 -53.5l-18 -152h156l-7 -66h-157z" />
    <glyph glyph-name="sterling" unicode="&#xa3;" 
d="M536 74l-8 -74h-451l5 40q2 15 6.5 23.5t19.5 26.5l33 39q20 23 28.5 42t8.5 45q0 17 -3 37.5t-7 42.5h-90l6 48l75 12q-4 22 -7.5 47t-3.5 51q0 52 18 93t49 69t71 42.5t84 14.5q63 0 116 -28t91 -78l-44 -49l-59 35q-39 23 -65.5 31t-52.5 8q-60 0 -91 -36.5t-31 -93.5
q0 -32 3.5 -57t8.5 -45h200l-8 -64h-182q4 -20 6.5 -39.5t2.5 -36.5q0 -35 -15 -65.5t-50 -62.5l-19 -18h355z" />
    <glyph glyph-name="yen" unicode="&#xa5;" 
d="M242 266l-178 397h81q11 0 15.5 -3.5t8.5 -11.5l80 -185q9 -20 18.5 -44.5t18.5 -48t16.5 -44.5t10.5 -34h2q6 13 16.5 32t23 40t25.5 42.5t25 39.5l130 198q8 12 13 15.5t17 3.5h81l-263 -397h111l-7 -61h-138l-5 -39h138l-7 -61h-138l-12 -105h-90l12 105h-137l7 61
h137l5 39h-137l7 61h113z" />
    <glyph glyph-name="numbersign" unicode="#" 
d="M140 191h-80l8 71h93l40 138h-115l8 71h127l55 192h79l-55 -192h110l55 192h78l-54 -192h81l-8 -71h-94l-39 -138h116l-8 -71h-130l-54 -191h-78l54 191h-110l-55 -191h-78zM240 262h110l40 138h-111z" />
    <glyph glyph-name="percent" unicode="%" horiz-adv-x="874" 
d="M413 514q0 -39 -14 -72.5t-38 -58t-56 -39t-68 -14.5q-32 0 -60 11.5t-48.5 32.5t-32.5 50t-12 64q0 39 14 72.5t38 58.5t56 39.5t68 14.5q32 0 60 -11.5t48.5 -32.5t32.5 -50.5t12 -64.5zM338 512q0 39 -22.5 63.5t-57.5 24.5q-24 0 -42.5 -9.5t-31 -24.5t-19 -34.5
t-6.5 -40.5q0 -40 22.5 -64t57.5 -24q24 0 42.5 9.5t31 24.5t19 34.5t6.5 40.5zM814 174q0 -39 -14 -72.5t-38 -58t-56 -39t-68 -14.5q-32 0 -60 11.5t-48.5 32.5t-32.5 50t-12 64q0 39 14 72.5t38 58.5t56 39.5t68 14.5q32 0 60 -11.5t48.5 -32.5t32.5 -50.5t12 -64.5z
M739 172q0 39 -22.5 63.5t-57.5 24.5q-24 0 -42.5 -9.5t-31 -24.5t-19 -34.5t-6.5 -40.5q0 -40 22.5 -64t57.5 -24q24 0 42.5 9.5t31 24.5t19 34.5t6.5 40.5zM209 0l394 663h86l-394 -663h-86z" />
    <glyph glyph-name="perthousand" unicode="&#x2030;" horiz-adv-x="1236" 
d="M413 514q0 -39 -14 -72.5t-38 -58t-56 -39t-68 -14.5q-32 0 -60 11.5t-48.5 32.5t-32.5 50t-12 64q0 39 14 72.5t38 58.5t56 39.5t68 14.5q32 0 60 -11.5t48.5 -32.5t32.5 -50.5t12 -64.5zM338 512q0 39 -22.5 63.5t-57.5 24.5q-24 0 -42.5 -9.5t-31 -24.5t-19 -34.5
t-6.5 -40.5q0 -40 22.5 -64t57.5 -24q24 0 42.5 9.5t31 24.5t19 34.5t6.5 40.5zM814 174q0 -39 -14 -72.5t-38 -58t-56 -39t-68 -14.5q-32 0 -60 11.5t-48.5 32.5t-32.5 50t-12 64q0 39 14 72.5t38 58.5t56 39.5t68 14.5q32 0 60 -11.5t48.5 -32.5t32.5 -50.5t12 -64.5z
M739 172q0 39 -22.5 63.5t-57.5 24.5q-24 0 -42.5 -9.5t-31 -24.5t-19 -34.5t-6.5 -40.5q0 -40 22.5 -64t57.5 -24q24 0 42.5 9.5t31 24.5t19 34.5t6.5 40.5zM1176 174q0 -39 -14 -72.5t-38 -58t-56 -39t-68 -14.5q-32 0 -60 11.5t-48.5 32.5t-32.5 50t-12 64q0 39 14 72.5
t38 58.5t56 39.5t68 14.5q32 0 60 -11.5t48.5 -32.5t32.5 -50.5t12 -64.5zM1101 172q0 39 -22.5 63.5t-57.5 24.5q-24 0 -42.5 -9.5t-31 -24.5t-19 -34.5t-6.5 -40.5q0 -40 22.5 -64t57.5 -24q24 0 42.5 9.5t31 24.5t19 34.5t6.5 40.5zM209 0l394 663h86l-394 -663h-86z" />
    <glyph glyph-name="plus" unicode="+" horiz-adv-x="520" 
d="M246 437h72l-19 -156h148l-8 -71h-148l-18 -157h-73l19 157h-147l8 71h147z" />
    <glyph glyph-name="minus" unicode="&#x2212;" horiz-adv-x="520" 
d="M447 281l-8 -71h-367l8 71h367z" />
    <glyph glyph-name="multiply" unicode="&#xd7;" horiz-adv-x="522" 
d="M115 354l55 50l95 -109l125 110l43 -50l-124 -110l95 -110l-56 -50l-95 110l-123 -109l-44 50l124 109z" />
    <glyph glyph-name="less" unicode="&#x3c;" horiz-adv-x="519" 
d="M454 448l-11 -82l-279 -120l-1 -1l249 -117l-11 -82l-345 170l7 59z" />
    <glyph glyph-name="divide" unicode="&#xf7;" horiz-adv-x="520" 
d="M447 281l-8 -71h-367l8 71h367zM319 357h-94l11 94h77q11 0 13.5 -3.5t1.5 -11.5zM281 40h-94l11 94h77q11 0 13.5 -3.5t1.5 -11.5z" />
    <glyph glyph-name="equal" unicode="=" horiz-adv-x="518" 
d="M458 376l-8 -71h-367l8 71h367zM435 186l-8 -71h-367l8 71h367z" />
    <glyph glyph-name="logicalnot" unicode="&#xac;" horiz-adv-x="520" 
d="M460 376l-29 -261h-73l22 190h-295l8 71h367z" />
    <glyph glyph-name="greater" unicode="&#x3e;" horiz-adv-x="519" 
d="M63 46l11 82l279 120l1 1l-249 117l11 82l345 -170l-7 -59z" />
    <glyph glyph-name="notequal" unicode="&#x2260;" horiz-adv-x="518" 
d="M191 186l64 119h-172l8 71h202l52 98l52 -25l-39 -73h100l-8 -71h-130l-63 -119h178l-8 -71h-208l-55 -104l-52 26l41 78h-93l8 71h123z" />
    <glyph glyph-name="approxequal" unicode="&#x2248;" horiz-adv-x="521" 
d="M340 282q-22 0 -41 7t-37 15.5t-35 15.5t-34 7q-24 0 -41 -12.5t-35 -36.5l-48 17q18 47 54.5 76t78.5 29q22 0 41 -7t37 -15.5t35 -15.5t34 -7q22 0 40 12t36 37l48 -18q-18 -47 -54.5 -75.5t-78.5 -28.5zM318 92q-22 0 -41 7t-37 15.5t-35 15.5t-34 7q-24 0 -41 -12.5
t-35 -36.5l-48 17q18 47 54.5 76t78.5 29q22 0 41 -7t37 -15.5t35 -15.5t34 -7q22 0 40 12t36 37l48 -18q-18 -47 -54.5 -75.5t-78.5 -28.5z" />
    <glyph glyph-name="plusminus" unicode="&#xb1;" horiz-adv-x="518" 
d="M428 71l-8 -71h-367l8 71h367zM290 159h-72l15 129h-147l8 71h147l15 129h72l-15 -129h148l-8 -71h-148z" />
    <glyph glyph-name="lessequal" unicode="&#x2264;" horiz-adv-x="517" 
d="M481 488l-10 -77l-259 -88l-1 -1l239 -90l-10 -77l-350 139l8 58zM428 71l-8 -71h-367l8 71h367z" />
    <glyph glyph-name="greaterequal" unicode="&#x2265;" horiz-adv-x="518" 
d="M72 155l10 77l259 88l1 1l-239 90l10 77l351 -140l-7 -57zM428 71l-8 -71h-367l8 71h367z" />
    <glyph glyph-name="asciicircum" unicode="^" horiz-adv-x="520" 
d="M473 452l-66 -40l-109 178l-152 -178l-54 42l184 219h63z" />
    <glyph glyph-name="asciitilde" unicode="~" horiz-adv-x="518" 
d="M346 291q-22 0 -41 7t-37 15.5t-35 15.5t-34 7q-24 0 -41 -12.5t-35 -36.5l-48 17q18 47 54.5 76t78.5 29q22 0 41 -7t37 -15.5t35 -15.5t34 -7q22 0 40 12t36 37l48 -18q-18 -47 -54.5 -75.5t-78.5 -28.5z" />
    <glyph glyph-name="lozenge" unicode="&#x25ca;" horiz-adv-x="600" 
d="M471 332l-131 241l-188 -242l130 -242zM66 304q-8 16 -8 24q0 13 14 30l236 305h72q8 0 11.5 -2t6.5 -8l158 -294q8 -13 8 -24q0 -8 -3 -14t-11 -16l-236 -305h-72q-12 0 -17 9z" />
    <glyph glyph-name="degree" unicode="&#xb0;" horiz-adv-x="423" 
d="M402 519q0 -38 -14 -70.5t-37 -56.5t-54.5 -38t-65.5 -14q-32 0 -59 11.5t-47.5 31.5t-32 48.5t-11.5 63.5q0 37 13.5 69.5t37 56.5t54.5 38t66 14q31 0 58.5 -11t48 -31.5t32 -49t11.5 -62.5zM328 516q0 39 -21.5 63t-56.5 24q-24 0 -42 -9t-30 -24t-18 -34t-6 -39
q0 -39 22 -63t57 -24q24 0 41.5 9t29.5 24t18 34t6 39z" />
    <glyph glyph-name="quotesingle" unicode="'" horiz-adv-x="226" 
d="M102 399l1 119q0 25 1.5 48.5t4.5 52.5l5 44h93l-4 -44q-2 -16 -5.5 -39t-11.5 -56l-28 -125h-56z" />
    <glyph glyph-name="quotedbl" unicode="&#x22;" horiz-adv-x="387" 
d="M102 399l1 119q0 25 1.5 48.5t4.5 52.5l5 44h93l-4 -44q-2 -16 -5.5 -39t-11.5 -56l-28 -125h-56zM263 399l1 119q0 25 1.5 48.5t4.5 52.5l5 44h93l-4 -44q-2 -16 -5.5 -39t-11.5 -56l-28 -125h-56z" />
    <glyph glyph-name="radical" unicode="&#x221a;" horiz-adv-x="708" 
d="M800 793l-403 -793h-79q-14 0 -17 10l-119 409h-89l9 69h140q8 0 11 -2t5 -9l71 -251q11 -39 19.5 -75t12.5 -59q4 9 11.5 25.5t16.5 35t18.5 38t17.5 36.5l277 554q4 8 7.5 10t11.5 2h79z" />
    <glyph glyph-name="currency" unicode="&#xa4;" 
d="M509 357q0 -76 -39 -135l64 -72l-65 -58l-59 69q-24 -17 -53 -26.5t-61 -9.5q-33 0 -61.5 10.5t-50.5 29.5l-80 -73l-51 58l84 76q-16 38 -16 79q0 76 39 135l-65 72l65 58l60 -69q24 17 52.5 26.5t60.5 9.5q34 0 62.5 -10.5t50.5 -29.5l79 73l52 -58l-85 -76
q17 -37 17 -79zM301 199q28 0 51.5 11.5t40.5 32t27 47.5t10 58q0 49 -25.5 82t-76.5 33q-28 0 -51.5 -11.5t-41 -32t-27 -47.5t-9.5 -58q0 -49 25.5 -82t76.5 -33z" />
    <glyph glyph-name="infinity" unicode="&#x221e;" horiz-adv-x="716" 
d="M253 454q-27 0 -47.5 -12t-34 -32t-20 -46.5t-6.5 -56.5q0 -41 17.5 -70.5t52.5 -29.5q38 0 66.5 38.5t62.5 115.5q5 11 5 16t-4 12q-19 34 -42.5 49.5t-49.5 15.5zM486 204q27 0 47.5 12t34 32t20 46.5t6.5 56.5q0 41 -17.5 70.5t-52.5 29.5q-38 0 -66.5 -38.5
t-62.5 -115.5q-5 -11 -5 -16t4 -12q19 -34 42.5 -49.5t49.5 -15.5zM353 215q-27 -40 -63 -63.5t-81 -23.5q-31 0 -57 13.5t-45 37.5t-29.5 56.5t-10.5 70.5q0 44 13.5 84.5t38 71t59 49t76.5 18.5q43 0 75 -24t57 -62q27 40 63 63.5t81 23.5q31 0 57 -14t45 -38t29.5 -56.5
t10.5 -69.5q0 -44 -13.5 -84.5t-38 -71.5t-59 -49t-76.5 -18q-43 0 -75 24t-57 62z" />
    <glyph glyph-name="mu" unicode="&#xb5;" horiz-adv-x="537" 
d="M215 -8q-29 0 -53 8t-37 21l-29 -250h-89l85 717h89l-34 -288q-2 -13 -3 -26.5t-1 -22.5q0 -75 98 -75q55 0 116 26q7 3 9 7.5t3 10.5l43 368h89l-57 -488h-66l-9 44l-26 -14q-32 -17 -63.5 -27.5t-64.5 -10.5z" />
    <glyph glyph-name="partialdiff" unicode="&#x2202;" horiz-adv-x="607" 
d="M152 628q31 20 72.5 32.5t82.5 12.5q54 0 99.5 -21t78.5 -61.5t51.5 -100t18.5 -137.5q0 -76 -18.5 -142t-54.5 -115t-88 -77.5t-119 -28.5q-46 0 -84.5 16.5t-66.5 45t-43.5 68t-15.5 84.5t15.5 83.5t43.5 67t66.5 44.5t84.5 16q42 0 81.5 -11.5t84.5 -34.5l23 -12
q0 113 -41 175t-128 62q-29 0 -60 -5.5t-65 -14.5zM455 263q0 14 -3.5 20.5t-14.5 14.5t-27.5 15t-35.5 12.5t-39.5 9t-38.5 3.5q-28 0 -54 -7t-45.5 -22.5t-31 -39.5t-11.5 -58q0 -28 9 -53.5t25.5 -44.5t40.5 -30t55 -11q40 0 72 17t54 44.5t33.5 61.5t11.5 68z" />
    <glyph glyph-name="summation" unicode="&#x2211;" horiz-adv-x="591" 
d="M100 663h497l-9 -77h-381l265 -353l-5 -36l-340 -350h386l-9 -76h-504l5 50q2 12 4.5 17.5t10.5 13.5l356 371l-272 368q-8 10 -9 15.5t0 14.5z" />
    <glyph glyph-name="product" unicode="&#x220f;" horiz-adv-x="727" 
d="M200 586h-121l9 77h660l-8 -77h-120l-97 -815h-90l97 815h-240l-97 -815h-90z" />
    <glyph glyph-name="pi" unicode="&#x3c0;" horiz-adv-x="592" 
d="M408 420h-206l-49 -420h-89l49 420h-77l9 68h540l-9 -68h-79l-40 -344l80 -17l-5 -44q-15 -6 -41 -12t-45 -6q-35 0 -56 19.5t-21 55.5q0 8 1 20t3 23z" />
    <glyph glyph-name="integral" unicode="&#x222b;" horiz-adv-x="615" 
d="M410 -30q0 -97 -46 -154t-139 -57q-29 0 -59 8t-53 21l17 53q21 -4 43 -7t41 -3q57 0 83 34.5t26 99.5q0 52 -16.5 114.5t-37 127.5t-37 131t-16.5 126q0 93 46 150.5t140 57.5q28 0 58 -8.5t53 -20.5l-17 -53q-21 4 -42.5 7t-41.5 3q-57 0 -83 -34.5t-26 -94.5
q0 -57 16.5 -120t37 -128t37 -129.5t16.5 -123.5z" />
    <glyph glyph-name="Omega" unicode="&#x3a9;" horiz-adv-x="701" 
d="M382 39q2 10 4.5 17.5t10.5 18.5l69 86q25 31 45.5 60.5t35.5 58.5t23 58.5t8 62.5q0 43 -15 77.5t-41.5 58.5t-62 37t-77.5 13q-47 0 -87.5 -15.5t-70.5 -44t-47 -70t-17 -93.5q0 -29 5 -55t15 -52t23.5 -52.5t30.5 -56.5l42 -75q7 -12 8.5 -18.5t-0.5 -16.5l-6 -38
h-224l9 73h137l-27 40q-44 66 -73.5 128.5t-29.5 130.5q0 63 24 118t66.5 95.5t100.5 64t126 23.5q60 0 111.5 -19.5t89.5 -54.5t60 -83t22 -105q0 -77 -43 -149t-114 -149l-37 -40h133l-9 -73h-224z" />
    <glyph glyph-name="Omega" unicode="&#x2126;" horiz-adv-x="701" 
d="M382 39q2 10 4.5 17.5t10.5 18.5l69 86q25 31 45.5 60.5t35.5 58.5t23 58.5t8 62.5q0 43 -15 77.5t-41.5 58.5t-62 37t-77.5 13q-47 0 -87.5 -15.5t-70.5 -44t-47 -70t-17 -93.5q0 -29 5 -55t15 -52t23.5 -52.5t30.5 -56.5l42 -75q7 -12 8.5 -18.5t-0.5 -16.5l-6 -38
h-224l9 73h137l-27 40q-44 66 -73.5 128.5t-29.5 130.5q0 63 24 118t66.5 95.5t100.5 64t126 23.5q60 0 111.5 -19.5t89.5 -54.5t60 -83t22 -105q0 -77 -43 -149t-114 -149l-37 -40h133l-9 -73h-224z" />
    <glyph glyph-name="Delta" unicode="&#x2206;" horiz-adv-x="649" 
d="M576 114q6 -21 8 -35.5t0 -36.5l-4 -42h-566l4 35q1 10 2.5 18t5 17.5t9 21.5t14.5 30l273 541h82q8 0 11.5 -2.5t5.5 -10.5zM501 78q-3 8 -8 22t-10.5 29.5t-10 30.5t-7.5 26l-61 216q-7 24 -13.5 48.5t-12.5 47t-10.5 41.5t-7.5 33q-7 -16 -17.5 -38.5t-22.5 -47.5
l-24 -50t-22 -46l-91 -183q-19 -38 -37.5 -72t-32.5 -56q22 2 59.5 2.5t70.5 0.5h160q29 0 55 -1t43 -3z" />
    <glyph glyph-name="litre" unicode="&#x2113;" horiz-adv-x="249" 
d="M212 15q-15 -6 -41 -12t-45 -6q-35 0 -56 19.5t-21 55.5q0 8 1 20t3 23l69 594h89l-74 -633l80 -17z" />
    <glyph glyph-name="estimated" unicode="&#x212e;" horiz-adv-x="873" 
d="M201 323q-8 0 -8 -6v-187q0 -7 3 -11t9 -10q44 -45 104.5 -71.5t129.5 -26.5q74 0 136.5 30t107.5 80h56q-54 -60 -132 -95.5t-169 -35.5q-79 0 -149 26.5t-122 72.5t-82 108.5t-30 133.5t30 133.5t82 109t122 73t149 26.5q78 0 147 -26.5t120.5 -73t82 -109t30.5 -133.5
v-8h-617zM679 537q0 6 -3.5 11t-9.5 11q-42 44 -101.5 69t-125.5 25q-69 0 -129 -26t-105 -71q-6 -6 -9 -11t-3 -13v-185q0 -5 8 -5h470q8 0 8 5v190z" />
    <glyph glyph-name="numero" unicode="&#x2116;" horiz-adv-x="1047" 
d="M287 375q-23 35 -47 73t-43 69l-61 -517h-86l78 663h56q8 0 12 -2t9 -9l238 -364q26 -39 49.5 -76t42.5 -68l61 519h86l-78 -663h-57q-8 0 -12.5 2t-9.5 9zM1047 519q0 -38 -14 -70.5t-37 -56.5t-54.5 -38t-65.5 -14q-32 0 -59 11.5t-47.5 31.5t-32 48.5t-11.5 63.5
q0 37 13.5 69.5t37 56.5t54.5 38t66 14q31 0 58.5 -11t48 -31.5t32 -49t11.5 -62.5zM973 516q0 39 -21.5 63t-56.5 24q-24 0 -42 -9t-30 -24t-18 -34t-6 -39q0 -39 22 -63t57 -24q24 0 41.5 9t29.5 24t18 34t6 39z" />
    <glyph glyph-name="zero.otab" 
d="M288 74q35 0 64.5 14.5t50.5 40.5t32.5 61t11.5 77q0 28 -7.5 55t-23 47t-40 32.5t-57.5 12.5q-35 0 -64.5 -14.5t-50.5 -40.5t-33 -61t-12 -77q0 -29 7.5 -55.5t23.5 -46.5t40.5 -32.5t57.5 -12.5zM284 -8q-46 0 -85 16.5t-67.5 46.5t-45 71t-16.5 89q0 57 19.5 108
t53.5 89.5t80 61t99 22.5q46 0 85 -16.5t67.5 -46.5t45 -71t16.5 -89q0 -57 -19.5 -108t-53.5 -89.5t-80 -61t-99 -22.5z" />
    <glyph glyph-name="one.otab" 
d="M111 69h160l38 324h-1q-10 -5 -32.5 -13.5t-44.5 -15.5l-80 -25l-23 55l194 86q11 5 20.5 6.5t23.5 1.5h41l-49 -419h132l-9 -69h-379z" />
    <glyph glyph-name="two.otab" 
d="M120 436q60 29 111.5 44.5t99.5 15.5q35 0 65.5 -10t53 -28.5t35.5 -45t13 -59.5q0 -29 -10 -54t-30 -48.5t-50.5 -46.5t-71.5 -49l-143 -90q21 2 44.5 3.5t46.5 1.5h195l-8 -70h-393l6 49q1 13 11 20l219 161q27 20 45 35.5t29.5 29.5t16 27t4.5 28q0 33 -23.5 50.5
t-61.5 17.5q-23 0 -55 -5.5t-80 -17.5l-48 -12z" />
    <glyph glyph-name="three.otab" 
d="M209 198h114q14 0 21.5 3t17.5 13q9 9 17 22.5t14 28.5t9.5 30.5t3.5 28.5q0 42 -24 67.5t-73 25.5q-21 0 -47.5 -4t-59.5 -13l-79 -21l-22 52q57 32 111 48.5t105 16.5q41 0 74 -12t56 -33t35.5 -49.5t12.5 -62.5q0 -46 -24 -90t-59 -77q37 -18 58 -50.5t21 -75.5
q0 -51 -18.5 -93.5t-51 -72.5t-76.5 -47t-96 -17q-64 0 -123.5 23t-105.5 58l27 48l78 -27q31 -11 61 -17.5t57 -6.5q32 0 61 10t49 30q21 20 33 48t12 63q0 40 -22 62q-24 24 -88 24h-73q-13 0 -12 14z" />
    <glyph glyph-name="four.otab" 
d="M394 477q6 7 10.5 9t14.5 2h75l-49 -415h89l-8 -69h-89l-18 -160h-86l18 160h-323l7 57q2 10 4 14t6 9zM358 73l37 305q-13 -17 -31.5 -40.5t-36.5 -43.5l-132 -147q-17 -20 -36 -41t-32 -33h231z" />
    <glyph glyph-name="five.otab" 
d="M210 302q-3 -26 -8.5 -53.5t-10.5 -44.5q31 12 63 19t64 7q41 0 75.5 -13t59.5 -36t39 -55t14 -70q0 -54 -18.5 -98.5t-51.5 -76t-78 -48.5t-98 -17q-61 0 -119.5 24t-100.5 58l28 48l48 -18q44 -17 78 -25t67 -8q67 0 109.5 39t42.5 111q0 54 -32 83t-84 29
q-29 0 -59 -5.5t-64 -15.5q-8 -2 -13 -2t-13 5l-21 11q-8 4 -11 8.5t-1 14.5l38 315h363l-8 -70h-284z" />
    <glyph glyph-name="six.otab" 
d="M523 581l-41 8q-20 4 -39 6t-39 2q-44 0 -82.5 -16.5t-68.5 -47.5t-51 -74.5t-29 -97.5l41 19q41 19 75 27.5t66 8.5q40 0 74 -13t58.5 -36.5t38 -56.5t13.5 -74q0 -50 -18 -94t-50 -77.5t-75.5 -53t-94.5 -19.5t-93 20.5t-72 56.5t-46 84.5t-16 105.5q0 79 23 153.5
t66.5 132.5t104.5 92.5t138 34.5q36 0 72 -9t68 -27zM182 303q-13 -7 -16 -14t-3 -21q0 -42 8.5 -78.5t25.5 -63.5t43.5 -42.5t62.5 -15.5q34 0 62 13.5t47.5 36t30 51.5t10.5 60q0 57 -32 85t-89 28q-36 0 -76.5 -11t-73.5 -28z" />
    <glyph glyph-name="seven.otab" 
d="M122 -177q7 42 15.5 77t22.5 69.5t36.5 72t56.5 85.5l205 288h-371l9 73h461l-6 -46q-2 -11 -6 -21t-17 -29l-199 -297q-35 -51 -55 -88.5t-31 -68.5t-17 -58t-12 -57h-92z" />
    <glyph glyph-name="eight.otab" 
d="M290 -8q-51 0 -95 15.5t-76 42.5t-50 62.5t-18 75.5q0 32 10.5 59t28 49.5t41.5 40t51 31.5q-26 20 -43.5 50.5t-17.5 71.5q0 39 17.5 72.5t47.5 58t69.5 38.5t83.5 14q45 0 82.5 -13.5t63.5 -36.5t40.5 -54t14.5 -66q0 -51 -30.5 -94.5t-75.5 -72.5q48 -23 78 -55.5
t30 -82.5q0 -45 -20.5 -83t-55 -65.5t-80.5 -42.5t-96 -15zM253 332q-8 4 -14 3t-14 -6q-38 -22 -63.5 -53.5t-25.5 -76.5q0 -27 11.5 -50.5t32.5 -40.5t50 -26.5t65 -9.5q33 0 62.5 9t51.5 25t35 37.5t13 46.5q0 29 -23.5 50t-74.5 44zM360 371q9 -4 14 -3t13 6q14 9 27 23
t23.5 30t17 33t6.5 34q0 46 -33 73.5t-91 27.5q-60 0 -96.5 -28t-36.5 -70q0 -34 26 -56.5t79 -46.5z" />
    <glyph glyph-name="nine.otab" 
d="M97 -93l41 -8q20 -4 39 -6t37 -2q44 0 79.5 17t62 47.5t44.5 74t26 97.5l-41 -19q-41 -19 -75 -27.5t-65 -8.5q-40 0 -74 13.5t-58.5 38t-38 58.5t-13.5 75q0 50 18 93.5t50 76t75 51t94 18.5t93 -20.5t72 -56.5t46 -84.5t16 -105.5q0 -80 -19.5 -154.5t-58.5 -132
t-96.5 -92t-133.5 -34.5q-36 0 -73.5 9t-69.5 27zM417 185q13 7 16 14t3 21q0 42 -8.5 78.5t-25.5 63.5t-43.5 42.5t-62.5 15.5q-34 0 -61.5 -12t-47 -33t-30 -49.5t-10.5 -61.5q0 -57 32 -87.5t89 -30.5q35 0 75.5 11t73.5 28z" />
    <glyph glyph-name="dollar.otab" 
d="M119 91l60 -12q23 -5 44.5 -8t40.5 -5l19 160l-28 11q-52 20 -84 48t-32 79q0 31 14 55t38 41t56 26t68 10l21 108h39l-13 -111q32 -3 62.5 -11t56.5 -19l-15 -54l-46 5q-18 2 -35.5 3.5t-31.5 2.5l-16 -132l10 -4q63 -23 95 -53t32 -80q0 -36 -13.5 -64t-36.5 -48
t-54.5 -31.5t-67.5 -14.5v-1l-21 -108h-39l13 109q-43 4 -84 16.5t-75 30.5zM311 68q35 5 58.5 24t23.5 51q0 21 -14 36t-52 30zM306 421q-38 -1 -63 -13t-25 -40q0 -20 16 -33.5t58 -29.5z" />
    <glyph glyph-name="cent.otab" 
d="M262 -5q-75 11 -113.5 65t-38.5 129q0 47 15 91t42 78t65 56t83 25l20 101h39l-12 -103q49 -10 84 -44.5t49 -82.5l-57 -28l-28 29q-17 17 -30.5 29.5t-27.5 18.5l-34 -292q19 2 40.5 7.5t44.5 13.5l54 18l26 -46q-34 -26 -81 -45.5t-93 -21.5l-21 -109h-39zM192 194
q0 -103 79 -123l35 294q-25 -3 -46 -18t-36 -37.5t-23.5 -52.5t-8.5 -63z" />
    <glyph glyph-name="Euro.otab" 
d="M536 69q-20 -16 -45 -30t-52.5 -24.5t-56.5 -16.5t-56 -6q-45 0 -81.5 14t-62.5 38.5t-42 58.5t-21 73h-71l4 37l65 9q0 18 3 36h-62l4 37l68 9q12 40 34.5 75.5t53 61t68 40.5t80.5 15q34 0 63.5 -11.5t53.5 -31t41 -46t26 -57.5l-62 -30l-31 33q-29 31 -51 47.5
t-53 16.5q-45 0 -80 -30.5t-52 -79.5h168l-6 -49h-174q-3 -17 -3 -33h173l-6 -49h-164q9 -50 41.5 -77t87.5 -27q23 0 51 6.5t60 17.5l63 21z" />
    <glyph glyph-name="florin.otab" 
d="M292 -72q-5 -46 -19 -77.5t-35 -51t-48 -28t-60 -8.5q-28 0 -57.5 8t-50.5 19l18 53q19 -4 41.5 -7t38.5 -3q22 0 37.5 4t26 14.5t17 28.5t9.5 46l24 202h-93l4 42l96 13l16 148q8 75 45 119.5t116 44.5q28 0 58 -8t51 -19l-18 -53q-19 5 -40 7.5t-39 2.5q-43 0 -64 -19
t-27 -73l-16 -148h135l-6 -57h-137z" />
    <glyph glyph-name="sterling.otab" 
d="M494 344l-66 44q-25 17 -46.5 25.5t-47.5 8.5q-45 0 -72.5 -25t-27.5 -73q0 -14 2 -28t5 -27h172l-8 -56h-154q2 -12 4 -26t2 -27q0 -26 -19.5 -50t-42.5 -41h309l-7 -69h-407l6 41q2 10 3.5 14.5t9.5 10.5l22 18q26 21 35 37t9 38q0 9 -2.5 26t-4.5 28h-74l5 42l60 10
q-3 12 -5 29.5t-2 32.5q0 38 15.5 69.5t41 53.5t59.5 34t72 12q34 0 64 -9t55.5 -24.5t45.5 -36.5t34 -44z" />
    <glyph glyph-name="yen.otab" 
d="M332 91l-11 -91h-86l11 91h-136l6 49h136l4 31h-137l6 50h116l-141 267h82q10 0 15 -8l112 -225l155 225q5 8 17 8h87l-200 -267h117l-6 -50h-137l-4 -31h137l-6 -49h-137z" />
    <glyph glyph-name="numbersign.otab" 
d="M446 301l-33 -115h102l-8 -59h-110l-35 -127h-73l36 127h-110l-35 -127h-70l35 127h-75l7 59h84l33 115h-102l7 59h111l35 128h70l-35 -128h109l35 128h73l-36 -128h76l-8 -59h-83zM232 186h109l31 115h-108z" />
    <glyph glyph-name="percent.otab" horiz-adv-x="772" 
d="M192 0l307 488h81l-308 -488h-80zM333 366q0 -32 -11.5 -59.5t-31 -47.5t-46 -32t-55.5 -12q-27 0 -50 9.5t-40 26.5t-26.5 41.5t-9.5 53.5q0 31 11.5 58.5t31 47.5t46 32t55.5 12q26 0 49 -9.5t40 -26.5t27 -41t10 -53zM266 364q0 30 -17 48.5t-44 18.5q-19 0 -33 -7
t-23.5 -19t-14.5 -27t-5 -31q0 -30 17 -48.5t44 -18.5q19 0 33.5 7t24 19t14 27t4.5 31zM709 143q0 -32 -11.5 -59.5t-31 -47.5t-46 -32t-55.5 -12q-27 0 -50 9.5t-40 26.5t-26.5 41.5t-9.5 53.5q0 31 11.5 58.5t31 47.5t46 32t55.5 12q26 0 49 -9.5t40 -26.5t27 -41t10 -53
zM642 141q0 30 -17 48.5t-44 18.5q-19 0 -33 -7t-23.5 -19t-14.5 -27t-5 -31q0 -30 17 -48.5t44 -18.5q19 0 33.5 7t24 19t14 27t4.5 31z" />
    <glyph glyph-name="perthousand.otab" horiz-adv-x="1076" 
d="M192 0l307 488h81l-308 -488h-80zM333 366q0 -32 -11.5 -59.5t-31 -47.5t-46 -32t-55.5 -12q-27 0 -50 9.5t-40 26.5t-26.5 41.5t-9.5 53.5q0 31 11.5 58.5t31 47.5t46 32t55.5 12q26 0 49 -9.5t40 -26.5t27 -41t10 -53zM266 364q0 30 -17 48.5t-44 18.5q-19 0 -33 -7
t-23.5 -19t-14.5 -27t-5 -31q0 -30 17 -48.5t44 -18.5q19 0 33.5 7t24 19t14 27t4.5 31zM709 143q0 -32 -11.5 -59.5t-31 -47.5t-46 -32t-55.5 -12q-27 0 -50 9.5t-40 26.5t-26.5 41.5t-9.5 53.5q0 31 11.5 58.5t31 47.5t46 32t55.5 12q26 0 49 -9.5t40 -26.5t27 -41t10 -53
zM642 141q0 30 -17 48.5t-44 18.5q-19 0 -33 -7t-23.5 -19t-14.5 -27t-5 -31q0 -30 17 -48.5t44 -18.5q19 0 33.5 7t24 19t14 27t4.5 31zM1013 143q0 -32 -11.5 -59.5t-31 -47.5t-46 -32t-55.5 -12q-27 0 -50 9.5t-40 26.5t-26.5 41.5t-9.5 53.5q0 31 11.5 58.5t31 47.5
t46 32t55.5 12q26 0 49 -9.5t40 -26.5t27 -41t10 -53zM946 141q0 30 -17 48.5t-44 18.5q-19 0 -33 -7t-23.5 -19t-14.5 -27t-5 -31q0 -30 17 -48.5t44 -18.5q19 0 33.5 7t24 19t14 27t4.5 31z" />
    <glyph glyph-name="zero.lprop" horiz-adv-x="601" 
d="M575 396q0 -80 -22 -153.5t-61.5 -129.5t-94 -89.5t-118.5 -33.5q-51 0 -93 21t-72 58.5t-46 88t-16 109.5q0 80 22 153.5t62 129.5t94 89.5t119 33.5q51 0 92.5 -21t71.5 -58.5t46 -88t16 -109.5zM482 392q0 94 -35.5 146t-100.5 52q-47 0 -84 -25t-63 -68t-40 -101.5
t-14 -124.5q0 -92 36 -145t101 -53q46 0 83.5 26t63 69.5t39.5 101.5t14 122z" />
    <glyph glyph-name="one.lprop" horiz-adv-x="494" 
d="M55 72h169l57 493q-15 -8 -38.5 -17.5t-46.5 -17.5l-84 -28l-22 58l206 94q12 5 20 7t21 2h44l-69 -591h145l-9 -72h-402z" />
    <glyph glyph-name="two.lprop" horiz-adv-x="527" 
d="M448 0h-427l5 43q2 13 5.5 20t11.5 15l212 205q35 34 62 62t46 52.5t28.5 48t9.5 48.5q0 54 -31.5 76t-79.5 22q-26 0 -56.5 -6t-72.5 -18l-62 -18l-23 54q59 34 115 51.5t113 17.5q38 0 72.5 -11.5t60.5 -34t41 -55t15 -73.5q0 -33 -12 -65t-35.5 -65t-59 -69t-82.5 -77
l-170 -149h323z" />
    <glyph glyph-name="three.lprop" horiz-adv-x="556" 
d="M107 104q49 -17 81 -25t61 -8q69 0 111.5 39.5t42.5 107.5q0 44 -24.5 64.5t-80.5 20.5h-67q-14 0 -13 13l8 55h99q21 0 30.5 5.5t20.5 16.5q17 19 27.5 47t10.5 57q0 48 -29.5 71.5t-76.5 23.5q-26 0 -56.5 -5t-75.5 -17l-61 -16l-23 55q58 32 112.5 48t111.5 16
q40 0 74.5 -11t59.5 -31.5t39.5 -50t14.5 -66.5q0 -55 -22.5 -93.5t-61.5 -72.5q37 -19 55.5 -53.5t18.5 -76.5q0 -50 -19.5 -92t-52.5 -72t-77.5 -47t-93.5 -17q-68 0 -130.5 24t-110.5 63l30 51z" />
    <glyph glyph-name="four.lprop" horiz-adv-x="596" 
d="M372 238l38 318q-5 -7 -13.5 -17.5t-18 -22t-19.5 -23.5t-19 -22l-133 -153q-17 -20 -38 -43.5t-35 -36.5h238zM398 648q9 10 14.5 12.5t17.5 2.5h80l-50 -425h92l-9 -72h-92l-19 -166h-88l20 166h-332l7 57q2 11 4 16.5t12 16.5z" />
    <glyph glyph-name="five.lprop" horiz-adv-x="555" 
d="M109 326q-7 5 -9.5 8.5t-0.5 13.5l38 315h372q-3 -21 -5 -38t-4 -37h-293l-13 -111q-3 -28 -7.5 -56.5t-9.5 -43.5q33 14 67.5 22t68.5 8q40 0 74.5 -12t60 -35.5t40 -56.5t14.5 -75q0 -50 -19 -93.5t-52 -75.5t-79 -50.5t-100 -18.5q-60 0 -119 21.5t-107 57.5l31 53
l67 -24q38 -14 67.5 -20.5t61.5 -6.5q34 0 63 12t50 33t33 48.5t12 59.5q0 27 -10 47.5t-27.5 34t-40.5 20t-49 6.5q-31 0 -63.5 -7t-60.5 -17q-8 -3 -13 -2.5t-13 5.5z" />
    <glyph glyph-name="six.lprop" horiz-adv-x="591" 
d="M217 382q35 16 68.5 24.5t66.5 8.5q42 0 76.5 -13t59.5 -37t38.5 -57t13.5 -72q0 -46 -17.5 -90.5t-49.5 -79t-76 -55.5t-98 -21q-56 0 -99 22t-72.5 59.5t-45 87t-15.5 103.5q0 86 25 161t70 130.5t106.5 87.5t134.5 32q34 0 73 -11.5t73 -31.5q0 -1 -4 -8.5t-9 -17.5
q-6 -11 -13 -26q-36 10 -64.5 14t-57.5 4q-45 0 -84 -16t-69.5 -46t-51 -74t-28.5 -101zM175 298q-11 -5 -14 -11.5t-3 -22.5q0 -41 9 -77t27 -62t45.5 -41t64.5 -15q32 0 59.5 13t47 35.5t30.5 52t11 62.5q0 56 -35.5 82t-90.5 26q-35 0 -75 -12t-76 -30z" />
    <glyph glyph-name="seven.lprop" horiz-adv-x="511" 
d="M101 0q5 39 14 73t24 69t37 72.5t53 83.5l77 115q17 25 34.5 50.5t34 48.5t31 42.5t23.5 31.5h-368l10 77h465l-6 -44q-2 -12 -7 -23t-19 -32l-202 -308q-28 -42 -46.5 -75.5t-30.5 -62.5t-19.5 -57t-13.5 -61h-91z" />
    <glyph glyph-name="eight.lprop" horiz-adv-x="594" 
d="M292 -10q-53 0 -97.5 16t-77 43.5t-50.5 64t-18 76.5q0 31 10.5 57.5t28.5 48.5t42 39.5t51 31.5q-25 20 -44 50.5t-19 72.5q0 39 18 72t49 58t71 39t84 14q46 0 84 -14t65.5 -38t42.5 -55.5t15 -65.5q0 -51 -29 -93t-74 -72q46 -25 76 -56t30 -80q0 -45 -21.5 -83.5
t-57 -66.5t-82 -43.5t-97.5 -15.5zM252 330q-9 4 -14.5 3t-16.5 -7q-16 -9 -31.5 -21t-27.5 -28t-19 -35t-7 -41q0 -27 11.5 -51t32.5 -42.5t51 -29t66 -10.5q33 0 63 9.5t52.5 26t35.5 39t13 48.5q0 30 -22 50t-75 42zM467 489q0 23 -10 42.5t-27.5 34t-41.5 22.5t-52 8
q-26 0 -50 -6.5t-42.5 -19.5t-30 -32t-11.5 -44q0 -20 8.5 -34.5t23 -26.5t33.5 -21.5t41 -18.5l60 -25q11 -5 16.5 -2.5t13.5 8.5q13 10 25.5 23.5t22.5 29t15.5 31.5t5.5 31z" />
    <glyph glyph-name="nine.lprop" horiz-adv-x="591" 
d="M394 281q-30 -15 -66 -24t-69 -9q-44 0 -78.5 14.5t-59 40t-37.5 60t-13 73.5q0 55 20 98.5t53.5 74.5t77 47.5t90.5 16.5q55 0 98.5 -22.5t73 -60t45 -86.5t15.5 -103q0 -86 -23 -161t-64.5 -130.5t-98.5 -87.5t-126 -32q-41 0 -81 10.5t-72 30.5q1 5 3 9t4 8.5t4 9.5
q4 11 11 27q34 -8 66 -13t58 -5q90 0 146 61t72 177zM432 365q15 8 18 14t3 20q0 41 -9 76.5t-27 62t-45.5 42t-64.5 15.5q-32 0 -59.5 -11t-47 -31t-30.5 -47t-11 -59q0 -60 33 -92t93 -32q35 0 73 12t74 30z" />
    <glyph glyph-name="dollar.lprop" horiz-adv-x="564" 
d="M58 102l56 -11q38 -8 68 -12.5t57 -6.5l30 253l-17 8q-42 18 -72.5 36.5t-50.5 39.5t-29.5 45.5t-9.5 55.5q0 36 15.5 65.5t44 51t69.5 33.5t92 13l21 105h54l-13 -108q38 -4 74 -11.5t68 -18.5l-13 -57l-55 4l-83 5l-25 -205q79 -35 122.5 -77t43.5 -110
q0 -44 -15.5 -81.5t-43 -65t-67 -44t-87.5 -19.5l-21 -106h-54l13 109q-52 5 -103.5 19t-90.5 34zM417 192q0 38 -20 61t-68 46l-27 -226q57 8 86 40t29 79zM176 510q0 -32 26 -53t78 -44l21 179q-125 -6 -125 -82z" />
    <glyph glyph-name="cent.lprop" horiz-adv-x="519" 
d="M216 -4q-41 6 -72.5 25.5t-52.5 48.5t-32 65.5t-11 77.5q0 53 16.5 102t47 87.5t72.5 63t93 29.5l21 107h51l-14 -110q54 -12 92.5 -50.5t53.5 -91.5l-62 -30l-31 33q-19 20 -33.5 33.5t-29.5 21.5l-41 -336q21 2 45 8.5t51 15.5l63 21l24 -48q-37 -29 -89 -50.5
t-103 -25.5l-21 -109h-51zM136 218q0 -57 22.5 -93.5t67.5 -47.5l41 339q-28 -4 -52 -21t-41.5 -43.5t-27.5 -61t-10 -72.5z" />
    <glyph glyph-name="Euro.lprop" horiz-adv-x="598" 
d="M560 74q-21 -18 -46.5 -33.5t-54 -26.5t-58.5 -17.5t-59 -6.5q-50 0 -91 17.5t-70 49.5t-46 77.5t-20 101.5h-73l7 50l68 8q1 15 2 30.5t3 32.5h-65l6 48l69 9q13 54 38 101.5t60.5 82.5t80 55t95.5 20q33 0 62.5 -10.5t54.5 -29.5t44 -44t30 -54l-54 -35l-48 43
q-30 27 -51 39t-49 12q-31 0 -58.5 -13t-50 -36.5t-38.5 -56t-25 -72.5h204l-8 -59h-205q-2 -16 -3 -29.5t-2 -31.5h203l-8 -60h-197q5 -81 41.5 -123.5t106.5 -42.5q49 0 124 28l57 21z" />
    <glyph glyph-name="florin.lprop" horiz-adv-x="522" 
d="M252 -33q-12 -104 -59 -153q-24 -25 -57.5 -38.5t-78.5 -13.5q-31 0 -61 8t-52 20l19 54q18 -3 41.5 -5.5t41.5 -2.5q31 0 52 7.5t34.5 22.5t20.5 37.5t11 53.5l35 303h-113l5 49l116 15l16 144q12 104 59 153q24 25 57.5 38.5t78.5 13.5q31 0 61 -8t52 -20l-19 -54
q-18 3 -41.5 5.5t-41.5 2.5q-32 0 -52.5 -7.5t-34 -22.5t-20.5 -37.5t-11 -53.5l-18 -152h156l-7 -66h-157z" />
    <glyph glyph-name="sterling.lprop" horiz-adv-x="575" 
d="M522 74l-8 -74h-451l5 40q2 15 6.5 23.5t19.5 26.5l33 39q20 23 28.5 42t8.5 45q0 17 -3 37.5t-7 42.5h-90l6 48l75 12q-4 22 -7.5 47t-3.5 51q0 52 18 93t49 69t71 42.5t84 14.5q63 0 116 -28t91 -78l-44 -49l-59 35q-39 23 -65.5 31t-52.5 8q-60 0 -91 -36.5t-31 -93.5
q0 -32 3.5 -57t8.5 -45h200l-8 -64h-182q4 -20 6.5 -39.5t2.5 -36.5q0 -35 -15 -65.5t-50 -62.5l-19 -18h355z" />
    <glyph glyph-name="yen.lprop" horiz-adv-x="603" 
d="M244 266l-178 397h81q11 0 15.5 -3.5t8.5 -11.5l80 -185q9 -20 18.5 -44.5t18.5 -48t16.5 -44.5t10.5 -34h2q6 13 16.5 32t23 40t25.5 42.5t25 39.5l130 198q8 12 13 15.5t17 3.5h81l-263 -397h111l-7 -61h-138l-5 -39h138l-7 -61h-138l-12 -105h-90l12 105h-137l7 61
h137l5 39h-137l7 61h113z" />
    <glyph glyph-name="numbersign.lprop" 
d="M140 191h-80l8 71h93l40 138h-115l8 71h127l55 192h79l-55 -192h110l55 192h78l-54 -192h81l-8 -71h-94l-39 -138h116l-8 -71h-130l-54 -191h-78l54 191h-110l-55 -191h-78zM240 262h110l40 138h-111z" />
    <glyph glyph-name="percent.lprop" horiz-adv-x="874" 
d="M413 514q0 -39 -14 -72.5t-38 -58t-56 -39t-68 -14.5q-32 0 -60 11.5t-48.5 32.5t-32.5 50t-12 64q0 39 14 72.5t38 58.5t56 39.5t68 14.5q32 0 60 -11.5t48.5 -32.5t32.5 -50.5t12 -64.5zM338 512q0 39 -22.5 63.5t-57.5 24.5q-24 0 -42.5 -9.5t-31 -24.5t-19 -34.5
t-6.5 -40.5q0 -40 22.5 -64t57.5 -24q24 0 42.5 9.5t31 24.5t19 34.5t6.5 40.5zM814 174q0 -39 -14 -72.5t-38 -58t-56 -39t-68 -14.5q-32 0 -60 11.5t-48.5 32.5t-32.5 50t-12 64q0 39 14 72.5t38 58.5t56 39.5t68 14.5q32 0 60 -11.5t48.5 -32.5t32.5 -50.5t12 -64.5z
M739 172q0 39 -22.5 63.5t-57.5 24.5q-24 0 -42.5 -9.5t-31 -24.5t-19 -34.5t-6.5 -40.5q0 -40 22.5 -64t57.5 -24q24 0 42.5 9.5t31 24.5t19 34.5t6.5 40.5zM209 0l394 663h86l-394 -663h-86z" />
    <glyph glyph-name="perthousand.lprop" horiz-adv-x="1236" 
d="M413 514q0 -39 -14 -72.5t-38 -58t-56 -39t-68 -14.5q-32 0 -60 11.5t-48.5 32.5t-32.5 50t-12 64q0 39 14 72.5t38 58.5t56 39.5t68 14.5q32 0 60 -11.5t48.5 -32.5t32.5 -50.5t12 -64.5zM338 512q0 39 -22.5 63.5t-57.5 24.5q-24 0 -42.5 -9.5t-31 -24.5t-19 -34.5
t-6.5 -40.5q0 -40 22.5 -64t57.5 -24q24 0 42.5 9.5t31 24.5t19 34.5t6.5 40.5zM814 174q0 -39 -14 -72.5t-38 -58t-56 -39t-68 -14.5q-32 0 -60 11.5t-48.5 32.5t-32.5 50t-12 64q0 39 14 72.5t38 58.5t56 39.5t68 14.5q32 0 60 -11.5t48.5 -32.5t32.5 -50.5t12 -64.5z
M739 172q0 39 -22.5 63.5t-57.5 24.5q-24 0 -42.5 -9.5t-31 -24.5t-19 -34.5t-6.5 -40.5q0 -40 22.5 -64t57.5 -24q24 0 42.5 9.5t31 24.5t19 34.5t6.5 40.5zM1176 174q0 -39 -14 -72.5t-38 -58t-56 -39t-68 -14.5q-32 0 -60 11.5t-48.5 32.5t-32.5 50t-12 64q0 39 14 72.5
t38 58.5t56 39.5t68 14.5q32 0 60 -11.5t48.5 -32.5t32.5 -50.5t12 -64.5zM1101 172q0 39 -22.5 63.5t-57.5 24.5q-24 0 -42.5 -9.5t-31 -24.5t-19 -34.5t-6.5 -40.5q0 -40 22.5 -64t57.5 -24q24 0 42.5 9.5t31 24.5t19 34.5t6.5 40.5zM209 0l394 663h86l-394 -663h-86z" />
    <glyph glyph-name="zero.oprop" horiz-adv-x="548" 
d="M260 74q35 0 64.5 14.5t50.5 40.5t32.5 61t11.5 77q0 28 -7.5 55t-23 47t-40 32.5t-57.5 12.5q-35 0 -64.5 -14.5t-50.5 -40.5t-33 -61t-12 -77q0 -29 7.5 -55.5t23.5 -46.5t40.5 -32.5t57.5 -12.5zM256 -8q-46 0 -85 16.5t-67.5 46.5t-45 71t-16.5 89q0 57 19.5 108
t53.5 89.5t80 61t99 22.5q46 0 85 -16.5t67.5 -46.5t45 -71t16.5 -89q0 -57 -19.5 -108t-53.5 -89.5t-80 -61t-99 -22.5z" />
    <glyph glyph-name="one.oprop" horiz-adv-x="481" 
d="M59 69h160l38 324h-1q-10 -5 -32.5 -13.5t-44.5 -15.5l-80 -25l-23 55l194 86q11 5 20.5 6.5t23.5 1.5h41l-49 -419h132l-9 -69h-379z" />
    <glyph glyph-name="two.oprop" horiz-adv-x="514" 
d="M80 436q60 29 111.5 44.5t99.5 15.5q35 0 65.5 -10t53 -28.5t35.5 -45t13 -59.5q0 -29 -10 -54t-30 -48.5t-50.5 -46.5t-71.5 -49l-143 -90q21 2 44.5 3.5t46.5 1.5h195l-8 -70h-393l6 49q1 13 11 20l219 161q27 20 45 35.5t29.5 29.5t16 27t4.5 28q0 33 -23.5 50.5
t-61.5 17.5q-23 0 -55 -5.5t-80 -17.5l-48 -12z" />
    <glyph glyph-name="three.oprop" horiz-adv-x="511" 
d="M165 198h114q14 0 21.5 3t17.5 13q9 9 17 22.5t14 28.5t9.5 30.5t3.5 28.5q0 42 -24 67.5t-73 25.5q-21 0 -47.5 -4t-59.5 -13l-79 -21l-22 52q57 32 111 48.5t105 16.5q41 0 74 -12t56 -33t35.5 -49.5t12.5 -62.5q0 -46 -24 -90t-59 -77q37 -18 58 -50.5t21 -75.5
q0 -51 -18.5 -93.5t-51 -72.5t-76.5 -47t-96 -17q-64 0 -123.5 23t-105.5 58l27 48l78 -27q31 -11 61 -17.5t57 -6.5q32 0 61 10t49 30q21 20 33 48t12 63q0 40 -22 62q-24 24 -88 24h-73q-13 0 -12 14z" />
    <glyph glyph-name="four.oprop" horiz-adv-x="575" 
d="M382 477q6 7 10.5 9t14.5 2h75l-49 -415h89l-8 -69h-89l-18 -160h-86l18 160h-323l7 57q2 10 4 14t6 9zM346 73l37 305q-13 -17 -31.5 -40.5t-36.5 -43.5l-132 -147q-17 -20 -36 -41t-32 -33h231z" />
    <glyph glyph-name="five.oprop" horiz-adv-x="534" 
d="M177 302q-3 -26 -8.5 -53.5t-10.5 -44.5q31 12 63 19t64 7q41 0 75.5 -13t59.5 -36t39 -55t14 -70q0 -54 -18.5 -98.5t-51.5 -76t-78 -48.5t-98 -17q-61 0 -119.5 24t-100.5 58l28 48l48 -18q44 -17 78 -25t67 -8q67 0 109.5 39t42.5 111q0 54 -32 83t-84 29
q-29 0 -59 -5.5t-64 -15.5q-8 -2 -13 -2t-13 5l-21 11q-8 4 -11 8.5t-1 14.5l38 315h363l-8 -70h-284z" />
    <glyph glyph-name="six.oprop" horiz-adv-x="573" 
d="M505 581l-41 8q-20 4 -39 6t-39 2q-44 0 -82.5 -16.5t-68.5 -47.5t-51 -74.5t-29 -97.5l41 19q41 19 75 27.5t66 8.5q40 0 74 -13t58.5 -36.5t38 -56.5t13.5 -74q0 -50 -18 -94t-50 -77.5t-75.5 -53t-94.5 -19.5t-93 20.5t-72 56.5t-46 84.5t-16 105.5q0 79 23 153.5
t66.5 132.5t104.5 92.5t138 34.5q36 0 72 -9t68 -27zM164 303q-13 -7 -16 -14t-3 -21q0 -42 8.5 -78.5t25.5 -63.5t43.5 -42.5t62.5 -15.5q34 0 62 13.5t47.5 36t30 51.5t10.5 60q0 57 -32 85t-89 28q-36 0 -76.5 -11t-73.5 -28z" />
    <glyph glyph-name="seven.oprop" horiz-adv-x="496" 
d="M67 -177q7 42 15.5 77t22.5 69.5t36.5 72t56.5 85.5l205 288h-371l9 73h461l-6 -46q-2 -11 -6 -21t-17 -29l-199 -297q-35 -51 -55 -88.5t-31 -68.5t-17 -58t-12 -57h-92z" />
    <glyph glyph-name="eight.oprop" horiz-adv-x="570" 
d="M271 -8q-51 0 -95 15.5t-76 42.5t-50 62.5t-18 75.5q0 32 10.5 59t28 49.5t41.5 40t51 31.5q-26 20 -43.5 50.5t-17.5 71.5q0 39 17.5 72.5t47.5 58t69.5 38.5t83.5 14q45 0 82.5 -13.5t63.5 -36.5t40.5 -54t14.5 -66q0 -51 -30.5 -94.5t-75.5 -72.5q48 -23 78 -55.5
t30 -82.5q0 -45 -20.5 -83t-55 -65.5t-80.5 -42.5t-96 -15zM234 332q-8 4 -14 3t-14 -6q-38 -22 -63.5 -53.5t-25.5 -76.5q0 -27 11.5 -50.5t32.5 -40.5t50 -26.5t65 -9.5q33 0 62.5 9t51.5 25t35 37.5t13 46.5q0 29 -23.5 50t-74.5 44zM341 371q9 -4 14 -3t13 6q14 9 27 23
t23.5 30t17 33t6.5 34q0 46 -33 73.5t-91 27.5q-60 0 -96.5 -28t-36.5 -70q0 -34 26 -56.5t79 -46.5z" />
    <glyph glyph-name="nine.oprop" horiz-adv-x="572" 
d="M86 -93l41 -8q20 -4 39 -6t37 -2q44 0 79.5 17t62 47.5t44.5 74t26 97.5l-41 -19q-41 -19 -75 -27.5t-65 -8.5q-40 0 -74 13.5t-58.5 38t-38 58.5t-13.5 75q0 50 18 93.5t50 76t75 51t94 18.5t93 -20.5t72 -56.5t46 -84.5t16 -105.5q0 -80 -19.5 -154.5t-58.5 -132
t-96.5 -92t-133.5 -34.5q-36 0 -73.5 9t-69.5 27zM406 185q13 7 16 14t3 21q0 42 -8.5 78.5t-25.5 63.5t-43.5 42.5t-62.5 15.5q-34 0 -61.5 -12t-47 -33t-30 -49.5t-10.5 -61.5q0 -57 32 -87.5t89 -30.5q35 0 75.5 11t73.5 28z" />
    <glyph glyph-name="dollar.oprop" horiz-adv-x="485" 
d="M62 91l60 -12q23 -5 44.5 -8t40.5 -5l19 160l-28 11q-52 20 -84 48t-32 79q0 31 14 55t38 41t56 26t68 10l21 108h39l-13 -111q32 -3 62.5 -11t56.5 -19l-15 -54l-46 5q-18 2 -35.5 3.5t-31.5 2.5l-16 -132l10 -4q63 -23 95 -53t32 -80q0 -36 -13.5 -64t-36.5 -48
t-54.5 -31.5t-67.5 -14.5v-1l-21 -108h-39l13 109q-43 4 -84 16.5t-75 30.5zM254 68q35 5 58.5 24t23.5 51q0 21 -14 36t-52 30zM249 421q-38 -1 -63 -13t-25 -40q0 -20 16 -33.5t58 -29.5z" />
    <glyph glyph-name="cent.oprop" horiz-adv-x="486" 
d="M206 -5q-75 11 -113.5 65t-38.5 129q0 47 15 91t42 78t65 56t83 25l20 101h39l-12 -103q49 -10 84 -44.5t49 -82.5l-57 -28l-28 29q-17 17 -30.5 29.5t-27.5 18.5l-34 -292q19 2 40.5 7.5t44.5 13.5l54 18l26 -46q-34 -26 -81 -45.5t-93 -21.5l-21 -109h-39zM136 194
q0 -103 79 -123l35 294q-25 -3 -46 -18t-36 -37.5t-23.5 -52.5t-8.5 -63z" />
    <glyph glyph-name="Euro.oprop" horiz-adv-x="573" 
d="M523 69q-20 -16 -45 -30t-52.5 -24.5t-56.5 -16.5t-56 -6q-45 0 -81.5 14t-62.5 38.5t-42 58.5t-21 73h-71l4 37l65 9q0 18 3 36h-62l4 37l68 9q12 40 34.5 75.5t53 61t68 40.5t80.5 15q34 0 63.5 -11.5t53.5 -31t41 -46t26 -57.5l-62 -30l-31 33q-29 31 -51 47.5
t-53 16.5q-45 0 -80 -30.5t-52 -79.5h168l-6 -49h-174q-3 -17 -3 -33h173l-6 -49h-164q9 -50 41.5 -77t87.5 -27q23 0 51 6.5t60 17.5l63 21z" />
    <glyph glyph-name="florin.oprop" horiz-adv-x="439" 
d="M205 -72q-5 -46 -19 -77.5t-35 -51t-48 -28t-60 -8.5q-28 0 -57.5 8t-50.5 19l18 53q19 -4 41.5 -7t38.5 -3q22 0 37.5 4t26 14.5t17 28.5t9.5 46l24 202h-93l4 42l96 13l16 148q8 75 45 119.5t116 44.5q28 0 58 -8t51 -19l-18 -53q-19 5 -40 7.5t-39 2.5q-43 0 -64 -19
t-27 -73l-16 -148h135l-6 -57h-137z" />
    <glyph glyph-name="sterling.oprop" horiz-adv-x="546" 
d="M464 344l-66 44q-25 17 -46.5 25.5t-47.5 8.5q-45 0 -72.5 -25t-27.5 -73q0 -14 2 -28t5 -27h172l-8 -56h-154q2 -12 4 -26t2 -27q0 -26 -19.5 -50t-42.5 -41h309l-7 -69h-407l6 41q2 10 3.5 14.5t9.5 10.5l22 18q26 21 35 37t9 38q0 9 -2.5 26t-4.5 28h-74l5 42l60 10
q-3 12 -5 29.5t-2 32.5q0 38 15.5 69.5t41 53.5t59.5 34t72 12q34 0 64 -9t55.5 -24.5t45.5 -36.5t34 -44z" />
    <glyph glyph-name="yen.oprop" horiz-adv-x="531" 
d="M299 91l-11 -91h-86l11 91h-136l6 49h136l4 31h-137l6 50h116l-141 267h82q10 0 15 -8l112 -225l155 225q5 8 17 8h87l-200 -267h117l-6 -50h-137l-4 -31h137l-6 -49h-137z" />
    <glyph glyph-name="numbersign.oprop" horiz-adv-x="608" 
d="M447 301l-33 -115h102l-8 -59h-110l-35 -127h-73l36 127h-110l-35 -127h-70l35 127h-75l7 59h84l33 115h-102l7 59h111l35 128h70l-35 -128h109l35 128h73l-36 -128h76l-8 -59h-83zM233 186h109l31 115h-108z" />
    <glyph glyph-name="percent.oprop" horiz-adv-x="772" 
d="M192 0l307 488h81l-308 -488h-80zM333 366q0 -32 -11.5 -59.5t-31 -47.5t-46 -32t-55.5 -12q-27 0 -50 9.5t-40 26.5t-26.5 41.5t-9.5 53.5q0 31 11.5 58.5t31 47.5t46 32t55.5 12q26 0 49 -9.5t40 -26.5t27 -41t10 -53zM266 364q0 30 -17 48.5t-44 18.5q-19 0 -33 -7
t-23.5 -19t-14.5 -27t-5 -31q0 -30 17 -48.5t44 -18.5q19 0 33.5 7t24 19t14 27t4.5 31zM709 143q0 -32 -11.5 -59.5t-31 -47.5t-46 -32t-55.5 -12q-27 0 -50 9.5t-40 26.5t-26.5 41.5t-9.5 53.5q0 31 11.5 58.5t31 47.5t46 32t55.5 12q26 0 49 -9.5t40 -26.5t27 -41t10 -53
zM642 141q0 30 -17 48.5t-44 18.5q-19 0 -33 -7t-23.5 -19t-14.5 -27t-5 -31q0 -30 17 -48.5t44 -18.5q19 0 33.5 7t24 19t14 27t4.5 31z" />
    <glyph glyph-name="perthousand.oprop" horiz-adv-x="1076" 
d="M192 0l307 488h81l-308 -488h-80zM333 366q0 -32 -11.5 -59.5t-31 -47.5t-46 -32t-55.5 -12q-27 0 -50 9.5t-40 26.5t-26.5 41.5t-9.5 53.5q0 31 11.5 58.5t31 47.5t46 32t55.5 12q26 0 49 -9.5t40 -26.5t27 -41t10 -53zM266 364q0 30 -17 48.5t-44 18.5q-19 0 -33 -7
t-23.5 -19t-14.5 -27t-5 -31q0 -30 17 -48.5t44 -18.5q19 0 33.5 7t24 19t14 27t4.5 31zM709 143q0 -32 -11.5 -59.5t-31 -47.5t-46 -32t-55.5 -12q-27 0 -50 9.5t-40 26.5t-26.5 41.5t-9.5 53.5q0 31 11.5 58.5t31 47.5t46 32t55.5 12q26 0 49 -9.5t40 -26.5t27 -41t10 -53
zM642 141q0 30 -17 48.5t-44 18.5q-19 0 -33 -7t-23.5 -19t-14.5 -27t-5 -31q0 -30 17 -48.5t44 -18.5q19 0 33.5 7t24 19t14 27t4.5 31zM1013 143q0 -32 -11.5 -59.5t-31 -47.5t-46 -32t-55.5 -12q-27 0 -50 9.5t-40 26.5t-26.5 41.5t-9.5 53.5q0 31 11.5 58.5t31 47.5
t46 32t55.5 12q26 0 49 -9.5t40 -26.5t27 -41t10 -53zM946 141q0 30 -17 48.5t-44 18.5q-19 0 -33 -7t-23.5 -19t-14.5 -27t-5 -31q0 -30 17 -48.5t44 -18.5q19 0 33.5 7t24 19t14 27t4.5 31z" />
    <glyph glyph-name="fraction" unicode="&#x2044;" horiz-adv-x="364" 
d="M-45 0l394 663h86l-394 -663h-86z" />
    <glyph glyph-name="onesuperior" unicode="&#xb9;" horiz-adv-x="385" 
d="M108 394h80l24 201q-6 -4 -18.5 -9.5t-25.5 -10.5l-36 -12l-18 49l110 49q11 5 26 5h39l-32 -272h65l-6 -58h-215z" />
    <glyph glyph-name="twosuperior" unicode="&#xb2;" horiz-adv-x="383" 
d="M187 467q26 24 42.5 41.5t25.5 30t12.5 21.5t3.5 18q0 17 -12 24.5t-32 7.5q-13 0 -31 -3.5t-38 -9.5l-29 -9l-17 43q32 20 64.5 31t62.5 11q46 0 74 -26t28 -65q0 -22 -7 -39.5t-20 -34t-32.5 -33.5t-44.5 -38l-53 -42h140l-6 -59h-228l3 32q1 8 3 12t9 11z" />
    <glyph glyph-name="threesuperior" unicode="&#xb3;" horiz-adv-x="382" 
d="M98 415q34 -10 60.5 -16t46.5 -6q24 0 42 11.5t18 37.5q0 19 -11 26.5t-38 7.5h-29q-6 0 -8.5 1.5t-1.5 7.5l5 42h57q8 0 13 1.5t10 8.5q5 8 8 17.5t3 17.5q0 20 -11 28.5t-33 8.5q-12 0 -26.5 -2t-34.5 -7l-36 -8l-15 42q30 17 60.5 28t59.5 11q46 0 74.5 -25t28.5 -62
q0 -24 -11 -44.5t-28 -37.5q33 -24 33 -62q0 -26 -10 -46.5t-27 -35t-39.5 -22.5t-48.5 -8q-37 0 -70.5 12.5t-59.5 31.5l19 41v0z" />
    <glyph glyph-name="onehalf" unicode="&#xbd;" horiz-adv-x="860" 
d="M208 0l394 663h86l-394 -663h-86zM109 394h80l24 201q-6 -4 -18.5 -9.5t-25.5 -10.5l-36 -12l-18 49l110 49q11 5 26 5h39l-32 -272h65l-6 -58h-215zM624 131q26 24 42.5 41.5t25.5 30t12.5 21.5t3.5 18q0 17 -12 24.5t-32 7.5q-13 0 -31 -3.5t-38 -9.5l-29 -9l-17 43
q32 20 64.5 31t62.5 11q46 0 74 -26t28 -65q0 -22 -7 -39.5t-20 -34t-32.5 -33.5t-44.5 -38l-53 -42h140l-6 -59h-228l3 32q1 8 3 12t9 11z" />
    <glyph glyph-name="onequarter" unicode="&#xbc;" horiz-adv-x="861" 
d="M494 111q2 11 4 16.5t9 13.5l153 178q6 7 10.5 9t13.5 2h63l-23 -196h51l-7 -56h-51l-9 -78h-69l9 78h-159zM669 257q-5 -8 -13.5 -19t-17.5 -22l-40 -47q-8 -10 -17 -19l-16 -16h90zM211 0l394 663h86l-394 -663h-86zM108 394h80l24 201q-6 -4 -18.5 -9.5t-25.5 -10.5
l-36 -12l-18 49l110 49q11 5 26 5h39l-32 -272h65l-6 -58h-215z" />
    <glyph glyph-name="threequarters" unicode="&#xbe;" horiz-adv-x="861" 
d="M496 111q2 12 4 17t9 13l153 178q6 7 10.5 9t13.5 2h63l-23 -196h51l-7 -56h-51l-9 -78h-69l9 78h-159zM671 257q-5 -8 -13.5 -19t-17.5 -22l-40 -47q-8 -10 -17 -19l-16 -16h90zM214 0l394 663h86l-394 -663h-86zM117 415q34 -10 60.5 -16t46.5 -6q24 0 42 11.5t18 37.5
q0 19 -11 26.5t-38 7.5h-29q-6 0 -8.5 1.5t-1.5 7.5l5 42h57q8 0 13 1.5t10 8.5q5 8 8 17.5t3 17.5q0 20 -11 28.5t-33 8.5q-12 0 -26.5 -2t-34.5 -7l-36 -8l-15 42q30 17 60.5 28t59.5 11q46 0 74.5 -25t28.5 -62q0 -24 -11 -44.5t-28 -37.5q33 -24 33 -62q0 -26 -10 -46.5
t-27 -35t-39.5 -22.5t-48.5 -8q-37 0 -70.5 12.5t-59.5 31.5l19 41v0z" />
    <glyph glyph-name="grave" unicode="`" horiz-adv-x="387" 
d="M103 657l46 60q5 6 9 7t11 -4l163 -139l-35 -42z" />
    <glyph glyph-name="acute" unicode="&#xb4;" horiz-adv-x="387" 
d="M135 539l-25 42l195 139q13 10 19 -3l34 -60z" />
    <glyph glyph-name="dieresis" unicode="&#xa8;" horiz-adv-x="387" 
d="M107 669h80q7 0 12 -2.5t3 -13.5l-9 -82h-97zM286 669h80q7 0 12 -2.5t3 -13.5l-9 -82h-97z" />
    <glyph glyph-name="circumflex" unicode="&#x2c6;" horiz-adv-x="387" 
d="M391 577l-41 -36l-110 100h-3l-134 -100l-32 36l136 127q7 6 12 8.5t16 2.5h23q11 0 15.5 -1.5t9.5 -8.5z" />
    <glyph glyph-name="tilde" unicode="&#x2dc;" horiz-adv-x="387" 
d="M289 564q-18 0 -34.5 7t-31.5 15t-29 15t-27 7q-15 0 -29 -10.5t-30 -35.5l-45 14q15 45 43.5 73.5t66.5 28.5q18 0 34 -7t31 -15t29 -15t28 -7q29 0 59 46l45 -14q-15 -45 -43.5 -73.5t-66.5 -28.5z" />
    <glyph glyph-name="macron" unicode="&#xaf;" horiz-adv-x="387" 
d="M87 583l9 72h289l-9 -72h-289z" />
    <glyph glyph-name="breve" unicode="&#x2d8;" horiz-adv-x="387" 
d="M232 553q-63 0 -99 37.5t-38 99.5l55 9q8 -36 30 -55.5t57 -19.5q36 0 62 19.5t43 55.5l53 -9q-18 -63 -61 -100t-102 -37z" />
    <glyph glyph-name="dotaccent" unicode="&#x2d9;" horiz-adv-x="387" 
d="M179 660h83q8 0 13 -3t3 -14l-9 -85h-101z" />
    <glyph glyph-name="ring" unicode="&#x2da;" horiz-adv-x="387" 
d="M349 664q0 -25 -9 -47t-25 -38t-38 -25t-47 -9q-48 0 -77.5 30t-29.5 74q0 25 9 47t25 38t38 25t47 9q48 0 77.5 -30t29.5 -74zM291 661q0 20 -13 35.5t-39 15.5q-24 0 -41 -15t-17 -45q0 -20 13 -35t39 -15q24 0 41 14.5t17 44.5z" />
    <glyph glyph-name="cedilla" unicode="&#xb8;" horiz-adv-x="387" 
d="M208 9q-9 -10 -17.5 -23.5t-8.5 -24.5q0 -9 15 -15t33 -14t33 -21t15 -37q0 -27 -17 -46.5t-43 -31.5t-58 -18t-62 -7l-5 50l62 13q44 10 44 28q0 10 -14 16t-31.5 13t-31.5 16.5t-14 26.5q0 10 5 21t13 22t18 21t20 18z" />
    <glyph glyph-name="hungarumlaut" unicode="&#x2dd;" horiz-adv-x="387" 
d="M95 562l-32 35l151 158q11 11 19 2l41 -51zM267 562l-32 35l151 158q11 11 19 2l41 -51z" />
    <glyph glyph-name="ogonek" unicode="&#x2db;" horiz-adv-x="387" 
d="M231 16q-42 -25 -68.5 -57t-26.5 -61q0 -38 48 -38q14 0 32 2.5t32 5.5l9 -47q-20 -12 -45 -19t-48 -7q-48 0 -76 26t-28 62q0 24 11 45.5t30 41t44.5 37.5t55.5 35l30 -26v0z" />
    <glyph glyph-name="caron" unicode="&#x2c7;" horiz-adv-x="387" 
d="M86 685l41 36l110 -100h3l134 100l32 -36l-136 -127q-7 -6 -12 -8.5t-16 -2.5h-23q-11 0 -15.5 1.5t-9.5 8.5z" />
    <glyph glyph-name="commaaccent" unicode="&#x326;" horiz-adv-x="387" 
d="M82 -261l49 203h58q12 0 17 -5t5 -20q0 -17 -5.5 -35t-18.5 -41l-63 -111z" />
    <glyph glyph-name="grave.cap" horiz-adv-x="387" 
d="M132 840l46 60q5 6 9 7t11 -4l163 -139l-35 -42z" />
    <glyph glyph-name="acute.cap" horiz-adv-x="387" 
d="M166 722l-25 42l195 139q13 10 19 -3l34 -60z" />
    <glyph glyph-name="dieresis.cap" horiz-adv-x="387" 
d="M126 849h80q7 0 12 -2.5t3 -13.5l-9 -82h-97zM305 849h80q7 0 12 -2.5t3 -13.5l-9 -82h-97z" />
    <glyph glyph-name="circumflex.cap" horiz-adv-x="387" 
d="M413 753l-41 -36l-110 100h-3l-134 -100l-32 36l136 127q7 6 12 8.5t16 2.5h23q11 0 15.5 -1.5t9.5 -8.5z" />
    <glyph glyph-name="tilde.cap" horiz-adv-x="387" 
d="M323 740q-18 0 -34.5 7t-31.5 15t-29 15t-27 7q-15 0 -29 -10.5t-30 -35.5l-45 14q15 45 43.5 73.5t66.5 28.5q18 0 34 -7t31 -15t29 -15t28 -7q29 0 59 46l45 -14q-15 -45 -43.5 -73.5t-66.5 -28.5z" />
    <glyph glyph-name="macron.cap" horiz-adv-x="387" 
d="M112 760l9 72h289l-9 -72h-289z" />
    <glyph glyph-name="breve.cap" horiz-adv-x="387" 
d="M254 728q-63 0 -99 37.5t-38 99.5l55 9q8 -36 30 -55.5t57 -19.5q36 0 62 19.5t43 55.5l53 -9q-18 -63 -61 -100t-102 -37z" />
    <glyph glyph-name="dotaccent.cap" horiz-adv-x="387" 
d="M226 836h83q8 0 13 -3t3 -14l-9 -85h-101z" />
    <glyph glyph-name="ring.cap" horiz-adv-x="387" 
d="M380 844q0 -25 -9 -47t-25 -38t-38 -25t-47 -9q-48 0 -77.5 30t-29.5 74q0 25 9 47t25 38t38 25t47 9q48 0 77.5 -30t29.5 -74zM322 841q0 20 -13 35.5t-39 15.5q-24 0 -41 -15t-17 -45q0 -20 13 -35t39 -15q24 0 41 14.5t17 44.5z" />
    <glyph glyph-name="hungarumlaut.cap" horiz-adv-x="387" 
d="M130 738l-32 35l151 158q11 11 19 2l41 -51zM302 738l-32 35l151 158q11 11 19 2l41 -51z" />
    <glyph glyph-name="caron.cap" horiz-adv-x="387" 
d="M118 865l41 36l110 -100h3l134 100l32 -36l-136 -127q-7 -6 -12 -8.5t-16 -2.5h-23q-11 0 -15.5 1.5t-9.5 8.5z" />
    <glyph glyph-name="arrowleft.cap" horiz-adv-x="779" 
d="M264 555l39 -39l-133 -149h545v-71h-546l134 -152l-39 -39l-200 200v39q0 12 7 19z" />
    <glyph glyph-name="arrowup.cap" horiz-adv-x="779" 
d="M422 648l193 -193l-39 -39l-147 133v-545h-76v546l-150 -134l-38 39l199 200h39q8 0 11 -1t8 -6z" />
    <glyph glyph-name="arrowright.cap" horiz-adv-x="779" 
d="M708 300l-193 -192l-39 39l133 149h-545v71h546l-134 152l39 39l200 -200v-39q0 -7 -1 -10.5t-6 -8.5z" />
    <glyph glyph-name="arrowdown.cap" horiz-adv-x="779" 
d="M357 12l-192 192l38 39l147 -133v545h76v-546l150 134l39 -38l-200 -201h-39q-7 0 -10.5 1.5t-8.5 6.5z" />
    <glyph glyph-name="uni2196.cap" horiz-adv-x="779" 
d="M182 578h273v-55l-197 -12l384 -383l-53 -54l-386 386l-11 -201h-55v283l27 28q5 5 9 6.5t9 1.5z" />
    <glyph glyph-name="uni2197.cap" horiz-adv-x="779" 
d="M641 534v-275h-55l-11 200l-384 -385l-54 53l384 384l-198 12v55h282l29 -28q7 -7 7 -16z" />
    <glyph glyph-name="uni2198.cap" horiz-adv-x="779" 
d="M597 74h-274v56l199 11l-385 385l54 53l384 -385l12 199h55v-282l-28 -29q-5 -5 -8 -6.5t-9 -1.5z" />
    <glyph glyph-name="uni2199.cap" horiz-adv-x="779" 
d="M137 118v274h55l11 -199l386 385l52 -53l-383 -384l197 -12v-55h-282l-28 28q-5 5 -6.5 7.5t-1.5 8.5z" />
    <glyph glyph-name="periodcentered.cap" horiz-adv-x="206" 
d="M71 382h82q19 0 16 -16l-11 -86h-99z" />
    <glyph glyph-name="bullet.cap" horiz-adv-x="337" 
d="M267 234h-195l22 194h174q23 0 20 -20z" />
    <glyph glyph-name="at.cap" horiz-adv-x="743" 
d="M534 491l-26 -206q-1 -8 -1.5 -14.5t-0.5 -12.5q0 -14 9.5 -24t29.5 -10q24 0 42.5 12.5t31 35t19.5 53t7 65.5q0 51 -18 90.5t-49 66.5t-73 41.5t-90 14.5q-65 0 -118.5 -23.5t-91.5 -64t-59 -96.5t-21 -120q0 -56 17.5 -100.5t50 -75.5t78.5 -47.5t103 -16.5
q51 0 111.5 19.5t137.5 48.5l22 -38q-59 -43 -134.5 -71t-156.5 -28q-68 0 -124.5 23t-97 64t-63.5 97t-23 121q0 75 27.5 143t77 120.5t118 83.5t150.5 31q62 0 116 -21t94 -58t63 -88t23 -111q0 -45 -13 -86.5t-36 -73t-56 -50t-72 -18.5q-31 0 -52 11t-34 28
q-32 -22 -56 -32t-47 -10q-26 0 -48 11t-39 30.5t-26.5 46t-9.5 58.5q0 42 13.5 77t36 60.5t50 39.5t56.5 14q25 0 47 -11t45 -28l16 34zM455 404q1 11 -8 16q-10 6 -26 10.5t-32 4.5q-24 0 -41 -10.5t-28.5 -27.5t-17 -39t-5.5 -45q0 -39 17.5 -60.5t50.5 -21.5q32 0 61 18
q12 8 13 23z" />
    <glyph glyph-name="parenleft.cap" horiz-adv-x="314" 
d="M384 755q-97 -106 -153 -229t-56 -262q0 -94 26.5 -184.5t82.5 -170.5l-46 -37q-76 75 -116 176t-40 213q0 77 18.5 151t53 142t83.5 128t109 110l38 -37v0z" />
    <glyph glyph-name="parenright.cap" horiz-adv-x="314" 
d="M-38 -91q95 106 152.5 229.5t57.5 261.5q0 94 -27 184.5t-83 170.5l47 37q76 -75 115.5 -176t39.5 -213q0 -77 -18.5 -151t-53 -142t-83 -128t-108.5 -110l-39 37v0z" />
    <glyph glyph-name="bracketleft.cap" horiz-adv-x="303" 
d="M148 778h216l-9 -77h-130l-87 -738h130l-9 -77h-216z" />
    <glyph glyph-name="bracketright.cap" horiz-adv-x="302" 
d="M182 -114h-216l9 77h130l87 738h-130l9 77h216z" />
    <glyph glyph-name="braceleft.cap" horiz-adv-x="335" 
d="M70 360q35 8 57.5 18.5t36 25.5t18.5 36.5t5 51.5q0 13 -1 31t-2 37.5t-2 38.5t-1 35q0 76 35.5 114.5t99.5 38.5q21 0 45.5 -4.5t42.5 -10.5l-6 -46l-81 -14q-33 -6 -43 -17.5t-10 -40.5q0 -14 1 -33t2 -39t2 -39.5t1 -34.5q0 -74 -29.5 -113.5t-89.5 -63.5
q45 -17 66 -44t21 -74q0 -25 -8 -58t-17.5 -65.5t-17.5 -61t-8 -44.5q0 -15 8 -22t29 -11l83 -14l-6 -46q-19 -5 -44.5 -9.5t-45.5 -4.5q-51 0 -79.5 28t-28.5 72q0 25 8 58.5t18 67.5t18 65.5t8 53.5q0 34 -21.5 53t-70.5 27z" />
    <glyph glyph-name="braceright.cap" horiz-adv-x="335" 
d="M295 304q-35 -8 -57.5 -18.5t-36 -25.5t-18.5 -36.5t-5 -51.5q0 -13 1 -31t2 -37.5t2 -38.5t1 -35q0 -76 -35.5 -114.5t-99.5 -38.5q-21 0 -45.5 4.5t-42.5 10.5l6 46l81 14q33 6 43 17.5t10 40.5q0 13 -1 32.5t-2 39.5t-2 39.5t-1 34.5q0 74 29.5 113.5t89.5 63.5
q-45 17 -66 44t-21 74q0 25 8 58t17.5 65.5t17.5 61t8 44.5q0 15 -8 22t-29 11l-83 14l6 46q19 5 44.5 9.5t45.5 4.5q51 0 79.5 -28t28.5 -72q0 -26 -8 -59t-18 -67t-18 -65.5t-8 -53.5q0 -34 21.5 -53t70.5 -27z" />
    <glyph glyph-name="questiondown.cap" horiz-adv-x="473" 
d="M333.979 487.971q2 -28.999 3 -46.998q1 -17.998 1 -32.998q0 -31.998 -8.5 -46.9971q-8.49902 -14.999 -30.498 -27.998l-70.9951 -39.9971q-24.999 -13.999 -44.9971 -27.499q-19.999 -13.499 -33.498 -27.998t-20.499 -31.998t-7 -40.4971q0 -43.998 30.498 -68.4961
q30.499 -24.498 80.4951 -24.498q24.999 0 54.9971 4.99902q29.998 5 69.9961 15.999l54.9961 13.999l22.999 -51.9961q-48.9971 -28.999 -104.994 -46.9971q-55.9961 -17.999 -110.993 -17.999q-39.9971 0 -74.4951 11.999t-60.4961 33.998q-25.999 21.998 -40.998 52.9961
t-14.999 69.9961q0 37.998 11.499 67.4961q11.5 29.498 33.498 53.4961q21.999 23.999 52.4971 42.998t69.4961 36.998l52.9961 23.998l28.999 103.994h55.9961zM363.978 566.966h-81.9951q-18.998 0 -15.999 15.999l10 79.9951h98.9941z" />
    <glyph glyph-name="exclamdown.cap" horiz-adv-x="235" 
d="M169.989 486.971q0 -39.998 -1 -73.9961q-0.999023 -33.998 -2.49902 -63.9961t-4 -57.4961t-5.5 -55.4971l-27.998 -235.985h-87.9951l30.999 259.984q2.99902 26.998 7.49902 51.4971q4.5 24.498 9.49902 50.4961q5 25.999 11.5 55.9971q6.49902 29.998 15.499 68.9961
h53.9961zM200.987 564.966h-81.9941q-18.999 0 -15.999 15.999l9.99902 81.9951h98.9941z" />
    <glyph glyph-name="guillemotleft.cap" horiz-adv-x="584" 
d="M244 132l-178 164q-5 5 -7 8.5t-1 10.5l6 45l227 172l36 -41l-175 -158v-2l137 -158zM482 132l-178 164q-5 5 -7 8.5t-1 10.5l6 45l227 172l36 -41l-175 -158v-2l137 -158z" />
    <glyph glyph-name="guillemotright.cap" horiz-adv-x="585" 
d="M363 532l178 -164q5 -5 7 -8.5t1 -10.5l-6 -45l-227 -172l-36 41l175 158v2l-137 158zM125 532l178 -164q5 -5 7 -8.5t1 -10.5l-6 -45l-227 -172l-36 41l175 158v2l-137 158z" />
    <glyph glyph-name="guilsinglleft.cap" horiz-adv-x="346" 
d="M244 132l-178 164q-5 5 -7 8.5t-1 10.5l6 45l227 172l36 -41l-175 -158v-2l137 -158z" />
    <glyph glyph-name="guilsinglright.cap" horiz-adv-x="347" 
d="M125 532l178 -164q5 -5 7 -8.5t1 -10.5l-6 -45l-227 -172l-36 41l175 158v2l-137 158z" />
    <glyph glyph-name="hyphen.cap" horiz-adv-x="399" 
d="M60 294l9 74h291l-9 -74h-291z" />
    <glyph glyph-name="uni00AD.cap" horiz-adv-x="399" 
d="M60 294l9 74h291l-9 -74h-291z" />
    <glyph glyph-name="endash.cap" horiz-adv-x="588" 
d="M60 294l9 74h480l-9 -74h-480z" />
    <glyph glyph-name="emdash.cap" horiz-adv-x="1068" 
d="M60 294l9 74h960l-9 -74h-960z" />
    <glyph glyph-name="Agrave" unicode="&#xc0;" horiz-adv-x="656" 
d="M528 0q-13 0 -16 10l-41 146h-315l-71 -146q-3 -6 -6.5 -8t-11.5 -2h-82l332 663h84q8 0 12 -2t6 -10l191 -651h-82zM450 230l-41 142q-18 63 -31 114.5t-20 91.5q-8 -17 -18.5 -41t-23 -51t-26.5 -56t-27 -57l-69 -143h256zM245 840l46 60q5 6 9 7t11 -4l163 -139
l-35 -42z" />
    <glyph glyph-name="Aacute" unicode="&#xc1;" horiz-adv-x="656" 
d="M528 0q-13 0 -16 10l-41 146h-315l-71 -146q-3 -6 -6.5 -8t-11.5 -2h-82l332 663h84q8 0 12 -2t6 -10l191 -651h-82zM450 230l-41 142q-18 63 -31 114.5t-20 91.5q-8 -17 -18.5 -41t-23 -51t-26.5 -56t-27 -57l-69 -143h256zM283 722l-25 42l195 139q13 10 19 -3l34 -60z
" />
    <glyph glyph-name="Acircumflex" unicode="&#xc2;" horiz-adv-x="656" 
d="M528 0q-13 0 -16 10l-41 146h-315l-71 -146q-3 -6 -6.5 -8t-11.5 -2h-82l332 663h84q8 0 12 -2t6 -10l191 -651h-82zM450 230l-41 142q-18 63 -31 114.5t-20 91.5q-8 -17 -18.5 -41t-23 -51t-26.5 -56t-27 -57l-69 -143h256zM529 753l-41 -36l-110 100h-3l-134 -100
l-32 36l136 127q7 6 12 8.5t16 2.5h23q11 0 15.5 -1.5t9.5 -8.5z" />
    <glyph glyph-name="Atilde" unicode="&#xc3;" horiz-adv-x="656" 
d="M528 0q-13 0 -16 10l-41 146h-315l-71 -146q-3 -6 -6.5 -8t-11.5 -2h-82l332 663h84q8 0 12 -2t6 -10l191 -651h-82zM450 230l-41 142q-18 63 -31 114.5t-20 91.5q-8 -17 -18.5 -41t-23 -51t-26.5 -56t-27 -57l-69 -143h256zM434 740q-18 0 -34.5 7t-31.5 15t-29 15
t-27 7q-15 0 -29 -10.5t-30 -35.5l-45 14q15 45 43.5 73.5t66.5 28.5q18 0 34 -7t31 -15t29 -15t28 -7q29 0 59 46l45 -14q-15 -45 -43.5 -73.5t-66.5 -28.5z" />
    <glyph glyph-name="Adieresis" unicode="&#xc4;" horiz-adv-x="656" 
d="M528 0q-13 0 -16 10l-41 146h-315l-71 -146q-3 -6 -6.5 -8t-11.5 -2h-82l332 663h84q8 0 12 -2t6 -10l191 -651h-82zM450 230l-41 142q-18 63 -31 114.5t-20 91.5q-8 -17 -18.5 -41t-23 -51t-26.5 -56t-27 -57l-69 -143h256zM243 849h80q7 0 12 -2.5t3 -13.5l-9 -82h-97z
M422 849h80q7 0 12 -2.5t3 -13.5l-9 -82h-97z" />
    <glyph glyph-name="Amacron" unicode="&#x100;" horiz-adv-x="656" 
d="M528 0q-13 0 -16 10l-41 146h-315l-71 -146q-3 -6 -6.5 -8t-11.5 -2h-82l332 663h84q8 0 12 -2t6 -10l191 -651h-82zM450 230l-41 142q-18 63 -31 114.5t-20 91.5q-8 -17 -18.5 -41t-23 -51t-26.5 -56t-27 -57l-69 -143h256zM224 760l9 72h289l-9 -72h-289z" />
    <glyph glyph-name="Abreve" unicode="&#x102;" horiz-adv-x="656" 
d="M528 0q-13 0 -16 10l-41 146h-315l-71 -146q-3 -6 -6.5 -8t-11.5 -2h-82l332 663h84q8 0 12 -2t6 -10l191 -651h-82zM450 230l-41 142q-18 63 -31 114.5t-20 91.5q-8 -17 -18.5 -41t-23 -51t-26.5 -56t-27 -57l-69 -143h256zM374 728q-63 0 -99 37.5t-38 99.5l55 9
q8 -36 30 -55.5t57 -19.5q36 0 62 19.5t43 55.5l53 -9q-18 -63 -61 -100t-102 -37z" />
    <glyph glyph-name="Acaron" unicode="&#x1cd;" horiz-adv-x="656" 
d="M528 0q-13 0 -16 10l-41 146h-315l-71 -146q-3 -6 -6.5 -8t-11.5 -2h-82l332 663h84q8 0 12 -2t6 -10l191 -651h-82zM450 230l-41 142q-18 63 -31 114.5t-20 91.5q-8 -17 -18.5 -41t-23 -51t-26.5 -56t-27 -57l-69 -143h256zM225 865l41 36l110 -100h3l134 100l32 -36
l-136 -127q-7 -6 -12 -8.5t-16 -2.5h-23q-11 0 -15.5 1.5t-9.5 8.5z" />
    <glyph glyph-name="Aring" unicode="&#xc5;" horiz-adv-x="656" 
d="M610 0h-82q-13 0 -16 10l-41 146h-315l-71 -146q-3 -6 -6.5 -8t-11.5 -2h-82l329 656q-23 14 -36.5 37.5t-13.5 52.5q0 25 9 47t25 38t38 25t47 9q48 0 77.5 -30t29.5 -74q0 -38 -19.5 -67t-51.5 -43zM432 758q0 20 -13 35.5t-39 15.5q-24 0 -41 -15t-17 -45
q0 -20 13 -35t39 -15q24 0 41 14.5t17 44.5zM450 230l-41 142q-17 61 -31 113t-20 88q-8 -18 -18.5 -41t-23 -49t-26.5 -54t-27 -56l-69 -143h256z" />
    <glyph glyph-name="Aringacute" unicode="&#x1fa;" horiz-adv-x="656" 
d="M305 876l-25 42l195 139q13 10 19 -3l34 -60zM610 0h-82q-13 0 -16 10l-41 146h-315l-71 -146q-3 -6 -6.5 -8t-11.5 -2h-82l329 656q-23 14 -36.5 37.5t-13.5 52.5q0 25 9 47t25 38t38 25t47 9q48 0 77.5 -30t29.5 -74q0 -38 -19.5 -67t-51.5 -43zM432 758q0 20 -13 35.5
t-39 15.5q-24 0 -41 -15t-17 -45q0 -20 13 -35t39 -15q24 0 41 14.5t17 44.5zM450 230l-41 142q-17 61 -31 113t-20 88q-8 -18 -18.5 -41t-23 -49t-26.5 -54t-27 -56l-69 -143h256z" />
    <glyph glyph-name="Aogonek" unicode="&#x104;" horiz-adv-x="656" 
d="M471 156h-315l-71 -146q-3 -6 -6.5 -8t-11.5 -2h-82l332 663h84q8 0 12 -2t6 -10l191 -651h-20q-53 0 -84 -37q-30 -35 -30 -65q0 -38 48 -38q14 0 32 2.5t32 5.5l9 -47q-20 -12 -45 -19t-48 -7q-48 0 -76 26t-28 62q0 21 9 40.5t24 37t34.5 33t41.5 28.5zM450 230
l-41 142q-17 61 -31 113t-20 88q-8 -18 -18.5 -41t-23 -49t-26.5 -54t-27 -56l-69 -143h256z" />
    <glyph glyph-name="AE" unicode="&#xc6;" horiz-adv-x="914" 
d="M908 663l-10 -77h-329l-23 -205h301l-10 -76h-301l-26 -228h340l-9 -77h-432l18 156h-242l-98 -139q-8 -12 -14 -14.5t-18 -2.5h-87l482 663h458zM436 230l41 343q-12 -18 -31.5 -47t-42.5 -62.5t-48 -69.5t-49 -69l-67 -95h197z" />
    <glyph glyph-name="AEacute" unicode="&#x1fc;" horiz-adv-x="914" 
d="M908 663l-10 -77h-329l-23 -205h301l-10 -76h-301l-26 -228h340l-9 -77h-432l18 156h-242l-98 -139q-8 -12 -14 -14.5t-18 -2.5h-87l482 663h458zM436 230l41 343q-12 -18 -31.5 -47t-42.5 -62.5t-48 -69.5t-49 -69l-67 -95h197zM547 722l-25 42l195 139q13 10 19 -3
l34 -60z" />
    <glyph glyph-name="Cacute" unicode="&#x106;" horiz-adv-x="658" 
d="M611 90q-27 -21 -61 -39.5t-70.5 -32t-74 -21t-72.5 -7.5q-63 0 -114 22t-87 62t-55.5 95t-19.5 120q0 78 26 148t72 122.5t107.5 83t132.5 30.5q45 0 83.5 -15t69.5 -40.5t53 -60t35 -72.5l-66 -32l-56 61q-18 19 -33 33t-30.5 22.5t-32 12.5t-36.5 4q-41 0 -82 -18
t-74 -54t-53.5 -90.5t-20.5 -126.5q0 -101 49.5 -160.5t140.5 -59.5q32 0 68 8.5t87 25.5l87 29zM321 722l-25 42l195 139q13 10 19 -3l34 -60z" />
    <glyph glyph-name="Ccedilla" unicode="&#xc7;" horiz-adv-x="658" 
d="M611 90q-26 -20 -56.5 -37t-64.5 -30t-69 -21.5t-68 -10.5q-5 -8 -8.5 -15t-3.5 -15q0 -9 15 -15t33 -14t33 -21t15 -37q0 -27 -17 -46.5t-43 -31.5t-58 -18t-62 -7l-5 50l62 13q44 10 44 28q0 10 -14 16t-31.5 13t-31.5 16.5t-14 26.5q0 14 9 29.5t22 28.5
q-55 6 -99.5 30.5t-76 63.5t-48.5 90.5t-17 112.5q0 78 26 148t72 122.5t107.5 83t132.5 30.5q45 0 83.5 -15t69.5 -40.5t53 -60t35 -72.5l-66 -32l-56 61q-18 19 -33 33t-30.5 22.5t-32 12.5t-36.5 4q-41 0 -82 -18t-74 -54t-53.5 -90.5t-20.5 -126.5q0 -101 49.5 -160.5
t140.5 -59.5q32 0 68 8.5t87 25.5l87 29z" />
    <glyph glyph-name="Ccircumflex" unicode="&#x108;" horiz-adv-x="658" 
d="M611 90q-27 -21 -61 -39.5t-70.5 -32t-74 -21t-72.5 -7.5q-63 0 -114 22t-87 62t-55.5 95t-19.5 120q0 78 26 148t72 122.5t107.5 83t132.5 30.5q45 0 83.5 -15t69.5 -40.5t53 -60t35 -72.5l-66 -32l-56 61q-18 19 -33 33t-30.5 22.5t-32 12.5t-36.5 4q-41 0 -82 -18
t-74 -54t-53.5 -90.5t-20.5 -126.5q0 -101 49.5 -160.5t140.5 -59.5q32 0 68 8.5t87 25.5l87 29zM559 753l-41 -36l-110 100h-3l-134 -100l-32 36l136 127q7 6 12 8.5t16 2.5h23q11 0 15.5 -1.5t9.5 -8.5z" />
    <glyph glyph-name="Ccaron" unicode="&#x10c;" horiz-adv-x="658" 
d="M611 90q-27 -21 -61 -39.5t-70.5 -32t-74 -21t-72.5 -7.5q-63 0 -114 22t-87 62t-55.5 95t-19.5 120q0 78 26 148t72 122.5t107.5 83t132.5 30.5q45 0 83.5 -15t69.5 -40.5t53 -60t35 -72.5l-66 -32l-56 61q-18 19 -33 33t-30.5 22.5t-32 12.5t-36.5 4q-41 0 -82 -18
t-74 -54t-53.5 -90.5t-20.5 -126.5q0 -101 49.5 -160.5t140.5 -59.5q32 0 68 8.5t87 25.5l87 29zM255 865l41 36l110 -100h3l134 100l32 -36l-136 -127q-7 -6 -12 -8.5t-16 -2.5h-23q-11 0 -15.5 1.5t-9.5 8.5z" />
    <glyph glyph-name="Cdotaccent" unicode="&#x10a;" horiz-adv-x="658" 
d="M611 90q-27 -21 -61 -39.5t-70.5 -32t-74 -21t-72.5 -7.5q-63 0 -114 22t-87 62t-55.5 95t-19.5 120q0 78 26 148t72 122.5t107.5 83t132.5 30.5q45 0 83.5 -15t69.5 -40.5t53 -60t35 -72.5l-66 -32l-56 61q-18 19 -33 33t-30.5 22.5t-32 12.5t-36.5 4q-41 0 -82 -18
t-74 -54t-53.5 -90.5t-20.5 -126.5q0 -101 49.5 -160.5t140.5 -59.5q32 0 68 8.5t87 25.5l87 29zM363 836h83q8 0 13 -3t3 -14l-9 -85h-101z" />
    <glyph glyph-name="Dcaron" unicode="&#x10e;" horiz-adv-x="682" 
d="M128 663h209q86 0 147 -20t100 -59q72 -71 72 -198q0 -90 -31.5 -163.5t-86.5 -124.5q-51 -48 -117 -73t-155 -25h-216zM151 78h104q78 0 132 20t92 57q42 41 63 100.5t21 129.5q0 96 -46 144q-29 29 -75 42.5t-110 13.5h-122zM242 865l41 36l110 -100h3l134 100l32 -36
l-136 -127q-7 -6 -12 -8.5t-16 -2.5h-23q-11 0 -15.5 1.5t-9.5 8.5z" />
    <glyph glyph-name="Dcroat" unicode="&#x110;" horiz-adv-x="713" 
d="M117 304h-88l9 71h87l34 288h209q86 0 147 -20.5t100 -59.5q72 -71 72 -197q0 -90 -31.5 -163.5t-86.5 -124.5q-51 -48 -117 -73t-155 -25h-216zM217 375h144l-9 -71h-143l-26 -225h103q78 0 132 20.5t92 57.5q42 41 63 99t21 128q0 95 -46 143q-56 57 -185 57h-122z" />
    <glyph glyph-name="Eth" unicode="&#xd0;" horiz-adv-x="713" 
d="M117 304h-88l9 71h87l34 288h209q86 0 147 -20.5t100 -59.5q72 -71 72 -197q0 -90 -31.5 -163.5t-86.5 -124.5q-51 -48 -117 -73t-155 -25h-216zM217 375h144l-9 -71h-143l-26 -225h103q78 0 132 20.5t92 57.5q42 41 63 99t21 128q0 95 -46 143q-56 57 -185 57h-122z" />
    <glyph glyph-name="Egrave" unicode="&#xc8;" horiz-adv-x="555" 
d="M549 663l-10 -77h-329l-23 -205h301l-10 -76h-301l-26 -228h340l-9 -77h-432l78 663h421zM233 840l46 60q5 6 9 7t11 -4l163 -139l-35 -42z" />
    <glyph glyph-name="Eacute" unicode="&#xc9;" horiz-adv-x="555" 
d="M549 663l-10 -77h-329l-23 -205h301l-10 -76h-301l-26 -228h340l-9 -77h-432l78 663h421zM271 722l-25 42l195 139q13 10 19 -3l34 -60z" />
    <glyph glyph-name="Ecircumflex" unicode="&#xca;" horiz-adv-x="555" 
d="M549 663l-10 -77h-329l-23 -205h301l-10 -76h-301l-26 -228h340l-9 -77h-432l78 663h421zM511 753l-41 -36l-110 100h-3l-134 -100l-32 36l136 127q7 6 12 8.5t16 2.5h23q11 0 15.5 -1.5t9.5 -8.5z" />
    <glyph glyph-name="Ecaron" unicode="&#x11a;" horiz-adv-x="555" 
d="M549 663l-10 -77h-329l-23 -205h301l-10 -76h-301l-26 -228h340l-9 -77h-432l78 663h421zM208 865l41 36l110 -100h3l134 100l32 -36l-136 -127q-7 -6 -12 -8.5t-16 -2.5h-23q-11 0 -15.5 1.5t-9.5 8.5z" />
    <glyph glyph-name="Edieresis" unicode="&#xcb;" horiz-adv-x="555" 
d="M549 663l-10 -77h-329l-23 -205h301l-10 -76h-301l-26 -228h340l-9 -77h-432l78 663h421zM215 849h80q7 0 12 -2.5t3 -13.5l-9 -82h-97zM394 849h80q7 0 12 -2.5t3 -13.5l-9 -82h-97z" />
    <glyph glyph-name="Emacron" unicode="&#x112;" horiz-adv-x="555" 
d="M549 663l-10 -77h-329l-23 -205h301l-10 -76h-301l-26 -228h340l-9 -77h-432l78 663h421zM195 760l9 72h289l-9 -72h-289z" />
    <glyph glyph-name="Ebreve" unicode="&#x114;" horiz-adv-x="555" 
d="M549 663l-10 -77h-329l-23 -205h301l-10 -76h-301l-26 -228h340l-9 -77h-432l78 663h421zM356 728q-63 0 -99 37.5t-38 99.5l55 9q8 -36 30 -55.5t57 -19.5q36 0 62 19.5t43 55.5l53 -9q-18 -63 -61 -100t-102 -37z" />
    <glyph glyph-name="Edotaccent" unicode="&#x116;" horiz-adv-x="555" 
d="M549 663l-10 -77h-329l-23 -205h301l-10 -76h-301l-26 -228h340l-9 -77h-432l78 663h421zM314 836h83q8 0 13 -3t3 -14l-9 -85h-101z" />
    <glyph glyph-name="Eogonek" unicode="&#x118;" horiz-adv-x="555" 
d="M451 0q-53 0 -84 -37q-30 -35 -30 -65q0 -38 48 -38q14 0 32 2.5t32 5.5l9 -47q-20 -12 -45 -19t-48 -7q-48 0 -76 26t-28 62q0 33 20.5 62t54.5 55h-286l78 663h421l-10 -77h-329l-23 -205h301l-10 -76h-301l-26 -228h340l-9 -77h-31z" />
    <glyph glyph-name="Gcircumflex" unicode="&#x11c;" horiz-adv-x="708" 
d="M438 267l9 71h197q16 0 15 -15l-39 -323h-58l-16 58l-58 -28q-34 -17 -74 -28.5t-83 -11.5q-57 0 -106.5 21t-87 60t-59 94.5t-21.5 125.5q0 86 29 156.5t76.5 120.5t108.5 77.5t126 27.5q45 0 85 -13.5t73 -37t58 -56t41 -70.5l-64 -36l-54 55q-37 38 -71 55t-76 17
q-50 0 -93.5 -21t-75.5 -59.5t-50.5 -92t-18.5 -118.5q0 -50 13 -90.5t38.5 -69t62.5 -44.5t85 -16q22 0 46.5 3.5t48 9.5t45 14t39.5 17q11 5 15 10.5t5 13.5l14 123h-125zM563 753l-41 -36l-110 100h-3l-134 -100l-32 36l136 127q7 6 12 8.5t16 2.5h23q11 0 15.5 -1.5
t9.5 -8.5z" />
    <glyph glyph-name="Gbreve" unicode="&#x11e;" horiz-adv-x="708" 
d="M438 267l9 71h197q16 0 15 -15l-39 -323h-58l-16 58l-58 -28q-34 -17 -74 -28.5t-83 -11.5q-57 0 -106.5 21t-87 60t-59 94.5t-21.5 125.5q0 86 29 156.5t76.5 120.5t108.5 77.5t126 27.5q45 0 85 -13.5t73 -37t58 -56t41 -70.5l-64 -36l-54 55q-37 38 -71 55t-76 17
q-50 0 -93.5 -21t-75.5 -59.5t-50.5 -92t-18.5 -118.5q0 -50 13 -90.5t38.5 -69t62.5 -44.5t85 -16q22 0 46.5 3.5t48 9.5t45 14t39.5 17q11 5 15 10.5t5 13.5l14 123h-125zM416 728q-63 0 -99 37.5t-38 99.5l55 9q8 -36 30 -55.5t57 -19.5q36 0 62 19.5t43 55.5l53 -9
q-18 -63 -61 -100t-102 -37z" />
    <glyph glyph-name="Gdotaccent" unicode="&#x120;" horiz-adv-x="708" 
d="M438 267l9 71h197q16 0 15 -15l-39 -323h-58l-16 58l-58 -28q-34 -17 -74 -28.5t-83 -11.5q-57 0 -106.5 21t-87 60t-59 94.5t-21.5 125.5q0 86 29 156.5t76.5 120.5t108.5 77.5t126 27.5q45 0 85 -13.5t73 -37t58 -56t41 -70.5l-64 -36l-54 55q-37 38 -71 55t-76 17
q-50 0 -93.5 -21t-75.5 -59.5t-50.5 -92t-18.5 -118.5q0 -50 13 -90.5t38.5 -69t62.5 -44.5t85 -16q22 0 46.5 3.5t48 9.5t45 14t39.5 17q11 5 15 10.5t5 13.5l14 123h-125zM361 836h83q8 0 13 -3t3 -14l-9 -85h-101z" />
    <glyph glyph-name="Gcommaaccent" unicode="&#x122;" horiz-adv-x="708" 
d="M438 267l9 71h197q16 0 15 -15l-39 -323h-58l-16 58l-58 -28q-34 -17 -74 -28.5t-83 -11.5q-57 0 -106.5 21t-87 60t-59 94.5t-21.5 125.5q0 86 29 156.5t76.5 120.5t108.5 77.5t126 27.5q45 0 85 -13.5t73 -37t58 -56t41 -70.5l-64 -36l-54 55q-37 38 -71 55t-76 17
q-50 0 -93.5 -21t-75.5 -59.5t-50.5 -92t-18.5 -118.5q0 -50 13 -90.5t38.5 -69t62.5 -44.5t85 -16q22 0 46.5 3.5t48 9.5t45 14t39.5 17q11 5 15 10.5t5 13.5l14 123h-125zM245 -261l49 203h58q12 0 17 -5t5 -20q0 -17 -5.5 -35t-18.5 -41l-63 -111z" />
    <glyph glyph-name="Hcircumflex" unicode="&#x124;" horiz-adv-x="686" 
d="M528 305h-350l-36 -305h-92l78 663h92l-33 -279h350l33 279h92l-78 -663h-92zM562 753l-41 -36l-110 100h-3l-134 -100l-32 36l136 127q7 6 12 8.5t16 2.5h23q11 0 15.5 -1.5t9.5 -8.5z" />
    <glyph glyph-name="Hbar" unicode="&#x126;" horiz-adv-x="691" 
d="M531 305h-350l-36 -305h-92l58 493h-73l9 68h72l12 102h92l-12 -102h350l12 102h92l-12 -102h73l-8 -68h-73l-58 -493h-92zM540 384l13 109h-350l-13 -109h350z" />
    <glyph glyph-name="Igrave" unicode="&#xcc;" horiz-adv-x="248" 
d="M144 0h-92l78 663h92zM61 840l46 60q5 6 9 7t11 -4l163 -139l-35 -42z" />
    <glyph glyph-name="Iacute" unicode="&#xcd;" horiz-adv-x="248" 
d="M144 0h-92l78 663h92zM110 722l-25 42l195 139q13 10 19 -3l34 -60z" />
    <glyph glyph-name="Icircumflex" unicode="&#xce;" horiz-adv-x="248" 
d="M144 0h-92l78 663h92zM344 753l-41 -36l-110 100h-3l-134 -100l-32 36l136 127q7 6 12 8.5t16 2.5h23q11 0 15.5 -1.5t9.5 -8.5z" />
    <glyph glyph-name="Itilde" unicode="&#x128;" horiz-adv-x="248" 
d="M144 0h-92l78 663h92zM248 740q-18 0 -34.5 7t-31.5 15t-29 15t-27 7q-15 0 -29 -10.5t-30 -35.5l-45 14q15 45 43.5 73.5t66.5 28.5q18 0 34 -7t31 -15t29 -15t28 -7q29 0 59 46l45 -14q-15 -45 -43.5 -73.5t-66.5 -28.5z" />
    <glyph glyph-name="Idieresis" unicode="&#xcf;" horiz-adv-x="248" 
d="M144 0h-92l78 663h92zM63 849h80q7 0 12 -2.5t3 -13.5l-9 -82h-97zM242 849h80q7 0 12 -2.5t3 -13.5l-9 -82h-97z" />
    <glyph glyph-name="Imacron" unicode="&#x12a;" horiz-adv-x="248" 
d="M144 0h-92l78 663h92zM45 760l9 72h289l-9 -72h-289z" />
    <glyph glyph-name="Ibreve" unicode="&#x12c;" horiz-adv-x="248" 
d="M144 0h-92l78 663h92zM187 728q-63 0 -99 37.5t-38 99.5l55 9q8 -36 30 -55.5t57 -19.5q36 0 62 19.5t43 55.5l53 -9q-18 -63 -61 -100t-102 -37z" />
    <glyph glyph-name="Idotaccent" unicode="&#x130;" horiz-adv-x="248" 
d="M144 0h-92l78 663h92zM146 836h83q8 0 13 -3t3 -14l-9 -85h-101z" />
    <glyph glyph-name="Iogonek" unicode="&#x12e;" horiz-adv-x="248" 
d="M144 0h-10q-13 0 -22.5 -5.5t-23.5 -20.5q-36 -39 -36 -76q0 -38 48 -38q14 0 32 2.5t32 5.5l9 -47q-20 -12 -45 -19t-48 -7q-48 0 -76 26t-28 62q0 33 20.5 62t55.5 55l78 663h92z" />
    <glyph glyph-name="IJ" unicode="&#x132;" horiz-adv-x="718" 
d="M144 0h-92l78 663h92zM268 94l49 -9q73 -14 113 -14q60 0 90 32q15 16 24.5 43.5t13.5 62.5l53 454h92l-55 -464q-7 -56 -22 -92.5t-41 -62.5t-62.5 -40t-85.5 -14q-48 0 -97.5 13.5t-91.5 36.5z" />
    <glyph glyph-name="Jcircumflex" unicode="&#x134;" horiz-adv-x="466" 
d="M21 94l49 -9q73 -14 113 -14q60 0 90 32q15 16 24.5 43.5t13.5 62.5l53 454h92l-55 -464q-7 -56 -22 -92.5t-41 -62.5t-62.5 -40t-85.5 -14q-48 0 -97.5 13.5t-91.5 36.5zM578 753l-41 -36l-110 100h-3l-134 -100l-32 36l136 127q7 6 12 8.5t16 2.5h23q11 0 15.5 -1.5
t9.5 -8.5z" />
    <glyph glyph-name="Kcommaaccent" unicode="&#x136;" horiz-adv-x="619" 
d="M358 387l224 -387h-90q-9 0 -13 1.5t-8 8.5l-182 322q-12 -10 -27.5 -21t-31.5 -21.5t-31.5 -20t-26.5 -15.5l-30 -254h-92l78 663h92l-38 -322l401 328l48 -58zM203 -261l49 203h58q12 0 17 -5t5 -20q0 -17 -5.5 -35t-18.5 -41l-63 -111z" />
    <glyph glyph-name="Lacute" unicode="&#x139;" horiz-adv-x="516" 
d="M130 663h92l-69 -586h318l-9 -77h-410zM144 722l-25 42l195 139q13 10 19 -3l34 -60z" />
    <glyph glyph-name="Lcaron" unicode="&#x13d;" horiz-adv-x="516" 
d="M130 663h92l-69 -586h318l-9 -77h-410zM297 460l49 203h58q12 0 17 -5t5 -20q0 -17 -5.5 -35t-18.5 -41l-63 -111z" />
    <glyph glyph-name="Lcommaaccent" unicode="&#x13b;" horiz-adv-x="516" 
d="M130 663h92l-69 -586h318l-9 -77h-410zM170 -261l49 203h58q12 0 17 -5t5 -20q0 -17 -5.5 -35t-18.5 -41l-63 -111z" />
    <glyph glyph-name="Lslash" unicode="&#x141;" horiz-adv-x="559" 
d="M136 351l37 312h92l-30 -254l162 102l41 -63l-214 -135l-28 -236h318l-9 -77h-410l30 256l-79 -50l-42 63z" />
    <glyph glyph-name="Ldot" unicode="&#x13f;" horiz-adv-x="516" 
d="M130 663h92l-69 -586h318l-9 -77h-410zM350 400h83q8 0 13 -3t3 -14l-9 -85h-101z" />
    <glyph glyph-name="Nacute" unicode="&#x143;" horiz-adv-x="706" 
d="M287 375q-23 35 -47 73t-43 69l-61 -517h-86l78 663h56q8 0 12 -2t9 -9l238 -364q26 -39 49.5 -76t42.5 -68l61 519h86l-78 -663h-57q-8 0 -12.5 2t-9.5 9zM350 722l-25 42l195 139q13 10 19 -3l34 -60z" />
    <glyph glyph-name="Ncaron" unicode="&#x147;" horiz-adv-x="706" 
d="M287 375q-23 35 -47 73t-43 69l-61 -517h-86l78 663h56q8 0 12 -2t9 -9l238 -364q26 -39 49.5 -76t42.5 -68l61 519h86l-78 -663h-57q-8 0 -12.5 2t-9.5 9zM268 865l41 36l110 -100h3l134 100l32 -36l-136 -127q-7 -6 -12 -8.5t-16 -2.5h-23q-11 0 -15.5 1.5t-9.5 8.5z
" />
    <glyph glyph-name="Ntilde" unicode="&#xd1;" horiz-adv-x="706" 
d="M287 375q-23 35 -47 73t-43 69l-61 -517h-86l78 663h56q8 0 12 -2t9 -9l238 -364q26 -39 49.5 -76t42.5 -68l61 519h86l-78 -663h-57q-8 0 -12.5 2t-9.5 9zM483 740q-18 0 -34.5 7t-31.5 15t-29 15t-27 7q-15 0 -29 -10.5t-30 -35.5l-45 14q15 45 43.5 73.5t66.5 28.5
q18 0 34 -7t31 -15t29 -15t28 -7q29 0 59 46l45 -14q-15 -45 -43.5 -73.5t-66.5 -28.5z" />
    <glyph glyph-name="Ncommaaccent" unicode="&#x145;" horiz-adv-x="706" 
d="M287 375q-23 35 -47 73t-43 69l-61 -517h-86l78 663h56q8 0 12 -2t9 -9l238 -364q26 -39 49.5 -76t42.5 -68l61 519h86l-78 -663h-57q-8 0 -12.5 2t-9.5 9zM244 -261l49 203h58q12 0 17 -5t5 -20q0 -17 -5.5 -35t-18.5 -41l-63 -111z" />
    <glyph glyph-name="Eng" unicode="&#x14a;" horiz-adv-x="706" 
d="M287 374q-23 35 -47 73.5t-43 69.5l-61 -517h-86l78 663h57q8 0 12 -2t9 -9l237 -363q26 -39 49.5 -76.5t42.5 -68.5l61 519h86l-77 -658q-6 -53 -19 -94.5t-35 -70.5t-55 -44t-79 -15q-13 0 -29 2t-32 6t-31 9t-26 11l16 60q7 -1 20 -2t26.5 -2t26 -2t20.5 -1
q51 0 74 28.5t31 83.5l6 45z" />
    <glyph glyph-name="Ograve" unicode="&#xd2;" horiz-adv-x="714" 
d="M688 366q0 -80 -27.5 -148.5t-74 -119t-108 -79.5t-130.5 -29q-62 0 -115.5 23.5t-92.5 64.5t-61 97t-22 122q0 80 27 148.5t73.5 119t108.5 79.5t131 29q62 0 115.5 -23.5t92.5 -64.5t61 -97t22 -122zM594 359q0 48 -13.5 89t-39 71t-63 47.5t-85.5 17.5q-54 0 -99 -22
t-76.5 -60t-49 -89t-17.5 -109q0 -48 13.5 -89t39 -71.5t63 -47.5t85.5 -17q54 0 99 22t76.5 60t49 89t17.5 109zM303 840l46 60q5 6 9 7t11 -4l163 -139l-35 -42z" />
    <glyph glyph-name="Oacute" unicode="&#xd3;" horiz-adv-x="714" 
d="M688 366q0 -80 -27.5 -148.5t-74 -119t-108 -79.5t-130.5 -29q-62 0 -115.5 23.5t-92.5 64.5t-61 97t-22 122q0 80 27 148.5t73.5 119t108.5 79.5t131 29q62 0 115.5 -23.5t92.5 -64.5t61 -97t22 -122zM594 359q0 48 -13.5 89t-39 71t-63 47.5t-85.5 17.5q-54 0 -99 -22
t-76.5 -60t-49 -89t-17.5 -109q0 -48 13.5 -89t39 -71.5t63 -47.5t85.5 -17q54 0 99 22t76.5 60t49 89t17.5 109zM327 722l-25 42l195 139q13 10 19 -3l34 -60z" />
    <glyph glyph-name="Ocircumflex" unicode="&#xd4;" horiz-adv-x="714" 
d="M688 366q0 -80 -27.5 -148.5t-74 -119t-108 -79.5t-130.5 -29q-62 0 -115.5 23.5t-92.5 64.5t-61 97t-22 122q0 80 27 148.5t73.5 119t108.5 79.5t131 29q62 0 115.5 -23.5t92.5 -64.5t61 -97t22 -122zM594 359q0 48 -13.5 89t-39 71t-63 47.5t-85.5 17.5q-54 0 -99 -22
t-76.5 -60t-49 -89t-17.5 -109q0 -48 13.5 -89t39 -71.5t63 -47.5t85.5 -17q54 0 99 22t76.5 60t49 89t17.5 109zM571 753l-41 -36l-110 100h-3l-134 -100l-32 36l136 127q7 6 12 8.5t16 2.5h23q11 0 15.5 -1.5t9.5 -8.5z" />
    <glyph glyph-name="Otilde" unicode="&#xd5;" horiz-adv-x="714" 
d="M688 366q0 -80 -27.5 -148.5t-74 -119t-108 -79.5t-130.5 -29q-62 0 -115.5 23.5t-92.5 64.5t-61 97t-22 122q0 80 27 148.5t73.5 119t108.5 79.5t131 29q62 0 115.5 -23.5t92.5 -64.5t61 -97t22 -122zM594 359q0 48 -13.5 89t-39 71t-63 47.5t-85.5 17.5q-54 0 -99 -22
t-76.5 -60t-49 -89t-17.5 -109q0 -48 13.5 -89t39 -71.5t63 -47.5t85.5 -17q54 0 99 22t76.5 60t49 89t17.5 109zM477 740q-18 0 -34.5 7t-31.5 15t-29 15t-27 7q-15 0 -29 -10.5t-30 -35.5l-45 14q15 45 43.5 73.5t66.5 28.5q18 0 34 -7t31 -15t29 -15t28 -7q29 0 59 46
l45 -14q-15 -45 -43.5 -73.5t-66.5 -28.5z" />
    <glyph glyph-name="Odieresis" unicode="&#xd6;" horiz-adv-x="714" 
d="M688 366q0 -80 -27.5 -148.5t-74 -119t-108 -79.5t-130.5 -29q-62 0 -115.5 23.5t-92.5 64.5t-61 97t-22 122q0 80 27 148.5t73.5 119t108.5 79.5t131 29q62 0 115.5 -23.5t92.5 -64.5t61 -97t22 -122zM594 359q0 48 -13.5 89t-39 71t-63 47.5t-85.5 17.5q-54 0 -99 -22
t-76.5 -60t-49 -89t-17.5 -109q0 -48 13.5 -89t39 -71.5t63 -47.5t85.5 -17q54 0 99 22t76.5 60t49 89t17.5 109zM280 849h80q7 0 12 -2.5t3 -13.5l-9 -82h-97zM459 849h80q7 0 12 -2.5t3 -13.5l-9 -82h-97z" />
    <glyph glyph-name="Omacron" unicode="&#x14c;" horiz-adv-x="714" 
d="M688 366q0 -80 -27.5 -148.5t-74 -119t-108 -79.5t-130.5 -29q-62 0 -115.5 23.5t-92.5 64.5t-61 97t-22 122q0 80 27 148.5t73.5 119t108.5 79.5t131 29q62 0 115.5 -23.5t92.5 -64.5t61 -97t22 -122zM594 359q0 48 -13.5 89t-39 71t-63 47.5t-85.5 17.5q-54 0 -99 -22
t-76.5 -60t-49 -89t-17.5 -109q0 -48 13.5 -89t39 -71.5t63 -47.5t85.5 -17q54 0 99 22t76.5 60t49 89t17.5 109zM266 760l9 72h289l-9 -72h-289z" />
    <glyph glyph-name="Obreve" unicode="&#x14e;" horiz-adv-x="714" 
d="M688 366q0 -80 -27.5 -148.5t-74 -119t-108 -79.5t-130.5 -29q-62 0 -115.5 23.5t-92.5 64.5t-61 97t-22 122q0 80 27 148.5t73.5 119t108.5 79.5t131 29q62 0 115.5 -23.5t92.5 -64.5t61 -97t22 -122zM594 359q0 48 -13.5 89t-39 71t-63 47.5t-85.5 17.5q-54 0 -99 -22
t-76.5 -60t-49 -89t-17.5 -109q0 -48 13.5 -89t39 -71.5t63 -47.5t85.5 -17q54 0 99 22t76.5 60t49 89t17.5 109zM410 728q-63 0 -99 37.5t-38 99.5l55 9q8 -36 30 -55.5t57 -19.5q36 0 62 19.5t43 55.5l53 -9q-18 -63 -61 -100t-102 -37z" />
    <glyph glyph-name="Ohungarumlaut" unicode="&#x150;" horiz-adv-x="714" 
d="M688 366q0 -80 -27.5 -148.5t-74 -119t-108 -79.5t-130.5 -29q-62 0 -115.5 23.5t-92.5 64.5t-61 97t-22 122q0 80 27 148.5t73.5 119t108.5 79.5t131 29q62 0 115.5 -23.5t92.5 -64.5t61 -97t22 -122zM594 359q0 48 -13.5 89t-39 71t-63 47.5t-85.5 17.5q-54 0 -99 -22
t-76.5 -60t-49 -89t-17.5 -109q0 -48 13.5 -89t39 -71.5t63 -47.5t85.5 -17q54 0 99 22t76.5 60t49 89t17.5 109zM284 738l-32 35l151 158q11 11 19 2l41 -51zM456 738l-32 35l151 158q11 11 19 2l41 -51z" />
    <glyph glyph-name="Oslash" unicode="&#xd8;" horiz-adv-x="714" 
d="M688 366q0 -80 -27.5 -148.5t-74 -119t-108 -79.5t-130.5 -29q-50 0 -93.5 15t-79.5 42l-81 -94l-56 47l85 98q-32 40 -49 90.5t-17 108.5q0 80 27 148.5t73.5 119t108.5 79.5t131 29q49 0 92.5 -15t79.5 -41l82 95l56 -47l-86 -100q32 -40 49.5 -90.5t17.5 -108.5z
M594 359q0 38 -8.5 73t-25.5 63l-327 -380q23 -17 53.5 -26.5t65.5 -9.5q54 0 99 22t76.5 60t49 89t17.5 109zM151 304q0 -38 8.5 -72t24.5 -62l326 378q-47 36 -117 36q-54 0 -99 -22t-76.5 -60t-49 -89t-17.5 -109z" />
    <glyph glyph-name="Oslashacute" unicode="&#x1fe;" horiz-adv-x="714" 
d="M688 366q0 -80 -27.5 -148.5t-74 -119t-108 -79.5t-130.5 -29q-50 0 -93.5 15t-79.5 42l-81 -94l-56 47l85 98q-32 40 -49 90.5t-17 108.5q0 80 27 148.5t73.5 119t108.5 79.5t131 29q49 0 92.5 -15t79.5 -41l82 95l56 -47l-86 -100q32 -40 49.5 -90.5t17.5 -108.5z
M594 359q0 38 -8.5 73t-25.5 63l-327 -380q23 -17 53.5 -26.5t65.5 -9.5q54 0 99 22t76.5 60t49 89t17.5 109zM151 304q0 -38 8.5 -72t24.5 -62l326 378q-47 36 -117 36q-54 0 -99 -22t-76.5 -60t-49 -89t-17.5 -109zM333 722l-25 42l195 139q13 10 19 -3l34 -60z" />
    <glyph glyph-name="OE" unicode="&#x152;" horiz-adv-x="1055" 
d="M1049 663l-10 -78h-329l-23 -204h301l-10 -76h-301l-26 -228h340l-9 -77h-432l11 91q-38 -46 -94 -73.5t-119 -27.5q-62 0 -115.5 23.5t-92.5 64.5t-61 97t-22 122q0 80 27 148.5t73.5 119t108.5 79.5t131 29q71 0 127.5 -34.5t89.5 -88.5l14 113h421zM594 359
q0 48 -13.5 89t-39 71t-63 47.5t-85.5 17.5q-54 0 -99 -22t-76.5 -60t-49 -89t-17.5 -109q0 -48 13.5 -89t39 -71.5t63 -47.5t85.5 -17q54 0 99 22t76.5 60t49 89t17.5 109z" />
    <glyph glyph-name="Thorn" unicode="&#xde;" horiz-adv-x="584" 
d="M207 552h126q64 0 111 -13.5t77 -42.5q47 -47 47 -130q0 -54 -21.5 -108t-63.5 -94q-15 -15 -30.5 -24t-35 -14t-44 -7t-57.5 -2h-160l-14 -117h-92l78 663h92zM165 195h202q26 0 40 8t28 28q18 26 29.5 60t11.5 69q0 53 -26 81q-17 17 -44.5 25t-70.5 8h-137z" />
    <glyph glyph-name="Racute" unicode="&#x154;" horiz-adv-x="624" 
d="M479 0q-14 0 -19 11l-94 220q-4 8 -8 10t-13 2h-175l-28 -243h-92l78 663h228q60 0 105.5 -13t74.5 -41q49 -46 49 -129q0 -67 -35 -126.5t-98 -97.5l115 -256h-88zM382 319q27 0 41.5 8t28.5 28q18 25 29 58t11 65q0 51 -23 75q-16 17 -43.5 25t-70.5 8h-144l-31 -267
h202zM305 722l-25 42l195 139q13 10 19 -3l34 -60z" />
    <glyph glyph-name="Rcaron" unicode="&#x158;" horiz-adv-x="624" 
d="M479 0q-14 0 -19 11l-94 220q-4 8 -8 10t-13 2h-175l-28 -243h-92l78 663h228q60 0 105.5 -13t74.5 -41q49 -46 49 -129q0 -67 -35 -126.5t-98 -97.5l115 -256h-88zM382 319q27 0 41.5 8t28.5 28q18 25 29 58t11 65q0 51 -23 75q-16 17 -43.5 25t-70.5 8h-144l-31 -267
h202zM223 865l41 36l110 -100h3l134 100l32 -36l-136 -127q-7 -6 -12 -8.5t-16 -2.5h-23q-11 0 -15.5 1.5t-9.5 8.5z" />
    <glyph glyph-name="Rcommaaccent" unicode="&#x156;" horiz-adv-x="624" 
d="M479 0q-14 0 -19 11l-94 220q-4 8 -8 10t-13 2h-175l-28 -243h-92l78 663h228q60 0 105.5 -13t74.5 -41q49 -46 49 -129q0 -67 -35 -126.5t-98 -97.5l115 -256h-88zM382 319q27 0 41.5 8t28.5 28q18 25 29 58t11 65q0 51 -23 75q-16 17 -43.5 25t-70.5 8h-144l-31 -267
h202zM205 -261l49 203h58q12 0 17 -5t5 -20q0 -17 -5.5 -35t-18.5 -41l-63 -111z" />
    <glyph glyph-name="Sacute" unicode="&#x15a;" horiz-adv-x="549" 
d="M53 102l56 -11q49 -10 84.5 -15t69.5 -5q73 0 111 34t38 87q0 21 -6 37t-19.5 29t-35 25.5t-52.5 26.5l-50 23q-79 36 -120 75.5t-41 101.5q0 36 16 66t46 51.5t72 33.5t95 12q50 0 101.5 -9t94.5 -24l-13 -57l-55 4q-74 6 -124 6q-75 0 -111 -20.5t-36 -62.5
q0 -34 29 -55.5t83 -46.5l50 -23q39 -18 69.5 -36t51.5 -40t32 -48.5t11 -60.5q0 -46 -16.5 -84.5t-47 -66.5t-72.5 -43.5t-93 -15.5q-30 0 -62 4t-63.5 11.5t-61 18t-53.5 22.5zM251 722l-25 42l195 139q13 10 19 -3l34 -60z" />
    <glyph glyph-name="Scircumflex" unicode="&#x15c;" horiz-adv-x="549" 
d="M53 102l56 -11q49 -10 84.5 -15t69.5 -5q73 0 111 34t38 87q0 21 -6 37t-19.5 29t-35 25.5t-52.5 26.5l-50 23q-79 36 -120 75.5t-41 101.5q0 36 16 66t46 51.5t72 33.5t95 12q50 0 101.5 -9t94.5 -24l-13 -57l-55 4q-74 6 -124 6q-75 0 -111 -20.5t-36 -62.5
q0 -34 29 -55.5t83 -46.5l50 -23q39 -18 69.5 -36t51.5 -40t32 -48.5t11 -60.5q0 -46 -16.5 -84.5t-47 -66.5t-72.5 -43.5t-93 -15.5q-30 0 -62 4t-63.5 11.5t-61 18t-53.5 22.5zM492 753l-41 -36l-110 100h-3l-134 -100l-32 36l136 127q7 6 12 8.5t16 2.5h23
q11 0 15.5 -1.5t9.5 -8.5z" />
    <glyph glyph-name="Scaron" unicode="&#x160;" horiz-adv-x="549" 
d="M53 102l56 -11q49 -10 84.5 -15t69.5 -5q73 0 111 34t38 87q0 21 -6 37t-19.5 29t-35 25.5t-52.5 26.5l-50 23q-79 36 -120 75.5t-41 101.5q0 36 16 66t46 51.5t72 33.5t95 12q50 0 101.5 -9t94.5 -24l-13 -57l-55 4q-74 6 -124 6q-75 0 -111 -20.5t-36 -62.5
q0 -34 29 -55.5t83 -46.5l50 -23q39 -18 69.5 -36t51.5 -40t32 -48.5t11 -60.5q0 -46 -16.5 -84.5t-47 -66.5t-72.5 -43.5t-93 -15.5q-30 0 -62 4t-63.5 11.5t-61 18t-53.5 22.5zM185 865l41 36l110 -100h3l134 100l32 -36l-136 -127q-7 -6 -12 -8.5t-16 -2.5h-23
q-11 0 -15.5 1.5t-9.5 8.5z" />
    <glyph glyph-name="Scedilla" unicode="&#x15e;" horiz-adv-x="549" 
d="M53 102l56 -11q49 -10 84.5 -15t69.5 -5q73 0 111 34t38 87q0 21 -6 37t-19.5 29t-35 25.5t-52.5 26.5l-50 23q-79 36 -120 75.5t-41 101.5q0 36 16 66t46 51.5t72 33.5t95 12q50 0 101.5 -9t94.5 -24l-13 -57l-55 4q-74 6 -124 6q-75 0 -111 -20.5t-36 -62.5
q0 -34 29 -55.5t83 -46.5l50 -23q39 -18 69.5 -36t51.5 -40t32 -48.5t11 -60.5q0 -45 -16 -83t-45.5 -65.5t-70 -44t-89.5 -17.5q-11 -16 -11 -29q0 -9 15 -15t33 -14t33 -21t15 -37q0 -27 -17 -46.5t-43 -31.5t-58 -18t-62 -7l-5 50l62 13q44 10 44 28q0 10 -14 16
t-31.5 13t-31.5 16.5t-14 26.5q0 14 9 29.5t22 29.5q-52 5 -103 19t-91 34z" />
    <glyph glyph-name="Scommaaccent" unicode="&#x218;" horiz-adv-x="549" 
d="M53 102l56 -11q49 -10 84.5 -15t69.5 -5q73 0 111 34t38 87q0 21 -6 37t-19.5 29t-35 25.5t-52.5 26.5l-50 23q-79 36 -120 75.5t-41 101.5q0 36 16 66t46 51.5t72 33.5t95 12q50 0 101.5 -9t94.5 -24l-13 -57l-55 4q-74 6 -124 6q-75 0 -111 -20.5t-36 -62.5
q0 -34 29 -55.5t83 -46.5l50 -23q39 -18 69.5 -36t51.5 -40t32 -48.5t11 -60.5q0 -46 -16.5 -84.5t-47 -66.5t-72.5 -43.5t-93 -15.5q-30 0 -62 4t-63.5 11.5t-61 18t-53.5 22.5zM166 -261l49 203h58q12 0 17 -5t5 -20q0 -17 -5.5 -35t-18.5 -41l-63 -111z" />
    <glyph glyph-name="Tcaron" unicode="&#x164;" horiz-adv-x="569" 
d="M282 586h-215l10 77h521l-10 -77h-214l-69 -586h-92zM195 865l41 36l110 -100h3l134 100l32 -36l-136 -127q-7 -6 -12 -8.5t-16 -2.5h-23q-11 0 -15.5 1.5t-9.5 8.5z" />
    <glyph glyph-name="Tcommaaccent" unicode="&#x162;" horiz-adv-x="569" 
d="M282 586h-215l10 77h521l-10 -77h-214l-69 -586h-92zM163 -261l49 203h58q12 0 17 -5t5 -20q0 -17 -5.5 -35t-18.5 -41l-63 -111z" />
    <glyph glyph-name="uni021A" unicode="&#x21a;" horiz-adv-x="569" 
d="M282 586h-215l10 77h521l-10 -77h-214l-69 -586h-92zM163 -261l49 203h58q12 0 17 -5t5 -20q0 -17 -5.5 -35t-18.5 -41l-63 -111z" />
    <glyph glyph-name="Tbar" unicode="&#x166;" horiz-adv-x="569" 
d="M248 297h-139l8 71h139l26 218h-215l10 77h521l-10 -77h-214l-26 -218h140l-8 -71h-140l-35 -297h-92z" />
    <glyph glyph-name="Ugrave" unicode="&#xd9;" horiz-adv-x="664" 
d="M605 283q-8 -62 -27.5 -115.5t-54.5 -93t-86.5 -62t-122.5 -22.5q-60 0 -105 17.5t-76 48.5t-46.5 73t-15.5 92q0 18 2 42.5t6 60.5l40 339h92l-41 -343q-4 -35 -5.5 -56t-1.5 -36q0 -75 41.5 -112.5t116.5 -37.5q49 0 83.5 15t57.5 43.5t36.5 69.5t19.5 92l44 365h89z
M263 840l46 60q5 6 9 7t11 -4l163 -139l-35 -42z" />
    <glyph glyph-name="Uacute" unicode="&#xda;" horiz-adv-x="664" 
d="M605 283q-8 -62 -27.5 -115.5t-54.5 -93t-86.5 -62t-122.5 -22.5q-60 0 -105 17.5t-76 48.5t-46.5 73t-15.5 92q0 18 2 42.5t6 60.5l40 339h92l-41 -343q-4 -35 -5.5 -56t-1.5 -36q0 -75 41.5 -112.5t116.5 -37.5q49 0 83.5 15t57.5 43.5t36.5 69.5t19.5 92l44 365h89z
M332 722l-25 42l195 139q13 10 19 -3l34 -60z" />
    <glyph glyph-name="Ucircumflex" unicode="&#xdb;" horiz-adv-x="664" 
d="M605 283q-8 -62 -27.5 -115.5t-54.5 -93t-86.5 -62t-122.5 -22.5q-60 0 -105 17.5t-76 48.5t-46.5 73t-15.5 92q0 18 2 42.5t6 60.5l40 339h92l-41 -343q-4 -35 -5.5 -56t-1.5 -36q0 -75 41.5 -112.5t116.5 -37.5q49 0 83.5 15t57.5 43.5t36.5 69.5t19.5 92l44 365h89z
M554 753l-41 -36l-110 100h-3l-134 -100l-32 36l136 127q7 6 12 8.5t16 2.5h23q11 0 15.5 -1.5t9.5 -8.5z" />
    <glyph glyph-name="Utilde" unicode="&#x168;" horiz-adv-x="664" 
d="M605 283q-8 -62 -27.5 -115.5t-54.5 -93t-86.5 -62t-122.5 -22.5q-60 0 -105 17.5t-76 48.5t-46.5 73t-15.5 92q0 18 2 42.5t6 60.5l40 339h92l-41 -343q-4 -35 -5.5 -56t-1.5 -36q0 -75 41.5 -112.5t116.5 -37.5q49 0 83.5 15t57.5 43.5t36.5 69.5t19.5 92l44 365h89z
M464 740q-18 0 -34.5 7t-31.5 15t-29 15t-27 7q-15 0 -29 -10.5t-30 -35.5l-45 14q15 45 43.5 73.5t66.5 28.5q18 0 34 -7t31 -15t29 -15t28 -7q29 0 59 46l45 -14q-15 -45 -43.5 -73.5t-66.5 -28.5z" />
    <glyph glyph-name="Udieresis" unicode="&#xdc;" horiz-adv-x="664" 
d="M605 283q-8 -62 -27.5 -115.5t-54.5 -93t-86.5 -62t-122.5 -22.5q-60 0 -105 17.5t-76 48.5t-46.5 73t-15.5 92q0 18 2 42.5t6 60.5l40 339h92l-41 -343q-4 -35 -5.5 -56t-1.5 -36q0 -75 41.5 -112.5t116.5 -37.5q49 0 83.5 15t57.5 43.5t36.5 69.5t19.5 92l44 365h89z
M265 849h80q7 0 12 -2.5t3 -13.5l-9 -82h-97zM444 849h80q7 0 12 -2.5t3 -13.5l-9 -82h-97z" />
    <glyph glyph-name="Umacron" unicode="&#x16a;" horiz-adv-x="664" 
d="M605 283q-8 -62 -27.5 -115.5t-54.5 -93t-86.5 -62t-122.5 -22.5q-60 0 -105 17.5t-76 48.5t-46.5 73t-15.5 92q0 18 2 42.5t6 60.5l40 339h92l-41 -343q-4 -35 -5.5 -56t-1.5 -36q0 -75 41.5 -112.5t116.5 -37.5q49 0 83.5 15t57.5 43.5t36.5 69.5t19.5 92l44 365h89z
M248 760l9 72h289l-9 -72h-289z" />
    <glyph glyph-name="Ubreve" unicode="&#x16c;" horiz-adv-x="664" 
d="M605 283q-8 -62 -27.5 -115.5t-54.5 -93t-86.5 -62t-122.5 -22.5q-60 0 -105 17.5t-76 48.5t-46.5 73t-15.5 92q0 18 2 42.5t6 60.5l40 339h92l-41 -343q-4 -35 -5.5 -56t-1.5 -36q0 -75 41.5 -112.5t116.5 -37.5q49 0 83.5 15t57.5 43.5t36.5 69.5t19.5 92l44 365h89z
M394 728q-63 0 -99 37.5t-38 99.5l55 9q8 -36 30 -55.5t57 -19.5q36 0 62 19.5t43 55.5l53 -9q-18 -63 -61 -100t-102 -37z" />
    <glyph glyph-name="Uring" unicode="&#x16e;" horiz-adv-x="664" 
d="M605 283q-8 -62 -27.5 -115.5t-54.5 -93t-86.5 -62t-122.5 -22.5q-60 0 -105 17.5t-76 48.5t-46.5 73t-15.5 92q0 18 2 42.5t6 60.5l40 339h92l-41 -343q-4 -35 -5.5 -56t-1.5 -36q0 -75 41.5 -112.5t116.5 -37.5q49 0 83.5 15t57.5 43.5t36.5 69.5t19.5 92l44 365h89z
M517 844q0 -25 -9 -47t-25 -38t-38 -25t-47 -9q-48 0 -77.5 30t-29.5 74q0 25 9 47t25 38t38 25t47 9q48 0 77.5 -30t29.5 -74zM459 841q0 20 -13 35.5t-39 15.5q-24 0 -41 -15t-17 -45q0 -20 13 -35t39 -15q24 0 41 14.5t17 44.5z" />
    <glyph glyph-name="Uhungarumlaut" unicode="&#x170;" horiz-adv-x="664" 
d="M605 283q-8 -62 -27.5 -115.5t-54.5 -93t-86.5 -62t-122.5 -22.5q-60 0 -105 17.5t-76 48.5t-46.5 73t-15.5 92q0 18 2 42.5t6 60.5l40 339h92l-41 -343q-4 -35 -5.5 -56t-1.5 -36q0 -75 41.5 -112.5t116.5 -37.5q49 0 83.5 15t57.5 43.5t36.5 69.5t19.5 92l44 365h89z
M288 738l-32 35l151 158q11 11 19 2l41 -51zM460 738l-32 35l151 158q11 11 19 2l41 -51z" />
    <glyph glyph-name="Uogonek" unicode="&#x172;" horiz-adv-x="664" 
d="M651 663l-46 -380q-4 -35 -12 -68.5t-21.5 -65t-34.5 -58.5t-51 -48q-19 -14 -38.5 -24t-38.5 -20t-36.5 -20.5t-32.5 -23.5q-14 -13 -22.5 -26.5t-8.5 -30.5q0 -38 48 -38q14 0 32 2.5t32 5.5l9 -47q-20 -12 -45 -19t-48 -7q-48 0 -76 26t-28 62q0 31 20.5 58t55.5 49
q-59 1 -103.5 18.5t-74.5 48.5t-45 73t-15 91q0 18 2 42.5t6 60.5l40 339h92l-41 -343q-4 -35 -5.5 -56t-1.5 -36q0 -75 41.5 -112.5t116.5 -37.5q49 0 83.5 15t57.5 43.5t36.5 69.5t19.5 92l44 365h89z" />
    <glyph glyph-name="Wgrave" unicode="&#x1e80;" horiz-adv-x="964" 
d="M561 663q8 0 10.5 -2t4.5 -10l63 -351q11 -58 20 -115t13 -100q7 22 19 55.5t27 72t31 79.5t32 79l116 281q3 8 6 9.5t10 1.5h82q-18 -42 -39 -92.5t-44 -104.5t-46 -109.5t-45 -107.5q-51 -121 -104 -249h-97q-8 0 -10.5 2t-4.5 9l-55 291q-14 73 -23 135.5t-13 108.5
q-5 -17 -15 -46.5t-22.5 -63.5t-25.5 -68.5t-23 -61.5l-120 -306h-94q-8 0 -11 1.5t-5 9.5l-125 652h81q8 0 10 -1t4 -9l66 -362q11 -62 20 -115t13 -89q6 21 15.5 52.5t22.5 69.5t29 80t33 85l116 289h78zM418 840l46 60q5 6 9 7t11 -4l163 -139l-35 -42z" />
    <glyph glyph-name="Wacute" unicode="&#x1e82;" horiz-adv-x="964" 
d="M561 663q8 0 10.5 -2t4.5 -10l63 -351q11 -58 20 -115t13 -100q7 22 19 55.5t27 72t31 79.5t32 79l116 281q3 8 6 9.5t10 1.5h82q-18 -42 -39 -92.5t-44 -104.5t-46 -109.5t-45 -107.5q-51 -121 -104 -249h-97q-8 0 -10.5 2t-4.5 9l-55 291q-14 73 -23 135.5t-13 108.5
q-5 -17 -15 -46.5t-22.5 -63.5t-25.5 -68.5t-23 -61.5l-120 -306h-94q-8 0 -11 1.5t-5 9.5l-125 652h81q8 0 10 -1t4 -9l66 -362q11 -62 20 -115t13 -89q6 21 15.5 52.5t22.5 69.5t29 80t33 85l116 289h78zM450 722l-25 42l195 139q13 10 19 -3l34 -60z" />
    <glyph glyph-name="Wcircumflex" unicode="&#x174;" horiz-adv-x="964" 
d="M561 663q8 0 10.5 -2t4.5 -10l63 -351q11 -58 20 -115t13 -100q7 22 19 55.5t27 72t31 79.5t32 79l116 281q3 8 6 9.5t10 1.5h82q-18 -42 -39 -92.5t-44 -104.5t-46 -109.5t-45 -107.5q-51 -121 -104 -249h-97q-8 0 -10.5 2t-4.5 9l-55 291q-14 73 -23 135.5t-13 108.5
q-5 -17 -15 -46.5t-22.5 -63.5t-25.5 -68.5t-23 -61.5l-120 -306h-94q-8 0 -11 1.5t-5 9.5l-125 652h81q8 0 10 -1t4 -9l66 -362q11 -62 20 -115t13 -89q6 21 15.5 52.5t22.5 69.5t29 80t33 85l116 289h78zM702 753l-41 -36l-110 100h-3l-134 -100l-32 36l136 127
q7 6 12 8.5t16 2.5h23q11 0 15.5 -1.5t9.5 -8.5z" />
    <glyph glyph-name="Wdieresis" unicode="&#x1e84;" horiz-adv-x="964" 
d="M561 663q8 0 10.5 -2t4.5 -10l63 -351q11 -58 20 -115t13 -100q7 22 19 55.5t27 72t31 79.5t32 79l116 281q3 8 6 9.5t10 1.5h82q-18 -42 -39 -92.5t-44 -104.5t-46 -109.5t-45 -107.5q-51 -121 -104 -249h-97q-8 0 -10.5 2t-4.5 9l-55 291q-14 73 -23 135.5t-13 108.5
q-5 -17 -15 -46.5t-22.5 -63.5t-25.5 -68.5t-23 -61.5l-120 -306h-94q-8 0 -11 1.5t-5 9.5l-125 652h81q8 0 10 -1t4 -9l66 -362q11 -62 20 -115t13 -89q6 21 15.5 52.5t22.5 69.5t29 80t33 85l116 289h78zM408 849h80q7 0 12 -2.5t3 -13.5l-9 -82h-97zM587 849h80
q7 0 12 -2.5t3 -13.5l-9 -82h-97z" />
    <glyph glyph-name="Ygrave" unicode="&#x1ef2;" horiz-adv-x="584" 
d="M652 663l-304 -447l-25 -216h-92l26 216l-201 447h86q8 0 11 -2t6 -9l77 -177q23 -54 43 -102.5t31 -80.5h2q9 15 22 37t28.5 46.5t33 51t34.5 52.5l117 174q5 6 9 8t12 2h84zM194 840l46 60q5 6 9 7t11 -4l163 -139l-35 -42z" />
    <glyph glyph-name="Yacute" unicode="&#xdd;" horiz-adv-x="584" 
d="M652 663l-304 -447l-25 -216h-92l26 216l-201 447h86q8 0 11 -2t6 -9l77 -177q23 -54 43 -102.5t31 -80.5h2q9 15 22 37t28.5 46.5t33 51t34.5 52.5l117 174q5 6 9 8t12 2h84zM290 722l-25 42l195 139q13 10 19 -3l34 -60z" />
    <glyph glyph-name="Ycircumflex" unicode="&#x176;" horiz-adv-x="584" 
d="M652 663l-304 -447l-25 -216h-92l26 216l-201 447h86q8 0 11 -2t6 -9l77 -177q23 -54 43 -102.5t31 -80.5h2q9 15 22 37t28.5 46.5t33 51t34.5 52.5l117 174q5 6 9 8t12 2h84zM522 753l-41 -36l-110 100h-3l-134 -100l-32 36l136 127q7 6 12 8.5t16 2.5h23
q11 0 15.5 -1.5t9.5 -8.5z" />
    <glyph glyph-name="Ydieresis" unicode="&#x178;" horiz-adv-x="584" 
d="M652 663l-304 -447l-25 -216h-92l26 216l-201 447h86q8 0 11 -2t6 -9l77 -177q23 -54 43 -102.5t31 -80.5h2q9 15 22 37t28.5 46.5t33 51t34.5 52.5l117 174q5 6 9 8t12 2h84zM235 849h80q7 0 12 -2.5t3 -13.5l-9 -82h-97zM414 849h80q7 0 12 -2.5t3 -13.5l-9 -82h-97z
" />
    <glyph glyph-name="Zacute" unicode="&#x179;" horiz-adv-x="537" 
d="M488 77l-9 -77h-469l6 48q2 11 4.5 16t10.5 16l261 333q51 66 85.5 107.5t56.5 65.5h-361l10 77h468l-6 -49q-2 -11 -4 -15.5t-9 -13.5l-263 -335q-51 -66 -85.5 -107.5t-56.5 -65.5h361zM246 722l-25 42l195 139q13 10 19 -3l34 -60z" />
    <glyph glyph-name="Zcaron" unicode="&#x17d;" horiz-adv-x="537" 
d="M488 77l-9 -77h-469l6 48q2 11 4.5 16t10.5 16l261 333q51 66 85.5 107.5t56.5 65.5h-361l10 77h468l-6 -49q-2 -11 -4 -15.5t-9 -13.5l-263 -335q-51 -66 -85.5 -107.5t-56.5 -65.5h361zM180 865l41 36l110 -100h3l134 100l32 -36l-136 -127q-7 -6 -12 -8.5t-16 -2.5
h-23q-11 0 -15.5 1.5t-9.5 8.5z" />
    <glyph glyph-name="Zdotaccent" unicode="&#x17b;" horiz-adv-x="537" 
d="M488 77l-9 -77h-469l6 48q2 11 4.5 16t10.5 16l261 333q51 66 85.5 107.5t56.5 65.5h-361l10 77h468l-6 -49q-2 -11 -4 -15.5t-9 -13.5l-263 -335q-51 -66 -85.5 -107.5t-56.5 -65.5h361zM288 836h83q8 0 13 -3t3 -14l-9 -85h-101z" />
    <glyph glyph-name="agrave" unicode="&#xe0;" horiz-adv-x="549" 
d="M490 483l-48 -408l71 -17l-5 -42q-17 -8 -38 -13t-40 -5q-24 0 -44.5 14t-27.5 35l-20 -12q-32 -19 -64.5 -31t-64.5 -12q-38 0 -70.5 16t-56 45t-36.5 68.5t-13 86.5q0 63 20.5 115.5t54.5 91t76.5 60t87.5 21.5q29 0 56 -10t56 -28l24 -15l21 46zM343 106q9 6 11.5 10
t4.5 14l29 235q1 11 -9 19q-17 13 -44.5 22t-56.5 9q-33 0 -61.5 -14t-49.5 -41t-33 -65t-12 -86q0 -64 27.5 -101t79.5 -37q29 0 60 10.5t54 24.5zM170 657l46 60q5 6 9 7t11 -4l163 -139l-35 -42z" />
    <glyph glyph-name="aacute" unicode="&#xe1;" horiz-adv-x="549" 
d="M490 483l-48 -408l71 -17l-5 -42q-17 -8 -38 -13t-40 -5q-24 0 -44.5 14t-27.5 35l-20 -12q-32 -19 -64.5 -31t-64.5 -12q-38 0 -70.5 16t-56 45t-36.5 68.5t-13 86.5q0 63 20.5 115.5t54.5 91t76.5 60t87.5 21.5q29 0 56 -10t56 -28l24 -15l21 46zM343 106q9 6 11.5 10
t4.5 14l29 235q1 11 -9 19q-17 13 -44.5 22t-56.5 9q-33 0 -61.5 -14t-49.5 -41t-33 -65t-12 -86q0 -64 27.5 -101t79.5 -37q29 0 60 10.5t54 24.5zM216 539l-25 42l195 139q13 10 19 -3l34 -60z" />
    <glyph glyph-name="acircumflex" unicode="&#xe2;" horiz-adv-x="549" 
d="M490 483l-48 -408l71 -17l-5 -42q-17 -8 -38 -13t-40 -5q-24 0 -44.5 14t-27.5 35l-20 -12q-32 -19 -64.5 -31t-64.5 -12q-38 0 -70.5 16t-56 45t-36.5 68.5t-13 86.5q0 63 20.5 115.5t54.5 91t76.5 60t87.5 21.5q29 0 56 -10t56 -28l24 -15l21 46zM343 106q9 6 11.5 10
t4.5 14l29 235q1 11 -9 19q-17 13 -44.5 22t-56.5 9q-33 0 -61.5 -14t-49.5 -41t-33 -65t-12 -86q0 -64 27.5 -101t79.5 -37q29 0 60 10.5t54 24.5zM457 577l-41 -36l-110 100h-3l-134 -100l-32 36l136 127q7 6 12 8.5t16 2.5h23q11 0 15.5 -1.5t9.5 -8.5z" />
    <glyph glyph-name="atilde" unicode="&#xe3;" horiz-adv-x="549" 
d="M490 483l-48 -408l71 -17l-5 -42q-17 -8 -38 -13t-40 -5q-24 0 -44.5 14t-27.5 35l-20 -12q-32 -19 -64.5 -31t-64.5 -12q-38 0 -70.5 16t-56 45t-36.5 68.5t-13 86.5q0 63 20.5 115.5t54.5 91t76.5 60t87.5 21.5q29 0 56 -10t56 -28l24 -15l21 46zM343 106q9 6 11.5 10
t4.5 14l29 235q1 11 -9 19q-17 13 -44.5 22t-56.5 9q-33 0 -61.5 -14t-49.5 -41t-33 -65t-12 -86q0 -64 27.5 -101t79.5 -37q29 0 60 10.5t54 24.5zM359 564q-18 0 -34.5 7t-31.5 15t-29 15t-27 7q-15 0 -29 -10.5t-30 -35.5l-45 14q15 45 43.5 73.5t66.5 28.5q18 0 34 -7
t31 -15t29 -15t28 -7q29 0 59 46l45 -14q-15 -45 -43.5 -73.5t-66.5 -28.5z" />
    <glyph glyph-name="adieresis" unicode="&#xe4;" horiz-adv-x="549" 
d="M490 483l-48 -408l71 -17l-5 -42q-17 -8 -38 -13t-40 -5q-24 0 -44.5 14t-27.5 35l-20 -12q-32 -19 -64.5 -31t-64.5 -12q-38 0 -70.5 16t-56 45t-36.5 68.5t-13 86.5q0 63 20.5 115.5t54.5 91t76.5 60t87.5 21.5q29 0 56 -10t56 -28l24 -15l21 46zM343 106q9 6 11.5 10
t4.5 14l29 235q1 11 -9 19q-17 13 -44.5 22t-56.5 9q-33 0 -61.5 -14t-49.5 -41t-33 -65t-12 -86q0 -64 27.5 -101t79.5 -37q29 0 60 10.5t54 24.5zM167 669h80q7 0 12 -2.5t3 -13.5l-9 -82h-97zM346 669h80q7 0 12 -2.5t3 -13.5l-9 -82h-97z" />
    <glyph glyph-name="amacron" unicode="&#x101;" horiz-adv-x="549" 
d="M490 483l-48 -408l71 -17l-5 -42q-17 -8 -38 -13t-40 -5q-24 0 -44.5 14t-27.5 35l-20 -12q-32 -19 -64.5 -31t-64.5 -12q-38 0 -70.5 16t-56 45t-36.5 68.5t-13 86.5q0 63 20.5 115.5t54.5 91t76.5 60t87.5 21.5q29 0 56 -10t56 -28l24 -15l21 46zM343 106q9 6 11.5 10
t4.5 14l29 235q1 11 -9 19q-17 13 -44.5 22t-56.5 9q-33 0 -61.5 -14t-49.5 -41t-33 -65t-12 -86q0 -64 27.5 -101t79.5 -37q29 0 60 10.5t54 24.5zM143 583l9 72h289l-9 -72h-289z" />
    <glyph glyph-name="abreve" unicode="&#x103;" horiz-adv-x="549" 
d="M490 483l-48 -408l71 -17l-5 -42q-17 -8 -38 -13t-40 -5q-24 0 -44.5 14t-27.5 35l-20 -12q-32 -19 -64.5 -31t-64.5 -12q-38 0 -70.5 16t-56 45t-36.5 68.5t-13 86.5q0 63 20.5 115.5t54.5 91t76.5 60t87.5 21.5q29 0 56 -10t56 -28l24 -15l21 46zM343 106q9 6 11.5 10
t4.5 14l29 235q1 11 -9 19q-17 13 -44.5 22t-56.5 9q-33 0 -61.5 -14t-49.5 -41t-33 -65t-12 -86q0 -64 27.5 -101t79.5 -37q29 0 60 10.5t54 24.5zM298 553q-63 0 -99 37.5t-38 99.5l55 9q8 -36 30 -55.5t57 -19.5q36 0 62 19.5t43 55.5l53 -9q-18 -63 -61 -100t-102 -37z
" />
    <glyph glyph-name="acaron" unicode="&#x1ce;" horiz-adv-x="549" 
d="M490 483l-48 -408l71 -17l-5 -42q-17 -8 -38 -13t-40 -5q-24 0 -44.5 14t-27.5 35l-20 -12q-32 -19 -64.5 -31t-64.5 -12q-38 0 -70.5 16t-56 45t-36.5 68.5t-13 86.5q0 63 20.5 115.5t54.5 91t76.5 60t87.5 21.5q29 0 56 -10t56 -28l24 -15l21 46zM343 106q9 6 11.5 10
t4.5 14l29 235q1 11 -9 19q-17 13 -44.5 22t-56.5 9q-33 0 -61.5 -14t-49.5 -41t-33 -65t-12 -86q0 -64 27.5 -101t79.5 -37q29 0 60 10.5t54 24.5zM145 685l41 36l110 -100h3l134 100l32 -36l-136 -127q-7 -6 -12 -8.5t-16 -2.5h-23q-11 0 -15.5 1.5t-9.5 8.5z" />
    <glyph glyph-name="aring" unicode="&#xe5;" horiz-adv-x="549" 
d="M490 483l-48 -408l71 -17l-5 -42q-17 -8 -38 -13t-40 -5q-24 0 -44.5 14t-27.5 35l-20 -12q-32 -19 -64.5 -31t-64.5 -12q-38 0 -70.5 16t-56 45t-36.5 68.5t-13 86.5q0 63 20.5 115.5t54.5 91t76.5 60t87.5 21.5q29 0 56 -10t56 -28l24 -15l21 46zM343 106q9 6 11.5 10
t4.5 14l29 235q1 11 -9 19q-17 13 -44.5 22t-56.5 9q-33 0 -61.5 -14t-49.5 -41t-33 -65t-12 -86q0 -64 27.5 -101t79.5 -37q29 0 60 10.5t54 24.5zM414 664q0 -25 -9 -47t-25 -38t-38 -25t-47 -9q-48 0 -77.5 30t-29.5 74q0 25 9 47t25 38t38 25t47 9q48 0 77.5 -30
t29.5 -74zM356 661q0 20 -13 35.5t-39 15.5q-24 0 -41 -15t-17 -45q0 -20 13 -35t39 -15q24 0 41 14.5t17 44.5z" />
    <glyph glyph-name="aringacute" unicode="&#x1fb;" horiz-adv-x="549" 
d="M490 483l-48 -408l71 -17l-5 -42q-17 -8 -38 -13t-40 -5q-24 0 -44.5 14t-27.5 35l-20 -12q-32 -19 -64.5 -31t-64.5 -12q-38 0 -70.5 16t-56 45t-36.5 68.5t-13 86.5q0 63 20.5 115.5t54.5 91t76.5 60t87.5 21.5q29 0 56 -10t56 -28l24 -15l21 46zM343 106q9 6 11.5 10
t4.5 14l29 235q1 11 -9 19q-17 13 -44.5 22t-56.5 9q-33 0 -61.5 -14t-49.5 -41t-33 -65t-12 -86q0 -64 27.5 -101t79.5 -37q29 0 60 10.5t54 24.5zM413 648q0 -25 -9 -47t-25 -38t-38 -25t-47 -9q-48 0 -77.5 30t-29.5 74q0 25 9 47t25 38t38 25t47 9q48 0 77.5 -30
t29.5 -74zM355 645q0 20 -13 35.5t-39 15.5q-24 0 -41 -15t-17 -45q0 -20 13 -35t39 -15q24 0 41 14.5t17 44.5zM237 760l-25 42l195 139q13 10 19 -3l34 -60z" />
    <glyph glyph-name="aogonek" unicode="&#x105;" horiz-adv-x="549" 
d="M290 -117q0 39 27.5 70t75.5 54q-13 7 -22 17t-13 23l-20 -12q-32 -19 -64.5 -31t-64.5 -12q-38 0 -70.5 16t-56 45t-36.5 68.5t-13 86.5q0 63 20.5 115.5t54.5 91t76.5 60t87.5 21.5q29 0 56 -10t56 -28l24 -15l21 46l61 -6l-48 -408l71 -17l-5 -42q-66 -25 -104 -54
t-38 -64q0 -38 48 -38q14 0 32 2.5t32 5.5l9 -47q-20 -12 -45 -19t-48 -7q-48 0 -76 26t-28 62zM343 106q9 6 11.5 10t4.5 14l29 235q1 11 -9 19q-17 13 -44.5 22t-56.5 9q-33 0 -61.5 -14t-49.5 -41t-33 -65t-12 -86q0 -64 27.5 -101t79.5 -37q29 0 60 10.5t54 24.5z" />
    <glyph glyph-name="ae" unicode="&#xe6;" horiz-adv-x="844" 
d="M803 284q0 -38 -9 -50.5t-25 -12.5h-326q0 -32 8.5 -59t25.5 -47t43 -31.5t61 -11.5q41 0 103 17l69 19l22 -47q-20 -15 -44.5 -27.5t-51.5 -22t-55 -14.5t-53 -5q-51 0 -95 19t-74 56q-49 -31 -99 -53t-105 -22q-38 0 -69.5 11.5t-54 32t-35 48.5t-12.5 61q0 70 53 108
t144 38q27 0 64 -2.5t72 -7.5q4 15 7 30t3 25q0 42 -26.5 60.5t-73.5 18.5q-29 0 -55 -5t-59 -14l-54 -15l-20 49q55 33 104.5 49.5t97.5 16.5t90 -19.5t59 -56.5q35 35 79 55.5t93 20.5q44 0 80.5 -16t62.5 -44.5t40.5 -67t14.5 -84.5zM373 117q-9 22 -14 47.5t-5 55.5
h-123q-32 0 -56.5 -4t-39.5 -15q-22 -17 -22 -52q0 -36 26.5 -57.5t71.5 -21.5q29 0 61 9t67 24zM718 288q-1 57 -31 92.5t-88 35.5q-57 0 -95.5 -35.5t-51.5 -92.5h266z" />
    <glyph glyph-name="aeacute" unicode="&#x1fd;" horiz-adv-x="844" 
d="M803 284q0 -38 -9 -50.5t-25 -12.5h-326q0 -32 8.5 -59t25.5 -47t43 -31.5t61 -11.5q41 0 103 17l69 19l22 -47q-20 -15 -44.5 -27.5t-51.5 -22t-55 -14.5t-53 -5q-51 0 -95 19t-74 56q-49 -31 -99 -53t-105 -22q-38 0 -69.5 11.5t-54 32t-35 48.5t-12.5 61q0 70 53 108
t144 38q27 0 64 -2.5t72 -7.5q4 15 7 30t3 25q0 42 -26.5 60.5t-73.5 18.5q-29 0 -55 -5t-59 -14l-54 -15l-20 49q55 33 104.5 49.5t97.5 16.5t90 -19.5t59 -56.5q35 35 79 55.5t93 20.5q44 0 80.5 -16t62.5 -44.5t40.5 -67t14.5 -84.5zM373 117q-9 22 -14 47.5t-5 55.5
h-123q-32 0 -56.5 -4t-39.5 -15q-22 -17 -22 -52q0 -36 26.5 -57.5t71.5 -21.5q29 0 61 9t67 24zM718 288q-1 57 -31 92.5t-88 35.5q-57 0 -95.5 -35.5t-51.5 -92.5h266zM395 539l-25 42l195 139q13 10 19 -3l34 -60z" />
    <glyph glyph-name="cacute" unicode="&#x107;" horiz-adv-x="493" 
d="M452 69q-20 -16 -45 -30t-52.5 -24.5t-56.5 -16.5t-56 -6q-51 0 -90 17.5t-65.5 47.5t-40 70t-13.5 86q0 56 18.5 107t51.5 90t78.5 62.5t100.5 23.5q34 0 63.5 -11.5t53.5 -31t41 -46t26 -57.5l-62 -30l-31 33q-29 31 -51 47.5t-53 16.5q-32 0 -58.5 -15.5t-46.5 -42.5
t-31 -63.5t-11 -77.5q0 -69 33 -107.5t99 -38.5q23 0 51 6.5t60 17.5l63 21zM204 539l-25 42l195 139q13 10 19 -3l34 -60z" />
    <glyph glyph-name="ccedilla" unicode="&#xe7;" horiz-adv-x="493" 
d="M452 69q-36 -29 -87.5 -50t-102.5 -26q-13 -18 -13 -32q0 -9 15 -15t33 -14t33 -21t15 -37q0 -27 -17 -46.5t-43 -31.5t-58 -18t-62 -7l-5 50l62 13q44 10 44 28q0 10 -14 16t-31.5 13t-31.5 16.5t-14 26.5q0 14 9 30.5t23 30.5q-42 6 -74.5 25t-54.5 48t-33.5 66
t-11.5 79q0 56 18.5 107t51.5 90t78.5 62.5t100.5 23.5q34 0 63.5 -11.5t53.5 -31t41 -46t26 -57.5l-62 -30l-31 33q-29 31 -51 47.5t-53 16.5q-32 0 -58.5 -15.5t-46.5 -42.5t-31 -63.5t-11 -77.5q0 -69 33 -107.5t99 -38.5q23 0 51 6.5t60 17.5l63 21z" />
    <glyph glyph-name="ccircumflex" unicode="&#x109;" horiz-adv-x="493" 
d="M452 69q-20 -16 -45 -30t-52.5 -24.5t-56.5 -16.5t-56 -6q-51 0 -90 17.5t-65.5 47.5t-40 70t-13.5 86q0 56 18.5 107t51.5 90t78.5 62.5t100.5 23.5q34 0 63.5 -11.5t53.5 -31t41 -46t26 -57.5l-62 -30l-31 33q-29 31 -51 47.5t-53 16.5q-32 0 -58.5 -15.5t-46.5 -42.5
t-31 -63.5t-11 -77.5q0 -69 33 -107.5t99 -38.5q23 0 51 6.5t60 17.5l63 21zM452 577l-41 -36l-110 100h-3l-134 -100l-32 36l136 127q7 6 12 8.5t16 2.5h23q11 0 15.5 -1.5t9.5 -8.5z" />
    <glyph glyph-name="ccaron" unicode="&#x10d;" horiz-adv-x="493" 
d="M452 69q-20 -16 -45 -30t-52.5 -24.5t-56.5 -16.5t-56 -6q-51 0 -90 17.5t-65.5 47.5t-40 70t-13.5 86q0 56 18.5 107t51.5 90t78.5 62.5t100.5 23.5q34 0 63.5 -11.5t53.5 -31t41 -46t26 -57.5l-62 -30l-31 33q-29 31 -51 47.5t-53 16.5q-32 0 -58.5 -15.5t-46.5 -42.5
t-31 -63.5t-11 -77.5q0 -69 33 -107.5t99 -38.5q23 0 51 6.5t60 17.5l63 21zM142 685l41 36l110 -100h3l134 100l32 -36l-136 -127q-7 -6 -12 -8.5t-16 -2.5h-23q-11 0 -15.5 1.5t-9.5 8.5z" />
    <glyph glyph-name="cdotaccent" unicode="&#x10b;" horiz-adv-x="493" 
d="M452 69q-20 -16 -45 -30t-52.5 -24.5t-56.5 -16.5t-56 -6q-51 0 -90 17.5t-65.5 47.5t-40 70t-13.5 86q0 56 18.5 107t51.5 90t78.5 62.5t100.5 23.5q34 0 63.5 -11.5t53.5 -31t41 -46t26 -57.5l-62 -30l-31 33q-29 31 -51 47.5t-53 16.5q-32 0 -58.5 -15.5t-46.5 -42.5
t-31 -63.5t-11 -77.5q0 -69 33 -107.5t99 -38.5q23 0 51 6.5t60 17.5l63 21zM251 660h83q8 0 13 -3t3 -14l-9 -85h-101z" />
    <glyph glyph-name="dcaron" unicode="&#x10f;" horiz-adv-x="626" 
d="M272 496q29 0 58 -10t58 -28l13 -9l31 260h89l-75 -634l71 -17l-5 -42q-17 -8 -38 -13t-40 -5q-24 0 -44.5 14t-27.5 35l-20 -12q-32 -19 -66 -31t-66 -12q-38 0 -70.5 16t-56 45t-37 68.5t-13.5 86.5q0 63 20.5 115.5t54.5 91t76.5 60t87.5 21.5zM347 106q9 5 11.5 9.5
t4.5 14.5l29 235q1 11 -9 19q-17 13 -46.5 22t-58.5 9q-33 0 -61.5 -14t-49.5 -41t-33 -65t-12 -86q0 -64 28 -101t80 -37q29 0 61.5 10.5t55.5 24.5zM549 506l49 203h58q12 0 17 -5t5 -20q0 -17 -5.5 -35t-18.5 -41l-63 -111z" />
    <glyph glyph-name="dcroat" unicode="&#x111;" horiz-adv-x="552" 
d="M272 496q29 0 58 -10t58 -28l13 -9l14 123h-175l8 60h174l10 77h89l-9 -79l75 -13l-6 -45h-76l-59 -497l71 -17l-5 -42q-17 -8 -38 -13t-40 -5q-24 0 -44.5 14t-27.5 35l-20 -12q-32 -19 -66 -31t-66 -12q-38 0 -70.5 16t-56 45t-37 68.5t-13.5 86.5q0 63 20.5 115.5
t54.5 91t76.5 60t87.5 21.5zM347 106q9 6 11.5 10t4.5 14l29 235q1 11 -9 19q-17 13 -46.5 22t-58.5 9q-33 0 -61.5 -14t-49.5 -41t-33 -65t-12 -86q0 -64 28 -101t80 -37q29 0 61.5 10.5t55.5 24.5z" />
    <glyph glyph-name="eth" unicode="&#xf0;" horiz-adv-x="540" 
d="M274 620q-20 15 -43 30.5t-47 29.5l31 47q35 -14 68 -32t63 -41l121 56l30 -55q-19 -9 -37 -17q-16 -8 -33 -15.5t-29 -13.5q103 -112 103 -273q0 -76 -19.5 -139.5t-54 -109t-81.5 -71t-103 -25.5q-48 0 -87 17.5t-66 48.5t-42 71.5t-15 87.5q0 54 19.5 100t52.5 79.5
t76.5 52t91.5 18.5q32 0 63 -10t68 -31q-3 19 -10 39.5t-17 40.5t-23 38.5t-28 32.5l-131 -61l-30 55zM284 391q-42 0 -72.5 -13t-51 -36t-30 -54t-9.5 -68q0 -31 7.5 -58.5t23 -48t39 -32.5t55.5 -12q34 0 64.5 16t54 48t37 81t13.5 115q0 11 -3 17.5t-12 13.5
q-17 13 -49 22t-67 9z" />
    <glyph glyph-name="egrave" unicode="&#xe8;" horiz-adv-x="523" 
d="M482 284q0 -38 -9 -50.5t-25 -12.5h-326q0 -32 8.5 -59t25.5 -47t43 -31.5t61 -11.5q22 0 49 4.5t62 15.5l61 18l22 -47q-19 -15 -44 -28t-52 -22.5t-55 -15t-53 -5.5q-44 0 -83.5 15t-69 43.5t-47 70t-17.5 95.5q0 60 20.5 111.5t55 89t80 58.5t95.5 21q44 0 80.5 -16
t62.5 -44.5t40.5 -67t14.5 -84.5zM397 288q-1 57 -31 92.5t-88 35.5q-57 0 -95.5 -35.5t-51.5 -92.5h266zM170 657l46 60q5 6 9 7t11 -4l163 -139l-35 -42z" />
    <glyph glyph-name="eacute" unicode="&#xe9;" horiz-adv-x="523" 
d="M482 284q0 -38 -9 -50.5t-25 -12.5h-326q0 -32 8.5 -59t25.5 -47t43 -31.5t61 -11.5q22 0 49 4.5t62 15.5l61 18l22 -47q-19 -15 -44 -28t-52 -22.5t-55 -15t-53 -5.5q-44 0 -83.5 15t-69 43.5t-47 70t-17.5 95.5q0 60 20.5 111.5t55 89t80 58.5t95.5 21q44 0 80.5 -16
t62.5 -44.5t40.5 -67t14.5 -84.5zM397 288q-1 57 -31 92.5t-88 35.5q-57 0 -95.5 -35.5t-51.5 -92.5h266zM204 539l-25 42l195 139q13 10 19 -3l34 -60z" />
    <glyph glyph-name="ecircumflex" unicode="&#xea;" horiz-adv-x="523" 
d="M482 284q0 -38 -9 -50.5t-25 -12.5h-326q0 -32 8.5 -59t25.5 -47t43 -31.5t61 -11.5q22 0 49 4.5t62 15.5l61 18l22 -47q-19 -15 -44 -28t-52 -22.5t-55 -15t-53 -5.5q-44 0 -83.5 15t-69 43.5t-47 70t-17.5 95.5q0 60 20.5 111.5t55 89t80 58.5t95.5 21q44 0 80.5 -16
t62.5 -44.5t40.5 -67t14.5 -84.5zM397 288q-1 57 -31 92.5t-88 35.5q-57 0 -95.5 -35.5t-51.5 -92.5h266zM445 577l-41 -36l-110 100h-3l-134 -100l-32 36l136 127q7 6 12 8.5t16 2.5h23q11 0 15.5 -1.5t9.5 -8.5z" />
    <glyph glyph-name="ecaron" unicode="&#x11b;" horiz-adv-x="523" 
d="M482 284q0 -38 -9 -50.5t-25 -12.5h-326q0 -32 8.5 -59t25.5 -47t43 -31.5t61 -11.5q22 0 49 4.5t62 15.5l61 18l22 -47q-19 -15 -44 -28t-52 -22.5t-55 -15t-53 -5.5q-44 0 -83.5 15t-69 43.5t-47 70t-17.5 95.5q0 60 20.5 111.5t55 89t80 58.5t95.5 21q44 0 80.5 -16
t62.5 -44.5t40.5 -67t14.5 -84.5zM397 288q-1 57 -31 92.5t-88 35.5q-57 0 -95.5 -35.5t-51.5 -92.5h266zM146 685l41 36l110 -100h3l134 100l32 -36l-136 -127q-7 -6 -12 -8.5t-16 -2.5h-23q-11 0 -15.5 1.5t-9.5 8.5z" />
    <glyph glyph-name="edieresis" unicode="&#xeb;" horiz-adv-x="523" 
d="M482 284q0 -38 -9 -50.5t-25 -12.5h-326q0 -32 8.5 -59t25.5 -47t43 -31.5t61 -11.5q22 0 49 4.5t62 15.5l61 18l22 -47q-19 -15 -44 -28t-52 -22.5t-55 -15t-53 -5.5q-44 0 -83.5 15t-69 43.5t-47 70t-17.5 95.5q0 60 20.5 111.5t55 89t80 58.5t95.5 21q44 0 80.5 -16
t62.5 -44.5t40.5 -67t14.5 -84.5zM397 288q-1 57 -31 92.5t-88 35.5q-57 0 -95.5 -35.5t-51.5 -92.5h266zM164 669h80q7 0 12 -2.5t3 -13.5l-9 -82h-97zM343 669h80q7 0 12 -2.5t3 -13.5l-9 -82h-97z" />
    <glyph glyph-name="emacron" unicode="&#x113;" horiz-adv-x="523" 
d="M482 284q0 -38 -9 -50.5t-25 -12.5h-326q0 -32 8.5 -59t25.5 -47t43 -31.5t61 -11.5q22 0 49 4.5t62 15.5l61 18l22 -47q-19 -15 -44 -28t-52 -22.5t-55 -15t-53 -5.5q-44 0 -83.5 15t-69 43.5t-47 70t-17.5 95.5q0 60 20.5 111.5t55 89t80 58.5t95.5 21q44 0 80.5 -16
t62.5 -44.5t40.5 -67t14.5 -84.5zM397 288q-1 57 -31 92.5t-88 35.5q-57 0 -95.5 -35.5t-51.5 -92.5h266zM150 583l9 72h289l-9 -72h-289z" />
    <glyph glyph-name="ebreve" unicode="&#x115;" horiz-adv-x="523" 
d="M482 284q0 -38 -9 -50.5t-25 -12.5h-326q0 -32 8.5 -59t25.5 -47t43 -31.5t61 -11.5q22 0 49 4.5t62 15.5l61 18l22 -47q-19 -15 -44 -28t-52 -22.5t-55 -15t-53 -5.5q-44 0 -83.5 15t-69 43.5t-47 70t-17.5 95.5q0 60 20.5 111.5t55 89t80 58.5t95.5 21q44 0 80.5 -16
t62.5 -44.5t40.5 -67t14.5 -84.5zM397 288q-1 57 -31 92.5t-88 35.5q-57 0 -95.5 -35.5t-51.5 -92.5h266zM295 553q-63 0 -99 37.5t-38 99.5l55 9q8 -36 30 -55.5t57 -19.5q36 0 62 19.5t43 55.5l53 -9q-18 -63 -61 -100t-102 -37z" />
    <glyph glyph-name="edotaccent" unicode="&#x117;" horiz-adv-x="523" 
d="M482 284q0 -38 -9 -50.5t-25 -12.5h-326q0 -32 8.5 -59t25.5 -47t43 -31.5t61 -11.5q22 0 49 4.5t62 15.5l61 18l22 -47q-19 -15 -44 -28t-52 -22.5t-55 -15t-53 -5.5q-44 0 -83.5 15t-69 43.5t-47 70t-17.5 95.5q0 60 20.5 111.5t55 89t80 58.5t95.5 21q44 0 80.5 -16
t62.5 -44.5t40.5 -67t14.5 -84.5zM397 288q-1 57 -31 92.5t-88 35.5q-57 0 -95.5 -35.5t-51.5 -92.5h266zM254 660h83q8 0 13 -3t3 -14l-9 -85h-101z" />
    <glyph glyph-name="eogonek" unicode="&#x119;" horiz-adv-x="523" 
d="M397 288q-1 57 -31 92.5t-88 35.5q-57 0 -95.5 -35.5t-51.5 -92.5h266zM454 63q-69 -38 -114 -78.5t-45 -82.5q0 -20 12.5 -31t36.5 -11q14 0 31.5 2.5t31.5 5.5l9 -47q-20 -12 -45 -19t-48 -7q-48 0 -76 28t-28 64q0 35 23 63.5t52 46.5q-15 -5 -47 -5q-42 0 -80.5 15
t-68.5 43.5t-47.5 70t-17.5 95.5q0 60 20.5 111.5t55 89t80 58.5t95.5 21q44 0 80.5 -16t62.5 -44.5t40.5 -67t14.5 -84.5q0 -38 -9 -50.5t-25 -12.5h-326q0 -32 8.5 -59t25.5 -47t43 -31.5t61 -11.5q22 0 49 4.5t62 15.5l61 18z" />
    <glyph glyph-name="gcircumflex" unicode="&#x11d;" horiz-adv-x="534" 
d="M311 -124q36 37 46 132l4 39l-12 -7q-33 -20 -67.5 -31.5t-66.5 -11.5q-39 0 -72 16t-57.5 44.5t-38.5 68t-14 87.5q0 63 21 115.5t55.5 89.5t78.5 57.5t89 20.5q29 0 58.5 -10t58.5 -28l24 -15l21 46l61 -6l-57 -483q-15 -126 -72 -180q-55 -52 -149 -52
q-38 0 -81.5 10.5t-77.5 27.5l16 53l46 -6q25 -3 50.5 -5.5t41.5 -2.5q64 0 94 31zM354 111q9 6 11.5 10t4.5 14l28 230q1 11 -9 19q-17 13 -47 22t-59 9q-33 0 -62.5 -13t-51.5 -38.5t-34.5 -63t-12.5 -86.5q0 -64 30.5 -101.5t82.5 -37.5q29 0 62.5 11t56.5 25zM453 577
l-41 -36l-110 100h-3l-134 -100l-32 36l136 127q7 6 12 8.5t16 2.5h23q11 0 15.5 -1.5t9.5 -8.5z" />
    <glyph glyph-name="gbreve" unicode="&#x11f;" horiz-adv-x="534" 
d="M311 -124q36 37 46 132l4 39l-12 -7q-33 -20 -67.5 -31.5t-66.5 -11.5q-39 0 -72 16t-57.5 44.5t-38.5 68t-14 87.5q0 63 21 115.5t55.5 89.5t78.5 57.5t89 20.5q29 0 58.5 -10t58.5 -28l24 -15l21 46l61 -6l-57 -483q-15 -126 -72 -180q-55 -52 -149 -52
q-38 0 -81.5 10.5t-77.5 27.5l16 53l46 -6q25 -3 50.5 -5.5t41.5 -2.5q64 0 94 31zM354 111q9 6 11.5 10t4.5 14l28 230q1 11 -9 19q-17 13 -47 22t-59 9q-33 0 -62.5 -13t-51.5 -38.5t-34.5 -63t-12.5 -86.5q0 -64 30.5 -101.5t82.5 -37.5q29 0 62.5 11t56.5 25zM301 553
q-63 0 -99 37.5t-38 99.5l55 9q8 -36 30 -55.5t57 -19.5q36 0 62 19.5t43 55.5l53 -9q-18 -63 -61 -100t-102 -37z" />
    <glyph glyph-name="gdotaccent" unicode="&#x121;" horiz-adv-x="534" 
d="M311 -124q36 37 46 132l4 39l-12 -7q-33 -20 -67.5 -31.5t-66.5 -11.5q-39 0 -72 16t-57.5 44.5t-38.5 68t-14 87.5q0 63 21 115.5t55.5 89.5t78.5 57.5t89 20.5q29 0 58.5 -10t58.5 -28l24 -15l21 46l61 -6l-57 -483q-15 -126 -72 -180q-55 -52 -149 -52
q-38 0 -81.5 10.5t-77.5 27.5l16 53l46 -6q25 -3 50.5 -5.5t41.5 -2.5q64 0 94 31zM354 111q9 6 11.5 10t4.5 14l28 230q1 11 -9 19q-17 13 -47 22t-59 9q-33 0 -62.5 -13t-51.5 -38.5t-34.5 -63t-12.5 -86.5q0 -64 30.5 -101.5t82.5 -37.5q29 0 62.5 11t56.5 25zM255 660
h83q8 0 13 -3t3 -14l-9 -85h-101z" />
    <glyph glyph-name="gcommaaccent" unicode="&#x123;" horiz-adv-x="534" 
d="M374 742l-49 -203h-58q-12 0 -17 5t-5 20q0 17 5.5 35t18.5 41l63 111zM311 -124q36 37 46 132l4 39l-12 -7q-33 -20 -67.5 -31.5t-66.5 -11.5q-39 0 -72 16t-57.5 44.5t-38.5 68t-14 87.5q0 63 21 115.5t55.5 89.5t78.5 57.5t89 20.5q29 0 58.5 -10t58.5 -28l24 -15
l21 46l61 -6l-57 -483q-15 -126 -72 -180q-55 -52 -149 -52q-38 0 -81.5 10.5t-77.5 27.5l16 53l46 -6q25 -3 50.5 -5.5t41.5 -2.5q64 0 94 31zM354 111q9 6 11.5 10t4.5 14l28 230q1 11 -9 19q-17 13 -47 22t-59 9q-33 0 -62.5 -13t-51.5 -38.5t-34.5 -63t-12.5 -86.5
q0 -64 30.5 -101.5t82.5 -37.5q29 0 62.5 11t56.5 25z" />
    <glyph glyph-name="hcircumflex" unicode="&#x125;" horiz-adv-x="538" 
d="M176 449l17 9q32 17 64.5 27.5t66.5 10.5q36 0 66 -11t51.5 -30.5t33.5 -47t12 -59.5q0 -16 -2.5 -37.5t-4.5 -40.5l-32 -270h-89l34 288q2 13 3 26.5t1 22.5q0 38 -25.5 56.5t-73.5 18.5q-26 0 -57.5 -6.5t-61.5 -19.5q-7 -3 -9 -7.5t-3 -10.5l-43 -368h-89l83 709h89z
M324 746l-41 -36l-110 100h-3l-134 -100l-32 36l136 127q7 6 12 8.5t16 2.5h23q11 0 15.5 -1.5t9.5 -8.5z" />
    <glyph glyph-name="hbar" unicode="&#x127;" horiz-adv-x="539" 
d="M198 632h179l-7 -60h-179l-14 -123l17 9q32 17 64.5 27.5t66.5 10.5q36 0 66 -11t51.5 -30.5t33.5 -47t12 -59.5q0 -16 -2.5 -37.5t-4.5 -40.5l-32 -270h-89l34 288q2 13 3 26.5t1 22.5q0 38 -25.5 56.5t-73.5 18.5q-26 0 -57.5 -6.5t-61.5 -19.5q-7 -3 -9 -7.5t-3 -10.5
l-43 -368h-89l67 572h-74l5 45l76 14l9 78h89z" />
    <glyph glyph-name="dotlessi" unicode="&#x131;" horiz-adv-x="222" 
d="M95 488h89l-57 -488h-89z" />
    <glyph glyph-name="igrave" unicode="&#xec;" horiz-adv-x="220" 
d="M95 488h89l-57 -488h-89zM25 657l46 60q5 6 9 7t11 -4l163 -139l-35 -42z" />
    <glyph glyph-name="iacute" unicode="&#xed;" horiz-adv-x="218" 
d="M95 488h89l-57 -488h-89zM62 539l-25 42l195 139q13 10 19 -3l34 -60z" />
    <glyph glyph-name="icircumflex" unicode="&#xee;" horiz-adv-x="216" 
d="M94 488h89l-57 -488h-89zM308 577l-41 -36l-110 100h-3l-134 -100l-32 36l136 127q7 6 12 8.5t16 2.5h23q11 0 15.5 -1.5t9.5 -8.5z" />
    <glyph glyph-name="itilde" unicode="&#x129;" horiz-adv-x="215" 
d="M94 488h89l-57 -488h-89zM210 564q-18 0 -34.5 7t-31.5 15t-29 15t-27 7q-15 0 -29 -10.5t-30 -35.5l-45 14q15 45 43.5 73.5t66.5 28.5q18 0 34 -7t31 -15t29 -15t28 -7q29 0 59 46l45 -14q-15 -45 -43.5 -73.5t-66.5 -28.5z" />
    <glyph glyph-name="idieresis" unicode="&#xef;" horiz-adv-x="217" 
d="M94 488h89l-57 -488h-89zM20 669h80q7 0 12 -2.5t3 -13.5l-9 -82h-97zM199 669h80q7 0 12 -2.5t3 -13.5l-9 -82h-97z" />
    <glyph glyph-name="imacron" unicode="&#x12b;" horiz-adv-x="216" 
d="M94 488h89l-57 -488h-89zM4 583l9 72h289l-9 -72h-289z" />
    <glyph glyph-name="ibreve" unicode="&#x12d;" horiz-adv-x="216" 
d="M94 488h89l-57 -488h-89zM149 553q-63 0 -99 37.5t-38 99.5l55 9q8 -36 30 -55.5t57 -19.5q36 0 62 19.5t43 55.5l53 -9q-18 -63 -61 -100t-102 -37z" />
    <glyph glyph-name="iogonek" unicode="&#x12f;" horiz-adv-x="219" 
d="M118 0q-13 0 -22.5 -5.5t-23.5 -20.5q-36 -39 -36 -76q0 -38 48 -38q14 0 32 2.5t32 5.5l9 -47q-20 -12 -45 -19t-48 -7q-48 0 -76 26t-28 62q0 33 20.5 62t55.5 55l57 488h89l-57 -488h-7zM114 675h74q18 0 17 -16l-10 -78h-93z" />
    <glyph glyph-name="ij" unicode="&#x133;" horiz-adv-x="441" 
d="M95 488h89l-57 -488h-89zM116 675h74q18 0 17 -16l-10 -78h-93zM339 -68q-5 -43 -15 -74t-30 -52q-36 -38 -106 -38q-23 0 -43.5 2.5t-35.5 7.5l5 48l39 6q28 4 45 9.5t27 15t15 24.5t8 39l67 568h89zM336 675h74q18 0 17 -16l-10 -78h-93z" />
    <glyph glyph-name="jcircumflex" unicode="&#x135;" horiz-adv-x="211" 
d="M113 -68q-5 -43 -15 -74t-30 -52q-36 -38 -106 -38q-23 0 -43.5 2.5t-35.5 7.5l5 48l39 6q28 4 45 9.5t27 15t15 24.5t8 39l67 568h89zM299 577l-41 -36l-110 100h-3l-134 -100l-32 36l136 127q7 6 12 8.5t16 2.5h23q11 0 15.5 -1.5t9.5 -8.5z" />
    <glyph glyph-name="kcommaaccent" unicode="&#x137;" horiz-adv-x="516" 
d="M481 0h-85q-9 0 -13 2.5t-8 9.5l-123 233q-12 -9 -26.5 -19t-29.5 -19.5t-28 -17.5t-22 -12l-21 -177h-89l83 709h89l-53 -450l303 239l45 -56l-182 -144zM155 -261l49 203h58q12 0 17 -5t5 -20q0 -17 -5.5 -35t-18.5 -41l-63 -111z" />
    <glyph glyph-name="kgreenlandic" unicode="&#x138;" horiz-adv-x="516" 
d="M481 0h-85q-9 0 -13 2.5t-8 9.5l-123 233q-12 -9 -26.5 -19t-29.5 -19.5t-28 -17.5t-22 -12l-21 -177h-89l57 488h89l-27 -229l303 239l45 -56l-182 -144z" />
    <glyph glyph-name="lacute" unicode="&#x13a;" horiz-adv-x="245" 
d="M212 15q-15 -6 -41 -12t-45 -6q-35 0 -56 19.5t-21 55.5q0 8 1 20t3 23l69 594h89l-74 -633l80 -17zM91 734l-25 42l195 139q13 10 19 -3l34 -60z" />
    <glyph glyph-name="lcaron" unicode="&#x13e;" horiz-adv-x="316" 
d="M212 15q-15 -6 -41 -12t-45 -6q-35 0 -56 19.5t-21 55.5q0 8 1 20t3 23l69 594h89l-74 -633l80 -17zM239 506l49 203h58q12 0 17 -5t5 -20q0 -17 -5.5 -35t-18.5 -41l-63 -111z" />
    <glyph glyph-name="lcommaaccent" unicode="&#x13c;" horiz-adv-x="248" 
d="M211 15q-15 -6 -41 -12t-45 -6q-35 0 -56 19.5t-21 55.5q0 8 1 20t3 23l69 594h89l-74 -633l80 -17zM29 -261l49 203h58q12 0 17 -5t5 -20q0 -17 -5.5 -35t-18.5 -41l-63 -111z" />
    <glyph glyph-name="lslash" unicode="&#x142;" horiz-adv-x="356" 
d="M140 361l41 348h89l-36 -301l105 67l37 -56l-151 -98l-29 -245l80 -17l-5 -44q-15 -6 -41 -12t-45 -6q-35 0 -56 19.5t-21 55.5q0 8 1 20t3 23l18 158l-80 -50l-36 57z" />
    <glyph glyph-name="longs" unicode="&#x17f;" horiz-adv-x="278" 
d="M32 470l86 16q-6 25 -6 59q0 39 14 70.5t38 54t56 35t68 12.5q75 0 147 -43l-21 -54l-39 9q-26 6 -43 8.5t-35 2.5q-45 0 -71.5 -23.5t-26.5 -71.5q0 -20 2 -41.5t2 -47.5q0 -14 -1 -29.5t-3 -34.5l-70 -598h-89l73 626h-88z" />
    <glyph glyph-name="ldot" unicode="&#x140;" horiz-adv-x="383" 
d="M212 15q-15 -6 -41 -12t-45 -6q-35 0 -56 19.5t-21 55.5q0 8 1 20t3 23l69 594h89l-74 -633l80 -17zM271 439h83q8 0 13 -3t3 -14l-9 -85h-101z" />
    <glyph glyph-name="nacute" unicode="&#x144;" horiz-adv-x="539" 
d="M159 488l9 -44l26 14q32 17 64.5 27.5t66.5 10.5q36 0 66 -11t51.5 -30.5t33.5 -47t12 -59.5q0 -16 -2.5 -37.5t-4.5 -40.5l-32 -270h-89l34 288q2 13 3 26.5t1 22.5q0 38 -25.5 56.5t-73.5 18.5q-26 0 -57.5 -6.5t-61.5 -19.5q-11 -5 -12 -18l-43 -368h-89l57 488h66z
M236 539l-25 42l195 139q13 10 19 -3l34 -60z" />
    <glyph glyph-name="ncaron" unicode="&#x148;" horiz-adv-x="538" 
d="M159 488l9 -44l26 14q32 17 64.5 27.5t66.5 10.5q36 0 66 -11t51.5 -30.5t33.5 -47t12 -59.5q0 -16 -2.5 -37.5t-4.5 -40.5l-32 -270h-89l34 288q2 13 3 26.5t1 22.5q0 38 -25.5 56.5t-73.5 18.5q-26 0 -57.5 -6.5t-61.5 -19.5q-11 -5 -12 -18l-43 -368h-89l57 488h66z
M181 685l41 36l110 -100h3l134 100l32 -36l-136 -127q-7 -6 -12 -8.5t-16 -2.5h-23q-11 0 -15.5 1.5t-9.5 8.5z" />
    <glyph glyph-name="ntilde" unicode="&#xf1;" horiz-adv-x="539" 
d="M159 488l9 -44l26 14q32 17 64.5 27.5t66.5 10.5q36 0 66 -11t51.5 -30.5t33.5 -47t12 -59.5q0 -16 -2.5 -37.5t-4.5 -40.5l-32 -270h-89l34 288q2 13 3 26.5t1 22.5q0 38 -25.5 56.5t-73.5 18.5q-26 0 -57.5 -6.5t-61.5 -19.5q-11 -5 -12 -18l-43 -368h-89l57 488h66z
M386 564q-18 0 -34.5 7t-31.5 15t-29 15t-27 7q-15 0 -29 -10.5t-30 -35.5l-45 14q15 45 43.5 73.5t66.5 28.5q18 0 34 -7t31 -15t29 -15t28 -7q29 0 59 46l45 -14q-15 -45 -43.5 -73.5t-66.5 -28.5z" />
    <glyph glyph-name="ncommaaccent" unicode="&#x146;" horiz-adv-x="539" 
d="M159 488l9 -44l26 14q32 17 64.5 27.5t66.5 10.5q36 0 66 -11t51.5 -30.5t33.5 -47t12 -59.5q0 -16 -2.5 -37.5t-4.5 -40.5l-32 -270h-89l34 288q2 13 3 26.5t1 22.5q0 38 -25.5 56.5t-73.5 18.5q-26 0 -57.5 -6.5t-61.5 -19.5q-11 -5 -12 -18l-43 -368h-89l57 488h66z
M150 -261l49 203h58q12 0 17 -5t5 -20q0 -17 -5.5 -35t-18.5 -41l-63 -111z" />
    <glyph glyph-name="napostrophe" unicode="&#x149;" horiz-adv-x="650" 
d="M270 488l9 -44l26 14q32 17 64.5 27.5t66.5 10.5q36 0 66 -11t51.5 -30.5t33.5 -47t12 -59.5q0 -16 -2.5 -37.5t-4.5 -40.5l-32 -270h-89l34 288q2 13 3 26.5t1 22.5q0 38 -25.5 56.5t-73.5 18.5q-26 0 -57.5 -6.5t-61.5 -19.5q-11 -5 -12 -18l-43 -368h-89l57 488h66z
M195 663q11 0 13.5 -4t1.5 -12l-8 -62q-3 -24 -10.5 -43.5t-21.5 -38.5t-35.5 -40.5t-53.5 -51.5l-27 24l71 110q5 9 -1 15l-9 10q-8 8 -9.5 13t-0.5 15l7 65h83z" />
    <glyph glyph-name="eng" unicode="&#x14b;" horiz-adv-x="539" 
d="M394 288q2 13 3 26.5t1 22.5q0 38 -25.5 56.5t-73.5 18.5q-26 0 -57.5 -6.5t-61.5 -19.5q-11 -5 -12 -18l-43 -368h-89l57 488h66l9 -44l26 14q32 17 64.5 27.5t66.5 10.5q36 0 66 -11t51.5 -30.5t33.5 -47t12 -59.5q0 -16 -2.5 -37.5t-4.5 -40.5l-36 -306
q-5 -43 -15 -74t-30 -52q-36 -38 -106 -38q-23 0 -43.5 2.5t-35.5 7.5l5 48l39 6q28 4 45 9.5t27 15t15 24.5t8 39z" />
    <glyph glyph-name="ograve" unicode="&#xf2;" horiz-adv-x="530" 
d="M250 73q35 0 64 14.5t50 40.5t32.5 61.5t11.5 77.5q0 28 -7.5 55t-23 47.5t-39.5 33t-57 12.5q-35 0 -64.5 -14.5t-50.5 -40.5t-32.5 -61.5t-11.5 -77.5q0 -29 7.5 -55.5t23 -47t40 -33t57.5 -12.5zM246 -8q-46 0 -85 16.5t-67.5 46.5t-44.5 71t-16 89q0 57 19.5 108
t53 89.5t79.5 61t99 22.5q46 0 85 -16.5t67.5 -46.5t44.5 -71t16 -89q0 -57 -19.5 -108t-53 -89.5t-79.5 -61t-99 -22.5zM176 657l46 60q5 6 9 7t11 -4l163 -139l-35 -42z" />
    <glyph glyph-name="oacute" unicode="&#xf3;" horiz-adv-x="530" 
d="M250 73q35 0 64 14.5t50 40.5t32.5 61.5t11.5 77.5q0 28 -7.5 55t-23 47.5t-39.5 33t-57 12.5q-35 0 -64.5 -14.5t-50.5 -40.5t-32.5 -61.5t-11.5 -77.5q0 -29 7.5 -55.5t23 -47t40 -33t57.5 -12.5zM246 -8q-46 0 -85 16.5t-67.5 46.5t-44.5 71t-16 89q0 57 19.5 108
t53 89.5t79.5 61t99 22.5q46 0 85 -16.5t67.5 -46.5t44.5 -71t16 -89q0 -57 -19.5 -108t-53 -89.5t-79.5 -61t-99 -22.5zM221 539l-25 42l195 139q13 10 19 -3l34 -60z" />
    <glyph glyph-name="ocircumflex" unicode="&#xf4;" horiz-adv-x="530" 
d="M250 73q35 0 64 14.5t50 40.5t32.5 61.5t11.5 77.5q0 28 -7.5 55t-23 47.5t-39.5 33t-57 12.5q-35 0 -64.5 -14.5t-50.5 -40.5t-32.5 -61.5t-11.5 -77.5q0 -29 7.5 -55.5t23 -47t40 -33t57.5 -12.5zM246 -8q-46 0 -85 16.5t-67.5 46.5t-44.5 71t-16 89q0 57 19.5 108
t53 89.5t79.5 61t99 22.5q46 0 85 -16.5t67.5 -46.5t44.5 -71t16 -89q0 -57 -19.5 -108t-53 -89.5t-79.5 -61t-99 -22.5zM463 577l-41 -36l-110 100h-3l-134 -100l-32 36l136 127q7 6 12 8.5t16 2.5h23q11 0 15.5 -1.5t9.5 -8.5z" />
    <glyph glyph-name="otilde" unicode="&#xf5;" horiz-adv-x="530" 
d="M250 73q35 0 64 14.5t50 40.5t32.5 61.5t11.5 77.5q0 28 -7.5 55t-23 47.5t-39.5 33t-57 12.5q-35 0 -64.5 -14.5t-50.5 -40.5t-32.5 -61.5t-11.5 -77.5q0 -29 7.5 -55.5t23 -47t40 -33t57.5 -12.5zM246 -8q-46 0 -85 16.5t-67.5 46.5t-44.5 71t-16 89q0 57 19.5 108
t53 89.5t79.5 61t99 22.5q46 0 85 -16.5t67.5 -46.5t44.5 -71t16 -89q0 -57 -19.5 -108t-53 -89.5t-79.5 -61t-99 -22.5zM366 564q-18 0 -34.5 7t-31.5 15t-29 15t-27 7q-15 0 -29 -10.5t-30 -35.5l-45 14q15 45 43.5 73.5t66.5 28.5q18 0 34 -7t31 -15t29 -15t28 -7
q29 0 59 46l45 -14q-15 -45 -43.5 -73.5t-66.5 -28.5z" />
    <glyph glyph-name="odieresis" unicode="&#xf6;" horiz-adv-x="530" 
d="M250 73q35 0 64 14.5t50 40.5t32.5 61.5t11.5 77.5q0 28 -7.5 55t-23 47.5t-39.5 33t-57 12.5q-35 0 -64.5 -14.5t-50.5 -40.5t-32.5 -61.5t-11.5 -77.5q0 -29 7.5 -55.5t23 -47t40 -33t57.5 -12.5zM246 -8q-46 0 -85 16.5t-67.5 46.5t-44.5 71t-16 89q0 57 19.5 108
t53 89.5t79.5 61t99 22.5q46 0 85 -16.5t67.5 -46.5t44.5 -71t16 -89q0 -57 -19.5 -108t-53 -89.5t-79.5 -61t-99 -22.5zM175 669h80q7 0 12 -2.5t3 -13.5l-9 -82h-97zM354 669h80q7 0 12 -2.5t3 -13.5l-9 -82h-97z" />
    <glyph glyph-name="omacron" unicode="&#x14d;" horiz-adv-x="530" 
d="M250 73q35 0 64 14.5t50 40.5t32.5 61.5t11.5 77.5q0 28 -7.5 55t-23 47.5t-39.5 33t-57 12.5q-35 0 -64.5 -14.5t-50.5 -40.5t-32.5 -61.5t-11.5 -77.5q0 -29 7.5 -55.5t23 -47t40 -33t57.5 -12.5zM246 -8q-46 0 -85 16.5t-67.5 46.5t-44.5 71t-16 89q0 57 19.5 108
t53 89.5t79.5 61t99 22.5q46 0 85 -16.5t67.5 -46.5t44.5 -71t16 -89q0 -57 -19.5 -108t-53 -89.5t-79.5 -61t-99 -22.5zM157 583l9 72h289l-9 -72h-289z" />
    <glyph glyph-name="obreve" unicode="&#x14f;" horiz-adv-x="530" 
d="M250 73q35 0 64 14.5t50 40.5t32.5 61.5t11.5 77.5q0 28 -7.5 55t-23 47.5t-39.5 33t-57 12.5q-35 0 -64.5 -14.5t-50.5 -40.5t-32.5 -61.5t-11.5 -77.5q0 -29 7.5 -55.5t23 -47t40 -33t57.5 -12.5zM246 -8q-46 0 -85 16.5t-67.5 46.5t-44.5 71t-16 89q0 57 19.5 108
t53 89.5t79.5 61t99 22.5q46 0 85 -16.5t67.5 -46.5t44.5 -71t16 -89q0 -57 -19.5 -108t-53 -89.5t-79.5 -61t-99 -22.5zM304 553q-63 0 -99 37.5t-38 99.5l55 9q8 -36 30 -55.5t57 -19.5q36 0 62 19.5t43 55.5l53 -9q-18 -63 -61 -100t-102 -37z" />
    <glyph glyph-name="ohungarumlaut" unicode="&#x151;" horiz-adv-x="529" 
d="M250 73q35 0 64 14.5t50 40.5t32.5 61.5t11.5 77.5q0 28 -7.5 55t-23 47.5t-39.5 33t-57 12.5q-35 0 -64.5 -14.5t-50.5 -40.5t-32.5 -61.5t-11.5 -77.5q0 -29 7.5 -55.5t23 -47t40 -33t57.5 -12.5zM246 -8q-46 0 -85 16.5t-67.5 46.5t-44.5 71t-16 89q0 57 19.5 108
t53 89.5t79.5 61t99 22.5q46 0 85 -16.5t67.5 -46.5t44.5 -71t16 -89q0 -57 -19.5 -108t-53 -89.5t-79.5 -61t-99 -22.5zM174 562l-32 35l151 158q11 11 19 2l41 -51zM346 562l-32 35l151 158q11 11 19 2l41 -51z" />
    <glyph glyph-name="oslash" unicode="&#xf8;" horiz-adv-x="530" 
d="M246 -8q-62 0 -109 29l-65 -86l-51 37l67 89q-26 29 -40.5 68t-14.5 86q0 57 19.5 108t53 89.5t79.5 61t99 22.5q31 0 58.5 -8t50.5 -22l65 86l51 -36l-67 -89q26 -29 40.5 -68.5t14.5 -85.5q0 -57 -19.5 -108t-53 -89.5t-79.5 -61t-99 -22.5zM122 221q0 -50 21 -87
l200 265q-26 15 -62 15q-35 0 -64.5 -14.5t-50.5 -40.5t-32.5 -61t-11.5 -77zM250 74q35 0 64 14.5t50 40.5t32.5 61t11.5 77q0 49 -21 87l-200 -266q26 -14 63 -14z" />
    <glyph glyph-name="oslashacute" unicode="&#x1ff;" horiz-adv-x="530" 
d="M246 -8q-62 0 -109 29l-65 -86l-51 37l67 89q-26 29 -40.5 68t-14.5 86q0 57 19.5 108t53 89.5t79.5 61t99 22.5q31 0 58.5 -8t50.5 -22l65 86l51 -36l-67 -89q26 -29 40.5 -68.5t14.5 -85.5q0 -57 -19.5 -108t-53 -89.5t-79.5 -61t-99 -22.5zM122 221q0 -50 21 -87
l200 265q-26 15 -62 15q-35 0 -64.5 -14.5t-50.5 -40.5t-32.5 -61t-11.5 -77zM250 74q35 0 64 14.5t50 40.5t32.5 61t11.5 77q0 49 -21 87l-200 -266q26 -14 63 -14zM221 539l-25 42l195 139q13 10 19 -3l34 -60z" />
    <glyph glyph-name="oe" unicode="&#x153;" horiz-adv-x="896" 
d="M855 284q0 -38 -9 -50.5t-25 -12.5h-326q0 -32 8.5 -59t25.5 -47t43 -31.5t61 -11.5q41 0 103 17l69 19l22 -47q-20 -15 -44.5 -27.5t-51.5 -22t-55 -14.5t-53 -5q-59 0 -108 25.5t-78 73.5q-34 -45 -83.5 -72t-107.5 -27q-46 0 -85 16.5t-67.5 46.5t-44.5 71t-16 89
q0 57 19.5 108t53 89.5t79.5 61t99 22.5q59 0 105.5 -27t74.5 -74q35 48 85.5 74.5t107.5 26.5q44 0 80.5 -16t62.5 -44.5t40.5 -67t14.5 -84.5zM250 74q35 0 64 14.5t50 40.5t32.5 61t11.5 77q0 28 -7.5 55t-23 47t-39.5 32.5t-57 12.5q-35 0 -64.5 -14.5t-50.5 -40.5
t-32.5 -61t-11.5 -77q0 -29 7.5 -55.5t23 -46.5t40 -32.5t57.5 -12.5zM770 288q-1 57 -31 92.5t-88 35.5q-57 0 -95.5 -35.5t-51.5 -92.5h266z" />
    <glyph glyph-name="thorn" unicode="&#xfe;" horiz-adv-x="533" 
d="M118 709h89l-32 -261l19 10q39 20 68 29t58 9q35 0 66.5 -14t54.5 -40q26 -29 42 -70.5t16 -92.5q0 -62 -17.5 -114.5t-48.5 -90.5t-72.5 -60t-89.5 -22q-31 0 -65.5 11.5t-66.5 30.5l-12 7l-31 -270h-89zM137 123q-1 -8 1 -13t10 -10q20 -12 51 -20.5t55 -8.5
q63 0 101 40q26 26 40.5 68t14.5 99q0 66 -28.5 101.5t-85.5 35.5q-53 0 -112 -28q-11 -5 -14 -11t-5 -17z" />
    <glyph glyph-name="racute" unicode="&#x155;" horiz-adv-x="352" 
d="M168 421q34 22 60 36.5t45.5 23t33 12t23.5 3.5q22 0 45 -15l-8 -60q-42 -11 -93.5 -26.5t-96.5 -30.5q-11 -4 -12 -17l-40 -347h-89l57 488h68zM166 539l-25 42l195 139q13 10 19 -3l34 -60z" />
    <glyph glyph-name="rcaron" unicode="&#x159;" horiz-adv-x="350" 
d="M168 421q34 22 60 36.5t45.5 23t33 12t23.5 3.5q22 0 45 -15l-8 -60q-42 -11 -93.5 -26.5t-96.5 -30.5q-11 -4 -12 -17l-40 -347h-89l57 488h68zM111 685l41 36l110 -100h3l134 100l32 -36l-136 -127q-7 -6 -12 -8.5t-16 -2.5h-23q-11 0 -15.5 1.5t-9.5 8.5z" />
    <glyph glyph-name="rcommaaccent" unicode="&#x157;" horiz-adv-x="351" 
d="M167 421q34 22 60 36.5t45.5 23t33 12t23.5 3.5q22 0 45 -15l-8 -60q-42 -11 -93.5 -26.5t-96.5 -30.5q-11 -4 -12 -17l-40 -347h-89l57 488h68zM-15 -261l49 203h58q12 0 17 -5t5 -20q0 -17 -5.5 -35t-18.5 -41l-63 -111z" />
    <glyph glyph-name="sacute" unicode="&#x15b;" horiz-adv-x="427" 
d="M28 91l60 -12q29 -6 56 -9.5t47 -3.5q46 0 78 19.5t32 57.5q0 23 -16.5 39t-62.5 33l-58 22q-52 20 -84 48t-32 79q0 31 14.5 56t39 41.5t57.5 25.5t70 9q42 0 84 -9t77 -24l-15 -54l-48 5q-29 3 -54.5 5t-44.5 2q-43 0 -72 -11.5t-29 -41.5q0 -20 16 -33.5t55 -28.5
l58 -22q63 -23 94.5 -53t31.5 -80q0 -38 -15 -67.5t-41 -50t-60.5 -31t-74.5 -10.5q-49 0 -97.5 13.5t-88.5 34.5zM176 539l-25 42l195 139q13 10 19 -3l34 -60z" />
    <glyph glyph-name="scircumflex" unicode="&#x15d;" horiz-adv-x="427" 
d="M28 91l60 -12q29 -6 56 -9.5t47 -3.5q46 0 78 19.5t32 57.5q0 23 -16.5 39t-62.5 33l-58 22q-52 20 -84 48t-32 79q0 31 14.5 56t39 41.5t57.5 25.5t70 9q42 0 84 -9t77 -24l-15 -54l-48 5q-29 3 -54.5 5t-44.5 2q-43 0 -72 -11.5t-29 -41.5q0 -20 16 -33.5t55 -28.5
l58 -22q63 -23 94.5 -53t31.5 -80q0 -38 -15 -67.5t-41 -50t-60.5 -31t-74.5 -10.5q-49 0 -97.5 13.5t-88.5 34.5zM412 577l-41 -36l-110 100h-3l-134 -100l-32 36l136 127q7 6 12 8.5t16 2.5h23q11 0 15.5 -1.5t9.5 -8.5z" />
    <glyph glyph-name="scaron" unicode="&#x161;" horiz-adv-x="427" 
d="M28 91l60 -12q29 -6 56 -9.5t47 -3.5q46 0 78 19.5t32 57.5q0 23 -16.5 39t-62.5 33l-58 22q-52 20 -84 48t-32 79q0 31 14.5 56t39 41.5t57.5 25.5t70 9q42 0 84 -9t77 -24l-15 -54l-48 5q-29 3 -54.5 5t-44.5 2q-43 0 -72 -11.5t-29 -41.5q0 -20 16 -33.5t55 -28.5
l58 -22q63 -23 94.5 -53t31.5 -80q0 -38 -15 -67.5t-41 -50t-60.5 -31t-74.5 -10.5q-49 0 -97.5 13.5t-88.5 34.5zM98 685l41 36l110 -100h3l134 100l32 -36l-136 -127q-7 -6 -12 -8.5t-16 -2.5h-23q-11 0 -15.5 1.5t-9.5 8.5z" />
    <glyph glyph-name="scedilla" unicode="&#x15f;" horiz-adv-x="427" 
d="M28 91l60 -12q29 -6 56 -9.5t47 -3.5q46 0 78 19.5t32 57.5q0 23 -16.5 39t-62.5 33l-58 22q-52 20 -84 48t-32 79q0 31 14.5 56t39 41.5t57.5 25.5t70 9q42 0 84 -9t77 -24l-15 -54l-48 5q-29 3 -54.5 5t-44.5 2q-43 0 -72 -11.5t-29 -41.5q0 -20 16 -33.5t55 -28.5
l58 -22q63 -23 94.5 -53t31.5 -80q0 -36 -13 -64t-36.5 -48t-54.5 -31.5t-67 -14.5q-13 -18 -13 -32q0 -9 15 -15t33 -14t33 -21t15 -37q0 -27 -17 -46.5t-43 -31.5t-58 -18t-62 -7l-5 50l62 13q44 10 44 28q0 10 -14 16t-31.5 13t-31.5 16.5t-14 26.5q0 14 9 30t23 30
q-41 5 -80 17t-71 29z" />
    <glyph glyph-name="scommaaccent" unicode="&#x219;" horiz-adv-x="427" 
d="M28 91l60 -12q29 -6 56 -9.5t47 -3.5q46 0 78 19.5t32 57.5q0 23 -16.5 39t-62.5 33l-58 22q-52 20 -84 48t-32 79q0 31 14.5 56t39 41.5t57.5 25.5t70 9q42 0 84 -9t77 -24l-15 -54l-48 5q-29 3 -54.5 5t-44.5 2q-43 0 -72 -11.5t-29 -41.5q0 -20 16 -33.5t55 -28.5
l58 -22q63 -23 94.5 -53t31.5 -80q0 -38 -15 -67.5t-41 -50t-60.5 -31t-74.5 -10.5q-49 0 -97.5 13.5t-88.5 34.5zM106 -261l49 203h58q12 0 17 -5t5 -20q0 -17 -5.5 -35t-18.5 -41l-63 -111z" />
    <glyph glyph-name="germandbls" unicode="&#xdf;" horiz-adv-x="618" 
d="M32 470l89 17q7 50 28.5 92.5t55 73t77.5 47.5t96 17q36 0 69 -9.5t57.5 -28t39 -45t14.5 -60.5q0 -50 -28 -82.5t-76 -61.5l-45 -27q-28 -17 -39 -28t-11 -22q0 -13 13 -22.5t56 -27.5l33 -14q57 -24 87.5 -53t30.5 -80q0 -38 -15.5 -68.5t-42 -52.5t-61.5 -33.5
t-74 -11.5q-45 0 -88.5 11t-80.5 30l17 54l32 -6q35 -7 66.5 -11t54.5 -4q48 0 78.5 24t30.5 58q0 26 -18 40.5t-61 32.5l-34 14q-50 20 -78.5 43t-28.5 63q0 35 25 62.5t73 62.5q29 21 48 35.5t30.5 26.5t16 23.5t4.5 26.5q0 31 -27 46.5t-70 15.5q-78 0 -118.5 -45.5
t-51.5 -134.5l-71 -611h-89l67 573h-87z" />
    <glyph glyph-name="tcaron" unicode="&#x165;" horiz-adv-x="396" 
d="M362 36q-15 -9 -35.5 -17t-42 -14t-42.5 -9.5t-39 -3.5q-57 0 -90.5 32.5t-33.5 88.5q0 13 1.5 28.5t3.5 36.5l28 242h-88l7 50l89 17l17 142h89l-17 -141h164l-8 -68h-164l-29 -254q-2 -18 -3 -29.5t-1 -19.5q0 -22 12.5 -35.5t40.5 -13.5q12 0 30.5 2.5t45.5 7.5l50 9z
M289 561l49 203h58q12 0 17 -5t5 -20q0 -17 -5.5 -35t-18.5 -41l-63 -111z" />
    <glyph glyph-name="tcommaaccent" unicode="&#x163;" horiz-adv-x="398" 
d="M362 36q-15 -9 -35.5 -17t-42 -14t-42.5 -9.5t-39 -3.5q-57 0 -90.5 32.5t-33.5 88.5q0 13 1.5 28.5t3.5 36.5l28 242h-88l7 50l89 17l17 142h89l-17 -141h164l-8 -68h-164l-29 -254q-2 -18 -3 -29.5t-1 -19.5q0 -22 12.5 -35.5t40.5 -13.5q12 0 30.5 2.5t45.5 7.5l50 9z
M111 -261l49 203h58q12 0 17 -5t5 -20q0 -17 -5.5 -35t-18.5 -41l-63 -111z" />
    <glyph glyph-name="uni021B" unicode="&#x21b;" horiz-adv-x="398" 
d="M362 36q-15 -9 -35.5 -17t-42 -14t-42.5 -9.5t-39 -3.5q-57 0 -90.5 32.5t-33.5 88.5q0 13 1.5 28.5t3.5 36.5l28 242h-88l7 50l89 17l17 142h89l-17 -141h164l-8 -68h-164l-29 -254q-2 -18 -3 -29.5t-1 -19.5q0 -22 12.5 -35.5t40.5 -13.5q12 0 30.5 2.5t45.5 7.5l50 9z
M111 -261l49 203h58q12 0 17 -5t5 -20q0 -17 -5.5 -35t-18.5 -41l-63 -111z" />
    <glyph glyph-name="tbar" unicode="&#x167;" horiz-adv-x="397" 
d="M361 36q-15 -9 -35.5 -17t-42 -14t-42.5 -9.5t-39 -3.5q-57 0 -90.5 32.5t-33.5 88.5q0 13 1.5 28.5t3.5 36.5l5 45h-75l6 45l76 14l16 138h-88l7 50l89 17l17 142h89l-17 -141h164l-8 -68h-164l-16 -137h146l-7 -60h-146l-6 -57q-2 -18 -3 -29.5t-1 -19.5
q0 -22 12.5 -35.5t40.5 -13.5q12 0 30.5 2.5t45.5 7.5l50 9z" />
    <glyph glyph-name="ugrave" unicode="&#xf9;" horiz-adv-x="528" 
d="M369 0l-9 44l-26 -14q-32 -17 -63.5 -27.5t-64.5 -10.5q-36 0 -66 11t-51.5 31t-33 47t-11.5 60q0 15 2.5 37.5t4.5 39.5l32 270h89l-34 -288q-2 -13 -3 -26.5t-1 -22.5q0 -75 98 -75q55 0 116 26q7 3 9 7.5t3 10.5l43 368h89l-57 -488h-66zM151 657l46 60q5 6 9 7t11 -4
l163 -139l-35 -42z" />
    <glyph glyph-name="uacute" unicode="&#xfa;" horiz-adv-x="528" 
d="M369 0l-9 44l-26 -14q-32 -17 -63.5 -27.5t-64.5 -10.5q-36 0 -66 11t-51.5 31t-33 47t-11.5 60q0 15 2.5 37.5t4.5 39.5l32 270h89l-34 -288q-2 -13 -3 -26.5t-1 -22.5q0 -75 98 -75q55 0 116 26q7 3 9 7.5t3 10.5l43 368h89l-57 -488h-66zM232 539l-25 42l195 139
q13 10 19 -3l34 -60z" />
    <glyph glyph-name="ucircumflex" unicode="&#xfb;" horiz-adv-x="528" 
d="M369 0l-9 44l-26 -14q-32 -17 -63.5 -27.5t-64.5 -10.5q-36 0 -66 11t-51.5 31t-33 47t-11.5 60q0 15 2.5 37.5t4.5 39.5l32 270h89l-34 -288q-2 -13 -3 -26.5t-1 -22.5q0 -75 98 -75q55 0 116 26q7 3 9 7.5t3 10.5l43 368h89l-57 -488h-66zM458 577l-41 -36l-110 100h-3
l-134 -100l-32 36l136 127q7 6 12 8.5t16 2.5h23q11 0 15.5 -1.5t9.5 -8.5z" />
    <glyph glyph-name="utilde" unicode="&#x169;" horiz-adv-x="528" 
d="M369 0l-9 44l-26 -14q-32 -17 -63.5 -27.5t-64.5 -10.5q-36 0 -66 11t-51.5 31t-33 47t-11.5 60q0 15 2.5 37.5t4.5 39.5l32 270h89l-34 -288q-2 -13 -3 -26.5t-1 -22.5q0 -75 98 -75q55 0 116 26q7 3 9 7.5t3 10.5l43 368h89l-57 -488h-66zM362 564q-18 0 -34.5 7
t-31.5 15t-29 15t-27 7q-15 0 -29 -10.5t-30 -35.5l-45 14q15 45 43.5 73.5t66.5 28.5q18 0 34 -7t31 -15t29 -15t28 -7q29 0 59 46l45 -14q-15 -45 -43.5 -73.5t-66.5 -28.5z" />
    <glyph glyph-name="udieresis" unicode="&#xfc;" horiz-adv-x="528" 
d="M369 0l-9 44l-26 -14q-32 -17 -63.5 -27.5t-64.5 -10.5q-36 0 -66 11t-51.5 31t-33 47t-11.5 60q0 15 2.5 37.5t4.5 39.5l32 270h89l-34 -288q-2 -13 -3 -26.5t-1 -22.5q0 -75 98 -75q55 0 116 26q7 3 9 7.5t3 10.5l43 368h89l-57 -488h-66zM166 669h80q7 0 12 -2.5
t3 -13.5l-9 -82h-97zM345 669h80q7 0 12 -2.5t3 -13.5l-9 -82h-97z" />
    <glyph glyph-name="umacron" unicode="&#x16b;" horiz-adv-x="528" 
d="M369 0l-9 44l-26 -14q-32 -17 -63.5 -27.5t-64.5 -10.5q-36 0 -66 11t-51.5 31t-33 47t-11.5 60q0 15 2.5 37.5t4.5 39.5l32 270h89l-34 -288q-2 -13 -3 -26.5t-1 -22.5q0 -75 98 -75q55 0 116 26q7 3 9 7.5t3 10.5l43 368h89l-57 -488h-66zM150 583l9 72h289l-9 -72
h-289z" />
    <glyph glyph-name="ubreve" unicode="&#x16d;" horiz-adv-x="528" 
d="M369 0l-9 44l-26 -14q-32 -17 -63.5 -27.5t-64.5 -10.5q-36 0 -66 11t-51.5 31t-33 47t-11.5 60q0 15 2.5 37.5t4.5 39.5l32 270h89l-34 -288q-2 -13 -3 -26.5t-1 -22.5q0 -75 98 -75q55 0 116 26q7 3 9 7.5t3 10.5l43 368h89l-57 -488h-66zM299 553q-63 0 -99 37.5
t-38 99.5l55 9q8 -36 30 -55.5t57 -19.5q36 0 62 19.5t43 55.5l53 -9q-18 -63 -61 -100t-102 -37z" />
    <glyph glyph-name="uring" unicode="&#x16f;" horiz-adv-x="528" 
d="M369 0l-9 44l-26 -14q-32 -17 -63.5 -27.5t-64.5 -10.5q-36 0 -66 11t-51.5 31t-33 47t-11.5 60q0 15 2.5 37.5t4.5 39.5l32 270h89l-34 -288q-2 -13 -3 -26.5t-1 -22.5q0 -75 98 -75q55 0 116 26q7 3 9 7.5t3 10.5l43 368h89l-57 -488h-66zM420 664q0 -25 -9 -47
t-25 -38t-38 -25t-47 -9q-48 0 -77.5 30t-29.5 74q0 25 9 47t25 38t38 25t47 9q48 0 77.5 -30t29.5 -74zM362 661q0 20 -13 35.5t-39 15.5q-24 0 -41 -15t-17 -45q0 -20 13 -35t39 -15q24 0 41 14.5t17 44.5z" />
    <glyph glyph-name="uhungarumlaut" unicode="&#x171;" horiz-adv-x="527" 
d="M369 0l-9 44l-26 -14q-32 -17 -63.5 -27.5t-64.5 -10.5q-36 0 -66 11t-51.5 31t-33 47t-11.5 60q0 15 2.5 37.5t4.5 39.5l32 270h89l-34 -288q-2 -13 -3 -26.5t-1 -22.5q0 -75 98 -75q55 0 116 26q7 3 9 7.5t3 10.5l43 368h89l-57 -488h-66zM186 562l-32 35l151 158
q11 11 19 2l41 -51zM358 562l-32 35l151 158q11 11 19 2l41 -51z" />
    <glyph glyph-name="uogonek" unicode="&#x173;" horiz-adv-x="528" 
d="M435 0q-20 -8 -39 -19t-34 -24.5t-24 -28.5t-9 -30q0 -38 48 -38q14 0 32 2.5t32 5.5l9 -47q-20 -12 -45 -19t-48 -7q-48 0 -76 26t-28 62q0 20 9.5 38.5t25 34.5t36 29.5t43.5 24.5l-7 34l-26 -14q-32 -17 -63.5 -27.5t-64.5 -10.5q-36 0 -66 11t-51.5 31t-33 47
t-11.5 60q0 15 2.5 37.5t4.5 39.5l32 270h89l-34 -288q-2 -13 -3 -26.5t-1 -22.5q0 -75 98 -75q55 0 116 26q7 3 9 7.5t3 10.5l43 368h89l-57 -488v0z" />
    <glyph glyph-name="wgrave" unicode="&#x1e81;" horiz-adv-x="763" 
d="M487 300q13 -67 22.5 -122.5t14.5 -91.5q14 38 34 88t46 109l84 194q5 11 16 11h77l-218 -488h-87q-13 0 -15 10l-38 192q-4 22 -8.5 47t-9 49.5t-8 46.5t-5.5 39q-6 -18 -15 -41.5t-19 -50t-20.5 -53t-20.5 -49.5l-78 -190h-84q-13 0 -15 11l-116 477h79q11 0 14 -10
l38 -163q7 -30 14 -62t13 -62.5t10.5 -57t7.5 -46.5q17 48 38.5 107.5t50.5 131.5l65 162h84q13 0 15 -11zM272 657l46 60q5 6 9 7t11 -4l163 -139l-35 -42z" />
    <glyph glyph-name="wacute" unicode="&#x1e83;" horiz-adv-x="763" 
d="M487 300q13 -67 22.5 -122.5t14.5 -91.5q14 38 34 88t46 109l84 194q5 11 16 11h77l-218 -488h-87q-13 0 -15 10l-38 192q-4 22 -8.5 47t-9 49.5t-8 46.5t-5.5 39q-6 -18 -15 -41.5t-19 -50t-20.5 -53t-20.5 -49.5l-78 -190h-84q-13 0 -15 11l-116 477h79q11 0 14 -10
l38 -163q7 -30 14 -62t13 -62.5t10.5 -57t7.5 -46.5q17 48 38.5 107.5t50.5 131.5l65 162h84q13 0 15 -11zM325 539l-25 42l195 139q13 10 19 -3l34 -60z" />
    <glyph glyph-name="wcircumflex" unicode="&#x175;" horiz-adv-x="763" 
d="M487 300q13 -67 22.5 -122.5t14.5 -91.5q14 38 34 88t46 109l84 194q5 11 16 11h77l-218 -488h-87q-13 0 -15 10l-38 192q-4 22 -8.5 47t-9 49.5t-8 46.5t-5.5 39q-6 -18 -15 -41.5t-19 -50t-20.5 -53t-20.5 -49.5l-78 -190h-84q-13 0 -15 11l-116 477h79q11 0 14 -10
l38 -163q7 -30 14 -62t13 -62.5t10.5 -57t7.5 -46.5q17 48 38.5 107.5t50.5 131.5l65 162h84q13 0 15 -11zM573 577l-41 -36l-110 100h-3l-134 -100l-32 36l136 127q7 6 12 8.5t16 2.5h23q11 0 15.5 -1.5t9.5 -8.5z" />
    <glyph glyph-name="wdieresis" unicode="&#x1e85;" horiz-adv-x="763" 
d="M487 300q13 -67 22.5 -122.5t14.5 -91.5q14 38 34 88t46 109l84 194q5 11 16 11h77l-218 -488h-87q-13 0 -15 10l-38 192q-4 22 -8.5 47t-9 49.5t-8 46.5t-5.5 39q-6 -18 -15 -41.5t-19 -50t-20.5 -53t-20.5 -49.5l-78 -190h-84q-13 0 -15 11l-116 477h79q11 0 14 -10
l38 -163q7 -30 14 -62t13 -62.5t10.5 -57t7.5 -46.5q17 48 38.5 107.5t50.5 131.5l65 162h84q13 0 15 -11zM282 669h80q7 0 12 -2.5t3 -13.5l-9 -82h-97zM461 669h80q7 0 12 -2.5t3 -13.5l-9 -82h-97z" />
    <glyph glyph-name="ygrave" unicode="&#x1ef3;" horiz-adv-x="478" 
d="M18 488h82q8 0 10.5 -2.5t4.5 -7.5l64 -225q13 -45 24 -90.5t17 -77.5h1q5 14 13.5 33.5t18.5 41t20.5 42.5t18.5 38l118 238q3 6 5.5 8t10.5 2h79l-369 -724l-82 29l112 205zM105 657l46 60q5 6 9 7t11 -4l163 -139l-35 -42z" />
    <glyph glyph-name="yacute" unicode="&#xfd;" horiz-adv-x="478" 
d="M18 488h82q8 0 10.5 -2.5t4.5 -7.5l64 -225q13 -45 24 -90.5t17 -77.5h1q5 14 13.5 33.5t18.5 41t20.5 42.5t18.5 38l118 238q3 6 5.5 8t10.5 2h79l-369 -724l-82 29l112 205zM206 539l-25 42l195 139q13 10 19 -3l34 -60z" />
    <glyph glyph-name="ycircumflex" unicode="&#x177;" horiz-adv-x="478" 
d="M18 488h82q8 0 10.5 -2.5t4.5 -7.5l64 -225q13 -45 24 -90.5t17 -77.5h1q5 14 13.5 33.5t18.5 41t20.5 42.5t18.5 38l118 238q3 6 5.5 8t10.5 2h79l-369 -724l-82 29l112 205zM430 577l-41 -36l-110 100h-3l-134 -100l-32 36l136 127q7 6 12 8.5t16 2.5h23
q11 0 15.5 -1.5t9.5 -8.5z" />
    <glyph glyph-name="ydieresis" unicode="&#xff;" horiz-adv-x="478" 
d="M18 488h82q8 0 10.5 -2.5t4.5 -7.5l64 -225q13 -45 24 -90.5t17 -77.5h1q5 14 13.5 33.5t18.5 41t20.5 42.5t18.5 38l118 238q3 6 5.5 8t10.5 2h79l-369 -724l-82 29l112 205zM139 669h80q7 0 12 -2.5t3 -13.5l-9 -82h-97zM318 669h80q7 0 12 -2.5t3 -13.5l-9 -82h-97z
" />
    <glyph glyph-name="zacute" unicode="&#x17a;" horiz-adv-x="445" 
d="M57 420l9 68h372l-4 -38q-2 -11 -4.5 -16.5t-11.5 -16.5l-184 -217q-13 -15 -28.5 -33t-31 -35.5t-30.5 -34t-26 -28.5h275l-8 -69h-381l4 38q2 11 4.5 16.5t11.5 16.5l184 217q13 15 28.5 33t31.5 36t31 34.5t26 28.5h-268zM178 539l-25 42l195 139q13 10 19 -3l34 -60z
" />
    <glyph glyph-name="zcaron" unicode="&#x17e;" horiz-adv-x="445" 
d="M57 420l9 68h372l-4 -38q-2 -11 -4.5 -16.5t-11.5 -16.5l-184 -217q-13 -15 -28.5 -33t-31 -35.5t-30.5 -34t-26 -28.5h275l-8 -69h-381l4 38q2 11 4.5 16.5t11.5 16.5l184 217q13 15 28.5 33t31.5 36t31 34.5t26 28.5h-268zM118 685l41 36l110 -100h3l134 100l32 -36
l-136 -127q-7 -6 -12 -8.5t-16 -2.5h-23q-11 0 -15.5 1.5t-9.5 8.5z" />
    <glyph glyph-name="zdotaccent" unicode="&#x17c;" horiz-adv-x="445" 
d="M57 420l9 68h372l-4 -38q-2 -11 -4.5 -16.5t-11.5 -16.5l-184 -217q-13 -15 -28.5 -33t-31 -35.5t-30.5 -34t-26 -28.5h275l-8 -69h-381l4 38q2 11 4.5 16.5t11.5 16.5l184 217q13 15 28.5 33t31.5 36t31 34.5t26 28.5h-268zM221 660h83q8 0 13 -3t3 -14l-9 -85h-101z
" />
    <glyph glyph-name="apple" unicode="&#xf8ff;" horiz-adv-x="536" 
d="M208 357q0 13 9.5 22t21.5 9q13 0 21.5 -9t8.5 -22t-8.5 -21.5t-21.5 -8.5q-12 0 -21.5 8.5t-9.5 21.5zM405 357q0 13 9.5 22t21.5 9q13 0 21.5 -9t8.5 -22t-8.5 -21.5t-21.5 -8.5q-12 0 -21.5 8.5t-9.5 21.5zM78 161q0 13 8.5 21.5t21.5 8.5q12 0 21.5 -8.5t9.5 -21.5
t-9.5 -22t-21.5 -9q-13 0 -21.5 9t-8.5 22zM78 357q0 13 8.5 22t21.5 9q12 0 21.5 -9t9.5 -22t-9.5 -21.5t-21.5 -8.5q-13 0 -21.5 8.5t-8.5 21.5zM275 357q0 13 8.5 22t21.5 9q12 0 21.5 -9t9.5 -22t-9.5 -21.5t-21.5 -8.5q-13 0 -21.5 8.5t-8.5 21.5zM340 620q0 12 8.5 21
t22.5 9q11 0 20.5 -9t9.5 -21q0 -14 -9.5 -22.5t-20.5 -8.5q-14 0 -22.5 8.5t-8.5 22.5zM78 620q0 12 8.5 21t21.5 9q12 0 21.5 -9t9.5 -21q0 -14 -9.5 -22.5t-21.5 -8.5q-13 0 -21.5 8.5t-8.5 22.5zM275 620q0 12 8.5 21t21.5 9q12 0 21.5 -9t9.5 -21q0 -14 -9.5 -22.5
t-21.5 -8.5q-13 0 -21.5 8.5t-8.5 22.5zM405 620q0 12 9.5 21t21.5 9q13 0 21.5 -9t8.5 -21q0 -14 -8.5 -22.5t-21.5 -8.5q-12 0 -21.5 8.5t-9.5 22.5zM208 620q0 12 9.5 21t21.5 9q13 0 21.5 -9t8.5 -21q0 -14 -8.5 -22.5t-21.5 -8.5q-12 0 -21.5 8.5t-9.5 22.5zM340 357
q0 13 8.5 22t22.5 9q11 0 20.5 -9t9.5 -22t-9.5 -21.5t-20.5 -8.5q-14 0 -22.5 8.5t-8.5 21.5zM208 30q0 12 9.5 21.5t21.5 9.5q13 0 21.5 -9.5t8.5 -21.5q0 -13 -8.5 -21.5t-21.5 -8.5q-12 0 -21.5 8.5t-9.5 21.5zM78 30q0 12 8.5 21.5t21.5 9.5q12 0 21.5 -9.5t9.5 -21.5
q0 -13 -9.5 -21.5t-21.5 -8.5q-13 0 -21.5 8.5t-8.5 21.5zM208 95q0 14 9.5 22t21.5 8q13 0 21.5 -8t8.5 -22q0 -13 -8.5 -21.5t-21.5 -8.5q-12 0 -21.5 8.5t-9.5 21.5zM78 95q0 14 8.5 22t21.5 8q12 0 21.5 -8t9.5 -22q0 -13 -9.5 -21.5t-21.5 -8.5q-13 0 -21.5 8.5
t-8.5 21.5zM144 620q0 12 9 21t21 9q13 0 21.5 -9t8.5 -21q0 -14 -8.5 -22.5t-21.5 -8.5q-12 0 -21 8.5t-9 22.5zM78 489q0 12 8.5 20.5t21.5 8.5q12 0 21.5 -8.5t9.5 -20.5q0 -13 -9.5 -22t-21.5 -9q-13 0 -21.5 9t-8.5 22zM275 489q0 12 8.5 20.5t21.5 8.5q12 0 21.5 -8.5
t9.5 -20.5q0 -13 -9.5 -22t-21.5 -9q-13 0 -21.5 9t-8.5 22zM208 489q0 12 9.5 20.5t21.5 8.5q13 0 21.5 -8.5t8.5 -20.5q0 -13 -8.5 -22t-21.5 -9q-12 0 -21.5 9t-9.5 22zM405 489q0 12 9.5 20.5t21.5 8.5q13 0 21.5 -8.5t8.5 -20.5q0 -13 -8.5 -22t-21.5 -9q-12 0 -21.5 9
t-9.5 22zM340 489q0 12 8.5 20.5t22.5 8.5q11 0 20.5 -8.5t9.5 -20.5q0 -13 -9.5 -22t-20.5 -9q-14 0 -22.5 9t-8.5 22zM144 30q0 12 9 21.5t21 9.5q13 0 21.5 -9.5t8.5 -21.5q0 -13 -8.5 -21.5t-21.5 -8.5q-12 0 -21 8.5t-9 21.5zM78 292q0 12 8.5 21t21.5 9q12 0 21.5 -9
t9.5 -21q0 -13 -9.5 -21.5t-21.5 -8.5q-13 0 -21.5 8.5t-8.5 21.5zM78 554q0 12 8.5 21t21.5 9q12 0 21.5 -9t9.5 -21q0 -13 -9.5 -21.5t-21.5 -8.5q-13 0 -21.5 8.5t-8.5 21.5zM405 292q0 12 9.5 21t21.5 9q13 0 21.5 -9t8.5 -21q0 -13 -8.5 -21.5t-21.5 -8.5
q-12 0 -21.5 8.5t-9.5 21.5zM78 423q0 13 8.5 21.5t21.5 8.5q12 0 21.5 -8.5t9.5 -21.5t-9.5 -21t-21.5 -8q-13 0 -21.5 8t-8.5 21zM208 423q0 13 9.5 21.5t21.5 8.5q13 0 21.5 -8.5t8.5 -21.5t-8.5 -21t-21.5 -8q-12 0 -21.5 8t-9.5 21zM208 227q0 12 9.5 20.5t21.5 8.5
q13 0 21.5 -8.5t8.5 -20.5q0 -13 -8.5 -21.5t-21.5 -8.5q-12 0 -21.5 8.5t-9.5 21.5zM405 227q0 12 9.5 20.5t21.5 8.5q13 0 21.5 -8.5t8.5 -20.5q0 -13 -8.5 -21.5t-21.5 -8.5q-12 0 -21.5 8.5t-9.5 21.5zM78 227q0 12 8.5 20.5t21.5 8.5q12 0 21.5 -8.5t9.5 -20.5
q0 -13 -9.5 -21.5t-21.5 -8.5q-13 0 -21.5 8.5t-8.5 21.5zM275 227q0 12 8.5 20.5t21.5 8.5q12 0 21.5 -8.5t9.5 -20.5q0 -13 -9.5 -21.5t-21.5 -8.5q-13 0 -21.5 8.5t-8.5 21.5zM340 227q0 12 8.5 20.5t22.5 8.5q11 0 20.5 -8.5t9.5 -20.5q0 -13 -9.5 -21.5t-20.5 -8.5
q-14 0 -22.5 8.5t-8.5 21.5z" />
    </font>
</defs>
</svg>
