<?xml version="1.0" standalone="no"?>
<!DOCTYPE svg PUBLIC "-//W3C//DTD SVG 1.1//EN" "http://www.w3.org/Graphics/SVG/1.1/DTD/svg11.dtd" >
<svg xmlns="http://www.w3.org/2000/svg">
<metadata>
Copyright (c) 2013 by Fontsmith Ltd. All rights reserved.
</metadata>
<defs>
<font id="FSEmericWeb-Heavy" horiz-adv-x="682" >
  <font-face 
    font-family="FS Emeric Web Heavy"
    font-weight="900"
    font-stretch="normal"
    units-per-em="1000"
    panose-1="2 0 5 3 4 0 0 2 0 4"
    ascent="731"
    descent="-269"
    x-height="488"
    cap-height="663"
    bbox="-59 -323 1349 1144"
    underline-thickness="50"
    underline-position="-50"
    unicode-range="U+000D-FB04"
  />
<missing-glyph horiz-adv-x="594" 
d="M65 650h464v-650h-464v650zM455 604h-316l159 -237zM483 88v474l-158 -237zM455 47l-157 236l-159 -236h316zM112 88l157 237l-157 237v-474z" />
    <glyph glyph-name="fi" unicode="fi" horiz-adv-x="689" 
d="M92 484q-8 17 -13.5 36t-5.5 41q0 34 12.5 62t35.5 49q26 25 65 38.5t89 13.5q48 0 98.5 -17.5t90.5 -47.5l-38 -92l-45 9q-23 5 -40 7.5t-32 2.5q-27 0 -46.5 -11.5t-19.5 -41.5q0 -11 3 -23t9 -22h161v-129h-153v-359h-168v359h-91v102zM467 488h168v-488h-168v488z
" />
    <glyph glyph-name="fl" unicode="fl" horiz-adv-x="728" 
d="M402 580l-38 4q-14 2 -28.5 3t-27.5 1q-32 0 -48.5 -12.5t-16.5 -41.5q0 -11 3 -23.5t9 -22.5h157v-129h-149v-359h-168v359h-91v102l88 23q-8 17 -13.5 38t-5.5 41q0 39 14.5 69t39 50.5t57.5 31t70 10.5q47 0 87.5 -12t81.5 -35zM720 24q-22 -11 -52.5 -19t-57.5 -8
q-32 0 -59 10.5t-45 29.5q-17 17 -25.5 42t-8.5 61v569h168v-579l80 -22v-84z" />
    <glyph glyph-name="f_f" unicode="ff" horiz-adv-x="809" 
d="M471 488q-11 30 -11 67q0 45 16.5 77t43 52.5t60.5 30t70 9.5q50 0 102 -18.5t90 -46.5l-38 -92l-43 9q-22 5 -39 7.5t-31 2.5q-62 0 -62 -56q0 -10 2 -22t4 -20h159v-129h-153v-359h-168v359h-210v-359h-168v359h-91v102l86 23q-9 30 -9 66q0 40 14 71t39 52t59 31.5
t74 10.5q45 0 90 -13.5t80 -33.5l-23 -96l-44 4q-14 2 -28 2.5t-25 0.5q-29 0 -48 -11.5t-19 -43.5q0 -21 3 -36h218z" />
    <glyph glyph-name="f_f_i" unicode="ffi" horiz-adv-x="1067" 
d="M471 488q-11 30 -11 67q0 45 16.5 77t43 52.5t60.5 30t70 9.5q50 0 102 -18.5t90 -46.5l-38 -92l-43 9q-22 5 -39 7.5t-31 2.5q-62 0 -62 -56q0 -10 2 -22t4 -20h159v-129h-153v-359h-168v359h-210v-359h-168v359h-91v102l86 23q-9 30 -9 66q0 40 14 71t39 52t59 31.5
t74 10.5q45 0 90 -13.5t80 -33.5l-23 -96l-44 4q-14 2 -28 2.5t-25 0.5q-29 0 -48 -11.5t-19 -43.5q0 -21 3 -36h218zM845 488h168v-488h-168v488z" />
    <glyph glyph-name="f_j" unicode="fj" horiz-adv-x="689" 
d="M92 484q-8 17 -13.5 36t-5.5 41q0 34 12.5 62t35.5 49q26 25 65 38.5t89 13.5q48 0 98.5 -17.5t90.5 -47.5l-38 -92l-45 9q-23 5 -40 7.5t-32 2.5q-27 0 -46.5 -11.5t-19.5 -41.5q0 -11 3 -23t9 -22h161v-129h-153v-359h-168v359h-91v102zM635 -26q0 -51 -7 -86.5
t-25 -61.5q-20 -29 -55 -44t-82 -15q-27 0 -54.5 6t-49.5 16v87l58 11q31 6 39 15.5t8 32.5v553h168v-514z" />
    <glyph glyph-name="f_f_j" unicode="ffj" horiz-adv-x="1067" 
d="M471 488q-11 30 -11 67q0 45 16.5 77t43 52.5t60.5 30t70 9.5q50 0 102 -18.5t90 -46.5l-38 -92l-43 9q-22 5 -39 7.5t-31 2.5q-62 0 -62 -56q0 -10 2 -22t4 -20h159v-129h-153v-359h-168v359h-210v-359h-168v359h-91v102l86 23q-9 30 -9 66q0 40 14 71t39 52t59 31.5
t74 10.5q45 0 90 -13.5t80 -33.5l-23 -96l-44 4q-14 2 -28 2.5t-25 0.5q-29 0 -48 -11.5t-19 -43.5q0 -21 3 -36h218zM1013 -26q0 -51 -7 -86.5t-25 -61.5q-20 -29 -55 -44t-82 -15q-27 0 -54.5 6t-49.5 16v87l58 11q31 6 39 15.5t8 32.5v553h168v-514z" />
    <glyph glyph-name="f_f_l" unicode="ffl" horiz-adv-x="1101" 
d="M471 488q-5 14 -8 34t-3 38q0 39 14.5 69.5t39 51.5t57.5 32t70 11q41 0 83 -12t80 -34l-21 -96l-32 3q-14 2 -28.5 3t-27.5 1q-32 0 -49 -12.5t-17 -41.5q0 -10 2 -24.5t4 -22.5h155v-129h-149v-359h-168v359h-210v-359h-168v359h-91v102l86 23q-9 30 -9 66q0 40 14 71
t39 52t59 31.5t74 10.5q45 0 90 -13.5t80 -33.5l-23 -96l-44 4q-14 2 -28 2.5t-25 0.5q-29 0 -48 -11.5t-19 -43.5q0 -21 3 -36h218zM1093 24q-22 -11 -52.5 -19t-57.5 -8q-32 0 -59 10.5t-45 29.5q-17 17 -25.5 42t-8.5 61v569h168v-579l80 -22v-84z" />
    <glyph glyph-name="f_t" unicode="ft" horiz-adv-x="839" 
d="M263 359v-359h-168v359h-91v102l87 22q-8 13 -14 35t-6 41q0 39 15 70t40 52t58 32t70 11q40 0 81 -12t76 -32l-23 -97l-24 2q-14 2 -29 3t-27 1q-32 0 -47 -13t-15 -42q0 -11 2 -23.5t7 -22.5h203v135h168v-135h153v-129h-153v-169q0 -30 12 -42q14 -14 47 -14
q8 0 19 1.5t25 3.5l56 10l33 -94q-15 -13 -35 -24.5t-43.5 -20t-49.5 -13.5t-51 -5q-83 0 -133 48q-23 23 -35.5 56t-12.5 81v182h-195z" />
    <glyph glyph-name="f_f_t" unicode="fft" horiz-adv-x="1197" 
d="M641 359v-359h-168v359h-210v-359h-168v359h-91v102l86 23q-9 30 -9 66q0 40 14 71t39 52t59 31.5t74 10.5q45 0 88 -13t78 -33l-23 -96l-40 3q-14 2 -28 2.5t-25 0.5q-29 0 -48 -11.5t-19 -43.5q0 -21 3 -36h215q-5 14 -9 34t-4 37q0 39 14 70t38 52t56 32t69 11
q40 0 82 -12.5t77 -32.5l-23 -95l-26 2q-29 3 -54 3q-29 0 -44 -13t-15 -42q0 -11 2 -23.5t7 -22.5h191v135h168v-135h153v-129h-153v-169q0 -30 12 -42q14 -14 47 -14q8 0 19 1.5t25 3.5l56 10l33 -94q-15 -13 -35 -24.5t-43.5 -20t-49.5 -13.5t-51 -5q-83 0 -133 48
q-23 23 -35.5 56t-12.5 81v182h-188z" />
    <glyph glyph-name=".notdef" horiz-adv-x="594" 
d="M65 650h464v-650h-464v650zM455 604h-316l159 -237zM483 88v474l-158 -237zM455 47l-157 236l-159 -236h316zM112 88l157 237l-157 237v-474z" />
    <glyph glyph-name=".null" horiz-adv-x="0" 
 />
    <glyph glyph-name=".null" horiz-adv-x="0" 
 />
    <glyph glyph-name="nonmarkingreturn" unicode="&#xd;" horiz-adv-x="212" 
 />
    <glyph glyph-name="space" unicode=" " horiz-adv-x="212" 
 />
    <glyph glyph-name="nonbreakingspace" unicode="&#xa0;" horiz-adv-x="212" 
 />
    <glyph glyph-name="A" unicode="A" horiz-adv-x="726" 
d="M256 663h177q9 0 13 -2t8 -13l264 -648h-170q-9 0 -13.5 2.5t-8.5 12.5l-36 95h-265l-32 -95q-3 -10 -7.5 -12.5t-13.5 -2.5h-164zM352 494h-1q-5 -27 -20 -73.5t-39 -115.5l-18 -56h162l-20 56q-28 74 -43 117.5t-21 71.5z" />
    <glyph glyph-name="B" unicode="B" horiz-adv-x="686" 
d="M61 663h311q73 0 117.5 -12t73.5 -41q22 -21 33.5 -51.5t11.5 -63.5q0 -40 -17.5 -75.5t-43.5 -59.5q46 -20 74.5 -59t28.5 -97q0 -46 -14 -81t-40 -60q-64 -63 -213 -63h-322v663zM239 145h156q44 0 59 15t15 50q0 29 -14 43q-8 8 -22 11.5t-38 3.5h-156v-123zM396 398
q9 0 15 2t11 10t8 23.5t3 27.5q0 30 -13 43q-8 8 -21.5 11t-34.5 3h-125v-120h157z" />
    <glyph glyph-name="C" unicode="C" horiz-adv-x="702" 
d="M678 147q-24 -33 -59.5 -61.5t-78 -50t-89 -33.5t-93.5 -12q-76 0 -136.5 26.5t-103 72.5t-65 108t-22.5 134q0 79 26 142.5t71 108t106 68t132 23.5q105 0 182 -54t115 -150l-110 -71l-95 70q-31 23 -53 32t-50 9q-31 0 -56.5 -13t-43.5 -36t-28 -55t-10 -70
q0 -83 44 -128t116 -45q32 0 62 7.5t66 24.5l108 49z" />
    <glyph glyph-name="D" unicode="D" horiz-adv-x="730" 
d="M298 153q58 0 99 8t68 32q23 20 36 53.5t13 84.5t-13 85t-36 54q-27 24 -68 32t-99 8h-59v-357h59zM61 0v663h242q103 0 181 -23t131 -76q40 -40 62 -98t22 -135t-22 -134.5t-62 -97.5q-53 -53 -131 -76t-181 -23h-242z" />
    <glyph glyph-name="E" unicode="E" horiz-adv-x="636" 
d="M576 663v-147h-337v-109h307v-144h-307v-116h346v-147h-524v663h515z" />
    <glyph glyph-name="F" unicode="F" horiz-adv-x="597" 
d="M567 663v-147h-328v-144h296v-144h-296v-228h-178v663h506z" />
    <glyph glyph-name="G" unicode="G" horiz-adv-x="749" 
d="M568 418l-103 63q-27 17 -50 24t-52 7q-30 0 -56.5 -12t-46.5 -35t-31.5 -55.5t-11.5 -74.5q0 -85 44.5 -131.5t127.5 -46.5h2q15 0 31.5 1t32.5 3t30.5 5t25.5 6q6 2 7.5 5.5t1.5 8.5v57h-92v115h235q18 0 24.5 -5.5t6.5 -21.5v-331h-123l-28 57l-49 -28
q-36 -21 -70 -30t-73 -9q-74 0 -133 26.5t-100.5 72t-64 108t-22.5 134.5q0 79 27 142.5t74 108t110 68t134 23.5q52 0 99 -13.5t86 -37.5t68 -57t44 -72z" />
    <glyph glyph-name="H" unicode="H" horiz-adv-x="743" 
d="M504 263h-265v-263h-178v663h178v-247h265v247h178v-663h-178v263z" />
    <glyph glyph-name="I" unicode="I" horiz-adv-x="304" 
d="M241 0h-178v663h178v-663z" />
    <glyph glyph-name="J" unicode="J" horiz-adv-x="534" 
d="M48 170l76 -9q29 -3 55.5 -5t44.5 -2q22 0 37 3t25 12q15 15 15 59v435h178v-431q0 -60 -15 -106t-47 -78q-27 -27 -67 -42.5t-93 -15.5q-69 0 -128.5 17t-112.5 49z" />
    <glyph glyph-name="K" unicode="K" horiz-adv-x="700" 
d="M330 278q-19 -14 -44.5 -26t-45.5 -17v-235h-179v663h179v-284l323 292l103 -105l-206 -181l240 -385h-176q-14 0 -21.5 2.5t-15.5 16.5z" />
    <glyph glyph-name="L" unicode="L" horiz-adv-x="599" 
d="M64 663h178v-516h325v-147h-503v663z" />
    <glyph glyph-name="M" unicode="M" horiz-adv-x="863" 
d="M630 646q9 11 15.5 14t21.5 3h135v-663h-171v409h-1l-141 -175h-99q-11 0 -17.5 2.5t-12.5 10.5l-128 162h-1v-409h-170v663h144q15 0 21.5 -3t15.5 -14l193 -241h3z" />
    <glyph glyph-name="N" unicode="N" horiz-adv-x="750" 
d="M191 663q12 0 18 -2.5t13 -10.5l191 -238q35 -44 65 -83t44 -59h1v393h166v-663h-127q-12 0 -18 2.5t-13 10.5l-193 240q-16 19 -32.5 40t-31.5 40t-27 35t-19 27h-1v-395h-166v663h130z" />
    <glyph glyph-name="O" unicode="O" horiz-adv-x="746" 
d="M715 331q0 -78 -27.5 -141t-74 -107.5t-108.5 -68.5t-132 -24t-132 24t-108.5 68.5t-74 107.5t-27.5 141t27.5 141t74 107.5t108.5 69t132 24.5t132 -24.5t108.5 -69t74 -107.5t27.5 -141zM529 331q0 79 -40.5 123.5t-115.5 44.5t-115.5 -44.5t-40.5 -123.5t40.5 -123
t115.5 -44t115.5 44t40.5 123z" />
    <glyph glyph-name="P" unicode="P" horiz-adv-x="662" 
d="M239 195v-195h-178v663h286q83 0 138 -16t90 -51q57 -57 57 -163q0 -57 -15.5 -100.5t-44.5 -72.5q-33 -33 -80.5 -49t-122.5 -16h-130zM403 338q13 0 20 3.5t14 14.5q8 13 11.5 35.5t3.5 40.5q0 19 -5 36t-14 26q-12 12 -32.5 16t-55.5 4h-106v-176h164z" />
    <glyph glyph-name="Q" unicode="Q" horiz-adv-x="746" 
d="M715 331q0 -102 -46 -178t-120 -118l131 -161l-181 -80l-108 197q-5 -1 -9 -1h-9q-70 0 -132 24t-108.5 68.5t-74 107.5t-27.5 141t27.5 141t74 107.5t108.5 69t132 24.5t132 -24.5t108.5 -69t74 -107.5t27.5 -141zM529 331q0 79 -40.5 123.5t-115.5 44.5t-115.5 -44.5
t-40.5 -123.5t40.5 -123t115.5 -44t115.5 44t40.5 123z" />
    <glyph glyph-name="R" unicode="R" horiz-adv-x="701" 
d="M239 0h-178v663h290q84 0 139.5 -14.5t90.5 -48.5q27 -27 42 -66t15 -89q0 -71 -32 -123.5t-78 -81.5l149 -240h-177q-12 0 -17.5 3t-12.5 14l-101 172q-8 14 -13 17t-19 3h-98v-209zM407 350q13 0 20.5 3.5t15.5 14.5q8 13 11.5 33t3.5 35q0 18 -5.5 34.5t-13.5 24.5
q-12 11 -32 15t-53 4h-115v-164h168z" />
    <glyph glyph-name="S" unicode="S" horiz-adv-x="622" 
d="M136 170q56 -11 102.5 -17t78.5 -6q105 0 105 54q0 23 -21.5 33.5t-72.5 22.5l-66 16q-53 13 -95 29.5t-71.5 40.5t-45 57t-15.5 78q0 51 21.5 87.5t59 60.5t89 35.5t112.5 11.5q60 0 125.5 -13t118.5 -38l-29 -122l-81 8q-33 3 -69.5 5.5t-64.5 2.5q-57 0 -83.5 -6
t-26.5 -28q0 -17 20 -27t67 -21l62 -15q63 -15 108.5 -32.5t75 -40.5t43 -54.5t13.5 -76.5q0 -54 -20 -95.5t-56.5 -70.5t-87.5 -44t-112 -15q-81 0 -159 21.5t-137 54.5l42 118z" />
    <glyph glyph-name="T" unicode="T" horiz-adv-x="654" 
d="M238 516h-222v147h622v-147h-222v-516h-178v516z" />
    <glyph glyph-name="U" unicode="U" horiz-adv-x="719" 
d="M668 286q0 -73 -18 -126.5t-57 -91.5q-38 -37 -96.5 -57.5t-136.5 -20.5t-136.5 20.5t-96.5 57.5q-39 38 -57.5 91.5t-18.5 126.5v377h178v-390q0 -57 27 -81q16 -14 44 -22t62 -8t61 8t43 22q27 24 27 81v390h175v-377z" />
    <glyph glyph-name="V" unicode="V" horiz-adv-x="693" 
d="M507 651q2 8 5 10t11 2h174l-239 -663h-195q-11 0 -16.5 4.5t-9.5 14.5l-241 644h182q8 0 10.5 -1.5t5.5 -10.5l75 -219q32 -94 53 -163t31 -119h1q11 43 30.5 115.5t48.5 161.5z" />
    <glyph glyph-name="W" unicode="W" horiz-adv-x="1032" 
d="M649 474q25 -83 43.5 -159t31.5 -141h1q14 60 34 139t47 169l51 169q2 8 5 10t11 2h163l-199 -663h-196q-13 0 -17.5 2.5t-7.5 13.5l-22 85q-11 40 -22 84t-21.5 87t-19.5 82.5t-15 70.5h-1q-5 -29 -13.5 -67.5t-18.5 -81t-21 -85.5t-21 -80l-31 -111h-197q-13 0 -18 2.5
t-8 13.5l-191 647h172q8 0 11 -2t6 -11l49 -168q11 -37 22.5 -79.5t22 -84t19 -79.5t13.5 -65h1q12 56 29 130t46 170l56 189h136q9 0 12.5 -3t5.5 -11z" />
    <glyph glyph-name="X" unicode="X" horiz-adv-x="739" 
d="M476 337l262 -337h-195q-9 0 -13.5 2.5t-10.5 10.5l-156 207l-156 -211q-5 -6 -8.5 -7.5t-10.5 -1.5h-187l259 346l-243 317h195q9 0 13.5 -2.5t10.5 -10.5l140 -186l142 186q6 8 10.5 10.5t13.5 2.5h179z" />
    <glyph glyph-name="Y" unicode="Y" horiz-adv-x="713" 
d="M363 347q16 39 39 84.5t55 105.5l61 114q5 8 8.5 10t11.5 2h185l-275 -463v-200h-178v200l-280 463h193q8 0 11.5 -2t8.5 -10l66 -118q18 -33 32 -58.5t24.5 -47t19.5 -41t17 -39.5h1z" />
    <glyph glyph-name="Z" unicode="Z" horiz-adv-x="649" 
d="M235 366q18 22 37 44.5t37.5 42.5t34 36.5t26.5 26.5h-332v147h566v-100q0 -14 -3.5 -22.5t-14.5 -22.5l-185 -221q-17 -20 -35.5 -41.5t-36.5 -41.5t-33.5 -37.5t-27.5 -29.5h340v-147h-573v100q0 14 3.5 22.5t14.5 22.5z" />
    <glyph glyph-name="a" unicode="a" horiz-adv-x="562" 
d="M317 310q0 15 -4 24t-11 14q-10 8 -24.5 10t-31.5 2q-24 0 -52 -4.5t-64 -15.5l-41 -12l-47 87q46 38 105.5 59.5t119.5 21.5q50 0 94 -14t75 -44q23 -23 36 -56t13 -81v-177l66 -16v-84q-20 -11 -48 -19t-51 -8q-29 0 -53 10.5t-51 33.5l-32 -18q-26 -14 -56 -22.5
t-59 -8.5q-40 0 -73 12t-57 33.5t-37.5 51.5t-13.5 66t13.5 63t36 45t53 26.5t64.5 8.5t68 -8t62 -22v42zM317 179q0 5 -1.5 6t-7.5 1h-108q-15 0 -21 -7q-4 -5 -4 -16q0 -20 15.5 -34.5t44.5 -14.5q17 0 39 5t35 11q8 4 8 12v37z" />
    <glyph glyph-name="b" unicode="b" horiz-adv-x="584" 
d="M220 454l14 8q32 17 60.5 25.5t56.5 8.5q43 0 80.5 -17.5t65.5 -50.5t44.5 -79.5t16.5 -104.5q0 -57 -16 -103.5t-44 -79.5t-66 -51t-82 -18q-31 0 -58 8t-53 22l-40 22l-19 -44h-128v709h168v-255zM387 244q0 54 -21 76.5t-67 22.5q-18 0 -36.5 -3t-32.5 -8
q-5 -2 -7.5 -4.5t-2.5 -10.5v-146q0 -8 2.5 -10.5t7.5 -4.5q14 -5 32.5 -8.5t36.5 -3.5q46 0 67 23t21 77z" />
    <glyph glyph-name="c" unicode="c" horiz-adv-x="530" 
d="M514 94q-19 -21 -45.5 -39.5t-58 -32.5t-65.5 -22t-68 -8q-56 0 -102 18t-80 51t-52.5 80t-18.5 105q0 57 20.5 103.5t55 79t79.5 50t94 17.5q47 0 86 -14t68.5 -38.5t49.5 -57.5t29 -70l-110 -52l-42 42q-26 26 -43 35.5t-39 9.5q-32 0 -54.5 -26.5t-22.5 -76.5
q0 -57 28 -83.5t76 -26.5q20 0 46 6t46 14l71 26z" />
    <glyph glyph-name="d" unicode="d" horiz-adv-x="585" 
d="M386 44l-41 -22q-56 -30 -112 -30q-45 0 -83 17.5t-65.5 50.5t-43 79.5t-15.5 104.5q0 57 16.5 103.5t46 79.5t69 51t84.5 18q32 0 61.5 -10t61.5 -27v250h168v-709h-128zM197 244q0 -55 21.5 -77.5t67.5 -22.5q18 0 36.5 3.5t32.5 8.5q5 2 7.5 4.5t2.5 10.5v150
q0 7 -2.5 9t-7.5 4q-12 4 -31 7t-39 3q-45 0 -66.5 -23t-21.5 -77z" />
    <glyph glyph-name="e" unicode="e" horiz-adv-x="551" 
d="M194 198q5 -31 31.5 -49.5t73.5 -18.5q22 0 48.5 4.5t47.5 9.5l70 18l48 -90q-42 -35 -103 -57.5t-124 -22.5q-57 0 -106.5 18t-84.5 53q-33 32 -52 78t-19 102q0 58 20.5 104.5t55 79.5t80 51t95.5 18q54 0 99.5 -18.5t78.5 -51t52 -75.5t19 -91q0 -31 -3 -44
q-4 -18 -21 -18h-306zM362 301q-4 34 -27.5 50t-55.5 16t-56 -15.5t-28 -50.5h167z" />
    <glyph glyph-name="f" unicode="f" horiz-adv-x="431" 
d="M92 484q-8 17 -13.5 36t-5.5 41q0 34 12.5 62t35.5 49q26 25 65 38.5t89 13.5q48 0 98.5 -15.5t90.5 -46.5l-38 -97l-45 9q-23 5 -40 7.5t-32 2.5q-27 0 -46.5 -10.5t-19.5 -40.5q0 -11 3 -23t9 -22h161v-129h-153v-359h-168v359h-91v102z" />
    <glyph glyph-name="g" unicode="g" horiz-adv-x="578" 
d="M505 298q0 -49 -19.5 -85.5t-52 -61t-74.5 -36.5t-87 -12q-25 0 -53 5q-8 2 -9 0t-3 -7l-5 -20q-2 -8 1 -10.5t11 -2.5h146q102 0 148 -43q37 -35 37 -95q0 -44 -21.5 -80.5t-59 -62t-88 -39.5t-109.5 -14q-55 0 -104 11.5t-85.5 33t-58 51.5t-21.5 66q0 28 15.5 48
t42.5 37q-20 18 -20 44q0 22 13.5 42t37.5 49l28 35q-35 25 -55.5 60.5t-20.5 86.5q0 49 19.5 86t52 62t74.5 37.5t87 12.5q38 0 74 -9.5t66 -27.5l12 11q27 24 46 34.5t44 10.5q17 0 35.5 -5t38.5 -17v-96l-90 -14q-8 -1 -8.5 -5t1.5 -9q14 -34 14 -71zM348 298
q0 35 -21 51t-55 16t-55.5 -16t-21.5 -51t21.5 -51t55.5 -16t55 16t21 51zM177 -51q-18 0 -18 -27q0 -22 25.5 -38t89.5 -16q57 0 84 16t27 40q0 25 -35 25h-173z" />
    <glyph glyph-name="h" unicode="h" horiz-adv-x="573" 
d="M220 709v-254q34 20 63 30.5t62 10.5q37 0 69.5 -13t57.5 -36q27 -26 41.5 -62t14.5 -87v-298h-168v292q0 26 -12 37q-14 13 -55 13q-37 0 -65 -9q-6 -2 -7 -5.5t-1 -8.5v-319h-168v709h168z" />
    <glyph glyph-name="i" unicode="i" horiz-adv-x="276" 
d="M54 488h168v-488h-168v488zM54 709h124q25 0 34.5 -9t9.5 -30v-118h-168v157z" />
    <glyph glyph-name="j" unicode="j" horiz-adv-x="280" 
d="M58 488h168v-514q0 -51 -7 -86.5t-25 -61.5q-20 -29 -55 -44t-82 -15q-27 0 -60 6t-55 16v87l69 11q31 5 39 15t8 33v553zM58 709h124q25 0 34.5 -9t9.5 -30v-118h-168v157z" />
    <glyph glyph-name="k" unicode="k" horiz-adv-x="592" 
d="M406 282l188 -282h-166q-13 0 -19 3.5t-12 12.5l-117 183q-15 -8 -30.5 -14t-29.5 -10v-175h-168v709h168v-399l255 198l89 -103z" />
    <glyph glyph-name="l" unicode="l" horiz-adv-x="307" 
d="M301 24q-22 -11 -52.5 -19t-57.5 -8q-32 0 -59 10.5t-45 29.5q-17 17 -25.5 42t-8.5 61v569h168v-579l80 -22v-84z" />
    <glyph glyph-name="m" unicode="m" horiz-adv-x="861" 
d="M182 488l18 -46l25 15q29 18 58 28.5t62 10.5q82 0 131 -61l34 20q37 21 68.5 31t64.5 10q40 0 71.5 -14.5t53.5 -38.5q48 -54 48 -145v-298h-168v292q0 15 -3 23.5t-8 13.5q-13 13 -48 13q-16 0 -32.5 -2t-30.5 -7q-6 -2 -7 -5.5t-1 -8.5v-319h-168v292q0 15 -3 23.5
t-8 13.5q-13 13 -48 13q-16 0 -32.5 -2t-30.5 -7q-6 -2 -7 -5.5t-1 -8.5v-319h-168v488h130z" />
    <glyph glyph-name="n" unicode="n" horiz-adv-x="573" 
d="M182 488l18 -45l25 15q30 18 58.5 28t61.5 10q37 0 69.5 -13t57.5 -36q27 -26 41.5 -62t14.5 -87v-298h-168v292q0 26 -12 37q-14 13 -55 13q-37 0 -65 -9q-6 -2 -7 -5.5t-1 -8.5v-319h-168v488h130z" />
    <glyph glyph-name="o" unicode="o" horiz-adv-x="564" 
d="M540 244q0 -58 -19.5 -104.5t-54 -79.5t-82 -50.5t-102.5 -17.5t-102.5 17.5t-82 50.5t-54 79.5t-19.5 104.5t19.5 104.5t54 79.5t82 50.5t102.5 17.5t102.5 -17.5t82 -50.5t54 -79.5t19.5 -104.5zM369 244q0 56 -23.5 78t-63.5 22t-63.5 -22t-23.5 -78t23.5 -78
t63.5 -22t63.5 22t23.5 78z" />
    <glyph glyph-name="p" unicode="p" horiz-adv-x="584" 
d="M234 462q32 17 60.5 25.5t56.5 8.5q43 0 80.5 -17.5t65.5 -50.5t44.5 -79.5t16.5 -104.5q0 -57 -16 -103.5t-44 -79.5t-66 -51t-82 -18q-31 0 -58 8t-53 22l-19 10v-261h-168v717h130l17 -44zM387 244q0 54 -21 76.5t-67 22.5q-18 0 -36.5 -3t-32.5 -8q-5 -2 -7.5 -4.5
t-2.5 -10.5v-146q0 -8 2.5 -10.5t7.5 -4.5q14 -5 32.5 -8.5t36.5 -3.5q46 0 67 23t21 77z" />
    <glyph glyph-name="q" unicode="q" horiz-adv-x="585" 
d="M241 496q33 0 63.5 -10.5t62.5 -28.5l20 -11l18 42h128v-717h-168v261l-20 -10q-56 -30 -112 -30q-45 0 -83 17.5t-65.5 50.5t-43 79.5t-15.5 104.5q0 57 16.5 103.5t45.5 79.5t68.5 51t84.5 18zM197 244q0 -55 21.5 -77.5t67.5 -22.5q18 0 36.5 3.5t32.5 8.5
q5 2 7.5 4.5t2.5 10.5v150q0 7 -2.5 9t-7.5 4q-12 4 -31 7t-39 3q-45 0 -66.5 -23t-21.5 -77z" />
    <glyph glyph-name="r" unicode="r" horiz-adv-x="407" 
d="M200 420l30 24q35 29 58.5 40.5t47.5 11.5q17 0 34 -6t33 -15v-116l-57 -13q-36 -8 -67 -16t-46 -13q-8 -3 -10.5 -6t-2.5 -11v-300h-168v488h130z" />
    <glyph glyph-name="s" unicode="s" horiz-adv-x="503" 
d="M426 353l-56 6q-34 4 -64.5 6t-52.5 2q-42 0 -56.5 -4.5t-14.5 -15.5q0 -8 9 -12.5t34 -9.5l63 -12q45 -9 80 -20t59.5 -28t37 -42.5t12.5 -63.5q0 -36 -13.5 -66.5t-40.5 -53t-68.5 -35t-97.5 -12.5q-60 0 -124 17.5t-109 44.5l36 100l63 -14q42 -9 77.5 -14t63.5 -5
q64 0 64 26q0 10 -8.5 14t-25.5 8l-71 14q-45 9 -79.5 21.5t-58.5 30.5q-51 39 -51 109q0 75 59.5 113.5t160.5 38.5q51 0 102.5 -9.5t94.5 -28.5z" />
    <glyph glyph-name="t" unicode="t" horiz-adv-x="469" 
d="M451 55q-15 -13 -35 -24.5t-43.5 -20t-49.5 -13.5t-51 -5q-83 0 -133 48q-23 23 -35.5 56t-12.5 81v182h-91v102l91 25v143h168v-141h153v-129h-153v-169q0 -30 12 -42q14 -14 47 -14q8 0 19 1.5t25 3.5l56 10z" />
    <glyph glyph-name="u" unicode="u" horiz-adv-x="573" 
d="M391 0l-18 45l-25 -15q-30 -18 -58.5 -28t-61.5 -10q-37 0 -69.5 13t-57.5 36q-27 26 -41.5 62t-14.5 87v298h168v-292q0 -26 12 -37q14 -13 55 -13q36 0 65 9q6 2 7 5.5t1 8.5v319h168v-488h-130z" />
    <glyph glyph-name="v" unicode="v" horiz-adv-x="558" 
d="M569 488l-195 -488h-164q-11 0 -15 3t-7 10l-199 475h166q13 0 16.5 -2.5t8.5 -13.5l54 -150q17 -48 31 -86.5t22 -70.5h1q8 32 20 70.5t27 86.5l48 150q4 11 8 13.5t17 2.5h161z" />
    <glyph glyph-name="w" unicode="w" horiz-adv-x="856" 
d="M547 359q11 -34 19.5 -62t16 -52t13 -46t10.5 -43h1q8 42 19.5 89t30.5 113l32 114q3 9 7.5 12.5t16.5 3.5h155l-168 -488h-171q-12 0 -17.5 3.5t-8.5 12.5l-36 117q-28 92 -39 143h-1q-5 -24 -14.5 -61t-23.5 -82l-41 -133h-172q-12 0 -17 4t-8 12l-163 472h162
q12 0 17 -3.5t8 -12.5l31 -113q18 -66 30 -112.5t22 -89.5h1q8 42 21 91t32 111l40 129h135q11 0 16 -3t8 -13z" />
    <glyph glyph-name="x" unicode="x" horiz-adv-x="560" 
d="M387 0q-9 0 -14.5 2.5t-11.5 10.5l-92 135h-1l-89 -135q-5 -8 -10 -10.5t-16 -2.5h-167l180 251v1l-172 236h184q11 0 16 -2t11 -11l79 -122h1l83 122q7 10 11 11.5t15 1.5h162l-171 -238v-1l186 -249h-184z" />
    <glyph glyph-name="y" unicode="y" horiz-adv-x="558" 
d="M155 488q13 0 16.5 -2.5t8.5 -13.5l54 -150q16 -43 29 -82.5t24 -74.5h1q8 31 20.5 71.5t26.5 85.5l48 150q4 11 8 13.5t17 2.5h161l-299 -738l-160 39l90 200l-211 499h166z" />
    <glyph glyph-name="z" unicode="z" horiz-adv-x="513" 
d="M476 414q0 -11 -2 -19t-13 -22l-75 -90q-49 -59 -81.5 -94t-58.5 -59h235v-130h-451v73q0 12 2 19.5t13 21.5l73 88q42 51 78.5 90t65.5 67h-226v129h440v-74z" />
    <glyph glyph-name="ampersand" unicode="&#x26;" horiz-adv-x="746" 
d="M543 504q0 -48 -27.5 -92.5t-90.5 -86.5l75 -69l89 164l93 -31q-4 -22 -12.5 -49.5t-20 -57t-26 -58.5t-30.5 -54l47 -44l90 -21v-76q-13 -12 -38 -22t-54 -10q-38 0 -72 12.5t-71 44.5q-38 -29 -88.5 -46.5t-102.5 -17.5q-57 0 -107 16.5t-87 45.5t-58.5 70t-21.5 90
q0 64 36.5 104.5t99.5 66.5q-20 28 -28.5 53.5t-8.5 56.5q0 43 18 76.5t48 56.5t68 35t77 12q44 0 81.5 -12.5t64.5 -35t42 -53.5t15 -68zM231 308q-41 -30 -41 -74q0 -22 9.5 -40.5t26 -32.5t39 -22t49.5 -8q21 0 42.5 4.5t40.5 13.5zM281 488q0 -10 2.5 -18.5t9 -17.5
t17 -19.5t26.5 -25.5l14 -13l11 11q28 28 37 46.5t9 35.5q0 24 -17.5 40t-45.5 16q-29 0 -46 -16t-17 -39z" />
    <glyph glyph-name="at" unicode="@" horiz-adv-x="776" 
d="M424 290q0 14 -9 21t-32 7q-15 0 -34.5 -3t-36.5 -7l-30 -7l-25 55q27 24 64.5 38t75.5 14q73 0 109 -37q14 -15 21.5 -37.5t7.5 -55.5v-80q0 -17 7.5 -26.5t24.5 -9.5q8 0 16.5 4t16 15t12.5 31.5t5 52.5q0 40 -14.5 77.5t-43 66.5t-70 46.5t-94.5 17.5q-51 0 -93.5 -15
t-73 -43.5t-48 -69.5t-17.5 -92t15.5 -95t47 -76t78.5 -50t110 -18q37 0 80 6.5t78 15.5l97 25l33 -68q-23 -20 -57.5 -36.5t-75 -29t-85.5 -19.5t-89 -7q-80 0 -146 26.5t-113.5 72.5t-74 109t-26.5 137q0 77 28 139.5t76.5 106.5t113 68t137.5 24q75 0 138 -24.5
t108.5 -66.5t71 -96.5t25.5 -114.5q0 -54 -15.5 -93t-41.5 -64q-25 -25 -58.5 -36.5t-69.5 -11.5q-34 0 -59.5 10t-39.5 26l-24 -11q-35 -17 -67 -17q-26 0 -47 8.5t-36 22.5t-23.5 33.5t-8.5 40.5q0 24 8.5 41t23 28.5t33.5 16.5t39 5q42 0 77 -16v25zM424 204q0 3 -3 3
h-64q-12 0 -12 -12q0 -11 9 -19t26 -8q9 0 21 3t20 7q3 1 3 5v21z" />
    <glyph glyph-name="exclam" unicode="!" horiz-adv-x="306" 
d="M212 159q26 0 26 -26v-133h-170v159h144zM238 514q0 -37 -3 -73.5t-11 -87.5l-19 -130h-104l-19 130q-8 51 -11 87.5t-3 73.5v149h170v-149z" />
    <glyph glyph-name="exclamdown" unicode="&#xa1;" horiz-adv-x="306" 
d="M91.9941 328.979q-25.998 0 -25.998 25.999v132.992h169.989v-158.991h-143.991zM65.9961 -25.998q0 36.9971 3 73.4951t10.999 87.4951l18.999 129.991h103.993l18.999 -129.991q8 -50.9971 10.999 -87.4951q3 -36.498 3 -73.4951v-148.991h-169.989v148.991z" />
    <glyph glyph-name="question" unicode="?" horiz-adv-x="554" 
d="M188 209l-12 74q-5 33 2.5 50.5t35.5 33.5l41 23q25 14 42 24.5t27 19.5t14 17.5t4 19.5q0 26 -22 38.5t-54 12.5q-26 0 -53 -6t-65 -18l-66 -22l-58 101q58 48 122.5 72t127.5 24q59 0 105 -15.5t78 -44.5q27 -25 42 -58.5t15 -74.5q0 -77 -48.5 -124t-143.5 -76
l-16 -71h-118zM306 153q26 0 26 -26v-127h-164v153h138z" />
    <glyph glyph-name="questiondown" unicode="&#xbf;" horiz-adv-x="554" 
d="M369.978 278.983l11.999 -73.9961q5 -32.998 -2.5 -50.4971q-7.49902 -17.499 -35.498 -33.498l-40.9971 -22.998q-24.998 -13.999 -41.9971 -24.499q-16.999 -10.499 -26.999 -19.498q-9.99902 -9 -13.999 -17.499q-4 -8.5 -4 -19.499q0 -25.998 21.999 -38.498
q21.999 -12.499 53.9971 -12.499q25.998 0 52.9961 6q26.999 5.99902 64.9961 17.999l65.9961 21.998l57.9971 -100.993q-57.9971 -47.9971 -122.493 -71.9961q-64.4961 -23.998 -127.492 -23.998q-58.9961 0 -104.993 15.499t-77.9951 44.4971
q-26.999 24.998 -41.998 58.4961t-14.999 74.4961q0 76.9951 48.4971 123.992t143.491 75.9951l15.999 70.9961h117.993zM251.984 334.979q-25.998 0 -25.998 25.998v126.993h163.99v-152.991h-137.992z" />
    <glyph glyph-name="asterisk" unicode="*" horiz-adv-x="495" 
d="M343 265q-9 -7 -15 -5t-11 10l-67 130l-76 -148l-98 67q-19 13 2 31l113 100l-156 19l40 97q5 11 10.5 14t17.5 -4l109 -67l-35 154h123q21 0 17 -19l-30 -133l129 76l41 -99q9 -20 -17 -23l-132 -15l134 -119z" />
    <glyph glyph-name="period" unicode="." horiz-adv-x="258" 
d="M173 171q25 0 34.5 -9t9.5 -30v-132h-176v171h132z" />
    <glyph glyph-name="comma" unicode="," horiz-adv-x="257" 
d="M40 171h132q25 0 34.5 -9.5t9.5 -30.5v-71q0 -35 -3.5 -61.5t-18 -52t-42 -54.5t-75.5 -70l-60 45l71 116q10 15 -6 24l-15 9q-17 11 -22 19t-5 27v109z" />
    <glyph glyph-name="colon" unicode=":" horiz-adv-x="258" 
d="M173 171q25 0 34.5 -9t9.5 -30v-132h-176v171h132zM173 469q25 0 34.5 -9t9.5 -30v-132h-176v171h132z" />
    <glyph glyph-name="semicolon" unicode=";" horiz-adv-x="257" 
d="M172 469q25 0 34.5 -9t9.5 -30v-132h-176v171h132zM40 171h132q25 0 34.5 -9.5t9.5 -30.5v-71q0 -35 -3.5 -61.5t-18 -52t-42 -54.5t-75.5 -70l-60 45l71 116q10 15 -6 24l-15 9q-17 11 -22 19t-5 27v109z" />
    <glyph glyph-name="ellipsis" unicode="&#x2026;" horiz-adv-x="770" 
d="M173 171q25 0 34.5 -9t9.5 -30v-132h-176v171h132zM429 171q25 0 34.5 -9t9.5 -30v-132h-176v171h132zM685 171q25 0 34.5 -9t9.5 -30v-132h-176v171h132z" />
    <glyph glyph-name="periodcentered" unicode="&#xb7;" horiz-adv-x="258" 
d="M173 362q25 0 34.5 -9t9.5 -30v-132h-176v171h132z" />
    <glyph glyph-name="bullet" unicode="&#x2022;" horiz-adv-x="376" 
d="M319 160h-262v249h204q58 0 58 -57v-192z" />
    <glyph glyph-name="slash" unicode="/" horiz-adv-x="503" 
d="M-4 0l335 663h176l-335 -663h-176z" />
    <glyph glyph-name="parenleft" unicode="(" horiz-adv-x="388" 
d="M370 -180l-77 -63q-100 79 -159.5 194.5t-59.5 265.5t59.5 265.5t159.5 194.5l77 -63q-31 -50 -53 -95t-36 -91.5t-20.5 -97.5t-6.5 -113t6.5 -113t20.5 -97.5t36 -91.5t53 -95z" />
    <glyph glyph-name="brokenbar" unicode="&#xa6;" horiz-adv-x="300" 
d="M70 709h160v-418h-160v418zM70 189h160v-418h-160v418z" />
    <glyph glyph-name="parenright" unicode=")" horiz-adv-x="388" 
d="M18 -180q31 50 53 95t36 91.5t20.5 97.5t6.5 113t-6.5 113t-20.5 97.5t-36 91.5t-53 95l77 63q100 -79 159.5 -194.5t59.5 -265.5t-59.5 -265.5t-159.5 -194.5z" />
    <glyph glyph-name="bracketleft" unicode="[" horiz-adv-x="384" 
d="M235 -82h133v-147h-294v892h294v-147h-133v-598z" />
    <glyph glyph-name="backslash" unicode="\" horiz-adv-x="503" 
d="M331 0l-335 663h176l335 -663h-176z" />
    <glyph glyph-name="bracketright" unicode="]" horiz-adv-x="384" 
d="M149 516h-133v147h294v-892h-294v147h133v598z" />
    <glyph glyph-name="braceleft" unicode="{" horiz-adv-x="420" 
d="M43 270q30 13 50 24t31 21.5t15.5 22t4.5 26.5q0 12 -3.5 34.5t-7.5 48t-7.5 51t-3.5 45.5q0 33 12.5 57.5t34 40.5t51 24t62.5 8q29 0 63 -5.5t61 -13.5v-103l-98 -25q-8 -2 -11 -5t-3 -11q0 -7 3 -24t6.5 -38t6.5 -44t3 -43q0 -24 -6 -44.5t-21.5 -37.5t-42.5 -32.5
t-69 -30.5q42 -15 69 -30.5t42.5 -32.5t21.5 -37.5t6 -44.5q0 -20 -3 -43t-6.5 -44.5t-6.5 -38.5t-3 -24q0 -8 3 -11t11 -5l98 -25v-103q-27 -8 -61 -13.5t-63 -5.5q-33 0 -62.5 8t-51 24t-34 40.5t-12.5 57.5q0 19 3.5 45t7.5 52t7.5 48.5t3.5 34.5q0 15 -4.5 26.5
t-15.5 22t-31 21t-50 24.5v108z" />
    <glyph glyph-name="bar" unicode="|" horiz-adv-x="300" 
d="M70 709h160v-938h-160v938z" />
    <glyph glyph-name="braceright" unicode="}" horiz-adv-x="420" 
d="M377 162q-30 -14 -50 -24.5t-31 -21t-15.5 -22t-4.5 -26.5q0 -12 3.5 -34.5t7.5 -48.5t7.5 -52t3.5 -45q0 -33 -12.5 -57.5t-34 -40.5t-51 -24t-62.5 -8q-29 0 -63 5.5t-61 13.5v103l98 25q8 2 11 5t3 11q0 7 -3 24t-6.5 38.5t-6.5 44.5t-3 43q0 24 6 44.5t21.5 37.5
t42.5 32.5t69 30.5q-42 15 -69 30.5t-42.5 32.5t-21.5 37.5t-6 44.5q0 20 3 43t6.5 44t6.5 38t3 24q0 8 -3 11t-11 5l-98 25v103q27 8 61 13.5t63 5.5q33 0 62.5 -8t51 -24t34 -40.5t12.5 -57.5q0 -20 -3.5 -45.5t-7.5 -51t-7.5 -48t-3.5 -34.5q0 -15 4.5 -26.5t15.5 -22
t31 -21.5t50 -24v-108z" />
    <glyph glyph-name="hyphen" unicode="-" horiz-adv-x="429" 
d="M41 176v133h347v-133h-347z" />
    <glyph glyph-name="uni00AD" unicode="&#xad;" horiz-adv-x="429" 
d="M41 176v133h347v-133h-347z" />
    <glyph glyph-name="endash" unicode="&#x2013;" horiz-adv-x="582" 
d="M41 176v133h500v-133h-500z" />
    <glyph glyph-name="emdash" unicode="&#x2014;" horiz-adv-x="1082" 
d="M41 176v133h1000v-133h-1000z" />
    <glyph glyph-name="underscore" unicode="_" horiz-adv-x="544" 
d="M30 -163v133h484v-133h-484z" />
    <glyph glyph-name="dagger" unicode="&#x2020;" horiz-adv-x="614" 
d="M563 447v-148h-57q-17 0 -32.5 1t-34.5 4l-63 10l5 -28q2 -14 3.5 -26.5t1.5 -36.5v-194q0 -20 -1.5 -38.5t-4.5 -46.5l-20 -173h-105l-20 173q-3 28 -4.5 46.5t-1.5 38.5v194q0 24 1.5 36.5t3.5 26.5l5 28l-63 -10q-19 -3 -34.5 -4t-32.5 -1h-58v148h58q17 0 32.5 -1
t34.5 -4l63 -10l-5 29q-3 17 -4 29.5t-1 34.5v138h157v-138q0 -22 -1 -34.5t-4 -29.5l-5 -29l63 10q19 3 34.5 4t32.5 1h57z" />
    <glyph glyph-name="daggerdbl" unicode="&#x2021;" horiz-adv-x="614" 
d="M386 217q0 -24 -1.5 -39.5t-3.5 -29.5l-5 -28l63 10q19 3 34.5 4t32.5 1h57v-148h-57q-17 0 -32.5 1t-34.5 4l-63 10l5 -29q3 -17 4 -29.5t1 -34.5v-138h-157v138q0 22 1 34.5t4 29.5l5 29l-63 -10q-19 -3 -34.5 -4t-32.5 -1h-58v148h58q17 0 32.5 -1t34.5 -4l63 -10
l-5 28q-2 14 -3.5 29.5t-1.5 39.5t1.5 39.5t3.5 29.5l5 28l-63 -10q-19 -3 -34.5 -4t-32.5 -1h-58v148h58q17 0 32.5 -1t34.5 -4l63 -10l-5 29q-3 17 -4 29.5t-1 34.5v138h157v-138q0 -22 -1 -34.5t-4 -29.5l-5 -29l63 10q19 3 34.5 4t32.5 1h57v-148h-57q-17 0 -32.5 1
t-34.5 4l-63 10l5 -28q2 -14 3.5 -29.5t1.5 -39.5z" />
    <glyph glyph-name="section" unicode="&#xa7;" horiz-adv-x="646" 
d="M584 220q0 -34 -15.5 -67.5t-42.5 -62.5q29 -24 43.5 -56t14.5 -77q0 -54 -22 -91.5t-59 -61t-85.5 -34t-101.5 -10.5q-72 0 -136.5 17.5t-118.5 47.5l39 118l93 -14q36 -5 65 -8t53 -3q96 0 96 44q0 17 -15.5 25.5t-57.5 18.5l-37 9q-62 15 -107 31.5t-73.5 39t-42 53
t-13.5 74.5q0 33 15.5 66.5t42.5 62.5q-29 24 -43.5 56.5t-14.5 77.5q0 54 22 91.5t59 61t85.5 34t101.5 10.5q72 0 136.5 -17.5t118.5 -47.5l-39 -118l-93 14q-36 5 -65 8t-53 3q-96 0 -96 -44q0 -17 15.5 -25.5t57.5 -18.5l37 -9q62 -15 107 -31.5t73.5 -39t42 -53
t13.5 -74.5zM295 267q-19 5 -33 8.5t-28 8.5q-13 -23 -13 -44q0 -14 3.5 -23t13 -15.5t25.5 -12.5t42 -12l45 -11q20 -5 33 -8.5t27 -8.5q7 10 10.5 21.5t3.5 22.5q0 13 -3.5 22.5t-13 16.5t-26 12.5t-41.5 11.5z" />
    <glyph glyph-name="paragraph" unicode="&#xb6;" horiz-adv-x="648" 
d="M236 -229v568h-72q-38 0 -62 6.5t-38 20t-19.5 34t-5.5 47.5v216h595v-119h-77v-773h-125v773h-71v-773h-125z" />
    <glyph glyph-name="registered" unicode="&#xae;" horiz-adv-x="786" 
d="M735 332q0 -77 -28 -140t-75 -108t-109 -69.5t-130 -24.5t-130 24.5t-109 69.5t-75 108t-28 140t28 140t75 107.5t109 69t130 24.5t130 -24.5t109 -69t75 -107.5t28 -140zM621 332q0 52 -15 95t-44.5 73.5t-72 47t-96.5 16.5t-96.5 -16.5t-72 -47t-44.5 -73.5t-15 -95
q0 -53 15 -95.5t44.5 -73.5t72 -47.5t96.5 -16.5t96.5 16.5t72 47.5t44.5 73.5t15 95.5zM397 275q-3 5 -7 5h-32v-85h-94v278h145q35 0 56 -6.5t35 -20.5q22 -24 22 -63q0 -24 -12 -42.5t-30 -32.5l56 -113h-92q-7 0 -9.5 2t-4.5 7zM358 400v-51h54q8 0 12 6q5 8 5 21
q0 14 -6.5 19t-22.5 5h-42z" />
    <glyph glyph-name="copyright" unicode="&#xa9;" horiz-adv-x="786" 
d="M735 332q0 -77 -28 -140t-75 -108t-109 -69.5t-130 -24.5t-130 24.5t-109 69.5t-75 108t-28 140t28 140t75 107.5t109 69t130 24.5t130 -24.5t109 -69t75 -107.5t28 -140zM621 332q0 52 -15 95t-44.5 73.5t-72 47t-96.5 16.5t-96.5 -16.5t-72 -47t-44.5 -73.5t-15 -95
q0 -53 15 -95.5t44.5 -73.5t72 -47.5t96.5 -16.5t96.5 16.5t72 47.5t44.5 73.5t15 95.5zM522 255q-23 -29 -59 -46.5t-72 -17.5q-30 0 -55.5 10.5t-44 29.5t-29 45.5t-10.5 58.5q0 31 10.5 57t29 45t44.5 29.5t57 10.5q40 0 73 -23t50 -64l-55 -42l-31 26q-11 10 -20 14.5
t-20 4.5q-22 0 -32.5 -15.5t-10.5 -43.5q0 -57 51 -57q13 0 25.5 4t25.5 10l38 18z" />
    <glyph glyph-name="trademark" unicode="&#x2122;" horiz-adv-x="782" 
d="M741 663v-318h-111v156l-58 -72h-41q-6 0 -8.5 1t-6.5 5l-54 65v-155h-110v318h88q6 0 9 -1.5t7 -6.5l92 -111h1l88 111q4 5 7 6.5t9 1.5h88zM228 345h-118v211h-92v107h302v-107h-92v-211z" />
    <glyph glyph-name="quotedblleft" unicode="&#x201c;" horiz-adv-x="475" 
d="M432 343h-132q-25 0 -34.5 9.5t-9.5 30.5v71q0 35 3.5 61t18 51.5t42 55t75.5 70.5l60 -45l-71 -116q-10 -15 6 -24l15 -9q17 -11 22 -19t5 -27v-109zM200 343h-132q-25 0 -34.5 9.5t-9.5 30.5v71q0 35 3.5 61t18 51.5t42 55t75.5 70.5l60 -45l-71 -116q-10 -15 6 -24
l15 -9q17 -11 22 -19t5 -27v-109z" />
    <glyph glyph-name="quotedblright" unicode="&#x201d;" horiz-adv-x="475" 
d="M43 663h132q25 0 34.5 -9.5t9.5 -30.5v-71q0 -35 -3.5 -61.5t-18 -52t-42 -54.5t-75.5 -70l-60 45l71 116q10 15 -6 24l-15 9q-17 11 -22 19t-5 27v109zM275 663h132q25 0 34.5 -9.5t9.5 -30.5v-71q0 -35 -3.5 -61.5t-18 -52t-42 -54.5t-75.5 -70l-60 45l71 116
q10 15 -6 24l-15 9q-17 11 -22 19t-5 27v109z" />
    <glyph glyph-name="quoteleft" unicode="&#x2018;" horiz-adv-x="243" 
d="M200 343h-132q-25 0 -34.5 9.5t-9.5 30.5v71q0 35 3.5 61t18 51.5t42 55t75.5 70.5l60 -45l-71 -116q-10 -15 6 -24l15 -9q17 -11 22 -19t5 -27v-109z" />
    <glyph glyph-name="quoteright" unicode="&#x2019;" horiz-adv-x="243" 
d="M43 663h132q25 0 34.5 -9.5t9.5 -30.5v-71q0 -35 -3.5 -61.5t-18 -52t-42 -54.5t-75.5 -70l-60 45l71 116q10 15 -6 24l-15 9q-17 11 -22 19t-5 27v109z" />
    <glyph glyph-name="guillemotleft" unicode="&#xab;" horiz-adv-x="672" 
d="M330 283l235 189l70 -70l-128 -157v-2l128 -157l-70 -70l-223 178q-5 5 -8.5 10t-3.5 16v63zM32 283l235 189l70 -70l-128 -157v-2l128 -157l-70 -70l-223 178q-5 5 -8.5 10t-3.5 16v63z" />
    <glyph glyph-name="guillemotright" unicode="&#xbb;" horiz-adv-x="672" 
d="M640 205l-235 -189l-70 70l128 157v2l-128 157l70 70l223 -178q5 -5 8.5 -10t3.5 -16v-63zM342 205l-235 -189l-70 70l128 157v2l-128 157l70 70l223 -178q5 -5 8.5 -10t3.5 -16v-63z" />
    <glyph glyph-name="guilsinglleft" unicode="&#x2039;" horiz-adv-x="374" 
d="M32 283l235 189l70 -70l-128 -157v-2l128 -157l-70 -70l-223 178q-5 5 -8.5 10t-3.5 16v63z" />
    <glyph glyph-name="guilsinglright" unicode="&#x203a;" horiz-adv-x="374" 
d="M342 205l-235 -189l-70 70l128 157v2l-128 157l70 70l223 -178q5 -5 8.5 -10t3.5 -16v-63z" />
    <glyph glyph-name="quotesinglbase" unicode="&#x201a;" horiz-adv-x="246" 
d="M40 61h132q25 0 34.5 -9.5t9.5 -30.5v-71q0 -35 -3.5 -61.5t-18 -52t-42 -54.5t-75.5 -70l-60 45l71 116q10 15 -6 24l-15 9q-17 11 -22 19t-5 27v109z" />
    <glyph glyph-name="quotedblbase" unicode="&#x201e;" horiz-adv-x="478" 
d="M40 61h132q25 0 34.5 -9.5t9.5 -30.5v-71q0 -35 -3.5 -61.5t-18 -52t-42 -54.5t-75.5 -70l-60 45l71 116q10 15 -6 24l-15 9q-17 11 -22 19t-5 27v109zM272 61h132q25 0 34.5 -9.5t9.5 -30.5v-71q0 -35 -3.5 -61.5t-18 -52t-42 -54.5t-75.5 -70l-60 45l71 116
q10 15 -6 24l-15 9q-17 11 -22 19t-5 27v109z" />
    <glyph glyph-name="ordfeminine" unicode="&#xaa;" horiz-adv-x="502" 
d="M268 502q0 26 -12 38q-15 15 -49 15q-19 0 -39.5 -2.5t-45.5 -8.5l-37 -9l-35 75q38 29 85 46t95 17q89 0 135 -49q42 -44 42 -129v-114l46 -14v-75q-17 -12 -36 -18.5t-36 -6.5q-25 0 -45 7.5t-44 22.5l-26 -14q-22 -11 -41 -16.5t-42 -5.5q-33 0 -60 9.5t-46.5 27
t-30 40.5t-10.5 50q0 55 37.5 83t96.5 28h5q20 0 47 -4t46 -11v18zM268 406q0 7 -8 7h-80q-12 0 -12 -16q0 -28 43 -28q14 0 27 3t21 7q9 4 9 13v14z" />
    <glyph glyph-name="ordmasculine" unicode="&#xba;" horiz-adv-x="502" 
d="M461 467q0 -48 -16.5 -86t-45 -64.5t-67 -41t-81.5 -14.5q-44 0 -82 14.5t-66.5 41t-45 64.5t-16.5 86t16.5 86t45 64.5t66.5 41t82 14.5q43 0 81.5 -14.5t67 -41t45 -64.5t16.5 -86zM319 467q0 73 -68 73t-68 -73t68 -73t68 73z" />
    <glyph glyph-name="arrowleft" unicode="&#x2190;" horiz-adv-x="800" 
d="M50 264q0 10 2 15t10 13l207 207l70 -70l-94 -119h504v-133h-507l97 -124l-70 -70l-219 219v62z" />
    <glyph glyph-name="arrowup" unicode="&#x2191;" horiz-adv-x="800" 
d="M423 593q10 0 15 -2t13 -10l207 -207l-70 -70l-116 94v-504h-139v507l-121 -97l-70 69l219 220h62z" />
    <glyph glyph-name="arrowright" unicode="&#x2192;" horiz-adv-x="800" 
d="M749 222q0 -10 -2 -15t-10 -13l-207 -207l-70 70l94 119h-504v133h507l-97 124l70 70l219 -219v-62z" />
    <glyph glyph-name="arrowdown" unicode="&#x2193;" horiz-adv-x="800" 
d="M377 -106q-8 0 -14 2t-14 10l-207 207l70 70l116 -94v504h139v-507l121 97l70 -69l-219 -220h-62z" />
    <glyph glyph-name="uni2196" unicode="&#x2196;" horiz-adv-x="800" 
d="M159 508q8 8 14 9t13 1h292v-99l-146 -18l354 -354l-98 -99l-356 357l-19 -152h-99v310z" />
    <glyph glyph-name="uni2197" unicode="&#x2197;" horiz-adv-x="800" 
d="M676 473q6 -6 8 -10t2 -13v-297h-99l-19 152l-356 -357l-98 99l354 354l-146 18v99h309z" />
    <glyph glyph-name="uni2198" unicode="&#x2198;" horiz-adv-x="800" 
d="M640 -43q-6 -6 -10 -8t-13 -2h-297v99l152 19l-357 356l99 98l354 -354l18 146h99v-309z" />
    <glyph glyph-name="uni2199" unicode="&#x2199;" horiz-adv-x="800" 
d="M124 -8q-6 6 -8 10t-2 13v297h99l19 -152l356 357l98 -99l-354 -354l146 -18v-99h-309z" />
    <glyph glyph-name="zero" unicode="0" 
d="M641 331q0 -85 -21.5 -149t-60.5 -106.5t-94.5 -64t-123.5 -21.5t-123.5 21.5t-94.5 64t-60.5 106.5t-21.5 149t21.5 149t60.5 107t94.5 64.5t123.5 21.5t123.5 -21.5t94.5 -64.5t60.5 -107t21.5 -149zM460 331q0 97 -29.5 136t-89.5 39t-89.5 -39t-29.5 -136
q0 -49 7.5 -82t22 -53.5t37 -29.5t52.5 -9t52.5 9t37 29.5t22 53.5t7.5 82z" />
    <glyph glyph-name="one" unicode="1" 
d="M124 145h167v335h-2q-11 -5 -29.5 -12.5t-47.5 -15.5l-75 -22l-51 122l230 99q17 7 28 9.5t31 2.5h91v-518h131v-145h-473v145z" />
    <glyph glyph-name="two" unicode="2" 
d="M599 145v-145h-517v92q0 15 2.5 22t16.5 20l221 203q44 40 61.5 64t17.5 50q0 32 -23 48.5t-57 16.5q-25 0 -49 -5t-61 -19l-87 -32l-60 105q54 48 124.5 78t146.5 30q52 0 97 -13.5t78 -40t52 -66t19 -90.5q0 -36 -10 -68t-32.5 -63t-59.5 -63.5t-91 -69.5l-78 -54h289z
" />
    <glyph glyph-name="three" unicode="3" 
d="M111 208l88 -32q44 -16 75.5 -22.5t65.5 -6.5q42 0 69 15t27 52q0 25 -11 36q-8 8 -21.5 10.5t-34.5 2.5h-90q-11 0 -17 3t-6 14v118h135q11 0 16 2t9 9t6.5 19t2.5 24q0 35 -21.5 49.5t-64.5 14.5q-26 0 -55 -5.5t-61 -14.5l-92 -26l-50 107q59 46 129 71t140 25
q54 0 99 -12t77.5 -36t50.5 -59t18 -80q0 -43 -19 -78.5t-48 -61.5q42 -21 65.5 -54.5t23.5 -84.5q0 -47 -18 -87t-52.5 -69t-83.5 -45t-111 -16q-90 0 -167.5 32t-131.5 86z" />
    <glyph glyph-name="four" unicode="4" 
d="M379 134h-340v124q0 14 3 22t14 22l270 337q12 15 19.5 19.5t23.5 4.5h184v-391h84v-138h-84v-134h-174v134zM379 272v226q-9 -13 -20.5 -28t-27.5 -35l-86 -108q-14 -18 -25.5 -30.5t-22.5 -24.5h182z" />
    <glyph glyph-name="five" unicode="5" 
d="M255 486q0 -24 -1 -45t-3 -34q29 13 62 19.5t65 6.5q51 0 92.5 -14t71.5 -40.5t46.5 -65t16.5 -87.5q0 -51 -19 -94.5t-54 -75t-85 -49t-112 -17.5q-38 0 -77 8t-76 22t-70 33.5t-58 43.5l56 103l86 -28q43 -14 72.5 -19.5t54.5 -5.5q46 0 74.5 21t28.5 59t-27.5 54
t-64.5 16q-26 0 -58.5 -7.5t-60.5 -20.5q-11 -5 -17 -4.5t-18 7.5l-71 40q-9 5 -11 9t-2 13v329h462v-146h-303v-31z" />
    <glyph glyph-name="six" unicode="6" 
d="M486 509q-33 7 -55.5 9.5t-42.5 2.5q-35 0 -64.5 -10t-47.5 -30q-14 -15 -23.5 -39t-12.5 -51l10 5q75 38 149 38q50 0 91.5 -14t71.5 -40.5t46.5 -64t16.5 -85.5q0 -53 -19.5 -97.5t-55 -76t-84 -49t-106.5 -17.5q-73 0 -129 24.5t-94.5 68t-58 102t-19.5 127.5v4
q0 84 23.5 150.5t66 112.5t100.5 70t127 24q60 0 115 -18t91 -46l-43 -111zM252 282q-8 -3 -10 -6.5t-1 -11.5q6 -61 39 -91t80 -30q45 0 70 24.5t25 60.5q0 38 -25.5 55t-67.5 17q-14 0 -30 -1.5t-31 -4t-27.5 -6t-21.5 -6.5z" />
    <glyph glyph-name="seven" unicode="7" 
d="M362 0h-175q3 60 9 105t17.5 83t30 73t45.5 76q27 39 46.5 67t35 48.5t28.5 35.5t25 28h-360v147h550v-66v-30.5t-1.5 -17.5t-4.5 -12.5t-9 -14.5l-142 -216q-32 -48 -49.5 -89.5t-27 -79t-13 -71.5t-5.5 -66z" />
    <glyph glyph-name="eight" unicode="8" 
d="M156 352q-32 22 -54.5 55t-22.5 78q0 40 19 74.5t53.5 60t82.5 39.5t107 14q52 0 100.5 -12.5t85.5 -37t59.5 -60.5t22.5 -83q0 -35 -19.5 -70.5t-47.5 -58.5q40 -22 65 -54t25 -83q0 -50 -22 -91t-60 -70.5t-91 -46t-114 -16.5q-66 0 -120.5 16.5t-93 45.5t-60 69
t-21.5 87q0 28 9 51t24 41t34 30.5t39 21.5zM281 293q-12 5 -19 2t-13 -8q-14 -11 -21.5 -26t-7.5 -32q0 -38 33 -63t91 -25q51 0 82 20t31 49q0 17 -15 24.5t-47 18.5zM398 400q14 -5 20 -3t12 8q8 8 15 21.5t7 25.5q0 36 -34 56.5t-83 20.5q-38 0 -64.5 -12t-26.5 -37
q0 -17 14.5 -26.5t51.5 -22.5z" />
    <glyph glyph-name="nine" unicode="9" 
d="M297 142q73 0 106.5 33t36.5 97l-10 -5q-42 -21 -77.5 -29.5t-71.5 -8.5q-50 0 -92 14.5t-72 41t-46.5 64.5t-16.5 86q0 54 20 97.5t56 75t84.5 48.5t105.5 17q73 0 129 -24.5t94.5 -67.5t58 -102t19.5 -128v-4q0 -94 -24.5 -164.5t-70.5 -116.5q-38 -38 -87.5 -57
t-115.5 -19q-32 0 -63.5 5t-60.5 14t-54.5 21t-44.5 26l38 110l49 -10q35 -8 63.5 -11t46.5 -3zM428 381q9 4 10.5 8t0.5 10q-8 61 -39 91t-80 30q-44 0 -70 -23t-26 -60q0 -38 27 -56t69 -18q29 0 60 5.5t48 12.5z" />
    <glyph glyph-name="dollar" unicode="$" 
d="M172 169q53 -11 99 -17t78 -6q101 0 101 55q0 23 -19.5 34.5t-70.5 23.5l-66 16q-51 12 -92 29t-69.5 41t-44 56.5t-15.5 75.5q0 44 15 77.5t43 57t66 37.5t85 20l20 124h108v-124q46 -5 92 -17t85 -30l-29 -121l-79 8q-35 4 -69.5 6t-62.5 2q-55 0 -81 -7t-26 -29
q0 -17 19 -26.5t67 -20.5l62 -15q62 -15 106 -32t71.5 -40.5t40.5 -55.5t13 -76q0 -47 -15 -85t-42.5 -66t-66 -45.5t-85.5 -24.5l-20 -125h-108v126q-61 7 -116.5 26t-103.5 45l40 117z" />
    <glyph glyph-name="cent" unicode="&#xa2;" 
d="M420 486q64 -18 105.5 -64t56.5 -106l-110 -52l-42 42q-26 26 -43 35.5t-39 9.5q-32 0 -54.5 -26.5t-22.5 -76.5q0 -57 28 -83.5t76 -26.5q20 0 46 6t46 14l71 26l52 -90q-29 -32 -74 -57.5t-96 -36.5l-20 -131h-98v127q-45 7 -82.5 28t-64 53t-41 75t-14.5 94
q0 50 16 92t43.5 73.5t64 51.5t78.5 28l20 138h98v-143z" />
    <glyph glyph-name="Euro" unicode="&#x20ac;" 
d="M297 232q14 -34 42.5 -55t72.5 -21q32 0 62 7t72 25l53 23l65 -93q-23 -29 -54.5 -52.5t-67.5 -40t-74 -26t-74 -9.5q-112 0 -187.5 62t-97.5 180h-79v59l70 18v39h-70v59l79 20q23 116 99.5 181t192.5 65q83 0 147.5 -40.5t102.5 -121.5l-103 -74l-51 37
q-35 26 -56.5 34t-46.5 8q-39 0 -65 -24.5t-37 -62.5h157v-81h-167v-35h167v-81h-152z" />
    <glyph glyph-name="florin" unicode="&#x192;" 
d="M235 480q0 95 47 142q49 51 150 51q45 0 86 -11t76 -29l-29 -100l-35 4q-16 2 -33 3t-34 1q-33 0 -49.5 -13t-16.5 -47v-134h154v-124h-154v-270q0 -95 -47 -142q-49 -51 -150 -51q-45 0 -86 11t-76 29l29 100l35 -4q16 -2 33 -3t34 -1q33 0 49.5 13t16.5 47v271h-125v93
l125 28v136z" />
    <glyph glyph-name="sterling" unicode="&#xa3;" 
d="M329 236q0 -28 -13 -50t-33 -41h343v-145h-530v87q0 12 2.5 18.5t12.5 18.5l17 21q20 25 27.5 38.5t7.5 31.5q0 9 -2.5 21t-6.5 26h-95v72l62 26q-7 23 -11.5 47t-4.5 46q0 49 18 89.5t51 69.5t80.5 45t106.5 16q47 0 89.5 -13.5t77.5 -37t61.5 -56t42.5 -70.5l-97 -70
l-74 50q-33 23 -56.5 31.5t-49.5 8.5q-35 0 -58 -15.5t-23 -53.5q0 -14 3.5 -31t8.5 -34h189v-118h-149q1 -5 2 -13.5t1 -14.5z" />
    <glyph glyph-name="yen" unicode="&#xa5;" 
d="M473 651q4 8 8 10t12 2h185l-187 -347h81v-103h-139v-31h139v-103h-139v-79h-178v79h-139v103h139v31h-139v103h80l-191 347h193q8 0 12 -2t8 -10l50 -101q29 -58 49 -104.5t31 -84.5h1q11 34 31.5 86.5t46.5 106.5z" />
    <glyph glyph-name="numbersign" unicode="#" 
d="M53 287h98l16 88h-114v116h134l31 172h133l-31 -172h97l31 172h133l-31 -172h79v-116h-99l-16 -88h115v-116h-135l-30 -171h-133l30 171h-97l-30 -171h-133l30 171h-78v116zM284 287h97l16 88h-97z" />
    <glyph glyph-name="percent" unicode="%" horiz-adv-x="984" 
d="M411 496q0 -38 -13.5 -70t-38 -56t-58.5 -37.5t-75 -13.5t-75 13.5t-58.5 37.5t-38 56t-13.5 70q0 37 13.5 69.5t38 56.5t58.5 37.5t75 13.5t75 -13.5t58.5 -37.5t38 -56.5t13.5 -69.5zM285 496q0 28 -14.5 44.5t-44.5 16.5t-44.5 -16.5t-14.5 -44.5t14.5 -44.5
t44.5 -16.5t44.5 16.5t14.5 44.5zM943 166q0 -38 -13.5 -70t-38 -56t-58.5 -37.5t-75 -13.5t-75 13.5t-58.5 37.5t-38 56t-13.5 70q0 37 13.5 69.5t38 56.5t58.5 37.5t75 13.5t75 -13.5t58.5 -37.5t38 -56.5t13.5 -69.5zM817 166q0 28 -14.5 44.5t-44.5 16.5t-44.5 -16.5
t-14.5 -44.5t14.5 -44.5t44.5 -16.5t44.5 16.5t14.5 44.5zM250 0l327 663h158l-327 -663h-158z" />
    <glyph glyph-name="perthousand" unicode="&#x2030;" horiz-adv-x="1390" 
d="M411 496q0 -38 -13.5 -70t-38 -56t-58.5 -37.5t-75 -13.5t-75 13.5t-58.5 37.5t-38 56t-13.5 70q0 37 13.5 69.5t38 56.5t58.5 37.5t75 13.5t75 -13.5t58.5 -37.5t38 -56.5t13.5 -69.5zM285 496q0 28 -14.5 44.5t-44.5 16.5t-44.5 -16.5t-14.5 -44.5t14.5 -44.5
t44.5 -16.5t44.5 16.5t14.5 44.5zM943 166q0 -38 -13.5 -70t-38 -56t-58.5 -37.5t-75 -13.5t-75 13.5t-58.5 37.5t-38 56t-13.5 70q0 37 13.5 69.5t38 56.5t58.5 37.5t75 13.5t75 -13.5t58.5 -37.5t38 -56.5t13.5 -69.5zM817 166q0 28 -14.5 44.5t-44.5 16.5t-44.5 -16.5
t-14.5 -44.5t14.5 -44.5t44.5 -16.5t44.5 16.5t14.5 44.5zM1349 166q0 -38 -13.5 -70t-38 -56t-58.5 -37.5t-75 -13.5t-75 13.5t-58.5 37.5t-38 56t-13.5 70q0 37 13.5 69.5t38 56.5t58.5 37.5t75 13.5t75 -13.5t58.5 -37.5t38 -56.5t13.5 -69.5zM1223 166q0 28 -14.5 44.5
t-44.5 16.5t-44.5 -16.5t-14.5 -44.5t14.5 -44.5t44.5 -16.5t44.5 16.5t14.5 44.5zM250 0l327 663h158l-327 -663h-158z" />
    <glyph glyph-name="plus" unicode="+" horiz-adv-x="579" 
d="M219 467h141v-149h149v-141h-149v-149h-141v149h-149v141h149v149z" />
    <glyph glyph-name="minus" unicode="&#x2212;" horiz-adv-x="579" 
d="M70 177v141h439v-141h-439z" />
    <glyph glyph-name="multiply" unicode="&#xd7;" horiz-adv-x="579" 
d="M184 42l-100 100l106 105l-106 106l100 100l105 -106l106 106l100 -100l-106 -106l106 -105l-100 -100l-106 106z" />
    <glyph glyph-name="less" unicode="&#x3c;" horiz-adv-x="579" 
d="M509 485v-162l-226 -78v-2l226 -75v-162l-439 179v120z" />
    <glyph glyph-name="divide" unicode="&#xf7;" horiz-adv-x="579" 
d="M70 193v141h439v-141h-439zM334 527q21 0 27.5 -6.5t6.5 -24.5v-122h-156v153h122zM334 153q21 0 27.5 -6.5t6.5 -24.5v-122h-156v153h122z" />
    <glyph glyph-name="equal" unicode="=" horiz-adv-x="579" 
d="M70 281v141h439v-141h-439zM70 73v141h439v-141h-439z" />
    <glyph glyph-name="logicalnot" unicode="&#xac;" horiz-adv-x="579" 
d="M509 73h-141v208h-298v141h439v-349z" />
    <glyph glyph-name="greater" unicode="&#x3e;" horiz-adv-x="579" 
d="M509 305v-120l-439 -179v162l226 75v2l-226 78v162z" />
    <glyph glyph-name="notequal" unicode="&#x2260;" horiz-adv-x="579" 
d="M338 532l98 -33l-28 -77h101v-141h-152l-25 -67h177v-141h-228l-36 -100l-98 33l24 67h-101v141h152l25 67h-177v141h228z" />
    <glyph glyph-name="approxequal" unicode="&#x2248;" horiz-adv-x="579" 
d="M368 289q-23 0 -44.5 8t-41.5 18t-38.5 18t-34.5 8q-17 0 -30.5 -13t-25.5 -37l-97 34q5 32 18.5 60.5t33.5 49.5t46.5 33t57.5 12q27 0 50 -8t42.5 -17.5t36 -17.5t30.5 -8q17 0 30.5 13t25.5 36l97 -32q-5 -33 -18.5 -61.5t-33.5 -49.5t-46.5 -33.5t-57.5 -12.5z
M368 35q-23 0 -44.5 8t-41.5 17.5t-38.5 17.5t-34.5 8q-17 0 -30.5 -13t-25.5 -36l-97 33q5 33 18.5 61.5t33.5 49.5t46.5 33t57.5 12q27 0 50 -8t42.5 -18t36 -18t30.5 -8q17 0 30.5 13t25.5 37l97 -33q-5 -32 -18.5 -60.5t-33.5 -49.5t-46.5 -33.5t-57.5 -12.5z" />
    <glyph glyph-name="plusminus" unicode="&#xb1;" horiz-adv-x="579" 
d="M219 597h141v-129h149v-141h-149v-129h-141v129h-149v141h149v129zM70 0v141h439v-141h-439z" />
    <glyph glyph-name="lessequal" unicode="&#x2264;" horiz-adv-x="579" 
d="M70 0v141h439v-141h-439zM509 615v-152l-226 -68v-2l226 -65v-152l-439 159v120z" />
    <glyph glyph-name="greaterequal" unicode="&#x2265;" horiz-adv-x="579" 
d="M509 455v-120l-439 -159v152l226 65v2l-226 68v152zM70 0v141h439v-141h-439z" />
    <glyph glyph-name="asciicircum" unicode="^" horiz-adv-x="579" 
d="M530 439l-122 -81l-118 147h-1l-118 -147l-122 81l184 234h113z" />
    <glyph glyph-name="asciitilde" unicode="~" horiz-adv-x="579" 
d="M367 278q-23 0 -44.5 8t-41.5 18t-38.5 18t-34.5 8q-17 0 -30.5 -13t-25.5 -37l-97 34q5 32 18.5 60.5t33.5 49.5t46.5 33t57.5 12q27 0 50 -8t42.5 -17.5t36 -17.5t30.5 -8q17 0 30.5 13t25.5 36l97 -32q-5 -33 -18.5 -61.5t-33.5 -49.5t-46.5 -33.5t-57.5 -12.5z" />
    <glyph glyph-name="lozenge" unicode="&#x25ca;" horiz-adv-x="676" 
d="M450 332l-112 190l-112 -190l112 -191zM432 0h-168q-11 0 -16.5 2.5t-10.5 10.5l-166 272q-11 18 -14.5 27.5t-3.5 19.5t3.5 19.5t14.5 27.5l173 284h172q11 0 15.5 -2t9.5 -11l164 -271q11 -18 14.5 -27.5t3.5 -19.5t-3.5 -19.5t-14.5 -27.5z" />
    <glyph glyph-name="degree" unicode="&#xb0;" horiz-adv-x="460" 
d="M417 491q0 -43 -16 -77t-42.5 -57t-60 -35.5t-68.5 -12.5t-68.5 12.5t-60 35.5t-42.5 57t-16 77t16 77t42.5 57t60 35.5t68.5 12.5t68.5 -12.5t60 -35.5t42.5 -57t16 -77zM286 491q0 58 -56 58t-56 -58t56 -58t56 58z" />
    <glyph glyph-name="quotesingle" unicode="'" horiz-adv-x="264" 
d="M219 598q0 -26 -3 -56t-11 -86l-18 -119h-110l-18 119q-8 56 -11 86t-3 56v65h174v-65z" />
    <glyph glyph-name="quotedbl" unicode="&#x22;" horiz-adv-x="488" 
d="M219 598q0 -26 -3 -56t-11 -86l-18 -119h-110l-18 119q-8 56 -11 86t-3 56v65h174v-65zM443 598q0 -26 -3 -56t-11 -86l-18 -119h-110l-18 119q-8 56 -11 86t-3 56v65h174v-65z" />
    <glyph glyph-name="radical" unicode="&#x221a;" horiz-adv-x="788" 
d="M70 488h201q12 0 16 -2.5t9 -13.5l38 -95q27 -67 46.5 -123.5t27.5 -88.5h1q4 16 12 43t18.5 59t22.5 65t23 62l149 383q4 11 8 13.5t17 2.5h162l-325 -793h-166q-11 0 -15 3t-7 10l-147 341h-91v134z" />
    <glyph glyph-name="currency" unicode="&#xa4;" 
d="M559 331q0 -26 -5.5 -49t-15.5 -43l76 -76l-102 -102l-82 80q-43 -17 -89 -17q-47 0 -90 17l-81 -80l-102 102l76 76q-21 40 -21 92q0 51 21 92l-76 76l102 102l81 -81q42 18 90 18q47 0 89 -18l82 81l102 -102l-76 -76q10 -20 15.5 -43t5.5 -49zM409 331q0 44 -18 59.5
t-50 15.5t-50 -15.5t-18 -59.5t18 -59.5t50 -15.5t50 15.5t18 59.5z" />
    <glyph glyph-name="infinity" unicode="&#x221e;" horiz-adv-x="765" 
d="M245 263q14 0 24 7t17.5 19t13.5 27.5t12 32.5q2 8 2 12q0 5 -4 11q-10 13 -25 22.5t-32 9.5q-24 0 -40 -18.5t-16 -54.5q0 -28 12 -48t36 -20zM520 398q-14 0 -24 -7t-17.5 -19t-13.5 -27.5t-12 -32.5q-2 -8 -2 -12q0 -5 4 -11q10 -13 25 -22.5t32 -9.5q24 0 40 18.5
t16 54.5q0 28 -12 48t-36 20zM401 195q-28 -35 -65 -55t-89 -20q-46 0 -82 16.5t-61.5 45t-39 67t-13.5 83.5q0 43 13.5 81t38 66.5t58.5 45t75 16.5q43 0 72.5 -20t55.5 -55q28 35 65 55t89 20q46 0 82 -16.5t61.5 -45t39 -67t13.5 -83.5q0 -43 -13.5 -81t-38 -66.5
t-58.5 -45t-75 -16.5q-43 0 -72.5 20t-55.5 55z" />
    <glyph glyph-name="mu" unicode="&#xb5;" horiz-adv-x="580" 
d="M398 0l-18 45l-25 -15q-30 -18 -58.5 -28t-61.5 -10q-10 0 -15 1v-222h-168v717h168v-292q0 -26 12 -37q14 -13 55 -13q36 0 65 9q6 2 7 5.5t1 8.5v319h168v-488h-130z" />
    <glyph glyph-name="partialdiff" unicode="&#x2202;" 
d="M144 493l-44 116q36 29 91 46.5t115 17.5q69 0 127 -24t100.5 -70t66 -112.5t23.5 -150.5v-4q0 -69 -19.5 -127.5t-58 -102t-94.5 -68t-129 -24.5q-58 0 -106.5 17.5t-84 49t-55 76t-19.5 97.5q0 48 16.5 85.5t46.5 64t71.5 40.5t91.5 14q36 0 71.5 -9t71.5 -26l10 -5
q-9 58 -36 86q-18 20 -44.5 28t-61.5 8q-20 0 -43 -2.5t-55 -9.5zM424 278q-17 7 -46 12.5t-58 5.5q-42 0 -64.5 -16.5t-22.5 -51.5q0 -33 22 -56.5t67 -23.5q47 0 76 28t37 88q1 6 -2 9t-9 5z" />
    <glyph glyph-name="summation" unicode="&#x2211;" horiz-adv-x="679" 
d="M47 663h589v-147h-365l247 -266v-47l-250 -285h374v-147h-597v98q0 15 3 22t14 21l269 316l-267 293q-10 11 -13.5 18.5t-3.5 25.5v98z" />
    <glyph glyph-name="product" unicode="&#x220f;" horiz-adv-x="833" 
d="M328 516v-745h-178v745h-118v147h769v-147h-118v-745h-178v745h-177z" />
    <glyph glyph-name="pi" unicode="&#x3c0;" horiz-adv-x="678" 
d="M643 108v-84q-22 -11 -52.5 -19t-57.5 -8q-32 0 -59 10.5t-45 29.5q-17 17 -25.5 42t-8.5 61v219h-126v-359h-168v359h-81v129h623v-129h-80v-229z" />
    <glyph glyph-name="integral" unicode="&#x222b;" horiz-adv-x="686" 
d="M292 -245q-51 0 -88.5 11t-73.5 30l32 106q25 -5 50 -8t44 -3q45 0 65.5 15.5t20.5 51.5q0 32 -13 72t-32.5 83.5t-42 90.5t-42 93.5t-32.5 91.5t-13 86q0 46 17 83t47 62.5t71.5 39t91.5 13.5q51 0 88.5 -11t73.5 -30l-32 -106q-25 5 -50 8t-44 3q-45 0 -65.5 -15.5
t-20.5 -51.5q0 -32 13 -72t32.5 -83.5t42 -90.5t42 -93.5t32.5 -91.5t13 -86q0 -47 -17 -83.5t-47 -62t-72 -39t-91 -13.5z" />
    <glyph glyph-name="Omega" unicode="&#x3a9;" horiz-adv-x="772" 
d="M420 70q0 13 2 20t10 21l43 77q16 29 28 53t19.5 45t11.5 41.5t4 42.5q0 35 -12 60.5t-32.5 42t-48 24t-59.5 7.5t-59.5 -7.5t-48 -24t-32.5 -42t-12 -60.5q0 -22 4 -42.5t11.5 -41.5t19.5 -45t28 -53l43 -77q8 -14 10 -21t2 -20v-70h-299v142h113q-54 56 -84.5 118
t-30.5 129q0 63 24.5 115.5t68.5 90t105.5 58t136.5 20.5t136.5 -20.5t105.5 -58t68.5 -90t24.5 -115.5q0 -69 -31.5 -130t-84.5 -117h114v-142h-299v70z" />
    <glyph glyph-name="Omega" unicode="&#x2126;" horiz-adv-x="772" 
d="M420 70q0 13 2 20t10 21l43 77q16 29 28 53t19.5 45t11.5 41.5t4 42.5q0 35 -12 60.5t-32.5 42t-48 24t-59.5 7.5t-59.5 -7.5t-48 -24t-32.5 -42t-12 -60.5q0 -22 4 -42.5t11.5 -41.5t19.5 -45t28 -53l43 -77q8 -14 10 -21t2 -20v-70h-299v142h113q-54 56 -84.5 118
t-30.5 129q0 63 24.5 115.5t68.5 90t105.5 58t136.5 20.5t136.5 -20.5t105.5 -58t68.5 -90t24.5 -115.5q0 -69 -31.5 -130t-84.5 -117h114v-142h-299v70z" />
    <glyph glyph-name="Delta" unicode="&#x2206;" horiz-adv-x="680" 
d="M396 305q-28 74 -43 122.5t-21 76.5h-1q-5 -27 -20 -78.5t-39 -120.5l-31 -91q-6 -18 -14 -38.5t-13 -28.5q12 2 31.5 3t44.5 1h91q25 0 45 -1t32 -3q-5 8 -12.5 26t-15.5 41zM652 0h-624v87q0 17 5.5 36t18.5 52l183 488h179q9 0 12.5 -2t8.5 -13l193 -473
q14 -33 19 -52t5 -36v-87z" />
    <glyph glyph-name="litre" unicode="&#x2113;" horiz-adv-x="307" 
d="M301 24q-22 -11 -52.5 -19t-57.5 -8q-32 0 -59 10.5t-45 29.5q-17 17 -25.5 42t-8.5 61v569h168v-579l80 -22v-84z" />
    <glyph glyph-name="estimated" unicode="&#x212e;" horiz-adv-x="865" 
d="M197 323q-8 0 -8 -6v-187q0 -7 3 -11t9 -10q44 -45 104.5 -71.5t129.5 -26.5q74 0 136.5 30t107.5 80h56q-54 -60 -132 -95.5t-169 -35.5q-79 0 -149 26.5t-122 72.5t-82 108.5t-30 133.5t30 133.5t82 109t122 73t149 26.5q78 0 147 -26.5t120.5 -73t82 -109t30.5 -133.5
v-8h-617zM675 537q0 6 -3.5 11t-9.5 11q-42 44 -101.5 69t-125.5 25q-69 0 -129 -26t-105 -71q-6 -6 -9 -11t-3 -13v-185q0 -5 8 -5h470q8 0 8 5v190z" />
    <glyph glyph-name="numero" unicode="&#x2116;" horiz-adv-x="1150" 
d="M1120 491q0 -43 -16 -77t-42.5 -57t-60 -35.5t-68.5 -12.5t-68.5 12.5t-60 35.5t-42.5 57t-16 77t16 77t42.5 57t60 35.5t68.5 12.5t68.5 -12.5t60 -35.5t42.5 -57t16 -77zM989 491q0 58 -56 58t-56 -58t56 -58t56 58zM191 663q12 0 18 -2.5t13 -10.5l191 -238
q35 -44 65 -83t44 -59h1v393h166v-663h-127q-12 0 -18 2.5t-13 10.5l-193 240q-16 19 -32.5 40t-31.5 40t-27 35t-19 27h-1v-395h-166v663h130z" />
    <glyph glyph-name="zero.otab" 
d="M602 244q0 -58 -20 -104.5t-55.5 -79.5t-83 -50.5t-102.5 -17.5t-102.5 17.5t-83 50.5t-55.5 79.5t-20 104.5t20 104.5t55.5 79.5t83 50.5t102.5 17.5t102.5 -17.5t83 -50.5t55.5 -79.5t20 -104.5zM429 244q0 56 -24 77.5t-64 21.5t-64 -21.5t-24 -77.5t24 -77.5
t64 -21.5t64 21.5t24 77.5z" />
    <glyph glyph-name="one.otab" 
d="M144 132h153v197q-10 -8 -34 -18t-47 -16l-61 -16l-41 115l204 81q20 8 30 10.5t26 2.5h92v-356h121v-132h-443v132z" />
    <glyph glyph-name="two.otab" 
d="M95 407q63 42 127 65.5t133 23.5q49 0 88 -11.5t66.5 -32.5t42.5 -50t15 -64q0 -31 -9.5 -57t-31 -48.5t-55.5 -42.5t-83 -39l-48 -19h246v-132h-470v110q0 11 2 15.5t13 11.5l200 118q34 20 46 33t12 29q0 31 -50 31q-26 0 -55.5 -6.5t-68.5 -18.5l-68 -21z" />
    <glyph glyph-name="three.otab" 
d="M121 19l64 -23q47 -17 80.5 -24.5t64.5 -7.5q44 0 68.5 20.5t24.5 55.5q0 25 -10 35q-13 13 -55 13h-93q-9 0 -12 3t-3 8v117h119q11 0 18.5 2.5t12.5 12.5q5 8 8 21t3 27q0 34 -21 51t-68 17q-53 0 -140 -29l-43 -14l-52 106q63 42 124 64t127 22q56 0 102.5 -15.5
t77.5 -43.5q26 -24 40.5 -55.5t14.5 -69.5q0 -40 -19.5 -75.5t-51.5 -65.5q44 -21 69 -55.5t25 -90.5q0 -46 -18.5 -84.5t-52.5 -66t-82 -43t-108 -15.5q-38 0 -75.5 8t-72.5 22t-65.5 34t-53.5 43z" />
    <glyph glyph-name="four.otab" 
d="M369 4h-312v111q0 13 3 20t13 20l256 317q9 11 15 13.5t23 2.5h170v-352h89v-132h-89v-159h-168v159zM369 136v194q-5 -8 -16 -23t-25 -32l-72 -90q-10 -12 -23 -26.5t-21 -22.5h157z" />
    <glyph glyph-name="five.otab" 
d="M252 318q0 -26 -1.5 -50.5t-4.5 -44.5q72 32 137 32q48 0 88.5 -15t69 -42t44.5 -65t16 -84q0 -58 -20 -101.5t-55 -73t-82 -44t-101 -14.5q-36 0 -73.5 8t-73.5 21.5t-68.5 32.5t-58.5 41l51 98l83 -26q45 -14 74 -21t58 -7q46 0 70 22.5t24 64.5q0 33 -21 56.5
t-72 23.5q-53 0 -116 -28q-7 -3 -13 -3t-16 5l-73 43q-5 3 -7 5.5t-2 10.5v325h454v-133h-311v-37z" />
    <glyph glyph-name="six.otab" 
d="M491 514q-36 8 -61.5 11.5t-48.5 3.5q-69 0 -103.5 -34.5t-43.5 -109.5l20 9q39 18 73 27.5t70 9.5q49 0 89.5 -14.5t69 -41.5t44.5 -64.5t16 -82.5q0 -52 -20 -95.5t-55 -74.5t-83 -48.5t-104 -17.5q-72 0 -126.5 25.5t-91 69t-54.5 101.5t-18 124v4q0 81 23.5 147
t65 112t98.5 71t125 25q60 0 112 -19t87 -42l-40 -105zM253 285q-12 -5 -15 -10t-3 -16q0 -23 7.5 -45t23 -39t38.5 -27.5t53 -10.5q50 0 72.5 26t22.5 61q0 44 -25.5 61.5t-71.5 17.5q-29 0 -56 -5.5t-46 -12.5z" />
    <glyph glyph-name="seven.otab" 
d="M362 -177h-171q3 60 9 105.5t17.5 84t30 73.5t45.5 76q27 39 46.5 67.5t35 50.5t28 39t25.5 33h-366v136h552v-56v-30.5t-1.5 -17.5t-4.5 -12.5t-9 -14.5l-142 -226q-33 -53 -51 -95.5t-27 -79t-12 -69t-5 -64.5z" />
    <glyph glyph-name="eight.otab" 
d="M162 353q-30 21 -52.5 53.5t-22.5 77.5q0 43 20 77.5t54.5 59t81 37.5t100.5 13q58 0 105 -14.5t81 -40t52.5 -60t18.5 -74.5q0 -42 -20 -73t-52 -57q41 -22 67.5 -54t26.5 -83q0 -49 -21 -90t-58 -70.5t-88 -46t-110 -16.5q-63 0 -115.5 16.5t-90 45.5t-58 68t-20.5 84
q0 52 28 87.5t73 59.5zM286 294q-15 6 -29 -3q-15 -11 -25 -27t-10 -38q0 -38 30.5 -64.5t91.5 -26.5q55 0 83.5 21.5t28.5 48.5q0 16 -13.5 25t-48.5 23zM394 402q8 -3 14.5 -3t13.5 7q14 14 21 29t7 35q0 34 -30 51t-79 17q-46 0 -71 -12.5t-25 -37.5q0 -18 16 -29.5
t48 -23.5z" />
    <glyph glyph-name="nine.otab" 
d="M183 -24q41 -10 71 -14t53 -4q130 0 137 145l-20 -9q-39 -18 -74 -27.5t-71 -9.5q-49 0 -89 15t-68.5 42t-44 64.5t-15.5 81.5q0 52 19.5 95.5t54.5 74.5t83 48.5t104 17.5q72 0 126.5 -25.5t91 -69t55 -101.5t18.5 -124v-4q0 -81 -20 -147t-58 -112.5t-92 -71.5
t-123 -25q-58 0 -112.5 19t-89.5 43l40 104zM425 203q12 5 15 10t3 16q0 23 -8 45t-23.5 39t-38.5 27.5t-53 10.5q-50 0 -72 -24.5t-22 -57.5q0 -43 25 -63.5t71 -20.5q29 0 56.5 5.5t46.5 12.5z" />
    <glyph glyph-name="dollar.otab" 
d="M516 353l-56 6q-34 4 -64.5 6t-52.5 2q-42 0 -56.5 -4t-14.5 -15q0 -8 9 -12.5t34 -9.5l63 -12q45 -9 80 -20t59 -28.5t37 -43t13 -63.5q0 -62 -39 -106t-120 -56l-20 -128h-108v129q-46 7 -90 21.5t-76 34.5l36 100l63 -14q42 -9 77.5 -14t63.5 -5q64 0 64 26
q0 10 -8.5 14t-25.5 8l-71 14q-45 9 -79.5 21.5t-58.5 30.5q-51 39 -51 109q0 62 41.5 99t114.5 48l21 128h108v-127q35 -5 69 -13t63 -21z" />
    <glyph glyph-name="cent.otab" 
d="M414 426q51 -18 84 -58t46 -90l-98 -47l-34 35q-22 23 -37 30t-33 7q-26 0 -47.5 -21.5t-21.5 -62.5q0 -48 25 -69t66 -21q17 0 36 4t37 10l63 21l51 -84q-24 -25 -59.5 -46.5t-77.5 -32.5l-20 -132h-105v129q-76 16 -123 73.5t-47 145.5q0 43 13 79t36 64t54 46.5
t67 26.5l20 132h105v-139z" />
    <glyph glyph-name="Euro.otab" 
d="M298 174q10 -21 29 -31t51 -10q24 0 46.5 5t48.5 13l82 25l49 -84q-19 -20 -45.5 -38t-57.5 -32t-64.5 -22t-67.5 -8q-94 0 -159 48t-86 134h-74v43l66 11v26h-66v43l73 12q10 44 33.5 79t56 59t72 36.5t81.5 12.5q46 0 84.5 -14.5t67.5 -39t49 -58t29 -70.5l-101 -44
l-42 42q-25 24 -45.5 33.5t-42.5 9.5q-28 0 -44.5 -11.5t-24.5 -32.5h101v-57h-110v-23h110v-57h-99z" />
    <glyph glyph-name="florin.otab" 
d="M411 -60q0 -178 -173 -178q-39 0 -80 10t-73 26l24 96q22 -3 42.5 -5t40.5 -2q36 0 49 12t13 37v171h-99v71l99 19v121q0 178 173 178q39 0 80 -10t73 -26l-24 -96q-22 3 -42.5 5t-40.5 2q-36 0 -49 -12t-13 -37v-122h114v-93h-114v-167z" />
    <glyph glyph-name="sterling.otab" 
d="M592 0h-471v81q0 8 1.5 11t6.5 8l21 21q12 12 19 22.5t7 24.5q0 13 -6 30h-87v53l63 19q-9 28 -9 55q0 42 16.5 74t45.5 53.5t68 32.5t85 11q35 0 69.5 -8t66.5 -22t59.5 -34.5t48.5 -44.5l-61 -85l-70 24q-43 15 -67 20.5t-44 5.5q-30 0 -47 -11t-17 -34q0 -12 5 -32
h144v-77h-120q1 -5 1.5 -9t0.5 -8q0 -13 -8 -27t-19 -25h298v-129z" />
    <glyph glyph-name="yen.otab" 
d="M618 488l-157 -259h96v-65h-126v-21h126v-65h-126v-78h-168v78h-126v65h126v21h-126v65h92l-165 259h164q9 0 12.5 -2t6.5 -7l100 -179h1l92 179q3 5 6.5 7t12.5 2h159z" />
    <glyph glyph-name="numbersign.otab" 
d="M107 376h101l21 112h117l-21 -112h78l21 112h117l-21 -112h55v-94h-70l-13 -76h83v-94h-101l-18 -112h-117l19 112h-78l-19 -112h-117l19 112h-56v94h74l13 76h-87v94zM297 206h79l13 76h-79z" />
    <glyph glyph-name="percent.otab" horiz-adv-x="857" 
d="M132 344q0 -25 14.5 -37t35.5 -12q23 0 37.5 12t14.5 37q0 23 -14.5 36t-37.5 13q-21 0 -35.5 -13t-14.5 -36zM240 0l242 488h134l-242 -488h-134zM342 344q0 -37 -14 -66t-37 -48.5t-51.5 -29.5t-57.5 -10q-28 0 -56.5 10t-51 29.5t-36.5 48.5t-14 66q0 36 14 64.5
t36.5 48t51 29.5t56.5 10q29 0 57.5 -10t51.5 -29.5t37 -48t14 -64.5zM623 146q0 -25 14.5 -37t35.5 -12q23 0 37.5 12t14.5 37q0 23 -14.5 36t-37.5 13q-21 0 -35.5 -13t-14.5 -36zM833 146q0 -37 -14 -66t-37 -48.5t-51.5 -29.5t-57.5 -10q-28 0 -56.5 10t-51 29.5
t-36.5 48.5t-14 66q0 36 14 64.5t36.5 48t51 29.5t56.5 10q29 0 57.5 -10t51.5 -29.5t37 -48t14 -64.5z" />
    <glyph glyph-name="perthousand.otab" horiz-adv-x="1209" 
d="M132 344q0 -25 14.5 -37t35.5 -12q23 0 37.5 12t14.5 37q0 23 -14.5 36t-37.5 13q-21 0 -35.5 -13t-14.5 -36zM240 0l242 488h134l-242 -488h-134zM342 344q0 -37 -14 -66t-37 -48.5t-51.5 -29.5t-57.5 -10q-28 0 -56.5 10t-51 29.5t-36.5 48.5t-14 66q0 36 14 64.5
t36.5 48t51 29.5t56.5 10q29 0 57.5 -10t51.5 -29.5t37 -48t14 -64.5zM623 146q0 -25 14.5 -37t35.5 -12q23 0 37.5 12t14.5 37q0 23 -14.5 36t-37.5 13q-21 0 -35.5 -13t-14.5 -36zM833 146q0 -37 -14 -66t-37 -48.5t-51.5 -29.5t-57.5 -10q-28 0 -56.5 10t-51 29.5
t-36.5 48.5t-14 66q0 36 14 64.5t36.5 48t51 29.5t56.5 10q29 0 57.5 -10t51.5 -29.5t37 -48t14 -64.5zM975 146q0 -25 14.5 -37t35.5 -12q23 0 37.5 12t14.5 37q0 23 -14.5 36t-37.5 13q-21 0 -35.5 -13t-14.5 -36zM1185 146q0 -37 -14 -66t-37 -48.5t-51.5 -29.5
t-57.5 -10q-28 0 -56.5 10t-51 29.5t-36.5 48.5t-14 66q0 36 14 64.5t36.5 48t51 29.5t56.5 10q29 0 57.5 -10t51.5 -29.5t37 -48t14 -64.5z" />
    <glyph glyph-name="zero.lprop" horiz-adv-x="694" 
d="M647 331q0 -85 -21.5 -149t-60.5 -106.5t-94.5 -64t-123.5 -21.5t-123.5 21.5t-94.5 64t-60.5 106.5t-21.5 149t21.5 149t60.5 107t94.5 64.5t123.5 21.5t123.5 -21.5t94.5 -64.5t60.5 -107t21.5 -149zM466 331q0 97 -29.5 136t-89.5 39t-89.5 -39t-29.5 -136
q0 -49 7.5 -82t22 -53.5t37 -29.5t52.5 -9t52.5 9t37 29.5t22 53.5t7.5 82z" />
    <glyph glyph-name="one.lprop" horiz-adv-x="563" 
d="M62 145h167v335h-2q-11 -5 -29.5 -12.5t-47.5 -15.5l-75 -22l-51 122l230 99q17 7 28 9.5t31 2.5h91v-518h131v-145h-473v145z" />
    <glyph glyph-name="two.lprop" horiz-adv-x="602" 
d="M563 145v-145h-517v92q0 15 2.5 22t16.5 20l221 203q44 40 61.5 64t17.5 50q0 32 -23 48.5t-57 16.5q-25 0 -49 -5t-61 -19l-87 -32l-60 105q54 48 124.5 78t146.5 30q52 0 97 -13.5t78 -40t52 -66t19 -90.5q0 -36 -10 -68t-32.5 -63t-59.5 -63.5t-91 -69.5l-78 -54h289z
" />
    <glyph glyph-name="three.lprop" horiz-adv-x="639" 
d="M84 208l88 -32q44 -16 75.5 -22.5t65.5 -6.5q42 0 69 15t27 52q0 25 -11 36q-8 8 -21.5 10.5t-34.5 2.5h-90q-11 0 -17 3t-6 14v118h135q11 0 16 2t9 9t6.5 19t2.5 24q0 35 -21.5 49.5t-64.5 14.5q-26 0 -55 -5.5t-61 -14.5l-92 -26l-50 107q59 46 129 71t140 25
q54 0 99 -12t77.5 -36t50.5 -59t18 -80q0 -43 -19 -78.5t-48 -61.5q42 -21 65.5 -54.5t23.5 -84.5q0 -47 -18 -87t-52.5 -69t-83.5 -45t-111 -16q-90 0 -167.5 32t-131.5 86z" />
    <glyph glyph-name="four.lprop" horiz-adv-x="672" 
d="M375 134h-340v124q0 14 3 22t14 22l270 337q12 15 19.5 19.5t23.5 4.5h184v-391h84v-138h-84v-134h-174v134zM375 272v226q-9 -13 -20.5 -28t-27.5 -35l-86 -108q-14 -18 -25.5 -30.5t-22.5 -24.5h182z" />
    <glyph glyph-name="five.lprop" horiz-adv-x="621" 
d="M229 486q0 -24 -1 -45t-3 -34q29 13 62 19.5t65 6.5q51 0 92.5 -14t71.5 -40.5t46.5 -65t16.5 -87.5q0 -51 -19 -94.5t-54 -75t-85 -49t-112 -17.5q-38 0 -77 8t-76 22t-70 33.5t-58 43.5l56 103l86 -28q43 -14 72.5 -19.5t54.5 -5.5q46 0 74.5 21t28.5 59t-27.5 54
t-64.5 16q-26 0 -58.5 -7.5t-60.5 -20.5q-11 -5 -17 -4.5t-18 7.5l-71 40q-9 5 -11 9t-2 13v329h462v-146h-303v-31z" />
    <glyph glyph-name="six.lprop" horiz-adv-x="654" 
d="M474 509q-33 7 -55.5 9.5t-42.5 2.5q-35 0 -64.5 -10t-47.5 -30q-14 -15 -23.5 -39t-12.5 -51l10 5q75 38 149 38q50 0 91.5 -14t71.5 -40.5t46.5 -64t16.5 -85.5q0 -53 -19.5 -97.5t-55 -76t-84 -49t-106.5 -17.5q-73 0 -129 24.5t-94.5 68t-58 102t-19.5 127.5v4
q0 84 23.5 150.5t66 112.5t100.5 70t127 24q60 0 115 -18t91 -46l-43 -111zM240 282q-8 -3 -10 -6.5t-1 -11.5q6 -61 39 -91t80 -30q45 0 70 24.5t25 60.5q0 38 -25.5 55t-67.5 17q-14 0 -30 -1.5t-31 -4t-27.5 -6t-21.5 -6.5z" />
    <glyph glyph-name="seven.lprop" horiz-adv-x="596" 
d="M328 0h-175q3 60 9 105t17.5 83t30 73t45.5 76q27 39 46.5 67t35 48.5t28.5 35.5t25 28h-360v147h550v-66v-30.5t-1.5 -17.5t-4.5 -12.5t-9 -14.5l-142 -216q-32 -48 -49.5 -89.5t-27 -79t-13 -71.5t-5.5 -66z" />
    <glyph glyph-name="eight.lprop" horiz-adv-x="662" 
d="M144 352q-32 22 -54.5 55t-22.5 78q0 40 19 74.5t53.5 60t82.5 39.5t107 14q52 0 100.5 -12.5t85.5 -37t59.5 -60.5t22.5 -83q0 -35 -19.5 -70.5t-47.5 -58.5q40 -22 65 -54t25 -83q0 -50 -22 -91t-60 -70.5t-91 -46t-114 -16.5q-66 0 -120.5 16.5t-93 45.5t-60 69
t-21.5 87q0 28 9 51t24 41t34 30.5t39 21.5zM269 293q-12 5 -19 2t-13 -8q-14 -11 -21.5 -26t-7.5 -32q0 -38 33 -63t91 -25q51 0 82 20t31 49q0 17 -15 24.5t-47 18.5zM386 400q14 -5 20 -3t12 8q8 8 15 21.5t7 25.5q0 36 -34 56.5t-83 20.5q-38 0 -64.5 -12t-26.5 -37
q0 -17 14.5 -26.5t51.5 -22.5z" />
    <glyph glyph-name="nine.lprop" horiz-adv-x="655" 
d="M284 142q73 0 106.5 33t36.5 97l-10 -5q-42 -21 -77.5 -29.5t-71.5 -8.5q-50 0 -92 14.5t-72 41t-46.5 64.5t-16.5 86q0 54 20 97.5t56 75t84.5 48.5t105.5 17q73 0 129 -24.5t94.5 -67.5t58 -102t19.5 -128v-4q0 -94 -24.5 -164.5t-70.5 -116.5q-38 -38 -87.5 -57
t-115.5 -19q-32 0 -63.5 5t-60.5 14t-54.5 21t-44.5 26l38 110l49 -10q35 -8 63.5 -11t46.5 -3zM415 381q9 4 10.5 8t0.5 10q-8 61 -39 91t-80 30q-44 0 -70 -23t-26 -60q0 -38 27 -56t69 -18q29 0 60 5.5t48 12.5z" />
    <glyph glyph-name="dollar.lprop" horiz-adv-x="655" 
d="M161 169q53 -11 99 -17t78 -6q101 0 101 55q0 23 -19.5 34.5t-70.5 23.5l-66 16q-51 12 -92 29t-69.5 41t-44 56.5t-15.5 75.5q0 44 15 77.5t43 57t66 37.5t85 20l20 124h108v-124q46 -5 92 -17t85 -30l-29 -121l-79 8q-35 4 -69.5 6t-62.5 2q-55 0 -81 -7t-26 -29
q0 -17 19 -26.5t67 -20.5l62 -15q62 -15 106 -32t71.5 -40.5t40.5 -55.5t13 -76q0 -47 -15 -85t-42.5 -66t-66 -45.5t-85.5 -24.5l-20 -125h-108v126q-61 7 -116.5 26t-103.5 45l40 117z" />
    <glyph glyph-name="cent.lprop" horiz-adv-x="563" 
d="M361 486q64 -18 105.5 -64t56.5 -106l-110 -52l-42 42q-26 26 -43 35.5t-39 9.5q-32 0 -54.5 -26.5t-22.5 -76.5q0 -57 28 -83.5t76 -26.5q20 0 46 6t46 14l71 26l52 -90q-29 -32 -74 -57.5t-96 -36.5l-20 -131h-98v127q-45 7 -82.5 28t-64 53t-41 75t-14.5 94
q0 50 16 92t43.5 73.5t64 51.5t78.5 28l20 138h98v-143z" />
    <glyph glyph-name="Euro.lprop" horiz-adv-x="711" 
d="M312 232q14 -34 42.5 -55t72.5 -21q32 0 62 7t72 25l53 23l65 -93q-23 -29 -54.5 -52.5t-67.5 -40t-74 -26t-74 -9.5q-112 0 -187.5 62t-97.5 180h-79v59l70 18v39h-70v59l79 20q23 116 99.5 181t192.5 65q83 0 147.5 -40.5t102.5 -121.5l-103 -74l-51 37
q-35 26 -56.5 34t-46.5 8q-39 0 -65 -24.5t-37 -62.5h157v-81h-167v-35h167v-81h-152z" />
    <glyph glyph-name="florin.lprop" horiz-adv-x="683" 
d="M236 480q0 95 47 142q49 51 150 51q45 0 86 -11t76 -29l-29 -100l-35 4q-16 2 -33 3t-34 1q-33 0 -49.5 -13t-16.5 -47v-134h154v-124h-154v-270q0 -95 -47 -142q-49 -51 -150 -51q-45 0 -86 11t-76 29l29 100l35 -4q16 -2 33 -3t34 -1q33 0 49.5 13t16.5 47v271h-125v93
l125 28v136z" />
    <glyph glyph-name="sterling.lprop" horiz-adv-x="685" 
d="M329 236q0 -28 -13 -50t-33 -41h343v-145h-530v87q0 12 2.5 18.5t12.5 18.5l17 21q20 25 27.5 38.5t7.5 31.5q0 9 -2.5 21t-6.5 26h-95v72l62 26q-7 23 -11.5 47t-4.5 46q0 49 18 89.5t51 69.5t80.5 45t106.5 16q47 0 89.5 -13.5t77.5 -37t61.5 -56t42.5 -70.5l-97 -70
l-74 50q-33 23 -56.5 31.5t-49.5 8.5q-35 0 -58 -15.5t-23 -53.5q0 -14 3.5 -31t8.5 -34h189v-118h-149q1 -5 2 -13.5t1 -14.5z" />
    <glyph glyph-name="yen.lprop" horiz-adv-x="680" 
d="M472 651q4 8 8 10t12 2h185l-187 -347h81v-103h-139v-31h139v-103h-139v-79h-178v79h-139v103h139v31h-139v103h80l-191 347h193q8 0 12 -2t8 -10l50 -101q29 -58 49 -104.5t31 -84.5h1q11 34 31.5 86.5t46.5 106.5z" />
    <glyph glyph-name="numbersign.lprop" 
d="M53 287h98l16 88h-114v116h134l31 172h133l-31 -172h97l31 172h133l-31 -172h79v-116h-99l-16 -88h115v-116h-135l-30 -171h-133l30 171h-97l-30 -171h-133l30 171h-78v116zM284 287h97l16 88h-97z" />
    <glyph glyph-name="percent.lprop" horiz-adv-x="984" 
d="M411 496q0 -38 -13.5 -70t-38 -56t-58.5 -37.5t-75 -13.5t-75 13.5t-58.5 37.5t-38 56t-13.5 70q0 37 13.5 69.5t38 56.5t58.5 37.5t75 13.5t75 -13.5t58.5 -37.5t38 -56.5t13.5 -69.5zM285 496q0 28 -14.5 44.5t-44.5 16.5t-44.5 -16.5t-14.5 -44.5t14.5 -44.5
t44.5 -16.5t44.5 16.5t14.5 44.5zM943 166q0 -38 -13.5 -70t-38 -56t-58.5 -37.5t-75 -13.5t-75 13.5t-58.5 37.5t-38 56t-13.5 70q0 37 13.5 69.5t38 56.5t58.5 37.5t75 13.5t75 -13.5t58.5 -37.5t38 -56.5t13.5 -69.5zM817 166q0 28 -14.5 44.5t-44.5 16.5t-44.5 -16.5
t-14.5 -44.5t14.5 -44.5t44.5 -16.5t44.5 16.5t14.5 44.5zM250 0l327 663h158l-327 -663h-158z" />
    <glyph glyph-name="perthousand.lprop" horiz-adv-x="1390" 
d="M411 496q0 -38 -13.5 -70t-38 -56t-58.5 -37.5t-75 -13.5t-75 13.5t-58.5 37.5t-38 56t-13.5 70q0 37 13.5 69.5t38 56.5t58.5 37.5t75 13.5t75 -13.5t58.5 -37.5t38 -56.5t13.5 -69.5zM285 496q0 28 -14.5 44.5t-44.5 16.5t-44.5 -16.5t-14.5 -44.5t14.5 -44.5
t44.5 -16.5t44.5 16.5t14.5 44.5zM943 166q0 -38 -13.5 -70t-38 -56t-58.5 -37.5t-75 -13.5t-75 13.5t-58.5 37.5t-38 56t-13.5 70q0 37 13.5 69.5t38 56.5t58.5 37.5t75 13.5t75 -13.5t58.5 -37.5t38 -56.5t13.5 -69.5zM817 166q0 28 -14.5 44.5t-44.5 16.5t-44.5 -16.5
t-14.5 -44.5t14.5 -44.5t44.5 -16.5t44.5 16.5t14.5 44.5zM1349 166q0 -38 -13.5 -70t-38 -56t-58.5 -37.5t-75 -13.5t-75 13.5t-58.5 37.5t-38 56t-13.5 70q0 37 13.5 69.5t38 56.5t58.5 37.5t75 13.5t75 -13.5t58.5 -37.5t38 -56.5t13.5 -69.5zM1223 166q0 28 -14.5 44.5
t-44.5 16.5t-44.5 -16.5t-14.5 -44.5t14.5 -44.5t44.5 -16.5t44.5 16.5t14.5 44.5zM250 0l327 663h158l-327 -663h-158z" />
    <glyph glyph-name="zero.oprop" horiz-adv-x="574" 
d="M548 244q0 -58 -20 -104.5t-55.5 -79.5t-83 -50.5t-102.5 -17.5t-102.5 17.5t-83 50.5t-55.5 79.5t-20 104.5t20 104.5t55.5 79.5t83 50.5t102.5 17.5t102.5 -17.5t83 -50.5t55.5 -79.5t20 -104.5zM375 244q0 56 -24 77.5t-64 21.5t-64 -21.5t-24 -77.5t24 -77.5
t64 -21.5t64 21.5t24 77.5z" />
    <glyph glyph-name="one.oprop" horiz-adv-x="536" 
d="M71 132h153v197q-10 -8 -34 -18t-47 -16l-61 -16l-41 115l204 81q20 8 30 10.5t26 2.5h92v-356h121v-132h-443v132z" />
    <glyph glyph-name="two.oprop" horiz-adv-x="577" 
d="M38 407q63 42 127 65.5t133 23.5q49 0 88 -11.5t66.5 -32.5t42.5 -50t15 -64q0 -31 -9.5 -57t-31 -48.5t-55.5 -42.5t-83 -39l-48 -19h246v-132h-470v110q0 11 2 15.5t13 11.5l200 118q34 20 46 33t12 29q0 31 -50 31q-26 0 -55.5 -6.5t-68.5 -18.5l-68 -21z" />
    <glyph glyph-name="three.oprop" horiz-adv-x="575" 
d="M65 19l64 -23q47 -17 80.5 -24.5t64.5 -7.5q44 0 68.5 20.5t24.5 55.5q0 25 -10 35q-13 13 -55 13h-93q-9 0 -12 3t-3 8v117h119q11 0 18.5 2.5t12.5 12.5q5 8 8 21t3 27q0 34 -21 51t-68 17q-53 0 -140 -29l-43 -14l-52 106q63 42 124 64t127 22q56 0 102.5 -15.5
t77.5 -43.5q26 -24 40.5 -55.5t14.5 -69.5q0 -40 -19.5 -75.5t-51.5 -65.5q44 -21 68.5 -55.5t24.5 -90.5q0 -46 -18.5 -84.5t-52 -66t-81.5 -43t-108 -15.5q-38 0 -75.5 8t-72.5 22t-65.5 34t-53.5 43z" />
    <glyph glyph-name="four.oprop" horiz-adv-x="630" 
d="M347 4h-312v111q0 13 3 20t13 20l256 317q9 11 15 13.5t23 2.5h170v-352h89v-132h-89v-159h-168v159zM347 136v194q-5 -8 -16 -23t-25 -32l-72 -90q-10 -12 -23 -26.5t-21 -22.5h157z" />
    <glyph glyph-name="five.oprop" horiz-adv-x="577" 
d="M200 318q0 -26 -1.5 -50.5t-4.5 -44.5q72 32 137 32q48 0 88 -15t68.5 -42t44.5 -65t16 -84q0 -58 -20 -101.5t-55 -73t-81.5 -44t-100.5 -14.5q-36 0 -73.5 8t-73.5 21.5t-68.5 32.5t-58.5 41l51 98l83 -26q45 -14 74 -21t58 -7q46 0 70 22.5t24 64.5q0 33 -21 56.5
t-72 23.5q-53 0 -116 -28q-7 -3 -13 -3t-16 5l-73 43q-5 3 -7 5.5t-2 10.5v325h454v-133h-311v-37z" />
    <glyph glyph-name="six.oprop" horiz-adv-x="638" 
d="M473 514q-36 8 -61.5 11.5t-48.5 3.5q-69 0 -103 -34.5t-43 -109.5l20 9q39 18 72.5 27.5t69.5 9.5q49 0 89.5 -14.5t69 -41.5t44.5 -64.5t16 -82.5q0 -52 -20 -95.5t-55 -74.5t-83 -48.5t-104 -17.5q-72 0 -126 25.5t-90 69t-54 101.5t-18 124v4q0 81 23 147t64.5 112
t98 71t124.5 25q60 0 112 -19t87 -42l-40 -105zM236 285q-12 -5 -15 -10t-3 -16q0 -23 7.5 -45t22.5 -39.5t38 -28t53 -10.5q50 0 72.5 26.5t22.5 61.5q0 44 -25.5 61.5t-71.5 17.5q-29 0 -55.5 -5.5t-45.5 -12.5z" />
    <glyph glyph-name="seven.oprop" horiz-adv-x="568" 
d="M310 -177h-171q3 60 9 105.5t17.5 84t30 73.5t45.5 76q27 39 46.5 67.5t35 50.5t28 39t25.5 33h-366v136h552v-56v-30.5t-1.5 -17.5t-4.5 -12.5t-9 -14.5l-142 -226q-33 -53 -51 -95.5t-27 -79t-12 -69t-5 -64.5z" />
    <glyph glyph-name="eight.oprop" horiz-adv-x="639" 
d="M141 353q-30 21 -52.5 53.5t-22.5 77.5q0 43 20 77.5t54.5 59t81 37.5t100.5 13q58 0 105 -14.5t81 -40t52.5 -60t18.5 -74.5q0 -42 -20 -73t-52 -57q41 -22 67.5 -54t26.5 -83q0 -49 -21 -90t-58 -70.5t-88 -46t-110 -16.5q-63 0 -115.5 16.5t-90 45.5t-58 68t-20.5 84
q0 52 28 87.5t73 59.5zM265 294q-15 6 -29 -3q-15 -11 -25 -27t-10 -38q0 -38 30.5 -64.5t91.5 -26.5q55 0 83.5 21.5t28.5 48.5q0 16 -13.5 25t-48.5 23zM373 402q8 -3 14.5 -3t13.5 7q14 14 21 29t7 35q0 34 -30 51t-79 17q-46 0 -71 -12.5t-25 -37.5q0 -18 16 -29.5
t48 -23.5z" />
    <glyph glyph-name="nine.oprop" horiz-adv-x="638" 
d="M163 -24q41 -10 71 -14t53 -4q131 0 138 145l-20 -9q-39 -18 -74.5 -27.5t-71.5 -9.5q-49 0 -89 15t-68.5 42t-44 64.5t-15.5 81.5q0 52 19.5 95.5t54.5 74.5t83 48.5t104 17.5q72 0 126.5 -25.5t91 -69t55 -101.5t18.5 -124v-4q0 -81 -20 -147t-58 -112.5t-92 -71.5
t-123 -25q-58 0 -112.5 19t-89.5 43l40 104zM406 203q12 5 15 10t3 16q0 23 -8 45t-23.5 39.5t-39 28t-53.5 10.5q-50 0 -72 -25t-22 -58q0 -43 25 -63.5t71 -20.5q29 0 57 5.5t47 12.5z" />
    <glyph glyph-name="dollar.oprop" horiz-adv-x="563" 
d="M456 353l-56 6q-34 4 -64.5 6t-52.5 2q-42 0 -56.5 -4t-14.5 -15q0 -8 9 -12.5t34 -9.5l63 -12q45 -9 80 -20t59 -28.5t37 -43t13 -63.5q0 -62 -39 -106t-120 -56l-20 -128h-108v129q-46 7 -90 21.5t-76 34.5l36 100l63 -14q42 -9 77.5 -14t63.5 -5q64 0 64 26
q0 10 -8.5 14t-25.5 8l-71 14q-45 9 -79.5 21.5t-58.5 30.5q-51 39 -51 109q0 62 41.5 99t114.5 48l21 128h108v-127q35 -5 69 -13t63 -21z" />
    <glyph glyph-name="cent.oprop" horiz-adv-x="546" 
d="M360 426q51 -18 84 -58t46 -90l-98 -47l-34 35q-22 23 -37 30t-33 7q-26 0 -47.5 -21.5t-21.5 -62.5q0 -48 25 -69t66 -21q17 0 36 4t37 10l63 21l51 -84q-24 -25 -59.5 -46.5t-77.5 -32.5l-20 -132h-105v129q-76 16 -123 73.5t-47 145.5q0 43 13 79t36 64t54 46.5
t67 26.5l20 132h105v-139z" />
    <glyph glyph-name="Euro.oprop" horiz-adv-x="664" 
d="M303 174q10 -21 29 -31t51 -10q24 0 46.5 5t48.5 13l82 25l49 -84q-19 -20 -45.5 -38t-57.5 -32t-64.5 -22t-67.5 -8q-94 0 -159 48t-86 134h-74v43l66 11v26h-66v43l73 12q10 44 33.5 79t56 59t72 36.5t81.5 12.5q46 0 84.5 -14.5t67.5 -39t49 -58t29 -70.5l-101 -44
l-42 42q-25 24 -45.5 33.5t-42.5 9.5q-28 0 -44.5 -11.5t-24.5 -32.5h101v-57h-110v-23h110v-57h-99z" />
    <glyph glyph-name="florin.oprop" horiz-adv-x="528" 
d="M320 -60q0 -178 -173 -178q-39 0 -80 10t-73 26l24 96q22 -3 42.5 -5t40.5 -2q36 0 49 12t13 37v171h-99v71l99 19v121q0 178 173 178q39 0 80 -10t73 -26l-24 -96q-22 3 -42.5 5t-40.5 2q-36 0 -49 -12t-13 -37v-122h114v-93h-114v-167z" />
    <glyph glyph-name="sterling.oprop" horiz-adv-x="607" 
d="M550 0h-471v81q0 8 1.5 11t6.5 8l21 21q12 12 19 22.5t7 24.5q0 13 -6 30h-87v53l63 19q-9 28 -9 55q0 42 16.5 74t45.5 53.5t68 32.5t85 11q35 0 69.5 -8t66.5 -22t59.5 -34.5t48.5 -44.5l-61 -85l-70 24q-43 15 -67 20.5t-44 5.5q-30 0 -47 -11t-17 -34q0 -12 5 -32
h144v-77h-120q1 -5 1.5 -9t0.5 -8q0 -13 -8 -27t-19 -25h298v-129z" />
    <glyph glyph-name="yen.oprop" horiz-adv-x="624" 
d="M589 488l-157 -259h96v-65h-126v-21h126v-65h-126v-78h-168v78h-126v65h126v21h-126v65h92l-165 259h164q9 0 12.5 -2t6.5 -7l100 -179h1l92 179q3 5 6.5 7t12.5 2h159z" />
    <glyph glyph-name="numbersign.oprop" 
d="M107 376h101l21 112h117l-21 -112h78l21 112h117l-21 -112h55v-94h-70l-13 -76h83v-94h-101l-18 -112h-117l19 112h-78l-19 -112h-117l19 112h-56v94h74l13 76h-87v94zM297 206h79l13 76h-79z" />
    <glyph glyph-name="percent.oprop" horiz-adv-x="857" 
d="M132 344q0 -25 14.5 -37t35.5 -12q23 0 37.5 12t14.5 37q0 23 -14.5 36t-37.5 13q-21 0 -35.5 -13t-14.5 -36zM240 0l242 488h134l-242 -488h-134zM342 344q0 -37 -14 -66t-37 -48.5t-51.5 -29.5t-57.5 -10q-28 0 -56.5 10t-51 29.5t-36.5 48.5t-14 66q0 36 14 64.5
t36.5 48t51 29.5t56.5 10q29 0 57.5 -10t51.5 -29.5t37 -48t14 -64.5zM623 146q0 -25 14.5 -37t35.5 -12q23 0 37.5 12t14.5 37q0 23 -14.5 36t-37.5 13q-21 0 -35.5 -13t-14.5 -36zM833 146q0 -37 -14 -66t-37 -48.5t-51.5 -29.5t-57.5 -10q-28 0 -56.5 10t-51 29.5
t-36.5 48.5t-14 66q0 36 14 64.5t36.5 48t51 29.5t56.5 10q29 0 57.5 -10t51.5 -29.5t37 -48t14 -64.5z" />
    <glyph glyph-name="perthousand.oprop" horiz-adv-x="1209" 
d="M132 344q0 -25 14.5 -37t35.5 -12q23 0 37.5 12t14.5 37q0 23 -14.5 36t-37.5 13q-21 0 -35.5 -13t-14.5 -36zM240 0l242 488h134l-242 -488h-134zM342 344q0 -37 -14 -66t-37 -48.5t-51.5 -29.5t-57.5 -10q-28 0 -56.5 10t-51 29.5t-36.5 48.5t-14 66q0 36 14 64.5
t36.5 48t51 29.5t56.5 10q29 0 57.5 -10t51.5 -29.5t37 -48t14 -64.5zM623 146q0 -25 14.5 -37t35.5 -12q23 0 37.5 12t14.5 37q0 23 -14.5 36t-37.5 13q-21 0 -35.5 -13t-14.5 -36zM833 146q0 -37 -14 -66t-37 -48.5t-51.5 -29.5t-57.5 -10q-28 0 -56.5 10t-51 29.5
t-36.5 48.5t-14 66q0 36 14 64.5t36.5 48t51 29.5t56.5 10q29 0 57.5 -10t51.5 -29.5t37 -48t14 -64.5zM975 146q0 -25 14.5 -37t35.5 -12q23 0 37.5 12t14.5 37q0 23 -14.5 36t-37.5 13q-21 0 -35.5 -13t-14.5 -36zM1185 146q0 -37 -14 -66t-37 -48.5t-51.5 -29.5
t-57.5 -10q-28 0 -56.5 10t-51 29.5t-36.5 48.5t-14 66q0 36 14 64.5t36.5 48t51 29.5t56.5 10q29 0 57.5 -10t51.5 -29.5t37 -48t14 -64.5z" />
    <glyph glyph-name="fraction" unicode="&#x2044;" horiz-adv-x="421" 
d="M-32 0l327 663h158l-327 -663h-158z" />
    <glyph glyph-name="onesuperior" unicode="&#xb9;" horiz-adv-x="402" 
d="M156 436v112q-12 -7 -42 -14l-37 -9l-32 87l118 48q10 4 19 6.5t18 2.5h82v-233h64v-100h-281v100h91z" />
    <glyph glyph-name="twosuperior" unicode="&#xb2;" horiz-adv-x="401" 
d="M343 436v-100h-288v48q0 8 1.5 12t8.5 10l90 73q28 23 40 37.5t12 28.5q0 11 -7 17.5t-21 6.5q-10 0 -23.5 -2.5t-42.5 -13.5l-42 -15l-38 72q32 29 75.5 46t88.5 17q65 0 100 -29.5t35 -77.5q0 -20 -5 -37t-15.5 -32t-27.5 -30t-41 -31h100z" />
    <glyph glyph-name="threesuperior" unicode="&#xb3;" horiz-adv-x="402" 
d="M134 436q17 -4 34 -6t29 -2q23 0 31.5 7t8.5 16q0 8 -5.5 10.5t-19.5 2.5h-55q-16 0 -16 11v62h75q8 0 11 5q3 6 3 12q0 20 -43 20q-17 0 -33 -2t-32 -5l-44 -9l-25 73q35 20 73.5 31t80.5 11q34 0 60 -7.5t44 -20t27 -29t9 -33.5q0 -21 -9 -39t-23 -30q40 -19 40 -64
q0 -24 -9.5 -46t-28 -39t-45 -27.5t-60.5 -10.5q-50 0 -94 16t-71 40l29 65z" />
    <glyph glyph-name="onehalf" unicode="&#xbd;" horiz-adv-x="966" 
d="M256 0l327 663h158l-327 -663h-158zM174 437v112q-12 -7 -42 -14l-37 -9l-32 87l118 48q10 4 19 6.5t18 2.5h82v-233h64v-100h-281v100h91zM910 100v-100h-288v48q0 8 1.5 12t8.5 10l90 73q28 23 40 37.5t12 28.5q0 11 -7 17.5t-21 6.5q-10 0 -23.5 -2.5t-42.5 -13.5
l-42 -15l-38 72q32 29 75.5 46t88.5 17q65 0 100 -29.5t35 -77.5q0 -20 -5 -37t-15.5 -32t-27.5 -30t-41 -31h100z" />
    <glyph glyph-name="onequarter" unicode="&#xbc;" horiz-adv-x="966" 
d="M749 63h-181v76q0 8 1.5 11.5t7.5 11.5l127 159q7 8 11 10t13 2h138v-185h51v-85h-51v-63h-117v63zM749 148v87q-5 -8 -12.5 -18t-14.5 -18l-16 -19q-17 -20 -29 -32h72zM256 0l327 663h158l-327 -663h-158zM174 437v112q-12 -7 -42 -14l-37 -9l-32 87l118 48
q10 4 19 6.5t18 2.5h82v-233h64v-100h-281v100h91z" />
    <glyph glyph-name="threequarters" unicode="&#xbe;" horiz-adv-x="966" 
d="M741 63h-181v76q0 8 1.5 11.5t7.5 11.5l127 159q7 8 11 10t13 2h138v-185h51v-85h-51v-63h-117v63zM741 148v87q-5 -8 -12.5 -18t-14.5 -18l-16 -19q-17 -20 -29 -32h72zM244 0l327 663h158l-327 -663h-158zM150 437q17 -4 34 -6t29 -2q23 0 31.5 7t8.5 16q0 8 -5.5 10.5
t-19.5 2.5h-55q-16 0 -16 11v62h75q8 0 11 5q3 6 3 12q0 20 -43 20q-17 0 -33 -2t-32 -5l-44 -9l-25 73q35 20 73.5 31t80.5 11q34 0 60 -7.5t44 -20t27 -29t9 -33.5q0 -21 -9 -39t-23 -30q40 -19 40 -64q0 -24 -9.5 -46t-28 -39t-45 -27.5t-60.5 -10.5q-50 0 -94 16t-71 40
l29 65z" />
    <glyph glyph-name="grave" unicode="`" horiz-adv-x="434" 
d="M76 661l63 92q12 18 23 18q7 0 21 -11l175 -145l-47 -68z" />
    <glyph glyph-name="acute" unicode="&#xb4;" horiz-adv-x="434" 
d="M123 547l-47 68l175 145q14 11 21 11q11 0 23 -18l63 -92z" />
    <glyph glyph-name="dieresis" unicode="&#xa8;" horiz-adv-x="434" 
d="M144 714q21 0 28 -7t7 -25v-112h-148v144h113zM368 714q21 0 28 -7t7 -25v-112h-148v144h113z" />
    <glyph glyph-name="circumflex" unicode="&#x2c6;" horiz-adv-x="434" 
d="M246 753q12 0 18 -2.5t14 -10.5l128 -133l-62 -61l-127 90h-1l-127 -90l-62 61l128 133q8 8 14 10.5t18 2.5h59z" />
    <glyph glyph-name="tilde" unicode="&#x2dc;" horiz-adv-x="434" 
d="M285 566q-24 0 -42.5 7.5t-33.5 16t-27.5 16t-23.5 7.5q-15 0 -26 -14t-22 -39l-90 24q2 27 11.5 53t25.5 46.5t39 32.5t53 12q24 0 42.5 -7.5t33.5 -16t27.5 -16t23.5 -7.5q15 0 26 14t22 39l90 -24q-2 -27 -11.5 -53t-25.5 -46.5t-39 -32.5t-53 -12z" />
    <glyph glyph-name="macron" unicode="&#xaf;" horiz-adv-x="434" 
d="M51 582v121h332v-121h-332z" />
    <glyph glyph-name="breve" unicode="&#x2d8;" horiz-adv-x="434" 
d="M217 559q-41 0 -72.5 12.5t-54 34.5t-36 51.5t-16.5 62.5l106 18q11 -32 28 -48.5t45 -16.5t45 16.5t28 48.5l106 -18q-3 -33 -16.5 -62.5t-36 -51.5t-54.5 -34.5t-72 -12.5z" />
    <glyph glyph-name="dotaccent" unicode="&#x2d9;" horiz-adv-x="434" 
d="M257 713q22 0 29 -7t7 -26v-116h-153v149h117z" />
    <glyph glyph-name="ring" unicode="&#x2da;" horiz-adv-x="434" 
d="M359 692q0 -62 -39.5 -98.5t-102.5 -36.5t-102.5 36.5t-39.5 98.5t39.5 98.5t102.5 36.5t102.5 -36.5t39.5 -98.5zM266 692q0 22 -11 34.5t-38 12.5t-38 -12.5t-11 -34.5t11 -34.5t38 -12.5t38 12.5t11 34.5z" />
    <glyph glyph-name="cedilla" unicode="&#xb8;" horiz-adv-x="434" 
d="M189 37l59 -26q-11 -12 -17.5 -23t-6.5 -19q0 -10 16 -15t35.5 -13t36 -22.5t16.5 -43.5q0 -57 -50 -90t-151 -33l-17 87l53 8q32 4 32 18q0 7 -14 12t-31 12t-31 18t-14 30t14 38t36 36z" />
    <glyph glyph-name="hungarumlaut" unicode="&#x2dd;" horiz-adv-x="434" 
d="M459 749l-172 -188l-81 56l122 193q8 13 17.5 16t23.5 -8zM229 749l-172 -188l-81 56l122 193q8 13 17.5 16t23.5 -8z" />
    <glyph glyph-name="ogonek" unicode="&#x2db;" horiz-adv-x="434" 
d="M304 63q-51 -39 -75.5 -75.5t-24.5 -63.5q0 -26 17 -36.5t43 -10.5q11 0 27.5 2t33.5 4l23 -82q-23 -14 -55 -22t-60 -8q-68 0 -108 32t-40 85q0 31 13.5 60.5t35.5 55.5t50 49t57 42q17 -9 31 -16q12 -6 22 -11.5t10 -4.5z" />
    <glyph glyph-name="caron" unicode="&#x2c7;" horiz-adv-x="434" 
d="M217 676l127 90l62 -61l-128 -133q-8 -8 -14 -10.5t-18 -2.5h-59q-12 0 -18 2.5t-14 10.5l-128 133l62 61l127 -90h1z" />
    <glyph glyph-name="commaaccent" unicode="&#x326;" horiz-adv-x="434" 
d="M137 -309l17 251h92q11 0 16 -2.5t10 -7.5q24 -27 24 -56q0 -14 -7 -35t-28 -61l-54 -103z" />
    <glyph glyph-name="grave.cap" horiz-adv-x="434" 
d="M76 831l63 92q12 18 23 18q7 0 21 -11l175 -145l-47 -68z" />
    <glyph glyph-name="acute.cap" horiz-adv-x="434" 
d="M123 717l-47 68l175 145q14 11 21 11q11 0 23 -18l63 -92z" />
    <glyph glyph-name="dieresis.cap" horiz-adv-x="434" 
d="M144 884q21 0 28 -7t7 -25v-112h-148v144h113zM368 884q21 0 28 -7t7 -25v-112h-148v144h113z" />
    <glyph glyph-name="circumflex.cap" horiz-adv-x="434" 
d="M246 923q12 0 18 -2.5t14 -10.5l128 -133l-62 -61l-127 90h-1l-127 -90l-62 61l128 133q8 8 14 10.5t18 2.5h59z" />
    <glyph glyph-name="tilde.cap" horiz-adv-x="434" 
d="M285 736q-24 0 -42.5 7.5t-33.5 16t-27.5 16t-23.5 7.5q-15 0 -26 -14t-22 -39l-90 24q2 27 11.5 53t25.5 46.5t39 32.5t53 12q24 0 42.5 -7.5t33.5 -16t27.5 -16t23.5 -7.5q15 0 26 14t22 39l90 -24q-2 -27 -11.5 -53t-25.5 -46.5t-39 -32.5t-53 -12z" />
    <glyph glyph-name="macron.cap" horiz-adv-x="434" 
d="M51 752v121h332v-121h-332z" />
    <glyph glyph-name="breve.cap" horiz-adv-x="434" 
d="M217 729q-41 0 -72.5 12.5t-54 34.5t-36 51.5t-16.5 62.5l106 18q11 -32 28 -48.5t45 -16.5t45 16.5t28 48.5l106 -18q-3 -33 -16.5 -62.5t-36 -51.5t-54.5 -34.5t-72 -12.5z" />
    <glyph glyph-name="dotaccent.cap" horiz-adv-x="434" 
d="M257 883q22 0 29 -7t7 -26v-116h-153v149h117z" />
    <glyph glyph-name="ring.cap" horiz-adv-x="434" 
d="M359 862q0 -62 -39.5 -98.5t-102.5 -36.5t-102.5 36.5t-39.5 98.5t39.5 98.5t102.5 36.5t102.5 -36.5t39.5 -98.5zM266 862q0 22 -11 34.5t-38 12.5t-38 -12.5t-11 -34.5t11 -34.5t38 -12.5t38 12.5t11 34.5z" />
    <glyph glyph-name="hungarumlaut.cap" horiz-adv-x="434" 
d="M459 919l-172 -188l-81 56l122 193q8 13 17.5 16t23.5 -8zM229 919l-172 -188l-81 56l122 193q8 13 17.5 16t23.5 -8z" />
    <glyph glyph-name="caron.cap" horiz-adv-x="434" 
d="M217 846l127 90l62 -61l-128 -133q-8 -8 -14 -10.5t-18 -2.5h-59q-12 0 -18 2.5t-14 10.5l-128 133l62 61l127 -90h1z" />
    <glyph glyph-name="arrowleft.cap" horiz-adv-x="800" 
d="M50 352q0 10 2 15t10 13l207 207l70 -70l-94 -119h504v-133h-507l97 -124l-70 -70l-219 219v62z" />
    <glyph glyph-name="arrowup.cap" horiz-adv-x="800" 
d="M423 682q10 0 15 -2t13 -10l207 -207l-70 -70l-116 94v-504h-139v507l-121 -97l-70 69l219 220h62z" />
    <glyph glyph-name="arrowright.cap" horiz-adv-x="800" 
d="M749 311q0 -10 -2 -15t-10 -13l-207 -207l-70 70l94 119h-504v133h507l-97 124l70 70l219 -219v-62z" />
    <glyph glyph-name="arrowdown.cap" horiz-adv-x="800" 
d="M377 -17q-8 0 -14 2t-14 10l-207 207l70 70l116 -94v504h139v-507l121 97l70 -69l-219 -220h-62z" />
    <glyph glyph-name="uni2196.cap" horiz-adv-x="800" 
d="M159 597q8 8 14 9t13 1h292v-99l-146 -18l354 -354l-98 -99l-356 357l-19 -152h-99v310z" />
    <glyph glyph-name="uni2197.cap" horiz-adv-x="800" 
d="M676 562q6 -6 8 -10t2 -13v-297h-99l-19 152l-356 -357l-98 99l354 354l-146 18v99h309z" />
    <glyph glyph-name="uni2198.cap" horiz-adv-x="800" 
d="M640 46q-6 -6 -10 -8t-13 -2h-297v99l152 19l-357 356l99 98l354 -354l18 146h99v-309z" />
    <glyph glyph-name="uni2199.cap" horiz-adv-x="800" 
d="M124 82q-6 6 -8 10t-2 13v297h99l19 -152l356 357l98 -99l-354 -354l146 -18v-99h-309z" />
    <glyph glyph-name="periodcentered.cap" horiz-adv-x="258" 
d="M173 417q25 0 34.5 -9t9.5 -30v-132h-176v171h132z" />
    <glyph glyph-name="bullet.cap" horiz-adv-x="376" 
d="M319 206h-262v249h204q58 0 58 -57v-192z" />
    <glyph glyph-name="at.cap" horiz-adv-x="776" 
d="M424 379q0 14 -9 21t-32 7q-15 0 -34.5 -3t-36.5 -7l-30 -7l-25 55q27 24 64.5 38t75.5 14q73 0 109 -37q14 -15 21.5 -37.5t7.5 -55.5v-80q0 -17 7.5 -26.5t24.5 -9.5q8 0 16.5 4t16 15t12.5 31.5t5 52.5q0 40 -14.5 77.5t-43 66.5t-70 46.5t-94.5 17.5q-51 0 -93.5 -15
t-73 -43.5t-48 -69.5t-17.5 -92t15.5 -95t47 -76t78.5 -50t110 -18q37 0 80 6.5t78 15.5l97 25l33 -68q-23 -20 -57.5 -36.5t-75 -29t-85.5 -19.5t-89 -7q-80 0 -146 26.5t-113.5 72.5t-74 109t-26.5 137q0 77 28 139.5t76.5 106.5t113 68t137.5 24q75 0 138 -24.5
t108.5 -66.5t71 -96.5t25.5 -114.5q0 -54 -15.5 -93t-41.5 -64q-25 -25 -58.5 -36.5t-69.5 -11.5q-34 0 -59.5 10t-39.5 26l-24 -11q-35 -17 -67 -17q-26 0 -47 8.5t-36 22.5t-23.5 33.5t-8.5 40.5q0 24 8.5 41t23 28.5t33.5 16.5t39 5q42 0 77 -16v25zM424 293q0 3 -3 3
h-64q-12 0 -12 -12q0 -11 9 -19t26 -8q9 0 21 3t20 7q3 1 3 5v21z" />
    <glyph glyph-name="parenleft.cap" horiz-adv-x="387" 
d="M363 -65l-77 -63q-100 79 -159.5 194.5t-59.5 265.5t59.5 265.5t159.5 194.5l77 -63q-31 -50 -53 -95t-36 -91.5t-20.5 -97.5t-6.5 -113t6.5 -113t20.5 -97.5t36 -91.5t53 -95z" />
    <glyph glyph-name="parenright.cap" horiz-adv-x="387" 
d="M24 -65q31 50 53 95t36 91.5t20.5 97.5t6.5 113t-6.5 113t-20.5 97.5t-36 91.5t-53 95l77 63q100 -79 159.5 -194.5t59.5 -265.5t-59.5 -265.5t-159.5 -194.5z" />
    <glyph glyph-name="bracketleft.cap" horiz-adv-x="384" 
d="M231 33h133v-147h-294v892h294v-147h-133v-598z" />
    <glyph glyph-name="bracketright.cap" horiz-adv-x="384" 
d="M153 631h-133v147h294v-892h-294v147h133v598z" />
    <glyph glyph-name="braceleft.cap" horiz-adv-x="420" 
d="M39 387q30 13 50 24t31 21.5t15.5 22t4.5 26.5q0 12 -3.5 34.5t-7.5 48t-7.5 51t-3.5 45.5q0 33 12.5 57.5t34 40.5t51 24t62.5 8q29 0 63 -5.5t61 -13.5v-103l-98 -25q-8 -2 -11 -5t-3 -11q0 -7 3 -24t6.5 -38t6.5 -44t3 -43q0 -24 -6 -44.5t-21.5 -37.5t-42.5 -32.5
t-69 -30.5q42 -15 69 -30.5t42.5 -32.5t21.5 -37.5t6 -44.5q0 -20 -3 -43t-6.5 -44.5t-6.5 -38.5t-3 -24q0 -8 3 -11t11 -5l98 -25v-103q-27 -8 -61 -13.5t-63 -5.5q-33 0 -62.5 8t-51 24t-34 40.5t-12.5 57.5q0 19 3.5 45t7.5 52t7.5 48.5t3.5 34.5q0 15 -4.5 26.5
t-15.5 22t-31 21t-50 24.5v108z" />
    <glyph glyph-name="braceright.cap" horiz-adv-x="420" 
d="M381 279q-30 -14 -50 -24.5t-31 -21t-15.5 -22t-4.5 -26.5q0 -12 3.5 -34.5t7.5 -48.5t7.5 -52t3.5 -45q0 -33 -12.5 -57.5t-34 -40.5t-51 -24t-62.5 -8q-29 0 -63 5.5t-61 13.5v103l98 25q8 2 11 5t3 11q0 7 -3 24t-6.5 38.5t-6.5 44.5t-3 43q0 24 6 44.5t21.5 37.5
t42.5 32.5t69 30.5q-42 15 -69 30.5t-42.5 32.5t-21.5 37.5t-6 44.5q0 20 3 43t6.5 44t6.5 38t3 24q0 8 -3 11t-11 5l-98 25v103q27 8 61 13.5t63 5.5q33 0 62.5 -8t51 -24t34 -40.5t12.5 -57.5q0 -20 -3.5 -45.5t-7.5 -51t-7.5 -48t-3.5 -34.5q0 -15 4.5 -26.5t15.5 -22
t31 -21.5t50 -24v-108z" />
    <glyph glyph-name="questiondown.cap" horiz-adv-x="554" 
d="M365.978 453.973l11.999 -73.9961q5 -32.998 -2.49902 -50.4971q-7.5 -17.499 -35.498 -33.4971l-40.998 -22.999q-24.998 -13.999 -41.9971 -24.499q-16.999 -10.499 -26.998 -19.498q-10 -9 -14 -17.499q-3.99902 -8.5 -3.99902 -19.499q0 -25.998 21.998 -38.498
q21.999 -12.499 53.9971 -12.499q25.998 0 52.9971 6q26.998 5.99902 64.9961 17.999l65.9951 21.998l57.9971 -100.993q-57.9971 -47.9971 -122.492 -71.9961q-64.4961 -23.998 -127.493 -23.998q-58.9961 0 -104.993 15.499t-77.9951 44.4971
q-26.998 24.998 -41.9971 58.4961t-14.999 74.4961q0 76.9951 48.4961 123.992q48.4971 46.9971 143.492 75.9951l15.998 70.9961h117.993zM247.984 509.969q-25.998 0 -25.998 25.998v126.993h163.99v-152.991h-137.992z" />
    <glyph glyph-name="exclamdown.cap" horiz-adv-x="306" 
d="M91.9941 503.969q-25.998 0 -25.998 25.999v132.992h169.989v-158.991h-143.991zM65.9961 148.991q0 36.9971 3 73.4951t10.999 87.4951l18.999 129.991h103.993l18.999 -129.991q8 -50.9971 10.999 -87.4951q3 -36.498 3 -73.4951v-148.991h-169.989v148.991z" />
    <glyph glyph-name="guillemotleft.cap" horiz-adv-x="672" 
d="M330 370l235 189l70 -70l-128 -157v-2l128 -157l-70 -70l-223 178q-5 5 -8.5 10t-3.5 16v63zM32 370l235 189l70 -70l-128 -157v-2l128 -157l-70 -70l-223 178q-5 5 -8.5 10t-3.5 16v63z" />
    <glyph glyph-name="guillemotright.cap" horiz-adv-x="672" 
d="M640 292l-235 -189l-70 70l128 157v2l-128 157l70 70l223 -178q5 -5 8.5 -10t3.5 -16v-63zM342 292l-235 -189l-70 70l128 157v2l-128 157l70 70l223 -178q5 -5 8.5 -10t3.5 -16v-63z" />
    <glyph glyph-name="guilsinglleft.cap" horiz-adv-x="374" 
d="M32 370l235 189l70 -70l-128 -157v-2l128 -157l-70 -70l-223 178q-5 5 -8.5 10t-3.5 16v63z" />
    <glyph glyph-name="guilsinglright.cap" horiz-adv-x="374" 
d="M342 292l-235 -189l-70 70l128 157v2l-128 157l70 70l223 -178q5 -5 8.5 -10t3.5 -16v-63z" />
    <glyph glyph-name="hyphen.cap" horiz-adv-x="429" 
d="M41 264v133h347v-133h-347z" />
    <glyph glyph-name="uni00AD.cap" horiz-adv-x="429" 
d="M41 264v133h347v-133h-347z" />
    <glyph glyph-name="endash.cap" horiz-adv-x="582" 
d="M41 264v133h500v-133h-500z" />
    <glyph glyph-name="emdash.cap" horiz-adv-x="1082" 
d="M41 264v133h1000v-133h-1000z" />
    <glyph glyph-name="Agrave" unicode="&#xc0;" horiz-adv-x="726" 
d="M256 663h177q9 0 13 -2t8 -13l264 -648h-170q-9 0 -13.5 2.5t-8.5 12.5l-36 95h-265l-32 -95q-3 -10 -7.5 -12.5t-13.5 -2.5h-164zM352 494h-1q-5 -27 -20 -73.5t-39 -115.5l-18 -56h162l-20 56q-28 74 -43 117.5t-21 71.5zM213 831l63 92q12 18 23 18q7 0 21 -11
l175 -145l-47 -68z" />
    <glyph glyph-name="Aacute" unicode="&#xc1;" horiz-adv-x="726" 
d="M256 663h177q9 0 13 -2t8 -13l264 -648h-170q-9 0 -13.5 2.5t-8.5 12.5l-36 95h-265l-32 -95q-3 -10 -7.5 -12.5t-13.5 -2.5h-164zM352 494h-1q-5 -27 -20 -73.5t-39 -115.5l-18 -56h162l-20 56q-28 74 -43 117.5t-21 71.5zM261 717l-47 68l175 145q14 11 21 11
q11 0 23 -18l63 -92z" />
    <glyph glyph-name="Acircumflex" unicode="&#xc2;" horiz-adv-x="726" 
d="M256 663h177q9 0 13 -2t8 -13l264 -648h-170q-9 0 -13.5 2.5t-8.5 12.5l-36 95h-265l-32 -95q-3 -10 -7.5 -12.5t-13.5 -2.5h-164zM352 494h-1q-5 -27 -20 -73.5t-39 -115.5l-18 -56h162l-20 56q-28 74 -43 117.5t-21 71.5zM382 923q12 0 18 -2.5t14 -10.5l128 -133
l-62 -61l-127 90h-1l-127 -90l-62 61l128 133q8 8 14 10.5t18 2.5h59z" />
    <glyph glyph-name="Atilde" unicode="&#xc3;" horiz-adv-x="726" 
d="M256 663h177q9 0 13 -2t8 -13l264 -648h-170q-9 0 -13.5 2.5t-8.5 12.5l-36 95h-265l-32 -95q-3 -10 -7.5 -12.5t-13.5 -2.5h-164zM352 494h-1q-5 -27 -20 -73.5t-39 -115.5l-18 -56h162l-20 56q-28 74 -43 117.5t-21 71.5zM420 736q-24 0 -42.5 7.5t-33.5 16t-27.5 16
t-23.5 7.5q-15 0 -26 -14t-22 -39l-90 24q2 27 11.5 53t25.5 46.5t39 32.5t53 12q24 0 42.5 -7.5t33.5 -16t27.5 -16t23.5 -7.5q15 0 26 14t22 39l90 -24q-2 -27 -11.5 -53t-25.5 -46.5t-39 -32.5t-53 -12z" />
    <glyph glyph-name="Adieresis" unicode="&#xc4;" horiz-adv-x="726" 
d="M256 663h177q9 0 13 -2t8 -13l264 -648h-170q-9 0 -13.5 2.5t-8.5 12.5l-36 95h-265l-32 -95q-3 -10 -7.5 -12.5t-13.5 -2.5h-164zM352 494h-1q-5 -27 -20 -73.5t-39 -115.5l-18 -56h162l-20 56q-28 74 -43 117.5t-21 71.5zM278 884q21 0 28 -7t7 -25v-112h-148v144h113z
M502 884q21 0 28 -7t7 -25v-112h-148v144h113z" />
    <glyph glyph-name="Amacron" unicode="&#x100;" horiz-adv-x="726" 
d="M256 663h177q9 0 13 -2t8 -13l264 -648h-170q-9 0 -13.5 2.5t-8.5 12.5l-36 95h-265l-32 -95q-3 -10 -7.5 -12.5t-13.5 -2.5h-164zM352 494h-1q-5 -27 -20 -73.5t-39 -115.5l-18 -56h162l-20 56q-28 74 -43 117.5t-21 71.5zM185 752v121h332v-121h-332z" />
    <glyph glyph-name="Abreve" unicode="&#x102;" horiz-adv-x="726" 
d="M256 663h177q9 0 13 -2t8 -13l264 -648h-170q-9 0 -13.5 2.5t-8.5 12.5l-36 95h-265l-32 -95q-3 -10 -7.5 -12.5t-13.5 -2.5h-164zM352 494h-1q-5 -27 -20 -73.5t-39 -115.5l-18 -56h162l-20 56q-28 74 -43 117.5t-21 71.5zM351 729q-41 0 -72.5 12.5t-54 34.5t-36 51.5
t-16.5 62.5l106 18q11 -32 28 -48.5t45 -16.5t45 16.5t28 48.5l106 -18q-3 -33 -16.5 -62.5t-36 -51.5t-54.5 -34.5t-72 -12.5z" />
    <glyph glyph-name="Acaron" unicode="&#x1cd;" horiz-adv-x="726" 
d="M256 663h177q9 0 13 -2t8 -13l264 -648h-170q-9 0 -13.5 2.5t-8.5 12.5l-36 95h-265l-32 -95q-3 -10 -7.5 -12.5t-13.5 -2.5h-164zM352 494h-1q-5 -27 -20 -73.5t-39 -115.5l-18 -56h162l-20 56q-28 74 -43 117.5t-21 71.5zM353 846l127 90l62 -61l-128 -133
q-8 -8 -14 -10.5t-18 -2.5h-59q-12 0 -18 2.5t-14 10.5l-128 133l62 61l127 -90h1z" />
    <glyph glyph-name="Aring" unicode="&#xc5;" horiz-adv-x="726" 
d="M8 0l248 665q-23 17 -35.5 44t-12.5 61q0 62 39.5 98.5t102.5 36.5t102.5 -36.5t39.5 -98.5q0 -34 -12 -60t-34 -44l272 -666h-170q-9 0 -13.5 2.5t-8.5 12.5l-36 95h-265l-32 -95q-3 -10 -7.5 -12.5t-13.5 -2.5h-164zM351 494q-5 -27 -20 -73.5t-39 -115.5l-18 -56h162
l-20 56q-28 74 -43 117.5t-21 71.5h-1zM399 770q0 22 -11 34.5t-38 12.5t-38 -12.5t-11 -34.5t11 -34.5t38 -12.5t38 12.5t11 34.5z" />
    <glyph glyph-name="Aringacute" unicode="&#x1fa;" horiz-adv-x="726" 
d="M548 0q-9 0 -13.5 2.5t-8.5 12.5l-36 95h-265l-32 -95q-3 -10 -7.5 -12.5t-13.5 -2.5h-164l249 665q-23 17 -35.5 44t-12.5 61q0 62 39.5 98.5t102.5 36.5t102.5 -36.5t39.5 -98.5q0 -34 -12 -60t-34 -44l271 -666h-170zM352 494h-1q-5 -27 -20.5 -72.5t-38.5 -116.5
l-18 -56h162l-20 56q-27 75 -42.5 118t-21.5 71zM400 770q0 22 -11 34.5t-38 12.5t-38 -12.5t-11 -34.5t11 -34.5t38 -12.5t38 12.5t11 34.5zM259 920l-47 68l175 145q14 11 21 11q11 0 23 -18l63 -92z" />
    <glyph glyph-name="Aogonek" unicode="&#x104;" horiz-adv-x="726" 
d="M490 110h-265l-32 -95q-3 -10 -7.5 -12.5t-13.5 -2.5h-164l248 663h177q9 0 13 -2t8 -13l264 -648h-54q-40 0 -60 -17q-25 -22 -25 -58q0 -25 16 -36.5t44 -11.5q11 0 27.5 2t33.5 4l23 -82q-23 -14 -55 -22t-60 -8q-68 0 -108 32t-40 85q0 42 19.5 74t45.5 55zM351 494
q-5 -27 -20 -73.5t-39 -115.5l-18 -56h162l-20 56q-28 74 -43 117.5t-21 71.5h-1z" />
    <glyph glyph-name="AE" unicode="&#xc6;" horiz-adv-x="1078" 
d="M201 14q-7 -11 -11.5 -12.5t-16.5 -1.5h-177l430 663h592v-147h-337v-109h307v-144h-307v-116h346v-147h-524v110h-239zM503 508l-151 -259h151v259z" />
    <glyph glyph-name="AEacute" unicode="&#x1fc;" horiz-adv-x="1078" 
d="M201 14q-7 -11 -11.5 -12.5t-16.5 -1.5h-177l430 663h592v-147h-337v-109h307v-144h-307v-116h346v-147h-524v110h-239zM503 508l-151 -259h151v259zM571 717l-47 68l175 145q14 11 21 11q11 0 23 -18l63 -92z" />
    <glyph glyph-name="Cacute" unicode="&#x106;" horiz-adv-x="702" 
d="M678 147q-24 -33 -59.5 -61.5t-78 -50t-89 -33.5t-93.5 -12q-76 0 -136.5 26.5t-103 72.5t-65 108t-22.5 134q0 79 26 142.5t71 108t106 68t132 23.5q105 0 182 -54t115 -150l-110 -71l-95 70q-31 23 -53 32t-50 9q-31 0 -56.5 -13t-43.5 -36t-28 -55t-10 -70
q0 -83 44 -128t116 -45q32 0 62 7.5t66 24.5l108 49zM280 717l-47 68l175 145q14 11 21 11q11 0 23 -18l63 -92z" />
    <glyph glyph-name="Ccedilla" unicode="&#xc7;" horiz-adv-x="702" 
d="M678 147q-22 -30 -52.5 -56t-67 -46t-77.5 -34t-83 -18q-10 -13 -10 -24q0 -10 16 -15t35.5 -13t36 -22.5t16.5 -43.5q0 -57 -50 -90t-151 -33l-17 87l53 8q32 4 32 18q0 7 -14 12t-31 12t-31 18t-14 30q0 14 8.5 29t22.5 29q-63 9 -113 38.5t-84.5 74t-53 101.5
t-18.5 122q0 79 26 142.5t71 108t106 68t132 23.5q105 0 182 -54t115 -150l-110 -71l-95 70q-31 23 -53 32t-50 9q-31 0 -56.5 -13t-43.5 -36t-28 -55t-10 -70q0 -83 44 -128t116 -45q32 0 62 7.5t66 24.5l108 49z" />
    <glyph glyph-name="Ccircumflex" unicode="&#x108;" horiz-adv-x="702" 
d="M678 147q-24 -33 -59.5 -61.5t-78 -50t-89 -33.5t-93.5 -12q-76 0 -136.5 26.5t-103 72.5t-65 108t-22.5 134q0 79 26 142.5t71 108t106 68t132 23.5q105 0 182 -54t115 -150l-110 -71l-95 70q-31 23 -53 32t-50 9q-31 0 -56.5 -13t-43.5 -36t-28 -55t-10 -70
q0 -83 44 -128t116 -45q32 0 62 7.5t66 24.5l108 49zM395 923q12 0 18 -2.5t14 -10.5l128 -133l-62 -61l-127 90h-1l-127 -90l-62 61l128 133q8 8 14 10.5t18 2.5h59z" />
    <glyph glyph-name="Ccaron" unicode="&#x10c;" horiz-adv-x="702" 
d="M678 147q-24 -33 -59.5 -61.5t-78 -50t-89 -33.5t-93.5 -12q-76 0 -136.5 26.5t-103 72.5t-65 108t-22.5 134q0 79 26 142.5t71 108t106 68t132 23.5q105 0 182 -54t115 -150l-110 -71l-95 70q-31 23 -53 32t-50 9q-31 0 -56.5 -13t-43.5 -36t-28 -55t-10 -70
q0 -83 44 -128t116 -45q32 0 62 7.5t66 24.5l108 49zM365 846l127 90l62 -61l-128 -133q-8 -8 -14 -10.5t-18 -2.5h-59q-12 0 -18 2.5t-14 10.5l-128 133l62 61l127 -90h1z" />
    <glyph glyph-name="Cdotaccent" unicode="&#x10a;" horiz-adv-x="702" 
d="M678 147q-24 -33 -59.5 -61.5t-78 -50t-89 -33.5t-93.5 -12q-76 0 -136.5 26.5t-103 72.5t-65 108t-22.5 134q0 79 26 142.5t71 108t106 68t132 23.5q105 0 182 -54t115 -150l-110 -71l-95 70q-31 23 -53 32t-50 9q-31 0 -56.5 -13t-43.5 -36t-28 -55t-10 -70
q0 -83 44 -128t116 -45q32 0 62 7.5t66 24.5l108 49zM405 883q22 0 29 -7t7 -26v-116h-153v149h117z" />
    <glyph glyph-name="Dcaron" unicode="&#x10e;" horiz-adv-x="729" 
d="M298 153q58 0 99 8t68 32q23 20 36 53.5t13 84.5t-13 85t-36 54q-27 24 -68 32t-99 8h-59v-357h59zM61 0v663h242q103 0 181 -23t131 -76q40 -40 62 -98t22 -135t-22 -134.5t-62 -97.5q-53 -53 -131 -76t-181 -23h-242zM365 846l127 90l62 -61l-128 -133q-8 -8 -14 -10.5
t-18 -2.5h-59q-12 0 -18 2.5t-14 10.5l-128 133l62 61l127 -90h1z" />
    <glyph glyph-name="Dcroat" unicode="&#x110;" horiz-adv-x="749" 
d="M80 0v271h-64v133h64v259h242q103 0 181 -23t131 -76q40 -40 62 -98t22 -135t-22 -134.5t-62 -97.5q-53 -53 -131 -76t-181 -23h-242zM317 153q58 0 99 8t68 32q23 20 36 53.5t13 84.5t-13 85t-36 54q-27 24 -68 32t-99 8h-59v-106h145v-133h-145v-118h59z" />
    <glyph glyph-name="Eth" unicode="&#xd0;" horiz-adv-x="749" 
d="M80 0v271h-64v133h64v259h242q103 0 181 -23t131 -76q40 -40 62 -98t22 -135t-22 -134.5t-62 -97.5q-53 -53 -131 -76t-181 -23h-242zM317 153q58 0 99 8t68 32q23 20 36 53.5t13 84.5t-13 85t-36 54q-27 24 -68 32t-99 8h-59v-106h145v-133h-145v-118h59z" />
    <glyph glyph-name="Egrave" unicode="&#xc8;" horiz-adv-x="636" 
d="M576 663v-147h-337v-109h307v-144h-307v-116h346v-147h-524v663h515zM190 831l63 92q12 18 23 18q7 0 21 -11l175 -145l-47 -68z" />
    <glyph glyph-name="Eacute" unicode="&#xc9;" horiz-adv-x="636" 
d="M576 663v-147h-337v-109h307v-144h-307v-116h346v-147h-524v663h515zM237 717l-47 68l175 145q14 11 21 11q11 0 23 -18l63 -92z" />
    <glyph glyph-name="Ecircumflex" unicode="&#xca;" horiz-adv-x="636" 
d="M576 663v-147h-337v-109h307v-144h-307v-116h346v-147h-524v663h515zM350 923q12 0 18 -2.5t14 -10.5l128 -133l-62 -61l-127 90h-1l-127 -90l-62 61l128 133q8 8 14 10.5t18 2.5h59z" />
    <glyph glyph-name="Ecaron" unicode="&#x11a;" horiz-adv-x="636" 
d="M576 663v-147h-337v-109h307v-144h-307v-116h346v-147h-524v663h515zM321 846l127 90l62 -61l-128 -133q-8 -8 -14 -10.5t-18 -2.5h-59q-12 0 -18 2.5t-14 10.5l-128 133l62 61l127 -90h1z" />
    <glyph glyph-name="Edieresis" unicode="&#xcb;" horiz-adv-x="636" 
d="M576 663v-147h-337v-109h307v-144h-307v-116h346v-147h-524v663h515zM254 884q21 0 28 -7t7 -25v-112h-148v144h113zM478 884q21 0 28 -7t7 -25v-112h-148v144h113z" />
    <glyph glyph-name="Emacron" unicode="&#x112;" horiz-adv-x="636" 
d="M576 663v-147h-337v-109h307v-144h-307v-116h346v-147h-524v663h515zM157 752v121h332v-121h-332z" />
    <glyph glyph-name="Ebreve" unicode="&#x114;" horiz-adv-x="636" 
d="M576 663v-147h-337v-109h307v-144h-307v-116h346v-147h-524v663h515zM324 729q-41 0 -72.5 12.5t-54 34.5t-36 51.5t-16.5 62.5l106 18q11 -32 28 -48.5t45 -16.5t45 16.5t28 48.5l106 -18q-3 -33 -16.5 -62.5t-36 -51.5t-54.5 -34.5t-72 -12.5z" />
    <glyph glyph-name="Edotaccent" unicode="&#x116;" horiz-adv-x="636" 
d="M576 663v-147h-337v-109h307v-144h-307v-116h346v-147h-524v663h515zM364 883q22 0 29 -7t7 -26v-116h-153v149h117z" />
    <glyph glyph-name="Eogonek" unicode="&#x118;" horiz-adv-x="636" 
d="M576 663v-147h-337v-109h307v-144h-307v-116h346v-147h-90q-13 0 -20 -4t-15 -15q-19 -31 -19 -57t17 -36.5t43 -10.5q11 0 27.5 2t33.5 4l23 -82q-23 -14 -55 -22t-60 -8q-67 0 -107.5 32t-40.5 85q0 32 13.5 59.5t35.5 52.5h-310v663h515z" />
    <glyph glyph-name="Gcircumflex" unicode="&#x11c;" horiz-adv-x="749" 
d="M568 418l-103 63q-27 17 -50 24t-52 7q-30 0 -56.5 -12t-46.5 -35t-31.5 -55.5t-11.5 -74.5q0 -85 44.5 -131.5t127.5 -46.5h2q15 0 31.5 1t32.5 3t30.5 5t25.5 6q6 2 7.5 5.5t1.5 8.5v57h-92v115h235q18 0 24.5 -5.5t6.5 -21.5v-331h-123l-28 57l-49 -28
q-36 -21 -70 -30t-73 -9q-74 0 -133 26.5t-100.5 72t-64 108t-22.5 134.5q0 79 27 142.5t74 108t110 68t134 23.5q52 0 99 -13.5t86 -37.5t68 -57t44 -72zM403 923q12 0 18 -2.5t14 -10.5l128 -133l-62 -61l-127 90h-1l-127 -90l-62 61l128 133q8 8 14 10.5t18 2.5h59z" />
    <glyph glyph-name="Gbreve" unicode="&#x11e;" horiz-adv-x="749" 
d="M568 418l-103 63q-27 17 -50 24t-52 7q-30 0 -56.5 -12t-46.5 -35t-31.5 -55.5t-11.5 -74.5q0 -85 44.5 -131.5t127.5 -46.5h2q15 0 31.5 1t32.5 3t30.5 5t25.5 6q6 2 7.5 5.5t1.5 8.5v57h-92v115h235q18 0 24.5 -5.5t6.5 -21.5v-331h-123l-28 57l-49 -28
q-36 -21 -70 -30t-73 -9q-74 0 -133 26.5t-100.5 72t-64 108t-22.5 134.5q0 79 27 142.5t74 108t110 68t134 23.5q52 0 99 -13.5t86 -37.5t68 -57t44 -72zM376 729q-41 0 -72.5 12.5t-54 34.5t-36 51.5t-16.5 62.5l106 18q11 -32 28 -48.5t45 -16.5t45 16.5t28 48.5l106 -18
q-3 -33 -16.5 -62.5t-36 -51.5t-54.5 -34.5t-72 -12.5z" />
    <glyph glyph-name="Gdotaccent" unicode="&#x120;" horiz-adv-x="749" 
d="M568 418l-103 63q-27 17 -50 24t-52 7q-30 0 -56.5 -12t-46.5 -35t-31.5 -55.5t-11.5 -74.5q0 -85 44.5 -131.5t127.5 -46.5h2q15 0 31.5 1t32.5 3t30.5 5t25.5 6q6 2 7.5 5.5t1.5 8.5v57h-92v115h235q18 0 24.5 -5.5t6.5 -21.5v-331h-123l-28 57l-49 -28
q-36 -21 -70 -30t-73 -9q-74 0 -133 26.5t-100.5 72t-64 108t-22.5 134.5q0 79 27 142.5t74 108t110 68t134 23.5q52 0 99 -13.5t86 -37.5t68 -57t44 -72zM414 883q22 0 29 -7t7 -26v-116h-153v149h117z" />
    <glyph glyph-name="Gcommaaccent" unicode="&#x122;" horiz-adv-x="749" 
d="M568 418l-103 63q-27 17 -50 24t-52 7q-30 0 -56.5 -12t-46.5 -35t-31.5 -55.5t-11.5 -74.5q0 -85 44.5 -131.5t127.5 -46.5h2q15 0 31.5 1t32.5 3t30.5 5t25.5 6q6 2 7.5 5.5t1.5 8.5v57h-92v115h235q18 0 24.5 -5.5t6.5 -21.5v-331h-123l-28 57l-49 -28
q-36 -21 -70 -30t-73 -9q-74 0 -133 26.5t-100.5 72t-64 108t-22.5 134.5q0 79 27 142.5t74 108t110 68t134 23.5q52 0 99 -13.5t86 -37.5t68 -57t44 -72zM290 -309l17 251h92q11 0 16 -2.5t10 -7.5q24 -27 24 -56q0 -14 -7 -35t-28 -61l-54 -103z" />
    <glyph glyph-name="Hcircumflex" unicode="&#x124;" horiz-adv-x="743" 
d="M504 263h-265v-263h-178v663h178v-247h265v247h178v-663h-178v263zM401 923q12 0 18 -2.5t14 -10.5l128 -133l-62 -61l-127 90h-1l-127 -90l-62 61l128 133q8 8 14 10.5t18 2.5h59z" />
    <glyph glyph-name="Hbar" unicode="&#x126;" horiz-adv-x="785" 
d="M525 263h-265v-263h-178v484h-68v106h68v73h178v-73h265v73h178v-73h68v-106h-68v-484h-178v263zM525 416v68h-265v-68h265z" />
    <glyph glyph-name="Igrave" unicode="&#xcc;" horiz-adv-x="304" 
d="M241 0h-178v663h178v-663zM11 831l63 92q12 18 23 18q7 0 21 -11l175 -145l-47 -68z" />
    <glyph glyph-name="Iacute" unicode="&#xcd;" horiz-adv-x="304" 
d="M241 0h-178v663h178v-663zM58 717l-47 68l175 145q14 11 21 11q11 0 23 -18l63 -92z" />
    <glyph glyph-name="Icircumflex" unicode="&#xce;" horiz-adv-x="304" 
d="M241 0h-178v663h178v-663zM181 923q12 0 18 -2.5t14 -10.5l128 -133l-62 -61l-127 90h-1l-127 -90l-62 61l128 133q8 8 14 10.5t18 2.5h59z" />
    <glyph glyph-name="Itilde" unicode="&#x128;" horiz-adv-x="304" 
d="M241 0h-178v663h178v-663zM220 736q-24 0 -42.5 7.5t-33.5 16t-27.5 16t-23.5 7.5q-15 0 -26 -14t-22 -39l-90 24q2 27 11.5 53t25.5 46.5t39 32.5t53 12q24 0 42.5 -7.5t33.5 -16t27.5 -16t23.5 -7.5q15 0 26 14t22 39l90 -24q-2 -27 -11.5 -53t-25.5 -46.5t-39 -32.5
t-53 -12z" />
    <glyph glyph-name="Idieresis" unicode="&#xcf;" horiz-adv-x="304" 
d="M241 0h-178v663h178v-663zM79 884q21 0 28 -7t7 -25v-112h-148v144h113zM303 884q21 0 28 -7t7 -25v-112h-148v144h113z" />
    <glyph glyph-name="Imacron" unicode="&#x12a;" horiz-adv-x="304" 
d="M241 0h-178v663h178v-663zM-14 752v121h332v-121h-332z" />
    <glyph glyph-name="Ibreve" unicode="&#x12c;" horiz-adv-x="304" 
d="M241 0h-178v663h178v-663zM152 729q-41 0 -72.5 12.5t-54 34.5t-36 51.5t-16.5 62.5l106 18q11 -32 28 -48.5t45 -16.5t45 16.5t28 48.5l106 -18q-3 -33 -16.5 -62.5t-36 -51.5t-54.5 -34.5t-72 -12.5z" />
    <glyph glyph-name="Idotaccent" unicode="&#x130;" horiz-adv-x="304" 
d="M241 0h-178v663h178v-663zM196 883q22 0 29 -7t7 -26v-116h-153v149h117z" />
    <glyph glyph-name="Iogonek" unicode="&#x12e;" horiz-adv-x="304" 
d="M63 663h178v-663h-54q-13 0 -20 -4t-15 -15q-19 -31 -19 -57t17 -36.5t43 -10.5q11 0 27.5 2t33.5 4l23 -82q-23 -14 -55 -22t-60 -8q-67 0 -107.5 32t-40.5 85q0 32 13.5 59.5t35.5 52.5v663z" />
    <glyph glyph-name="IJ" unicode="&#x132;" horiz-adv-x="843" 
d="M241 0h-178v663h178v-663zM357 170l76 -9q29 -3 55.5 -5t44.5 -2q22 0 37 3t25 12q15 15 15 59v435h178v-431q0 -60 -15 -106t-47 -78q-27 -27 -67 -42.5t-93 -15.5q-69 0 -128.5 17t-112.5 49z" />
    <glyph glyph-name="Jcircumflex" unicode="&#x134;" horiz-adv-x="534" 
d="M48 170l76 -9q29 -3 55.5 -5t44.5 -2q22 0 37 3t25 12q15 15 15 59v435h178v-431q0 -60 -15 -106t-47 -78q-27 -27 -67 -42.5t-93 -15.5q-69 0 -128.5 17t-112.5 49zM414 923q12 0 18 -2.5t14 -10.5l128 -133l-62 -61l-127 90h-1l-127 -90l-62 61l128 133q8 8 14 10.5
t18 2.5h59z" />
    <glyph glyph-name="Kcommaaccent" unicode="&#x136;" horiz-adv-x="700" 
d="M330 278q-19 -14 -44.5 -26t-45.5 -17v-235h-179v663h179v-284l323 292l103 -105l-206 -181l240 -385h-176q-14 0 -21.5 2.5t-15.5 16.5zM271 -309l17 251h92q11 0 16 -2.5t10 -7.5q24 -27 24 -56q0 -14 -7 -35t-28 -61l-54 -103z" />
    <glyph glyph-name="Lacute" unicode="&#x139;" horiz-adv-x="598" 
d="M63 663h178v-516h325v-147h-503v663zM73 717l-47 68l175 145q14 11 21 11q11 0 23 -18l63 -92z" />
    <glyph glyph-name="Lcaron" unicode="&#x13d;" horiz-adv-x="599" 
d="M64 663h178v-516h325v-147h-503v663zM330 412l17 251h92q11 0 16 -2.5t10 -7.5q24 -27 24 -56q0 -14 -7 -35t-28 -61l-54 -103z" />
    <glyph glyph-name="Lcommaaccent" unicode="&#x13b;" horiz-adv-x="599" 
d="M64 663h178v-516h325v-147h-503v663zM248 -309l17 251h92q11 0 16 -2.5t10 -7.5q24 -27 24 -56q0 -14 -7 -35t-28 -61l-54 -103z" />
    <glyph glyph-name="Lslash" unicode="&#x141;" horiz-adv-x="674" 
d="M139 663h178v-179l128 82l78 -118l-206 -134v-167h325v-147h-503v215l-57 -36l-78 118l135 88v278z" />
    <glyph glyph-name="Ldot" unicode="&#x13f;" horiz-adv-x="599" 
d="M64 663h178v-516h325v-147h-503v663zM487 437q22 0 29 -7t7 -26v-116h-153v149h117z" />
    <glyph glyph-name="Nacute" unicode="&#x143;" horiz-adv-x="750" 
d="M191 663q12 0 18 -2.5t13 -10.5l191 -238q35 -44 65 -83t44 -59h1v393h166v-663h-127q-12 0 -18 2.5t-13 10.5l-193 240q-16 19 -32.5 40t-31.5 40t-27 35t-19 27h-1v-395h-166v663h130zM289 717l-47 68l175 145q14 11 21 11q11 0 23 -18l63 -92z" />
    <glyph glyph-name="Ncaron" unicode="&#x147;" horiz-adv-x="750" 
d="M191 663q12 0 18 -2.5t13 -10.5l191 -238q35 -44 65 -83t44 -59h1v393h166v-663h-127q-12 0 -18 2.5t-13 10.5l-193 240q-16 19 -32.5 40t-31.5 40t-27 35t-19 27h-1v-395h-166v663h130zM373 846l127 90l62 -61l-128 -133q-8 -8 -14 -10.5t-18 -2.5h-59q-12 0 -18 2.5
t-14 10.5l-128 133l62 61l127 -90h1z" />
    <glyph glyph-name="Ntilde" unicode="&#xd1;" horiz-adv-x="750" 
d="M191 663q12 0 18 -2.5t13 -10.5l191 -238q35 -44 65 -83t44 -59h1v393h166v-663h-127q-12 0 -18 2.5t-13 10.5l-193 240q-16 19 -32.5 40t-31.5 40t-27 35t-19 27h-1v-395h-166v663h130zM441 736q-24 0 -42.5 7.5t-33.5 16t-27.5 16t-23.5 7.5q-15 0 -26 -14t-22 -39
l-90 24q2 27 11.5 53t25.5 46.5t39 32.5t53 12q24 0 42.5 -7.5t33.5 -16t27.5 -16t23.5 -7.5q15 0 26 14t22 39l90 -24q-2 -27 -11.5 -53t-25.5 -46.5t-39 -32.5t-53 -12z" />
    <glyph glyph-name="Ncommaaccent" unicode="&#x145;" horiz-adv-x="750" 
d="M191 663q12 0 18 -2.5t13 -10.5l191 -238q35 -44 65 -83t44 -59h1v393h166v-663h-127q-12 0 -18 2.5t-13 10.5l-193 240q-16 19 -32.5 40t-31.5 40t-27 35t-19 27h-1v-395h-166v663h130zM310 -309l17 251h92q11 0 16 -2.5t10 -7.5q24 -27 24 -56q0 -14 -7 -35t-28 -61
l-54 -103z" />
    <glyph glyph-name="Eng" unicode="&#x14a;" horiz-adv-x="750" 
d="M333 258q-32 39 -61 76.5t-44 59.5h-1v-394h-166v663h131q12 0 18 -2.5t13 -10.5l190 -237q15 -19 31 -39.5t31 -40t27.5 -36t19.5 -26.5h1v392h166v-686q0 -106 -51 -160q-25 -26 -63 -40.5t-89 -14.5q-24 0 -49.5 4.5t-49 12t-42.5 16.5t-31 18l31 114q13 -2 28.5 -4
l31 -4t29.5 -3t23 -1q40 0 54 14q12 12 12 43v50z" />
    <glyph glyph-name="Ograve" unicode="&#xd2;" horiz-adv-x="746" 
d="M715 331q0 -78 -27.5 -141t-74 -107.5t-108.5 -68.5t-132 -24t-132 24t-108.5 68.5t-74 107.5t-27.5 141t27.5 141t74 107.5t108.5 69t132 24.5t132 -24.5t108.5 -69t74 -107.5t27.5 -141zM529 331q0 79 -40.5 123.5t-115.5 44.5t-115.5 -44.5t-40.5 -123.5t40.5 -123
t115.5 -44t115.5 44t40.5 123zM232 831l63 92q12 18 23 18q7 0 21 -11l175 -145l-47 -68z" />
    <glyph glyph-name="Oacute" unicode="&#xd3;" horiz-adv-x="746" 
d="M715 331q0 -78 -27.5 -141t-74 -107.5t-108.5 -68.5t-132 -24t-132 24t-108.5 68.5t-74 107.5t-27.5 141t27.5 141t74 107.5t108.5 69t132 24.5t132 -24.5t108.5 -69t74 -107.5t27.5 -141zM529 331q0 79 -40.5 123.5t-115.5 44.5t-115.5 -44.5t-40.5 -123.5t40.5 -123
t115.5 -44t115.5 44t40.5 123zM279 717l-47 68l175 145q14 11 21 11q11 0 23 -18l63 -92z" />
    <glyph glyph-name="Ocircumflex" unicode="&#xd4;" horiz-adv-x="746" 
d="M715 331q0 -78 -27.5 -141t-74 -107.5t-108.5 -68.5t-132 -24t-132 24t-108.5 68.5t-74 107.5t-27.5 141t27.5 141t74 107.5t108.5 69t132 24.5t132 -24.5t108.5 -69t74 -107.5t27.5 -141zM529 331q0 79 -40.5 123.5t-115.5 44.5t-115.5 -44.5t-40.5 -123.5t40.5 -123
t115.5 -44t115.5 44t40.5 123zM402 923q12 0 18 -2.5t14 -10.5l128 -133l-62 -61l-127 90h-1l-127 -90l-62 61l128 133q8 8 14 10.5t18 2.5h59z" />
    <glyph glyph-name="Otilde" unicode="&#xd5;" horiz-adv-x="746" 
d="M715 331q0 -78 -27.5 -141t-74 -107.5t-108.5 -68.5t-132 -24t-132 24t-108.5 68.5t-74 107.5t-27.5 141t27.5 141t74 107.5t108.5 69t132 24.5t132 -24.5t108.5 -69t74 -107.5t27.5 -141zM529 331q0 79 -40.5 123.5t-115.5 44.5t-115.5 -44.5t-40.5 -123.5t40.5 -123
t115.5 -44t115.5 44t40.5 123zM441 736q-24 0 -42.5 7.5t-33.5 16t-27.5 16t-23.5 7.5q-15 0 -26 -14t-22 -39l-90 24q2 27 11.5 53t25.5 46.5t39 32.5t53 12q24 0 42.5 -7.5t33.5 -16t27.5 -16t23.5 -7.5q15 0 26 14t22 39l90 -24q-2 -27 -11.5 -53t-25.5 -46.5t-39 -32.5
t-53 -12z" />
    <glyph glyph-name="Odieresis" unicode="&#xd6;" horiz-adv-x="746" 
d="M715 331q0 -78 -27.5 -141t-74 -107.5t-108.5 -68.5t-132 -24t-132 24t-108.5 68.5t-74 107.5t-27.5 141t27.5 141t74 107.5t108.5 69t132 24.5t132 -24.5t108.5 -69t74 -107.5t27.5 -141zM529 331q0 79 -40.5 123.5t-115.5 44.5t-115.5 -44.5t-40.5 -123.5t40.5 -123
t115.5 -44t115.5 44t40.5 123zM300 884q21 0 28 -7t7 -25v-112h-148v144h113zM524 884q21 0 28 -7t7 -25v-112h-148v144h113z" />
    <glyph glyph-name="Omacron" unicode="&#x14c;" horiz-adv-x="746" 
d="M715 331q0 -78 -27.5 -141t-74 -107.5t-108.5 -68.5t-132 -24t-132 24t-108.5 68.5t-74 107.5t-27.5 141t27.5 141t74 107.5t108.5 69t132 24.5t132 -24.5t108.5 -69t74 -107.5t27.5 -141zM529 331q0 79 -40.5 123.5t-115.5 44.5t-115.5 -44.5t-40.5 -123.5t40.5 -123
t115.5 -44t115.5 44t40.5 123zM207 752v121h332v-121h-332z" />
    <glyph glyph-name="Obreve" unicode="&#x14e;" horiz-adv-x="746" 
d="M715 331q0 -78 -27.5 -141t-74 -107.5t-108.5 -68.5t-132 -24t-132 24t-108.5 68.5t-74 107.5t-27.5 141t27.5 141t74 107.5t108.5 69t132 24.5t132 -24.5t108.5 -69t74 -107.5t27.5 -141zM529 331q0 79 -40.5 123.5t-115.5 44.5t-115.5 -44.5t-40.5 -123.5t40.5 -123
t115.5 -44t115.5 44t40.5 123zM373 729q-41 0 -72.5 12.5t-54 34.5t-36 51.5t-16.5 62.5l106 18q11 -32 28 -48.5t45 -16.5t45 16.5t28 48.5l106 -18q-3 -33 -16.5 -62.5t-36 -51.5t-54.5 -34.5t-72 -12.5z" />
    <glyph glyph-name="Ohungarumlaut" unicode="&#x150;" horiz-adv-x="746" 
d="M715 331q0 -78 -27.5 -141t-74 -107.5t-108.5 -68.5t-132 -24t-132 24t-108.5 68.5t-74 107.5t-27.5 141t27.5 141t74 107.5t108.5 69t132 24.5t132 -24.5t108.5 -69t74 -107.5t27.5 -141zM529 331q0 79 -40.5 123.5t-115.5 44.5t-115.5 -44.5t-40.5 -123.5t40.5 -123
t115.5 -44t115.5 44t40.5 123zM624 919l-172 -188l-81 56l122 193q8 13 17.5 16t23.5 -8zM394 919l-172 -188l-81 56l122 193q8 13 17.5 16t23.5 -8z" />
    <glyph glyph-name="Oslash" unicode="&#xd8;" horiz-adv-x="746" 
d="M715 331q0 -78 -27.5 -141t-74 -107.5t-108.5 -68.5t-132 -24q-45 0 -87 10t-79 29l-64 -81l-91 72l63 80q-39 44 -61.5 102t-22.5 129q0 78 27.5 141t74 107.5t108.5 69t132 24.5q89 0 163 -38l69 88l91 -72l-68 -86q41 -45 64 -103.5t23 -130.5zM529 335q0 26 -4 48
t-12 36l-194 -248q20 -7 52 -7q80 0 119 43.5t39 127.5zM217 327q0 -46 14 -79l194 246q-20 6 -48 6q-81 0 -120.5 -44t-39.5 -129z" />
    <glyph glyph-name="Oslashacute" unicode="&#x1fe;" horiz-adv-x="746" 
d="M715 331q0 -78 -27.5 -141t-74 -107.5t-108.5 -68.5t-132 -24q-45 0 -87 10t-79 29l-64 -81l-91 72l63 80q-39 44 -61.5 102t-22.5 129q0 78 27.5 141t74 107.5t108.5 69t132 24.5q89 0 163 -38l69 88l91 -72l-68 -86q41 -45 64 -103.5t23 -130.5zM529 335q0 26 -4 48
t-12 36l-194 -248q20 -7 52 -7q80 0 119 43.5t39 127.5zM217 327q0 -46 14 -79l194 246q-20 6 -48 6q-81 0 -120.5 -44t-39.5 -129zM279 717l-47 68l175 145q14 11 21 11q11 0 23 -18l63 -92z" />
    <glyph glyph-name="OE" unicode="&#x152;" horiz-adv-x="1099" 
d="M1039 663v-147h-337v-109h307v-144h-307v-116h346v-147h-524v53q-77 -63 -181 -63q-60 0 -116.5 24t-100 68.5t-69.5 107.5t-26 141t26 141t69.5 107.5t100 69t116.5 24.5q104 0 181 -63v53h515zM524 331q0 79 -38 123.5t-113 44.5t-115.5 -44.5t-40.5 -123.5t40.5 -123
t115.5 -44t113 44t38 123z" />
    <glyph glyph-name="Thorn" unicode="&#xde;" horiz-adv-x="662" 
d="M239 98v-98h-178v663h178v-98h108q83 0 138 -16t90 -51q57 -57 57 -163q0 -57 -15.5 -100t-44.5 -72q-33 -33 -80.5 -49t-122.5 -16h-130zM403 240q13 0 20 3.5t14 14.5q8 13 11.5 35.5t3.5 40.5q0 19 -5 35.5t-14 25.5q-12 12 -32.5 16t-55.5 4h-106v-175h164z" />
    <glyph glyph-name="Racute" unicode="&#x154;" horiz-adv-x="701" 
d="M239 0h-178v663h290q84 0 139.5 -14.5t90.5 -48.5q27 -27 42 -66t15 -89q0 -71 -32 -123.5t-78 -81.5l149 -240h-177q-12 0 -17.5 3t-12.5 14l-101 172q-8 14 -13 17t-19 3h-98v-209zM407 350q13 0 20.5 3.5t15.5 14.5q8 13 11.5 33t3.5 35q0 18 -5.5 34.5t-13.5 24.5
q-12 11 -32 15t-53 4h-115v-164h168zM262 717l-47 68l175 145q14 11 21 11q11 0 23 -18l63 -92z" />
    <glyph glyph-name="Rcaron" unicode="&#x158;" horiz-adv-x="701" 
d="M239 0h-178v663h290q84 0 139.5 -14.5t90.5 -48.5q27 -27 42 -66t15 -89q0 -71 -32 -123.5t-78 -81.5l149 -240h-177q-12 0 -17.5 3t-12.5 14l-101 172q-8 14 -13 17t-19 3h-98v-209zM407 350q13 0 20.5 3.5t15.5 14.5q8 13 11.5 33t3.5 35q0 18 -5.5 34.5t-13.5 24.5
q-12 11 -32 15t-53 4h-115v-164h168zM349 846l127 90l62 -61l-128 -133q-8 -8 -14 -10.5t-18 -2.5h-59q-12 0 -18 2.5t-14 10.5l-128 133l62 61l127 -90h1z" />
    <glyph glyph-name="Rcommaaccent" unicode="&#x156;" horiz-adv-x="701" 
d="M239 0h-178v663h290q84 0 139.5 -14.5t90.5 -48.5q27 -27 42 -66t15 -89q0 -71 -32 -123.5t-78 -81.5l149 -240h-177q-12 0 -17.5 3t-12.5 14l-101 172q-8 14 -13 17t-19 3h-98v-209zM407 350q13 0 20.5 3.5t15.5 14.5q8 13 11.5 33t3.5 35q0 18 -5.5 34.5t-13.5 24.5
q-12 11 -32 15t-53 4h-115v-164h168zM282 -309l17 251h92q11 0 16 -2.5t10 -7.5q24 -27 24 -56q0 -14 -7 -35t-28 -61l-54 -103z" />
    <glyph glyph-name="Sacute" unicode="&#x15a;" horiz-adv-x="622" 
d="M136 170q56 -11 102.5 -17t78.5 -6q105 0 105 54q0 23 -21.5 33.5t-72.5 22.5l-66 16q-53 13 -95 29.5t-71.5 40.5t-45 57t-15.5 78q0 51 21.5 87.5t59 60.5t89 35.5t112.5 11.5q60 0 125.5 -13t118.5 -38l-29 -122l-81 8q-33 3 -69.5 5.5t-64.5 2.5q-57 0 -83.5 -6
t-26.5 -28q0 -17 20 -27t67 -21l62 -15q63 -15 108.5 -32.5t75 -40.5t43 -54.5t13.5 -76.5q0 -54 -20 -95.5t-56.5 -70.5t-87.5 -44t-112 -15q-81 0 -159 21.5t-137 54.5l42 118zM226 717l-47 68l175 145q14 11 21 11q11 0 23 -18l63 -92z" />
    <glyph glyph-name="Scircumflex" unicode="&#x15c;" horiz-adv-x="622" 
d="M136 170q56 -11 102.5 -17t78.5 -6q105 0 105 54q0 23 -21.5 33.5t-72.5 22.5l-66 16q-53 13 -95 29.5t-71.5 40.5t-45 57t-15.5 78q0 51 21.5 87.5t59 60.5t89 35.5t112.5 11.5q60 0 125.5 -13t118.5 -38l-29 -122l-81 8q-33 3 -69.5 5.5t-64.5 2.5q-57 0 -83.5 -6
t-26.5 -28q0 -17 20 -27t67 -21l62 -15q63 -15 108.5 -32.5t75 -40.5t43 -54.5t13.5 -76.5q0 -54 -20 -95.5t-56.5 -70.5t-87.5 -44t-112 -15q-81 0 -159 21.5t-137 54.5l42 118zM348 923q12 0 18 -2.5t14 -10.5l128 -133l-62 -61l-127 90h-1l-127 -90l-62 61l128 133
q8 8 14 10.5t18 2.5h59z" />
    <glyph glyph-name="Scaron" unicode="&#x160;" horiz-adv-x="622" 
d="M136 170q56 -11 102.5 -17t78.5 -6q105 0 105 54q0 23 -21.5 33.5t-72.5 22.5l-66 16q-53 13 -95 29.5t-71.5 40.5t-45 57t-15.5 78q0 51 21.5 87.5t59 60.5t89 35.5t112.5 11.5q60 0 125.5 -13t118.5 -38l-29 -122l-81 8q-33 3 -69.5 5.5t-64.5 2.5q-57 0 -83.5 -6
t-26.5 -28q0 -17 20 -27t67 -21l62 -15q63 -15 108.5 -32.5t75 -40.5t43 -54.5t13.5 -76.5q0 -54 -20 -95.5t-56.5 -70.5t-87.5 -44t-112 -15q-81 0 -159 21.5t-137 54.5l42 118zM315 846l127 90l62 -61l-128 -133q-8 -8 -14 -10.5t-18 -2.5h-59q-12 0 -18 2.5t-14 10.5
l-128 133l62 61l127 -90h1z" />
    <glyph glyph-name="Scedilla" unicode="&#x15e;" horiz-adv-x="622" 
d="M136 170q56 -11 102.5 -17t78.5 -6q105 0 105 54q0 23 -21.5 33.5t-72.5 22.5l-66 16q-53 13 -95 29.5t-71.5 40.5t-45 57t-15.5 78q0 51 21.5 87.5t59 60.5t89 35.5t112.5 11.5q60 0 125.5 -13t118.5 -38l-29 -122l-81 8q-33 3 -69.5 5.5t-64.5 2.5q-57 0 -83.5 -6
t-26.5 -28q0 -17 20 -27t67 -21l62 -15q63 -15 108.5 -32.5t75 -40.5t43 -54.5t13.5 -76.5q0 -51 -18 -91.5t-51 -69t-79 -44.5t-102 -19q-8 -13 -8 -22q0 -10 16 -15t35.5 -13t36 -22.5t16.5 -43.5q0 -57 -50 -90t-151 -33l-17 87l53 8q32 4 32 18q0 7 -14 12t-31 12
t-31 18t-14 30q0 14 8 29t22 29q-63 7 -121 26t-104 45l42 118z" />
    <glyph glyph-name="Scommaaccent" unicode="&#x218;" horiz-adv-x="622" 
d="M136 170q56 -11 102.5 -17t78.5 -6q105 0 105 54q0 23 -21.5 33.5t-72.5 22.5l-66 16q-53 13 -95 29.5t-71.5 40.5t-45 57t-15.5 78q0 51 21.5 87.5t59 60.5t89 35.5t112.5 11.5q60 0 125.5 -13t118.5 -38l-29 -122l-81 8q-33 3 -69.5 5.5t-64.5 2.5q-57 0 -83.5 -6
t-26.5 -28q0 -17 20 -27t67 -21l62 -15q63 -15 108.5 -32.5t75 -40.5t43 -54.5t13.5 -76.5q0 -54 -20 -95.5t-56.5 -70.5t-87.5 -44t-112 -15q-81 0 -159 21.5t-137 54.5l42 118zM233 -309l17 251h92q11 0 16 -2.5t10 -7.5q24 -27 24 -56q0 -14 -7 -35t-28 -61l-54 -103z
" />
    <glyph glyph-name="Tcaron" unicode="&#x164;" horiz-adv-x="654" 
d="M238 516h-222v147h622v-147h-222v-516h-178v516zM327 846l127 90l62 -61l-128 -133q-8 -8 -14 -10.5t-18 -2.5h-59q-12 0 -18 2.5t-14 10.5l-128 133l62 61l127 -90h1z" />
    <glyph glyph-name="Tcommaaccent" unicode="&#x162;" horiz-adv-x="654" 
d="M238 516h-222v147h622v-147h-222v-516h-178v516zM247 -309l17 251h92q11 0 16 -2.5t10 -7.5q24 -27 24 -56q0 -14 -7 -35t-28 -61l-54 -103z" />
    <glyph glyph-name="uni021A" unicode="&#x21a;" horiz-adv-x="654" 
d="M238 516h-222v147h622v-147h-222v-516h-178v516zM247 -309l17 251h92q11 0 16 -2.5t10 -7.5q24 -27 24 -56q0 -14 -7 -35t-28 -61l-54 -103z" />
    <glyph glyph-name="Tbar" unicode="&#x166;" horiz-adv-x="654" 
d="M238 516h-222v147h622v-147h-222v-140h128v-123h-128v-253h-178v253h-128v123h128v140z" />
    <glyph glyph-name="Ugrave" unicode="&#xd9;" horiz-adv-x="719" 
d="M668 286q0 -73 -18 -126.5t-57 -91.5q-38 -37 -96.5 -57.5t-136.5 -20.5t-136.5 20.5t-96.5 57.5q-39 38 -57.5 91.5t-18.5 126.5v377h178v-390q0 -57 27 -81q16 -14 44 -22t62 -8t61 8t43 22q27 24 27 81v390h175v-377zM208 831l63 92q12 18 23 18q7 0 21 -11l175 -145
l-47 -68z" />
    <glyph glyph-name="Uacute" unicode="&#xda;" horiz-adv-x="719" 
d="M668 286q0 -73 -18 -126.5t-57 -91.5q-38 -37 -96.5 -57.5t-136.5 -20.5t-136.5 20.5t-96.5 57.5q-39 38 -57.5 91.5t-18.5 126.5v377h178v-390q0 -57 27 -81q16 -14 44 -22t62 -8t61 8t43 22q27 24 27 81v390h175v-377zM275 717l-47 68l175 145q14 11 21 11q11 0 23 -18
l63 -92z" />
    <glyph glyph-name="Ucircumflex" unicode="&#xdb;" horiz-adv-x="719" 
d="M668 286q0 -73 -18 -126.5t-57 -91.5q-38 -37 -96.5 -57.5t-136.5 -20.5t-136.5 20.5t-96.5 57.5q-39 38 -57.5 91.5t-18.5 126.5v377h178v-390q0 -57 27 -81q16 -14 44 -22t62 -8t61 8t43 22q27 24 27 81v390h175v-377zM389 923q12 0 18 -2.5t14 -10.5l128 -133l-62 -61
l-127 90h-1l-127 -90l-62 61l128 133q8 8 14 10.5t18 2.5h59z" />
    <glyph glyph-name="Utilde" unicode="&#x168;" horiz-adv-x="719" 
d="M668 286q0 -73 -18 -126.5t-57 -91.5q-38 -37 -96.5 -57.5t-136.5 -20.5t-136.5 20.5t-96.5 57.5q-39 38 -57.5 91.5t-18.5 126.5v377h178v-390q0 -57 27 -81q16 -14 44 -22t62 -8t61 8t43 22q27 24 27 81v390h175v-377zM433 736q-24 0 -42.5 7.5t-33.5 16t-27.5 16
t-23.5 7.5q-15 0 -26 -14t-22 -39l-90 24q2 27 11.5 53t25.5 46.5t39 32.5t53 12q24 0 42.5 -7.5t33.5 -16t27.5 -16t23.5 -7.5q15 0 26 14t22 39l90 -24q-2 -27 -11.5 -53t-25.5 -46.5t-39 -32.5t-53 -12z" />
    <glyph glyph-name="Udieresis" unicode="&#xdc;" horiz-adv-x="719" 
d="M668 286q0 -73 -18 -126.5t-57 -91.5q-38 -37 -96.5 -57.5t-136.5 -20.5t-136.5 20.5t-96.5 57.5q-39 38 -57.5 91.5t-18.5 126.5v377h178v-390q0 -57 27 -81q16 -14 44 -22t62 -8t61 8t43 22q27 24 27 81v390h175v-377zM286 884q21 0 28 -7t7 -25v-112h-148v144h113z
M510 884q21 0 28 -7t7 -25v-112h-148v144h113z" />
    <glyph glyph-name="Umacron" unicode="&#x16a;" horiz-adv-x="719" 
d="M668 286q0 -73 -18 -126.5t-57 -91.5q-38 -37 -96.5 -57.5t-136.5 -20.5t-136.5 20.5t-96.5 57.5q-39 38 -57.5 91.5t-18.5 126.5v377h178v-390q0 -57 27 -81q16 -14 44 -22t62 -8t61 8t43 22q27 24 27 81v390h175v-377zM193 752v121h332v-121h-332z" />
    <glyph glyph-name="Ubreve" unicode="&#x16c;" horiz-adv-x="719" 
d="M668 286q0 -73 -18 -126.5t-57 -91.5q-38 -37 -96.5 -57.5t-136.5 -20.5t-136.5 20.5t-96.5 57.5q-39 38 -57.5 91.5t-18.5 126.5v377h178v-390q0 -57 27 -81q16 -14 44 -22t62 -8t61 8t43 22q27 24 27 81v390h175v-377zM359 729q-41 0 -72.5 12.5t-54 34.5t-36 51.5
t-16.5 62.5l106 18q11 -32 28 -48.5t45 -16.5t45 16.5t28 48.5l106 -18q-3 -33 -16.5 -62.5t-36 -51.5t-54.5 -34.5t-72 -12.5z" />
    <glyph glyph-name="Uring" unicode="&#x16e;" horiz-adv-x="719" 
d="M668 286q0 -73 -18 -126.5t-57 -91.5q-38 -37 -96.5 -57.5t-136.5 -20.5t-136.5 20.5t-96.5 57.5q-39 38 -57.5 91.5t-18.5 126.5v377h178v-390q0 -57 27 -81q16 -14 44 -22t62 -8t61 8t43 22q27 24 27 81v390h175v-377zM501 862q0 -62 -39.5 -98.5t-102.5 -36.5
t-102.5 36.5t-39.5 98.5t39.5 98.5t102.5 36.5t102.5 -36.5t39.5 -98.5zM408 862q0 22 -11 34.5t-38 12.5t-38 -12.5t-11 -34.5t11 -34.5t38 -12.5t38 12.5t11 34.5z" />
    <glyph glyph-name="Uhungarumlaut" unicode="&#x170;" horiz-adv-x="719" 
d="M668 286q0 -73 -18 -126.5t-57 -91.5q-38 -37 -96.5 -57.5t-136.5 -20.5t-136.5 20.5t-96.5 57.5q-39 38 -57.5 91.5t-18.5 126.5v377h178v-390q0 -57 27 -81q16 -14 44 -22t62 -8t61 8t43 22q27 24 27 81v390h175v-377zM621 919l-172 -188l-81 56l122 193q8 13 17.5 16
t23.5 -8zM391 919l-172 -188l-81 56l122 193q8 13 17.5 16t23.5 -8z" />
    <glyph glyph-name="Uogonek" unicode="&#x172;" horiz-adv-x="719" 
d="M668 286q0 -73 -18 -126.5t-57 -91.5q-26 -25 -61 -40.5t-67.5 -29.5t-55 -30.5t-22.5 -43.5q0 -24 17 -35.5t43 -11.5q11 0 27.5 2t33.5 4l23 -82q-23 -14 -55 -22t-60 -8q-68 0 -108 32t-40 85q0 32 15 59t39 45q-64 5 -113 24.5t-82 51.5q-39 38 -57.5 91.5
t-18.5 126.5v377h178v-390q0 -57 27 -81q16 -14 44 -22t62 -8t61 8t43 22q27 24 27 81v390h175v-377z" />
    <glyph glyph-name="Wgrave" unicode="&#x1e80;" horiz-adv-x="1032" 
d="M649 474q25 -83 43.5 -159t31.5 -141h1q14 60 34 139t47 169l51 169q2 8 5 10t11 2h163l-199 -663h-196q-13 0 -17.5 2.5t-7.5 13.5l-22 85q-11 40 -22 84t-21.5 87t-19.5 82.5t-15 70.5h-1q-5 -29 -13.5 -67.5t-18.5 -81t-21 -85.5t-21 -80l-31 -111h-197q-13 0 -18 2.5
t-8 13.5l-191 647h172q8 0 11 -2t6 -11l49 -168q11 -37 22.5 -79.5t22 -84t19 -79.5t13.5 -65h1q12 56 29 130t46 170l56 189h136q9 0 12.5 -3t5.5 -11zM375 831l63 92q12 18 23 18q7 0 21 -11l175 -145l-47 -68z" />
    <glyph glyph-name="Wacute" unicode="&#x1e82;" horiz-adv-x="1032" 
d="M649 474q25 -83 43.5 -159t31.5 -141h1q14 60 34 139t47 169l51 169q2 8 5 10t11 2h163l-199 -663h-196q-13 0 -17.5 2.5t-7.5 13.5l-22 85q-11 40 -22 84t-21.5 87t-19.5 82.5t-15 70.5h-1q-5 -29 -13.5 -67.5t-18.5 -81t-21 -85.5t-21 -80l-31 -111h-197q-13 0 -18 2.5
t-8 13.5l-191 647h172q8 0 11 -2t6 -11l49 -168q11 -37 22.5 -79.5t22 -84t19 -79.5t13.5 -65h1q12 56 29 130t46 170l56 189h136q9 0 12.5 -3t5.5 -11zM422 717l-47 68l175 145q14 11 21 11q11 0 23 -18l63 -92z" />
    <glyph glyph-name="Wcircumflex" unicode="&#x174;" horiz-adv-x="1032" 
d="M649 474q25 -83 43.5 -159t31.5 -141h1q14 60 34 139t47 169l51 169q2 8 5 10t11 2h163l-199 -663h-196q-13 0 -17.5 2.5t-7.5 13.5l-22 85q-11 40 -22 84t-21.5 87t-19.5 82.5t-15 70.5h-1q-5 -29 -13.5 -67.5t-18.5 -81t-21 -85.5t-21 -80l-31 -111h-197q-13 0 -18 2.5
t-8 13.5l-191 647h172q8 0 11 -2t6 -11l49 -168q11 -37 22.5 -79.5t22 -84t19 -79.5t13.5 -65h1q12 56 29 130t46 170l56 189h136q9 0 12.5 -3t5.5 -11zM545 923q12 0 18 -2.5t14 -10.5l128 -133l-62 -61l-127 90h-1l-127 -90l-62 61l128 133q8 8 14 10.5t18 2.5h59z" />
    <glyph glyph-name="Wdieresis" unicode="&#x1e84;" horiz-adv-x="1032" 
d="M649 474q25 -83 43.5 -159t31.5 -141h1q14 60 34 139t47 169l51 169q2 8 5 10t11 2h163l-199 -663h-196q-13 0 -17.5 2.5t-7.5 13.5l-22 85q-11 40 -22 84t-21.5 87t-19.5 82.5t-15 70.5h-1q-5 -29 -13.5 -67.5t-18.5 -81t-21 -85.5t-21 -80l-31 -111h-197q-13 0 -18 2.5
t-8 13.5l-191 647h172q8 0 11 -2t6 -11l49 -168q11 -37 22.5 -79.5t22 -84t19 -79.5t13.5 -65h1q12 56 29 130t46 170l56 189h136q9 0 12.5 -3t5.5 -11zM443 884q21 0 28 -7t7 -25v-112h-148v144h113zM667 884q21 0 28 -7t7 -25v-112h-148v144h113z" />
    <glyph glyph-name="Ygrave" unicode="&#x1ef2;" horiz-adv-x="713" 
d="M363 347q16 39 39 84.5t55 105.5l61 114q5 8 8.5 10t11.5 2h185l-275 -463v-200h-178v200l-280 463h193q8 0 11.5 -2t8.5 -10l66 -118q18 -33 32 -58.5t24.5 -47t19.5 -41t17 -39.5h1zM187 831l63 92q12 18 23 18q7 0 21 -11l175 -145l-47 -68z" />
    <glyph glyph-name="Yacute" unicode="&#xdd;" horiz-adv-x="713" 
d="M363 347q16 39 39 84.5t55 105.5l61 114q5 8 8.5 10t11.5 2h185l-275 -463v-200h-178v200l-280 463h193q8 0 11.5 -2t8.5 -10l66 -118q18 -33 32 -58.5t24.5 -47t19.5 -41t17 -39.5h1zM294 717l-47 68l175 145q14 11 21 11q11 0 23 -18l63 -92z" />
    <glyph glyph-name="Ycircumflex" unicode="&#x176;" horiz-adv-x="713" 
d="M363 347q16 39 39 84.5t55 105.5l61 114q5 8 8.5 10t11.5 2h185l-275 -463v-200h-178v200l-280 463h193q8 0 11.5 -2t8.5 -10l66 -118q18 -33 32 -58.5t24.5 -47t19.5 -41t17 -39.5h1zM389 923q12 0 18 -2.5t14 -10.5l128 -133l-62 -61l-127 90h-1l-127 -90l-62 61
l128 133q8 8 14 10.5t18 2.5h59z" />
    <glyph glyph-name="Ydieresis" unicode="&#x178;" horiz-adv-x="713" 
d="M363 347q16 39 39 84.5t55 105.5l61 114q5 8 8.5 10t11.5 2h185l-275 -463v-200h-178v200l-280 463h193q8 0 11.5 -2t8.5 -10l66 -118q18 -33 32 -58.5t24.5 -47t19.5 -41t17 -39.5h1zM287 884q21 0 28 -7t7 -25v-112h-148v144h113zM511 884q21 0 28 -7t7 -25v-112h-148
v144h113z" />
    <glyph glyph-name="Zacute" unicode="&#x179;" horiz-adv-x="649" 
d="M235 366q18 22 37 44.5t37.5 42.5t34 36.5t26.5 26.5h-332v147h566v-100q0 -14 -3.5 -22.5t-14.5 -22.5l-185 -221q-17 -20 -35.5 -41.5t-36.5 -41.5t-33.5 -37.5t-27.5 -29.5h340v-147h-573v100q0 14 3.5 22.5t14.5 22.5zM240 717l-47 68l175 145q14 11 21 11
q11 0 23 -18l63 -92z" />
    <glyph glyph-name="Zcaron" unicode="&#x17d;" horiz-adv-x="649" 
d="M235 366q18 22 37 44.5t37.5 42.5t34 36.5t26.5 26.5h-332v147h566v-100q0 -14 -3.5 -22.5t-14.5 -22.5l-185 -221q-17 -20 -35.5 -41.5t-36.5 -41.5t-33.5 -37.5t-27.5 -29.5h340v-147h-573v100q0 14 3.5 22.5t14.5 22.5zM330 846l127 90l62 -61l-128 -133
q-8 -8 -14 -10.5t-18 -2.5h-59q-12 0 -18 2.5t-14 10.5l-128 133l62 61l127 -90h1z" />
    <glyph glyph-name="Zdotaccent" unicode="&#x17b;" horiz-adv-x="649" 
d="M235 366q18 22 37 44.5t37.5 42.5t34 36.5t26.5 26.5h-332v147h566v-100q0 -14 -3.5 -22.5t-14.5 -22.5l-185 -221q-17 -20 -35.5 -41.5t-36.5 -41.5t-33.5 -37.5t-27.5 -29.5h340v-147h-573v100q0 14 3.5 22.5t14.5 22.5zM367 883q22 0 29 -7t7 -26v-116h-153v149h117z
" />
    <glyph glyph-name="agrave" unicode="&#xe0;" horiz-adv-x="562" 
d="M317 310q0 15 -4 24t-11 14q-10 8 -24.5 10t-31.5 2q-24 0 -52 -4.5t-64 -15.5l-41 -12l-47 87q46 38 105.5 59.5t119.5 21.5q50 0 94 -14t75 -44q23 -23 36 -56t13 -81v-177l66 -16v-84q-20 -11 -48 -19t-51 -8q-29 0 -53 10.5t-51 33.5l-32 -18q-26 -14 -56 -22.5
t-59 -8.5q-40 0 -73 12t-57 33.5t-37.5 51.5t-13.5 66t13.5 63t36 45t53 26.5t64.5 8.5t68 -8t62 -22v42zM317 179q0 5 -1.5 6t-7.5 1h-108q-15 0 -21 -7q-4 -5 -4 -16q0 -20 15.5 -34.5t44.5 -14.5q17 0 39 5t35 11q8 4 8 12v37zM127 661l63 92q12 18 23 18q7 0 21 -11
l175 -145l-47 -68z" />
    <glyph glyph-name="aacute" unicode="&#xe1;" horiz-adv-x="562" 
d="M317 310q0 15 -4 24t-11 14q-10 8 -24.5 10t-31.5 2q-24 0 -52 -4.5t-64 -15.5l-41 -12l-47 87q46 38 105.5 59.5t119.5 21.5q50 0 94 -14t75 -44q23 -23 36 -56t13 -81v-177l66 -16v-84q-20 -11 -48 -19t-51 -8q-29 0 -53 10.5t-51 33.5l-32 -18q-26 -14 -56 -22.5
t-59 -8.5q-40 0 -73 12t-57 33.5t-37.5 51.5t-13.5 66t13.5 63t36 45t53 26.5t64.5 8.5t68 -8t62 -22v42zM317 179q0 5 -1.5 6t-7.5 1h-108q-15 0 -21 -7q-4 -5 -4 -16q0 -20 15.5 -34.5t44.5 -14.5q17 0 39 5t35 11q8 4 8 12v37zM174 547l-47 68l175 145q14 11 21 11
q11 0 23 -18l63 -92z" />
    <glyph glyph-name="acircumflex" unicode="&#xe2;" horiz-adv-x="562" 
d="M317 310q0 15 -4 24t-11 14q-10 8 -24.5 10t-31.5 2q-24 0 -52 -4.5t-64 -15.5l-41 -12l-47 87q46 38 105.5 59.5t119.5 21.5q50 0 94 -14t75 -44q23 -23 36 -56t13 -81v-177l66 -16v-84q-20 -11 -48 -19t-51 -8q-29 0 -53 10.5t-51 33.5l-32 -18q-26 -14 -56 -22.5
t-59 -8.5q-40 0 -73 12t-57 33.5t-37.5 51.5t-13.5 66t13.5 63t36 45t53 26.5t64.5 8.5t68 -8t62 -22v42zM317 179q0 5 -1.5 6t-7.5 1h-108q-15 0 -21 -7q-4 -5 -4 -16q0 -20 15.5 -34.5t44.5 -14.5q17 0 39 5t35 11q8 4 8 12v37zM297 753q12 0 18 -2.5t14 -10.5l128 -133
l-62 -61l-127 90h-1l-127 -90l-62 61l128 133q8 8 14 10.5t18 2.5h59z" />
    <glyph glyph-name="atilde" unicode="&#xe3;" horiz-adv-x="562" 
d="M317 310q0 15 -4 24t-11 14q-10 8 -24.5 10t-31.5 2q-24 0 -52 -4.5t-64 -15.5l-41 -12l-47 87q46 38 105.5 59.5t119.5 21.5q50 0 94 -14t75 -44q23 -23 36 -56t13 -81v-177l66 -16v-84q-20 -11 -48 -19t-51 -8q-29 0 -53 10.5t-51 33.5l-32 -18q-26 -14 -56 -22.5
t-59 -8.5q-40 0 -73 12t-57 33.5t-37.5 51.5t-13.5 66t13.5 63t36 45t53 26.5t64.5 8.5t68 -8t62 -22v42zM317 179q0 5 -1.5 6t-7.5 1h-108q-15 0 -21 -7q-4 -5 -4 -16q0 -20 15.5 -34.5t44.5 -14.5q17 0 39 5t35 11q8 4 8 12v37zM336 566q-24 0 -42.5 7.5t-33.5 16
t-27.5 16t-23.5 7.5q-15 0 -26 -14t-22 -39l-90 24q2 27 11.5 53t25.5 46.5t39 32.5t53 12q24 0 42.5 -7.5t33.5 -16t27.5 -16t23.5 -7.5q15 0 26 14t22 39l90 -24q-2 -27 -11.5 -53t-25.5 -46.5t-39 -32.5t-53 -12z" />
    <glyph glyph-name="adieresis" unicode="&#xe4;" horiz-adv-x="562" 
d="M317 310q0 15 -4 24t-11 14q-10 8 -24.5 10t-31.5 2q-24 0 -52 -4.5t-64 -15.5l-41 -12l-47 87q46 38 105.5 59.5t119.5 21.5q50 0 94 -14t75 -44q23 -23 36 -56t13 -81v-177l66 -16v-84q-20 -11 -48 -19t-51 -8q-29 0 -53 10.5t-51 33.5l-32 -18q-26 -14 -56 -22.5
t-59 -8.5q-40 0 -73 12t-57 33.5t-37.5 51.5t-13.5 66t13.5 63t36 45t53 26.5t64.5 8.5t68 -8t62 -22v42zM317 179q0 5 -1.5 6t-7.5 1h-108q-15 0 -21 -7q-4 -5 -4 -16q0 -20 15.5 -34.5t44.5 -14.5q17 0 39 5t35 11q8 4 8 12v37zM195 714q21 0 28 -7t7 -25v-112h-148v144
h113zM419 714q21 0 28 -7t7 -25v-112h-148v144h113z" />
    <glyph glyph-name="amacron" unicode="&#x101;" horiz-adv-x="562" 
d="M317 310q0 15 -4 24t-11 14q-10 8 -24.5 10t-31.5 2q-24 0 -52 -4.5t-64 -15.5l-41 -12l-47 87q46 38 105.5 59.5t119.5 21.5q50 0 94 -14t75 -44q23 -23 36 -56t13 -81v-177l66 -16v-84q-20 -11 -48 -19t-51 -8q-29 0 -53 10.5t-51 33.5l-32 -18q-26 -14 -56 -22.5
t-59 -8.5q-40 0 -73 12t-57 33.5t-37.5 51.5t-13.5 66t13.5 63t36 45t53 26.5t64.5 8.5t68 -8t62 -22v42zM317 179q0 5 -1.5 6t-7.5 1h-108q-15 0 -21 -7q-4 -5 -4 -16q0 -20 15.5 -34.5t44.5 -14.5q17 0 39 5t35 11q8 4 8 12v37zM102 582v121h332v-121h-332z" />
    <glyph glyph-name="abreve" unicode="&#x103;" horiz-adv-x="562" 
d="M317 310q0 15 -4 24t-11 14q-10 8 -24.5 10t-31.5 2q-24 0 -52 -4.5t-64 -15.5l-41 -12l-47 87q46 38 105.5 59.5t119.5 21.5q50 0 94 -14t75 -44q23 -23 36 -56t13 -81v-177l66 -16v-84q-20 -11 -48 -19t-51 -8q-29 0 -53 10.5t-51 33.5l-32 -18q-26 -14 -56 -22.5
t-59 -8.5q-40 0 -73 12t-57 33.5t-37.5 51.5t-13.5 66t13.5 63t36 45t53 26.5t64.5 8.5t68 -8t62 -22v42zM317 179q0 5 -1.5 6t-7.5 1h-108q-15 0 -21 -7q-4 -5 -4 -16q0 -20 15.5 -34.5t44.5 -14.5q17 0 39 5t35 11q8 4 8 12v37zM268 559q-41 0 -72.5 12.5t-54 34.5
t-36 51.5t-16.5 62.5l106 18q11 -32 28 -48.5t45 -16.5t45 16.5t28 48.5l106 -18q-3 -33 -16.5 -62.5t-36 -51.5t-54.5 -34.5t-72 -12.5z" />
    <glyph glyph-name="acaron" unicode="&#x1ce;" horiz-adv-x="562" 
d="M317 310q0 15 -4 24t-11 14q-10 8 -24.5 10t-31.5 2q-24 0 -52 -4.5t-64 -15.5l-41 -12l-47 87q46 38 105.5 59.5t119.5 21.5q50 0 94 -14t75 -44q23 -23 36 -56t13 -81v-177l66 -16v-84q-20 -11 -48 -19t-51 -8q-29 0 -53 10.5t-51 33.5l-32 -18q-26 -14 -56 -22.5
t-59 -8.5q-40 0 -73 12t-57 33.5t-37.5 51.5t-13.5 66t13.5 63t36 45t53 26.5t64.5 8.5t68 -8t62 -22v42zM317 179q0 5 -1.5 6t-7.5 1h-108q-15 0 -21 -7q-4 -5 -4 -16q0 -20 15.5 -34.5t44.5 -14.5q17 0 39 5t35 11q8 4 8 12v37zM270 676l127 90l62 -61l-128 -133
q-8 -8 -14 -10.5t-18 -2.5h-59q-12 0 -18 2.5t-14 10.5l-128 133l62 61l127 -90h1z" />
    <glyph glyph-name="aring" unicode="&#xe5;" horiz-adv-x="562" 
d="M317 310q0 15 -4 24t-11 14q-10 8 -24.5 10t-31.5 2q-24 0 -52 -4.5t-64 -15.5l-41 -12l-47 87q46 38 105.5 59.5t119.5 21.5q50 0 94 -14t75 -44q23 -23 36 -56t13 -81v-177l66 -16v-84q-20 -11 -48 -19t-51 -8q-29 0 -53 10.5t-51 33.5l-32 -18q-26 -14 -56 -22.5
t-59 -8.5q-40 0 -73 12t-57 33.5t-37.5 51.5t-13.5 66t13.5 63t36 45t53 26.5t64.5 8.5t68 -8t62 -22v42zM317 179q0 5 -1.5 6t-7.5 1h-108q-15 0 -21 -7q-4 -5 -4 -16q0 -20 15.5 -34.5t44.5 -14.5q17 0 39 5t35 11q8 4 8 12v37zM410 692q0 -62 -39.5 -98.5t-102.5 -36.5
t-102.5 36.5t-39.5 98.5t39.5 98.5t102.5 36.5t102.5 -36.5t39.5 -98.5zM317 692q0 22 -11 34.5t-38 12.5t-38 -12.5t-11 -34.5t11 -34.5t38 -12.5t38 12.5t11 34.5z" />
    <glyph glyph-name="aringacute" unicode="&#x1fb;" horiz-adv-x="562" 
d="M317 310q0 15 -4 24t-11 14q-10 8 -24.5 10t-31.5 2q-24 0 -52 -4.5t-64 -15.5l-41 -12l-47 87q46 38 105.5 59.5t119.5 21.5q50 0 94 -14t75 -44q23 -23 36 -56t13 -81v-177l66 -16v-84q-20 -11 -48 -19t-51 -8q-29 0 -53 10.5t-51 33.5l-32 -18q-26 -14 -56 -22.5
t-59 -8.5q-40 0 -73 12t-57 33.5t-37.5 51.5t-13.5 66t13.5 63t36 45t53 26.5t64.5 8.5t68 -8t62 -22v42zM317 179q0 5 -1.5 6t-7.5 1h-108q-15 0 -21 -7q-4 -5 -4 -16q0 -20 15.5 -34.5t44.5 -14.5q17 0 39 5t35 11q8 4 8 12v37zM420 658q0 -62 -39.5 -98.5t-102.5 -36.5
t-102.5 36.5t-39.5 98.5t39.5 98.5t102.5 36.5t102.5 -36.5t39.5 -98.5zM327 658q0 22 -11 34.5t-38 12.5t-38 -12.5t-11 -34.5t11 -34.5t38 -12.5t38 12.5t11 34.5zM184 799l-47 68l175 145q14 11 21 11q11 0 23 -18l63 -92z" />
    <glyph glyph-name="aogonek" unicode="&#x105;" horiz-adv-x="562" 
d="M317 310q0 15 -4 24t-11 14q-10 8 -24.5 10t-31.5 2q-24 0 -52 -4.5t-64 -15.5l-41 -12l-47 87q46 38 105.5 59.5t119.5 21.5q50 0 94 -14t75 -44q23 -23 36 -56t13 -81v-177l66 -16v-84q-83 -23 -122 -51t-39 -58q0 -26 17 -36.5t43 -10.5q11 0 27.5 2t33.5 4l23 -82
q-23 -14 -55 -22t-60 -8q-68 0 -108 32t-40 85q0 85 108 139q-16 10 -31 23l-32 -18q-26 -14 -56 -22.5t-59 -8.5q-40 0 -73 12t-57 33.5t-37.5 51.5t-13.5 66t13.5 63t36 45t53 26.5t64.5 8.5t68 -8t62 -22v42zM317 179q0 5 -1.5 6t-7.5 1h-108q-15 0 -21 -7q-4 -5 -4 -16
q0 -20 15.5 -34.5t44.5 -14.5q17 0 39 5t35 11q8 4 8 11v38z" />
    <glyph glyph-name="ae" unicode="&#xe6;" horiz-adv-x="845" 
d="M580 -8q-54 0 -101 16t-82 46l-39 -20q-37 -20 -69 -31t-71 -11q-43 0 -78.5 12.5t-61 34t-39.5 52t-14 66.5t13 63.5t35.5 46t53 27.5t64.5 9t66 -8t60 -22v39q0 15 -4 23t-11 13q-10 8 -24.5 10t-31.5 2q-24 0 -52 -4.5t-64 -15.5l-41 -12l-47 85q46 38 105.5 60.5
t119.5 22.5q42 0 79 -12.5t67 -38.5q32 25 72.5 38t83.5 13q54 0 99.5 -18.5t78.5 -51t52 -75.5t19 -91q0 -31 -3 -44q-4 -18 -21 -18h-306q5 -31 31.5 -49.5t73.5 -18.5q22 0 48.5 4.5t47.5 9.5l70 18l48 -90q-42 -35 -103 -57.5t-124 -22.5zM239 114q29 0 54 7.5t44 15.5
q-5 13 -9.5 27t-6.5 29h-117q-15 0 -21 -7q-4 -5 -4 -16q0 -20 15.5 -38t44.5 -18zM656 300q-4 34 -27.5 50.5t-55.5 16.5t-56 -16t-28 -51h167z" />
    <glyph glyph-name="aeacute" unicode="&#x1fd;" horiz-adv-x="845" 
d="M580 -8q-54 0 -101 16t-82 46l-39 -20q-37 -20 -69 -31t-71 -11q-43 0 -78.5 12.5t-61 34t-39.5 52t-14 66.5t13 63.5t35.5 46t53 27.5t64.5 9t66 -8t60 -22v39q0 15 -4 23t-11 13q-10 8 -24.5 10t-31.5 2q-24 0 -52 -4.5t-64 -15.5l-41 -12l-47 85q46 38 105.5 60.5
t119.5 22.5q42 0 79 -12.5t67 -38.5q32 25 72.5 38t83.5 13q54 0 99.5 -18.5t78.5 -51t52 -75.5t19 -91q0 -31 -3 -44q-4 -18 -21 -18h-306q5 -31 31.5 -49.5t73.5 -18.5q22 0 48.5 4.5t47.5 9.5l70 18l48 -90q-42 -35 -103 -57.5t-124 -22.5zM239 114q29 0 54 7.5t44 15.5
q-5 13 -9.5 27t-6.5 29h-117q-15 0 -21 -7q-4 -5 -4 -16q0 -20 15.5 -38t44.5 -18zM656 300q-4 34 -27.5 50.5t-55.5 16.5t-56 -16t-28 -51h167zM358 547l-47 68l175 145q14 11 21 11q11 0 23 -18l63 -92z" />
    <glyph glyph-name="cacute" unicode="&#x107;" horiz-adv-x="530" 
d="M514 94q-19 -21 -45.5 -39.5t-58 -32.5t-65.5 -22t-68 -8q-56 0 -102 18t-80 51t-52.5 80t-18.5 105q0 57 20.5 103.5t55 79t79.5 50t94 17.5q47 0 86 -14t68.5 -38.5t49.5 -57.5t29 -70l-110 -52l-42 42q-26 26 -43 35.5t-39 9.5q-32 0 -54.5 -26.5t-22.5 -76.5
q0 -57 28 -83.5t76 -26.5q20 0 46 6t46 14l71 26zM181 547l-47 68l175 145q14 11 21 11q11 0 23 -18l63 -92z" />
    <glyph glyph-name="ccedilla" unicode="&#xe7;" horiz-adv-x="530" 
d="M514 96q-17 -18 -39.5 -35t-49 -30.5t-56 -23t-59.5 -13.5q-10 -15 -10 -25t16 -15t35.5 -13t36 -22.5t16.5 -43.5q0 -57 -50 -90t-151 -33l-17 87l53 8q32 4 32 18q0 7 -14 12t-31 12t-31 18t-14 30q0 15 9 31t25 30q-43 9 -78.5 30t-60.5 53t-38.5 73.5t-13.5 91.5
q0 57 20.5 103.5t55 79t79.5 50t94 17.5q47 0 86 -14t68.5 -38.5t49.5 -57.5t29 -70l-110 -52l-42 42q-26 26 -43 35.5t-39 9.5q-32 0 -54.5 -26.5t-22.5 -76.5q0 -57 28 -83.5t76 -26.5q20 0 46 6t46 14l71 26z" />
    <glyph glyph-name="ccircumflex" unicode="&#x109;" horiz-adv-x="530" 
d="M514 94q-19 -21 -45.5 -39.5t-58 -32.5t-65.5 -22t-68 -8q-56 0 -102 18t-80 51t-52.5 80t-18.5 105q0 57 20.5 103.5t55 79t79.5 50t94 17.5q47 0 86 -14t68.5 -38.5t49.5 -57.5t29 -70l-110 -52l-42 42q-26 26 -43 35.5t-39 9.5q-32 0 -54.5 -26.5t-22.5 -76.5
q0 -57 28 -83.5t76 -26.5q20 0 46 6t46 14l71 26zM304 753q12 0 18 -2.5t14 -10.5l128 -133l-62 -61l-127 90h-1l-127 -90l-62 61l128 133q8 8 14 10.5t18 2.5h59z" />
    <glyph glyph-name="ccaron" unicode="&#x10d;" horiz-adv-x="530" 
d="M514 94q-19 -21 -45.5 -39.5t-58 -32.5t-65.5 -22t-68 -8q-56 0 -102 18t-80 51t-52.5 80t-18.5 105q0 57 20.5 103.5t55 79t79.5 50t94 17.5q47 0 86 -14t68.5 -38.5t49.5 -57.5t29 -70l-110 -52l-42 42q-26 26 -43 35.5t-39 9.5q-32 0 -54.5 -26.5t-22.5 -76.5
q0 -57 28 -83.5t76 -26.5q20 0 46 6t46 14l71 26zM275 676l127 90l62 -61l-128 -133q-8 -8 -14 -10.5t-18 -2.5h-59q-12 0 -18 2.5t-14 10.5l-128 133l62 61l127 -90h1z" />
    <glyph glyph-name="cdotaccent" unicode="&#x10b;" horiz-adv-x="530" 
d="M514 94q-19 -21 -45.5 -39.5t-58 -32.5t-65.5 -22t-68 -8q-56 0 -102 18t-80 51t-52.5 80t-18.5 105q0 57 20.5 103.5t55 79t79.5 50t94 17.5q47 0 86 -14t68.5 -38.5t49.5 -57.5t29 -70l-110 -52l-42 42q-26 26 -43 35.5t-39 9.5q-32 0 -54.5 -26.5t-22.5 -76.5
q0 -57 28 -83.5t76 -26.5q20 0 46 6t46 14l71 26zM315 713q22 0 29 -7t7 -26v-116h-153v149h117z" />
    <glyph glyph-name="dcaron" unicode="&#x10f;" horiz-adv-x="750" 
d="M386 44l-41 -22q-56 -30 -112 -30q-45 0 -83 17.5t-65.5 50.5t-43 79.5t-15.5 104.5q0 57 16.5 103.5t46 79.5t69 51t84.5 18q32 0 61.5 -10t61.5 -27v250h168v-709h-128zM197 244q0 -55 21.5 -77.5t67.5 -22.5q18 0 36.5 3.5t32.5 8.5q5 2 7.5 4.5t2.5 10.5v150
q0 7 -2.5 9t-7.5 4q-12 4 -31 7t-39 3q-45 0 -66.5 -23t-21.5 -77zM587 458l17 251h92q11 0 16 -2.5t10 -7.5q24 -27 24 -56q0 -14 -7 -35t-28 -61l-54 -103z" />
    <glyph glyph-name="dcroat" unicode="&#x111;" horiz-adv-x="601" 
d="M386 44l-41 -22q-56 -30 -112 -30q-45 0 -83 17.5t-65.5 50.5t-43 79.5t-15.5 104.5q0 57 16.5 103.5t46 79.5t69 51t84.5 18q32 0 61.5 -10t61.5 -27v88h-124v94h124v68h168v-68l68 -11v-83h-68v-547h-128zM197 244q0 -55 21.5 -77.5t67.5 -22.5q18 0 36.5 3.5t32.5 8.5
q5 2 7.5 4.5t2.5 10.5v150q0 7 -2.5 9t-7.5 4q-12 4 -31 7t-39 3q-45 0 -66.5 -23t-21.5 -77z" />
    <glyph glyph-name="eth" unicode="&#xf0;" horiz-adv-x="572" 
d="M339 448q-8 26 -21.5 48.5t-34.5 43.5l-108 -59l-55 94l64 35q-17 10 -37.5 19.5t-40.5 18.5l51 90q38 -9 78 -24.5t75 -34.5l132 73l53 -94l-93 -51q69 -62 106 -144t37 -195q0 -65 -19 -116t-54 -86.5t-84 -54.5t-109 -19q-59 0 -106 18.5t-80 51t-50.5 77t-17.5 96.5
q0 55 18 98t48.5 72.5t71 45t86.5 15.5q24 0 47 -4.5t43 -13.5zM375 249q0 17 -1 30t-3 21q-2 9 -5.5 13.5t-11.5 7.5q-13 5 -32.5 9t-37.5 4q-48 0 -68 -24t-20 -73q0 -41 20.5 -67t67.5 -26q50 0 70.5 24t20.5 81z" />
    <glyph glyph-name="egrave" unicode="&#xe8;" horiz-adv-x="551" 
d="M194 198q5 -31 31.5 -49.5t73.5 -18.5q22 0 48.5 4.5t47.5 9.5l70 18l48 -90q-42 -35 -103 -57.5t-124 -22.5q-57 0 -106.5 18t-84.5 53q-33 32 -52 78t-19 102q0 58 20.5 104.5t55 79.5t80 51t95.5 18q54 0 99.5 -18.5t78.5 -51t52 -75.5t19 -91q0 -31 -3 -44
q-4 -18 -21 -18h-306zM362 301q-4 34 -27.5 50t-55.5 16t-56 -15.5t-28 -50.5h167zM136 661l63 92q12 18 23 18q7 0 21 -11l175 -145l-47 -68z" />
    <glyph glyph-name="eacute" unicode="&#xe9;" horiz-adv-x="551" 
d="M194 198q5 -31 31.5 -49.5t73.5 -18.5q22 0 48.5 4.5t47.5 9.5l70 18l48 -90q-42 -35 -103 -57.5t-124 -22.5q-57 0 -106.5 18t-84.5 53q-33 32 -52 78t-19 102q0 58 20.5 104.5t55 79.5t80 51t95.5 18q54 0 99.5 -18.5t78.5 -51t52 -75.5t19 -91q0 -31 -3 -44
q-4 -18 -21 -18h-306zM362 301q-4 34 -27.5 50t-55.5 16t-56 -15.5t-28 -50.5h167zM181 547l-47 68l175 145q14 11 21 11q11 0 23 -18l63 -92z" />
    <glyph glyph-name="ecircumflex" unicode="&#xea;" horiz-adv-x="551" 
d="M194 198q5 -31 31.5 -49.5t73.5 -18.5q22 0 48.5 4.5t47.5 9.5l70 18l48 -90q-42 -35 -103 -57.5t-124 -22.5q-57 0 -106.5 18t-84.5 53q-33 32 -52 78t-19 102q0 58 20.5 104.5t55 79.5t80 51t95.5 18q54 0 99.5 -18.5t78.5 -51t52 -75.5t19 -91q0 -31 -3 -44
q-4 -18 -21 -18h-306zM362 301q-4 34 -27.5 50t-55.5 16t-56 -15.5t-28 -50.5h167zM306 753q12 0 18 -2.5t14 -10.5l128 -133l-62 -61l-127 90h-1l-127 -90l-62 61l128 133q8 8 14 10.5t18 2.5h59z" />
    <glyph glyph-name="ecaron" unicode="&#x11b;" horiz-adv-x="551" 
d="M194 198q5 -31 31.5 -49.5t73.5 -18.5q22 0 48.5 4.5t47.5 9.5l70 18l48 -90q-42 -35 -103 -57.5t-124 -22.5q-57 0 -106.5 18t-84.5 53q-33 32 -52 78t-19 102q0 58 20.5 104.5t55 79.5t80 51t95.5 18q54 0 99.5 -18.5t78.5 -51t52 -75.5t19 -91q0 -31 -3 -44
q-4 -18 -21 -18h-306zM362 301q-4 34 -27.5 50t-55.5 16t-56 -15.5t-28 -50.5h167zM277 676l127 90l62 -61l-128 -133q-8 -8 -14 -10.5t-18 -2.5h-59q-12 0 -18 2.5t-14 10.5l-128 133l62 61l127 -90h1z" />
    <glyph glyph-name="edieresis" unicode="&#xeb;" horiz-adv-x="551" 
d="M194 198q5 -31 31.5 -49.5t73.5 -18.5q22 0 48.5 4.5t47.5 9.5l70 18l48 -90q-42 -35 -103 -57.5t-124 -22.5q-57 0 -106.5 18t-84.5 53q-33 32 -52 78t-19 102q0 58 20.5 104.5t55 79.5t80 51t95.5 18q54 0 99.5 -18.5t78.5 -51t52 -75.5t19 -91q0 -31 -3 -44
q-4 -18 -21 -18h-306zM362 301q-4 34 -27.5 50t-55.5 16t-56 -15.5t-28 -50.5h167zM204 714q21 0 28 -7t7 -25v-112h-148v144h113zM428 714q21 0 28 -7t7 -25v-112h-148v144h113z" />
    <glyph glyph-name="emacron" unicode="&#x113;" horiz-adv-x="551" 
d="M194 198q5 -31 31.5 -49.5t73.5 -18.5q22 0 48.5 4.5t47.5 9.5l70 18l48 -90q-42 -35 -103 -57.5t-124 -22.5q-57 0 -106.5 18t-84.5 53q-33 32 -52 78t-19 102q0 58 20.5 104.5t55 79.5t80 51t95.5 18q54 0 99.5 -18.5t78.5 -51t52 -75.5t19 -91q0 -31 -3 -44
q-4 -18 -21 -18h-306zM362 301q-4 34 -27.5 50t-55.5 16t-56 -15.5t-28 -50.5h167zM111 582v121h332v-121h-332z" />
    <glyph glyph-name="ebreve" unicode="&#x115;" horiz-adv-x="551" 
d="M194 198q5 -31 31.5 -49.5t73.5 -18.5q22 0 48.5 4.5t47.5 9.5l70 18l48 -90q-42 -35 -103 -57.5t-124 -22.5q-57 0 -106.5 18t-84.5 53q-33 32 -52 78t-19 102q0 58 20.5 104.5t55 79.5t80 51t95.5 18q54 0 99.5 -18.5t78.5 -51t52 -75.5t19 -91q0 -31 -3 -44
q-4 -18 -21 -18h-306zM362 301q-4 34 -27.5 50t-55.5 16t-56 -15.5t-28 -50.5h167zM277 559q-41 0 -72.5 12.5t-54 34.5t-36 51.5t-16.5 62.5l106 18q11 -32 28 -48.5t45 -16.5t45 16.5t28 48.5l106 -18q-3 -33 -16.5 -62.5t-36 -51.5t-54.5 -34.5t-72 -12.5z" />
    <glyph glyph-name="edotaccent" unicode="&#x117;" horiz-adv-x="551" 
d="M194 198q5 -31 31.5 -49.5t73.5 -18.5q22 0 48.5 4.5t47.5 9.5l70 18l48 -90q-42 -35 -103 -57.5t-124 -22.5q-57 0 -106.5 18t-84.5 53q-33 32 -52 78t-19 102q0 58 20.5 104.5t55 79.5t80 51t95.5 18q54 0 99.5 -18.5t78.5 -51t52 -75.5t19 -91q0 -31 -3 -44
q-4 -18 -21 -18h-306zM362 301q-4 34 -27.5 50t-55.5 16t-56 -15.5t-28 -50.5h167zM317 713q22 0 29 -7t7 -26v-116h-153v149h117z" />
    <glyph glyph-name="eogonek" unicode="&#x119;" horiz-adv-x="551" 
d="M362 300q-4 34 -27.5 50.5t-55.5 16.5t-56 -16t-28 -51h167zM286 -8q-57 0 -106.5 18t-84.5 53q-33 32 -52 78t-19 102q0 58 20.5 104.5t55 79.5t80 51t95.5 18q54 0 99.5 -18.5t78.5 -51t52 -75.5t19 -91q0 -31 -3 -44q-4 -18 -21 -18h-306q5 -31 31.5 -49.5t73.5 -18.5
q22 0 48.5 4.5t47.5 9.5l70 18l48 -90q-75 -47 -111.5 -81.5t-36.5 -66.5q0 -22 13.5 -34.5t42.5 -12.5q13 0 31 2t34 4l23 -82q-23 -13 -55 -21.5t-60 -8.5q-66 0 -106 33.5t-40 85.5q0 32 17 57.5t45 45.5q-5 0 -12 -0.5t-12 -0.5z" />
    <glyph glyph-name="gcircumflex" unicode="&#x11d;" horiz-adv-x="573" 
d="M505 298q0 -49 -19.5 -85.5t-52 -61t-74.5 -36.5t-87 -12q-25 0 -53 5q-8 2 -9 0t-3 -7l-5 -20q-2 -8 1 -10.5t11 -2.5h146q102 0 148 -43q37 -35 37 -95q0 -44 -21.5 -80.5t-59 -62t-88 -39.5t-109.5 -14q-55 0 -104 11.5t-85.5 33t-58 51.5t-21.5 66q0 28 15.5 48
t42.5 37q-20 18 -20 44q0 22 13.5 42t37.5 49l28 35q-35 25 -55.5 60.5t-20.5 86.5q0 49 19.5 86t52 62t74.5 37.5t87 12.5q38 0 74 -9.5t66 -27.5l12 11q27 24 46 34.5t44 10.5q17 0 35.5 -5t38.5 -17v-96l-90 -14q-8 -1 -8.5 -5t1.5 -9q14 -34 14 -71zM348 298
q0 35 -21 51t-55 16t-55.5 -16t-21.5 -51t21.5 -51t55.5 -16t55 16t21 51zM177 -51q-18 0 -18 -27q0 -22 25.5 -38t89.5 -16q57 0 84 16t27 40q0 25 -35 25h-173zM306 753q12 0 18 -2.5t14 -10.5l128 -133l-62 -61l-127 90h-1l-127 -90l-62 61l128 133q8 8 14 10.5t18 2.5
h59z" />
    <glyph glyph-name="gbreve" unicode="&#x11f;" horiz-adv-x="573" 
d="M505 298q0 -49 -19.5 -85.5t-52 -61t-74.5 -36.5t-87 -12q-25 0 -53 5q-8 2 -9 0t-3 -7l-5 -20q-2 -8 1 -10.5t11 -2.5h146q102 0 148 -43q37 -35 37 -95q0 -44 -21.5 -80.5t-59 -62t-88 -39.5t-109.5 -14q-55 0 -104 11.5t-85.5 33t-58 51.5t-21.5 66q0 28 15.5 48
t42.5 37q-20 18 -20 44q0 22 13.5 42t37.5 49l28 35q-35 25 -55.5 60.5t-20.5 86.5q0 49 19.5 86t52 62t74.5 37.5t87 12.5q38 0 74 -9.5t66 -27.5l12 11q27 24 46 34.5t44 10.5q17 0 35.5 -5t38.5 -17v-96l-90 -14q-8 -1 -8.5 -5t1.5 -9q14 -34 14 -71zM348 298
q0 35 -21 51t-55 16t-55.5 -16t-21.5 -51t21.5 -51t55.5 -16t55 16t21 51zM177 -51q-18 0 -18 -27q0 -22 25.5 -38t89.5 -16q57 0 84 16t27 40q0 25 -35 25h-173zM276 559q-41 0 -72.5 12.5t-54 34.5t-36 51.5t-16.5 62.5l106 18q11 -32 28 -48.5t45 -16.5t45 16.5t28 48.5
l106 -18q-3 -33 -16.5 -62.5t-36 -51.5t-54.5 -34.5t-72 -12.5z" />
    <glyph glyph-name="gdotaccent" unicode="&#x121;" horiz-adv-x="573" 
d="M505 298q0 -49 -19.5 -85.5t-52 -61t-74.5 -36.5t-87 -12q-25 0 -53 5q-8 2 -9 0t-3 -7l-5 -20q-2 -8 1 -10.5t11 -2.5h146q102 0 148 -43q37 -35 37 -95q0 -44 -21.5 -80.5t-59 -62t-88 -39.5t-109.5 -14q-55 0 -104 11.5t-85.5 33t-58 51.5t-21.5 66q0 28 15.5 48
t42.5 37q-20 18 -20 44q0 22 13.5 42t37.5 49l28 35q-35 25 -55.5 60.5t-20.5 86.5q0 49 19.5 86t52 62t74.5 37.5t87 12.5q38 0 74 -9.5t66 -27.5l12 11q27 24 46 34.5t44 10.5q17 0 35.5 -5t38.5 -17v-96l-90 -14q-8 -1 -8.5 -5t1.5 -9q14 -34 14 -71zM348 298
q0 35 -21 51t-55 16t-55.5 -16t-21.5 -51t21.5 -51t55.5 -16t55 16t21 51zM177 -51q-18 0 -18 -27q0 -22 25.5 -38t89.5 -16q57 0 84 16t27 40q0 25 -35 25h-173zM319 713q22 0 29 -7t7 -26v-116h-153v149h117z" />
    <glyph glyph-name="gcommaaccent" unicode="&#x123;" horiz-adv-x="573" 
d="M355 799l-17 -251h-92q-11 0 -16 2.5t-10 7.5q-24 27 -24 56q0 14 7 35t28 61l54 103zM505 298q0 -49 -19.5 -85.5t-52 -61t-74.5 -36.5t-87 -12q-25 0 -53 5q-8 2 -9 0t-3 -7l-5 -20q-2 -8 1 -10.5t11 -2.5h146q102 0 148 -43q37 -35 37 -95q0 -44 -21.5 -80.5t-59 -62
t-88 -39.5t-109.5 -14q-55 0 -104 11.5t-85.5 33t-58 51.5t-21.5 66q0 28 15.5 48t42.5 37q-20 18 -20 44q0 22 13.5 42t37.5 49l28 35q-35 25 -55.5 60.5t-20.5 86.5q0 49 19.5 86t52 62t74.5 37.5t87 12.5q38 0 74 -9.5t66 -27.5l12 11q27 24 46 34.5t44 10.5
q17 0 35.5 -5t38.5 -17v-96l-90 -14q-8 -1 -8.5 -5t1.5 -9q14 -34 14 -71zM348 298q0 35 -21 51t-55 16t-55.5 -16t-21.5 -51t21.5 -51t55.5 -16t55 16t21 51zM177 -51q-18 0 -18 -27q0 -22 25.5 -38t89.5 -16q57 0 84 16t27 40q0 25 -35 25h-173z" />
    <glyph glyph-name="hcircumflex" unicode="&#x125;" horiz-adv-x="573" 
d="M220 709v-254q34 20 63 30.5t62 10.5q37 0 69.5 -13t57.5 -36q27 -26 41.5 -62t14.5 -87v-298h-168v292q0 26 -12 37q-14 13 -55 13q-37 0 -65 -9q-6 -2 -7 -5.5t-1 -8.5v-319h-168v709h168zM163 936q12 0 18 -2.5t14 -10.5l128 -133l-62 -61l-127 90h-1l-127 -90l-62 61
l128 133q8 8 14 10.5t18 2.5h59z" />
    <glyph glyph-name="hbar" unicode="&#x127;" horiz-adv-x="572" 
d="M219 709v-68h124v-94h-124v-92q34 20 63 30.5t62 10.5q37 0 69.5 -13t57.5 -36q27 -26 41.5 -62t14.5 -87v-298h-168v292q0 26 -12 37q-14 13 -55 13q-37 0 -65 -9q-6 -2 -7 -5.5t-1 -8.5v-319h-168v547h-68v83l68 11v68h168z" />
    <glyph glyph-name="dotlessi" unicode="&#x131;" horiz-adv-x="276" 
d="M54 488h168v-488h-168v488z" />
    <glyph glyph-name="igrave" unicode="&#xec;" horiz-adv-x="274" 
d="M53 488h168v-488h-168v488zM-4 661l63 92q12 18 23 18q7 0 21 -11l175 -145l-47 -68z" />
    <glyph glyph-name="iacute" unicode="&#xed;" horiz-adv-x="274" 
d="M53 488h168v-488h-168v488zM43 547l-47 68l175 145q14 11 21 11q11 0 23 -18l63 -92z" />
    <glyph glyph-name="icircumflex" unicode="&#xee;" horiz-adv-x="276" 
d="M54 488h168v-488h-168v488zM168 753q12 0 18 -2.5t14 -10.5l128 -133l-62 -61l-127 90h-1l-127 -90l-62 61l128 133q8 8 14 10.5t18 2.5h59z" />
    <glyph glyph-name="itilde" unicode="&#x129;" horiz-adv-x="276" 
d="M54 488h168v-488h-168v488zM206 566q-24 0 -42.5 7.5t-33.5 16t-27.5 16t-23.5 7.5q-15 0 -26 -14t-22 -39l-90 24q2 27 11.5 53t25.5 46.5t39 32.5t53 12q24 0 42.5 -7.5t33.5 -16t27.5 -16t23.5 -7.5q15 0 26 14t22 39l90 -24q-2 -27 -11.5 -53t-25.5 -46.5t-39 -32.5
t-53 -12z" />
    <glyph glyph-name="idieresis" unicode="&#xef;" horiz-adv-x="276" 
d="M54 488h168v-488h-168v488zM65 714q21 0 28 -7t7 -25v-112h-148v144h113zM289 714q21 0 28 -7t7 -25v-112h-148v144h113z" />
    <glyph glyph-name="imacron" unicode="&#x12b;" horiz-adv-x="274" 
d="M53 488h168v-488h-168v488zM-29 582v121h332v-121h-332z" />
    <glyph glyph-name="ibreve" unicode="&#x12d;" horiz-adv-x="276" 
d="M54 488h168v-488h-168v488zM138 559q-41 0 -72.5 12.5t-54 34.5t-36 51.5t-16.5 62.5l106 18q11 -32 28 -48.5t45 -16.5t45 16.5t28 48.5l106 -18q-3 -33 -16.5 -62.5t-36 -51.5t-54.5 -34.5t-72 -12.5z" />
    <glyph glyph-name="iogonek" unicode="&#x12f;" horiz-adv-x="274" 
d="M53 709h124q25 0 34.5 -9t9.5 -30v-120h-168v159zM221 0h-44q-13 0 -20 -4t-15 -15q-19 -31 -19 -57t17 -36.5t43 -10.5q11 0 27.5 2t33.5 4l23 -82q-23 -14 -55 -22t-60 -8q-67 0 -107.5 32t-40.5 85q0 32 13.5 59.5t35.5 52.5v488h168v-488z" />
    <glyph glyph-name="ij" unicode="&#x133;" horiz-adv-x="550" 
d="M54 488h168v-488h-168v488zM54 709h124q25 0 34.5 -9t9.5 -30v-118h-168v157zM332 488h168v-514q0 -51 -7 -86.5t-25 -61.5q-20 -29 -55 -44t-82 -15q-27 0 -60 6t-55 16v87l69 11q31 5 39 15t8 33v553zM332 709h124q25 0 34.5 -9t9.5 -30v-118h-168v157z" />
    <glyph glyph-name="jcircumflex" unicode="&#x135;" horiz-adv-x="280" 
d="M-58 -124l69 11q31 5 39 15t8 33v553h168v-514q0 -51 -7 -86.5t-25 -61.5q-20 -29 -55 -44t-82 -15q-27 0 -60 6t-55 16v87zM172 753q12 0 18 -2.5t14 -10.5l128 -133l-62 -61l-127 90h-1l-127 -90l-62 61l128 133q8 8 14 10.5t18 2.5h59z" />
    <glyph glyph-name="kcommaaccent" unicode="&#x137;" horiz-adv-x="592" 
d="M406 282l188 -282h-166q-13 0 -19 3.5t-12 12.5l-117 183q-15 -8 -30.5 -14t-29.5 -10v-175h-168v709h168v-399l255 198l89 -103zM227 -309l17 251h92q11 0 16 -2.5t10 -7.5q24 -27 24 -56q0 -14 -7 -35t-28 -61l-54 -103z" />
    <glyph glyph-name="kgreenlandic" unicode="&#x138;" horiz-adv-x="592" 
d="M406 277l188 -277h-166q-13 0 -19 3.5t-12 12.5l-112 175q-15 -8 -33 -15t-32 -11v-165h-168v488h168v-188l255 208l89 -103z" />
    <glyph glyph-name="lacute" unicode="&#x13a;" horiz-adv-x="306" 
d="M300 24q-22 -11 -52.5 -19t-57.5 -8q-32 0 -59 10.5t-45 29.5q-17 17 -25.5 42t-8.5 61v569h168v-579l80 -22v-84zM60 739l-47 68l175 145q14 11 21 11q11 0 23 -18l63 -92z" />
    <glyph glyph-name="lcaron" unicode="&#x13e;" horiz-adv-x="438" 
d="M301 24q-22 -11 -52.5 -19t-57.5 -8q-32 0 -59 10.5t-45 29.5q-17 17 -25.5 42t-8.5 61v569h168v-579l80 -22v-84zM275 458l17 251h92q11 0 16 -2.5t10 -7.5q24 -27 24 -56q0 -14 -7 -35t-28 -61l-54 -103z" />
    <glyph glyph-name="lcommaaccent" unicode="&#x13c;" horiz-adv-x="307" 
d="M301 24q-22 -11 -52.5 -19t-57.5 -8q-32 0 -59 10.5t-45 29.5q-17 17 -25.5 42t-8.5 61v569h168v-579l80 -22v-84zM89 -309l17 251h92q11 0 16 -2.5t10 -7.5q24 -27 24 -56q0 -14 -7 -35t-28 -61l-54 -103z" />
    <glyph glyph-name="lslash" unicode="&#x142;" horiz-adv-x="431" 
d="M376 24q-22 -11 -52.5 -19t-57.5 -8q-32 0 -59 10.5t-45 29.5q-17 17 -25.5 42t-8.5 61v69l-45 -29l-69 102l114 74v353h168v-257l68 45l69 -101l-137 -91v-175l80 -22v-84z" />
    <glyph glyph-name="longs" unicode="&#x17f;" horiz-adv-x="367" 
d="M263 0h-168v359h-91v102l88 23q-8 17 -13.5 36t-5.5 41q0 34 12.5 62t35.5 49q26 25 65 38.5t89 13.5q48 0 98.5 -17.5t90.5 -47.5l-38 -92l-45 9q-23 5 -40 7.5t-32 2.5q-27 0 -46.5 -11.5t-19.5 -41.5q0 -29 10 -58t10 -62v-413z" />
    <glyph glyph-name="ldot" unicode="&#x140;" horiz-adv-x="462" 
d="M301 24q-22 -11 -52.5 -19t-57.5 -8q-32 0 -59 10.5t-45 29.5q-17 17 -25.5 42t-8.5 61v569h168v-579l80 -22v-84zM410 460q22 0 29 -7t7 -26v-116h-153v149h117z" />
    <glyph glyph-name="nacute" unicode="&#x144;" horiz-adv-x="573" 
d="M182 488l18 -45l25 15q30 18 58.5 28t61.5 10q37 0 69.5 -13t57.5 -36q27 -26 41.5 -62t14.5 -87v-298h-168v292q0 26 -12 37q-14 13 -55 13q-37 0 -65 -9q-6 -2 -7 -5.5t-1 -8.5v-319h-168v488h130zM223 547l-47 68l175 145q14 11 21 11q11 0 23 -18l63 -92z" />
    <glyph glyph-name="ncaron" unicode="&#x148;" horiz-adv-x="573" 
d="M182 488l18 -45l25 15q30 18 58.5 28t61.5 10q37 0 69.5 -13t57.5 -36q27 -26 41.5 -62t14.5 -87v-298h-168v292q0 26 -12 37q-14 13 -55 13q-37 0 -65 -9q-6 -2 -7 -5.5t-1 -8.5v-319h-168v488h130zM317 676l127 90l62 -61l-128 -133q-8 -8 -14 -10.5t-18 -2.5h-59
q-12 0 -18 2.5t-14 10.5l-128 133l62 61l127 -90h1z" />
    <glyph glyph-name="ntilde" unicode="&#xf1;" horiz-adv-x="573" 
d="M182 488l18 -45l25 15q30 18 58.5 28t61.5 10q37 0 69.5 -13t57.5 -36q27 -26 41.5 -62t14.5 -87v-298h-168v292q0 26 -12 37q-14 13 -55 13q-37 0 -65 -9q-6 -2 -7 -5.5t-1 -8.5v-319h-168v488h130zM368 566q-24 0 -42.5 7.5t-33.5 16t-27.5 16t-23.5 7.5q-15 0 -26 -14
t-22 -39l-90 24q2 27 11.5 53t25.5 46.5t39 32.5t53 12q24 0 42.5 -7.5t33.5 -16t27.5 -16t23.5 -7.5q15 0 26 14t22 39l90 -24q-2 -27 -11.5 -53t-25.5 -46.5t-39 -32.5t-53 -12z" />
    <glyph glyph-name="ncommaaccent" unicode="&#x146;" horiz-adv-x="573" 
d="M182 488l18 -45l25 15q30 18 58.5 28t61.5 10q37 0 69.5 -13t57.5 -36q27 -26 41.5 -62t14.5 -87v-298h-168v292q0 26 -12 37q-14 13 -55 13q-37 0 -65 -9q-6 -2 -7 -5.5t-1 -8.5v-319h-168v488h130zM216 -309l17 251h92q11 0 16 -2.5t10 -7.5q24 -27 24 -56
q0 -14 -7 -35t-28 -61l-54 -103z" />
    <glyph glyph-name="napostrophe" unicode="&#x149;" horiz-adv-x="782" 
d="M391 488l18 -45l25 15q30 18 58.5 28t61.5 10q37 0 69.5 -13t57.5 -36q27 -26 41.5 -62t14.5 -87v-298h-168v292q0 26 -12 37q-14 13 -55 13q-37 0 -65 -9q-6 -2 -7 -5.5t-1 -8.5v-319h-168v488h130zM43 663h132q25 0 34.5 -9.5t9.5 -30.5v-71q0 -35 -3.5 -61.5t-18 -52
t-42 -54.5t-75.5 -70l-60 45l71 116q10 15 -6 24l-15 9q-17 11 -22 19t-5 27v109z" />
    <glyph glyph-name="eng" unicode="&#x14b;" horiz-adv-x="573" 
d="M360 292q0 26 -12 37q-14 13 -55 13q-37 0 -65 -9q-6 -2 -7 -5.5t-1 -8.5v-319h-168v488h130l18 -45l25 15q30 18 58.5 28t61.5 10q37 0 69.5 -13t57.5 -36q27 -26 41.5 -62t14.5 -87v-304q0 -51 -7 -86.5t-25 -61.5q-20 -29 -55 -44t-82 -15q-29 0 -55.5 6.5t-48.5 16.5
v83l58 14q31 7 39 16t8 32v337z" />
    <glyph glyph-name="ograve" unicode="&#xf2;" horiz-adv-x="564" 
d="M540 244q0 -58 -19.5 -104.5t-54 -79.5t-82 -50.5t-102.5 -17.5t-102.5 17.5t-82 50.5t-54 79.5t-19.5 104.5t19.5 104.5t54 79.5t82 50.5t102.5 17.5t102.5 -17.5t82 -50.5t54 -79.5t19.5 -104.5zM369 244q0 56 -23.5 78t-63.5 22t-63.5 -22t-23.5 -78t23.5 -78
t63.5 -22t63.5 22t23.5 78zM141 661l63 92q12 18 23 18q7 0 21 -11l175 -145l-47 -68z" />
    <glyph glyph-name="oacute" unicode="&#xf3;" horiz-adv-x="564" 
d="M540 244q0 -58 -19.5 -104.5t-54 -79.5t-82 -50.5t-102.5 -17.5t-102.5 17.5t-82 50.5t-54 79.5t-19.5 104.5t19.5 104.5t54 79.5t82 50.5t102.5 17.5t102.5 -17.5t82 -50.5t54 -79.5t19.5 -104.5zM369 244q0 56 -23.5 78t-63.5 22t-63.5 -22t-23.5 -78t23.5 -78
t63.5 -22t63.5 22t23.5 78zM188 547l-47 68l175 145q14 11 21 11q11 0 23 -18l63 -92z" />
    <glyph glyph-name="ocircumflex" unicode="&#xf4;" horiz-adv-x="564" 
d="M540 244q0 -58 -19.5 -104.5t-54 -79.5t-82 -50.5t-102.5 -17.5t-102.5 17.5t-82 50.5t-54 79.5t-19.5 104.5t19.5 104.5t54 79.5t82 50.5t102.5 17.5t102.5 -17.5t82 -50.5t54 -79.5t19.5 -104.5zM369 244q0 56 -23.5 78t-63.5 22t-63.5 -22t-23.5 -78t23.5 -78
t63.5 -22t63.5 22t23.5 78zM311 753q12 0 18 -2.5t14 -10.5l128 -133l-62 -61l-127 90h-1l-127 -90l-62 61l128 133q8 8 14 10.5t18 2.5h59z" />
    <glyph glyph-name="otilde" unicode="&#xf5;" horiz-adv-x="564" 
d="M540 244q0 -58 -19.5 -104.5t-54 -79.5t-82 -50.5t-102.5 -17.5t-102.5 17.5t-82 50.5t-54 79.5t-19.5 104.5t19.5 104.5t54 79.5t82 50.5t102.5 17.5t102.5 -17.5t82 -50.5t54 -79.5t19.5 -104.5zM369 244q0 56 -23.5 78t-63.5 22t-63.5 -22t-23.5 -78t23.5 -78
t63.5 -22t63.5 22t23.5 78zM350 566q-24 0 -42.5 7.5t-33.5 16t-27.5 16t-23.5 7.5q-15 0 -26 -14t-22 -39l-90 24q2 27 11.5 53t25.5 46.5t39 32.5t53 12q24 0 42.5 -7.5t33.5 -16t27.5 -16t23.5 -7.5q15 0 26 14t22 39l90 -24q-2 -27 -11.5 -53t-25.5 -46.5t-39 -32.5
t-53 -12z" />
    <glyph glyph-name="odieresis" unicode="&#xf6;" horiz-adv-x="564" 
d="M540 244q0 -58 -19.5 -104.5t-54 -79.5t-82 -50.5t-102.5 -17.5t-102.5 17.5t-82 50.5t-54 79.5t-19.5 104.5t19.5 104.5t54 79.5t82 50.5t102.5 17.5t102.5 -17.5t82 -50.5t54 -79.5t19.5 -104.5zM369 244q0 56 -23.5 78t-63.5 22t-63.5 -22t-23.5 -78t23.5 -78
t63.5 -22t63.5 22t23.5 78zM209 714q21 0 28 -7t7 -25v-112h-148v144h113zM433 714q21 0 28 -7t7 -25v-112h-148v144h113z" />
    <glyph glyph-name="omacron" unicode="&#x14d;" horiz-adv-x="564" 
d="M540 244q0 -58 -19.5 -104.5t-54 -79.5t-82 -50.5t-102.5 -17.5t-102.5 17.5t-82 50.5t-54 79.5t-19.5 104.5t19.5 104.5t54 79.5t82 50.5t102.5 17.5t102.5 -17.5t82 -50.5t54 -79.5t19.5 -104.5zM369 244q0 56 -23.5 78t-63.5 22t-63.5 -22t-23.5 -78t23.5 -78
t63.5 -22t63.5 22t23.5 78zM116 582v121h332v-121h-332z" />
    <glyph glyph-name="obreve" unicode="&#x14f;" horiz-adv-x="564" 
d="M540 244q0 -58 -19.5 -104.5t-54 -79.5t-82 -50.5t-102.5 -17.5t-102.5 17.5t-82 50.5t-54 79.5t-19.5 104.5t19.5 104.5t54 79.5t82 50.5t102.5 17.5t102.5 -17.5t82 -50.5t54 -79.5t19.5 -104.5zM369 244q0 56 -23.5 78t-63.5 22t-63.5 -22t-23.5 -78t23.5 -78
t63.5 -22t63.5 22t23.5 78zM282 559q-41 0 -72.5 12.5t-54 34.5t-36 51.5t-16.5 62.5l106 18q11 -32 28 -48.5t45 -16.5t45 16.5t28 48.5l106 -18q-3 -33 -16.5 -62.5t-36 -51.5t-54.5 -34.5t-72 -12.5z" />
    <glyph glyph-name="ohungarumlaut" unicode="&#x151;" horiz-adv-x="564" 
d="M540 244q0 -58 -19.5 -104.5t-54 -79.5t-82 -50.5t-102.5 -17.5t-102.5 17.5t-82 50.5t-54 79.5t-19.5 104.5t19.5 104.5t54 79.5t82 50.5t102.5 17.5t102.5 -17.5t82 -50.5t54 -79.5t19.5 -104.5zM369 244q0 56 -23.5 78t-63.5 22t-63.5 -22t-23.5 -78t23.5 -78
t63.5 -22t63.5 22t23.5 78zM538 749l-172 -188l-81 56l122 193q8 13 17.5 16t23.5 -8zM308 749l-172 -188l-81 56l122 193q8 13 17.5 16t23.5 -8z" />
    <glyph glyph-name="oslash" unicode="&#xf8;" horiz-adv-x="564" 
d="M540 244q0 -58 -19.5 -104.5t-54 -79.5t-82 -50.5t-102.5 -17.5q-58 0 -109 20l-60 -91l-61 37l60 90q-42 33 -65 82.5t-23 113.5q0 58 19.5 104.5t54 79.5t82 50.5t102.5 17.5q61 0 113 -23l55 83l61 -37l-55 -83q39 -33 61.5 -81.5t22.5 -110.5zM195 244q0 -36 10 -57
l102 154q-6 1 -12 1.5t-13 0.5q-40 0 -63.5 -21.5t-23.5 -77.5zM369 244q0 29 -8 50l-99 -148q5 -1 10 -1h10q40 0 63.5 21.5t23.5 77.5z" />
    <glyph glyph-name="oslashacute" unicode="&#x1ff;" horiz-adv-x="564" 
d="M540 244q0 -58 -19.5 -104.5t-54 -79.5t-82 -50.5t-102.5 -17.5q-58 0 -109 20l-60 -91l-61 37l60 90q-42 33 -65 82.5t-23 113.5q0 58 19.5 104.5t54 79.5t82 50.5t102.5 17.5q61 0 113 -23l55 83l61 -37l-55 -83q39 -33 61.5 -81.5t22.5 -110.5zM195 244q0 -36 10 -57
l102 154q-6 1 -12 1.5t-13 0.5q-40 0 -63.5 -21.5t-23.5 -77.5zM369 244q0 29 -8 50l-99 -148q5 -1 10 -1h10q40 0 63.5 21.5t23.5 77.5zM200 547l-47 68l175 145q14 11 21 11q11 0 23 -18l63 -92z" />
    <glyph glyph-name="oe" unicode="&#x153;" horiz-adv-x="897" 
d="M540 198q5 -31 31.5 -49.5t73.5 -18.5q22 0 48.5 4.5t47.5 9.5l70 18l48 -90q-42 -35 -103 -57.5t-124 -22.5q-51 0 -97 14.5t-80 43.5q-34 -28 -78 -43t-95 -15q-55 0 -102.5 17.5t-82 50.5t-54 79.5t-19.5 104.5t19.5 104.5t54 79.5t82 50.5t102.5 17.5q103 0 174 -60
q34 29 76 44.5t89 15.5q54 0 99.5 -18.5t78.5 -51t52 -75.5t19 -91q0 -31 -3 -44q-4 -18 -21 -18h-306zM369 244q0 56 -23.5 77.5t-63.5 21.5t-63.5 -21.5t-23.5 -77.5t23.5 -77.5t63.5 -21.5t63.5 21.5t23.5 77.5zM708 300q-4 34 -27.5 50.5t-55.5 16.5t-56 -16t-28 -51
h167z" />
    <glyph glyph-name="thorn" unicode="&#xfe;" horiz-adv-x="584" 
d="M52 709h168v-254l14 7q32 17 60.5 25.5t56.5 8.5q43 0 80.5 -17.5t65.5 -50.5t44.5 -79.5t16.5 -104.5q0 -57 -16 -103.5t-44 -79.5t-66 -51t-82 -18q-31 0 -58 8t-53 22l-19 10v-261h-168v938zM387 244q0 54 -21 76.5t-67 22.5q-18 0 -36.5 -3t-32.5 -8q-5 -2 -7.5 -4.5
t-2.5 -10.5v-146q0 -8 2.5 -10.5t7.5 -4.5q14 -5 32.5 -8.5t36.5 -3.5q46 0 67 23t21 77z" />
    <glyph glyph-name="racute" unicode="&#x155;" horiz-adv-x="407" 
d="M200 420l30 24q35 29 58.5 40.5t47.5 11.5q17 0 34 -6t33 -15v-116l-57 -13q-36 -8 -67 -16t-46 -13q-8 -3 -10.5 -6t-2.5 -11v-300h-168v488h130zM150 547l-47 68l175 145q14 11 21 11q11 0 23 -18l63 -92z" />
    <glyph glyph-name="rcaron" unicode="&#x159;" horiz-adv-x="407" 
d="M200 420l30 24q35 29 58.5 40.5t47.5 11.5q17 0 34 -6t33 -15v-116l-57 -13q-36 -8 -67 -16t-46 -13q-8 -3 -10.5 -6t-2.5 -11v-300h-168v488h130zM239 676l127 90l62 -61l-128 -133q-8 -8 -14 -10.5t-18 -2.5h-59q-12 0 -18 2.5t-14 10.5l-128 133l62 61l127 -90h1z" />
    <glyph glyph-name="rcommaaccent" unicode="&#x157;" horiz-adv-x="407" 
d="M200 420l30 24q35 29 58.5 40.5t47.5 11.5q17 0 34 -6t33 -15v-116l-57 -13q-36 -8 -67 -16t-46 -13q-8 -3 -10.5 -6t-2.5 -11v-300h-168v488h130zM53 -309l17 251h92q11 0 16 -2.5t10 -7.5q24 -27 24 -56q0 -14 -7 -35t-28 -61l-54 -103z" />
    <glyph glyph-name="sacute" unicode="&#x15b;" horiz-adv-x="503" 
d="M426 353l-56 6q-34 4 -64.5 6t-52.5 2q-42 0 -56.5 -4.5t-14.5 -15.5q0 -8 9 -12.5t34 -9.5l63 -12q45 -9 80 -20t59.5 -28t37 -42.5t12.5 -63.5q0 -36 -13.5 -66.5t-40.5 -53t-68.5 -35t-97.5 -12.5q-60 0 -124 17.5t-109 44.5l36 100l63 -14q42 -9 77.5 -14t63.5 -5
q64 0 64 26q0 10 -8.5 14t-25.5 8l-71 14q-45 9 -79.5 21.5t-58.5 30.5q-51 39 -51 109q0 75 59.5 113.5t160.5 38.5q51 0 102.5 -9.5t94.5 -28.5zM170 547l-47 68l175 145q14 11 21 11q11 0 23 -18l63 -92z" />
    <glyph glyph-name="scircumflex" unicode="&#x15d;" horiz-adv-x="503" 
d="M426 353l-56 6q-34 4 -64.5 6t-52.5 2q-42 0 -56.5 -4.5t-14.5 -15.5q0 -8 9 -12.5t34 -9.5l63 -12q45 -9 80 -20t59.5 -28t37 -42.5t12.5 -63.5q0 -36 -13.5 -66.5t-40.5 -53t-68.5 -35t-97.5 -12.5q-60 0 -124 17.5t-109 44.5l36 100l63 -14q42 -9 77.5 -14t63.5 -5
q64 0 64 26q0 10 -8.5 14t-25.5 8l-71 14q-45 9 -79.5 21.5t-58.5 30.5q-51 39 -51 109q0 75 59.5 113.5t160.5 38.5q51 0 102.5 -9.5t94.5 -28.5zM283 753q12 0 18 -2.5t14 -10.5l128 -133l-62 -61l-127 90h-1l-127 -90l-62 61l128 133q8 8 14 10.5t18 2.5h59z" />
    <glyph glyph-name="scaron" unicode="&#x161;" horiz-adv-x="503" 
d="M426 353l-56 6q-34 4 -64.5 6t-52.5 2q-42 0 -56.5 -4.5t-14.5 -15.5q0 -8 9 -12.5t34 -9.5l63 -12q45 -9 80 -20t59.5 -28t37 -42.5t12.5 -63.5q0 -36 -13.5 -66.5t-40.5 -53t-68.5 -35t-97.5 -12.5q-60 0 -124 17.5t-109 44.5l36 100l63 -14q42 -9 77.5 -14t63.5 -5
q64 0 64 26q0 10 -8.5 14t-25.5 8l-71 14q-45 9 -79.5 21.5t-58.5 30.5q-51 39 -51 109q0 75 59.5 113.5t160.5 38.5q51 0 102.5 -9.5t94.5 -28.5zM254 676l127 90l62 -61l-128 -133q-8 -8 -14 -10.5t-18 -2.5h-59q-12 0 -18 2.5t-14 10.5l-128 133l62 61l127 -90h1z" />
    <glyph glyph-name="scedilla" unicode="&#x15f;" horiz-adv-x="503" 
d="M426 353l-56 6q-34 4 -64.5 6t-52.5 2q-42 0 -56.5 -4.5t-14.5 -15.5q0 -8 9 -12.5t34 -9.5l63 -12q45 -9 80 -20t59 -28t37 -42.5t13 -63.5q0 -65 -45 -111t-136 -54q-10 -17 -10 -25q0 -10 16 -15t35.5 -13t36 -22.5t16.5 -43.5q0 -57 -50 -90t-151 -33l-17 87l53 8
q32 4 32 18q0 7 -14 12t-31 12t-31 18t-14 30q0 15 8.5 30t23.5 29q-48 6 -94.5 21.5t-80.5 36.5l36 100l63 -14q42 -9 77.5 -14t63.5 -5q64 0 64 26q0 10 -8.5 14t-25.5 8l-71 14q-45 9 -79.5 21.5t-58.5 30.5q-51 39 -51 109q0 75 59.5 113.5t160.5 38.5q51 0 102.5 -9.5
t94.5 -28.5z" />
    <glyph glyph-name="scommaaccent" unicode="&#x219;" horiz-adv-x="503" 
d="M426 353l-56 6q-34 4 -64.5 6t-52.5 2q-42 0 -56.5 -4.5t-14.5 -15.5q0 -8 9 -12.5t34 -9.5l63 -12q45 -9 80 -20t59.5 -28t37 -42.5t12.5 -63.5q0 -36 -13.5 -66.5t-40.5 -53t-68.5 -35t-97.5 -12.5q-60 0 -124 17.5t-109 44.5l36 100l63 -14q42 -9 77.5 -14t63.5 -5
q64 0 64 26q0 10 -8.5 14t-25.5 8l-71 14q-45 9 -79.5 21.5t-58.5 30.5q-51 39 -51 109q0 75 59.5 113.5t160.5 38.5q51 0 102.5 -9.5t94.5 -28.5zM178 -309l17 251h92q11 0 16 -2.5t10 -7.5q24 -27 24 -56q0 -14 -7 -35t-28 -61l-54 -103z" />
    <glyph glyph-name="germandbls" unicode="&#xdf;" horiz-adv-x="742" 
d="M92 484q5 52 26 96t57.5 75.5t88 49t116.5 17.5q57 0 101.5 -13.5t75.5 -36t47 -53t16 -63.5q0 -38 -18.5 -70.5t-63.5 -61.5l-38 -25q-17 -11 -24 -17t-7 -14t9.5 -14t45.5 -19l60 -23q65 -25 98.5 -58t33.5 -91q0 -38 -14 -69.5t-40 -54t-63 -35t-83 -12.5
q-64 0 -114.5 17t-86.5 43l39 98l40 -9q24 -5 41.5 -9t31.5 -6t25.5 -3t22.5 -1q26 0 38.5 7.5t12.5 17.5t-11 16.5t-45 20.5l-73 29q-60 23 -91 51.5t-31 73.5q0 31 17 57t49 55l26 23q32 28 43 41t11 25q0 24 -24.5 35t-57.5 11q-60 0 -90 -33q-14 -15 -20 -36.5t-6 -53.5
v-462h-168v359h-91v102z" />
    <glyph glyph-name="tcaron" unicode="&#x165;" horiz-adv-x="470" 
d="M451 55q-15 -13 -35 -24.5t-43.5 -20t-49.5 -13.5t-51 -5q-83 0 -133 48q-23 23 -35.5 56t-12.5 81v182h-91v102l91 25v143h168v-141h153v-129h-153v-169q0 -30 12 -42q14 -14 47 -14q8 0 19 1.5t25 3.5l56 10zM324 576l17 251h92q11 0 16 -2.5t10 -7.5q24 -27 24 -56
q0 -14 -7 -35t-28 -61l-54 -103z" />
    <glyph glyph-name="tcommaaccent" unicode="&#x163;" horiz-adv-x="470" 
d="M451 55q-15 -13 -35 -24.5t-43.5 -20t-49.5 -13.5t-51 -5q-83 0 -133 48q-23 23 -35.5 56t-12.5 81v182h-91v102l91 25v143h168v-141h153v-129h-153v-169q0 -30 12 -42q14 -14 47 -14q8 0 19 1.5t25 3.5l56 10zM184 -309l17 251h92q11 0 16 -2.5t10 -7.5q24 -27 24 -56
q0 -14 -7 -35t-28 -61l-54 -103z" />
    <glyph glyph-name="uni021B" unicode="&#x21b;" horiz-adv-x="470" 
d="M451 55q-15 -13 -35 -24.5t-43.5 -20t-49.5 -13.5t-51 -5q-83 0 -133 48q-23 23 -35.5 56t-12.5 81v182h-91v102l91 25v143h168v-141h153v-129h-153v-169q0 -30 12 -42q14 -14 47 -14q8 0 19 1.5t25 3.5l56 10zM184 -309l17 251h92q11 0 16 -2.5t10 -7.5q24 -27 24 -56
q0 -14 -7 -35t-28 -61l-54 -103z" />
    <glyph glyph-name="tbar" unicode="&#x167;" horiz-adv-x="470" 
d="M259 191q0 -31 12 -43q14 -14 47 -14q8 0 19 1.5t25 3.5l56 10l33 -94q-15 -13 -35 -24.5t-43.5 -20t-49.5 -13.5t-51 -5q-83 0 -133 48q-23 23 -35.5 56t-12.5 81v26h-64v87l64 10v59h-91v102l91 25v143h168v-141h153v-129h-153v-58h118v-98h-118v-12z" />
    <glyph glyph-name="ugrave" unicode="&#xf9;" horiz-adv-x="573" 
d="M391 0l-18 45l-25 -15q-30 -18 -58.5 -28t-61.5 -10q-37 0 -69.5 13t-57.5 36q-27 26 -41.5 62t-14.5 87v298h168v-292q0 -26 12 -37q14 -13 55 -13q36 0 65 9q6 2 7 5.5t1 8.5v319h168v-488h-130zM135 661l63 92q12 18 23 18q7 0 21 -11l175 -145l-47 -68z" />
    <glyph glyph-name="uacute" unicode="&#xfa;" horiz-adv-x="573" 
d="M391 0l-18 45l-25 -15q-30 -18 -58.5 -28t-61.5 -10q-37 0 -69.5 13t-57.5 36q-27 26 -41.5 62t-14.5 87v298h168v-292q0 -26 12 -37q14 -13 55 -13q36 0 65 9q6 2 7 5.5t1 8.5v319h168v-488h-130zM202 547l-47 68l175 145q14 11 21 11q11 0 23 -18l63 -92z" />
    <glyph glyph-name="ucircumflex" unicode="&#xfb;" horiz-adv-x="573" 
d="M391 0l-18 45l-25 -15q-30 -18 -58.5 -28t-61.5 -10q-37 0 -69.5 13t-57.5 36q-27 26 -41.5 62t-14.5 87v298h168v-292q0 -26 12 -37q14 -13 55 -13q36 0 65 9q6 2 7 5.5t1 8.5v319h168v-488h-130zM316 753q12 0 18 -2.5t14 -10.5l128 -133l-62 -61l-127 90h-1l-127 -90
l-62 61l128 133q8 8 14 10.5t18 2.5h59z" />
    <glyph glyph-name="utilde" unicode="&#x169;" horiz-adv-x="573" 
d="M391 0l-18 45l-25 -15q-30 -18 -58.5 -28t-61.5 -10q-37 0 -69.5 13t-57.5 36q-27 26 -41.5 62t-14.5 87v298h168v-292q0 -26 12 -37q14 -13 55 -13q36 0 65 9q6 2 7 5.5t1 8.5v319h168v-488h-130zM354 566q-24 0 -42.5 7.5t-33.5 16t-27.5 16t-23.5 7.5q-15 0 -26 -14
t-22 -39l-90 24q2 27 11.5 53t25.5 46.5t39 32.5t53 12q24 0 42.5 -7.5t33.5 -16t27.5 -16t23.5 -7.5q15 0 26 14t22 39l90 -24q-2 -27 -11.5 -53t-25.5 -46.5t-39 -32.5t-53 -12z" />
    <glyph glyph-name="udieresis" unicode="&#xfc;" horiz-adv-x="573" 
d="M391 0l-18 45l-25 -15q-30 -18 -58.5 -28t-61.5 -10q-37 0 -69.5 13t-57.5 36q-27 26 -41.5 62t-14.5 87v298h168v-292q0 -26 12 -37q14 -13 55 -13q36 0 65 9q6 2 7 5.5t1 8.5v319h168v-488h-130zM213 714q21 0 28 -7t7 -25v-112h-148v144h113zM437 714q21 0 28 -7
t7 -25v-112h-148v144h113z" />
    <glyph glyph-name="umacron" unicode="&#x16b;" horiz-adv-x="573" 
d="M391 0l-18 45l-25 -15q-30 -18 -58.5 -28t-61.5 -10q-37 0 -69.5 13t-57.5 36q-27 26 -41.5 62t-14.5 87v298h168v-292q0 -26 12 -37q14 -13 55 -13q36 0 65 9q6 2 7 5.5t1 8.5v319h168v-488h-130zM120 582v121h332v-121h-332z" />
    <glyph glyph-name="ubreve" unicode="&#x16d;" horiz-adv-x="573" 
d="M391 0l-18 45l-25 -15q-30 -18 -58.5 -28t-61.5 -10q-37 0 -69.5 13t-57.5 36q-27 26 -41.5 62t-14.5 87v298h168v-292q0 -26 12 -37q14 -13 55 -13q36 0 65 9q6 2 7 5.5t1 8.5v319h168v-488h-130zM286 559q-41 0 -72.5 12.5t-54 34.5t-36 51.5t-16.5 62.5l106 18
q11 -32 28 -48.5t45 -16.5t45 16.5t28 48.5l106 -18q-3 -33 -16.5 -62.5t-36 -51.5t-54.5 -34.5t-72 -12.5z" />
    <glyph glyph-name="uring" unicode="&#x16f;" horiz-adv-x="573" 
d="M391 0l-18 45l-25 -15q-30 -18 -58.5 -28t-61.5 -10q-37 0 -69.5 13t-57.5 36q-27 26 -41.5 62t-14.5 87v298h168v-292q0 -26 12 -37q14 -13 55 -13q36 0 65 9q6 2 7 5.5t1 8.5v319h168v-488h-130zM428 692q0 -62 -39.5 -98.5t-102.5 -36.5t-102.5 36.5t-39.5 98.5
t39.5 98.5t102.5 36.5t102.5 -36.5t39.5 -98.5zM335 692q0 22 -11 34.5t-38 12.5t-38 -12.5t-11 -34.5t11 -34.5t38 -12.5t38 12.5t11 34.5z" />
    <glyph glyph-name="uhungarumlaut" unicode="&#x171;" horiz-adv-x="572" 
d="M391 0l-18 45l-25 -15q-30 -18 -58.5 -28t-61.5 -10q-37 0 -69.5 13t-57.5 36q-27 26 -41.5 62t-14.5 87v298h168v-292q0 -26 12 -37q14 -13 55 -13q36 0 65 9q6 2 7 5.5t1 8.5v319h168v-488h-130zM554 749l-172 -188l-81 56l122 193q8 13 17.5 16t23.5 -8zM324 749
l-172 -188l-81 56l122 193q8 13 17.5 16t23.5 -8z" />
    <glyph glyph-name="uogonek" unicode="&#x173;" horiz-adv-x="572" 
d="M503 0q-26 0 -44.5 -9.5t-29.5 -23t-16 -28.5t-5 -26q0 -46 54 -46q11 0 27.5 2t33.5 4l23 -82q-23 -14 -55 -22t-60 -8q-67 0 -104.5 35t-37.5 88q0 48 28.5 81.5t66.5 50.5l-11 29l-25 -15q-30 -18 -58.5 -28t-61.5 -10q-37 0 -69.5 13t-57.5 36q-27 26 -41.5 62
t-14.5 87v298h168v-292q0 -26 12 -37q14 -13 55 -13q36 0 65 9q6 2 7 5.5t1 8.5v319h168v-488h-18z" />
    <glyph glyph-name="wgrave" unicode="&#x1e81;" horiz-adv-x="856" 
d="M547 359q11 -34 19.5 -62t16 -52t13 -46t10.5 -43h1q8 42 19.5 89t30.5 113l32 114q3 9 7.5 12.5t16.5 3.5h155l-168 -488h-171q-12 0 -17.5 3.5t-8.5 12.5l-36 117q-28 92 -39 143h-1q-5 -24 -14.5 -61t-23.5 -82l-41 -133h-172q-12 0 -17 4t-8 12l-163 472h162
q12 0 17 -3.5t8 -12.5l31 -113q18 -66 30 -112.5t22 -89.5h1q8 42 21 91t32 111l40 129h135q11 0 16 -3t8 -13zM287 661l63 92q12 18 23 18q7 0 21 -11l175 -145l-47 -68z" />
    <glyph glyph-name="wacute" unicode="&#x1e83;" horiz-adv-x="856" 
d="M547 359q11 -34 19.5 -62t16 -52t13 -46t10.5 -43h1q8 42 19.5 89t30.5 113l32 114q3 9 7.5 12.5t16.5 3.5h155l-168 -488h-171q-12 0 -17.5 3.5t-8.5 12.5l-36 117q-28 92 -39 143h-1q-5 -24 -14.5 -61t-23.5 -82l-41 -133h-172q-12 0 -17 4t-8 12l-163 472h162
q12 0 17 -3.5t8 -12.5l31 -113q18 -66 30 -112.5t22 -89.5h1q8 42 21 91t32 111l40 129h135q11 0 16 -3t8 -13zM334 547l-47 68l175 145q14 11 21 11q11 0 23 -18l63 -92z" />
    <glyph glyph-name="wcircumflex" unicode="&#x175;" horiz-adv-x="856" 
d="M547 359q11 -34 19.5 -62t16 -52t13 -46t10.5 -43h1q8 42 19.5 89t30.5 113l32 114q3 9 7.5 12.5t16.5 3.5h155l-168 -488h-171q-12 0 -17.5 3.5t-8.5 12.5l-36 117q-28 92 -39 143h-1q-5 -24 -14.5 -61t-23.5 -82l-41 -133h-172q-12 0 -17 4t-8 12l-163 472h162
q12 0 17 -3.5t8 -12.5l31 -113q18 -66 30 -112.5t22 -89.5h1q8 42 21 91t32 111l40 129h135q11 0 16 -3t8 -13zM457 753q12 0 18 -2.5t14 -10.5l128 -133l-62 -61l-127 90h-1l-127 -90l-62 61l128 133q8 8 14 10.5t18 2.5h59z" />
    <glyph glyph-name="wdieresis" unicode="&#x1e85;" horiz-adv-x="856" 
d="M547 359q11 -34 19.5 -62t16 -52t13 -46t10.5 -43h1q8 42 19.5 89t30.5 113l32 114q3 9 7.5 12.5t16.5 3.5h155l-168 -488h-171q-12 0 -17.5 3.5t-8.5 12.5l-36 117q-28 92 -39 143h-1q-5 -24 -14.5 -61t-23.5 -82l-41 -133h-172q-12 0 -17 4t-8 12l-163 472h162
q12 0 17 -3.5t8 -12.5l31 -113q18 -66 30 -112.5t22 -89.5h1q8 42 21 91t32 111l40 129h135q11 0 16 -3t8 -13zM355 714q21 0 28 -7t7 -25v-112h-148v144h113zM579 714q21 0 28 -7t7 -25v-112h-148v144h113z" />
    <glyph glyph-name="ygrave" unicode="&#x1ef3;" horiz-adv-x="558" 
d="M155 488q13 0 16.5 -2.5t8.5 -13.5l54 -150q16 -43 29 -82.5t24 -74.5h1q8 31 20.5 71.5t26.5 85.5l48 150q4 11 8 13.5t17 2.5h161l-299 -738l-160 39l90 200l-211 499h166zM108 661l63 92q12 18 23 18q7 0 21 -11l175 -145l-47 -68z" />
    <glyph glyph-name="yacute" unicode="&#xfd;" horiz-adv-x="558" 
d="M155 488q13 0 16.5 -2.5t8.5 -13.5l54 -150q16 -43 29 -82.5t24 -74.5h1q8 31 20.5 71.5t26.5 85.5l48 150q4 11 8 13.5t17 2.5h161l-299 -738l-160 39l90 200l-211 499h166zM205 547l-47 68l175 145q14 11 21 11q11 0 23 -18l63 -92z" />
    <glyph glyph-name="ycircumflex" unicode="&#x177;" horiz-adv-x="558" 
d="M155 488q13 0 16.5 -2.5t8.5 -13.5l54 -150q16 -43 29 -82.5t24 -74.5h1q8 31 20.5 71.5t26.5 85.5l48 150q4 11 8 13.5t17 2.5h161l-299 -738l-160 39l90 200l-211 499h166zM315 753q12 0 18 -2.5t14 -10.5l128 -133l-62 -61l-127 90h-1l-127 -90l-62 61l128 133
q8 8 14 10.5t18 2.5h59z" />
    <glyph glyph-name="ydieresis" unicode="&#xff;" horiz-adv-x="558" 
d="M155 488q13 0 16.5 -2.5t8.5 -13.5l54 -150q16 -43 29 -82.5t24 -74.5h1q8 31 20.5 71.5t26.5 85.5l48 150q4 11 8 13.5t17 2.5h161l-299 -738l-160 39l90 200l-211 499h166zM212 714q21 0 28 -7t7 -25v-112h-148v144h113zM436 714q21 0 28 -7t7 -25v-112h-148v144h113z
" />
    <glyph glyph-name="zacute" unicode="&#x17a;" horiz-adv-x="513" 
d="M476 414q0 -11 -2 -19t-13 -22l-75 -90q-49 -59 -81.5 -94t-58.5 -59h235v-130h-451v73q0 12 2 19.5t13 21.5l73 88q42 51 78.5 90t65.5 67h-226v129h440v-74zM170 547l-47 68l175 145q14 11 21 11q11 0 23 -18l63 -92z" />
    <glyph glyph-name="zcaron" unicode="&#x17e;" horiz-adv-x="513" 
d="M476 414q0 -11 -2 -19t-13 -22l-75 -90q-49 -59 -81.5 -94t-58.5 -59h235v-130h-451v73q0 12 2 19.5t13 21.5l73 88q42 51 78.5 90t65.5 67h-226v129h440v-74zM260 676l127 90l62 -61l-128 -133q-8 -8 -14 -10.5t-18 -2.5h-59q-12 0 -18 2.5t-14 10.5l-128 133l62 61
l127 -90h1z" />
    <glyph glyph-name="zdotaccent" unicode="&#x17c;" horiz-adv-x="513" 
d="M476 414q0 -11 -2 -19t-13 -22l-75 -90q-49 -59 -81.5 -94t-58.5 -59h235v-130h-451v73q0 12 2 19.5t13 21.5l73 88q42 51 78.5 90t65.5 67h-226v129h440v-74zM297 713q22 0 29 -7t7 -26v-116h-153v149h117z" />
    <glyph glyph-name="apple" unicode="&#xf8ff;" horiz-adv-x="536" 
d="M208 357q0 13 9.5 22t21.5 9q13 0 21.5 -9t8.5 -22t-8.5 -21.5t-21.5 -8.5q-12 0 -21.5 8.5t-9.5 21.5zM405 357q0 13 9.5 22t21.5 9q13 0 21.5 -9t8.5 -22t-8.5 -21.5t-21.5 -8.5q-12 0 -21.5 8.5t-9.5 21.5zM78 161q0 13 8.5 21.5t21.5 8.5q12 0 21.5 -8.5t9.5 -21.5
t-9.5 -22t-21.5 -9q-13 0 -21.5 9t-8.5 22zM78 357q0 13 8.5 22t21.5 9q12 0 21.5 -9t9.5 -22t-9.5 -21.5t-21.5 -8.5q-13 0 -21.5 8.5t-8.5 21.5zM275 357q0 13 8.5 22t21.5 9q12 0 21.5 -9t9.5 -22t-9.5 -21.5t-21.5 -8.5q-13 0 -21.5 8.5t-8.5 21.5zM340 620q0 12 8.5 21
t22.5 9q11 0 20.5 -9t9.5 -21q0 -14 -9.5 -22.5t-20.5 -8.5q-14 0 -22.5 8.5t-8.5 22.5zM78 620q0 12 8.5 21t21.5 9q12 0 21.5 -9t9.5 -21q0 -14 -9.5 -22.5t-21.5 -8.5q-13 0 -21.5 8.5t-8.5 22.5zM275 620q0 12 8.5 21t21.5 9q12 0 21.5 -9t9.5 -21q0 -14 -9.5 -22.5
t-21.5 -8.5q-13 0 -21.5 8.5t-8.5 22.5zM405 620q0 12 9.5 21t21.5 9q13 0 21.5 -9t8.5 -21q0 -14 -8.5 -22.5t-21.5 -8.5q-12 0 -21.5 8.5t-9.5 22.5zM208 620q0 12 9.5 21t21.5 9q13 0 21.5 -9t8.5 -21q0 -14 -8.5 -22.5t-21.5 -8.5q-12 0 -21.5 8.5t-9.5 22.5zM340 357
q0 13 8.5 22t22.5 9q11 0 20.5 -9t9.5 -22t-9.5 -21.5t-20.5 -8.5q-14 0 -22.5 8.5t-8.5 21.5zM208 30q0 12 9.5 21.5t21.5 9.5q13 0 21.5 -9.5t8.5 -21.5q0 -13 -8.5 -21.5t-21.5 -8.5q-12 0 -21.5 8.5t-9.5 21.5zM78 30q0 12 8.5 21.5t21.5 9.5q12 0 21.5 -9.5t9.5 -21.5
q0 -13 -9.5 -21.5t-21.5 -8.5q-13 0 -21.5 8.5t-8.5 21.5zM208 95q0 14 9.5 22t21.5 8q13 0 21.5 -8t8.5 -22q0 -13 -8.5 -21.5t-21.5 -8.5q-12 0 -21.5 8.5t-9.5 21.5zM78 95q0 14 8.5 22t21.5 8q12 0 21.5 -8t9.5 -22q0 -13 -9.5 -21.5t-21.5 -8.5q-13 0 -21.5 8.5
t-8.5 21.5zM144 620q0 12 9 21t21 9q13 0 21.5 -9t8.5 -21q0 -14 -8.5 -22.5t-21.5 -8.5q-12 0 -21 8.5t-9 22.5zM78 489q0 12 8.5 20.5t21.5 8.5q12 0 21.5 -8.5t9.5 -20.5q0 -13 -9.5 -22t-21.5 -9q-13 0 -21.5 9t-8.5 22zM275 489q0 12 8.5 20.5t21.5 8.5q12 0 21.5 -8.5
t9.5 -20.5q0 -13 -9.5 -22t-21.5 -9q-13 0 -21.5 9t-8.5 22zM208 489q0 12 9.5 20.5t21.5 8.5q13 0 21.5 -8.5t8.5 -20.5q0 -13 -8.5 -22t-21.5 -9q-12 0 -21.5 9t-9.5 22zM405 489q0 12 9.5 20.5t21.5 8.5q13 0 21.5 -8.5t8.5 -20.5q0 -13 -8.5 -22t-21.5 -9q-12 0 -21.5 9
t-9.5 22zM340 489q0 12 8.5 20.5t22.5 8.5q11 0 20.5 -8.5t9.5 -20.5q0 -13 -9.5 -22t-20.5 -9q-14 0 -22.5 9t-8.5 22zM144 30q0 12 9 21.5t21 9.5q13 0 21.5 -9.5t8.5 -21.5q0 -13 -8.5 -21.5t-21.5 -8.5q-12 0 -21 8.5t-9 21.5zM78 292q0 12 8.5 21t21.5 9q12 0 21.5 -9
t9.5 -21q0 -13 -9.5 -21.5t-21.5 -8.5q-13 0 -21.5 8.5t-8.5 21.5zM78 554q0 12 8.5 21t21.5 9q12 0 21.5 -9t9.5 -21q0 -13 -9.5 -21.5t-21.5 -8.5q-13 0 -21.5 8.5t-8.5 21.5zM405 292q0 12 9.5 21t21.5 9q13 0 21.5 -9t8.5 -21q0 -13 -8.5 -21.5t-21.5 -8.5
q-12 0 -21.5 8.5t-9.5 21.5zM78 423q0 13 8.5 21.5t21.5 8.5q12 0 21.5 -8.5t9.5 -21.5t-9.5 -21t-21.5 -8q-13 0 -21.5 8t-8.5 21zM208 423q0 13 9.5 21.5t21.5 8.5q13 0 21.5 -8.5t8.5 -21.5t-8.5 -21t-21.5 -8q-12 0 -21.5 8t-9.5 21zM208 227q0 12 9.5 20.5t21.5 8.5
q13 0 21.5 -8.5t8.5 -20.5q0 -13 -8.5 -21.5t-21.5 -8.5q-12 0 -21.5 8.5t-9.5 21.5zM405 227q0 12 9.5 20.5t21.5 8.5q13 0 21.5 -8.5t8.5 -20.5q0 -13 -8.5 -21.5t-21.5 -8.5q-12 0 -21.5 8.5t-9.5 21.5zM78 227q0 12 8.5 20.5t21.5 8.5q12 0 21.5 -8.5t9.5 -20.5
q0 -13 -9.5 -21.5t-21.5 -8.5q-13 0 -21.5 8.5t-8.5 21.5zM275 227q0 12 8.5 20.5t21.5 8.5q12 0 21.5 -8.5t9.5 -20.5q0 -13 -9.5 -21.5t-21.5 -8.5q-13 0 -21.5 8.5t-8.5 21.5zM340 227q0 12 8.5 20.5t22.5 8.5q11 0 20.5 -8.5t9.5 -20.5q0 -13 -9.5 -21.5t-20.5 -8.5
q-14 0 -22.5 8.5t-8.5 21.5z" />
    </font>
</defs>
</svg>
