<?xml version="1.0" encoding="utf-8"?>
<!-- Generator: Adobe Illustrator 16.2.1, SVG Export Plug-In . SVG Version: 6.00 Build 0)  -->
<!DOCTYPE svg PUBLIC "-//W3C//DTD SVG 1.1//EN" "http://www.w3.org/Graphics/SVG/1.1/DTD/svg11.dtd">
<svg version="1.1" id="Layer_1" xmlns="http://www.w3.org/2000/svg" xmlns:xlink="http://www.w3.org/1999/xlink" x="0px" y="0px"
	 width="490.7px" height="194.7px" viewBox="0 0 490.7 194.7" style="enable-background:new 0 0 490.7 194.7;" xml:space="preserve"
	>
<style type="text/css">
<![CDATA[
	.st0{fill:#4A87EE;}
	.st1{fill:#666666;}
]]>
</style>
<g>
	<g>
		<path class="st1" d="M25.7,181.7L25.7,181.7l6.9-23.3h3.3l6.8,23.3h0.1l6.6-23.3h2.9l-8,27.1h-3.2l-6.8-23.3h-0.1l-6.8,23.3h-3.2
			l-8-27.1H19L25.7,181.7z"/>
		<path class="st1" d="M58.3,170.5c0.5-1,1.3-1.9,2.4-2.5c1.1-0.6,2.3-0.9,3.6-0.9c2.3,0,4,0.7,5.1,2c1.1,1.4,1.7,3.1,1.7,5.4v11
			h-2.6v-9.9c0-0.9-0.1-1.8-0.2-2.6c-0.2-0.8-0.4-1.4-0.8-2c-0.4-0.5-0.9-1-1.5-1.3c-0.6-0.3-1.4-0.5-2.4-0.5c-0.7,0-1.4,0.1-2,0.4
			c-0.7,0.3-1.2,0.7-1.7,1.3c-0.5,0.6-0.9,1.3-1.2,2.2c-0.3,0.9-0.5,1.9-0.5,3.1v9.2h-2.6v-27.1h2.6L58.3,170.5L58.3,170.5z"/>
		<path class="st1" d="M88.4,173.9c0-1.5-0.4-2.7-1.2-3.5c-0.8-0.8-2-1.1-3.6-1.1c-1.1,0-2.1,0.2-3,0.6c-0.9,0.4-1.7,0.9-2.3,1.5
			l-1.5-1.7c0.7-0.7,1.7-1.4,2.9-1.8c1.2-0.5,2.6-0.7,4.1-0.7c1,0,1.9,0.1,2.7,0.4c0.8,0.3,1.6,0.7,2.2,1.2c0.6,0.5,1.1,1.2,1.5,2
			c0.4,0.8,0.5,1.8,0.5,2.9v7.9c0,0.7,0,1.4,0.1,2.1c0.1,0.7,0.1,1.4,0.2,1.9h-2.3c-0.1-0.4-0.1-0.9-0.2-1.4c-0.1-0.5-0.1-1-0.1-1.5
			h-0.1c-0.8,1.2-1.7,2.1-2.8,2.6c-1,0.5-2.3,0.8-3.7,0.8c-0.7,0-1.4-0.1-2.1-0.3c-0.7-0.2-1.4-0.5-2-0.9c-0.6-0.4-1.1-1-1.5-1.7
			c-0.4-0.7-0.6-1.5-0.6-2.5c0-1.4,0.4-2.5,1.1-3.3c0.7-0.8,1.6-1.4,2.8-1.8c1.2-0.4,2.5-0.7,4-0.8c1.5-0.1,3.1-0.2,4.7-0.2V173.9z
			 M87.6,176.6c-1.1,0-2.2,0-3.2,0.1c-1.1,0.1-2.1,0.3-3,0.5c-0.9,0.3-1.6,0.7-2.2,1.2c-0.6,0.5-0.8,1.2-0.8,2
			c0,0.6,0.1,1.2,0.4,1.6c0.2,0.4,0.6,0.8,1,1.1c0.4,0.3,0.9,0.5,1.4,0.6c0.5,0.1,1,0.2,1.5,0.2c0.9,0,1.7-0.2,2.5-0.5
			c0.7-0.3,1.3-0.8,1.8-1.3c0.5-0.5,0.9-1.2,1.1-1.9c0.3-0.7,0.4-1.5,0.4-2.3v-1.3H87.6z"/>
		<path class="st1" d="M104.5,169.8h-5.1v10.5c0,0.7,0.1,1.2,0.2,1.6c0.1,0.4,0.3,0.8,0.6,1c0.2,0.2,0.5,0.4,0.9,0.5
			c0.3,0.1,0.7,0.1,1.1,0.1c0.4,0,0.7-0.1,1.1-0.2c0.4-0.1,0.8-0.2,1.1-0.4l0.1,2.3c-0.5,0.2-0.9,0.3-1.4,0.4
			c-0.5,0.1-1,0.1-1.6,0.1c-0.5,0-1-0.1-1.5-0.2c-0.5-0.1-1-0.4-1.5-0.7c-0.5-0.4-0.8-0.8-1.1-1.5c-0.3-0.6-0.4-1.4-0.4-2.4v-11.2
			h-3.7v-2.2h3.7v-5.1h2.6v5.1h5.1V169.8z"/>
		<path class="st1" d="M131.3,182.5c-0.8,1.2-1.8,2-3,2.6c-1.2,0.6-2.5,0.9-3.8,0.9c-1.4,0-2.7-0.2-3.8-0.7c-1.1-0.5-2.1-1.1-2.9-2
			c-0.8-0.8-1.4-1.8-1.9-3c-0.4-1.1-0.7-2.4-0.7-3.7c0-1.3,0.2-2.6,0.7-3.7c0.4-1.2,1.1-2.1,1.9-3c0.8-0.8,1.8-1.5,2.9-2
			c1.1-0.5,2.4-0.7,3.8-0.7c1.3,0,2.6,0.3,3.8,0.9c1.2,0.6,2.2,1.5,3,2.7h0.1v-12.3h2.6v27.1h-2.6L131.3,182.5L131.3,182.5z
			 M118,176.6c0,1,0.2,1.9,0.5,2.8c0.3,0.9,0.7,1.6,1.3,2.3c0.6,0.7,1.3,1.2,2.1,1.5c0.8,0.4,1.8,0.6,2.9,0.6c1,0,1.9-0.2,2.8-0.6
			c0.8-0.4,1.6-0.9,2.2-1.5c0.6-0.6,1.1-1.4,1.4-2.3c0.3-0.9,0.5-1.8,0.5-2.9c0-1-0.2-2-0.5-2.9s-0.8-1.6-1.4-2.3
			c-0.6-0.7-1.3-1.2-2.2-1.5c-0.8-0.4-1.8-0.6-2.8-0.6c-1.1,0-2,0.2-2.9,0.6c-0.8,0.4-1.6,0.9-2.1,1.6c-0.6,0.7-1,1.4-1.3,2.3
			C118.2,174.6,118,175.6,118,176.6z"/>
		<path class="st1" d="M158,176.6c0,1.4-0.2,2.6-0.7,3.8c-0.5,1.2-1.1,2.1-2,3c-0.8,0.8-1.9,1.5-3,2c-1.2,0.5-2.5,0.7-3.9,0.7
			c-1.4,0-2.7-0.2-3.8-0.7c-1.2-0.5-2.2-1.1-3-2c-0.8-0.8-1.5-1.8-2-3c-0.5-1.1-0.7-2.4-0.7-3.8c0-1.4,0.2-2.6,0.7-3.8
			c0.5-1.2,1.1-2.1,2-3c0.8-0.8,1.9-1.5,3-2c1.2-0.5,2.5-0.7,3.8-0.7c1.4,0,2.7,0.2,3.9,0.7c1.2,0.5,2.2,1.1,3,2
			c0.8,0.8,1.5,1.8,2,3C157.8,173.9,158,175.2,158,176.6z M155.3,176.6c0-1-0.2-1.9-0.5-2.8c-0.3-0.9-0.8-1.6-1.4-2.3
			c-0.6-0.7-1.3-1.2-2.1-1.6c-0.8-0.4-1.8-0.6-2.8-0.6c-1,0-2,0.2-2.8,0.6c-0.8,0.4-1.5,0.9-2.1,1.6c-0.6,0.7-1,1.4-1.4,2.3
			c-0.3,0.9-0.5,1.8-0.5,2.8c0,1,0.2,1.9,0.5,2.8c0.3,0.9,0.8,1.6,1.4,2.3c0.6,0.7,1.3,1.2,2.1,1.5c0.8,0.4,1.8,0.6,2.8,0.6
			c1,0,2-0.2,2.8-0.6c0.8-0.4,1.6-0.9,2.1-1.5c0.6-0.7,1-1.4,1.4-2.3C155.1,178.5,155.3,177.5,155.3,176.6z"/>
		<path class="st1" d="M177.8,182.7L177.8,182.7l5.6-15.1h2.8l-8.9,22.6c-0.5,1.4-1.2,2.5-2,3.3c-0.8,0.8-2,1.2-3.6,1.2
			c-0.8,0-1.6-0.1-2.3-0.2l0.3-2.4c0.6,0.2,1.3,0.3,1.9,0.3c0.9,0,1.6-0.3,2.1-0.8c0.5-0.5,1-1.3,1.3-2.4l1.5-3.8l-7.7-17.9h2.9
			L177.8,182.7z"/>
		<path class="st1" d="M207.4,176.6c0,1.4-0.2,2.6-0.7,3.8c-0.5,1.2-1.1,2.1-2,3c-0.8,0.8-1.9,1.5-3,2c-1.2,0.5-2.5,0.7-3.9,0.7
			c-1.4,0-2.7-0.2-3.8-0.7c-1.2-0.5-2.2-1.1-3-2c-0.8-0.8-1.5-1.8-2-3c-0.5-1.1-0.7-2.4-0.7-3.8c0-1.4,0.2-2.6,0.7-3.8
			c0.5-1.2,1.1-2.1,2-3c0.8-0.8,1.9-1.5,3-2c1.2-0.5,2.5-0.7,3.8-0.7c1.4,0,2.7,0.2,3.9,0.7c1.2,0.5,2.2,1.1,3,2
			c0.8,0.8,1.5,1.8,2,3C207.2,173.9,207.4,175.2,207.4,176.6z M204.7,176.6c0-1-0.2-1.9-0.5-2.8c-0.3-0.9-0.8-1.6-1.4-2.3
			c-0.6-0.7-1.3-1.2-2.1-1.6c-0.8-0.4-1.8-0.6-2.8-0.6s-2,0.2-2.8,0.6c-0.8,0.4-1.5,0.9-2.1,1.6c-0.6,0.7-1,1.4-1.4,2.3
			c-0.3,0.9-0.5,1.8-0.5,2.8c0,1,0.2,1.9,0.5,2.8c0.3,0.9,0.8,1.6,1.4,2.3c0.6,0.7,1.3,1.2,2.1,1.5c0.8,0.4,1.8,0.6,2.8,0.6
			s2-0.2,2.8-0.6c0.8-0.4,1.6-0.9,2.1-1.5c0.6-0.7,1-1.4,1.4-2.3C204.5,178.5,204.7,177.5,204.7,176.6z"/>
		<path class="st1" d="M225.3,185.5c-0.1-0.5-0.1-1-0.1-1.6c0-0.6,0-1.1,0-1.5h-0.1c-0.5,1-1.3,1.9-2.5,2.5c-1.2,0.7-2.4,1-3.6,1
			c-2.3,0-4-0.7-5.1-2c-1.1-1.4-1.7-3.1-1.7-5.4v-11h2.6v9.9c0,0.9,0.1,1.8,0.2,2.6c0.2,0.8,0.4,1.4,0.8,2c0.4,0.6,0.9,1,1.5,1.3
			c0.6,0.3,1.4,0.5,2.4,0.5c0.7,0,1.4-0.1,2-0.4c0.7-0.3,1.2-0.7,1.7-1.3c0.5-0.6,0.9-1.3,1.2-2.2c0.3-0.9,0.5-1.9,0.5-3.1v-9.2h2.6
			v14c0,0.5,0,1.1,0,1.9c0,0.8,0.1,1.5,0.1,2.1H225.3z"/>
		<path class="st1" d="M244.9,167.6c0.1,0.5,0.1,1,0.1,1.6c0,0.6,0,1.1,0,1.5h0.1c0.5-1,1.3-1.9,2.5-2.5c1.1-0.7,2.4-1,3.6-1
			c2.3,0,4,0.7,5.1,2c1.1,1.4,1.7,3.1,1.7,5.4v11h-2.6v-9.9c0-0.9-0.1-1.8-0.2-2.6c-0.2-0.8-0.4-1.4-0.8-2c-0.4-0.5-0.9-1-1.5-1.3
			c-0.6-0.3-1.4-0.5-2.4-0.5c-0.7,0-1.4,0.1-2,0.4c-0.7,0.3-1.2,0.7-1.7,1.3c-0.5,0.6-0.9,1.3-1.2,2.2s-0.5,1.9-0.5,3.1v9.2h-2.6
			v-14c0-0.5,0-1.1,0-1.9c0-0.8-0.1-1.5-0.1-2.1H244.9z"/>
		<path class="st1" d="M280.4,176c0,0.2,0,0.4,0,0.6c0,0.2,0,0.4,0,0.7h-14.9c0,0.9,0.2,1.7,0.5,2.5c0.3,0.8,0.8,1.5,1.4,2.1
			c0.6,0.6,1.3,1.1,2.1,1.4c0.8,0.3,1.6,0.5,2.6,0.5c1.4,0,2.5-0.3,3.5-0.9c1-0.6,1.7-1.3,2.2-2.2l2,1.5c-1.1,1.4-2.3,2.3-3.5,2.9
			c-1.3,0.6-2.7,0.9-4.2,0.9c-1.3,0-2.6-0.2-3.7-0.7c-1.1-0.5-2.1-1.1-2.9-2c-0.8-0.8-1.5-1.8-1.9-3c-0.5-1.1-0.7-2.4-0.7-3.8
			c0-1.4,0.2-2.6,0.7-3.8c0.5-1.2,1.1-2.1,1.9-3c0.8-0.8,1.8-1.5,2.9-2c1.1-0.5,2.3-0.7,3.6-0.7c1.4,0,2.6,0.2,3.7,0.7
			c1.1,0.5,2,1.1,2.7,1.9c0.7,0.8,1.3,1.7,1.6,2.8C280.2,173.6,280.4,174.8,280.4,176z M277.7,175.2c-0.1-1.7-0.6-3.1-1.6-4.2
			c-1-1.1-2.4-1.7-4.3-1.7c-0.9,0-1.7,0.2-2.4,0.5s-1.4,0.8-2,1.3s-1,1.2-1.3,1.9c-0.3,0.7-0.5,1.4-0.6,2.2H277.7z"/>
		<path class="st1" d="M301.5,176c0,0.2,0,0.4,0,0.6c0,0.2,0,0.4,0,0.7h-14.9c0,0.9,0.2,1.7,0.5,2.5c0.3,0.8,0.8,1.5,1.4,2.1
			c0.6,0.6,1.3,1.1,2.1,1.4c0.8,0.3,1.6,0.5,2.6,0.5c1.4,0,2.5-0.3,3.5-0.9c1-0.6,1.7-1.3,2.2-2.2l2,1.5c-1.1,1.4-2.3,2.3-3.5,2.9
			c-1.3,0.6-2.7,0.9-4.2,0.9c-1.3,0-2.6-0.2-3.7-0.7c-1.1-0.5-2.1-1.1-2.9-2c-0.8-0.8-1.5-1.8-1.9-3c-0.5-1.1-0.7-2.4-0.7-3.8
			c0-1.4,0.2-2.6,0.7-3.8c0.5-1.2,1.1-2.1,1.9-3c0.8-0.8,1.8-1.5,2.9-2c1.1-0.5,2.3-0.7,3.6-0.7c1.4,0,2.6,0.2,3.7,0.7
			c1.1,0.5,2,1.1,2.7,1.9c0.7,0.8,1.3,1.7,1.6,2.8C301.3,173.6,301.5,174.8,301.5,176z M298.9,175.2c-0.1-1.7-0.6-3.1-1.6-4.2
			c-1-1.1-2.4-1.7-4.3-1.7c-0.9,0-1.7,0.2-2.4,0.5s-1.4,0.8-2,1.3c-0.6,0.5-1,1.2-1.3,1.9c-0.3,0.7-0.5,1.4-0.6,2.2H298.9z"/>
		<path class="st1" d="M321.1,182.5c-0.8,1.2-1.8,2-3,2.6c-1.2,0.6-2.5,0.9-3.8,0.9c-1.4,0-2.7-0.2-3.8-0.7c-1.1-0.5-2.1-1.1-2.9-2
			c-0.8-0.8-1.4-1.8-1.9-3c-0.4-1.1-0.7-2.4-0.7-3.7c0-1.3,0.2-2.6,0.7-3.7s1.1-2.1,1.9-3c0.8-0.8,1.8-1.5,2.9-2
			c1.1-0.5,2.4-0.7,3.8-0.7c1.3,0,2.6,0.3,3.8,0.9c1.2,0.6,2.2,1.5,3,2.7h0.1v-12.3h2.6v27.1h-2.6L321.1,182.5L321.1,182.5z
			 M307.8,176.6c0,1,0.2,1.9,0.5,2.8c0.3,0.9,0.7,1.6,1.3,2.3s1.3,1.2,2.1,1.5c0.8,0.4,1.8,0.6,2.9,0.6c1,0,1.9-0.2,2.8-0.6
			s1.6-0.9,2.2-1.5c0.6-0.6,1.1-1.4,1.4-2.3c0.3-0.9,0.5-1.8,0.5-2.9c0-1-0.2-2-0.5-2.9s-0.8-1.6-1.4-2.3s-1.3-1.2-2.2-1.5
			c-0.8-0.4-1.8-0.6-2.8-0.6c-1.1,0-2,0.2-2.9,0.6c-0.8,0.4-1.6,0.9-2.1,1.6c-0.6,0.7-1,1.4-1.3,2.3
			C308,174.6,307.8,175.6,307.8,176.6z"/>
		<path class="st1" d="M346.9,169.8h-5.1v10.5c0,0.7,0.1,1.2,0.2,1.6c0.1,0.4,0.3,0.8,0.6,1c0.2,0.2,0.5,0.4,0.9,0.5
			c0.3,0.1,0.7,0.1,1.1,0.1c0.4,0,0.7-0.1,1.1-0.2c0.4-0.1,0.8-0.2,1.1-0.4l0.1,2.3c-0.5,0.2-0.9,0.3-1.4,0.4
			c-0.5,0.1-1,0.1-1.6,0.1c-0.5,0-1-0.1-1.5-0.2c-0.5-0.1-1-0.4-1.5-0.7c-0.5-0.4-0.8-0.8-1.1-1.5c-0.3-0.6-0.4-1.4-0.4-2.4v-11.2
			h-3.7v-2.2h3.7v-5.1h2.6v5.1h5.1V169.8z"/>
		<path class="st1" d="M368,176.6c0,1.4-0.2,2.6-0.7,3.8c-0.5,1.2-1.1,2.1-2,3c-0.8,0.8-1.9,1.5-3,2c-1.2,0.5-2.5,0.7-3.9,0.7
			c-1.4,0-2.7-0.2-3.8-0.7c-1.2-0.5-2.2-1.1-3-2c-0.8-0.8-1.5-1.8-2-3c-0.5-1.1-0.7-2.4-0.7-3.8c0-1.4,0.2-2.6,0.7-3.8
			c0.5-1.2,1.1-2.1,2-3c0.8-0.8,1.8-1.5,3-2c1.2-0.5,2.5-0.7,3.8-0.7c1.4,0,2.7,0.2,3.9,0.7c1.2,0.5,2.2,1.1,3,2
			c0.8,0.8,1.5,1.8,2,3C367.8,173.9,368,175.2,368,176.6z M365.3,176.6c0-1-0.2-1.9-0.5-2.8c-0.3-0.9-0.8-1.6-1.4-2.3
			c-0.6-0.7-1.3-1.2-2.1-1.6c-0.8-0.4-1.8-0.6-2.8-0.6c-1,0-2,0.2-2.8,0.6c-0.8,0.4-1.5,0.9-2.1,1.6c-0.6,0.7-1,1.4-1.4,2.3
			c-0.3,0.9-0.5,1.8-0.5,2.8c0,1,0.2,1.9,0.5,2.8c0.3,0.9,0.8,1.6,1.4,2.3s1.3,1.2,2.1,1.5c0.8,0.4,1.8,0.6,2.8,0.6
			c1,0,2-0.2,2.8-0.6c0.8-0.4,1.6-0.9,2.1-1.5c0.6-0.7,1-1.4,1.4-2.3C365.1,178.5,365.3,177.5,365.3,176.6z"/>
		<path class="st1" d="M396.4,182.5c-0.8,1.2-1.8,2-3,2.6c-1.2,0.6-2.5,0.9-3.8,0.9c-1.4,0-2.7-0.2-3.8-0.7c-1.1-0.5-2.1-1.1-2.9-2
			c-0.8-0.8-1.4-1.8-1.9-3c-0.4-1.1-0.7-2.4-0.7-3.7c0-1.3,0.2-2.6,0.7-3.7c0.4-1.2,1.1-2.1,1.9-3c0.8-0.8,1.8-1.5,2.9-2
			c1.1-0.5,2.4-0.7,3.8-0.7c1.3,0,2.6,0.3,3.8,0.9c1.2,0.6,2.2,1.5,3,2.7h0.1v-12.3h2.6v27.1h-2.6L396.4,182.5L396.4,182.5z
			 M383.1,176.6c0,1,0.2,1.9,0.5,2.8c0.3,0.9,0.7,1.6,1.3,2.3c0.6,0.7,1.3,1.2,2.1,1.5c0.8,0.4,1.8,0.6,2.9,0.6c1,0,1.9-0.2,2.8-0.6
			c0.8-0.4,1.6-0.9,2.2-1.5c0.6-0.6,1.1-1.4,1.4-2.3c0.3-0.9,0.5-1.8,0.5-2.9c0-1-0.2-2-0.5-2.9c-0.3-0.9-0.8-1.6-1.4-2.3
			s-1.3-1.2-2.2-1.5c-0.8-0.4-1.8-0.6-2.8-0.6c-1.1,0-2,0.2-2.9,0.6c-0.8,0.4-1.5,0.9-2.1,1.6c-0.6,0.7-1,1.4-1.3,2.3
			C383.3,174.6,383.1,175.6,383.1,176.6z"/>
		<path class="st1" d="M421.6,176c0,0.2,0,0.4,0,0.6c0,0.2,0,0.4,0,0.7h-14.9c0,0.9,0.2,1.7,0.5,2.5c0.3,0.8,0.8,1.5,1.4,2.1
			c0.6,0.6,1.3,1.1,2.1,1.4c0.8,0.3,1.6,0.5,2.6,0.5c1.4,0,2.5-0.3,3.5-0.9c1-0.6,1.7-1.3,2.2-2.2l2,1.5c-1.1,1.4-2.3,2.3-3.5,2.9
			c-1.3,0.6-2.7,0.9-4.2,0.9c-1.3,0-2.6-0.2-3.7-0.7c-1.1-0.5-2.1-1.1-2.9-2c-0.8-0.8-1.5-1.8-1.9-3c-0.5-1.1-0.7-2.4-0.7-3.8
			c0-1.4,0.2-2.6,0.7-3.8c0.5-1.2,1.1-2.1,1.9-3c0.8-0.8,1.8-1.5,2.9-2c1.1-0.5,2.3-0.7,3.6-0.7c1.4,0,2.6,0.2,3.7,0.7
			c1.1,0.5,2,1.1,2.7,1.9c0.7,0.8,1.3,1.7,1.6,2.8C421.4,173.6,421.6,174.8,421.6,176z M419,175.2c-0.1-1.7-0.6-3.1-1.6-4.2
			c-1-1.1-2.4-1.7-4.3-1.7c-0.9,0-1.7,0.2-2.4,0.5s-1.4,0.8-2,1.3c-0.6,0.5-1,1.2-1.3,1.9c-0.3,0.7-0.5,1.4-0.6,2.2H419z"/>
		<path class="st1" d="M426.4,169.7c0-0.8-0.1-1.5-0.1-2.1h2.5c0.1,0.5,0.1,1,0.1,1.6c0,0.6,0,1.1,0,1.5h0.1c0.5-1,1.3-1.9,2.3-2.5
			c1-0.7,2.2-1,3.4-1c0.3,0,0.6,0,0.9,0c0.3,0,0.5,0.1,0.8,0.2l-0.3,2.5c-0.2-0.1-0.4-0.1-0.8-0.2c-0.4-0.1-0.7-0.1-1.1-0.1
			c-0.7,0-1.4,0.1-2,0.4c-0.6,0.3-1.2,0.7-1.7,1.2c-0.5,0.5-0.9,1.2-1.1,2.1c-0.3,0.9-0.4,1.9-0.4,3.1v9.2h-2.6v-14
			C426.4,171,426.4,170.4,426.4,169.7z"/>
		<path class="st1" d="M442.1,194.7h-2.6v-27.1h2.6v3.1h0.1c0.7-1.2,1.7-2.1,3-2.7c1.2-0.6,2.5-0.9,3.8-0.9c1.4,0,2.7,0.2,3.8,0.7
			c1.1,0.5,2.1,1.1,2.9,2c0.8,0.8,1.4,1.8,1.9,3c0.4,1.2,0.7,2.4,0.7,3.7c0,1.3-0.2,2.6-0.7,3.7c-0.4,1.2-1.1,2.1-1.9,3
			c-0.8,0.8-1.8,1.5-2.9,2c-1.1,0.5-2.4,0.7-3.8,0.7c-1.3,0-2.5-0.3-3.8-0.9c-1.2-0.6-2.2-1.5-3-2.6h-0.1V194.7z M455.4,176.6
			c0-1-0.2-1.9-0.5-2.8c-0.3-0.9-0.7-1.6-1.3-2.3c-0.6-0.7-1.3-1.2-2.1-1.6c-0.8-0.4-1.8-0.6-2.9-0.6c-1,0-1.9,0.2-2.8,0.6
			c-0.8,0.4-1.6,0.9-2.2,1.5c-0.6,0.7-1.1,1.4-1.4,2.3c-0.3,0.9-0.5,1.8-0.5,2.9c0,1,0.2,2,0.5,2.9c0.3,0.9,0.8,1.6,1.4,2.3
			c0.6,0.6,1.3,1.1,2.2,1.5c0.8,0.4,1.8,0.6,2.8,0.6c1.1,0,2-0.2,2.9-0.6c0.8-0.4,1.6-0.9,2.1-1.5c0.6-0.7,1-1.4,1.3-2.3
			C455.3,178.5,455.4,177.5,455.4,176.6z"/>
		<path class="st1" d="M468.1,178.2h-2.7v-2.3c0-0.7,0.1-1.4,0.2-1.9c0.2-0.6,0.4-1.1,0.7-1.6s0.6-0.9,1-1.2
			c0.4-0.4,0.7-0.7,1.1-1.1l1.1-1c0.6-0.5,1.2-1.1,1.6-1.8c0.4-0.7,0.6-1.5,0.6-2.5c0-0.7-0.1-1.4-0.4-1.9c-0.3-0.6-0.6-1-1-1.4
			c-0.4-0.4-0.9-0.7-1.5-0.9c-0.6-0.2-1.2-0.3-1.9-0.3c-1.4,0-2.5,0.4-3.4,1.3c-0.9,0.8-1.4,1.9-1.6,3.2l-2.6-0.5
			c0.4-2,1.3-3.6,2.6-4.7s3-1.7,5-1.7c1,0,2,0.1,2.9,0.4c0.9,0.3,1.7,0.7,2.4,1.3c0.7,0.6,1.2,1.3,1.6,2.1c0.4,0.8,0.6,1.8,0.6,2.9
			c0,0.8-0.1,1.5-0.3,2.1s-0.4,1.2-0.7,1.6c-0.3,0.5-0.7,0.9-1.1,1.3c-0.4,0.4-0.9,0.8-1.4,1.2c-0.5,0.4-1,0.8-1.4,1.2
			s-0.7,0.7-0.9,1.1c-0.2,0.4-0.4,0.8-0.5,1.3c-0.1,0.5-0.2,1.1-0.2,1.8V178.2z M469.1,183.7c0,0.5-0.2,1-0.6,1.4
			c-0.4,0.4-0.9,0.6-1.5,0.6c-0.6,0-1.1-0.2-1.5-0.6c-0.4-0.4-0.6-0.9-0.6-1.4c0-0.5,0.2-1,0.6-1.4c0.4-0.4,0.9-0.6,1.5-0.6
			c0.6,0,1.1,0.2,1.5,0.6C468.9,182.7,469.1,183.1,469.1,183.7z"/>
	</g>
	<g>
		<g>
			<path class="st0" d="M55.9,22v84.7H30.2V22H0V0h86.1v22H55.9z"/>
			<path class="st0" d="M225.7,106.7v-9.8h-0.3c-2.4,3.8-5.9,6.8-10.3,8.8c-4.5,2.1-9.2,3.1-14.2,3.1c-5.6,0-10.7-1.1-15.1-3.3
				c-4.4-2.2-8.2-5.2-11.2-8.8c-3.1-3.7-5.4-7.9-7-12.7c-1.6-4.8-2.4-9.9-2.4-15.1s0.8-10.2,2.5-15c1.7-4.8,4-9,7.1-12.6
				c3.1-3.6,6.8-6.5,11.2-8.6s9.3-3.2,14.7-3.2c5.5,0,10.2,1.1,14,3.2c3.8,2.1,6.8,4.4,8.9,6.9h0.3V-0.2h24.7v107H225.7z
				 M224.8,69.1c0-2.4-0.4-4.8-1.3-7.1c-0.9-2.3-2.1-4.4-3.6-6.2c-1.6-1.8-3.4-3.3-5.7-4.4c-2.2-1.1-4.7-1.7-7.5-1.7
				c-2.9,0-5.5,0.6-7.7,1.7c-2.2,1.1-4.1,2.5-5.6,4.3c-1.5,1.8-2.6,3.8-3.4,6.1c-0.8,2.3-1.1,4.7-1.1,7.1c0,2.4,0.4,4.8,1.1,7.2
				c0.8,2.4,1.9,4.5,3.4,6.3c1.5,1.8,3.4,3.3,5.6,4.4c2.2,1.1,4.8,1.7,7.7,1.7c2.8,0,5.3-0.5,7.5-1.7c2.2-1.1,4.1-2.6,5.7-4.4
				c1.6-1.8,2.8-3.9,3.6-6.2C224.4,73.8,224.8,71.5,224.8,69.1z"/>
			<path class="st0" d="M338.4,70.1c0,1,0,2,0,3c0,1-0.1,2-0.2,2.9h-54.4c0.2,2.1,0.8,4,1.9,5.7c1.1,1.7,2.4,3.2,4.1,4.4
				c1.7,1.3,3.5,2.2,5.6,2.9c2.1,0.7,4.2,1.1,6.4,1.1c3.9,0,7.2-0.7,10-2.2c2.7-1.5,4.9-3.3,6.6-5.7l17.2,10.9
				c-3.5,5.1-8.2,9.1-13.9,11.8c-5.8,2.8-12.5,4.1-20.1,4.1c-5.6,0-11-0.9-16-2.6c-5-1.8-9.4-4.3-13.2-7.7
				c-3.8-3.4-6.7-7.5-8.9-12.4c-2.2-4.9-3.2-10.6-3.2-16.9c0-6.1,1.1-11.7,3.2-16.7c2.1-5,5-9.2,8.6-12.7c3.6-3.5,7.9-6.2,12.8-8.1
				c4.9-1.9,10.3-2.9,16-2.9c5.5,0,10.6,0.9,15.2,2.8c4.6,1.9,8.6,4.5,11.9,8.1c3.3,3.5,5.9,7.8,7.8,12.8
				C337.4,57.9,338.4,63.7,338.4,70.1z M315.6,60.6c0-3.9-1.2-7.3-3.7-10.1c-2.5-2.8-6.2-4.2-11.1-4.2c-2.4,0-4.6,0.4-6.6,1.1
				c-2,0.8-3.8,1.8-5.3,3.1c-1.5,1.3-2.7,2.8-3.6,4.6c-0.9,1.8-1.4,3.6-1.5,5.5H315.6z"/>
			<path class="st0" d="M398.2,52c-1.1-0.3-2.2-0.5-3.2-0.6c-1.1-0.1-2.1-0.2-3.1-0.2c-3.3,0-6.1,0.6-8.4,1.8
				c-2.3,1.2-4.1,2.7-5.4,4.4c-1.4,1.7-2.3,3.6-2.9,5.6c-0.6,2-0.9,3.8-0.9,5.3v38.5h-24.7v-75h23.8v10.9h0.3c1.9-3.8,4.6-7,8.1-9.4
				c3.5-2.4,7.6-3.6,12.2-3.6c1,0,2,0.1,2.9,0.1c1,0.1,1.7,0.3,2.3,0.5L398.2,52z"/>
			<path class="st0" d="M490.7,68.9c0,5.2-0.8,10.3-2.4,15.1c-1.6,4.8-3.9,9.1-7,12.7c-3.1,3.7-6.8,6.6-11.2,8.8
				c-4.4,2.2-9.5,3.3-15.1,3.3c-4.6,0-9-0.9-13.1-2.8c-4.1-1.9-7.3-4.4-9.7-7.6h-0.3v37.5h-24.7V31.7h23.5v9.2h0.5
				c2.3-3,5.5-5.7,9.6-7.9c4.1-2.3,8.9-3.4,14.4-3.4c5.4,0,10.4,1.1,14.8,3.2c4.4,2.1,8.2,5,11.2,8.6c3.1,3.6,5.4,7.8,7.1,12.6
				C489.8,58.7,490.7,63.7,490.7,68.9z M466.7,68.9c0-2.4-0.4-4.8-1.1-7.1c-0.8-2.3-1.9-4.3-3.3-6.1c-1.5-1.8-3.3-3.2-5.5-4.3
				c-2.2-1.1-4.8-1.7-7.7-1.7c-2.8,0-5.3,0.6-7.5,1.7c-2.2,1.1-4.1,2.6-5.7,4.4c-1.6,1.8-2.8,3.9-3.6,6.2c-0.9,2.3-1.3,4.7-1.3,7.1
				c0,2.4,0.4,4.8,1.3,7.1c0.9,2.3,2.1,4.4,3.6,6.2c1.6,1.8,3.4,3.3,5.7,4.4c2.2,1.1,4.7,1.7,7.5,1.7c2.9,0,5.5-0.5,7.7-1.7
				c2.2-1.1,4-2.6,5.5-4.4c1.5-1.8,2.6-3.9,3.3-6.3C466.3,73.7,466.7,71.3,466.7,68.9z"/>
		</g>
		<g>
			<path class="st0" d="M115.7,29.3c-22,0-39.9,17.9-39.9,39.9c0,22,17.9,39.9,39.9,39.9c22,0,39.9-17.9,39.9-39.9
				C155.6,47.2,137.8,29.3,115.7,29.3z M108.5,85.9c-0.6,0.5-1.3,1-2,1c-0.7,0-1.5-0.5-2-1L91.8,73.2l4-4l10.7,10.7l28.3-28.5l4,4.1
				L108.5,85.9z"/>
		</g>
	</g>
</g>
</svg>
