<svg width="16" height="16" viewBox="0 0 16 16" fill="none" xmlns="http://www.w3.org/2000/svg">
<path d="M0.615385 13.2307H0V15.3846C0 15.5478 0.0648349 15.7043 0.180242 15.8197C0.295649 15.9351 0.452174 15.9999 0.615385 15.9999H2.76923V15.3846H0.615385V13.2307Z" fill="#FAFAFA"/>
<path d="M0.615385 0.615385H2.76923V0H0.615385C0.452174 0 0.295649 0.0648349 0.180242 0.180242C0.0648349 0.295649 0 0.452174 0 0.615385V2.76923H0.615385V0.615385Z" fill="#FAFAFA"/>
<path d="M15.3846 15.3846H13.2308V15.9999H15.3846C15.5478 15.9999 15.7043 15.9351 15.8197 15.8197C15.9351 15.7043 16 15.5478 16 15.3846V13.2307H15.3846V15.3846Z" fill="#FAFAFA"/>
<path d="M15.3846 0H13.2308V0.615385H15.3846V2.76923H16V0.615385C16 0.452174 15.9351 0.295649 15.8197 0.180242C15.7043 0.0648349 15.5478 0 15.3846 0Z" fill="#FAFAFA"/>
<path d="M1.84615 4.92311H4.92308V1.84619H1.84615V4.92311ZM2.46154 2.46158H4.30769V4.30773H2.46154V2.46158Z" fill="#FAFAFA"/>
<path d="M14.1538 1.84619H11.0769V4.92311H14.1538V1.84619Z" fill="#FAFAFA"/>
<path d="M9.53847 1.84619H6.46155V4.92311H9.53847V1.84619Z" fill="#FAFAFA"/>
<path d="M1.84615 14.1538H4.92308V11.0769H1.84615V14.1538ZM2.46154 11.6923H4.30769V13.5384H2.46154V11.6923Z" fill="#FAFAFA"/>
<path d="M14.1538 11.0769H11.0769V14.1538H14.1538V11.0769ZM13.5384 13.5384H11.6923V11.6923H13.5384V13.5384Z" fill="#FAFAFA"/>
<path d="M9.53847 11.0769H6.46155V14.1538H9.53847V11.0769Z" fill="#FAFAFA"/>
<path d="M4.92308 6.46155H1.84615V9.53847H4.92308V6.46155Z" fill="#FAFAFA"/>
<path d="M14.1538 6.46155H11.0769V9.53847H14.1538V6.46155ZM13.5384 8.92309H11.6923V7.07693H13.5384V8.92309Z" fill="#FAFAFA"/>
<path d="M6.46155 9.53847H9.53847V6.46155H6.46155V9.53847ZM7.07693 7.07693H8.92309V8.92309H7.07693V7.07693Z" fill="#FAFAFA"/>
</svg>
