<?xml version="1.0" standalone="no"?>
<!DOCTYPE svg PUBLIC "-//W3C//DTD SVG 1.1//EN" "http://www.w3.org/Graphics/SVG/1.1/DTD/svg11.dtd" >
<svg xmlns="http://www.w3.org/2000/svg">
<metadata>
Copyright (c) 2013 by Fontsmith Ltd. All rights reserved.
</metadata>
<defs>
<font id="FSEmericWeb-ExtraLightItalic" horiz-adv-x="569" >
  <font-face 
    font-family="FS Emeric Web ExtraLight"
    font-weight="280"
    font-style="italic"
    font-stretch="normal"
    units-per-em="1000"
    panose-1="2 0 5 6 0 0 0 9 0 4"
    ascent="731"
    descent="-269"
    x-height="488"
    cap-height="663"
    bbox="-115 -250 1148 1005"
    underline-thickness="50"
    underline-position="-50"
    slope="-7"
    unicode-range="U+000D-FB04"
  />
<missing-glyph horiz-adv-x="609" 
d="M72 650h464v-650h-464v650zM462 604h-316l159 -237zM490 88v474l-158 -237zM462 47l-157 236l-159 -236h316zM119 88l157 237l-157 237v-474z" />
    <glyph glyph-name="fi" unicode="fi" horiz-adv-x="512" 
d="M36 474l92 13q-3 11 -5 26.5t-2 31.5q0 39 13.5 71t36.5 54.5t54.5 34.5t67.5 12q32 0 64 -10.5t62 -27.5l-13 -27l-21 6q-25 7 -48 11.5t-44 4.5q-59 0 -91 -34.5t-32 -91.5q0 -17 2 -33.5t5 -26.5h178l-5 -40h-172l-78 -654h-51l78 654h-95zM417 488h51l-58 -488h-51z
" />
    <glyph glyph-name="fl" unicode="fl" horiz-adv-x="543" 
d="M36 474l92 13q-3 11 -5 26.5t-2 31.5q0 39 13.5 71t36.5 54.5t54.5 34.5t67.5 12q28 0 55 -8t53 -21l-12 -28q-56 14 -96 14q-59 0 -91 -34.5t-32 -91.5q0 -17 2 -33.5t5 -26.5h178l-5 -40h-172l-78 -654h-51l78 654h-95zM504 12q-14 -5 -34.5 -9.5t-35.5 -4.5
q-32 0 -47 16t-15 43q0 8 3 35l74 617h51l-80 -664l87 -13z" />
    <glyph glyph-name="f_f" unicode="ff" horiz-adv-x="632" 
d="M100 -206h-51l78 654h-95l4 26l90 13q-3 19 -3 44q0 39 13.5 71t36.5 54.5t54.5 34.5t67.5 12q30 0 60 -9t59 -25l-12 -29l-15 4q-25 7 -48 11.5t-44 4.5q-59 0 -91 -34.5t-32 -91.5q0 -12 0.5 -24t2.5 -22h259q-3 11 -4.5 26t-1.5 31q0 39 13.5 71t36.5 54.5t54.5 34.5
t67.5 12q32 0 64 -10.5t62 -27.5l-13 -27l-21 6q-25 7 -48 11.5t-44 4.5q-59 0 -91 -34.5t-32 -91.5q0 -17 2 -33.5t5 -26.5h178l-5 -40h-172l-75 -628h-51l75 628h-256z" />
    <glyph glyph-name="f_f_i" unicode="ffi" horiz-adv-x="819" 
d="M100 -206h-51l78 654h-95l4 26l90 13q-3 19 -3 44q0 39 13.5 71t36.5 54.5t54.5 34.5t67.5 12q30 0 60 -9t59 -25l-12 -29l-15 4q-25 7 -48 11.5t-44 4.5q-59 0 -91 -34.5t-32 -91.5q0 -12 0.5 -24t2.5 -22h259q-3 11 -4.5 26t-1.5 31q0 39 13.5 71t36.5 54.5t54.5 34.5
t67.5 12q32 0 64 -10.5t62 -27.5l-13 -27l-21 6q-25 7 -48 11.5t-44 4.5q-59 0 -91 -34.5t-32 -91.5q0 -17 2 -33.5t5 -26.5h178l-5 -40h-172l-75 -628h-51l75 628h-256zM724 488h51l-58 -488h-51z" />
    <glyph glyph-name="f_j" unicode="fj" horiz-adv-x="512" 
d="M36 474l92 13q-3 11 -5 26.5t-2 31.5q0 39 13.5 71t36.5 54.5t54.5 34.5t67.5 12q32 0 64 -10.5t62 -27.5l-13 -27l-21 6q-25 7 -48 11.5t-44 4.5q-59 0 -91 -34.5t-32 -91.5q0 -17 2 -33.5t5 -26.5h178l-5 -40h-172l-78 -654h-51l78 654h-95zM400 -83q-9 -76 -38 -110
q-34 -40 -105 -40q-14 0 -30.5 1.5t-29.5 4.5l4 26l31 2q63 4 87 28q14 14 20 38t11 63l67 558h51z" />
    <glyph glyph-name="f_f_j" unicode="ffj" horiz-adv-x="819" 
d="M100 -206h-51l78 654h-95l4 26l90 13q-3 19 -3 44q0 39 13.5 71t36.5 54.5t54.5 34.5t67.5 12q30 0 60 -9t59 -25l-12 -29l-15 4q-25 7 -48 11.5t-44 4.5q-59 0 -91 -34.5t-32 -91.5q0 -12 0.5 -24t2.5 -22h259q-3 11 -4.5 26t-1.5 31q0 39 13.5 71t36.5 54.5t54.5 34.5
t67.5 12q32 0 64 -10.5t62 -27.5l-13 -27l-21 6q-25 7 -48 11.5t-44 4.5q-59 0 -91 -34.5t-32 -91.5q0 -17 2 -33.5t5 -26.5h178l-5 -40h-172l-75 -628h-51l75 628h-256zM707 -83q-9 -76 -38 -110q-34 -40 -105 -40q-14 0 -30.5 1.5t-29.5 4.5l4 26l31 2q63 4 87 28
q14 14 20 38t11 63l67 558h51z" />
    <glyph glyph-name="f_f_l" unicode="ffl" horiz-adv-x="850" 
d="M600 674q-59 0 -91 -34.5t-32 -91.5q0 -17 2 -33.5t5 -26.5h178l-5 -40h-172l-75 -628h-51l75 628h-256l-78 -654h-51l78 654h-95l4 26l90 13q-3 19 -3 44q0 39 13.5 71t36.5 54.5t54.5 34.5t67.5 12q30 0 60 -9t59 -25l-12 -29l-15 4q-25 7 -48 11.5t-44 4.5
q-59 0 -91 -34.5t-32 -91.5q0 -12 0.5 -24t2.5 -22h259q-3 11 -4.5 26t-1.5 31q0 39 13.5 71t36.5 54.5t54.5 34.5t67.5 12q28 0 55 -8t53 -21l-12 -28q-56 14 -96 14zM811 12q-14 -5 -34.5 -9.5t-35.5 -4.5q-32 0 -47 16t-15 43q0 8 3 35l74 617h51l-80 -664l87 -13z" />
    <glyph glyph-name="f_t" unicode="ft" horiz-adv-x="673" 
d="M293 674q-59 0 -91 -34.5t-32 -91.5q0 -17 2 -33.5t5 -26.5h249l16 135h51l-16 -135h172l-5 -40h-172l-34 -279q-2 -21 -3.5 -38.5t-1.5 -28.5q0 -32 16 -49.5t54 -17.5q16 0 36 3.5t40 8.5l41 11l11 -28q-34 -18 -69.5 -28t-67.5 -10q-54 0 -83 30t-29 79q0 14 2 34.5
t5 44.5l32 268h-243l-78 -654h-51l78 654h-95l4 26l92 13q-3 11 -5 26.5t-2 31.5q0 39 13.5 71t36.5 54.5t54.5 34.5t67.5 12q28 0 55 -8t53 -21l-12 -28q-56 14 -96 14z" />
    <glyph glyph-name="f_f_t" unicode="fft" horiz-adv-x="980" 
d="M749 623h51l-16 -135h172l-5 -40h-172l-34 -279q-2 -21 -3.5 -38.5t-1.5 -28.5q0 -32 16 -49.5t54 -17.5q16 0 36 3.5t40 8.5l41 11l11 -28q-34 -18 -69.5 -28t-67.5 -10q-54 0 -83 30t-29 79q0 14 2 34.5t5 44.5l32 268h-243l-75 -628h-51l75 628h-256l-78 -654h-51
l78 654h-95l4 26l90 13q-3 19 -3 44q0 39 13.5 71t36.5 54.5t54.5 34.5t67.5 12q30 0 60 -9t59 -25l-12 -29l-15 4q-25 7 -48 11.5t-44 4.5q-59 0 -91 -34.5t-32 -91.5q0 -12 0.5 -24t2.5 -22h259q-3 11 -4.5 26t-1.5 31q0 39 13.5 71t36.5 54.5t54.5 34.5t67.5 12
q28 0 55 -8t53 -21l-12 -28q-56 14 -96 14q-59 0 -91 -34.5t-32 -91.5q0 -17 2 -33.5t5 -26.5h249z" />
    <glyph glyph-name=".notdef" horiz-adv-x="609" 
d="M72 650h464v-650h-464v650zM462 604h-316l159 -237zM490 88v474l-158 -237zM462 47l-157 236l-159 -236h316zM119 88l157 237l-157 237v-474z" />
    <glyph glyph-name=".null" horiz-adv-x="0" 
 />
    <glyph glyph-name=".null" horiz-adv-x="0" 
 />
    <glyph glyph-name="nonmarkingreturn" unicode="&#xd;" horiz-adv-x="216" 
 />
    <glyph glyph-name="space" unicode=" " horiz-adv-x="216" 
 />
    <glyph glyph-name="nonbreakingspace" unicode="&#xa0;" horiz-adv-x="216" 
 />
    <glyph glyph-name="A" unicode="A" horiz-adv-x="642" 
d="M549 0q-7 0 -9 1.5t-4 6.5l-49 167h-341l-87 -167q-3 -5 -5.5 -6.5t-9.5 -1.5h-42l345 663h38q6 0 7.5 -1.5t3.5 -6.5l195 -655h-42zM475 218l-50 173q-17 61 -32 114t-29 105q-10 -21 -23 -47.5t-27 -56t-29 -59.5t-29 -57l-88 -172h307z" />
    <glyph glyph-name="B" unicode="B" horiz-adv-x="575" 
d="M133 663h204q102 0 144 -39q35 -32 35 -93q0 -45 -26 -93.5t-65 -86.5v-1q47 -17 74.5 -51.5t27.5 -87.5q0 -45 -16 -83t-45 -67q-64 -61 -188 -61h-225zM110 44h163q55 0 93 11t63 35q23 21 34.5 53.5t11.5 68.5q0 54 -32 81q-19 16 -47.5 23t-73.5 7h-178zM150 365h209
q17 0 27 4t20 15q29 34 44.5 73t15.5 71q0 47 -23 67q-16 14 -42 19t-65 5h-156z" />
    <glyph glyph-name="C" unicode="C" horiz-adv-x="635" 
d="M592 85q-60 -42 -130 -68.5t-135 -26.5q-63 0 -113.5 22t-86 61t-55 93t-19.5 119q0 81 26 151.5t71.5 123t106 83t129.5 30.5q42 0 78.5 -13t66 -36.5t52 -55t37.5 -68.5l-35 -15l-43 54q-35 45 -73 65t-90 20q-57 0 -107 -25.5t-87 -70.5t-58 -106.5t-21 -133.5
q0 -56 14.5 -102t43 -78.5t70.5 -50.5t96 -18q42 0 86.5 13t92.5 33l65 28z" />
    <glyph glyph-name="D" unicode="D" horiz-adv-x="663" 
d="M133 663h185q81 0 144.5 -15.5t105.5 -56.5q34 -32 52.5 -82t18.5 -119q0 -91 -30.5 -165t-84.5 -126q-51 -48 -119.5 -73.5t-162.5 -25.5h-189zM110 44h119q95 0 158 22.5t107 67.5q45 46 70 112.5t25 146.5q0 60 -15 101.5t-44 67.5q-35 32 -90.5 44.5t-132.5 12.5
h-127z" />
    <glyph glyph-name="E" unicode="E" horiz-adv-x="510" 
d="M513 663l-5 -43h-328l-30 -252h299l-6 -43h-299l-34 -282h341l-5 -43h-393l80 663h380z" />
    <glyph glyph-name="F" unicode="F" horiz-adv-x="480" 
d="M510 663l-6 -43h-324l-30 -252h295l-6 -43h-295l-39 -325h-52l80 663h377z" />
    <glyph glyph-name="G" unicode="G" horiz-adv-x="696" 
d="M586 275h-131l5 40h167q6 0 9 -2t2 -10l-37 -303h-30l-8 61l-31 -15q-56 -27 -107 -41.5t-99 -14.5q-65 0 -115.5 23.5t-85.5 64.5t-53.5 95t-18.5 116q0 81 27.5 151t74 122t109 81.5t133.5 29.5q84 0 147.5 -44t101.5 -125l-33 -19l-50 57q-38 43 -77.5 62.5
t-93.5 19.5q-59 0 -111 -23.5t-91 -67.5t-61.5 -106t-22.5 -138q0 -57 15.5 -103.5t45 -79t72.5 -50.5t98 -18q48 0 105.5 16.5t110.5 45.5q8 5 10 8.5t3 9.5z" />
    <glyph glyph-name="H" unicode="H" horiz-adv-x="657" 
d="M541 324h-397l-39 -324h-52l80 663h52l-35 -294h396l36 294h52l-80 -663h-52z" />
    <glyph glyph-name="I" unicode="I" horiz-adv-x="212" 
d="M107 0h-52l80 663h52z" />
    <glyph glyph-name="J" unicode="J" horiz-adv-x="440" 
d="M9 60l38 -8q44 -9 72 -13t51 -4q66 0 100 34q20 20 30.5 52t15.5 77l56 465h52l-56 -465q-7 -54 -20.5 -92t-39.5 -64q-24 -25 -59 -38.5t-80 -13.5q-39 0 -84.5 11.5t-88.5 29.5z" />
    <glyph glyph-name="K" unicode="K" horiz-adv-x="589" 
d="M328 397l225 -397h-44q-8 0 -11 1.5t-7 7.5l-201 356q-17 -14 -37.5 -30.5t-41.5 -32.5t-41 -31t-35 -25l-30 -246h-52l80 663h52l-45 -370l431 375l30 -34z" />
    <glyph glyph-name="L" unicode="L" horiz-adv-x="485" 
d="M133 663h52l-75 -620h327l-5 -43h-379z" />
    <glyph glyph-name="M" unicode="M" horiz-adv-x="785" 
d="M704 587q-8 -10 -18.5 -24t-22.5 -29.5t-24 -30.5t-21 -27l-203 -248h-30q-8 0 -11 2t-6 7l-139 241q-20 35 -33 59.5t-24 47.5l-69 -585h-50l80 663h35q7 0 9.5 -1.5t5.5 -6.5l216 -378l307 378q5 5 7.5 6.5t10.5 1.5h38l-79 -663h-50z" />
    <glyph glyph-name="N" unicode="N" horiz-adv-x="695" 
d="M622 663h50l-80 -663h-31q-10 0 -15 8l-289 439l-86 133l-68 -580h-50l80 663h27q10 0 15 -8l289 -439q11 -17 24.5 -37.5t26 -40t23 -35.5t16.5 -25z" />
    <glyph glyph-name="O" unicode="O" horiz-adv-x="694" 
d="M338 39q60 0 111.5 25t89.5 69t60 103.5t22 128.5q0 61 -17.5 109t-49 81.5t-74.5 51t-94 17.5q-60 0 -111.5 -25t-89.5 -69t-60 -103.5t-22 -128.5q0 -61 17.5 -109t49 -81.5t74.5 -51t94 -17.5zM335 -10q-61 0 -112.5 23t-89 64t-59 96.5t-21.5 120.5q0 76 25.5 145
t70.5 121t106.5 82.5t133.5 30.5q61 0 112.5 -23t89 -64t59 -96.5t21.5 -120.5q0 -76 -25.5 -145t-70.5 -121t-106.5 -82.5t-133.5 -30.5z" />
    <glyph glyph-name="P" unicode="P" horiz-adv-x="565" 
d="M105 0h-52l80 663h216q56 0 95 -12.5t64 -36.5q23 -23 34 -55t11 -70q0 -50 -17.5 -102t-51.5 -91q-25 -29 -51.5 -40.5t-71.5 -11.5h-227zM139 286h224q37 0 56 9t37 35q21 30 33.5 71t12.5 85q0 64 -30 96q-20 21 -51 29.5t-79 8.5h-162z" />
    <glyph glyph-name="Q" unicode="Q" horiz-adv-x="694" 
d="M335 -10q-61 0 -112.5 23t-89 64t-59 96.5t-21.5 120.5q0 76 25.5 145t70.5 121t106.5 82.5t133.5 30.5q61 0 112.5 -23t89 -64t59 -96.5t21.5 -120.5q0 -54 -13 -104t-36.5 -94t-57 -79.5t-74.5 -59.5l106 -171l-44 -24l-103 175q-53 -22 -114 -22zM338 39
q60 0 111.5 25t89.5 69t60 103.5t22 128.5q0 61 -17.5 109t-49 81.5t-74.5 51t-94 17.5q-60 0 -111.5 -25t-89.5 -69t-60 -103.5t-22 -128.5q0 -61 17.5 -109t49 -81.5t74.5 -51t94 -17.5z" />
    <glyph glyph-name="R" unicode="R" horiz-adv-x="594" 
d="M487 0q-8 0 -11 1.5t-5 6.5l-103 242q-3 8 -6.5 9.5t-12.5 1.5h-213l-31 -261h-52l80 663h222q53 0 89.5 -11.5t62.5 -34.5q45 -43 45 -123q0 -36 -9 -71t-27 -65.5t-43.5 -55t-58.5 -38.5l116 -264h-43zM360 303q33 0 53.5 8.5t38.5 31.5q24 30 36.5 69t12.5 81
q0 64 -32 95q-18 17 -47 24.5t-74 7.5h-168l-38 -317h218z" />
    <glyph glyph-name="S" unicode="S" horiz-adv-x="528" 
d="M32 74l59 -16q40 -11 76.5 -16.5t69.5 -5.5q37 0 70.5 9.5t58.5 29t40 48t15 66.5q0 23 -7 41t-22 34.5t-39.5 32t-59.5 33.5l-58 29q-72 36 -108 71.5t-36 90.5q0 71 59 111.5t160 40.5q21 0 44.5 -2.5t47.5 -6.5t46.5 -9.5t41.5 -11.5l-8 -30l-46 5q-35 4 -68 6.5
t-61 2.5q-36 0 -67 -5.5t-53.5 -18.5t-35 -33t-12.5 -48q0 -19 6.5 -34.5t21.5 -29.5t38.5 -28.5t56.5 -30.5l52 -26q41 -20 70.5 -40t48.5 -41t28 -45.5t9 -53.5q0 -44 -16.5 -81t-46.5 -64t-73.5 -42.5t-97.5 -15.5q-26 0 -54.5 4t-57 11.5t-56 17.5t-50.5 22z" />
    <glyph glyph-name="T" unicode="T" horiz-adv-x="540" 
d="M293 620h-218l6 43h488l-6 -43h-218l-74 -620h-52z" />
    <glyph glyph-name="U" unicode="U" horiz-adv-x="645" 
d="M625 663l-47 -392q-9 -76 -31 -127.5t-59 -86.5q-35 -33 -83 -50t-102 -17q-53 0 -95 15.5t-71 43.5t-44.5 67.5t-15.5 87.5q0 24 2 52t7 66l41 341h52l-42 -346q-5 -36 -7 -63.5t-2 -51.5q0 -74 45 -119t133 -45q46 0 87.5 15.5t69.5 45.5q51 56 66 177l47 387h49z" />
    <glyph glyph-name="V" unicode="V" horiz-adv-x="599" 
d="M110 663q7 0 9 -1.5t4 -6.5l105 -386q8 -30 16.5 -60t16 -58.5t14 -53t11.5 -42.5q16 34 44 89.5t57 114.5l198 396q3 5 5.5 6.5t8.5 1.5h43l-337 -663h-41q-6 0 -8 1.5t-4 6.5l-184 655h42z" />
    <glyph glyph-name="W" unicode="W" horiz-adv-x="930" 
d="M526 663q11 0 12 -8l73 -375l43 -221q16 41 40 99.5t50 121.5l152 375q2 5 4.5 6.5t9.5 1.5h42l-274 -663h-51q-6 0 -8 2t-3 6l-80 406q-12 60 -20.5 110.5t-13.5 77.5q-6 -16 -14 -37t-17 -45t-18.5 -49t-18.5 -49l-165 -422h-49q-6 0 -8 2t-3 6l-134 655h43q10 0 11 -8
l79 -397q9 -47 19 -101.5t17 -94.5q14 39 32.5 84.5t41.5 105.5l162 411h46z" />
    <glyph glyph-name="X" unicode="X" horiz-adv-x="593" 
d="M1 0l278 353l-192 310h45q7 0 9.5 -1.5t6.5 -6.5l166 -268l207 267q5 6 8 7.5t11 1.5h44l-247 -315l216 -348h-44q-12 0 -18 10l-188 305l-237 -306q-5 -6 -8.5 -7.5t-11.5 -1.5h-45z" />
    <glyph glyph-name="Y" unicode="Y" horiz-adv-x="558" 
d="M607 663l-299 -443l-27 -220h-52l27 222l-194 441h44q7 0 9 -1t5 -8l83 -192q28 -64 49 -115t34 -86q27 42 64 98.5t75 112.5l123 182q5 6 7.5 7.5t10.5 1.5h41z" />
    <glyph glyph-name="Z" unicode="Z" horiz-adv-x="512" 
d="M464 43l-5 -43h-447l3 21q1 6 2 9t6 9l316 416q35 46 67.5 89.5t57.5 75.5h-378l6 43h444l-3 -21q-1 -9 -8 -18l-316 -416q-35 -46 -67.5 -89.5t-57.5 -75.5h380z" />
    <glyph glyph-name="a" unicode="a" horiz-adv-x="536" 
d="M476 484l-53 -440l75 -12l-3 -20q-14 -6 -33 -10t-32 -4q-26 0 -40.5 15t-14.5 42l-22 -14q-36 -23 -72 -36t-71 -13q-42 0 -74 16.5t-54 45t-33 66.5t-11 82q0 60 19.5 113.5t52.5 93.5t76.5 63.5t92.5 23.5q62 0 123 -44l22 -16l17 52zM368 90q7 5 8.5 8.5t2.5 8.5
l35 282q1 7 -1 10t-7 7q-27 20 -58 32.5t-67 12.5q-39 0 -74 -17t-61.5 -49.5t-41.5 -78t-15 -102.5q0 -35 7 -65.5t22.5 -53.5t40.5 -36t60 -13t75.5 16t73.5 38z" />
    <glyph glyph-name="b" unicode="b" horiz-adv-x="523" 
d="M145 434l20 13q77 49 144 49q43 0 75.5 -16.5t55 -45t34 -67t11.5 -81.5q0 -60 -19 -113.5t-51.5 -93.5t-76 -63.5t-92.5 -23.5q-32 0 -65 11.5t-64 32.5l-23 16l-17 -52l-35 4l85 705h51zM150 398q-7 -5 -9 -8t-3 -9l-34 -282q-1 -11 8 -18q27 -20 61.5 -32t70.5 -12
q38 0 72.5 17t60.5 49.5t41.5 78t15.5 102.5q0 35 -7.5 65.5t-23.5 53.5t-41 36t-60 13t-77 -16t-75 -38z" />
    <glyph glyph-name="c" unicode="c" horiz-adv-x="487" 
d="M440 65q-45 -32 -98 -52.5t-106 -20.5q-48 0 -85 17t-62.5 46.5t-38.5 69.5t-13 86q0 54 17.5 105.5t49.5 91.5t76.5 64t97.5 24q65 0 112 -37.5t67 -91.5l-32 -16l-23 26q-32 37 -60 56t-68 19q-38 0 -71.5 -17.5t-58.5 -49t-40 -76t-15 -98.5q0 -78 39.5 -126.5
t113.5 -48.5q27 0 59 7t68 23l56 24z" />
    <glyph glyph-name="d" unicode="d" horiz-adv-x="540" 
d="M477 484q-8 -64 -17 -140t-17 -143q-10 -78 -19 -157l78 -12l-3 -20q-14 -6 -33 -10t-32 -4q-26 0 -42 15t-16 42l-22 -14q-35 -23 -72 -36t-72 -13q-42 0 -74 16.5t-54 45t-33 66.5t-11 82q0 60 19.5 113.5t52.5 93.5t77 63.5t93 23.5q62 0 123 -44l18 -13l32 270h51z
M369 90q7 5 8.5 8.5t2.5 8.5l35 282q1 7 -1 10t-7 7q-27 20 -58 32.5t-67 12.5q-39 0 -74.5 -17t-61.5 -49.5t-41.5 -78t-15.5 -102.5q0 -35 7 -65.5t22.5 -53.5t40.5 -36t60 -13t76 16t74 38z" />
    <glyph glyph-name="e" unicode="e" horiz-adv-x="512" 
d="M90 235q-1 -5 -1 -10v-9q0 -40 10 -73t30.5 -57t50.5 -37t70 -13q29 0 60 8t68 23l57 23l14 -24q-43 -31 -97.5 -52.5t-106.5 -21.5q-49 0 -87.5 17.5t-65.5 47.5t-41 70t-14 86q0 57 19.5 108.5t53 90.5t78.5 61.5t96 22.5q43 0 77.5 -17t58.5 -45.5t37 -66t13 -77.5
q0 -33 -6 -44t-23 -11h-351zM423 274q0 81 -37.5 129t-106.5 48q-36 0 -67.5 -14t-55.5 -38.5t-39.5 -56.5t-21.5 -68h328z" />
    <glyph glyph-name="f" unicode="f" horiz-adv-x="325" 
d="M36 474l92 13q-3 11 -5 26.5t-2 31.5q0 39 13.5 71t36.5 54.5t54.5 34.5t67.5 12q32 0 64 -10.5t62 -27.5l-13 -27l-21 6q-25 7 -48 11.5t-44 4.5q-59 0 -91 -34.5t-32 -91.5q0 -17 2 -33.5t5 -26.5h178l-5 -40h-172l-78 -654h-51l78 654h-95z" />
    <glyph glyph-name="g" unicode="g" horiz-adv-x="521" 
d="M374 97q7 5 8.5 8.5t2.5 8.5l34 275q1 7 -1 10t-7 7q-27 20 -58 32.5t-67 12.5q-39 0 -75 -17t-63 -48.5t-43 -77.5t-16 -103q0 -35 8 -64.5t24.5 -51.5t42.5 -34t61 -12t75.5 15.5t73.5 38.5zM358 46q-35 -23 -71.5 -35t-72.5 -12q-42 0 -75 15.5t-55.5 43t-34 64.5
t-11.5 81q0 60 20 113.5t54 93t78.5 63t93.5 23.5q62 0 123 -44l22 -16l17 52l35 -4l-60 -502q-13 -115 -61 -164q-49 -50 -145 -50q-30 0 -66 7.5t-64 18.5l9 28l36 -5q25 -4 46.5 -5.5t35.5 -1.5q39 0 66.5 9t45.5 29q19 20 29.5 53.5t17.5 88.5l9 70z" />
    <glyph glyph-name="h" unicode="h" horiz-adv-x="530" 
d="M127 709h51l-31 -259l31 13q36 15 71.5 24t66.5 9q34 0 63 -9t50 -27t33 -44.5t12 -60.5q0 -14 -1.5 -29.5t-3.5 -35.5l-34 -290h-51l35 295q2 19 3.5 33.5t1.5 25.5q0 46 -30.5 70.5t-88.5 24.5q-34 0 -74.5 -9.5t-78.5 -24.5q-5 -2 -7.5 -4.5t-3.5 -8.5l-48 -402h-51z
" />
    <glyph glyph-name="i" unicode="i" horiz-adv-x="199" 
d="M104 488h51l-58 -488h-51zM121 657h48q11 0 10 -11l-6 -52h-59z" />
    <glyph glyph-name="j" unicode="j" horiz-adv-x="200" 
d="M88 -83q-9 -76 -38 -110q-34 -40 -105 -40q-14 0 -30.5 1.5t-29.5 4.5l4 26l31 2q63 4 87 28q14 14 20 38t11 63l67 558h51zM122 657h48q11 0 10 -11l-6 -52h-59z" />
    <glyph glyph-name="k" unicode="k" horiz-adv-x="504" 
d="M458 0h-46q-11 0 -16 8l-142 254q-20 -15 -40.5 -30.5t-39.5 -29t-35 -25t-27 -18.5l-19 -159h-51l85 709h51l-60 -503l349 285l27 -33l-201 -165z" />
    <glyph glyph-name="l" unicode="l" horiz-adv-x="225" 
d="M186 12q-14 -5 -34.5 -9.5t-35.5 -4.5q-32 0 -47 16t-15 43q0 8 3 35l74 617h51l-80 -664l87 -13z" />
    <glyph glyph-name="m" unicode="m" horiz-adv-x="843" 
d="M135 488l7 -40l36 15q36 15 68.5 24t61.5 9q43 0 76.5 -16t52.5 -45l62 28q38 17 72.5 25t63.5 8q68 0 110 -37t42 -104q0 -14 -1.5 -29.5t-3.5 -35.5l-34 -290h-51l35 295q2 19 3.5 33.5t1.5 25.5q0 46 -27.5 70.5t-85.5 24.5q-34 0 -74 -10.5t-84 -28.5q-9 -4 -11.5 -6
t-0.5 -7q6 -20 6 -42q0 -14 -1.5 -29.5t-3.5 -35.5l-34 -290h-51l35 295q2 19 3.5 33.5t1.5 25.5q0 46 -27.5 70.5t-85.5 24.5q-34 0 -69.5 -9t-75.5 -25q-5 -2 -7.5 -4.5t-3.5 -8.5l-48 -402h-51l58 488h35z" />
    <glyph glyph-name="n" unicode="n" horiz-adv-x="530" 
d="M135 488l7 -40l36 15q36 15 71.5 24t66.5 9q34 0 63 -9t50 -27t33 -44.5t12 -60.5q0 -14 -1.5 -29.5t-3.5 -35.5l-34 -290h-51l35 295q2 19 3.5 33.5t1.5 25.5q0 46 -30.5 70.5t-88.5 24.5q-34 0 -74.5 -9.5t-78.5 -24.5q-5 -2 -7.5 -4.5t-3.5 -8.5l-48 -402h-51l58 488
h35z" />
    <glyph glyph-name="o" unicode="o" horiz-adv-x="521" 
d="M241 38q43 0 78.5 19.5t60.5 52t38.5 75t13.5 87.5q0 85 -41 131.5t-111 46.5q-44 0 -79 -19.5t-60 -52t-38.5 -75t-13.5 -87.5q0 -85 41 -131.5t111 -46.5zM239 -8q-41 0 -77.5 15t-64.5 43.5t-44 69t-16 90.5q0 59 19.5 111t53 91t78 61.5t94.5 22.5q41 0 77.5 -15
t64.5 -43.5t44 -69t16 -90.5q0 -59 -19.5 -111t-53 -91t-78 -61.5t-94.5 -22.5z" />
    <glyph glyph-name="p" unicode="p" horiz-adv-x="524" 
d="M146 434l20 13q77 49 144 49q43 0 75.5 -16.5t55 -45t34 -67t11.5 -81.5q0 -60 -19 -113.5t-51.5 -93.5t-76 -63.5t-92.5 -23.5q-32 0 -65 11.5t-64 32.5l-19 13l-33 -278h-51l86 717h35zM151 398q-7 -5 -9 -8t-3 -9l-34 -282q-1 -11 8 -18q27 -20 61.5 -32t70.5 -12
q38 0 72.5 17t60.5 49.5t41.5 78t15.5 102.5q0 35 -7.5 65.5t-23.5 53.5t-41 36t-60 13t-77 -16t-75 -38z" />
    <glyph glyph-name="q" unicode="q" horiz-adv-x="519" 
d="M342 -229l34 283l-21 -13q-35 -23 -71.5 -36t-71.5 -13q-42 0 -74.5 16.5t-54.5 45t-33.5 66.5t-11.5 82q0 60 19.5 113.5t53 93.5t77.5 63.5t93 23.5q62 0 123 -44l22 -16l17 52l35 -4l-85 -713h-51zM370 90q7 5 8.5 8.5t2.5 8.5l35 282q1 7 -1 10t-7 7q-27 20 -58 32.5
t-67 12.5q-39 0 -74.5 -17t-62 -49.5t-42 -78t-15.5 -102.5q0 -35 7.5 -65.5t23.5 -53.5t41 -36t60 -13t75.5 16t73.5 38z" />
    <glyph glyph-name="r" unicode="r" horiz-adv-x="325" 
d="M141 411l36 20q36 20 59.5 32.5t39.5 20t27 10t20 2.5q15 0 32 -11l-4 -28q-17 -5 -42.5 -14t-53.5 -20t-56 -23t-51 -22q-6 -3 -8 -5.5t-3 -8.5l-44 -364h-51l58 488h39z" />
    <glyph glyph-name="s" unicode="s" horiz-adv-x="428" 
d="M72 49q29 -7 59.5 -11t50.5 -4q35 0 60.5 8t45.5 24q15 13 24 30t9 39q0 32 -21.5 52.5t-75.5 43.5l-45 20q-55 24 -84.5 51t-29.5 70q0 28 13 50.5t35.5 39t53.5 25.5t67 9t75.5 -7.5t73.5 -20.5l-9 -29l-33 5q-26 4 -54 6.5t-53 2.5q-60 0 -91.5 -20.5t-31.5 -57.5
q0 -29 21.5 -46.5t71.5 -39.5l45 -20q59 -26 89.5 -55t30.5 -74q0 -31 -13.5 -58t-37.5 -47t-57.5 -31.5t-73.5 -11.5q-42 0 -88.5 11.5t-79.5 28.5l12 26z" />
    <glyph glyph-name="t" unicode="t" horiz-adv-x="377" 
d="M335 30q-34 -18 -69.5 -28t-67.5 -10q-54 0 -83 30t-29 79q0 14 2 34.5t5 44.5l32 268h-94l4 26l95 14l17 141h51l-17 -141h172l-5 -40h-172l-34 -279q-2 -21 -3.5 -38.5t-1.5 -28.5q0 -32 16 -49.5t54 -17.5q16 0 36 3.5t40 8.5l41 11z" />
    <glyph glyph-name="u" unicode="u" horiz-adv-x="525" 
d="M392 0l-7 40l-36 -15q-38 -16 -71.5 -24.5t-64.5 -8.5q-34 0 -62.5 9t-49.5 27t-32.5 44.5t-11.5 60.5q0 14 1.5 29.5t3.5 35.5l34 290h51l-35 -295q-2 -19 -3.5 -33.5t-1.5 -25.5q0 -46 30 -70.5t87 -24.5q35 0 74 9.5t77 24.5q5 2 7.5 4.5t3.5 8.5l48 402h51l-58 -488
h-35z" />
    <glyph glyph-name="v" unicode="v" horiz-adv-x="473" 
d="M493 488l-259 -488h-42q-6 0 -8 1.5t-4 5.5l-148 481h44q9 0 11 -7l86 -294q12 -42 22 -78.5t17 -62.5q6 12 14.5 28.5t18 35.5t20.5 39.5t21 40.5l151 291q2 4 4.5 5.5t8.5 1.5h43z" />
    <glyph glyph-name="w" unicode="w" horiz-adv-x="751" 
d="M416 488q10 0 12 -8l66 -293q9 -42 16.5 -79.5t11.5 -63.5q11 29 27 66t34 79l128 292q2 5 4 6t8 1h41l-218 -488h-47q-11 0 -13 8l-66 292q-11 46 -17.5 83.5t-9.5 58.5q-8 -21 -21 -58t-33 -85l-122 -299h-45q-7 0 -8.5 1.5t-3.5 6.5l-129 480h42q10 0 12 -8l74 -286
q10 -38 20 -80t15 -69q10 29 25 70.5t29 75.5l119 297h49z" />
    <glyph glyph-name="x" unicode="x" horiz-adv-x="458" 
d="M94 488q8 0 10.5 -1.5t5.5 -6.5l122 -190l155 191q4 5 6.5 6t8.5 1h45l-193 -232l169 -256h-45q-11 0 -16 7l-141 218l-175 -219q-5 -6 -15 -6h-45l213 260l-149 228h44v0z" />
    <glyph glyph-name="y" unicode="y" horiz-adv-x="473" 
d="M77 488q8 0 10 -7l92 -315q10 -35 19 -68t14 -53l63 123l162 313q4 7 13 7h43l-384 -723l-42 16l116 216l-151 491h45z" />
    <glyph glyph-name="z" unicode="z" horiz-adv-x="434" 
d="M177 160q-39 -48 -64 -77t-39 -43h303l-5 -40h-366l2 19q1 7 2 9.5t5 7.5l244 292q39 48 64 77t39 43h-297l5 40h360l-2 -20q-1 -9 -7 -16z" />
    <glyph glyph-name="ampersand" unicode="&#x26;" horiz-adv-x="688" 
d="M473 142q26 31 53 76.5t49 89.5l41 83l32 -8q-28 -76 -67.5 -148.5t-81.5 -124.5l54 -68l88 -11l-2 -20q-15 -6 -33.5 -10.5t-30.5 -4.5q-26 0 -42 10t-36 35l-30 38q-46 -43 -100 -66t-113 -23q-46 0 -86.5 15.5t-70.5 42t-47.5 62.5t-17.5 78q0 36 14 67.5t38.5 59
t57 51.5t69.5 45q-17 25 -26.5 50.5t-9.5 52.5q0 33 14 62t37.5 50.5t54.5 34t66 12.5q30 0 57 -9.5t47 -27t31.5 -41.5t11.5 -53q0 -56 -39.5 -106.5t-123.5 -108.5zM230 384l-10 -7q-32 -22 -57.5 -42.5t-43.5 -42.5t-27.5 -46.5t-9.5 -54.5q0 -32 12 -60t34.5 -49.5
t55.5 -34t74 -12.5q53 0 99.5 20t84.5 55zM358 392q54 46 73.5 80t19.5 66q0 41 -29 66t-77 25q-54 0 -89 -31t-35 -79q0 -16 3.5 -31t12 -31.5t22.5 -36t35 -46.5l17 -22z" />
    <glyph glyph-name="at" unicode="@" horiz-adv-x="718" 
d="M502 402l-26 -212q-3 -27 -3 -39q0 -17 10 -27.5t33 -10.5q31 0 55.5 16t41 43t25 63t8.5 76q0 53 -17.5 95.5t-50 72t-78.5 45t-102 15.5q-66 0 -124 -26t-100.5 -71.5t-67.5 -107.5t-25 -134q0 -59 19 -106.5t53 -80.5t81.5 -50.5t105.5 -17.5q45 0 91 11.5t104 34.5
l69 27l14 -21q-29 -20 -63 -37t-71 -30t-75.5 -20.5t-77.5 -7.5q-63 0 -118 22t-95.5 61t-64 93.5t-23.5 119.5q0 75 27.5 144.5t77 123t118 85.5t149.5 32q65 0 118.5 -21t91.5 -57.5t59 -85t21 -103.5q0 -48 -13 -91.5t-36.5 -76.5t-57 -53t-73.5 -20q-28 0 -48.5 12.5
t-28.5 29.5q-62 -44 -110 -44q-23 0 -44 9.5t-37 28t-25 45t-9 59.5q0 42 13.5 77.5t36 61.5t50.5 40.5t57 14.5q26 0 47 -10t44 -32l15 39zM451 325q1 10 -6 16q-33 26 -75 26q-29 0 -50.5 -13t-36 -34t-21.5 -48.5t-7 -57.5q0 -51 22.5 -75t57.5 -24q23 0 46.5 9.5
t40.5 20.5q8 5 9 15z" />
    <glyph glyph-name="exclam" unicode="!" horiz-adv-x="216" 
d="M134 663h50l-30 -242q-4 -28 -7.5 -59t-11.5 -69l-25 -129h-23l6 130q3 61 12 135zM53 68h55q12 0 11 -11l-6 -57h-67z" />
    <glyph glyph-name="exclamdown" unicode="&#xa1;" horiz-adv-x="216" 
d="M80 -175h-50l30 242q4 28 7.5 59t11.5 69l25 129h23l-6 -130q-3 -61 -12 -135zM161 420h-55q-12 0 -11 11l6 57h67z" />
    <glyph glyph-name="question" unicode="?" horiz-adv-x="452" 
d="M171 164l-2 49q-1 14 -1.5 25t-0.5 15q-1 20 6 30t27 21l33 19q41 24 72.5 44.5t52.5 42t32 46t11 56.5q0 54 -35.5 84.5t-98.5 30.5q-59 0 -137 -28l-58 -21l-14 27q52 32 107 50t102 18q40 0 73.5 -11.5t58 -32.5t38 -50.5t13.5 -65.5q0 -37 -12.5 -67t-35 -55
t-54.5 -46t-70 -41l-62 -32l-20 -108h-25zM141 68h55q12 0 11 -11l-6 -57h-67z" />
    <glyph glyph-name="questiondown" unicode="&#xbf;" horiz-adv-x="452" 
d="M291 324l2 -49q1 -14 1.5 -25t0.5 -15q1 -20 -6 -30t-27 -21l-33 -19q-41 -24 -72.5 -44.5t-52.5 -42t-32 -46t-11 -56.5q0 -54 35.5 -84.5t98.5 -30.5q59 0 137 28l58 21l14 -27q-52 -32 -107 -50t-102 -18q-40 0 -73.5 11.5t-58 32.5t-38 50.5t-13.5 65.5q0 37 12.5 67
t35 55t54.5 46t70 41l62 32l20 108h25zM321 420h-55q-12 0 -11 11l6 57h67z" />
    <glyph glyph-name="asterisk" unicode="*" horiz-adv-x="403" 
d="M308 341q-7 -4 -10.5 -2.5t-7.5 7.5l-63 120l-100 -131l-29 20q-10 7 0 17l106 108l-128 46l17 37q2 5 5.5 7t11.5 -2l108 -64l7 159h38q12 0 9 -13l-28 -147l134 64l9 -32q2 -8 0 -11t-10 -6l-124 -38l87 -119z" />
    <glyph glyph-name="period" unicode="." horiz-adv-x="178" 
d="M37 70h55q12 0 11 -11l-6 -59h-67z" />
    <glyph glyph-name="comma" unicode="," horiz-adv-x="178" 
d="M93 70q8 0 10 -2.5t1 -8.5l-3 -29q-2 -21 -7 -37.5t-16 -34.5t-30 -40.5t-49 -55.5l-18 11l67 111q2 4 2.5 6t-2.5 5l-9 9q-5 5 -6.5 8t-0.5 11l5 47h56z" />
    <glyph glyph-name="colon" unicode=":" horiz-adv-x="178" 
d="M37 70h55q12 0 11 -11l-6 -59h-67zM76 403h55q12 0 11 -11l-6 -59h-67z" />
    <glyph glyph-name="semicolon" unicode=";" horiz-adv-x="178" 
d="M76 403h55q12 0 11 -11l-6 -59h-67zM93 70q8 0 10 -2.5t1 -8.5l-3 -29q-2 -21 -7 -37.5t-16 -34.5t-30 -40.5t-49 -55.5l-18 11l67 111q2 4 2.5 6t-2.5 5l-9 9q-5 5 -6.5 8t-0.5 11l5 47h56z" />
    <glyph glyph-name="ellipsis" unicode="&#x2026;" horiz-adv-x="534" 
d="M37 70h55q12 0 11 -11l-6 -59h-67zM215 70h55q12 0 11 -11l-6 -59h-67zM393 70h55q12 0 11 -11l-6 -59h-67z" />
    <glyph glyph-name="periodcentered" unicode="&#xb7;" horiz-adv-x="178" 
d="M61 315h55q12 0 11 -11l-6 -59h-67z" />
    <glyph glyph-name="bullet" unicode="&#x2022;" horiz-adv-x="327" 
d="M243 194h-165l20 171h146q12 0 15.5 -3.5t1.5 -14.5z" />
    <glyph glyph-name="slash" unicode="/" horiz-adv-x="403" 
d="M-3 0l399 663h51l-399 -663h-51z" />
    <glyph glyph-name="parenleft" unicode="(" horiz-adv-x="285" 
d="M353 653q-53 -50 -97 -108.5t-75.5 -122.5t-49 -133t-17.5 -141q0 -46 7.5 -94t24 -95.5t42.5 -93t63 -86.5l-27 -22q-79 83 -119.5 177.5t-40.5 203.5q0 80 19 155t54.5 143t84.5 128.5t109 111.5l22 -23v0z" />
    <glyph glyph-name="brokenbar" unicode="&#xa6;" horiz-adv-x="214" 
d="M144 709h45l-50 -418h-45zM82 189h45l-50 -418h-45z" />
    <glyph glyph-name="parenright" unicode=")" horiz-adv-x="285" 
d="M-68 -220q53 50 97 108.5t75.5 122.5t49 133t17.5 141q0 46 -7.5 94t-24 95.5t-42.5 93t-63 86.5l27 22q79 -83 119.5 -177.5t40.5 -203.5q0 -80 -19 -155t-54.5 -143t-84.5 -128.5t-109 -111.5l-22 23v0z" />
    <glyph glyph-name="bracketleft" unicode="[" horiz-adv-x="271" 
d="M140 663h184l-5 -43h-134l-97 -806h134l-6 -43h-184z" />
    <glyph glyph-name="backslash" unicode="\" horiz-adv-x="365" 
d="M278 0l-243 663h50l242 -663h-49z" />
    <glyph glyph-name="bracketright" unicode="]" horiz-adv-x="271" 
d="M124 -229h-184l5 43h134l97 806h-134l6 43h184z" />
    <glyph glyph-name="braceleft" unicode="{" horiz-adv-x="301" 
d="M52 233q33 7 56 17.5t37 27t20 40t6 56.5q0 19 -1 41.5t-2.5 46t-2.5 46.5t-1 42q0 58 28 90.5t84 32.5q21 0 43.5 -4t38.5 -9l-3 -22l-71 -7q-22 -2 -36 -7.5t-22.5 -15t-11.5 -24t-3 -35.5q0 -45 3.5 -94t3.5 -81q0 -57 -24.5 -95t-78.5 -61q35 -15 54 -38.5t19 -62.5
q0 -20 -6 -44.5t-15 -58.5l-19 -68q-12 -42 -17.5 -64t-5.5 -38q0 -19 11 -27t34 -10l85 -9l-3 -22q-18 -5 -42.5 -9t-44.5 -4q-42 0 -64.5 22t-22.5 57q0 18 6.5 44.5t18.5 66.5l21 71q8 27 13 50.5t5 42.5q0 38 -21.5 56t-72.5 29z" />
    <glyph glyph-name="bar" unicode="|" horiz-adv-x="214" 
d="M143 709h45l-112 -938h-45z" />
    <glyph glyph-name="braceright" unicode="}" horiz-adv-x="301" 
d="M247 203q-33 -7 -56 -17.5t-37 -27t-20 -40t-6 -56.5q0 -19 1 -41.5t2.5 -46t2.5 -46.5t1 -42q0 -58 -28 -90.5t-84 -32.5q-21 0 -43.5 4t-38.5 9l3 22l71 7q43 4 58 22.5t15 59.5q0 45 -3.5 94t-3.5 81q0 57 24.5 95t78.5 61q-35 15 -54 38.5t-19 62.5q0 20 6 44.5
t15 58.5l19 68q12 42 17.5 64t5.5 38q0 19 -11 27t-34 10l-85 9l3 22q18 5 42.5 9t44.5 4q42 0 64.5 -22t22.5 -57q0 -18 -6.5 -44.5t-18.5 -66.5l-21 -71q-8 -27 -13 -50.5t-5 -42.5q0 -38 21.5 -56t72.5 -29z" />
    <glyph glyph-name="hyphen" unicode="-" horiz-adv-x="383" 
d="M55 224l5 41h269l-5 -41h-269z" />
    <glyph glyph-name="uni00AD" unicode="&#xad;" horiz-adv-x="383" 
d="M55 224l5 41h269l-5 -41h-269z" />
    <glyph glyph-name="endash" unicode="&#x2013;" horiz-adv-x="594" 
d="M55 224l5 41h480l-5 -41h-480z" />
    <glyph glyph-name="emdash" unicode="&#x2014;" horiz-adv-x="1073" 
d="M55 224l5 41h959l-5 -41h-959z" />
    <glyph glyph-name="underscore" unicode="_" horiz-adv-x="383" 
d="M-51 -113l4 37h401l-4 -37h-401z" />
    <glyph glyph-name="dagger" unicode="&#x2020;" horiz-adv-x="498" 
d="M193 -79q2 23 4.5 51t4.5 47l18 146q2 18 5.5 42t9.5 59l16 98q-25 -2 -52 -3.5t-52.5 -3t-48 -2t-38.5 -0.5h-15l6 45h14q15 0 37 -1t47.5 -2t52.5 -3t53 -3l6 87q2 28 4.5 59t4.5 52l9 74h49l-9 -74q-3 -25 -7 -51t-10 -60l-15 -87q27 2 54.5 3.5t53 3t47 2t36.5 0.5
h15l-6 -45h-14q-16 0 -38 1t-47.5 2t-52.5 2.5t-52 3.5l-6 -94q0 -7 -1 -19.5t-2.5 -27t-3.5 -29.5t-3 -27l-17 -139q-3 -27 -7.5 -55t-9.5 -58l-24 -144h-26z" />
    <glyph glyph-name="daggerdbl" unicode="&#x2021;" horiz-adv-x="498" 
d="M271 197q-2 -15 -5 -32t-6.5 -34.5t-6.5 -33t-6 -27.5q25 2 52 3.5t53.5 3t49 2t38.5 0.5h15l-6 -45h-14q-15 0 -37 1t-47.5 2t-53 2.5t-52.5 3.5l-6 -87q-2 -28 -4.5 -59t-4.5 -52l-9 -74h-49l9 74q3 25 7 51t10 60l15 87q-27 -2 -54.5 -3.5t-53 -3t-47 -2t-36.5 -0.5
h-15l6 45h14q16 0 38 -1t47 -2t52 -3t52 -3q2 46 4 84t6 67l2 16q2 15 5 32.5t6 34.5t6 32.5t6 27.5q-25 -2 -52 -3.5t-52.5 -3t-48 -2t-38.5 -0.5h-15l6 45h14q15 0 37 -1t47.5 -2t52.5 -3t53 -3l6 87q2 28 4.5 59t4.5 52l9 74h49l-9 -74q-3 -25 -7 -51t-10 -60l-15 -87
q27 2 54.5 3.5t53 3t47 2t36.5 0.5h15l-6 -45h-14q-16 0 -38 1t-47.5 2t-52.5 2.5t-52 3.5q-2 -46 -4 -84t-6 -67l-2 -16v0z" />
    <glyph glyph-name="section" unicode="&#xa7;" horiz-adv-x="526" 
d="M371 37q24 -21 35.5 -48t11.5 -57q0 -37 -15 -68.5t-43 -55t-66.5 -36.5t-86.5 -13q-42 0 -87.5 12t-86.5 33l14 30l44 -12q35 -9 63 -13.5t56 -4.5q72 0 115 33.5t43 88.5q0 46 -29.5 73t-84.5 50l-75 30q-66 26 -99 59t-33 82q0 53 29 95.5t68 78.5q-24 21 -35.5 48
t-11.5 57q0 37 15 68.5t43 54.5t66.5 36.5t86.5 13.5q42 0 87.5 -12t86.5 -33l-14 -30l-44 12q-35 9 -63 13.5t-56 4.5q-72 0 -115 -33.5t-43 -88.5q0 -46 29.5 -73t84.5 -50l75 -30q66 -26 99 -59t33 -82q0 -53 -29 -95.5t-68 -78.5zM170 374q-32 -31 -54 -68t-22 -76
q0 -34 24 -59.5t88 -51.5l70 -28q21 -8 37.5 -16t31.5 -18q32 31 54 68t22 76q0 34 -24 59.5t-88 51.5l-70 28q-21 8 -37.5 16t-31.5 18z" />
    <glyph glyph-name="paragraph" unicode="&#xb6;" horiz-adv-x="471" 
d="M163 -229l80 671h-161q-13 0 -12 12l25 209h424l-5 -43h-90l-102 -849h-47l102 849h-65l-102 -849h-47z" />
    <glyph glyph-name="registered" unicode="&#xae;" horiz-adv-x="706" 
d="M435 189q-8 0 -10 6l-44 104q-2 5 -9 5h-71l-14 -115h-39l35 290h102q24 0 42 -5t31 -17q10 -9 16 -23t6 -32q0 -32 -17 -58.5t-47 -37.5l52 -117h-33zM305 338h90q11 0 17.5 2t12.5 9q8 11 12 23.5t4 25.5q0 25 -13 36q-8 7 -20.5 9t-29.5 2h-60zM331 -10
q-63 0 -116.5 24.5t-92.5 66.5t-60.5 98t-21.5 119q0 73 27.5 141t76.5 120t116 83t145 31q63 0 116.5 -24.5t92.5 -66.5t60.5 -98t21.5 -119q0 -74 -28 -141.5t-76.5 -119.5t-115.5 -83t-145 -31zM401 630q-73 0 -131.5 -28t-99.5 -74.5t-63 -106.5t-22 -123
q0 -57 18 -105.5t51 -84.5t79 -56t102 -20q72 0 130.5 28t100 74.5t63.5 106.5t22 123q0 57 -18.5 105.5t-51.5 84.5t-79 56t-101 20z" />
    <glyph glyph-name="copyright" unicode="&#xa9;" horiz-adv-x="706" 
d="M480 233q-27 -20 -61.5 -34t-65.5 -14q-29 0 -52 10.5t-38.5 28.5t-23.5 42.5t-8 52.5q0 31 11 60.5t30.5 52.5t46.5 37t58 14q41 0 70.5 -24t42.5 -57l-22 -14l-23 23q-18 18 -34 27t-37 9q-24 0 -43 -10.5t-32.5 -28.5t-20.5 -41t-7 -47q0 -45 22.5 -71.5t61.5 -26.5
q17 0 36 4.5t45 14.5l32 12zM331 -10q-63 0 -116.5 24.5t-92.5 66.5t-60.5 98t-21.5 119q0 73 27.5 141t76.5 120t116 83t145 31q63 0 116.5 -24.5t92.5 -66.5t60.5 -98t21.5 -119q0 -74 -28 -141.5t-76.5 -119.5t-115.5 -83t-145 -31zM401 630q-73 0 -131.5 -28
t-99.5 -74.5t-63 -106.5t-22 -123q0 -57 18 -105.5t51 -84.5t79 -56t102 -20q72 0 130.5 28t100 74.5t63.5 106.5t22 123q0 57 -18.5 105.5t-51.5 84.5t-79 56t-101 20z" />
    <glyph glyph-name="trademark" unicode="&#x2122;" horiz-adv-x="650" 
d="M656 663l-37 -307h-40l29 235l-115 -128h-17q-7 0 -11 6l-85 126l-29 -239h-39l37 307h25q5 0 7 -0.5t5 -5.5l99 -150l135 150q4 4 6.5 5t8.5 1h21zM166 356h-43l33 272h-98l4 35h237l-4 -35h-96z" />
    <glyph glyph-name="quotedblleft" unicode="&#x201c;" horiz-adv-x="316" 
d="M229 451q-8 0 -10 2.5t-1 8.5l3 29q2 21 7 37.5t16 34.5t30 40.5t49 55.5l18 -11l-67 -111q-2 -4 -2.5 -6t2.5 -5l9 -9q5 -5 6.5 -8t0.5 -11l-5 -47h-56zM97 451q-8 0 -10 2.5t-1 8.5l3 29q2 21 7 37.5t16 34.5t30 40.5t49 55.5l18 -11l-67 -111q-2 -4 -2.5 -6t2.5 -5
l9 -9q5 -5 6.5 -8t0.5 -11l-5 -47h-56z" />
    <glyph glyph-name="quotedblright" unicode="&#x201d;" horiz-adv-x="316" 
d="M172 663q8 0 10 -2.5t1 -8.5l-3 -29q-2 -21 -7 -37.5t-16 -34.5t-30 -40.5t-49 -55.5l-18 11l67 111q4 7 0 11l-9 9q-5 5 -6.5 8t-0.5 11l5 47h56zM304 663q8 0 10 -2.5t1 -8.5l-3 -29q-2 -21 -7 -37.5t-16 -34.5t-30 -40.5t-49 -55.5l-18 11l67 111q4 7 0 11l-9 9
q-5 5 -6.5 8t-0.5 11l5 47h56z" />
    <glyph glyph-name="quoteleft" unicode="&#x2018;" horiz-adv-x="184" 
d="M97 451q-8 0 -10 2.5t-1 8.5l3 29q2 21 7 37.5t16 34.5t30 40.5t49 55.5l18 -11l-67 -111q-2 -4 -2.5 -6t2.5 -5l9 -9q5 -5 6.5 -8t0.5 -11l-5 -47h-56z" />
    <glyph glyph-name="quoteright" unicode="&#x2019;" horiz-adv-x="184" 
d="M172 663q8 0 10 -2.5t1 -8.5l-3 -29q-2 -21 -7 -37.5t-16 -34.5t-30 -40.5t-49 -55.5l-18 11l67 111q4 7 0 11l-9 9q-5 5 -6.5 8t-0.5 11l5 47h56z" />
    <glyph glyph-name="guillemotleft" unicode="&#xab;" horiz-adv-x="539" 
d="M232 64l-166 156q-5 5 -6.5 8t-0.5 10l3 27l214 163l19 -22l-183 -160l144 -160zM448 64l-166 156q-5 5 -6.5 8t-0.5 10l3 27l214 163l19 -22l-183 -160l144 -160z" />
    <glyph glyph-name="guillemotright" unicode="&#xbb;" horiz-adv-x="539" 
d="M306 428l166 -156q5 -5 6.5 -8t0.5 -10l-3 -27l-214 -163l-19 22l183 160l-144 160zM90 428l166 -156q5 -5 6.5 -8t0.5 -10l-3 -27l-214 -163l-19 22l183 160l-144 160z" />
    <glyph glyph-name="guilsinglleft" unicode="&#x2039;" horiz-adv-x="323" 
d="M232 64l-166 156q-5 5 -6.5 8t-0.5 10l3 27l214 163l19 -22l-183 -160l144 -160z" />
    <glyph glyph-name="guilsinglright" unicode="&#x203a;" horiz-adv-x="323" 
d="M90 428l166 -156q5 -5 6.5 -8t0.5 -10l-3 -27l-214 -163l-19 22l183 160l-144 160z" />
    <glyph glyph-name="quotesinglbase" unicode="&#x201a;" horiz-adv-x="188" 
d="M92 65q8 0 10 -2.5t1 -8.5l-3 -29q-2 -21 -7 -37.5t-16 -34.5t-30 -40.5t-49 -55.5l-18 11l67 111q2 4 2.5 6t-2.5 5l-9 9q-5 5 -6.5 8t-0.5 11l5 47h56z" />
    <glyph glyph-name="quotedblbase" unicode="&#x201e;" horiz-adv-x="320" 
d="M92 65q8 0 10 -2.5t1 -8.5l-3 -29q-2 -21 -7 -37.5t-16 -34.5t-30 -40.5t-49 -55.5l-18 11l67 111q2 4 2.5 6t-2.5 5l-9 9q-5 5 -6.5 8t-0.5 11l5 47h56zM224 65q8 0 10 -2.5t1 -8.5l-3 -29q-2 -21 -7 -37.5t-16 -34.5t-30 -40.5t-49 -55.5l-18 11l67 111q2 4 2.5 6
t-2.5 5l-9 9q-5 5 -6.5 8t-0.5 11l5 47h56z" />
    <glyph glyph-name="ordfeminine" unicode="&#xaa;" horiz-adv-x="448" 
d="M423 665q-10 -90 -20.5 -178.5t-20.5 -178.5l60 -15l-2 -17q-10 -4 -25.5 -7.5t-29.5 -3.5q-22 0 -34.5 12t-13.5 29l-31 -18q-24 -14 -49.5 -21.5t-48.5 -7.5q-33 0 -61 13t-47.5 36.5t-30.5 56t-11 70.5q0 51 16.5 94.5t45 75.5t66 50t78.5 18q26 0 48.5 -8t42.5 -22
l24 -16l16 40zM327 337q8 5 10.5 8t3.5 11l27 226q1 14 -9 20q-18 12 -43.5 20t-50.5 8q-32 0 -60.5 -12t-50.5 -36.5t-34.5 -61.5t-12.5 -86q0 -63 27.5 -97.5t81.5 -34.5q29 0 58.5 10.5t52.5 24.5z" />
    <glyph glyph-name="ordmasculine" unicode="&#xba;" horiz-adv-x="448" 
d="M438 487q0 -45 -15.5 -86.5t-43 -73t-65.5 -50t-83 -18.5q-39 0 -70.5 15t-54.5 40.5t-35.5 59t-12.5 71.5q0 45 15.5 86.5t43 73t65.5 50t83 18.5q39 0 70.5 -15t54.5 -40.5t35.5 -59t12.5 -71.5zM389 483q0 32 -8.5 59t-25 46.5t-40 30t-53.5 10.5q-35 0 -64 -14
t-49 -38.5t-31 -57.5t-11 -70q0 -32 8.5 -59t25 -46.5t40 -30t53.5 -10.5q35 0 63.5 14t49 38.5t31.5 57.5t11 70z" />
    <glyph glyph-name="arrowleft" unicode="&#x2190;" horiz-adv-x="769" 
d="M263 455l24 -24l-152 -163h564v-43h-564l152 -165l-24 -24l-192 190v29q0 9 5 14z" />
    <glyph glyph-name="arrowup" unicode="&#x2191;" horiz-adv-x="769" 
d="M594 367l-24 -24l-161 151v-564h-46v565l-164 -152l-24 24l191 191h28q10 0 15 -5z" />
    <glyph glyph-name="arrowright" unicode="&#x2192;" horiz-adv-x="769" 
d="M507 38l-24 24l152 163h-564v43h564l-152 165l24 24l192 -190v-29q0 -9 -5 -14z" />
    <glyph glyph-name="arrowdown" unicode="&#x2193;" horiz-adv-x="769" 
d="M175 121l24 24l161 -151v564h46v-565l164 152l24 -24l-191 -191h-28q-10 0 -15 5z" />
    <glyph glyph-name="uni2196" unicode="&#x2196;" horiz-adv-x="769" 
d="M444 479v-34l-221 -8l398 -398l-32 -32l-399 400l-8 -224h-35v269l20 21q6 6 14 6h263z" />
    <glyph glyph-name="uni2197" unicode="&#x2197;" horiz-adv-x="769" 
d="M620 183h-34l-7 222l-399 -398l-32 31l398 398l-222 9v34h269l21 -20q6 -6 6 -13v-263z" />
    <glyph glyph-name="uni2198" unicode="&#x2198;" horiz-adv-x="769" 
d="M324 8v34l222 9l-399 398l33 31l399 -399l8 224h34v-270l-20 -20q-7 -7 -15 -7h-262z" />
    <glyph glyph-name="uni2199" unicode="&#x2199;" horiz-adv-x="769" 
d="M148 303h34l8 -222l399 399l31 -32l-398 -398l223 -9v-34h-270l-20 19q-7 7 -7 13v264z" />
    <glyph glyph-name="zero" unicode="0" 
d="M261 36q54 0 95.5 33.5t70 86t43.5 117t15 126.5q0 51 -10 93t-28.5 72t-46 46.5t-62.5 16.5q-54 0 -95.5 -33.5t-70 -86t-43.5 -117t-15 -126.5q0 -51 10 -93t28.5 -72t46 -46.5t62.5 -16.5zM260 -10q-38 0 -73.5 17t-63 51.5t-44 85t-16.5 118.5q0 72 19.5 145
t55.5 132.5t87 96.5t114 37q38 0 73.5 -17t63 -51.5t44 -85.5t16.5 -118q0 -72 -19.5 -145t-55.5 -132.5t-87 -96.5t-114 -37z" />
    <glyph glyph-name="one" unicode="1" 
d="M101 41h177l69 568q-18 -9 -47 -22t-51 -22l-87 -35l-15 31l201 93q13 6 19.5 7.5t17.5 1.5h18l-75 -622h153l-5 -41h-380z" />
    <glyph glyph-name="two" unicode="2" 
d="M461 0h-400l4 29q2 8 3.5 11.5t5.5 7.5l215 215q37 37 67 69.5t51.5 62.5t33 59.5t11.5 60.5q0 59 -34.5 85.5t-92.5 26.5q-26 0 -57.5 -6t-69.5 -17l-68 -19l-12 31q63 27 115 42t100 15q37 0 68 -10.5t53.5 -30.5t35.5 -49t13 -66q0 -36 -12.5 -69.5t-36 -67.5
t-57.5 -70.5t-78 -78.5l-198 -188h346z" />
    <glyph glyph-name="three" unicode="3" 
d="M116 68q37 -15 72.5 -23.5t70.5 -8.5q38 0 71.5 11.5t58 33.5t39 53.5t14.5 70.5q0 59 -29 86q-17 16 -43.5 22t-66.5 6h-50q-10 0 -9 8l4 33h91q23 0 37 5.5t25 18.5q20 24 34.5 59t14.5 78q0 57 -34.5 81.5t-92.5 24.5q-31 0 -63 -5.5t-72 -16.5l-57 -15l-12 30
q54 23 106 38t103 15q76 0 123.5 -38.5t47.5 -107.5q0 -54 -22 -100t-61 -84q38 -19 57.5 -54.5t19.5 -83.5q0 -47 -18.5 -86.5t-50.5 -68t-74.5 -44.5t-90.5 -16q-63 0 -121.5 23t-107.5 55l18 28z" />
    <glyph glyph-name="four" unicode="4" 
d="M432 652q6 7 9.5 9t11.5 2h36l-54 -445h100l-4 -42h-101l-21 -176h-49l21 176h-339l3 27q1 6 2.5 9.5t7.5 10.5zM386 218l46 376l-87 -101l-161 -184l-80 -91h282z" />
    <glyph glyph-name="five" unicode="5" 
d="M128 332q-4 2 -5 4.5t0 9.5l38 317h344l-5 -44h-297l-17 -140q-5 -37 -8.5 -64t-7.5 -52q38 16 75.5 25t69.5 9q39 0 72 -12t58 -35t39 -56t14 -75q0 -48 -17 -89.5t-47.5 -72.5t-73.5 -49t-95 -18q-54 0 -108.5 19t-104.5 51l17 27l46 -17q48 -18 81 -26t69 -8
q40 0 73.5 13.5t57.5 37.5t37.5 57.5t13.5 74.5q0 69 -39 102t-105 33q-40 0 -76 -9.5t-71 -22.5q-5 -2 -7.5 -1.5t-6.5 2.5z" />
    <glyph glyph-name="six" unicode="6" 
d="M162 356q47 24 91 38t89 14q33 0 64.5 -10.5t56.5 -32.5t40 -54.5t15 -76.5q0 -45 -17 -89t-47.5 -78.5t-72.5 -55.5t-92 -21q-48 0 -87 19t-67 54.5t-43.5 85t-15.5 110.5q0 74 21 148t61.5 133t100 96t136.5 37q30 0 62.5 -8.5t64.5 -22.5l-13 -31q-31 8 -60 12t-58 4
q-54 0 -98.5 -23t-77.5 -62t-54 -91t-28 -110zM127 257q0 -47 10.5 -88t31.5 -71t51 -47t69 -17q38 0 71 16.5t57 44.5t38 64.5t14 76.5q0 60 -36.5 93.5t-99.5 33.5q-43 0 -90.5 -14.5t-94.5 -40.5q-15 -8 -18 -17t-3 -34z" />
    <glyph glyph-name="seven" unicode="7" 
d="M147 0q6 38 14.5 70.5t23 66t36.5 70.5t55 85l223 327h-389l5 44h442l-3 -28q-1 -5 -3 -10t-9 -16l-222 -332q-32 -48 -52.5 -83t-33.5 -65.5t-21.5 -61t-15.5 -67.5h-50z" />
    <glyph glyph-name="eight" unicode="8" 
d="M280 -10q-49 0 -91 15t-73.5 41t-49.5 62t-18 77q0 33 12.5 62.5t33 55.5t47.5 47t57 37q-31 21 -52 52t-21 68q0 34 15.5 64.5t43 53t65.5 35.5t82 13q42 0 77.5 -12.5t61 -34t39.5 -51t14 -62.5q0 -47 -28.5 -91.5t-91.5 -92.5q55 -31 85 -66t30 -80q0 -43 -20 -78.5
t-53 -61t-76 -39.5t-89 -14zM247 360q-8 4 -12.5 4.5t-12.5 -4.5q-53 -30 -89 -73.5t-36 -101.5q0 -32 14 -59.5t39 -47.5t58.5 -31.5t72.5 -11.5q40 0 74.5 11t59.5 30t39 45.5t14 58.5q0 34 -26 64.5t-86 60.5zM356 354q6 -3 10.5 -4t10.5 4q42 34 71 74.5t29 83.5
q0 28 -11.5 50t-31.5 36.5t-47 22t-58 7.5q-30 0 -58.5 -8t-50.5 -23t-35 -36.5t-13 -48.5q0 -43 33 -71t89 -56z" />
    <glyph glyph-name="nine" unicode="9" 
d="M427 306q-44 -24 -88.5 -37.5t-90.5 -13.5q-35 0 -67 13t-56 37t-38.5 58t-14.5 76q0 49 18 92t49 74.5t72 49.5t87 18q48 0 88 -19.5t68.5 -54.5t44 -84.5t15.5 -110.5q0 -72 -17 -145.5t-53 -133t-91.5 -97.5t-132.5 -38q-32 0 -68.5 8.5t-67.5 23.5l13 30
q29 -7 62.5 -12t59.5 -5q55 0 96 23t70 62.5t46.5 91.5t24.5 110zM463 406q0 47 -10 88t-31 71t-52.5 47t-73.5 17q-37 0 -69 -13.5t-55.5 -38.5t-37 -59.5t-13.5 -77.5q0 -64 36.5 -102t99.5 -38q44 0 89.5 14t91.5 38q17 9 21 19t4 35z" />
    <glyph glyph-name="dollar" unicode="$" 
d="M53 74l59 -16q36 -10 69 -15.5t64 -6.5l37 310l-26 13q-72 36 -108 71.5t-36 90.5q0 69 56.5 109.5t153.5 42.5l19 93h34l-12 -94q38 -3 77.5 -10.5t70.5 -18.5l-8 -30l-46 5q-26 2 -51 4.5t-48 3.5l-31 -250q44 -21 75 -41.5t51 -42t29 -46t9 -53.5q0 -42 -14.5 -77.5
t-41.5 -62t-66 -43t-88 -19.5l-19 -95h-34l11 95q-49 2 -103.5 16.5t-96.5 37.5zM442 189q0 22 -6.5 40t-20.5 34t-37.5 31t-56.5 32l-35 -289q32 3 60.5 14.5t49.5 30.5t33.5 46t12.5 61zM160 522q0 -19 7 -34.5t22 -30t39.5 -29t59.5 -32.5l28 231q-34 -1 -62.5 -7.5
t-49.5 -19t-32.5 -32t-11.5 -46.5z" />
    <glyph glyph-name="cent" unicode="&#xa2;" 
d="M485 65q-42 -30 -92 -50.5t-101 -22.5l-20 -96h-32l12 98q-41 5 -72.5 23.5t-53.5 47.5t-33 66.5t-11 79.5q0 53 17 103t47.5 89.5t73 64.5t93.5 27l20 93h32l-12 -95q54 -8 93 -43t56 -83l-32 -16l-23 26q-26 29 -49 47.5t-51 24.5l-50 -413q51 1 117 30l56 24zM134 211
q0 -70 31.5 -116.5t91.5 -56.5l50 413q-36 -3 -67.5 -21t-55 -49.5t-37 -74.5t-13.5 -95z" />
    <glyph glyph-name="Euro" unicode="&#x20ac;" 
d="M526 56q-47 -31 -98 -48.5t-98 -17.5q-48 0 -87 18.5t-66.5 52.5t-42.5 81.5t-16 105.5h-80l3 29l77 7q1 18 3.5 39.5t5.5 42.5h-77l3 28l81 8q13 55 38 104t59.5 86t76.5 59t90 22q60 0 105.5 -35t71.5 -89l-28 -16l-41 40q-30 29 -54.5 42.5t-56.5 13.5
q-40 0 -73.5 -18t-60 -49t-46 -72t-30.5 -86h210l-5 -38h-213q-3 -19 -5.5 -39.5t-3.5 -39.5h213l-5 -39h-209q2 -100 46 -157.5t125 -57.5q26 0 57 8t70 23l47 18z" />
    <glyph glyph-name="florin" unicode="&#x192;" 
d="M256 -49q-6 -48 -19 -83.5t-36 -58.5q-23 -25 -56.5 -37t-75.5 -12q-24 0 -51 5.5t-46 13.5l9 30q21 -3 43 -4.5t38 -1.5q76 0 107 34q17 18 26.5 49t14.5 76l38 316h-108l3 26l109 12l20 167q6 48 19 83t36 58q23 25 56.5 37t75.5 12q24 0 50 -5.5t45 -13.5l-9 -30
q-21 3 -42 4.5t-37 1.5q-38 0 -64 -8t-43 -26t-26.5 -48.5t-14.5 -75.5l-19 -155h180l-4 -39h-180z" />
    <glyph glyph-name="sterling" unicode="&#xa3;" 
d="M510 42l-5 -42h-431l3 24q1 7 2.5 10t7.5 11l31 35q19 21 31.5 38.5t20 33.5t10.5 32.5t3 36.5q0 23 -3.5 44.5t-8.5 43.5h-95l4 26l82 10q-8 32 -14.5 65.5t-6.5 62.5q0 42 14.5 78.5t41 63.5t64.5 42.5t85 15.5q51 0 102.5 -21t96.5 -59l-21 -27l-60 30
q-33 17 -62.5 24t-59.5 7q-38 0 -66.5 -11.5t-48 -32t-29.5 -48t-10 -59.5q0 -29 7 -63t15 -67h216l-4 -37h-204q5 -23 8.5 -45t3.5 -46q0 -39 -17.5 -75t-58.5 -79l-21 -22h377z" />
    <glyph glyph-name="yen" unicode="&#xa5;" 
d="M257 247l-178 416h42q7 0 9 -1.5t5 -8.5l95 -228q19 -45 35.5 -85.5t31.5 -78.5q21 35 50 80.5t60 92.5l144 218q5 8 8 9.5t10 1.5h42l-277 -416h128l-5 -38h-141l-6 -51h142l-5 -39h-142l-14 -119h-50l14 119h-141l5 39h141l6 51h-141l5 38h127z" />
    <glyph glyph-name="numbersign" unicode="#" 
d="M137 196h-86l5 41h93l54 188h-124l5 41h132l56 197h46l-56 -197h153l56 197h46l-56 -197h87l-5 -41h-95l-54 -188h127l-5 -41h-132l-58 -196h-46l56 196h-153l-56 -196h-46zM195 237h153l54 188h-153z" />
    <glyph glyph-name="percent" unicode="%" horiz-adv-x="841" 
d="M235 371q30 0 54 11.5t41.5 31t26.5 45.5t9 56q0 50 -28 83t-76 33q-30 0 -54 -11.5t-41.5 -31t-26.5 -45.5t-9 -56q0 -50 28 -83t76 -33zM212 0l397 663h49l-397 -663h-49zM235 329q-34 0 -61.5 12.5t-46.5 33.5t-29.5 49.5t-10.5 61.5q0 37 13.5 70.5t37 59.5
t55.5 41.5t69 15.5q34 0 61.5 -12.5t46.5 -33.5t29.5 -49.5t10.5 -61.5q0 -37 -13.5 -70.5t-37 -59.5t-55.5 -41.5t-69 -15.5zM609 32q30 0 54 11.5t41.5 31t26.5 45.5t9 56q0 50 -28 83t-76 33q-30 0 -54 -11.5t-41.5 -31t-26.5 -45.5t-9 -56q0 -50 28 -83t76 -33zM609 -10
q-34 0 -61.5 12.5t-46.5 33.5t-29.5 49.5t-10.5 61.5q0 37 13.5 70.5t37 59.5t55.5 41.5t69 15.5q34 0 61.5 -12.5t46.5 -33.5t29.5 -49.5t10.5 -61.5q0 -37 -13.5 -70.5t-37 -59.5t-55.5 -41.5t-69 -15.5z" />
    <glyph glyph-name="perthousand" unicode="&#x2030;" horiz-adv-x="1205" 
d="M235 371q30 0 54 11.5t41.5 31t26.5 45.5t9 56q0 50 -28 83t-76 33q-30 0 -54 -11.5t-41.5 -31t-26.5 -45.5t-9 -56q0 -50 28 -83t76 -33zM212 0l397 663h49l-397 -663h-49zM235 329q-34 0 -61.5 12.5t-46.5 33.5t-29.5 49.5t-10.5 61.5q0 37 13.5 70.5t37 59.5
t55.5 41.5t69 15.5q34 0 61.5 -12.5t46.5 -33.5t29.5 -49.5t10.5 -61.5q0 -37 -13.5 -70.5t-37 -59.5t-55.5 -41.5t-69 -15.5zM609 32q30 0 54 11.5t41.5 31t26.5 45.5t9 56q0 50 -28 83t-76 33q-30 0 -54 -11.5t-41.5 -31t-26.5 -45.5t-9 -56q0 -50 28 -83t76 -33zM609 -10
q-34 0 -61.5 12.5t-46.5 33.5t-29.5 49.5t-10.5 61.5q0 37 13.5 70.5t37 59.5t55.5 41.5t69 15.5q34 0 61.5 -12.5t46.5 -33.5t29.5 -49.5t10.5 -61.5q0 -37 -13.5 -70.5t-37 -59.5t-55.5 -41.5t-69 -15.5zM973 32q30 0 54 11.5t41.5 31t26.5 45.5t9 56q0 50 -28 83t-76 33
q-30 0 -54 -11.5t-41.5 -31t-26.5 -45.5t-9 -56q0 -50 28 -83t76 -33zM973 -10q-34 0 -61.5 12.5t-46.5 33.5t-29.5 49.5t-10.5 61.5q0 37 13.5 70.5t37 59.5t55.5 41.5t69 15.5q34 0 61.5 -12.5t46.5 -33.5t29.5 -49.5t10.5 -61.5q0 -37 -13.5 -70.5t-37 -59.5t-55.5 -41.5
t-69 -15.5z" />
    <glyph glyph-name="plus" unicode="+" horiz-adv-x="495" 
d="M247 423h43l-19 -157h152l-4 -41h-153l-19 -157h-43l19 157h-152l4 41h153z" />
    <glyph glyph-name="minus" unicode="&#x2212;" horiz-adv-x="495" 
d="M423 266l-4 -41h-348l4 41h348z" />
    <glyph glyph-name="multiply" unicode="&#xd7;" horiz-adv-x="495" 
d="M373 386l27 -29l-124 -112l96 -112l-33 -27l-95 110l-122 -110l-27 29l124 111l-96 112l33 28l94 -111z" />
    <glyph glyph-name="less" unicode="&#x3c;" horiz-adv-x="495" 
d="M438 426l-5 -46l-314 -136l281 -133l-6 -46l-328 161l5 39z" />
    <glyph glyph-name="divide" unicode="&#xf7;" horiz-adv-x="495" 
d="M423 266l-4 -41h-348l4 41h348zM237 436h54q11 0 10 -10l-7 -61h-65zM200 127h54q11 0 10 -10l-7 -61h-65z" />
    <glyph glyph-name="equal" unicode="=" horiz-adv-x="495" 
d="M434 354l-4 -41h-348l4 41h348zM413 179l-4 -41h-348l4 41h348z" />
    <glyph glyph-name="logicalnot" unicode="&#xac;" horiz-adv-x="495" 
d="M426 354l-27 -215h-41l21 174h-306l5 41h348z" />
    <glyph glyph-name="greater" unicode="&#x3e;" horiz-adv-x="495" 
d="M56 65l6 46l313 135l-280 134l5 46l328 -162l-4 -38z" />
    <glyph glyph-name="notequal" unicode="&#x2260;" horiz-adv-x="495" 
d="M434 354l-5 -41h-121l-75 -134h180l-5 -42h-198l-62 -111l-35 14l55 97h-108l5 42h126l75 134h-184l5 41h201l63 112l35 -14l-55 -98h103z" />
    <glyph glyph-name="approxequal" unicode="&#x2248;" horiz-adv-x="495" 
d="M332 279q-21 0 -41 7t-38.5 15t-37 15t-36.5 7q-29 0 -47 -11.5t-38 -35.5l-25 11q23 38 51.5 59t59.5 21q21 0 40.5 -7t38.5 -15.5t37 -15.5t36 -7q29 0 47.5 11.5t38.5 35.5l24 -11q-23 -38 -51 -58.5t-59 -20.5zM314 123q-21 0 -41 7t-38.5 15t-37 15t-36.5 7
q-29 0 -47 -11.5t-38 -35.5l-25 11q23 38 51.5 59t59.5 21q21 0 40.5 -7t38.5 -15.5t37 -15.5t36 -7q29 0 47.5 11.5t38.5 35.5l24 -11q-23 -38 -51 -58.5t-59 -20.5z" />
    <glyph glyph-name="plusminus" unicode="&#xb1;" horiz-adv-x="495" 
d="M264 488h43l-18 -155h152l-5 -41h-152l-19 -154h-43l19 154h-153l5 41h153zM406 41l-4 -41h-348l4 41h348z" />
    <glyph glyph-name="lessequal" unicode="&#x2264;" horiz-adv-x="495" 
d="M460 490l-6 -46l-313 -132l282 -129l-6 -46l-329 157l5 39zM406 41l-4 -41h-348l4 41h348z" />
    <glyph glyph-name="greaterequal" unicode="&#x2265;" horiz-adv-x="495" 
d="M69 137l6 46l313 132l-282 129l6 46l329 -157l-5 -38zM406 41l-4 -41h-348l4 41h348z" />
    <glyph glyph-name="asciicircum" unicode="^" horiz-adv-x="495" 
d="M452 459l-38 -23l-121 193l-169 -193l-30 26l183 211h41z" />
    <glyph glyph-name="asciitilde" unicode="~" horiz-adv-x="495" 
d="M345 290q-22 0 -42 7t-39 15t-37 15t-36 7q-29 0 -47.5 -11.5t-38.5 -35.5l-24 12q23 38 50.5 58.5t59.5 20.5q21 0 41 -7t38.5 -15.5t37 -15.5t36.5 -7q29 0 48 12t39 36l23 -12q-22 -38 -49 -58.5t-60 -20.5z" />
    <glyph glyph-name="lozenge" unicode="&#x25ca;" horiz-adv-x="570" 
d="M63 315q-5 9 -5 16t8 16l257 316h24q7 0 11 -7l177 -308q5 -9 5 -15.5t-8 -16.5l-255 -316h-25q-7 0 -11 6zM491 334l-157 275l-226 -280l157 -276z" />
    <glyph glyph-name="degree" unicode="&#xb0;" horiz-adv-x="400" 
d="M388 522q0 -33 -12.5 -64.5t-35 -56t-52.5 -39.5t-66 -15q-31 0 -57 11.5t-45 31.5t-29.5 48t-10.5 60q0 33 12.5 64.5t35 56t52.5 39.5t66 15q31 0 57 -11.5t45 -32t29.5 -48t10.5 -59.5zM342 522q0 48 -26 78t-71 30q-29 0 -51 -11t-37 -29.5t-23 -42.5t-8 -49
q0 -48 26 -78t71 -30q28 0 50.5 11t37.5 29.5t23 42t8 49.5z" />
    <glyph glyph-name="quotesingle" unicode="'" horiz-adv-x="209" 
d="M135 420h-26l3 103q1 24 3 49.5t5 51.5l5 39h53l-4 -39q-2 -23 -6.5 -47.5t-12.5 -63.5z" />
    <glyph glyph-name="quotedbl" unicode="&#x22;" horiz-adv-x="347" 
d="M135 420h-26l3 103q1 24 3 49.5t5 51.5l5 39h53l-4 -39q-2 -23 -6.5 -47.5t-12.5 -63.5zM273 420h-26l3 103q1 24 3 49.5t5 51.5l5 39h53l-4 -39q-2 -23 -6.5 -47.5t-12.5 -63.5z" />
    <glyph glyph-name="radical" unicode="&#x221a;" horiz-adv-x="656" 
d="M760 793l-411 -793h-42q-6 0 -8 1.5t-4 5.5l-135 441h-85l6 40h110q9 0 12 -8l87 -296q11 -40 20 -71t17 -63h2q14 29 28.5 59.5t34.5 68.5l311 607q2 5 4.5 6.5t8.5 1.5h44z" />
    <glyph glyph-name="currency" unicode="&#xa4;" 
d="M285 168q34 0 63 15.5t49 41t31.5 59t11.5 70.5q0 66 -33 102.5t-89 36.5q-35 0 -63.5 -15.5t-48.5 -41t-31.5 -59t-11.5 -70.5q0 -66 33 -102.5t89 -36.5zM280 124q-38 0 -69.5 14.5t-53.5 41.5l-78 -70l-29 30l85 74q-19 40 -19 88q0 42 12.5 80.5t34.5 69.5l-65 70
l34 29l60 -67q26 25 59.5 39t71.5 14t69.5 -14.5t53.5 -41.5l78 70l29 -30l-85 -74q19 -40 19 -88q0 -42 -12.5 -80.5t-34.5 -69.5l65 -70l-34 -29l-60 67q-26 -25 -59.5 -39t-71.5 -14z" />
    <glyph glyph-name="infinity" unicode="&#x221e;" horiz-adv-x="698" 
d="M242 483q-33 0 -57.5 -16.5t-40.5 -43t-24 -60t-8 -68.5q0 -26 5.5 -48.5t16.5 -40t28 -27.5t41 -10q22 0 40 12t36 37t38.5 63.5t47.5 91.5q5 8 4 12.5t-6 11.5q-30 40 -58 63t-63 23zM342 231q-29 -51 -63.5 -78t-77.5 -27q-60 0 -97 45.5t-37 123.5q0 46 13 88.5
t36.5 74t55 50.5t69.5 19q44 0 80.5 -27.5t69.5 -78.5q29 51 63.5 78t77.5 27q60 0 97 -45.5t37 -123.5q0 -47 -13 -89t-36.5 -73.5t-55.5 -50.5t-69 -19q-44 0 -80.5 27.5t-69.5 78.5zM491 169q33 0 57.5 16.5t40.5 43t24 60t8 68.5q0 25 -5.5 48t-16.5 40.5t-28 27.5
t-41 10q-22 0 -40 -12t-36 -37t-38.5 -63.5t-47.5 -91.5q-5 -8 -4 -12.5t6 -11.5q30 -40 58 -63t63 -23z" />
    <glyph glyph-name="mu" unicode="&#xb5;" horiz-adv-x="530" 
d="M152 488l-35 -295q-2 -19 -3.5 -33.5t-1.5 -25.5q0 -46 30 -70.5t87 -24.5q35 0 74 9.5t77 24.5q5 2 7.5 4.5t3.5 8.5l48 402h51l-58 -488h-35l-7 40l-36 -15q-38 -16 -71.5 -24.5t-64.5 -8.5q-38 0 -70 14.5t-50 39.5l-32 -275h-51l86 717h51z" />
    <glyph glyph-name="partialdiff" unicode="&#x2202;" 
d="M155 644q31 14 65.5 21.5t66.5 7.5q54 0 97.5 -23t74 -66t47 -103.5t16.5 -136.5q0 -78 -20.5 -143.5t-56.5 -112t-86.5 -72.5t-110.5 -26q-44 0 -80 16.5t-61 44t-38.5 63.5t-13.5 75q0 46 16 86.5t44.5 69.5t68.5 46t87 17q45 0 88 -13.5t91 -43.5l22 -14
q0 62 -10 115.5t-33 93t-60.5 62t-91.5 22.5q-23 0 -51.5 -4t-62.5 -13zM464 283q0 8 -2.5 12t-8.5 9q-40 28 -84.5 43.5t-90.5 15.5q-37 0 -68.5 -11t-55 -33t-36.5 -53.5t-13 -73.5q0 -35 10.5 -64t30 -50t47.5 -32.5t63 -11.5q47 0 85.5 22t65.5 57.5t42 80t15 89.5z" />
    <glyph glyph-name="summation" unicode="&#x2211;" horiz-adv-x="511" 
d="M81 663h454l-6 -44h-386l289 -394l-4 -27l-368 -383h389l-6 -44h-462l2 19q1 8 2.5 12t9.5 12l385 400l-296 405q-5 7 -6 10.5t0 10.5z" />
    <glyph glyph-name="product" unicode="&#x220f;" horiz-adv-x="669" 
d="M194 619h-122l6 44h621l-6 -44h-123l-101 -848h-54l101 848h-268l-100 -848h-54z" />
    <glyph glyph-name="pi" unicode="&#x3c0;" horiz-adv-x="581" 
d="M434 448h-255l-55 -448h-50l54 448h-84l5 40h524l-5 -40h-83l-49 -403l87 -13l-3 -20q-14 -5 -34.5 -9.5t-35.5 -4.5q-32 0 -47 16t-15 43q0 8 3 35z" />
    <glyph glyph-name="integral" unicode="&#x222b;" 
d="M378 -40q0 -42 -11.5 -78.5t-34 -64t-56 -43t-78.5 -15.5q-22 0 -43 5.5t-40 13.5l10 30q21 -5 38 -7t34 -2q67 0 100 44t33 113q0 55 -17 121t-37.5 134.5t-37.5 136t-17 125.5q0 42 11 78.5t33.5 63t56.5 42t79 15.5q43 0 83 -19l-10 -29q-21 4 -38 6t-34 2
q-67 0 -100 -43.5t-33 -112.5q0 -56 17 -121.5t37.5 -133.5t37.5 -135t17 -126z" />
    <glyph glyph-name="Omega" unicode="&#x3a9;" horiz-adv-x="676" 
d="M368 24q2 9 4 14t11 16l72 86q30 35 54.5 68.5t42 67t27.5 68.5t10 73q0 49 -15.5 87.5t-43 65.5t-66.5 41t-86 14q-51 0 -96 -19t-78.5 -53.5t-53 -82t-19.5 -105.5q0 -32 4.5 -58.5t14 -53.5t24.5 -57t36 -67l44 -77q5 -9 6.5 -14t0.5 -14l-3 -24h-198l6 43h149l-37 58
q-43 67 -71 130.5t-28 136.5q0 59 22 114t62 97.5t95 68t121 25.5q60 0 108 -20.5t82.5 -55t53 -80.5t18.5 -98q0 -81 -44.5 -157.5t-124.5 -162.5l-52 -56h149l-6 -43h-198z" />
    <glyph glyph-name="Omega" unicode="&#x2126;" horiz-adv-x="676" 
d="M368 24q2 9 4 14t11 16l72 86q30 35 54.5 68.5t42 67t27.5 68.5t10 73q0 49 -15.5 87.5t-43 65.5t-66.5 41t-86 14q-51 0 -96 -19t-78.5 -53.5t-53 -82t-19.5 -105.5q0 -32 4.5 -58.5t14 -53.5t24.5 -57t36 -67l44 -77q5 -9 6.5 -14t0.5 -14l-3 -24h-198l6 43h149l-37 58
q-43 67 -71 130.5t-28 136.5q0 59 22 114t62 97.5t95 68t121 25.5q60 0 108 -20.5t82.5 -55t53 -80.5t18.5 -98q0 -81 -44.5 -157.5t-124.5 -162.5l-52 -56h149l-6 -43h-198z" />
    <glyph glyph-name="Delta" unicode="&#x2206;" horiz-adv-x="610" 
d="M553 71q5 -16 6.5 -25t-0.5 -20l-3 -26h-554l2 18q2 17 4.5 26t12.5 27l307 592h42q8 0 9.5 -2t3.5 -7zM403 409q-16 54 -29.5 105t-25.5 97q-20 -41 -45.5 -93t-53.5 -107l-138 -272q-12 -23 -25 -48.5t-26 -47.5q26 1 53.5 1h59.5h203h73t65 -1q-11 30 -23 68t-23 74z
" />
    <glyph glyph-name="litre" unicode="&#x2113;" horiz-adv-x="225" 
d="M186 12q-14 -5 -34.5 -9.5t-35.5 -4.5q-32 0 -47 16t-15 43q0 8 3 35l74 617h51l-80 -664l87 -13z" />
    <glyph glyph-name="estimated" unicode="&#x212e;" horiz-adv-x="876" 
d="M210 323q-8 0 -8 -6v-187q0 -7 3 -11t9 -10q44 -45 104.5 -71.5t129.5 -26.5q74 0 136.5 30t107.5 80h56q-54 -60 -132 -95.5t-169 -35.5q-79 0 -149 26.5t-122 72.5t-82 108.5t-30 133.5t30 133.5t82 109t122 73t149 26.5q78 0 147 -26.5t120.5 -73t82 -109t30.5 -133.5
v-8h-617zM688 537q0 6 -3.5 11t-9.5 11q-42 44 -101.5 69t-125.5 25q-69 0 -129 -26t-105 -71q-6 -6 -9 -11t-3 -13v-185q0 -5 8 -5h470q8 0 8 5v190z" />
    <glyph glyph-name="numero" unicode="&#x2116;" horiz-adv-x="1018" 
d="M1026 522q0 -33 -12.5 -64.5t-35 -56t-52.5 -39.5t-66 -15q-31 0 -57 11.5t-45 31.5t-29.5 48t-10.5 60q0 33 12.5 64.5t35 56t52.5 39.5t66 15q31 0 57 -11.5t45 -32t29.5 -48t10.5 -59.5zM980 522q0 48 -26 78t-71 30q-29 0 -51 -11t-37 -29.5t-23 -42.5t-8 -49
q0 -48 26 -78t71 -30q28 0 50.5 11t37.5 29.5t23 42t8 49.5zM621 663h50l-80 -663h-31q-10 0 -15 8l-289 439l-86 133l-68 -580h-50l80 663h27q10 0 15 -8l289 -439q11 -17 24.5 -37.5t26 -40t23 -35.5t16.5 -25z" />
    <glyph glyph-name="zero.otab" 
d="M265 38q43 0 78.5 19.5t61 52t39 75t13.5 87.5q0 85 -41.5 131.5t-111.5 46.5q-44 0 -79 -19.5t-60.5 -52t-39 -75t-13.5 -87.5q0 -85 41.5 -131.5t111.5 -46.5zM263 -8q-41 0 -78 15t-64.5 43.5t-44 69t-16.5 90.5q0 59 19.5 111t53 91t78.5 61.5t95 22.5q41 0 78 -15
t64.5 -43.5t44 -69t16.5 -90.5q0 -59 -19.5 -111t-53 -91t-78.5 -61.5t-95 -22.5z" />
    <glyph glyph-name="one.otab" 
d="M112 39h165l47 393l-175 -67l-13 31l195 86q13 6 24 6h26l-54 -449h134l-4 -39h-349z" />
    <glyph glyph-name="two.otab" 
d="M111 440q57 27 108.5 41.5t96.5 14.5q72 0 114.5 -35t42.5 -94q0 -30 -10 -56.5t-31 -52t-54.5 -53.5t-79.5 -61l-146 -105q21 1 47 1.5t49 0.5h203l-4 -41h-373l3 22q1 5 2.5 7.5t6.5 6.5l205 157q38 29 63.5 52t40.5 43.5t21 39t6 38.5q0 44 -30 64.5t-80 20.5
q-28 0 -59.5 -6t-76.5 -19l-53 -15z" />
    <glyph glyph-name="three.otab" 
d="M83 -104q39 -17 75 -26t72 -9q37 0 70 12.5t58 35.5t39.5 55.5t14.5 73.5q0 52 -25 78q-16 17 -41.5 24.5t-67.5 7.5h-57q-11 0 -10 11l4 30h92q23 0 36 4t25 21q27 37 38.5 69t11.5 64q0 51 -31.5 77.5t-91.5 26.5q-29 0 -63.5 -6t-72.5 -17l-57 -16l-13 30
q58 26 110.5 40t103.5 14q77 0 121.5 -40t44.5 -102q0 -49 -24 -96t-62 -86q37 -15 59.5 -50t22.5 -83t-18 -89t-49.5 -70.5t-74.5 -46.5t-92 -17q-61 0 -119.5 22.5t-105.5 55.5l17 27z" />
    <glyph glyph-name="four.otab" 
d="M405 479q7 9 18 9h42l-54 -444h95l-5 -40h-95l-19 -160h-50l19 160h-342l3 21q2 10 3.5 14t7.5 11zM361 44l46 377q-14 -18 -34.5 -41t-40.5 -46l-175 -202q-21 -24 -41 -47t-38 -41h283z" />
    <glyph glyph-name="five.otab" 
d="M111 156q-7 4 -6 14l38 318h343l-5 -41h-295l-17 -143q-7 -62 -18 -116q33 15 73 24t69 9q39 0 73 -11.5t59 -33.5t39 -54t14 -74q0 -51 -17.5 -93.5t-48 -73.5t-73 -48t-92.5 -17q-54 0 -109.5 18t-101.5 48l16 27l43 -16q44 -17 80 -24.5t73 -7.5q43 0 76.5 14.5
t55.5 39.5t33.5 59t11.5 72q0 64 -36 98t-106 34q-38 0 -71 -8t-74 -23q-7 -3 -15 2z" />
    <glyph glyph-name="six.otab" 
d="M500 612q-25 7 -54.5 12t-60.5 5q-53 0 -97 -22t-77.5 -60.5t-55 -91t-30.5 -113.5l28 15q45 24 90 38.5t90 14.5q36 0 68 -11.5t55.5 -34t37.5 -55t14 -74.5q0 -49 -17.5 -93t-48.5 -77.5t-73 -53t-90 -19.5q-46 0 -85 19t-67.5 53.5t-44.5 82.5t-16 106q0 80 23 156
t64.5 134.5t100.5 94t131 35.5q32 0 65 -8t62 -22zM117 256q0 -48 10.5 -88.5t31 -69.5t50.5 -45.5t69 -16.5q40 0 73.5 16t56.5 43.5t36 63t13 74.5q0 66 -36 99t-99 33q-45 0 -91.5 -15.5t-90.5 -39.5q-17 -9 -20 -20t-3 -34z" />
    <glyph glyph-name="seven.otab" 
d="M109 -177q6 39 14.5 71.5t22.5 66t35.5 71t55.5 86.5l225 328h-388l5 42h440l-3 -24q-2 -10 -4 -14.5t-10 -17.5l-218 -326q-32 -48 -52.5 -83.5t-34 -66.5t-22 -62t-16.5 -71h-50z" />
    <glyph glyph-name="eight.otab" 
d="M276 -8q-49 0 -91 14.5t-73 40.5t-48.5 61.5t-17.5 76.5q0 33 12 63t32.5 56t47.5 47t57 36q-30 20 -51.5 51.5t-21.5 68.5q0 34 15.5 64.5t43 53t65 35.5t81.5 13q42 0 77 -12.5t60 -34.5t38.5 -51t13.5 -62q0 -47 -27 -91.5t-90 -91.5q54 -32 83.5 -67t29.5 -80
q0 -43 -19.5 -78.5t-52.5 -60.5t-75.5 -38.5t-88.5 -13.5zM243 361q-8 4 -12.5 4t-12.5 -5q-54 -30 -88 -73t-34 -102q0 -32 13.5 -59.5t38 -47.5t57.5 -31.5t72 -11.5q40 0 74 11t59 30t39 45.5t14 58.5q0 34 -25.5 65t-85.5 61zM352 355q7 -3 11 -4t10 4q42 34 69.5 74
t27.5 83q0 28 -11.5 50t-31 37t-46 23t-57.5 8q-30 0 -58 -8t-49 -23.5t-33.5 -37.5t-12.5 -49q0 -43 31.5 -70.5t87.5 -55.5z" />
    <glyph glyph-name="nine.otab" 
d="M78 -123q31 -8 63 -12.5t56 -4.5q53 0 94.5 21.5t71.5 59.5t49 90t27 114l-28 -15q-45 -24 -89.5 -38.5t-89.5 -14.5q-39 0 -71 13t-55 37t-36 57t-13 73q0 50 18 93.5t49 76t73 51t90 18.5q47 0 86 -19t66.5 -53.5t43 -83t15.5 -106.5q0 -80 -19.5 -155.5t-57 -134
t-94 -93.5t-129.5 -35q-32 0 -67.5 8t-64.5 22zM424 177q16 9 19.5 19.5t3.5 35.5q0 48 -10.5 88.5t-30.5 69.5t-50 45.5t-69 16.5t-72 -15t-57 -41t-37 -61t-13 -76q0 -65 35.5 -101t99.5 -36q45 0 91 15.5t90 39.5z" />
    <glyph glyph-name="dollar.otab" 
d="M152 49q26 -6 54 -10t48 -5l25 208l-20 9q-55 25 -84.5 51.5t-29.5 69.5q0 27 12.5 49.5t34.5 39t52 25.5t66 10l18 103h31l-13 -105q30 -2 60.5 -9t56.5 -17l-9 -29l-33 5q-20 2 -40 4.5t-40 3.5l-22 -179l9 -4q59 -26 90 -55t31 -74q0 -29 -12 -54.5t-33.5 -45
t-51.5 -32t-66 -15.5l-17 -97h-31l11 97q-38 2 -79.5 13t-70.5 26l12 26zM291 35q46 6 77 31q15 13 24 30t9 39q0 31 -20 50t-67 41zM305 453q-56 -2 -85 -22.5t-29 -55.5q0 -14 5.5 -25.5t16.5 -21t29 -19.5t43 -21z" />
    <glyph glyph-name="cent.otab" 
d="M461 57q-37 -26 -80 -44t-88 -20l-18 -97h-30l12 97q-37 4 -66 20.5t-48.5 42t-30 59.5t-10.5 72q0 47 15 92t42.5 80.5t66 57.5t84.5 24l18 95h31l-12 -98q46 -9 80 -40.5t49 -71.5l-32 -16l-19 22q-23 26 -41.5 41t-41.5 21l-43 -359q23 2 47.5 9t49.5 18l49 21z
M151 187q0 -62 28.5 -102.5t82.5 -48.5l43 362q-32 -2 -60 -18t-49 -43.5t-33 -65.5t-12 -84z" />
    <glyph glyph-name="Euro.otab" 
d="M505 65q-45 -32 -98 -52.5t-106 -20.5q-44 0 -79 14.5t-60 40t-40 60t-19 75.5h-67l4 24l62 8q0 13 1 25t3 25h-60l4 24l63 9q11 41 32.5 77.5t51 63.5t66.5 42.5t80 15.5q65 0 112 -37.5t67 -91.5l-32 -16l-23 26q-32 37 -60 56t-68 19q-59 0 -106 -41t-67 -111h206
l-4 -36h-210q-4 -20 -4 -46h208l-4 -36h-203q8 -66 46.5 -106t105.5 -40q27 0 59 7t68 23l56 24z" />
    <glyph glyph-name="florin.otab" 
d="M259 -67q-5 -46 -15.5 -74t-27.5 -48q-42 -48 -117 -48q-25 0 -51 7t-46 16l11 30q45 -12 83 -12q56 0 83 29q14 14 21 36.5t11 54.5l26 215h-107l4 26l107 10l18 151q5 46 15.5 74t27.5 48q42 48 117 48q25 0 51 -7t46 -16l-11 -30q-45 12 -83 12q-56 0 -83 -29
q-14 -14 -21 -36.5t-11 -54.5l-18 -159h157l-5 -37h-157z" />
    <glyph glyph-name="sterling.otab" 
d="M392 254l-4 -36h-187q2 -14 4 -31.5t2 -34.5q0 -26 -16 -53t-57 -59h343l-4 -40h-403l3 22q1 5 2.5 8t7.5 9l21 20q16 15 27 27t17.5 22.5t9 21t2.5 24.5q0 12 -2.5 31t-4.5 33h-70l4 25l61 8q-11 49 -11 85q0 37 13.5 67t37 50.5t55.5 31.5t69 11q54 0 105 -26t90 -64
l-20 -22l-59 32q-32 17 -61 26t-61 9q-55 0 -88.5 -29.5t-33.5 -81.5q0 -23 3 -44.5t8 -41.5h197z" />
    <glyph glyph-name="yen.otab" 
d="M304 98l-11 -98h-50l12 98h-146l4 36h146l5 40h-146l4 36h132l-154 278h44q6 0 8.5 -1.5t5.5 -6.5l137 -254l196 255q4 5 6.5 6t8.5 1h43l-216 -278h131l-4 -36h-146l-5 -40h146l-4 -36h-147z" />
    <glyph glyph-name="numbersign.otab" 
d="M415 316l-41 -144h115l-4 -37h-122l-38 -135h-44l39 135h-135l-38 -135h-44l39 135h-85l5 37h90l42 144h-114l4 36h121l39 136h43l-39 -136h135l39 136h43l-39 -136h86l-5 -36h-92zM196 172h134l41 144h-134z" />
    <glyph glyph-name="percent.otab" horiz-adv-x="717" 
d="M163 0l343 488h47l-342 -488h-48zM173 253q25 0 44 10t32 26.5t19 36.5t6 41q0 38 -21.5 63.5t-59.5 25.5q-26 0 -44.5 -10t-31.5 -26.5t-19 -36.5t-6 -41q0 -38 21.5 -63.5t59.5 -25.5zM173 213q-56 0 -89.5 36.5t-33.5 91.5q0 30 10.5 57.5t29.5 49.5t45.5 35t57.5 13
q56 0 89.5 -36.5t33.5 -91.5q0 -30 -10.5 -57.5t-29.5 -49.5t-45.5 -35t-57.5 -13zM524 32q25 0 44 10t32 26.5t19 36.5t6 41q0 38 -21.5 63.5t-59.5 25.5q-26 0 -44.5 -10t-31.5 -26.5t-19 -36.5t-6 -41q0 -38 21.5 -63.5t59.5 -25.5zM524 -8q-56 0 -89.5 36.5t-33.5 91.5
q0 30 10.5 57.5t29.5 49.5t45.5 35t57.5 13q56 0 89.5 -36.5t33.5 -91.5q0 -30 -10.5 -57.5t-29.5 -49.5t-45.5 -35t-57.5 -13z" />
    <glyph glyph-name="perthousand.otab" horiz-adv-x="1020" 
d="M163 0l343 488h47l-342 -488h-48zM173 253q25 0 44 10t32 26.5t19 36.5t6 41q0 38 -21.5 63.5t-59.5 25.5q-26 0 -44.5 -10t-31.5 -26.5t-19 -36.5t-6 -41q0 -38 21.5 -63.5t59.5 -25.5zM173 213q-56 0 -89.5 36.5t-33.5 91.5q0 30 10.5 57.5t29.5 49.5t45.5 35t57.5 13
q56 0 89.5 -36.5t33.5 -91.5q0 -30 -10.5 -57.5t-29.5 -49.5t-45.5 -35t-57.5 -13zM524 32q25 0 44 10t32 26.5t19 36.5t6 41q0 38 -21.5 63.5t-59.5 25.5q-26 0 -44.5 -10t-31.5 -26.5t-19 -36.5t-6 -41q0 -38 21.5 -63.5t59.5 -25.5zM524 -8q-56 0 -89.5 36.5t-33.5 91.5
q0 30 10.5 57.5t29.5 49.5t45.5 35t57.5 13q56 0 89.5 -36.5t33.5 -91.5q0 -30 -10.5 -57.5t-29.5 -49.5t-45.5 -35t-57.5 -13zM827 32q25 0 44 10t32 26.5t19 36.5t6 41q0 38 -21.5 63.5t-59.5 25.5q-26 0 -44.5 -10t-31.5 -26.5t-19 -36.5t-6 -41q0 -38 21.5 -63.5
t59.5 -25.5zM827 -8q-56 0 -89.5 36.5t-33.5 91.5q0 30 10.5 57.5t29.5 49.5t45.5 35t57.5 13q56 0 89.5 -36.5t33.5 -91.5q0 -30 -10.5 -57.5t-29.5 -49.5t-45.5 -35t-57.5 -13z" />
    <glyph glyph-name="zero.lprop" 
d="M261 36q54 0 95.5 33.5t70 86t43.5 117t15 126.5q0 51 -10 93t-28.5 72t-46 46.5t-62.5 16.5q-54 0 -95.5 -33.5t-70 -86t-43.5 -117t-15 -126.5q0 -51 10 -93t28.5 -72t46 -46.5t62.5 -16.5zM260 -10q-38 0 -73.5 17t-63 51.5t-44 85t-16.5 118.5q0 72 19.5 145
t55.5 132.5t87 96.5t114 37q38 0 73.5 -17t63 -51.5t44 -85.5t16.5 -118q0 -72 -19.5 -145t-55.5 -132.5t-87 -96.5t-114 -37z" />
    <glyph glyph-name="one.lprop" horiz-adv-x="467" 
d="M53 41h177l69 568q-18 -9 -47 -22t-51 -22l-87 -35l-15 31l201 93q13 6 19.5 7.5t17.5 1.5h18l-75 -622h153l-5 -41h-380z" />
    <glyph glyph-name="two.lprop" horiz-adv-x="495" 
d="M426 0h-400l4 29q2 8 3.5 11.5t5.5 7.5l215 215q37 37 67 69.5t51.5 62.5t33 59.5t11.5 60.5q0 59 -34.5 85.5t-92.5 26.5q-26 0 -57.5 -6t-69.5 -17l-68 -19l-12 31q63 27 115 42t100 15q37 0 68 -10.5t53.5 -30.5t35.5 -49t13 -66q0 -36 -12.5 -69.5t-36 -67.5
t-57.5 -70.5t-78 -78.5l-198 -188h346z" />
    <glyph glyph-name="three.lprop" horiz-adv-x="521" 
d="M94 68q37 -15 72.5 -23.5t70.5 -8.5q38 0 71.5 11.5t58 33.5t39 53.5t14.5 70.5q0 59 -29 86q-17 16 -43.5 22t-66.5 6h-50q-10 0 -9 8l4 33h91q23 0 37 5.5t25 18.5q20 24 34.5 59t14.5 78q0 57 -34.5 81.5t-92.5 24.5q-31 0 -63 -5.5t-72 -16.5l-57 -15l-12 30
q54 23 106 38t103 15q76 0 123.5 -38.5t47.5 -107.5q0 -54 -22 -100t-61 -84q38 -19 57.5 -54.5t19.5 -83.5q0 -47 -18.5 -86.5t-50.5 -68t-74.5 -44.5t-90.5 -16q-63 0 -121.5 23t-107.5 55l18 28z" />
    <glyph glyph-name="four.lprop" horiz-adv-x="556" 
d="M422 652q6 7 9.5 9t11.5 2h36l-54 -445h100l-4 -42h-101l-21 -176h-49l21 176h-339l3 27q1 6 2.5 9.5t7.5 10.5zM376 218l46 376l-87 -101l-161 -184l-80 -91h282z" />
    <glyph glyph-name="five.lprop" horiz-adv-x="521" 
d="M106 332q-4 2 -5 4.5t0 9.5l38 317h344l-5 -44h-297l-17 -140q-5 -37 -8.5 -64t-7.5 -52q38 16 75.5 25t69.5 9q39 0 72 -12t58 -35t39 -56t14 -75q0 -48 -17 -89.5t-47.5 -72.5t-73.5 -49t-95 -18q-54 0 -108.5 19t-104.5 51l17 27l46 -17q48 -18 81 -26t69 -8
q40 0 73.5 13.5t57.5 37.5t37.5 57.5t13.5 74.5q0 69 -39 102t-105 33q-40 0 -76 -9.5t-71 -22.5q-5 -2 -7.5 -1.5t-6.5 2.5z" />
    <glyph glyph-name="six.lprop" horiz-adv-x="549" 
d="M154 356q47 24 91 38t89 14q33 0 64.5 -10.5t56.5 -32.5t40 -54.5t15 -76.5q0 -45 -17 -89t-47.5 -78.5t-72.5 -55.5t-92 -21q-48 0 -87 19t-67 54.5t-43.5 85t-15.5 110.5q0 74 21 148t61.5 133t100 96t136.5 37q30 0 62.5 -8.5t64.5 -22.5l-13 -31q-31 8 -60 12t-58 4
q-54 0 -98.5 -23t-77.5 -62t-54 -91t-28 -110zM119 257q0 -47 10.5 -88t31.5 -71t51 -47t69 -17q38 0 71 16.5t57 44.5t38 64.5t14 76.5q0 60 -36.5 93.5t-99.5 33.5q-43 0 -90.5 -14.5t-94.5 -40.5q-15 -8 -18 -17t-3 -34z" />
    <glyph glyph-name="seven.lprop" horiz-adv-x="451" 
d="M93 0q6 38 14.5 70.5t23 66t36.5 70.5t55 85l223 327h-389l5 44h442l-3 -28q-1 -5 -3 -10t-9 -16l-222 -332q-32 -48 -52.5 -83t-33.5 -65.5t-21.5 -61t-15.5 -67.5h-50z" />
    <glyph glyph-name="eight.lprop" horiz-adv-x="557" 
d="M279 -10q-49 0 -91 15t-73.5 41t-49.5 62t-18 77q0 33 12.5 62.5t33 55.5t47.5 47t57 37q-31 21 -52 52t-21 68q0 34 15.5 64.5t43 53t65.5 35.5t82 13q42 0 77.5 -12.5t61 -34t39.5 -51t14 -62.5q0 -47 -28.5 -91.5t-91.5 -92.5q55 -31 85 -66t30 -80q0 -43 -20 -78.5
t-53 -61t-76 -39.5t-89 -14zM246 360q-8 4 -12.5 4.5t-12.5 -4.5q-53 -30 -89 -73.5t-36 -101.5q0 -32 14 -59.5t39 -47.5t58.5 -31.5t72.5 -11.5q40 0 74.5 11t59.5 30t39 45.5t14 58.5q0 34 -26 64.5t-86 60.5zM355 354q6 -3 10.5 -4t10.5 4q42 34 71 74.5t29 83.5
q0 28 -11.5 50t-31.5 36.5t-47 22t-58 7.5q-30 0 -58.5 -8t-50.5 -23t-35 -36.5t-13 -48.5q0 -43 33 -71t89 -56z" />
    <glyph glyph-name="nine.lprop" horiz-adv-x="549" 
d="M425 306q-44 -24 -88.5 -37.5t-90.5 -13.5q-35 0 -67 13t-56 37t-38.5 58t-14.5 76q0 49 18 92t49 74.5t72 49.5t87 18q48 0 88 -19.5t68.5 -54.5t44 -84.5t15.5 -110.5q0 -48 -7.5 -97t-23 -95t-39 -86.5t-57 -70.5t-76 -47.5t-95.5 -17.5q-32 0 -66.5 9t-65.5 23l13 30
q29 -7 62.5 -12t57.5 -5q55 0 96.5 23t71 62.5t47 91.5t24.5 110zM461 406q0 47 -10 88t-31 71t-52.5 47t-73.5 17q-37 0 -69 -13.5t-55.5 -38.5t-37 -59.5t-13.5 -77.5q0 -64 36.5 -102t99.5 -38q44 0 89.5 14t91.5 38q17 9 21 19t4 35z" />
    <glyph glyph-name="dollar.lprop" horiz-adv-x="539" 
d="M43 74l59 -16q36 -10 69 -15.5t64 -6.5l37 310l-26 13q-72 36 -108 71.5t-36 90.5q0 69 56.5 109.5t153.5 42.5l19 93h34l-12 -94q38 -3 77.5 -10.5t70.5 -18.5l-8 -30l-46 5q-26 2 -51 4.5t-48 3.5l-31 -250q44 -21 75 -41.5t51 -42t29 -46t9 -53.5q0 -42 -14.5 -77.5
t-41.5 -62t-66 -43t-88 -19.5l-19 -95h-34l11 95q-49 2 -103.5 16.5t-96.5 37.5zM432 189q0 22 -6.5 40t-20.5 34t-37.5 31t-56.5 32l-35 -289q32 3 60.5 14.5t49.5 30.5t33.5 46t12.5 61zM150 522q0 -19 7 -34.5t22 -30t39.5 -29t59.5 -32.5l28 231q-34 -1 -62.5 -7.5
t-49.5 -19t-32.5 -32t-11.5 -46.5z" />
    <glyph glyph-name="cent.lprop" horiz-adv-x="505" 
d="M453 65q-42 -30 -92 -50.5t-101 -22.5l-20 -96h-32l12 98q-41 5 -72.5 23.5t-53.5 47.5t-33 66.5t-11 79.5q0 53 17 103t47.5 89.5t73 64.5t93.5 27l20 93h32l-12 -95q54 -8 93 -43t56 -83l-32 -16l-23 26q-26 29 -49 47.5t-51 24.5l-50 -413q51 1 117 30l56 24zM102 211
q0 -70 31.5 -116.5t91.5 -56.5l50 413q-36 -3 -67.5 -21t-55 -49.5t-37 -74.5t-13.5 -95z" />
    <glyph glyph-name="Euro.lprop" horiz-adv-x="576" 
d="M523 56q-47 -31 -98 -48.5t-98 -17.5q-48 0 -87 18.5t-66.5 52.5t-42.5 81.5t-16 105.5h-80l3 29l77 7q1 18 3.5 39.5t5.5 42.5h-77l3 28l81 8q13 55 38 104t59.5 86t76.5 59t90 22q60 0 105.5 -35t71.5 -89l-28 -16l-41 40q-30 29 -54.5 42.5t-56.5 13.5
q-40 0 -73.5 -18t-60 -49t-46 -72t-30.5 -86h210l-5 -38h-213q-3 -19 -5.5 -39.5t-3.5 -39.5h213l-5 -39h-209q2 -100 46 -157.5t125 -57.5q26 0 57 8t70 23l47 18z" />
    <glyph glyph-name="florin.lprop" horiz-adv-x="554" 
d="M242 -49q-6 -48 -19 -83.5t-36 -58.5q-23 -25 -56.5 -37t-75.5 -12q-24 0 -51 5.5t-46 13.5l9 30q21 -3 43 -4.5t38 -1.5q76 0 107 34q17 18 26.5 49t14.5 76l38 316h-108l3 26l109 12l20 167q6 48 19 83t36 58q23 25 56.5 37t75.5 12q24 0 50 -5.5t45 -13.5l-9 -30
q-21 3 -42 4.5t-37 1.5q-38 0 -64 -8t-43 -26t-26.5 -48.5t-14.5 -75.5l-19 -155h180l-4 -39h-180z" />
    <glyph glyph-name="sterling.lprop" horiz-adv-x="567" 
d="M513 42l-5 -42h-431l3 24q1 7 2.5 10t7.5 11l31 35q19 21 31.5 38.5t20 33.5t10.5 32.5t3 36.5q0 23 -3.5 44.5t-8.5 43.5h-95l4 26l82 10q-8 32 -14.5 65.5t-6.5 62.5q0 42 14.5 78.5t41 63.5t64.5 42.5t85 15.5q51 0 102.5 -21t96.5 -59l-21 -27l-60 30
q-33 17 -62.5 24t-59.5 7q-38 0 -66.5 -11.5t-48 -32t-29.5 -48t-10 -59.5q0 -29 7 -63t15 -67h216l-4 -37h-204q5 -23 8.5 -45t3.5 -46q0 -39 -17.5 -75t-58.5 -79l-21 -22h377z" />
    <glyph glyph-name="yen.lprop" horiz-adv-x="559" 
d="M256 247l-178 416h42q7 0 9 -1.5t5 -8.5l95 -228q19 -45 35.5 -85.5t31.5 -78.5q21 35 50 80.5t60 92.5l144 218q5 8 8 9.5t10 1.5h42l-277 -416h128l-5 -38h-141l-6 -51h142l-5 -39h-142l-14 -119h-50l14 119h-141l5 39h141l6 51h-141l5 38h127z" />
    <glyph glyph-name="numbersign.lprop" 
d="M137 196h-86l5 41h93l54 188h-124l5 41h132l56 197h46l-56 -197h153l56 197h46l-56 -197h87l-5 -41h-95l-54 -188h127l-5 -41h-132l-58 -196h-46l56 196h-153l-56 -196h-46zM195 237h153l54 188h-153z" />
    <glyph glyph-name="percent.lprop" horiz-adv-x="841" 
d="M235 371q30 0 54 11.5t41.5 31t26.5 45.5t9 56q0 50 -28 83t-76 33q-30 0 -54 -11.5t-41.5 -31t-26.5 -45.5t-9 -56q0 -50 28 -83t76 -33zM212 0l397 663h49l-397 -663h-49zM235 329q-34 0 -61.5 12.5t-46.5 33.5t-29.5 49.5t-10.5 61.5q0 37 13.5 70.5t37 59.5
t55.5 41.5t69 15.5q34 0 61.5 -12.5t46.5 -33.5t29.5 -49.5t10.5 -61.5q0 -37 -13.5 -70.5t-37 -59.5t-55.5 -41.5t-69 -15.5zM609 32q30 0 54 11.5t41.5 31t26.5 45.5t9 56q0 50 -28 83t-76 33q-30 0 -54 -11.5t-41.5 -31t-26.5 -45.5t-9 -56q0 -50 28 -83t76 -33zM609 -10
q-34 0 -61.5 12.5t-46.5 33.5t-29.5 49.5t-10.5 61.5q0 37 13.5 70.5t37 59.5t55.5 41.5t69 15.5q34 0 61.5 -12.5t46.5 -33.5t29.5 -49.5t10.5 -61.5q0 -37 -13.5 -70.5t-37 -59.5t-55.5 -41.5t-69 -15.5z" />
    <glyph glyph-name="perthousand.lprop" horiz-adv-x="1205" 
d="M235 371q30 0 54 11.5t41.5 31t26.5 45.5t9 56q0 50 -28 83t-76 33q-30 0 -54 -11.5t-41.5 -31t-26.5 -45.5t-9 -56q0 -50 28 -83t76 -33zM212 0l397 663h49l-397 -663h-49zM235 329q-34 0 -61.5 12.5t-46.5 33.5t-29.5 49.5t-10.5 61.5q0 37 13.5 70.5t37 59.5
t55.5 41.5t69 15.5q34 0 61.5 -12.5t46.5 -33.5t29.5 -49.5t10.5 -61.5q0 -37 -13.5 -70.5t-37 -59.5t-55.5 -41.5t-69 -15.5zM609 32q30 0 54 11.5t41.5 31t26.5 45.5t9 56q0 50 -28 83t-76 33q-30 0 -54 -11.5t-41.5 -31t-26.5 -45.5t-9 -56q0 -50 28 -83t76 -33zM609 -10
q-34 0 -61.5 12.5t-46.5 33.5t-29.5 49.5t-10.5 61.5q0 37 13.5 70.5t37 59.5t55.5 41.5t69 15.5q34 0 61.5 -12.5t46.5 -33.5t29.5 -49.5t10.5 -61.5q0 -37 -13.5 -70.5t-37 -59.5t-55.5 -41.5t-69 -15.5zM973 32q30 0 54 11.5t41.5 31t26.5 45.5t9 56q0 50 -28 83t-76 33
q-30 0 -54 -11.5t-41.5 -31t-26.5 -45.5t-9 -56q0 -50 28 -83t76 -33zM973 -10q-34 0 -61.5 12.5t-46.5 33.5t-29.5 49.5t-10.5 61.5q0 37 13.5 70.5t37 59.5t55.5 41.5t69 15.5q34 0 61.5 -12.5t46.5 -33.5t29.5 -49.5t10.5 -61.5q0 -37 -13.5 -70.5t-37 -59.5t-55.5 -41.5
t-69 -15.5z" />
    <glyph glyph-name="zero.oprop" horiz-adv-x="553" 
d="M257 38q43 0 78.5 19.5t61 52t39 75t13.5 87.5q0 85 -41.5 131.5t-111.5 46.5q-44 0 -79 -19.5t-60.5 -52t-39 -75t-13.5 -87.5q0 -85 41.5 -131.5t111.5 -46.5zM255 -8q-41 0 -78 15t-64.5 43.5t-44 69t-16.5 90.5q0 59 19.5 111t53 91t78.5 61.5t95 22.5q41 0 78 -15
t64.5 -43.5t44 -69t16.5 -90.5q0 -59 -19.5 -111t-53 -91t-78.5 -61.5t-95 -22.5z" />
    <glyph glyph-name="one.oprop" horiz-adv-x="441" 
d="M52 39h165l47 393l-175 -67l-13 31l195 86q13 6 24 6h26l-54 -449h134l-4 -39h-349z" />
    <glyph glyph-name="two.oprop" horiz-adv-x="481" 
d="M67 440q57 27 108.5 41.5t96.5 14.5q72 0 114.5 -35t42.5 -94q0 -30 -10 -56.5t-31 -52t-54.5 -53.5t-79.5 -61l-146 -105q21 1 47 1.5t49 0.5h203l-4 -41h-373l3 22q1 5 2.5 7.5t6.5 6.5l205 157q38 29 63.5 52t40.5 43.5t21 39t6 38.5q0 44 -30 64.5t-80 20.5
q-28 0 -59.5 -6t-76.5 -19l-53 -15z" />
    <glyph glyph-name="three.oprop" horiz-adv-x="481" 
d="M37 -104q39 -17 75 -26t72 -9q37 0 70 12.5t58 35.5t39.5 55.5t14.5 73.5q0 52 -25 78q-16 17 -41.5 24.5t-67.5 7.5h-57q-11 0 -10 11l4 30h92q23 0 36 4t25 21q27 37 38.5 69t11.5 64q0 51 -31.5 77.5t-91.5 26.5q-29 0 -63.5 -6t-72.5 -17l-57 -16l-13 30
q58 26 110.5 40t103.5 14q77 0 121.5 -40t44.5 -102q0 -49 -24 -96t-62 -86q37 -15 59.5 -50t22.5 -83t-18 -89t-49.5 -70.5t-74.5 -46.5t-92 -17q-61 0 -119.5 22.5t-105.5 55.5l17 27z" />
    <glyph glyph-name="four.oprop" horiz-adv-x="538" 
d="M391 479q7 9 18 9h42l-54 -444h95l-5 -40h-95l-19 -160h-50l19 160h-342l3 21q2 10 3.5 14t7.5 11zM347 44l46 377q-14 -18 -34.5 -41t-40.5 -46l-175 -202q-21 -24 -41 -47t-38 -41h283z" />
    <glyph glyph-name="five.oprop" horiz-adv-x="498" 
d="M77 156q-7 4 -6 14l38 318h343l-5 -41h-295l-17 -143q-7 -62 -18 -116q33 15 73 24t69 9q39 0 73 -11.5t59 -33.5t39 -54t14 -74q0 -51 -17.5 -93.5t-48 -73.5t-73 -48t-92.5 -17q-54 0 -109.5 18t-101.5 48l16 27l43 -16q44 -17 80 -24.5t73 -7.5q43 0 76.5 14.5
t55.5 39.5t33.5 59t11.5 72q0 64 -36 98t-106 34q-38 0 -71 -8t-74 -23q-7 -3 -15 2z" />
    <glyph glyph-name="six.oprop" horiz-adv-x="544" 
d="M490 612q-25 7 -54.5 12t-60.5 5q-53 0 -97 -22t-77.5 -60.5t-55 -91t-30.5 -113.5l28 15q45 24 90 38.5t90 14.5q36 0 68 -11.5t55.5 -34t37.5 -55t14 -74.5q0 -49 -17.5 -93t-48.5 -77.5t-73 -53t-90 -19.5q-46 0 -85 19t-67.5 53.5t-44.5 82.5t-16 106q0 80 23 156
t64.5 134.5t100.5 94t131 35.5q32 0 65 -8t62 -22zM107 256q0 -48 10.5 -88.5t31 -69.5t50.5 -45.5t69 -16.5q40 0 73.5 16t56.5 43.5t36 63t13 74.5q0 66 -36 99t-99 33q-45 0 -91.5 -15.5t-90.5 -39.5q-17 -9 -20 -20t-3 -34z" />
    <glyph glyph-name="seven.oprop" horiz-adv-x="468" 
d="M66 -177q6 39 14.5 71.5t22.5 66t35.5 71t55.5 86.5l225 328h-388l5 42h440l-3 -24q-2 -10 -4 -14.5t-10 -17.5l-218 -326q-32 -48 -52.5 -83.5t-34 -66.5t-22 -62t-16.5 -71h-50z" />
    <glyph glyph-name="eight.oprop" horiz-adv-x="542" 
d="M265 -8q-49 0 -91 14.5t-73 40.5t-48.5 61.5t-17.5 76.5q0 33 12 63t32.5 56t47.5 47t57 36q-30 20 -51.5 51.5t-21.5 68.5q0 34 15.5 64.5t43 53t65 35.5t81.5 13q42 0 77 -12.5t60 -34.5t38.5 -51t13.5 -62q0 -47 -27 -91.5t-90 -91.5q54 -32 83.5 -67t29.5 -80
q0 -43 -19.5 -78.5t-52.5 -60.5t-75.5 -38.5t-88.5 -13.5zM232 361q-8 4 -12.5 4t-12.5 -5q-54 -30 -88 -73t-34 -102q0 -32 13.5 -59.5t38 -47.5t57.5 -31.5t72 -11.5q40 0 74 11t59 30t39 45.5t14 58.5q0 34 -25.5 65t-85.5 61zM341 355q7 -3 11 -4t10 4q42 34 69.5 74
t27.5 83q0 28 -11.5 50t-31 37t-46 23t-57.5 8q-30 0 -58 -8t-49 -23.5t-33.5 -37.5t-12.5 -49q0 -43 31.5 -70.5t87.5 -55.5z" />
    <glyph glyph-name="nine.oprop" horiz-adv-x="545" 
d="M69 -123q31 -8 63 -12.5t56 -4.5q53 0 94.5 21.5t71.5 59.5t49 90t27 114l-28 -15q-45 -24 -89.5 -38.5t-89.5 -14.5q-39 0 -71 13t-55 37t-36 57t-13 73q0 50 18 93.5t49 76t73 51t90 18.5q47 0 86 -19t66.5 -53.5t43 -83t15.5 -106.5q0 -80 -19.5 -155.5t-57 -134
t-94 -93.5t-129.5 -35q-32 0 -67.5 8t-64.5 22zM415 177q16 9 19.5 19.5t3.5 35.5q0 48 -10.5 88.5t-30.5 69.5t-50 45.5t-69 16.5t-72 -15t-57 -41t-37 -61t-13 -76q0 -65 35.5 -101t99.5 -36q45 0 91 15.5t90 39.5z" />
    <glyph glyph-name="dollar.oprop" horiz-adv-x="469" 
d="M99 49q26 -6 54 -10t48 -5l25 208l-20 9q-55 25 -84.5 51.5t-29.5 69.5q0 27 12.5 49.5t34.5 39t52 25.5t66 10l18 103h31l-13 -105q30 -2 60.5 -9t56.5 -17l-9 -29l-33 5q-20 2 -40 4.5t-40 3.5l-22 -179l9 -4q59 -26 90 -55t31 -74q0 -29 -12 -54.5t-33.5 -45
t-51.5 -32t-66 -15.5l-17 -97h-31l11 97q-38 2 -79.5 13t-70.5 26l12 26zM238 35q46 6 77 31q15 13 24 30t9 39q0 31 -20 50t-67 41zM252 453q-56 -2 -85 -22.5t-29 -55.5q0 -14 5.5 -25.5t16.5 -21t29 -19.5t43 -21z" />
    <glyph glyph-name="cent.oprop" horiz-adv-x="458" 
d="M403 57q-37 -26 -80 -44t-88 -20l-18 -97h-30l12 97q-37 4 -66 20.5t-48.5 42t-30 59.5t-10.5 72q0 47 15 92t42.5 80.5t66 57.5t84.5 24l18 95h31l-12 -98q46 -9 80 -40.5t49 -71.5l-32 -16l-19 22q-23 26 -41.5 41t-41.5 21l-43 -359q23 2 47.5 9t49.5 18l49 21z
M93 187q0 -62 28.5 -102.5t82.5 -48.5l43 362q-32 -2 -60 -18t-49 -43.5t-33 -65.5t-12 -84z" />
    <glyph glyph-name="Euro.oprop" horiz-adv-x="552" 
d="M499 65q-45 -32 -98 -52.5t-106 -20.5q-44 0 -79 14.5t-60 40t-40 60t-19 75.5h-67l4 24l62 8q0 13 1 25t3 25h-60l4 24l63 9q11 41 32.5 77.5t51 63.5t66.5 42.5t80 15.5q65 0 112 -37.5t67 -91.5l-32 -16l-23 26q-32 37 -60 56t-68 19q-59 0 -106 -41t-67 -111h206
l-4 -36h-210q-4 -20 -4 -46h208l-4 -36h-203q8 -66 46.5 -106t105.5 -40q27 0 59 7t68 23l56 24z" />
    <glyph glyph-name="florin.oprop" horiz-adv-x="432" 
d="M179 -67q-5 -46 -15.5 -74t-27.5 -48q-42 -48 -117 -48q-25 0 -51 7t-46 16l11 30q45 -12 83 -12q56 0 83 29q14 14 21 36.5t11 54.5l26 215h-107l4 26l107 10l18 151q5 46 15.5 74t27.5 48q42 48 117 48q25 0 51 -7t46 -16l-11 -30q-45 12 -83 12q-56 0 -83 -29
q-14 -14 -21 -36.5t-11 -54.5l-18 -159h157l-5 -37h-157z" />
    <glyph glyph-name="sterling.oprop" horiz-adv-x="509" 
d="M366 254l-4 -36h-187q2 -14 4 -31.5t2 -34.5q0 -26 -16 -53t-57 -59h343l-4 -40h-403l3 22q1 5 2.5 8t7.5 9l21 20q16 15 27 27t17.5 22.5t9 21t2.5 24.5q0 12 -2.5 31t-4.5 33h-70l4 25l61 8q-11 49 -11 85q0 37 13.5 67t37 50.5t55.5 31.5t69 11q54 0 105 -26t90 -64
l-20 -22l-59 32q-32 17 -61 26t-61 9q-55 0 -88.5 -29.5t-33.5 -81.5q0 -23 3 -44.5t8 -41.5h197z" />
    <glyph glyph-name="yen.oprop" horiz-adv-x="507" 
d="M268 98l-11 -98h-50l12 98h-146l4 36h146l5 40h-146l4 36h132l-154 278h44q6 0 8.5 -1.5t5.5 -6.5l137 -254l196 255q4 5 6.5 6t8.5 1h43l-216 -278h131l-4 -36h-146l-5 -40h146l-4 -36h-147z" />
    <glyph glyph-name="numbersign.oprop" 
d="M415 316l-41 -144h115l-4 -37h-122l-38 -135h-44l39 135h-135l-38 -135h-44l39 135h-85l5 37h90l42 144h-114l4 36h121l39 136h43l-39 -136h135l39 136h43l-39 -136h86l-5 -36h-92zM196 172h134l41 144h-134z" />
    <glyph glyph-name="percent.oprop" horiz-adv-x="717" 
d="M163 0l343 488h47l-342 -488h-48zM173 253q25 0 44 10t32 26.5t19 36.5t6 41q0 38 -21.5 63.5t-59.5 25.5q-26 0 -44.5 -10t-31.5 -26.5t-19 -36.5t-6 -41q0 -38 21.5 -63.5t59.5 -25.5zM173 213q-56 0 -89.5 36.5t-33.5 91.5q0 30 10.5 57.5t29.5 49.5t45.5 35t57.5 13
q56 0 89.5 -36.5t33.5 -91.5q0 -30 -10.5 -57.5t-29.5 -49.5t-45.5 -35t-57.5 -13zM524 32q25 0 44 10t32 26.5t19 36.5t6 41q0 38 -21.5 63.5t-59.5 25.5q-26 0 -44.5 -10t-31.5 -26.5t-19 -36.5t-6 -41q0 -38 21.5 -63.5t59.5 -25.5zM524 -8q-56 0 -89.5 36.5t-33.5 91.5
q0 30 10.5 57.5t29.5 49.5t45.5 35t57.5 13q56 0 89.5 -36.5t33.5 -91.5q0 -30 -10.5 -57.5t-29.5 -49.5t-45.5 -35t-57.5 -13z" />
    <glyph glyph-name="perthousand.oprop" horiz-adv-x="1020" 
d="M163 0l343 488h47l-342 -488h-48zM173 253q25 0 44 10t32 26.5t19 36.5t6 41q0 38 -21.5 63.5t-59.5 25.5q-26 0 -44.5 -10t-31.5 -26.5t-19 -36.5t-6 -41q0 -38 21.5 -63.5t59.5 -25.5zM173 213q-56 0 -89.5 36.5t-33.5 91.5q0 30 10.5 57.5t29.5 49.5t45.5 35t57.5 13
q56 0 89.5 -36.5t33.5 -91.5q0 -30 -10.5 -57.5t-29.5 -49.5t-45.5 -35t-57.5 -13zM524 32q25 0 44 10t32 26.5t19 36.5t6 41q0 38 -21.5 63.5t-59.5 25.5q-26 0 -44.5 -10t-31.5 -26.5t-19 -36.5t-6 -41q0 -38 21.5 -63.5t59.5 -25.5zM524 -8q-56 0 -89.5 36.5t-33.5 91.5
q0 30 10.5 57.5t29.5 49.5t45.5 35t57.5 13q56 0 89.5 -36.5t33.5 -91.5q0 -30 -10.5 -57.5t-29.5 -49.5t-45.5 -35t-57.5 -13zM827 32q25 0 44 10t32 26.5t19 36.5t6 41q0 38 -21.5 63.5t-59.5 25.5q-26 0 -44.5 -10t-31.5 -26.5t-19 -36.5t-6 -41q0 -38 21.5 -63.5
t59.5 -25.5zM827 -8q-56 0 -89.5 36.5t-33.5 91.5q0 30 10.5 57.5t29.5 49.5t45.5 35t57.5 13q56 0 89.5 -36.5t33.5 -91.5q0 -30 -10.5 -57.5t-29.5 -49.5t-45.5 -35t-57.5 -13z" />
    <glyph glyph-name="fraction" unicode="&#x2044;" horiz-adv-x="327" 
d="M-46 0l397 663h49l-397 -663h-49z" />
    <glyph glyph-name="onesuperior" unicode="&#xb9;" horiz-adv-x="393" 
d="M116 370h81l31 246q-8 -5 -25 -12.5t-32 -12.5l-29 -10l-11 26l106 51q11 5 21 5h19l-37 -293h75l-4 -34h-199z" />
    <glyph glyph-name="twosuperior" unicode="&#xb2;" horiz-adv-x="391" 
d="M190 451q26 23 44.5 41t30.5 33.5t18 29.5t6 30q0 25 -16 37.5t-45 12.5q-17 0 -35 -3t-43 -11l-22 -7l-10 26q31 17 60 25t54 8q43 0 71 -23t28 -63q0 -38 -25 -70t-75 -75l-83 -71h172l-4 -35h-221l2 22q1 8 2.5 11t9.5 10z" />
    <glyph glyph-name="threesuperior" unicode="&#xb3;" horiz-adv-x="390" 
d="M101 393l40 -12q18 -5 38 -9t34 -4q35 0 58 18.5t23 50.5q0 24 -13 35t-42 11h-38q-7 0 -6 6l4 27h59q8 0 12.5 1.5t9.5 7.5q10 11 15.5 27t5.5 29q0 25 -15 39t-49 14q-14 0 -29 -2.5t-38 -7.5l-28 -7l-10 26q27 13 55 21.5t54 8.5q46 0 73 -23t27 -64q0 -23 -12 -45
t-32 -39q18 -9 29 -24.5t11 -39.5q0 -21 -8.5 -40.5t-24.5 -34t-38 -23.5t-50 -9q-32 0 -66 11t-62 28z" />
    <glyph glyph-name="onehalf" unicode="&#xbd;" horiz-adv-x="809" 
d="M196 0l397 663h49l-397 -663h-49zM106 370h81l31 246q-8 -5 -25 -12.5t-32 -12.5l-29 -10l-11 26l106 51q11 5 21 5h19l-37 -293h75l-4 -34h-199zM586 115q26 23 44.5 41t30.5 33.5t18 29.5t6 30q0 25 -16 37.5t-45 12.5q-17 0 -35 -3t-43 -11l-22 -7l-10 26q31 17 60 25
t54 8q43 0 71 -23t28 -63q0 -38 -25 -70t-75 -75l-83 -71h172l-4 -35h-221l2 22q1 8 2.5 11t9.5 10z" />
    <glyph glyph-name="onequarter" unicode="&#xbc;" horiz-adv-x="809" 
d="M460 102q2 10 3 13t6 8l172 195q5 6 8.5 7.5t10.5 1.5h37l-25 -208h57l-4 -34h-57l-10 -85h-43l11 85h-168zM650 279l-47 -54l-50 -57q-11 -13 -24.5 -27.5t-21.5 -21.5h123zM208 0l397 663h49l-397 -663h-49zM112 370h81l31 246q-8 -5 -25 -12.5t-32 -12.5l-29 -10
l-11 26l106 51q11 5 21 5h19l-37 -293h75l-4 -34h-199z" />
    <glyph glyph-name="threequarters" unicode="&#xbe;" horiz-adv-x="809" 
d="M464 102q2 10 3 13t6 8l172 195q5 6 8.5 7.5t10.5 1.5h37l-25 -208h57l-4 -34h-57l-10 -85h-43l11 85h-168zM654 279l-47 -54l-50 -57q-11 -13 -24.5 -27.5t-21.5 -21.5h123zM212 0l397 663h49l-397 -663h-49zM101 393l40 -12q18 -5 38 -9t34 -4q35 0 58 18.5t23 50.5
q0 24 -13 35t-42 11h-38q-7 0 -6 6l4 27h59q8 0 12.5 1.5t9.5 7.5q10 11 15.5 27t5.5 29q0 25 -15 39t-49 14q-14 0 -29 -2.5t-38 -7.5l-28 -7l-10 26q27 13 55 21.5t54 8.5q46 0 73 -23t27 -64q0 -23 -12 -45t-32 -39q18 -9 29 -24.5t11 -39.5q0 -21 -8.5 -40.5t-24.5 -34
t-38 -23.5t-50 -9q-32 0 -66 11t-62 28z" />
    <glyph glyph-name="grave" unicode="`" horiz-adv-x="369" 
d="M119 654l31 40q3 4 5.5 5t7.5 -3l166 -137l-18 -22z" />
    <glyph glyph-name="acute" unicode="&#xb4;" horiz-adv-x="369" 
d="M120 537l-13 22l198 137q5 3 7.5 3t5.5 -5l22 -40z" />
    <glyph glyph-name="dieresis" unicode="&#xa8;" horiz-adv-x="369" 
d="M112 646h55q12 0 11 -11l-8 -63h-67zM276 646h55q12 0 11 -11l-8 -63h-67z" />
    <glyph glyph-name="circumflex" unicode="&#x2c6;" horiz-adv-x="369" 
d="M370 561l-20 -18l-114 108h-3l-140 -108l-15 18l136 130q8 8 19 8h13q8 0 11 -1.5t7 -6.5z" />
    <glyph glyph-name="tilde" unicode="&#x2dc;" horiz-adv-x="369" 
d="M283 573q-16 0 -32 6.5t-32 14.5t-32 14.5t-31 6.5q-14 0 -30 -9t-30 -33l-24 8q34 80 93 80q16 0 32 -6.5t32 -15t31.5 -15t30.5 -6.5q14 0 30.5 9.5t30.5 33.5l23 -9q-16 -38 -39.5 -58.5t-52.5 -20.5z" />
    <glyph glyph-name="macron" unicode="&#xaf;" horiz-adv-x="369" 
d="M85 577l5 40h273l-5 -40h-273z" />
    <glyph glyph-name="breve" unicode="&#x2d8;" horiz-adv-x="369" 
d="M213 551q-23 0 -44 8t-37.5 24t-27 39.5t-13.5 54.5l27 4q11 -38 37 -61t64 -23t71 23t52 61l26 -4q-20 -62 -62 -94t-93 -32z" />
    <glyph glyph-name="dotaccent" unicode="&#x2d9;" horiz-adv-x="369" 
d="M191 648h64q12 0 11 -11l-8 -67h-76z" />
    <glyph glyph-name="ring" unicode="&#x2da;" horiz-adv-x="369" 
d="M319 653q0 -20 -7.5 -38.5t-21 -32t-31.5 -21.5t-39 -8q-41 0 -66 27t-25 63q0 20 7.5 38.5t21 32t31.5 21.5t39 8q42 0 66.5 -27t24.5 -63zM281 651q0 20 -14 37.5t-40 17.5q-24 0 -41.5 -16t-17.5 -45q0 -20 13.5 -38t39.5 -18q24 0 42 16.5t18 45.5z" />
    <glyph glyph-name="cedilla" unicode="&#xb8;" horiz-adv-x="369" 
d="M182 20q-8 -11 -17 -25.5t-9 -25.5t15.5 -18t33.5 -16t33.5 -23t15.5 -37q0 -20 -12.5 -34.5t-34.5 -25t-52 -16.5t-65 -8l-6 28l71 17q26 6 39.5 13.5t13.5 19.5t-15 21t-33.5 17.5t-33.5 19t-15 25.5q0 17 15.5 37t37.5 40z" />
    <glyph glyph-name="hungarumlaut" unicode="&#x2dd;" horiz-adv-x="369" 
d="M89 572l-17 17l144 150q5 5 11 0l27 -31zM241 572l-17 17l144 150q5 5 11 0l27 -31z" />
    <glyph glyph-name="ogonek" unicode="&#x2db;" horiz-adv-x="369" 
d="M208 5q-43 -25 -68 -53t-25 -55q0 -39 50 -39q8 0 15 0.5t13 1.5l31 5l5 -25q-14 -9 -35.5 -14.5t-41.5 -5.5q-40 0 -62.5 21.5t-22.5 50.5q0 20 11 39t28 35t38 28.5t42 20.5l22 -10v0z" />
    <glyph glyph-name="caron" unicode="&#x2c7;" horiz-adv-x="369" 
d="M93 679l20 18l114 -108h3l140 108l15 -18l-136 -130q-8 -8 -19 -8h-13q-8 0 -11 1.5t-7 6.5z" />
    <glyph glyph-name="commaaccent" unicode="&#x326;" horiz-adv-x="369" 
d="M78 -245l58 187h40q13 0 13 -13q0 -10 -5 -23t-18 -36l-66 -120z" />
    <glyph glyph-name="grave.cap" horiz-adv-x="369" 
d="M129 842l31 40q3 4 5.5 5t7.5 -3l166 -137l-18 -22z" />
    <glyph glyph-name="acute.cap" horiz-adv-x="369" 
d="M145 725l-13 22l198 137q5 3 7.5 3t5.5 -5l22 -40z" />
    <glyph glyph-name="dieresis.cap" horiz-adv-x="369" 
d="M133 823h55q12 0 11 -11l-8 -63h-67zM297 823h55q12 0 11 -11l-8 -63h-67z" />
    <glyph glyph-name="circumflex.cap" horiz-adv-x="369" 
d="M385 728l-20 -18l-114 108h-3l-140 -108l-15 18l136 130q8 8 19 8h13q8 0 11 -1.5t7 -6.5z" />
    <glyph glyph-name="tilde.cap" horiz-adv-x="369" 
d="M303 740q-16 0 -32 6.5t-32 14.5t-32 14.5t-31 6.5q-14 0 -30 -9t-30 -33l-24 8q34 80 93 80q16 0 32 -6.5t32 -15t31.5 -15t30.5 -6.5q14 0 30.5 9.5t30.5 33.5l23 -9q-16 -38 -39.5 -58.5t-52.5 -20.5z" />
    <glyph glyph-name="macron.cap" horiz-adv-x="369" 
d="M100 747l5 40h273l-5 -40h-273z" />
    <glyph glyph-name="breve.cap" horiz-adv-x="369" 
d="M233 719q-23 0 -44 8t-37.5 24t-27 39.5t-13.5 54.5l27 4q11 -38 37 -61t64 -23t71 23t52 61l26 -4q-20 -62 -62 -94t-93 -32z" />
    <glyph glyph-name="dotaccent.cap" horiz-adv-x="369" 
d="M207 816h64q12 0 11 -11l-8 -67h-76z" />
    <glyph glyph-name="ring.cap" horiz-adv-x="369" 
d="M339 833q0 -20 -7.5 -38.5t-21 -32t-31.5 -21.5t-39 -8q-41 0 -66 27t-25 63q0 20 7.5 38.5t21 32t31.5 21.5t39 8q42 0 66.5 -27t24.5 -63zM301 831q0 20 -14 37.5t-40 17.5q-24 0 -41.5 -16t-17.5 -45q0 -20 13.5 -38t39.5 -18q24 0 42 16.5t18 45.5z" />
    <glyph glyph-name="hungarumlaut.cap" horiz-adv-x="369" 
d="M124 740l-17 17l144 150q5 5 11 0l27 -31zM276 740l-17 17l144 150q5 5 11 0l27 -31z" />
    <glyph glyph-name="caron.cap" horiz-adv-x="369" 
d="M116 859l20 18l114 -108h3l140 108l15 -18l-136 -130q-8 -8 -19 -8h-13q-8 0 -11 1.5t-7 6.5z" />
    <glyph glyph-name="arrowleft.cap" horiz-adv-x="769" 
d="M263 539l24 -24l-152 -163h564v-43h-564l152 -165l-24 -24l-192 190v29q0 9 5 14z" />
    <glyph glyph-name="arrowup.cap" horiz-adv-x="769" 
d="M594 451l-24 -24l-161 151v-564h-46v565l-164 -152l-24 24l191 191h28q10 0 15 -5z" />
    <glyph glyph-name="arrowright.cap" horiz-adv-x="769" 
d="M507 122l-24 24l152 163h-564v43h564l-152 165l24 24l192 -190v-29q0 -9 -5 -14z" />
    <glyph glyph-name="arrowdown.cap" horiz-adv-x="769" 
d="M175 205l24 24l161 -151v564h46v-565l164 152l24 -24l-191 -191h-28q-10 0 -15 5z" />
    <glyph glyph-name="uni2196.cap" horiz-adv-x="769" 
d="M444 563v-34l-221 -8l398 -398l-32 -32l-399 400l-8 -224h-35v269l20 21q6 6 14 6h263z" />
    <glyph glyph-name="uni2197.cap" horiz-adv-x="769" 
d="M620 267h-34l-7 222l-399 -398l-32 31l398 398l-222 9v34h269l21 -20q6 -6 6 -13v-263z" />
    <glyph glyph-name="uni2198.cap" horiz-adv-x="769" 
d="M324 92v34l222 9l-399 398l33 31l399 -399l8 224h34v-270l-20 -20q-7 -7 -15 -7h-262z" />
    <glyph glyph-name="uni2199.cap" horiz-adv-x="769" 
d="M148 387h34l8 -222l399 399l31 -32l-398 -398l223 -9v-34h-270l-20 19q-7 7 -7 13v264z" />
    <glyph glyph-name="periodcentered.cap" horiz-adv-x="179" 
d="M75 366h55q12 0 11 -11l-6 -59h-67z" />
    <glyph glyph-name="bullet.cap" horiz-adv-x="327" 
d="M249 244h-165l20 171h146q12 0 15.5 -3.5t1.5 -14.5z" />
    <glyph glyph-name="at.cap" horiz-adv-x="718" 
d="M514 492l-26 -212q-3 -27 -3 -39q0 -17 10 -27.5t33 -10.5q31 0 55.5 16t41 43t25 63t8.5 76q0 53 -17.5 95.5t-50 72t-78.5 45t-102 15.5q-66 0 -124 -26t-100.5 -71.5t-67.5 -107.5t-25 -134q0 -59 19 -106.5t53 -80.5t81.5 -50.5t105.5 -17.5q45 0 91 11.5t104 34.5
l69 27l14 -21q-29 -20 -63 -37t-71 -30t-75.5 -20.5t-77.5 -7.5q-63 0 -118 22t-95.5 61t-64 93.5t-23.5 119.5q0 75 27.5 144.5t77 123t118 85.5t149.5 32q65 0 118.5 -21t91.5 -57.5t59 -85t21 -103.5q0 -48 -13 -91.5t-36.5 -76.5t-57 -53t-73.5 -20q-28 0 -48.5 12.5
t-28.5 29.5q-62 -44 -110 -44q-23 0 -44 9.5t-37 28t-25 45t-9 59.5q0 42 13.5 77.5t36 61.5t50.5 40.5t57 14.5q26 0 47 -10t44 -32l15 39zM463 415q1 10 -6 16q-33 26 -75 26q-29 0 -50.5 -13t-36 -34t-21.5 -48.5t-7 -57.5q0 -51 22.5 -75t57.5 -24q23 0 46.5 9.5
t40.5 20.5q8 5 9 15z" />
    <glyph glyph-name="parenleft.cap" horiz-adv-x="286" 
d="M379 768q-53 -50 -97 -108.5t-75.5 -122.5t-49 -133t-17.5 -141q0 -46 7.5 -94t24 -95.5t42.5 -93t63 -86.5l-27 -22q-79 83 -119.5 177.5t-40.5 203.5q0 80 19 155t54.5 143t84.5 128.5t109 111.5l22 -23v0z" />
    <glyph glyph-name="parenright.cap" horiz-adv-x="283" 
d="M-49 -105q53 50 97 108.5t75.5 122.5t49 133t17.5 141q0 46 -7.5 94t-24 95.5t-42.5 93t-63 86.5l27 22q79 -83 119.5 -177.5t40.5 -203.5q0 -80 -19 -155t-54.5 -143t-84.5 -128.5t-109 -111.5l-22 23v0z" />
    <glyph glyph-name="bracketleft.cap" horiz-adv-x="261" 
d="M164 778h184l-5 -43h-134l-97 -806h134l-6 -43h-184z" />
    <glyph glyph-name="bracketright.cap" horiz-adv-x="261" 
d="M127 -114h-184l5 43h134l97 806h-134l6 43h184z" />
    <glyph glyph-name="braceleft.cap" horiz-adv-x="295" 
d="M70 345q33 7 56 17.5t37 27t20 40t6 56.5q0 19 -1 41.5t-2.5 46t-2.5 46.5t-1 42q0 58 28 90.5t84 32.5q21 0 43.5 -4t38.5 -9l-3 -22l-71 -7q-22 -2 -36 -7.5t-22.5 -15t-11.5 -24t-3 -35.5q0 -45 3.5 -94t3.5 -81q0 -57 -24.5 -95t-78.5 -61q35 -15 54 -38.5t19 -62.5
q0 -20 -6 -44.5t-15 -58.5l-19 -68q-12 -42 -17.5 -64t-5.5 -38q0 -19 11 -27t34 -10l85 -9l-3 -22q-18 -5 -42.5 -9t-44.5 -4q-42 0 -64.5 22t-22.5 57q0 18 6.5 44.5t18.5 66.5l21 71q8 27 13 50.5t5 42.5q0 38 -21.5 56t-72.5 29z" />
    <glyph glyph-name="braceright.cap" horiz-adv-x="295" 
d="M254 315q-33 -7 -56 -17.5t-37 -27t-20 -40t-6 -56.5q0 -19 1 -41.5t2.5 -46t2.5 -46.5t1 -42q0 -58 -28 -90.5t-84 -32.5q-21 0 -43.5 4t-38.5 9l3 22l71 7q43 4 58 22.5t15 59.5q0 45 -3.5 94t-3.5 81q0 57 24.5 95t78.5 61q-35 15 -54 38.5t-19 62.5q0 20 6 44.5
t15 58.5l19 68q12 42 17.5 64t5.5 38q0 19 -11 27t-34 10l-85 9l3 22q18 5 42.5 9t44.5 4q42 0 64.5 -22t22.5 -57q0 -18 -6.5 -44.5t-18.5 -66.5l-21 -71q-8 -27 -13 -50.5t-5 -42.5q0 -38 21.5 -56t72.5 -29z" />
    <glyph glyph-name="questiondown.cap" horiz-adv-x="452" 
d="M305 499l2 -49q1 -14 1.5 -25t0.5 -15q1 -20 -6 -30t-27 -21l-33 -19q-41 -24 -72.5 -44.5t-52.5 -42t-32 -46t-11 -56.5q0 -54 35.5 -84.5t98.5 -30.5q59 0 137 28l58 21l14 -27q-52 -32 -107 -50t-102 -18q-40 0 -73.5 11.5t-58 32.5t-38 50.5t-13.5 65.5q0 37 12.5 67
t35 55t54.5 46t70 41l62 32l20 108h25zM335 595h-55q-12 0 -11 11l6 57h67z" />
    <glyph glyph-name="exclamdown.cap" horiz-adv-x="216" 
d="M106.993 0h-49.9971l29.999 241.985q3.99902 27.998 7.49902 58.9961t11.499 68.9961l24.999 128.992h22.998l-5.99902 -129.992q-3 -60.9961 -11.999 -134.992zM187.988 594.964h-54.9961q-12 0 -11 10.999l6 56.9971h66.9961z" />
    <glyph glyph-name="guillemotleft.cap" horiz-adv-x="539" 
d="M232 151l-166 156q-5 5 -6.5 8t-0.5 10l3 27l214 163l19 -22l-183 -160l144 -160zM448 151l-166 156q-5 5 -6.5 8t-0.5 10l3 27l214 163l19 -22l-183 -160l144 -160z" />
    <glyph glyph-name="guillemotright.cap" horiz-adv-x="539" 
d="M323 515l166 -156q5 -5 6.5 -8t0.5 -10l-3 -27l-214 -163l-19 22l183 160l-144 160zM107 515l166 -156q5 -5 6.5 -8t0.5 -10l-3 -27l-214 -163l-19 22l183 160l-144 160z" />
    <glyph glyph-name="guilsinglleft.cap" horiz-adv-x="323" 
d="M232 151l-166 156q-5 5 -6.5 8t-0.5 10l3 27l214 163l19 -22l-183 -160l144 -160z" />
    <glyph glyph-name="guilsinglright.cap" horiz-adv-x="323" 
d="M107 515l166 -156q5 -5 6.5 -8t0.5 -10l-3 -27l-214 -163l-19 22l183 160l-144 160z" />
    <glyph glyph-name="hyphen.cap" horiz-adv-x="384" 
d="M66 311l5 41h269l-5 -41h-269z" />
    <glyph glyph-name="uni00AD.cap" horiz-adv-x="384" 
d="M66 311l5 41h269l-5 -41h-269z" />
    <glyph glyph-name="endash.cap" horiz-adv-x="595" 
d="M66 311l5 41h480l-5 -41h-480z" />
    <glyph glyph-name="emdash.cap" horiz-adv-x="1074" 
d="M66 311l5 41h959l-5 -41h-959z" />
    <glyph glyph-name="Agrave" unicode="&#xc0;" horiz-adv-x="642" 
d="M549 0q-7 0 -9 1.5t-4 6.5l-49 167h-341l-87 -167q-3 -5 -5.5 -6.5t-9.5 -1.5h-42l345 663h38q6 0 7.5 -1.5t3.5 -6.5l195 -655h-42zM475 218l-50 173q-17 61 -32 114t-29 105q-10 -21 -23 -47.5t-27 -56t-29 -59.5t-29 -57l-88 -172h307zM259 842l31 40q3 4 5.5 5
t7.5 -3l166 -137l-18 -22z" />
    <glyph glyph-name="Aacute" unicode="&#xc1;" horiz-adv-x="642" 
d="M549 0q-7 0 -9 1.5t-4 6.5l-49 167h-341l-87 -167q-3 -5 -5.5 -6.5t-9.5 -1.5h-42l345 663h38q6 0 7.5 -1.5t3.5 -6.5l195 -655h-42zM475 218l-50 173q-17 61 -32 114t-29 105q-10 -21 -23 -47.5t-27 -56t-29 -59.5t-29 -57l-88 -172h307zM284 725l-13 22l198 137
q5 3 7.5 3t5.5 -5l22 -40z" />
    <glyph glyph-name="Acircumflex" unicode="&#xc2;" horiz-adv-x="642" 
d="M549 0q-7 0 -9 1.5t-4 6.5l-49 167h-341l-87 -167q-3 -5 -5.5 -6.5t-9.5 -1.5h-42l345 663h38q6 0 7.5 -1.5t3.5 -6.5l195 -655h-42zM475 218l-50 173q-17 61 -32 114t-29 105q-10 -21 -23 -47.5t-27 -56t-29 -59.5t-29 -57l-88 -172h307zM521 728l-20 -18l-114 108h-3
l-140 -108l-15 18l136 130q8 8 19 8h13q8 0 11 -1.5t7 -6.5z" />
    <glyph glyph-name="Atilde" unicode="&#xc3;" horiz-adv-x="642" 
d="M549 0q-7 0 -9 1.5t-4 6.5l-49 167h-341l-87 -167q-3 -5 -5.5 -6.5t-9.5 -1.5h-42l345 663h38q6 0 7.5 -1.5t3.5 -6.5l195 -655h-42zM475 218l-50 173q-17 61 -32 114t-29 105q-10 -21 -23 -47.5t-27 -56t-29 -59.5t-29 -57l-88 -172h307zM438 740q-16 0 -32 6.5
t-32 14.5t-32 14.5t-31 6.5q-14 0 -30 -9t-30 -33l-24 8q34 80 93 80q16 0 32 -6.5t32 -15t31.5 -15t30.5 -6.5q14 0 30.5 9.5t30.5 33.5l23 -9q-16 -38 -39.5 -58.5t-52.5 -20.5z" />
    <glyph glyph-name="Adieresis" unicode="&#xc4;" horiz-adv-x="642" 
d="M549 0q-7 0 -9 1.5t-4 6.5l-49 167h-341l-87 -167q-3 -5 -5.5 -6.5t-9.5 -1.5h-42l345 663h38q6 0 7.5 -1.5t3.5 -6.5l195 -655h-42zM475 218l-50 173q-17 61 -32 114t-29 105q-10 -21 -23 -47.5t-27 -56t-29 -59.5t-29 -57l-88 -172h307zM267 823h55q12 0 11 -11l-8 -63
h-67zM431 823h55q12 0 11 -11l-8 -63h-67z" />
    <glyph glyph-name="Amacron" unicode="&#x100;" horiz-adv-x="642" 
d="M549 0q-7 0 -9 1.5t-4 6.5l-49 167h-341l-87 -167q-3 -5 -5.5 -6.5t-9.5 -1.5h-42l345 663h38q6 0 7.5 -1.5t3.5 -6.5l195 -655h-42zM475 218l-50 173q-17 61 -32 114t-29 105q-10 -21 -23 -47.5t-27 -56t-29 -59.5t-29 -57l-88 -172h307zM239 747l5 40h273l-5 -40h-273z
" />
    <glyph glyph-name="Abreve" unicode="&#x102;" horiz-adv-x="642" 
d="M549 0q-7 0 -9 1.5t-4 6.5l-49 167h-341l-87 -167q-3 -5 -5.5 -6.5t-9.5 -1.5h-42l345 663h38q6 0 7.5 -1.5t3.5 -6.5l195 -655h-42zM475 218l-50 173q-17 61 -32 114t-29 105q-10 -21 -23 -47.5t-27 -56t-29 -59.5t-29 -57l-88 -172h307zM373 719q-23 0 -44 8t-37.5 24
t-27 39.5t-13.5 54.5l27 4q11 -38 37 -61t64 -23t71 23t52 61l26 -4q-20 -62 -62 -94t-93 -32z" />
    <glyph glyph-name="Acaron" unicode="&#x1cd;" horiz-adv-x="642" 
d="M549 0q-7 0 -9 1.5t-4 6.5l-49 167h-341l-87 -167q-3 -5 -5.5 -6.5t-9.5 -1.5h-42l345 663h38q6 0 7.5 -1.5t3.5 -6.5l195 -655h-42zM475 218l-50 173q-17 61 -32 114t-29 105q-10 -21 -23 -47.5t-27 -56t-29 -59.5t-29 -57l-88 -172h307zM245 859l20 18l114 -108h3
l140 108l15 -18l-136 -130q-8 -8 -19 -8h-13q-8 0 -11 1.5t-7 6.5z" />
    <glyph glyph-name="Aring" unicode="&#xc5;" horiz-adv-x="642" 
d="M549 0q-7 0 -9 1.5t-4 6.5l-49 167h-341l-87 -167q-3 -5 -5.5 -6.5t-9.5 -1.5h-42l336 646q-24 11 -39.5 33.5t-15.5 49.5q0 20 7.5 38.5t21 32t31.5 21.5t39 8q42 0 66.5 -27t24.5 -63q0 -33 -21.5 -59.5t-52.5 -36.5l192 -643h-42zM475 218l-50 173q-17 61 -32 114
t-29 105q-10 -21 -23 -47.5t-27 -56t-29 -59.5t-29 -57l-88 -172h307zM435 737q0 20 -14 37.5t-40 17.5q-24 0 -41.5 -16t-17.5 -45q0 -20 13.5 -38t39.5 -18q24 0 42 16.5t18 45.5z" />
    <glyph glyph-name="Aringacute" unicode="&#x1fa;" horiz-adv-x="642" 
d="M549 0q-7 0 -9 1.5t-4 6.5l-49 167h-341l-87 -167q-3 -5 -5.5 -6.5t-9.5 -1.5h-42l336 646q-24 11 -39.5 33.5t-15.5 49.5q0 20 7.5 38.5t21 32t31.5 21.5t39 8q42 0 66.5 -27t24.5 -63q0 -33 -21.5 -59.5t-52.5 -36.5l192 -643h-42zM475 218l-50 173q-17 61 -32 114
t-29 105q-10 -21 -23 -47.5t-27 -56t-29 -59.5t-29 -57l-88 -172h307zM435 737q0 20 -14 37.5t-40 17.5q-24 0 -41.5 -16t-17.5 -45q0 -20 13.5 -38t39.5 -18q24 0 42 16.5t18 45.5zM301 843l-13 22l198 137q5 3 7.5 3t5.5 -5l22 -40z" />
    <glyph glyph-name="Aogonek" unicode="&#x104;" horiz-adv-x="642" 
d="M418 -108q0 20 10.5 39t27.5 35t37.5 28t40.5 19l-47 162h-341l-87 -167q-3 -5 -5.5 -6.5t-9.5 -1.5h-42l345 663h38q6 0 7.5 -1.5t3.5 -6.5l195 -655h-5q-19 0 -43 -10.5t-46 -31.5q-31 -31 -31 -61q0 -39 50 -39q8 0 15 0.5t13 1.5l31 5l5 -25q-14 -9 -35.5 -14.5
t-41.5 -5.5q-40 0 -62.5 21.5t-22.5 50.5zM475 218l-50 173q-17 61 -32 114t-29 105q-10 -21 -23 -47.5t-27 -56t-29 -59.5t-29 -57l-88 -172h307z" />
    <glyph glyph-name="AE" unicode="&#xc6;" horiz-adv-x="864" 
d="M407 0l21 176h-257l-117 -166q-5 -8 -8.5 -9t-13.5 -1h-43l478 663h400l-6 -43h-327l-30 -252h299l-6 -43h-299l-34 -282h341l-5 -43h-393zM202 218h231l48 392z" />
    <glyph glyph-name="AEacute" unicode="&#x1fc;" horiz-adv-x="864" 
d="M407 0l21 176h-257l-117 -166q-5 -8 -8.5 -9t-13.5 -1h-43l478 663h400l-6 -43h-327l-30 -252h299l-6 -43h-299l-34 -282h341l-5 -43h-393zM202 218h231l48 392zM526 725l-13 22l198 137q5 3 7.5 3t5.5 -5l22 -40z" />
    <glyph glyph-name="Cacute" unicode="&#x106;" horiz-adv-x="635" 
d="M592 85q-60 -42 -130 -68.5t-135 -26.5q-63 0 -113.5 22t-86 61t-55 93t-19.5 119q0 81 26 151.5t71.5 123t106 83t129.5 30.5q42 0 78.5 -13t66 -36.5t52 -55t37.5 -68.5l-35 -15l-43 54q-35 45 -73 65t-90 20q-57 0 -107 -25.5t-87 -70.5t-58 -106.5t-21 -133.5
q0 -56 14.5 -102t43 -78.5t70.5 -50.5t96 -18q42 0 86.5 13t92.5 33l65 28zM306 725l-13 22l198 137q5 3 7.5 3t5.5 -5l22 -40z" />
    <glyph glyph-name="Ccedilla" unicode="&#xc7;" horiz-adv-x="635" 
d="M592 85q-60 -42 -129.5 -68t-134.5 -27q-6 -11 -6 -21q0 -11 15.5 -18t33.5 -16t33.5 -23t15.5 -37q0 -20 -12.5 -34.5t-34.5 -25t-52 -16.5t-65 -8l-6 28l71 17q26 6 39.5 13.5t13.5 19.5t-15 21t-33.5 17.5t-33.5 19t-15 25.5q0 17 18 40q-56 5 -100.5 29t-76 62
t-48.5 89.5t-17 112.5q0 81 26 151.5t71.5 123t106 83t129.5 30.5q42 0 78.5 -13t66 -36.5t52 -55t37.5 -68.5l-35 -15l-43 54q-35 45 -73 65t-90 20q-57 0 -107 -25.5t-87 -70.5t-58 -106.5t-21 -133.5q0 -56 14.5 -102t43 -78.5t70.5 -50.5t96 -18q42 0 86.5 13t92.5 33
l65 28z" />
    <glyph glyph-name="Ccircumflex" unicode="&#x108;" horiz-adv-x="635" 
d="M592 85q-60 -42 -130 -68.5t-135 -26.5q-63 0 -113.5 22t-86 61t-55 93t-19.5 119q0 81 26 151.5t71.5 123t106 83t129.5 30.5q42 0 78.5 -13t66 -36.5t52 -55t37.5 -68.5l-35 -15l-43 54q-35 45 -73 65t-90 20q-57 0 -107 -25.5t-87 -70.5t-58 -106.5t-21 -133.5
q0 -56 14.5 -102t43 -78.5t70.5 -50.5t96 -18q42 0 86.5 13t92.5 33l65 28zM541 728l-20 -18l-114 108h-3l-140 -108l-15 18l136 130q8 8 19 8h13q8 0 11 -1.5t7 -6.5z" />
    <glyph glyph-name="Ccaron" unicode="&#x10c;" horiz-adv-x="635" 
d="M592 85q-60 -42 -130 -68.5t-135 -26.5q-63 0 -113.5 22t-86 61t-55 93t-19.5 119q0 81 26 151.5t71.5 123t106 83t129.5 30.5q42 0 78.5 -13t66 -36.5t52 -55t37.5 -68.5l-35 -15l-43 54q-35 45 -73 65t-90 20q-57 0 -107 -25.5t-87 -70.5t-58 -106.5t-21 -133.5
q0 -56 14.5 -102t43 -78.5t70.5 -50.5t96 -18q42 0 86.5 13t92.5 33l65 28zM263 859l20 18l114 -108h3l140 108l15 -18l-136 -130q-8 -8 -19 -8h-13q-8 0 -11 1.5t-7 6.5z" />
    <glyph glyph-name="Cdotaccent" unicode="&#x10a;" horiz-adv-x="635" 
d="M592 85q-60 -42 -130 -68.5t-135 -26.5q-63 0 -113.5 22t-86 61t-55 93t-19.5 119q0 81 26 151.5t71.5 123t106 83t129.5 30.5q42 0 78.5 -13t66 -36.5t52 -55t37.5 -68.5l-35 -15l-43 54q-35 45 -73 65t-90 20q-57 0 -107 -25.5t-87 -70.5t-58 -106.5t-21 -133.5
q0 -56 14.5 -102t43 -78.5t70.5 -50.5t96 -18q42 0 86.5 13t92.5 33l65 28zM369 816h64q12 0 11 -11l-8 -67h-76z" />
    <glyph glyph-name="Dcaron" unicode="&#x10e;" horiz-adv-x="661" 
d="M133 663h185q81 0 144.5 -15.5t105.5 -56.5q34 -32 52.5 -82t18.5 -119q0 -91 -30.5 -165t-84.5 -126q-51 -48 -119.5 -73.5t-162.5 -25.5h-189zM110 44h119q95 0 158 22.5t107 67.5q45 46 70 112.5t25 146.5q0 60 -15 101.5t-44 67.5q-35 32 -90.5 44.5t-132.5 12.5
h-127zM259 859l20 18l114 -108h3l140 108l15 -18l-136 -130q-8 -8 -19 -8h-13q-8 0 -11 1.5t-7 6.5z" />
    <glyph glyph-name="Dcroat" unicode="&#x110;" horiz-adv-x="673" 
d="M101 320h-87l4 41h88l37 302h185q81 0 144.5 -15.5t105.5 -56.5q34 -32 52.5 -82t18.5 -119q0 -91 -30.5 -165t-84.5 -126q-51 -48 -119.5 -73.5t-162.5 -25.5h-189zM153 320l-33 -277h119q95 0 158 23t107 68q45 46 70 112.5t25 146.5q0 60 -15 101.5t-44 67.5
q-35 32 -90.5 44.5t-132.5 12.5h-127l-32 -258h169l-5 -41h-169z" />
    <glyph glyph-name="Eth" unicode="&#xd0;" horiz-adv-x="673" 
d="M101 320h-87l4 41h88l37 302h185q81 0 144.5 -15.5t105.5 -56.5q34 -32 52.5 -82t18.5 -119q0 -91 -30.5 -165t-84.5 -126q-51 -48 -119.5 -73.5t-162.5 -25.5h-189zM153 320l-33 -277h119q95 0 158 23t107 68q45 46 70 112.5t25 146.5q0 60 -15 101.5t-44 67.5
q-35 32 -90.5 44.5t-132.5 12.5h-127l-32 -258h169l-5 -41h-169z" />
    <glyph glyph-name="Egrave" unicode="&#xc8;" horiz-adv-x="510" 
d="M513 663l-5 -43h-328l-30 -252h299l-6 -43h-299l-34 -282h341l-5 -43h-393l80 663h380zM236 842l31 40q3 4 5.5 5t7.5 -3l166 -137l-18 -22z" />
    <glyph glyph-name="Eacute" unicode="&#xc9;" horiz-adv-x="510" 
d="M513 663l-5 -43h-328l-30 -252h299l-6 -43h-299l-34 -282h341l-5 -43h-393l80 663h380zM247 725l-13 22l198 137q5 3 7.5 3t5.5 -5l22 -40z" />
    <glyph glyph-name="Ecircumflex" unicode="&#xca;" horiz-adv-x="510" 
d="M513 663l-5 -43h-328l-30 -252h299l-6 -43h-299l-34 -282h341l-5 -43h-393l80 663h380zM476 728l-20 -18l-114 108h-3l-140 -108l-15 18l136 130q8 8 19 8h13q8 0 11 -1.5t7 -6.5z" />
    <glyph glyph-name="Ecaron" unicode="&#x11a;" horiz-adv-x="510" 
d="M513 663l-5 -43h-328l-30 -252h299l-6 -43h-299l-34 -282h341l-5 -43h-393l80 663h380zM209 859l20 18l114 -108h3l140 108l15 -18l-136 -130q-8 -8 -19 -8h-13q-8 0 -11 1.5t-7 6.5z" />
    <glyph glyph-name="Edieresis" unicode="&#xcb;" horiz-adv-x="510" 
d="M513 663l-5 -43h-328l-30 -252h299l-6 -43h-299l-34 -282h341l-5 -43h-393l80 663h380zM228 823h55q12 0 11 -11l-8 -63h-67zM392 823h55q12 0 11 -11l-8 -63h-67z" />
    <glyph glyph-name="Emacron" unicode="&#x112;" horiz-adv-x="510" 
d="M513 663l-5 -43h-328l-30 -252h299l-6 -43h-299l-34 -282h341l-5 -43h-393l80 663h380zM194 747l5 40h273l-5 -40h-273z" />
    <glyph glyph-name="Ebreve" unicode="&#x114;" horiz-adv-x="510" 
d="M513 663l-5 -43h-328l-30 -252h299l-6 -43h-299l-34 -282h341l-5 -43h-393l80 663h380zM334 719q-23 0 -44 8t-37.5 24t-27 39.5t-13.5 54.5l27 4q11 -38 37 -61t64 -23t71 23t52 61l26 -4q-20 -62 -62 -94t-93 -32z" />
    <glyph glyph-name="Edotaccent" unicode="&#x116;" horiz-adv-x="510" 
d="M513 663l-5 -43h-328l-30 -252h299l-6 -43h-299l-34 -282h341l-5 -43h-393l80 663h380zM309 816h64q12 0 11 -11l-8 -67h-76z" />
    <glyph glyph-name="Eogonek" unicode="&#x118;" horiz-adv-x="510" 
d="M513 663l-6 -43h-327l-30 -252h299l-6 -43h-299l-34 -282h341l-5 -43h-12q-19 0 -43 -10.5t-46 -31.5q-31 -31 -31 -61q0 -39 50 -39q8 0 15 0.5t13 1.5l31 5l5 -25q-14 -9 -35.5 -14.5t-41.5 -5.5q-40 0 -62.5 21.5t-22.5 50.5q0 16 7.5 32.5t20.5 30.5t29 25.5t33 19.5
h-303l80 663h380z" />
    <glyph glyph-name="Gcircumflex" unicode="&#x11c;" horiz-adv-x="696" 
d="M586 275h-131l5 40h167q6 0 9 -2t2 -10l-37 -303h-30l-8 61l-31 -15q-56 -27 -107 -41.5t-99 -14.5q-65 0 -115.5 23.5t-85.5 64.5t-53.5 95t-18.5 116q0 81 27.5 151t74 122t109 81.5t133.5 29.5q84 0 147.5 -44t101.5 -125l-33 -19l-50 57q-38 43 -77.5 62.5
t-93.5 19.5q-59 0 -111 -23.5t-91 -67.5t-61.5 -106t-22.5 -138q0 -57 15.5 -103.5t45 -79t72.5 -50.5t98 -18q48 0 105.5 16.5t110.5 45.5q8 5 10 8.5t3 9.5zM556 728l-20 -18l-114 108h-3l-140 -108l-15 18l136 130q8 8 19 8h13q8 0 11 -1.5t7 -6.5z" />
    <glyph glyph-name="Gbreve" unicode="&#x11e;" horiz-adv-x="696" 
d="M586 275h-131l5 40h167q6 0 9 -2t2 -10l-37 -303h-30l-8 61l-31 -15q-56 -27 -107 -41.5t-99 -14.5q-65 0 -115.5 23.5t-85.5 64.5t-53.5 95t-18.5 116q0 81 27.5 151t74 122t109 81.5t133.5 29.5q84 0 147.5 -44t101.5 -125l-33 -19l-50 57q-38 43 -77.5 62.5
t-93.5 19.5q-59 0 -111 -23.5t-91 -67.5t-61.5 -106t-22.5 -138q0 -57 15.5 -103.5t45 -79t72.5 -50.5t98 -18q48 0 105.5 16.5t110.5 45.5q8 5 10 8.5t3 9.5zM411 719q-23 0 -44 8t-37.5 24t-27 39.5t-13.5 54.5l27 4q11 -38 37 -61t64 -23t71 23t52 61l26 -4
q-20 -62 -62 -94t-93 -32z" />
    <glyph glyph-name="Gdotaccent" unicode="&#x120;" horiz-adv-x="696" 
d="M586 275h-131l5 40h167q6 0 9 -2t2 -10l-37 -303h-30l-8 61l-31 -15q-56 -27 -107 -41.5t-99 -14.5q-65 0 -115.5 23.5t-85.5 64.5t-53.5 95t-18.5 116q0 81 27.5 151t74 122t109 81.5t133.5 29.5q84 0 147.5 -44t101.5 -125l-33 -19l-50 57q-38 43 -77.5 62.5
t-93.5 19.5q-59 0 -111 -23.5t-91 -67.5t-61.5 -106t-22.5 -138q0 -57 15.5 -103.5t45 -79t72.5 -50.5t98 -18q48 0 105.5 16.5t110.5 45.5q8 5 10 8.5t3 9.5zM377 816h64q12 0 11 -11l-8 -67h-76z" />
    <glyph glyph-name="Gcommaaccent" unicode="&#x122;" horiz-adv-x="696" 
d="M586 275h-131l5 40h167q6 0 9 -2t2 -10l-37 -303h-30l-8 61l-31 -15q-56 -27 -107 -41.5t-99 -14.5q-65 0 -115.5 23.5t-85.5 64.5t-53.5 95t-18.5 116q0 81 27.5 151t74 122t109 81.5t133.5 29.5q84 0 147.5 -44t101.5 -125l-33 -19l-50 57q-38 43 -77.5 62.5
t-93.5 19.5q-59 0 -111 -23.5t-91 -67.5t-61.5 -106t-22.5 -138q0 -57 15.5 -103.5t45 -79t72.5 -50.5t98 -18q48 0 105.5 16.5t110.5 45.5q8 5 10 8.5t3 9.5zM244 -245l58 187h40q13 0 13 -13q0 -10 -5 -23t-18 -36l-66 -120z" />
    <glyph glyph-name="Hcircumflex" unicode="&#x124;" horiz-adv-x="657" 
d="M541 324h-397l-39 -324h-52l80 663h52l-35 -294h396l36 294h52l-80 -663h-52zM535 728l-20 -18l-114 108h-3l-140 -108l-15 18l136 130q8 8 19 8h13q8 0 11 -1.5t7 -6.5z" />
    <glyph glyph-name="Hbar" unicode="&#x126;" horiz-adv-x="671" 
d="M549 324h-397l-39 -324h-52l62 520h-70l4 39h71l13 104h52l-13 -104h397l13 104h52l-13 -104h72l-4 -39h-73l-62 -520h-52zM554 369l18 151h-396l-18 -151h396z" />
    <glyph glyph-name="Igrave" unicode="&#xcc;" horiz-adv-x="212" 
d="M107 0h-52l80 663h52zM48 842l31 40q3 4 5.5 5t7.5 -3l166 -137l-18 -22z" />
    <glyph glyph-name="Iacute" unicode="&#xcd;" horiz-adv-x="212" 
d="M107 0h-52l80 663h52zM104 725l-13 22l198 137q5 3 7.5 3t5.5 -5l22 -40z" />
    <glyph glyph-name="Icircumflex" unicode="&#xce;" horiz-adv-x="212" 
d="M107 0h-52l80 663h52zM314 728l-20 -18l-114 108h-3l-140 -108l-15 18l136 130q8 8 19 8h13q8 0 11 -1.5t7 -6.5z" />
    <glyph glyph-name="Itilde" unicode="&#x128;" horiz-adv-x="212" 
d="M107 0h-52l80 663h52zM238 740q-16 0 -32 6.5t-32 14.5t-32 14.5t-31 6.5q-14 0 -30 -9t-30 -33l-24 8q34 80 93 80q16 0 32 -6.5t32 -15t31.5 -15t30.5 -6.5q14 0 30.5 9.5t30.5 33.5l23 -9q-16 -38 -39.5 -58.5t-52.5 -20.5z" />
    <glyph glyph-name="Idieresis" unicode="&#xcf;" horiz-adv-x="212" 
d="M107 0h-52l80 663h52zM67 823h55q12 0 11 -11l-8 -63h-67zM231 823h55q12 0 11 -11l-8 -63h-67z" />
    <glyph glyph-name="Imacron" unicode="&#x12a;" horiz-adv-x="212" 
d="M107 0h-52l80 663h52zM36 747l5 40h273l-5 -40h-273z" />
    <glyph glyph-name="Ibreve" unicode="&#x12c;" horiz-adv-x="212" 
d="M107 0h-52l80 663h52zM167 719q-23 0 -44 8t-37.5 24t-27 39.5t-13.5 54.5l27 4q11 -38 37 -61t64 -23t71 23t52 61l26 -4q-20 -62 -62 -94t-93 -32z" />
    <glyph glyph-name="Idotaccent" unicode="&#x130;" horiz-adv-x="212" 
d="M107 0h-52l80 663h52zM144 816h64q12 0 11 -11l-8 -67h-76z" />
    <glyph glyph-name="Iogonek" unicode="&#x12e;" horiz-adv-x="212" 
d="M107 0q-48 -23 -70.5 -50t-22.5 -53q0 -39 50 -39q8 0 15 0.5t13 1.5l31 5l5 -25q-14 -9 -35.5 -14.5t-41.5 -5.5q-40 0 -62.5 21.5t-22.5 50.5q0 16 7.5 32t20 29.5t28.5 25.5t33 21l80 663h52z" />
    <glyph glyph-name="IJ" unicode="&#x132;" horiz-adv-x="655" 
d="M107 0h-52l80 663h52zM224 60l38 -8q44 -9 72 -13t51 -4q66 0 100 34q20 20 30.5 52t15.5 77l56 465h52l-56 -465q-7 -54 -20.5 -92t-39.5 -64q-24 -25 -59 -38.5t-80 -13.5q-39 0 -84.5 11.5t-88.5 29.5z" />
    <glyph glyph-name="Jcircumflex" unicode="&#x134;" horiz-adv-x="440" 
d="M9 60l38 -8q44 -9 72 -13t51 -4q66 0 100 34q20 20 30.5 52t15.5 77l56 465h52l-56 -465q-7 -54 -20.5 -92t-39.5 -64q-24 -25 -59 -38.5t-80 -13.5q-39 0 -84.5 11.5t-88.5 29.5zM543 728l-20 -18l-114 108h-3l-140 -108l-15 18l136 130q8 8 19 8h13q8 0 11 -1.5t7 -6.5
z" />
    <glyph glyph-name="Kcommaaccent" unicode="&#x136;" horiz-adv-x="589" 
d="M328 397l225 -397h-44q-8 0 -11 1.5t-7 7.5l-201 356q-17 -14 -37.5 -30.5t-41.5 -32.5t-41 -31t-35 -25l-30 -246h-52l80 663h52l-45 -370l431 375l30 -34zM204 -245l58 187h40q13 0 13 -13q0 -10 -5 -23t-18 -36l-66 -120z" />
    <glyph glyph-name="Lacute" unicode="&#x139;" horiz-adv-x="485" 
d="M133 663h52l-75 -620h327l-5 -43h-379zM102 725l-13 22l198 137q5 3 7.5 3t5.5 -5l22 -40z" />
    <glyph glyph-name="Lcaron" unicode="&#x13d;" horiz-adv-x="485" 
d="M133 663h52l-75 -620h327l-5 -43h-379zM277 476l58 187h40q13 0 13 -13q0 -10 -5 -23t-18 -36l-66 -120z" />
    <glyph glyph-name="Lcommaaccent" unicode="&#x13b;" horiz-adv-x="485" 
d="M133 663h52l-75 -620h327l-5 -43h-379zM164 -245l58 187h40q13 0 13 -13q0 -10 -5 -23t-18 -36l-66 -120z" />
    <glyph glyph-name="Lslash" unicode="&#x141;" horiz-adv-x="527" 
d="M186 317l-33 -274h327l-5 -43h-379l34 283l-91 -59l-23 37l120 77l40 325h52l-35 -291l180 117l22 -36z" />
    <glyph glyph-name="Ldot" unicode="&#x13f;" horiz-adv-x="485" 
d="M133 663h52l-75 -620h327l-5 -43h-379zM323 401h64q12 0 11 -11l-8 -67h-76z" />
    <glyph glyph-name="Nacute" unicode="&#x143;" horiz-adv-x="695" 
d="M622 663h50l-80 -663h-31q-10 0 -15 8l-289 439l-86 133l-68 -580h-50l80 663h27q10 0 15 -8l289 -439q11 -17 24.5 -37.5t26 -40t23 -35.5t16.5 -25zM347 725l-13 22l198 137q5 3 7.5 3t5.5 -5l22 -40z" />
    <glyph glyph-name="Ncaron" unicode="&#x147;" horiz-adv-x="695" 
d="M622 663h50l-80 -663h-31q-10 0 -15 8l-289 439l-86 133l-68 -580h-50l80 663h27q10 0 15 -8l289 -439q11 -17 24.5 -37.5t26 -40t23 -35.5t16.5 -25zM289 859l20 18l114 -108h3l140 108l15 -18l-136 -130q-8 -8 -19 -8h-13q-8 0 -11 1.5t-7 6.5z" />
    <glyph glyph-name="Ntilde" unicode="&#xd1;" horiz-adv-x="695" 
d="M622 663h50l-80 -663h-31q-10 0 -15 8l-289 439l-86 133l-68 -580h-50l80 663h27q10 0 15 -8l289 -439q11 -17 24.5 -37.5t26 -40t23 -35.5t16.5 -25zM482 740q-16 0 -32 6.5t-32 14.5t-32 14.5t-31 6.5q-14 0 -30 -9t-30 -33l-24 8q34 80 93 80q16 0 32 -6.5t32 -15
t31.5 -15t30.5 -6.5q14 0 30.5 9.5t30.5 33.5l23 -9q-16 -38 -39.5 -58.5t-52.5 -20.5z" />
    <glyph glyph-name="Ncommaaccent" unicode="&#x145;" horiz-adv-x="695" 
d="M622 663h50l-80 -663h-31q-10 0 -15 8l-289 439l-86 133l-68 -580h-50l80 663h27q10 0 15 -8l289 -439q11 -17 24.5 -37.5t26 -40t23 -35.5t16.5 -25zM243 -245l58 187h40q13 0 13 -13q0 -10 -5 -23t-18 -36l-66 -120z" />
    <glyph glyph-name="Eng" unicode="&#x14a;" horiz-adv-x="695" 
d="M401 -156q36 0 61 9t41.5 29t26 52t13.5 77l-286 436l-86 132l-68 -579h-50l80 663h27q10 0 15 -8l289 -439q13 -19 26.5 -39.5t25.5 -39t22 -34t16 -24.5l68 584h50l-83 -687q-5 -38 -16.5 -69.5t-32.5 -55t-53 -36.5t-77 -13q-20 0 -46.5 5t-43.5 13l9 29
q17 -2 37 -3.5t35 -1.5z" />
    <glyph glyph-name="Ograve" unicode="&#xd2;" horiz-adv-x="694" 
d="M338 39q60 0 111.5 25t89.5 69t60 103.5t22 128.5q0 61 -17.5 109t-49 81.5t-74.5 51t-94 17.5q-60 0 -111.5 -25t-89.5 -69t-60 -103.5t-22 -128.5q0 -61 17.5 -109t49 -81.5t74.5 -51t94 -17.5zM335 -10q-61 0 -112.5 23t-89 64t-59 96.5t-21.5 120.5q0 76 25.5 145
t70.5 121t106.5 82.5t133.5 30.5q61 0 112.5 -23t89 -64t59 -96.5t21.5 -120.5q0 -76 -25.5 -145t-70.5 -121t-106.5 -82.5t-133.5 -30.5zM316 842l31 40q3 4 5.5 5t7.5 -3l166 -137l-18 -22z" />
    <glyph glyph-name="Oacute" unicode="&#xd3;" horiz-adv-x="694" 
d="M338 39q60 0 111.5 25t89.5 69t60 103.5t22 128.5q0 61 -17.5 109t-49 81.5t-74.5 51t-94 17.5q-60 0 -111.5 -25t-89.5 -69t-60 -103.5t-22 -128.5q0 -61 17.5 -109t49 -81.5t74.5 -51t94 -17.5zM335 -10q-61 0 -112.5 23t-89 64t-59 96.5t-21.5 120.5q0 76 25.5 145
t70.5 121t106.5 82.5t133.5 30.5q61 0 112.5 -23t89 -64t59 -96.5t21.5 -120.5q0 -76 -25.5 -145t-70.5 -121t-106.5 -82.5t-133.5 -30.5zM323 725l-13 22l198 137q5 3 7.5 3t5.5 -5l22 -40z" />
    <glyph glyph-name="Ocircumflex" unicode="&#xd4;" horiz-adv-x="694" 
d="M338 39q60 0 111.5 25t89.5 69t60 103.5t22 128.5q0 61 -17.5 109t-49 81.5t-74.5 51t-94 17.5q-60 0 -111.5 -25t-89.5 -69t-60 -103.5t-22 -128.5q0 -61 17.5 -109t49 -81.5t74.5 -51t94 -17.5zM335 -10q-61 0 -112.5 23t-89 64t-59 96.5t-21.5 120.5q0 76 25.5 145
t70.5 121t106.5 82.5t133.5 30.5q61 0 112.5 -23t89 -64t59 -96.5t21.5 -120.5q0 -76 -25.5 -145t-70.5 -121t-106.5 -82.5t-133.5 -30.5zM552 728l-20 -18l-114 108h-3l-140 -108l-15 18l136 130q8 8 19 8h13q8 0 11 -1.5t7 -6.5z" />
    <glyph glyph-name="Otilde" unicode="&#xd5;" horiz-adv-x="694" 
d="M338 39q60 0 111.5 25t89.5 69t60 103.5t22 128.5q0 61 -17.5 109t-49 81.5t-74.5 51t-94 17.5q-60 0 -111.5 -25t-89.5 -69t-60 -103.5t-22 -128.5q0 -61 17.5 -109t49 -81.5t74.5 -51t94 -17.5zM335 -10q-61 0 -112.5 23t-89 64t-59 96.5t-21.5 120.5q0 76 25.5 145
t70.5 121t106.5 82.5t133.5 30.5q61 0 112.5 -23t89 -64t59 -96.5t21.5 -120.5q0 -76 -25.5 -145t-70.5 -121t-106.5 -82.5t-133.5 -30.5zM467 740q-16 0 -32 6.5t-32 14.5t-32 14.5t-31 6.5q-14 0 -30 -9t-30 -33l-24 8q34 80 93 80q16 0 32 -6.5t32 -15t31.5 -15
t30.5 -6.5q14 0 30.5 9.5t30.5 33.5l23 -9q-16 -38 -39.5 -58.5t-52.5 -20.5z" />
    <glyph glyph-name="Odieresis" unicode="&#xd6;" horiz-adv-x="694" 
d="M338 39q60 0 111.5 25t89.5 69t60 103.5t22 128.5q0 61 -17.5 109t-49 81.5t-74.5 51t-94 17.5q-60 0 -111.5 -25t-89.5 -69t-60 -103.5t-22 -128.5q0 -61 17.5 -109t49 -81.5t74.5 -51t94 -17.5zM335 -10q-61 0 -112.5 23t-89 64t-59 96.5t-21.5 120.5q0 76 25.5 145
t70.5 121t106.5 82.5t133.5 30.5q61 0 112.5 -23t89 -64t59 -96.5t21.5 -120.5q0 -76 -25.5 -145t-70.5 -121t-106.5 -82.5t-133.5 -30.5zM294 823h55q12 0 11 -11l-8 -63h-67zM458 823h55q12 0 11 -11l-8 -63h-67z" />
    <glyph glyph-name="Omacron" unicode="&#x14c;" horiz-adv-x="694" 
d="M338 39q60 0 111.5 25t89.5 69t60 103.5t22 128.5q0 61 -17.5 109t-49 81.5t-74.5 51t-94 17.5q-60 0 -111.5 -25t-89.5 -69t-60 -103.5t-22 -128.5q0 -61 17.5 -109t49 -81.5t74.5 -51t94 -17.5zM335 -10q-61 0 -112.5 23t-89 64t-59 96.5t-21.5 120.5q0 76 25.5 145
t70.5 121t106.5 82.5t133.5 30.5q61 0 112.5 -23t89 -64t59 -96.5t21.5 -120.5q0 -76 -25.5 -145t-70.5 -121t-106.5 -82.5t-133.5 -30.5zM267 747l5 40h273l-5 -40h-273z" />
    <glyph glyph-name="Obreve" unicode="&#x14e;" horiz-adv-x="694" 
d="M338 39q60 0 111.5 25t89.5 69t60 103.5t22 128.5q0 61 -17.5 109t-49 81.5t-74.5 51t-94 17.5q-60 0 -111.5 -25t-89.5 -69t-60 -103.5t-22 -128.5q0 -61 17.5 -109t49 -81.5t74.5 -51t94 -17.5zM335 -10q-61 0 -112.5 23t-89 64t-59 96.5t-21.5 120.5q0 76 25.5 145
t70.5 121t106.5 82.5t133.5 30.5q61 0 112.5 -23t89 -64t59 -96.5t21.5 -120.5q0 -76 -25.5 -145t-70.5 -121t-106.5 -82.5t-133.5 -30.5zM405 719q-23 0 -44 8t-37.5 24t-27 39.5t-13.5 54.5l27 4q11 -38 37 -61t64 -23t71 23t52 61l26 -4q-20 -62 -62 -94t-93 -32z" />
    <glyph glyph-name="Ohungarumlaut" unicode="&#x150;" horiz-adv-x="694" 
d="M338 39q60 0 111.5 25t89.5 69t60 103.5t22 128.5q0 61 -17.5 109t-49 81.5t-74.5 51t-94 17.5q-60 0 -111.5 -25t-89.5 -69t-60 -103.5t-22 -128.5q0 -61 17.5 -109t49 -81.5t74.5 -51t94 -17.5zM335 -10q-61 0 -112.5 23t-89 64t-59 96.5t-21.5 120.5q0 76 25.5 145
t70.5 121t106.5 82.5t133.5 30.5q61 0 112.5 -23t89 -64t59 -96.5t21.5 -120.5q0 -76 -25.5 -145t-70.5 -121t-106.5 -82.5t-133.5 -30.5zM284 740l-17 17l144 150q5 5 11 0l27 -31zM436 740l-17 17l144 150q5 5 11 0l27 -31z" />
    <glyph glyph-name="Oslash" unicode="&#xd8;" horiz-adv-x="694" 
d="M335 -10q-51 0 -94.5 15t-78.5 44l-77 -94l-35 28l80 98q-36 41 -56.5 95t-20.5 118q0 76 25.5 145t70.5 121t106.5 82.5t133.5 30.5q51 0 95 -16.5t80 -45.5l76 93l35 -28l-79 -97q35 -41 55 -94t20 -116q0 -76 -25.5 -145t-70.5 -121t-106.5 -82.5t-133.5 -30.5z
M106 298q0 -56 15 -100.5t41 -76.5l370 451q-29 24 -66 37.5t-80 13.5q-60 0 -111 -25t-88.5 -68.5t-59 -103t-21.5 -128.5zM338 40q60 0 111 25t88.5 68.5t59 103t21.5 128.5q0 54 -15 98t-40 76l-369 -451q59 -48 144 -48z" />
    <glyph glyph-name="Oslashacute" unicode="&#x1fe;" horiz-adv-x="694" 
d="M335 -10q-51 0 -94.5 15t-78.5 44l-77 -94l-35 28l80 98q-36 41 -56.5 95t-20.5 118q0 76 25.5 145t70.5 121t106.5 82.5t133.5 30.5q51 0 95 -16.5t80 -45.5l76 93l35 -28l-79 -97q35 -41 55 -94t20 -116q0 -76 -25.5 -145t-70.5 -121t-106.5 -82.5t-133.5 -30.5z
M106 298q0 -56 15 -100.5t41 -76.5l370 451q-29 24 -66 37.5t-80 13.5q-60 0 -111 -25t-88.5 -68.5t-59 -103t-21.5 -128.5zM338 40q60 0 111 25t88.5 68.5t59 103t21.5 128.5q0 54 -15 98t-40 76l-369 -451q59 -48 144 -48zM326 725l-13 22l198 137q5 3 7.5 3t5.5 -5
l22 -40z" />
    <glyph glyph-name="OE" unicode="&#x152;" horiz-adv-x="1032" 
d="M1035 663l-6 -43h-327l-30 -252h299l-6 -43h-299l-34 -282h341l-5 -43h-393l16 132q-43 -63 -109 -102.5t-147 -39.5q-61 0 -112.5 23t-89 64t-59 96.5t-21.5 120.5q0 76 25.5 145t70.5 121t106.5 82.5t133.5 30.5q42 0 80.5 -12.5t70.5 -34.5t56.5 -53t39.5 -67l19 157
h380zM338 40q60 0 110.5 25t87.5 68.5t58 103t21 128.5q0 61 -17 109t-47 81t-72 50.5t-93 17.5q-60 0 -111 -25t-88.5 -68.5t-59 -103t-21.5 -128.5q0 -61 17.5 -109t48 -81t73 -50.5t93.5 -17.5z" />
    <glyph glyph-name="Thorn" unicode="&#xde;" 
d="M105 0h-52l80 663h52l-14 -116h164q56 0 95 -12.5t64 -36.5q23 -23 34 -55t11 -70q0 -50 -17.5 -102t-51.5 -91q-25 -29 -51.5 -40.5t-71.5 -11.5h-227zM126 171h223q37 0 56 8.5t37 34.5q21 30 33.5 70t12.5 84q0 65 -30 97q-20 21 -51 29t-79 8h-163z" />
    <glyph glyph-name="Racute" unicode="&#x154;" horiz-adv-x="594" 
d="M487 0q-8 0 -11 1.5t-5 6.5l-103 242q-3 8 -6.5 9.5t-12.5 1.5h-213l-31 -261h-52l80 663h222q53 0 89.5 -11.5t62.5 -34.5q45 -43 45 -123q0 -36 -9 -71t-27 -65.5t-43.5 -55t-58.5 -38.5l116 -264h-43zM360 303q33 0 53.5 8.5t38.5 31.5q24 30 36.5 69t12.5 81
q0 64 -32 95q-18 17 -47 24.5t-74 7.5h-168l-38 -317h218zM266 725l-13 22l198 137q5 3 7.5 3t5.5 -5l22 -40z" />
    <glyph glyph-name="Rcaron" unicode="&#x158;" horiz-adv-x="594" 
d="M487 0q-8 0 -11 1.5t-5 6.5l-103 242q-3 8 -6.5 9.5t-12.5 1.5h-213l-31 -261h-52l80 663h222q53 0 89.5 -11.5t62.5 -34.5q45 -43 45 -123q0 -36 -9 -71t-27 -65.5t-43.5 -55t-58.5 -38.5l116 -264h-43zM360 303q33 0 53.5 8.5t38.5 31.5q24 30 36.5 69t12.5 81
q0 64 -32 95q-18 17 -47 24.5t-74 7.5h-168l-38 -317h218zM223 859l20 18l114 -108h3l140 108l15 -18l-136 -130q-8 -8 -19 -8h-13q-8 0 -11 1.5t-7 6.5z" />
    <glyph glyph-name="Rcommaaccent" unicode="&#x156;" horiz-adv-x="594" 
d="M487 0q-8 0 -11 1.5t-5 6.5l-103 242q-3 8 -6.5 9.5t-12.5 1.5h-213l-31 -261h-52l80 663h222q53 0 89.5 -11.5t62.5 -34.5q45 -43 45 -123q0 -36 -9 -71t-27 -65.5t-43.5 -55t-58.5 -38.5l116 -264h-43zM360 303q33 0 53.5 8.5t38.5 31.5q24 30 36.5 69t12.5 81
q0 64 -32 95q-18 17 -47 24.5t-74 7.5h-168l-38 -317h218zM185 -245l58 187h40q13 0 13 -13q0 -10 -5 -23t-18 -36l-66 -120z" />
    <glyph glyph-name="Sacute" unicode="&#x15a;" horiz-adv-x="528" 
d="M32 74l59 -16q40 -11 76.5 -16.5t69.5 -5.5q37 0 70.5 9.5t58.5 29t40 48t15 66.5q0 23 -7 41t-22 34.5t-39.5 32t-59.5 33.5l-58 29q-72 36 -108 71.5t-36 90.5q0 71 59 111.5t160 40.5q21 0 44.5 -2.5t47.5 -6.5t46.5 -9.5t41.5 -11.5l-8 -30l-46 5q-35 4 -68 6.5
t-61 2.5q-36 0 -67 -5.5t-53.5 -18.5t-35 -33t-12.5 -48q0 -19 6.5 -34.5t21.5 -29.5t38.5 -28.5t56.5 -30.5l52 -26q41 -20 70.5 -40t48.5 -41t28 -45.5t9 -53.5q0 -44 -16.5 -81t-46.5 -64t-73.5 -42.5t-97.5 -15.5q-26 0 -54.5 4t-57 11.5t-56 17.5t-50.5 22zM238 725
l-13 22l198 137q5 3 7.5 3t5.5 -5l22 -40z" />
    <glyph glyph-name="Scircumflex" unicode="&#x15c;" horiz-adv-x="528" 
d="M32 74l59 -16q40 -11 76.5 -16.5t69.5 -5.5q37 0 70.5 9.5t58.5 29t40 48t15 66.5q0 23 -7 41t-22 34.5t-39.5 32t-59.5 33.5l-58 29q-72 36 -108 71.5t-36 90.5q0 71 59 111.5t160 40.5q21 0 44.5 -2.5t47.5 -6.5t46.5 -9.5t41.5 -11.5l-8 -30l-46 5q-35 4 -68 6.5
t-61 2.5q-36 0 -67 -5.5t-53.5 -18.5t-35 -33t-12.5 -48q0 -19 6.5 -34.5t21.5 -29.5t38.5 -28.5t56.5 -30.5l52 -26q41 -20 70.5 -40t48.5 -41t28 -45.5t9 -53.5q0 -44 -16.5 -81t-46.5 -64t-73.5 -42.5t-97.5 -15.5q-26 0 -54.5 4t-57 11.5t-56 17.5t-50.5 22zM470 728
l-20 -18l-114 108h-3l-140 -108l-15 18l136 130q8 8 19 8h13q8 0 11 -1.5t7 -6.5z" />
    <glyph glyph-name="Scaron" unicode="&#x160;" horiz-adv-x="528" 
d="M32 74l59 -16q40 -11 76.5 -16.5t69.5 -5.5q37 0 70.5 9.5t58.5 29t40 48t15 66.5q0 23 -7 41t-22 34.5t-39.5 32t-59.5 33.5l-58 29q-72 36 -108 71.5t-36 90.5q0 71 59 111.5t160 40.5q21 0 44.5 -2.5t47.5 -6.5t46.5 -9.5t41.5 -11.5l-8 -30l-46 5q-35 4 -68 6.5
t-61 2.5q-36 0 -67 -5.5t-53.5 -18.5t-35 -33t-12.5 -48q0 -19 6.5 -34.5t21.5 -29.5t38.5 -28.5t56.5 -30.5l52 -26q41 -20 70.5 -40t48.5 -41t28 -45.5t9 -53.5q0 -44 -16.5 -81t-46.5 -64t-73.5 -42.5t-97.5 -15.5q-26 0 -54.5 4t-57 11.5t-56 17.5t-50.5 22zM195 859
l20 18l114 -108h3l140 108l15 -18l-136 -130q-8 -8 -19 -8h-13q-8 0 -11 1.5t-7 6.5z" />
    <glyph glyph-name="Scedilla" unicode="&#x15e;" horiz-adv-x="528" 
d="M32 74l59 -16q40 -11 76.5 -16.5t69.5 -5.5q37 0 70.5 9.5t58.5 29t40 48t15 66.5q0 23 -7 41t-22 34.5t-39.5 32t-59.5 33.5l-58 29q-72 36 -108 71.5t-36 90.5q0 71 59 111.5t160 40.5q21 0 44.5 -2.5t47.5 -6.5t46.5 -9.5t41.5 -11.5l-8 -30l-46 5q-35 4 -68 6.5
t-61 2.5q-36 0 -67 -5.5t-53.5 -18.5t-35 -33t-12.5 -48q0 -19 6.5 -34.5t21.5 -29.5t38.5 -28.5t56.5 -30.5l52 -26q41 -20 70.5 -40t48.5 -41t28 -45.5t9 -53.5q0 -44 -16 -80.5t-46 -63.5t-72.5 -42.5t-95.5 -16.5q-6 -11 -6 -21q0 -11 15.5 -18t33.5 -16t33.5 -23
t15.5 -37q0 -20 -12.5 -34.5t-34.5 -25t-52 -16.5t-65 -8l-6 28l71 17q26 6 39.5 13.5t13.5 19.5t-15 21t-33.5 17.5t-33.5 19t-15 25.5q0 18 17 40q-48 4 -98.5 18t-89.5 35z" />
    <glyph glyph-name="Scommaaccent" unicode="&#x218;" horiz-adv-x="528" 
d="M32 74l59 -16q40 -11 76.5 -16.5t69.5 -5.5q37 0 70.5 9.5t58.5 29t40 48t15 66.5q0 23 -7 41t-22 34.5t-39.5 32t-59.5 33.5l-58 29q-72 36 -108 71.5t-36 90.5q0 71 59 111.5t160 40.5q21 0 44.5 -2.5t47.5 -6.5t46.5 -9.5t41.5 -11.5l-8 -30l-46 5q-35 4 -68 6.5
t-61 2.5q-36 0 -67 -5.5t-53.5 -18.5t-35 -33t-12.5 -48q0 -19 6.5 -34.5t21.5 -29.5t38.5 -28.5t56.5 -30.5l52 -26q41 -20 70.5 -40t48.5 -41t28 -45.5t9 -53.5q0 -44 -16.5 -81t-46.5 -64t-73.5 -42.5t-97.5 -15.5q-26 0 -54.5 4t-57 11.5t-56 17.5t-50.5 22zM160 -245
l58 187h40q13 0 13 -13q0 -10 -5 -23t-18 -36l-66 -120z" />
    <glyph glyph-name="Tcaron" unicode="&#x164;" horiz-adv-x="540" 
d="M293 620h-218l6 43h488l-6 -43h-218l-74 -620h-52zM195 859l20 18l114 -108h3l140 108l15 -18l-136 -130q-8 -8 -19 -8h-13q-8 0 -11 1.5t-7 6.5z" />
    <glyph glyph-name="Tcommaaccent" unicode="&#x162;" horiz-adv-x="540" 
d="M293 620h-218l6 43h488l-6 -43h-218l-74 -620h-52zM152 -245l58 187h40q13 0 13 -13q0 -10 -5 -23t-18 -36l-66 -120z" />
    <glyph glyph-name="uni021A" unicode="&#x21a;" horiz-adv-x="540" 
d="M293 620h-218l6 43h488l-6 -43h-218l-74 -620h-52zM152 -245l58 187h40q13 0 13 -13q0 -10 -5 -23t-18 -36l-66 -120z" />
    <glyph glyph-name="Tbar" unicode="&#x166;" horiz-adv-x="540" 
d="M256 314h-144l4 39h145l32 267h-218l6 43h488l-6 -43h-218l-32 -267h145l-5 -39h-145l-37 -314h-52z" />
    <glyph glyph-name="Ugrave" unicode="&#xd9;" horiz-adv-x="645" 
d="M625 663l-47 -392q-9 -76 -31 -127.5t-59 -86.5q-35 -33 -83 -50t-102 -17q-53 0 -95 15.5t-71 43.5t-44.5 67.5t-15.5 87.5q0 24 2 52t7 66l41 341h52l-42 -346q-5 -36 -7 -63.5t-2 -51.5q0 -74 45 -119t133 -45q46 0 87.5 15.5t69.5 45.5q51 56 66 177l47 387h49z
M257 842l31 40q3 4 5.5 5t7.5 -3l166 -137l-18 -22z" />
    <glyph glyph-name="Uacute" unicode="&#xda;" horiz-adv-x="645" 
d="M625 663l-47 -392q-9 -76 -31 -127.5t-59 -86.5q-35 -33 -83 -50t-102 -17q-53 0 -95 15.5t-71 43.5t-44.5 67.5t-15.5 87.5q0 24 2 52t7 66l41 341h52l-42 -346q-5 -36 -7 -63.5t-2 -51.5q0 -74 45 -119t133 -45q46 0 87.5 15.5t69.5 45.5q51 56 66 177l47 387h49z
M315 725l-13 22l198 137q5 3 7.5 3t5.5 -5l22 -40z" />
    <glyph glyph-name="Ucircumflex" unicode="&#xdb;" horiz-adv-x="645" 
d="M625 663l-47 -392q-9 -76 -31 -127.5t-59 -86.5q-35 -33 -83 -50t-102 -17q-53 0 -95 15.5t-71 43.5t-44.5 67.5t-15.5 87.5q0 24 2 52t7 66l41 341h52l-42 -346q-5 -36 -7 -63.5t-2 -51.5q0 -74 45 -119t133 -45q46 0 87.5 15.5t69.5 45.5q51 56 66 177l47 387h49z
M532 728l-20 -18l-114 108h-3l-140 -108l-15 18l136 130q8 8 19 8h13q8 0 11 -1.5t7 -6.5z" />
    <glyph glyph-name="Utilde" unicode="&#x168;" horiz-adv-x="645" 
d="M625 663l-47 -392q-9 -76 -31 -127.5t-59 -86.5q-35 -33 -83 -50t-102 -17q-53 0 -95 15.5t-71 43.5t-44.5 67.5t-15.5 87.5q0 24 2 52t7 66l41 341h52l-42 -346q-5 -36 -7 -63.5t-2 -51.5q0 -74 45 -119t133 -45q46 0 87.5 15.5t69.5 45.5q51 56 66 177l47 387h49z
M445 740q-16 0 -32 6.5t-32 14.5t-32 14.5t-31 6.5q-14 0 -30 -9t-30 -33l-24 8q34 80 93 80q16 0 32 -6.5t32 -15t31.5 -15t30.5 -6.5q14 0 30.5 9.5t30.5 33.5l23 -9q-16 -38 -39.5 -58.5t-52.5 -20.5z" />
    <glyph glyph-name="Udieresis" unicode="&#xdc;" horiz-adv-x="645" 
d="M625 663l-47 -392q-9 -76 -31 -127.5t-59 -86.5q-35 -33 -83 -50t-102 -17q-53 0 -95 15.5t-71 43.5t-44.5 67.5t-15.5 87.5q0 24 2 52t7 66l41 341h52l-42 -346q-5 -36 -7 -63.5t-2 -51.5q0 -74 45 -119t133 -45q46 0 87.5 15.5t69.5 45.5q51 56 66 177l47 387h49z
M279 823h55q12 0 11 -11l-8 -63h-67zM443 823h55q12 0 11 -11l-8 -63h-67z" />
    <glyph glyph-name="Umacron" unicode="&#x16a;" horiz-adv-x="645" 
d="M625 663l-47 -392q-9 -76 -31 -127.5t-59 -86.5q-35 -33 -83 -50t-102 -17q-53 0 -95 15.5t-71 43.5t-44.5 67.5t-15.5 87.5q0 24 2 52t7 66l41 341h52l-42 -346q-5 -36 -7 -63.5t-2 -51.5q0 -74 45 -119t133 -45q46 0 87.5 15.5t69.5 45.5q51 56 66 177l47 387h49z
M249 747l5 40h273l-5 -40h-273z" />
    <glyph glyph-name="Ubreve" unicode="&#x16c;" horiz-adv-x="645" 
d="M625 663l-47 -392q-9 -76 -31 -127.5t-59 -86.5q-35 -33 -83 -50t-102 -17q-53 0 -95 15.5t-71 43.5t-44.5 67.5t-15.5 87.5q0 24 2 52t7 66l41 341h52l-42 -346q-5 -36 -7 -63.5t-2 -51.5q0 -74 45 -119t133 -45q46 0 87.5 15.5t69.5 45.5q51 56 66 177l47 387h49z
M383 719q-23 0 -44 8t-37.5 24t-27 39.5t-13.5 54.5l27 4q11 -38 37 -61t64 -23t71 23t52 61l26 -4q-20 -62 -62 -94t-93 -32z" />
    <glyph glyph-name="Uring" unicode="&#x16e;" horiz-adv-x="645" 
d="M625 663l-47 -392q-9 -76 -31 -127.5t-59 -86.5q-35 -33 -83 -50t-102 -17q-53 0 -95 15.5t-71 43.5t-44.5 67.5t-15.5 87.5q0 24 2 52t7 66l41 341h52l-42 -346q-5 -36 -7 -63.5t-2 -51.5q0 -74 45 -119t133 -45q46 0 87.5 15.5t69.5 45.5q51 56 66 177l47 387h49z
M489 833q0 -20 -7.5 -38.5t-21 -32t-31.5 -21.5t-39 -8q-41 0 -66 27t-25 63q0 20 7.5 38.5t21 32t31.5 21.5t39 8q42 0 66.5 -27t24.5 -63zM451 831q0 20 -14 37.5t-40 17.5q-24 0 -41.5 -16t-17.5 -45q0 -20 13.5 -38t39.5 -18q24 0 42 16.5t18 45.5z" />
    <glyph glyph-name="Uhungarumlaut" unicode="&#x170;" horiz-adv-x="645" 
d="M625 663l-47 -392q-9 -76 -31 -127.5t-59 -86.5q-35 -33 -83 -50t-102 -17q-53 0 -95 15.5t-71 43.5t-44.5 67.5t-15.5 87.5q0 24 2 52t7 66l41 341h52l-42 -346q-5 -36 -7 -63.5t-2 -51.5q0 -74 45 -119t133 -45q46 0 87.5 15.5t69.5 45.5q51 56 66 177l47 387h49z
M294 740l-17 17l144 150q5 5 11 0l27 -31zM446 740l-17 17l144 150q5 5 11 0l27 -31z" />
    <glyph glyph-name="Uogonek" unicode="&#x172;" horiz-adv-x="645" 
d="M332 -8q-6 -1 -15.5 -1.5t-16.5 -0.5q-51 0 -92 15.5t-70.5 43.5t-45 67.5t-15.5 87.5q0 24 2 52t7 66l41 341h52l-42 -346q-5 -36 -7 -63.5t-2 -51.5q0 -75 46 -119.5t132 -44.5q46 0 88 15.5t70 45.5q26 29 41.5 72t23.5 105l47 387h49l-47 -392q-8 -65 -25 -112
t-45 -81q-15 -19 -46.5 -41.5t-76.5 -46.5q-48 -26 -70.5 -46t-22.5 -43q0 -20 13 -31.5t37 -11.5q10 0 26.5 2t32.5 5l5 -25q-14 -8 -36 -14t-41 -6q-39 0 -62 21t-23 51q0 32 25 56.5t63 43.5z" />
    <glyph glyph-name="Wgrave" unicode="&#x1e80;" horiz-adv-x="930" 
d="M526 663q11 0 12 -8l73 -375l43 -221q16 41 40 99.5t50 121.5l152 375q2 5 4.5 6.5t9.5 1.5h42l-274 -663h-51q-6 0 -8 2t-3 6l-80 406q-12 60 -20.5 110.5t-13.5 77.5q-6 -16 -14 -37t-17 -45t-18.5 -49t-18.5 -49l-165 -422h-49q-6 0 -8 2t-3 6l-134 655h43q10 0 11 -8
l79 -397q9 -47 19 -101.5t17 -94.5q14 39 32.5 84.5t41.5 105.5l162 411h46zM402 842l31 40q3 4 5.5 5t7.5 -3l166 -137l-18 -22z" />
    <glyph glyph-name="Wacute" unicode="&#x1e82;" horiz-adv-x="930" 
d="M526 663q11 0 12 -8l73 -375l43 -221q16 41 40 99.5t50 121.5l152 375q2 5 4.5 6.5t9.5 1.5h42l-274 -663h-51q-6 0 -8 2t-3 6l-80 406q-12 60 -20.5 110.5t-13.5 77.5q-6 -16 -14 -37t-17 -45t-18.5 -49t-18.5 -49l-165 -422h-49q-6 0 -8 2t-3 6l-134 655h43q10 0 11 -8
l79 -397q9 -47 19 -101.5t17 -94.5q14 39 32.5 84.5t41.5 105.5l162 411h46zM429 725l-13 22l198 137q5 3 7.5 3t5.5 -5l22 -40z" />
    <glyph glyph-name="Wcircumflex" unicode="&#x174;" horiz-adv-x="930" 
d="M526 663q11 0 12 -8l73 -375l43 -221q16 41 40 99.5t50 121.5l152 375q2 5 4.5 6.5t9.5 1.5h42l-274 -663h-51q-6 0 -8 2t-3 6l-80 406q-12 60 -20.5 110.5t-13.5 77.5q-6 -16 -14 -37t-17 -45t-18.5 -49t-18.5 -49l-165 -422h-49q-6 0 -8 2t-3 6l-134 655h43q10 0 11 -8
l79 -397q9 -47 19 -101.5t17 -94.5q14 39 32.5 84.5t41.5 105.5l162 411h46zM658 728l-20 -18l-114 108h-3l-140 -108l-15 18l136 130q8 8 19 8h13q8 0 11 -1.5t7 -6.5z" />
    <glyph glyph-name="Wdieresis" unicode="&#x1e84;" horiz-adv-x="930" 
d="M526 663q11 0 12 -8l73 -375l43 -221q16 41 40 99.5t50 121.5l152 375q2 5 4.5 6.5t9.5 1.5h42l-274 -663h-51q-6 0 -8 2t-3 6l-80 406q-12 60 -20.5 110.5t-13.5 77.5q-6 -16 -14 -37t-17 -45t-18.5 -49t-18.5 -49l-165 -422h-49q-6 0 -8 2t-3 6l-134 655h43q10 0 11 -8
l79 -397q9 -47 19 -101.5t17 -94.5q14 39 32.5 84.5t41.5 105.5l162 411h46zM409 823h55q12 0 11 -11l-8 -63h-67zM573 823h55q12 0 11 -11l-8 -63h-67z" />
    <glyph glyph-name="Ygrave" unicode="&#x1ef2;" horiz-adv-x="558" 
d="M607 663l-299 -443l-27 -220h-52l27 222l-194 441h44q7 0 9 -1t5 -8l83 -192q28 -64 49 -115t34 -86q27 42 64 98.5t75 112.5l123 182q5 6 7.5 7.5t10.5 1.5h41zM187 842l31 40q3 4 5.5 5t7.5 -3l166 -137l-18 -22z" />
    <glyph glyph-name="Yacute" unicode="&#xdd;" horiz-adv-x="558" 
d="M607 663l-299 -443l-27 -220h-52l27 222l-194 441h44q7 0 9 -1t5 -8l83 -192q28 -64 49 -115t34 -86q27 42 64 98.5t75 112.5l123 182q5 6 7.5 7.5t10.5 1.5h41zM265 725l-13 22l198 137q5 3 7.5 3t5.5 -5l22 -40z" />
    <glyph glyph-name="Ycircumflex" unicode="&#x176;" horiz-adv-x="558" 
d="M607 663l-299 -443l-27 -220h-52l27 222l-194 441h44q7 0 9 -1t5 -8l83 -192q28 -64 49 -115t34 -86q27 42 64 98.5t75 112.5l123 182q5 6 7.5 7.5t10.5 1.5h41zM481 728l-20 -18l-114 108h-3l-140 -108l-15 18l136 130q8 8 19 8h13q8 0 11 -1.5t7 -6.5z" />
    <glyph glyph-name="Ydieresis" unicode="&#x178;" horiz-adv-x="558" 
d="M607 663l-299 -443l-27 -220h-52l27 222l-194 441h44q7 0 9 -1t5 -8l83 -192q28 -64 49 -115t34 -86q27 42 64 98.5t75 112.5l123 182q5 6 7.5 7.5t10.5 1.5h41zM232 823h55q12 0 11 -11l-8 -63h-67zM396 823h55q12 0 11 -11l-8 -63h-67z" />
    <glyph glyph-name="Zacute" unicode="&#x179;" horiz-adv-x="512" 
d="M464 43l-5 -43h-447l3 21q1 6 2 9t6 9l316 416q35 46 67.5 89.5t57.5 75.5h-378l6 43h444l-3 -21q-1 -9 -8 -18l-316 -416q-35 -46 -67.5 -89.5t-57.5 -75.5h380zM238 725l-13 22l198 137q5 3 7.5 3t5.5 -5l22 -40z" />
    <glyph glyph-name="Zcaron" unicode="&#x17d;" horiz-adv-x="512" 
d="M464 43l-5 -43h-447l3 21q1 6 2 9t6 9l316 416q35 46 67.5 89.5t57.5 75.5h-378l6 43h444l-3 -21q-1 -9 -8 -18l-316 -416q-35 -46 -67.5 -89.5t-57.5 -75.5h380zM189 859l20 18l114 -108h3l140 108l15 -18l-136 -130q-8 -8 -19 -8h-13q-8 0 -11 1.5t-7 6.5z" />
    <glyph glyph-name="Zdotaccent" unicode="&#x17b;" horiz-adv-x="512" 
d="M464 43l-5 -43h-447l3 21q1 6 2 9t6 9l316 416q35 46 67.5 89.5t57.5 75.5h-378l6 43h444l-3 -21q-1 -9 -8 -18l-316 -416q-35 -46 -67.5 -89.5t-57.5 -75.5h380zM287 816h64q12 0 11 -11l-8 -67h-76z" />
    <glyph glyph-name="agrave" unicode="&#xe0;" horiz-adv-x="536" 
d="M476 484l-53 -440l75 -12l-3 -20q-14 -6 -33 -10t-32 -4q-26 0 -40.5 15t-14.5 42l-22 -14q-36 -23 -72 -36t-71 -13q-42 0 -74 16.5t-54 45t-33 66.5t-11 82q0 60 19.5 113.5t52.5 93.5t76.5 63.5t92.5 23.5q62 0 123 -44l22 -16l17 52zM368 90q7 5 8.5 8.5t2.5 8.5
l35 282q1 7 -1 10t-7 7q-27 20 -58 32.5t-67 12.5q-39 0 -74 -17t-61.5 -49.5t-41.5 -78t-15 -102.5q0 -35 7 -65.5t22.5 -53.5t40.5 -36t60 -13t75.5 16t73.5 38zM181 654l31 40q3 4 5.5 5t7.5 -3l166 -137l-18 -22z" />
    <glyph glyph-name="aacute" unicode="&#xe1;" horiz-adv-x="536" 
d="M476 484l-53 -440l75 -12l-3 -20q-14 -6 -33 -10t-32 -4q-26 0 -40.5 15t-14.5 42l-22 -14q-36 -23 -72 -36t-71 -13q-42 0 -74 16.5t-54 45t-33 66.5t-11 82q0 60 19.5 113.5t52.5 93.5t76.5 63.5t92.5 23.5q62 0 123 -44l22 -16l17 52zM368 90q7 5 8.5 8.5t2.5 8.5
l35 282q1 7 -1 10t-7 7q-27 20 -58 32.5t-67 12.5q-39 0 -74 -17t-61.5 -49.5t-41.5 -78t-15 -102.5q0 -35 7 -65.5t22.5 -53.5t40.5 -36t60 -13t75.5 16t73.5 38zM214 537l-13 22l198 137q5 3 7.5 3t5.5 -5l22 -40z" />
    <glyph glyph-name="acircumflex" unicode="&#xe2;" horiz-adv-x="536" 
d="M476 484l-53 -440l75 -12l-3 -20q-14 -6 -33 -10t-32 -4q-26 0 -40.5 15t-14.5 42l-22 -14q-36 -23 -72 -36t-71 -13q-42 0 -74 16.5t-54 45t-33 66.5t-11 82q0 60 19.5 113.5t52.5 93.5t76.5 63.5t92.5 23.5q62 0 123 -44l22 -16l17 52zM368 90q7 5 8.5 8.5t2.5 8.5
l35 282q1 7 -1 10t-7 7q-27 20 -58 32.5t-67 12.5q-39 0 -74 -17t-61.5 -49.5t-41.5 -78t-15 -102.5q0 -35 7 -65.5t22.5 -53.5t40.5 -36t60 -13t75.5 16t73.5 38zM443 561l-20 -18l-114 108h-3l-140 -108l-15 18l136 130q8 8 19 8h13q8 0 11 -1.5t7 -6.5z" />
    <glyph glyph-name="atilde" unicode="&#xe3;" horiz-adv-x="536" 
d="M476 484l-53 -440l75 -12l-3 -20q-14 -6 -33 -10t-32 -4q-26 0 -40.5 15t-14.5 42l-22 -14q-36 -23 -72 -36t-71 -13q-42 0 -74 16.5t-54 45t-33 66.5t-11 82q0 60 19.5 113.5t52.5 93.5t76.5 63.5t92.5 23.5q62 0 123 -44l22 -16l17 52zM368 90q7 5 8.5 8.5t2.5 8.5
l35 282q1 7 -1 10t-7 7q-27 20 -58 32.5t-67 12.5q-39 0 -74 -17t-61.5 -49.5t-41.5 -78t-15 -102.5q0 -35 7 -65.5t22.5 -53.5t40.5 -36t60 -13t75.5 16t73.5 38zM363 573q-16 0 -32 6.5t-32 14.5t-32 14.5t-31 6.5q-14 0 -30 -9t-30 -33l-24 8q34 80 93 80q16 0 32 -6.5
t32 -15t31.5 -15t30.5 -6.5q14 0 30.5 9.5t30.5 33.5l23 -9q-16 -38 -39.5 -58.5t-52.5 -20.5z" />
    <glyph glyph-name="adieresis" unicode="&#xe4;" horiz-adv-x="536" 
d="M476 484l-53 -440l75 -12l-3 -20q-14 -6 -33 -10t-32 -4q-26 0 -40.5 15t-14.5 42l-22 -14q-36 -23 -72 -36t-71 -13q-42 0 -74 16.5t-54 45t-33 66.5t-11 82q0 60 19.5 113.5t52.5 93.5t76.5 63.5t92.5 23.5q62 0 123 -44l22 -16l17 52zM368 90q7 5 8.5 8.5t2.5 8.5
l35 282q1 7 -1 10t-7 7q-27 20 -58 32.5t-67 12.5q-39 0 -74 -17t-61.5 -49.5t-41.5 -78t-15 -102.5q0 -35 7 -65.5t22.5 -53.5t40.5 -36t60 -13t75.5 16t73.5 38zM186 646h55q12 0 11 -11l-8 -63h-67zM350 646h55q12 0 11 -11l-8 -63h-67z" />
    <glyph glyph-name="amacron" unicode="&#x101;" horiz-adv-x="536" 
d="M476 484l-53 -440l75 -12l-3 -20q-14 -6 -33 -10t-32 -4q-26 0 -40.5 15t-14.5 42l-22 -14q-36 -23 -72 -36t-71 -13q-42 0 -74 16.5t-54 45t-33 66.5t-11 82q0 60 19.5 113.5t52.5 93.5t76.5 63.5t92.5 23.5q62 0 123 -44l22 -16l17 52zM368 90q7 5 8.5 8.5t2.5 8.5
l35 282q1 7 -1 10t-7 7q-27 20 -58 32.5t-67 12.5q-39 0 -74 -17t-61.5 -49.5t-41.5 -78t-15 -102.5q0 -35 7 -65.5t22.5 -53.5t40.5 -36t60 -13t75.5 16t73.5 38zM149 577l5 40h273l-5 -40h-273z" />
    <glyph glyph-name="abreve" unicode="&#x103;" horiz-adv-x="536" 
d="M476 484l-53 -440l75 -12l-3 -20q-14 -6 -33 -10t-32 -4q-26 0 -40.5 15t-14.5 42l-22 -14q-36 -23 -72 -36t-71 -13q-42 0 -74 16.5t-54 45t-33 66.5t-11 82q0 60 19.5 113.5t52.5 93.5t76.5 63.5t92.5 23.5q62 0 123 -44l22 -16l17 52zM368 90q7 5 8.5 8.5t2.5 8.5
l35 282q1 7 -1 10t-7 7q-27 20 -58 32.5t-67 12.5q-39 0 -74 -17t-61.5 -49.5t-41.5 -78t-15 -102.5q0 -35 7 -65.5t22.5 -53.5t40.5 -36t60 -13t75.5 16t73.5 38zM292 551q-23 0 -44 8t-37.5 24t-27 39.5t-13.5 54.5l27 4q11 -38 37 -61t64 -23t71 23t52 61l26 -4
q-20 -62 -62 -94t-93 -32z" />
    <glyph glyph-name="acaron" unicode="&#x1ce;" horiz-adv-x="536" 
d="M476 484l-53 -440l75 -12l-3 -20q-14 -6 -33 -10t-32 -4q-26 0 -40.5 15t-14.5 42l-22 -14q-36 -23 -72 -36t-71 -13q-42 0 -74 16.5t-54 45t-33 66.5t-11 82q0 60 19.5 113.5t52.5 93.5t76.5 63.5t92.5 23.5q62 0 123 -44l22 -16l17 52zM368 90q7 5 8.5 8.5t2.5 8.5
l35 282q1 7 -1 10t-7 7q-27 20 -58 32.5t-67 12.5q-39 0 -74 -17t-61.5 -49.5t-41.5 -78t-15 -102.5q0 -35 7 -65.5t22.5 -53.5t40.5 -36t60 -13t75.5 16t73.5 38zM158 679l20 18l114 -108h3l140 108l15 -18l-136 -130q-8 -8 -19 -8h-13q-8 0 -11 1.5t-7 6.5z" />
    <glyph glyph-name="aring" unicode="&#xe5;" horiz-adv-x="536" 
d="M476 484l-53 -440l75 -12l-3 -20q-14 -6 -33 -10t-32 -4q-26 0 -40.5 15t-14.5 42l-22 -14q-36 -23 -72 -36t-71 -13q-42 0 -74 16.5t-54 45t-33 66.5t-11 82q0 60 19.5 113.5t52.5 93.5t76.5 63.5t92.5 23.5q62 0 123 -44l22 -16l17 52zM368 90q7 5 8.5 8.5t2.5 8.5
l35 282q1 7 -1 10t-7 7q-27 20 -58 32.5t-67 12.5q-39 0 -74 -17t-61.5 -49.5t-41.5 -78t-15 -102.5q0 -35 7 -65.5t22.5 -53.5t40.5 -36t60 -13t75.5 16t73.5 38zM398 653q0 -20 -7.5 -38.5t-21 -32t-31.5 -21.5t-39 -8q-41 0 -66 27t-25 63q0 20 7.5 38.5t21 32t31.5 21.5
t39 8q42 0 66.5 -27t24.5 -63zM360 651q0 20 -14 37.5t-40 17.5q-24 0 -41.5 -16t-17.5 -45q0 -20 13.5 -38t39.5 -18q24 0 42 16.5t18 45.5z" />
    <glyph glyph-name="aringacute" unicode="&#x1fb;" horiz-adv-x="536" 
d="M476 484l-53 -440l75 -12l-3 -20q-14 -6 -33 -10t-32 -4q-26 0 -40.5 15t-14.5 42l-22 -14q-36 -23 -72 -36t-71 -13q-42 0 -74 16.5t-54 45t-33 66.5t-11 82q0 60 19.5 113.5t52.5 93.5t76.5 63.5t92.5 23.5q62 0 123 -44l22 -16l17 52zM368 90q7 5 8.5 8.5t2.5 8.5
l35 282q1 7 -1 10t-7 7q-27 20 -58 32.5t-67 12.5q-39 0 -74 -17t-61.5 -49.5t-41.5 -78t-15 -102.5q0 -35 7 -65.5t22.5 -53.5t40.5 -36t60 -13t75.5 16t73.5 38zM395 629q0 -20 -7.5 -38.5t-21 -32t-31.5 -21.5t-39 -8q-41 0 -66 27t-25 63q0 20 7.5 38.5t21 32t31.5 21.5
t39 8q42 0 66.5 -27t24.5 -63zM357 627q0 20 -14 37.5t-40 17.5q-24 0 -41.5 -16t-17.5 -45q0 -20 13.5 -38t39.5 -18q24 0 42 16.5t18 45.5zM226 731l-13 22l198 137q5 3 7.5 3t5.5 -5l22 -40z" />
    <glyph glyph-name="aogonek" unicode="&#x105;" horiz-adv-x="536" 
d="M313 -104q0 18 8 34t21.5 30t30 24.5t34.5 17.5q-32 13 -32 53l-22 -14q-36 -23 -72 -36t-71 -13q-42 0 -74 16.5t-54 45t-33 66.5t-11 82q0 60 19.5 113.5t52.5 93.5t76.5 63.5t92.5 23.5q62 0 123 -44l22 -16l17 52l35 -4l-53 -440l75 -12l-3 -20q-65 -22 -100 -51
t-35 -61q0 -20 13.5 -31t36.5 -11q9 0 25.5 2t33.5 5l5 -25q-14 -8 -35 -14t-41 -6q-42 0 -63.5 23t-21.5 53zM368 90q7 5 8.5 8.5t2.5 8.5l35 282q1 7 -1 10t-7 7q-27 20 -58 32.5t-67 12.5q-39 0 -74 -17t-61.5 -49.5t-41.5 -78t-15 -102.5q0 -35 7 -65.5t22.5 -53.5
t40.5 -36t60 -13t75.5 16t73.5 38z" />
    <glyph glyph-name="ae" unicode="&#xe6;" horiz-adv-x="850" 
d="M428 235q-1 -5 -1 -10v-9q0 -40 10 -73t30.5 -57t50.5 -37t70 -13q29 0 60 8t68 23l57 23l14 -24q-43 -31 -97.5 -52.5t-106.5 -21.5q-57 0 -99 22t-68 60l-34 -20q-51 -30 -96.5 -46t-87.5 -16q-39 0 -70.5 12t-53.5 32t-33.5 47.5t-11.5 58.5q0 26 9 50t28.5 42
t50.5 29t75 11q12 0 34 -0.5t48 -1.5t54 -2t52 -2q6 29 8.5 48.5t2.5 33.5q0 51 -29.5 76.5t-81.5 25.5q-26 0 -55 -5t-61 -14l-60 -17l-11 28q52 26 98.5 39t90.5 13q28 0 54 -7.5t46 -21t33 -33t16 -43.5q34 48 83.5 76.5t107.5 28.5q43 0 77.5 -17t58.5 -45.5t37 -66
t13 -77.5q0 -33 -6 -44t-23 -11h-351zM203 35q21 0 45.5 5.5t50.5 15.5t51 23t47 27q-11 23 -16.5 50.5t-5.5 56.5v10.5t1 10.5h-184q-32 0 -54.5 -6t-36.5 -20q-23 -23 -23 -65q0 -51 33.5 -79.5t91.5 -28.5zM761 274q0 81 -37.5 129t-106.5 48q-36 0 -67.5 -14
t-55.5 -38.5t-39.5 -56.5t-21.5 -68h328z" />
    <glyph glyph-name="aeacute" unicode="&#x1fd;" horiz-adv-x="850" 
d="M428 235q-1 -5 -1 -10v-9q0 -40 10 -73t30.5 -57t50.5 -37t70 -13q29 0 60 8t68 23l57 23l14 -24q-43 -31 -97.5 -52.5t-106.5 -21.5q-57 0 -99 22t-68 60l-34 -20q-51 -30 -96.5 -46t-87.5 -16q-39 0 -70.5 12t-53.5 32t-33.5 47.5t-11.5 58.5q0 26 9 50t28.5 42
t50.5 29t75 11q12 0 34 -0.5t48 -1.5t54 -2t52 -2q6 29 8.5 48.5t2.5 33.5q0 51 -29.5 76.5t-81.5 25.5q-26 0 -55 -5t-61 -14l-60 -17l-11 28q52 26 98.5 39t90.5 13q28 0 54 -7.5t46 -21t33 -33t16 -43.5q34 48 83.5 76.5t107.5 28.5q43 0 77.5 -17t58.5 -45.5t37 -66
t13 -77.5q0 -33 -6 -44t-23 -11h-351zM203 35q21 0 45.5 5.5t50.5 15.5t51 23t47 27q-11 23 -16.5 50.5t-5.5 56.5v10.5t1 10.5h-184q-32 0 -54.5 -6t-36.5 -20q-23 -23 -23 -65q0 -51 33.5 -79.5t91.5 -28.5zM761 274q0 81 -37.5 129t-106.5 48q-36 0 -67.5 -14
t-55.5 -38.5t-39.5 -56.5t-21.5 -68h328zM399 537l-13 22l198 137q5 3 7.5 3t5.5 -5l22 -40z" />
    <glyph glyph-name="cacute" unicode="&#x107;" horiz-adv-x="487" 
d="M440 65q-45 -32 -98 -52.5t-106 -20.5q-48 0 -85 17t-62.5 46.5t-38.5 69.5t-13 86q0 54 17.5 105.5t49.5 91.5t76.5 64t97.5 24q65 0 112 -37.5t67 -91.5l-32 -16l-23 26q-32 37 -60 56t-68 19q-38 0 -71.5 -17.5t-58.5 -49t-40 -76t-15 -98.5q0 -78 39.5 -126.5
t113.5 -48.5q27 0 59 7t68 23l56 24zM194 537l-13 22l198 137q5 3 7.5 3t5.5 -5l22 -40z" />
    <glyph glyph-name="ccedilla" unicode="&#xe7;" horiz-adv-x="487" 
d="M440 65q-43 -31 -94.5 -51t-102.5 -22q-7 -14 -7 -23q0 -11 15.5 -18t33.5 -16t33.5 -23t15.5 -37q0 -20 -12.5 -34.5t-34.5 -25t-52 -16.5t-65 -8l-6 28l71 17q26 6 39.5 13.5t13.5 19.5t-15 21t-33.5 17.5t-33.5 19t-15 25.5q0 18 19 42q-42 4 -74 22.5t-54 47.5
t-33.5 66.5t-11.5 80.5q0 54 17.5 105.5t49.5 91.5t76.5 64t97.5 24q65 0 112 -37.5t67 -91.5l-32 -16l-23 26q-32 37 -60 56t-68 19q-38 0 -71.5 -17.5t-58.5 -49t-40 -76t-15 -98.5q0 -78 39.5 -126.5t113.5 -48.5q27 0 59 7t68 23l56 24z" />
    <glyph glyph-name="ccircumflex" unicode="&#x109;" horiz-adv-x="487" 
d="M440 65q-45 -32 -98 -52.5t-106 -20.5q-48 0 -85 17t-62.5 46.5t-38.5 69.5t-13 86q0 54 17.5 105.5t49.5 91.5t76.5 64t97.5 24q65 0 112 -37.5t67 -91.5l-32 -16l-23 26q-32 37 -60 56t-68 19q-38 0 -71.5 -17.5t-58.5 -49t-40 -76t-15 -98.5q0 -78 39.5 -126.5
t113.5 -48.5q27 0 59 7t68 23l56 24zM438 561l-20 -18l-114 108h-3l-140 -108l-15 18l136 130q8 8 19 8h13q8 0 11 -1.5t7 -6.5z" />
    <glyph glyph-name="ccaron" unicode="&#x10d;" horiz-adv-x="487" 
d="M440 65q-45 -32 -98 -52.5t-106 -20.5q-48 0 -85 17t-62.5 46.5t-38.5 69.5t-13 86q0 54 17.5 105.5t49.5 91.5t76.5 64t97.5 24q65 0 112 -37.5t67 -91.5l-32 -16l-23 26q-32 37 -60 56t-68 19q-38 0 -71.5 -17.5t-58.5 -49t-40 -76t-15 -98.5q0 -78 39.5 -126.5
t113.5 -48.5q27 0 59 7t68 23l56 24zM158 679l20 18l114 -108h3l140 108l15 -18l-136 -130q-8 -8 -19 -8h-13q-8 0 -11 1.5t-7 6.5z" />
    <glyph glyph-name="cdotaccent" unicode="&#x10b;" horiz-adv-x="487" 
d="M440 65q-45 -32 -98 -52.5t-106 -20.5q-48 0 -85 17t-62.5 46.5t-38.5 69.5t-13 86q0 54 17.5 105.5t49.5 91.5t76.5 64t97.5 24q65 0 112 -37.5t67 -91.5l-32 -16l-23 26q-32 37 -60 56t-68 19q-38 0 -71.5 -17.5t-58.5 -49t-40 -76t-15 -98.5q0 -78 39.5 -126.5
t113.5 -48.5q27 0 59 7t68 23l56 24zM260 648h64q12 0 11 -11l-8 -67h-76z" />
    <glyph glyph-name="dcaron" unicode="&#x10f;" horiz-adv-x="607" 
d="M477 484q-8 -64 -17 -140t-17 -143q-10 -78 -19 -157l78 -12l-3 -20q-14 -6 -33 -10t-32 -4q-26 0 -42 15t-16 42l-22 -14q-35 -23 -72 -36t-72 -13q-42 0 -74 16.5t-54 45t-33 66.5t-11 82q0 60 19.5 113.5t52.5 93.5t77 63.5t93 23.5q62 0 123 -44l18 -13l32 270h51z
M369 90q7 5 8.5 8.5t2.5 8.5l35 282q1 7 -1 10t-7 7q-27 20 -58 32.5t-67 12.5q-39 0 -74.5 -17t-61.5 -49.5t-41.5 -78t-15.5 -102.5q0 -35 7 -65.5t22.5 -53.5t40.5 -36t60 -13t76 16t74 38zM529 522l58 187h40q13 0 13 -13q0 -10 -5 -23t-18 -36l-66 -120z" />
    <glyph glyph-name="dcroat" unicode="&#x111;" horiz-adv-x="540" 
d="M477 484q-8 -64 -17 -140t-17 -143q-10 -78 -19 -157l78 -12l-3 -20q-14 -6 -33 -10t-32 -4q-26 0 -42 15t-16 42l-22 -14q-35 -23 -72 -36t-72 -13q-42 0 -74 16.5t-54 45t-33 66.5t-11 82q0 60 19.5 113.5t52.5 93.5t77 63.5t93 23.5q62 0 123 -44l18 -13l17 149h-207
l4 38h208l10 83h51l-10 -84l79 -14l-2 -23h-82zM369 90q7 5 8.5 8.5t2.5 8.5l35 282q1 7 -1 10t-7 7q-27 20 -58 32.5t-67 12.5q-39 0 -74.5 -17t-61.5 -49.5t-41.5 -78t-15.5 -102.5q0 -35 7 -65.5t22.5 -53.5t40.5 -36t60 -13t76 16t74 38z" />
    <glyph glyph-name="eth" unicode="&#xf0;" horiz-adv-x="531" 
d="M311 626q-23 20 -54 39.5t-63 36.5l19 25q42 -18 76 -39.5t60 -43.5l127 55l18 -34l-112 -49q51 -53 78.5 -121t27.5 -149q0 -80 -19 -145t-52.5 -111.5t-79 -72t-99.5 -25.5q-45 0 -82 17.5t-63.5 47.5t-41 70t-14.5 85q0 56 18.5 102.5t50.5 79.5t74.5 51.5t90.5 18.5
q81 0 163 -54q-4 51 -30 102.5t-64 85.5l-126 -55l-16 34zM275 420q-41 0 -75.5 -13t-59 -39t-38.5 -64.5t-14 -89.5q0 -39 9.5 -71.5t29 -56t48 -36.5t66.5 -13q45 0 82 21t62.5 61.5t39.5 99t14 133.5q0 15 -13 24q-29 19 -68.5 31.5t-82.5 12.5z" />
    <glyph glyph-name="egrave" unicode="&#xe8;" horiz-adv-x="512" 
d="M90 235q-1 -5 -1 -10v-9q0 -40 10 -73t30.5 -57t50.5 -37t70 -13q29 0 60 8t68 23l57 23l14 -24q-43 -31 -97.5 -52.5t-106.5 -21.5q-49 0 -87.5 17.5t-65.5 47.5t-41 70t-14 86q0 57 19.5 108.5t53 90.5t78.5 61.5t96 22.5q43 0 77.5 -17t58.5 -45.5t37 -66t13 -77.5
q0 -33 -6 -44t-23 -11h-351zM423 274q0 81 -37.5 129t-106.5 48q-36 0 -67.5 -14t-55.5 -38.5t-39.5 -56.5t-21.5 -68h328zM184 654l31 40q3 4 5.5 5t7.5 -3l166 -137l-18 -22z" />
    <glyph glyph-name="eacute" unicode="&#xe9;" horiz-adv-x="512" 
d="M90 235q-1 -5 -1 -10v-9q0 -40 10 -73t30.5 -57t50.5 -37t70 -13q29 0 60 8t68 23l57 23l14 -24q-43 -31 -97.5 -52.5t-106.5 -21.5q-49 0 -87.5 17.5t-65.5 47.5t-41 70t-14 86q0 57 19.5 108.5t53 90.5t78.5 61.5t96 22.5q43 0 77.5 -17t58.5 -45.5t37 -66t13 -77.5
q0 -33 -6 -44t-23 -11h-351zM423 274q0 81 -37.5 129t-106.5 48q-36 0 -67.5 -14t-55.5 -38.5t-39.5 -56.5t-21.5 -68h328zM208 537l-13 22l198 137q5 3 7.5 3t5.5 -5l22 -40z" />
    <glyph glyph-name="ecircumflex" unicode="&#xea;" horiz-adv-x="512" 
d="M90 235q-1 -5 -1 -10v-9q0 -40 10 -73t30.5 -57t50.5 -37t70 -13q29 0 60 8t68 23l57 23l14 -24q-43 -31 -97.5 -52.5t-106.5 -21.5q-49 0 -87.5 17.5t-65.5 47.5t-41 70t-14 86q0 57 19.5 108.5t53 90.5t78.5 61.5t96 22.5q43 0 77.5 -17t58.5 -45.5t37 -66t13 -77.5
q0 -33 -6 -44t-23 -11h-351zM423 274q0 81 -37.5 129t-106.5 48q-36 0 -67.5 -14t-55.5 -38.5t-39.5 -56.5t-21.5 -68h328zM443 561l-20 -18l-114 108h-3l-140 -108l-15 18l136 130q8 8 19 8h13q8 0 11 -1.5t7 -6.5z" />
    <glyph glyph-name="ecaron" unicode="&#x11b;" horiz-adv-x="512" 
d="M90 235q-1 -5 -1 -10v-9q0 -40 10 -73t30.5 -57t50.5 -37t70 -13q29 0 60 8t68 23l57 23l14 -24q-43 -31 -97.5 -52.5t-106.5 -21.5q-49 0 -87.5 17.5t-65.5 47.5t-41 70t-14 86q0 57 19.5 108.5t53 90.5t78.5 61.5t96 22.5q43 0 77.5 -17t58.5 -45.5t37 -66t13 -77.5
q0 -33 -6 -44t-23 -11h-351zM423 274q0 81 -37.5 129t-106.5 48q-36 0 -67.5 -14t-55.5 -38.5t-39.5 -56.5t-21.5 -68h328zM161 679l20 18l114 -108h3l140 108l15 -18l-136 -130q-8 -8 -19 -8h-13q-8 0 -11 1.5t-7 6.5z" />
    <glyph glyph-name="edieresis" unicode="&#xeb;" horiz-adv-x="512" 
d="M90 235q-1 -5 -1 -10v-9q0 -40 10 -73t30.5 -57t50.5 -37t70 -13q29 0 60 8t68 23l57 23l14 -24q-43 -31 -97.5 -52.5t-106.5 -21.5q-49 0 -87.5 17.5t-65.5 47.5t-41 70t-14 86q0 57 19.5 108.5t53 90.5t78.5 61.5t96 22.5q43 0 77.5 -17t58.5 -45.5t37 -66t13 -77.5
q0 -33 -6 -44t-23 -11h-351zM423 274q0 81 -37.5 129t-106.5 48q-36 0 -67.5 -14t-55.5 -38.5t-39.5 -56.5t-21.5 -68h328zM190 646h55q12 0 11 -11l-8 -63h-67zM354 646h55q12 0 11 -11l-8 -63h-67z" />
    <glyph glyph-name="emacron" unicode="&#x113;" horiz-adv-x="512" 
d="M90 235q-1 -5 -1 -10v-9q0 -40 10 -73t30.5 -57t50.5 -37t70 -13q29 0 60 8t68 23l57 23l14 -24q-43 -31 -97.5 -52.5t-106.5 -21.5q-49 0 -87.5 17.5t-65.5 47.5t-41 70t-14 86q0 57 19.5 108.5t53 90.5t78.5 61.5t96 22.5q43 0 77.5 -17t58.5 -45.5t37 -66t13 -77.5
q0 -33 -6 -44t-23 -11h-351zM423 274q0 81 -37.5 129t-106.5 48q-36 0 -67.5 -14t-55.5 -38.5t-39.5 -56.5t-21.5 -68h328zM159 577l5 40h273l-5 -40h-273z" />
    <glyph glyph-name="ebreve" unicode="&#x115;" horiz-adv-x="512" 
d="M90 235q-1 -5 -1 -10v-9q0 -40 10 -73t30.5 -57t50.5 -37t70 -13q29 0 60 8t68 23l57 23l14 -24q-43 -31 -97.5 -52.5t-106.5 -21.5q-49 0 -87.5 17.5t-65.5 47.5t-41 70t-14 86q0 57 19.5 108.5t53 90.5t78.5 61.5t96 22.5q43 0 77.5 -17t58.5 -45.5t37 -66t13 -77.5
q0 -33 -6 -44t-23 -11h-351zM423 274q0 81 -37.5 129t-106.5 48q-36 0 -67.5 -14t-55.5 -38.5t-39.5 -56.5t-21.5 -68h328zM297 551q-23 0 -44 8t-37.5 24t-27 39.5t-13.5 54.5l27 4q11 -38 37 -61t64 -23t71 23t52 61l26 -4q-20 -62 -62 -94t-93 -32z" />
    <glyph glyph-name="edotaccent" unicode="&#x117;" horiz-adv-x="512" 
d="M90 235q-1 -5 -1 -10v-9q0 -40 10 -73t30.5 -57t50.5 -37t70 -13q29 0 60 8t68 23l57 23l14 -24q-43 -31 -97.5 -52.5t-106.5 -21.5q-49 0 -87.5 17.5t-65.5 47.5t-41 70t-14 86q0 57 19.5 108.5t53 90.5t78.5 61.5t96 22.5q43 0 77.5 -17t58.5 -45.5t37 -66t13 -77.5
q0 -33 -6 -44t-23 -11h-351zM423 274q0 81 -37.5 129t-106.5 48q-36 0 -67.5 -14t-55.5 -38.5t-39.5 -56.5t-21.5 -68h328zM222 648h64q12 0 11 -11l-8 -67h-76z" />
    <glyph glyph-name="eogonek" unicode="&#x119;" horiz-adv-x="512" 
d="M90 235q-1 -5 -1 -10v-9q0 -40 10 -73t30.5 -57t50.5 -37t70 -13q29 0 60 8t68 23l57 23l14 -24q-65 -47 -101.5 -86.5t-36.5 -77.5q0 -20 12 -32t38 -12q8 0 17 1t14 2l29 4l5 -25q-14 -8 -35.5 -14t-41.5 -6q-42 0 -63.5 24.5t-21.5 53.5q0 32 19.5 59.5t51.5 52.5
q-20 -9 -45 -13.5t-45 -4.5q-49 0 -87.5 17.5t-65.5 47.5t-41 70t-14 86q0 57 19.5 108.5t53 90.5t78.5 61.5t96 22.5q43 0 77.5 -17t58.5 -45.5t37 -66t13 -77.5q0 -33 -6 -44t-23 -11h-351zM423 274q0 81 -37.5 129t-106.5 48q-36 0 -67.5 -14t-55.5 -38.5t-39.5 -56.5
t-21.5 -68h328z" />
    <glyph glyph-name="gcircumflex" unicode="&#x11d;" horiz-adv-x="521" 
d="M374 97q7 5 8.5 8.5t2.5 8.5l34 275q1 7 -1 10t-7 7q-27 20 -58 32.5t-67 12.5q-39 0 -75 -17t-63 -48.5t-43 -77.5t-16 -103q0 -35 8 -64.5t24.5 -51.5t42.5 -34t61 -12t75.5 15.5t73.5 38.5zM358 46q-35 -23 -71.5 -35t-72.5 -12q-42 0 -75 15.5t-55.5 43t-34 64.5
t-11.5 81q0 60 20 113.5t54 93t78.5 63t93.5 23.5q62 0 123 -44l22 -16l17 52l35 -4l-60 -502q-13 -115 -61 -164q-49 -50 -145 -50q-30 0 -66 7.5t-64 18.5l9 28l36 -5q25 -4 46.5 -5.5t35.5 -1.5q39 0 66.5 9t45.5 29q19 20 29.5 53.5t17.5 88.5l9 70zM441 561l-20 -18
l-114 108h-3l-140 -108l-15 18l136 130q8 8 19 8h13q8 0 11 -1.5t7 -6.5z" />
    <glyph glyph-name="gbreve" unicode="&#x11f;" horiz-adv-x="521" 
d="M374 97q7 5 8.5 8.5t2.5 8.5l34 275q1 7 -1 10t-7 7q-27 20 -58 32.5t-67 12.5q-39 0 -75 -17t-63 -48.5t-43 -77.5t-16 -103q0 -35 8 -64.5t24.5 -51.5t42.5 -34t61 -12t75.5 15.5t73.5 38.5zM358 46q-35 -23 -71.5 -35t-72.5 -12q-42 0 -75 15.5t-55.5 43t-34 64.5
t-11.5 81q0 60 20 113.5t54 93t78.5 63t93.5 23.5q62 0 123 -44l22 -16l17 52l35 -4l-60 -502q-13 -115 -61 -164q-49 -50 -145 -50q-30 0 -66 7.5t-64 18.5l9 28l36 -5q25 -4 46.5 -5.5t35.5 -1.5q39 0 66.5 9t45.5 29q19 20 29.5 53.5t17.5 88.5l9 70zM306 551
q-23 0 -44 8t-37.5 24t-27 39.5t-13.5 54.5l27 4q11 -38 37 -61t64 -23t71 23t52 61l26 -4q-20 -62 -62 -94t-93 -32z" />
    <glyph glyph-name="gdotaccent" unicode="&#x121;" horiz-adv-x="521" 
d="M374 97q7 5 8.5 8.5t2.5 8.5l34 275q1 7 -1 10t-7 7q-27 20 -58 32.5t-67 12.5q-39 0 -75 -17t-63 -48.5t-43 -77.5t-16 -103q0 -35 8 -64.5t24.5 -51.5t42.5 -34t61 -12t75.5 15.5t73.5 38.5zM358 46q-35 -23 -71.5 -35t-72.5 -12q-42 0 -75 15.5t-55.5 43t-34 64.5
t-11.5 81q0 60 20 113.5t54 93t78.5 63t93.5 23.5q62 0 123 -44l22 -16l17 52l35 -4l-60 -502q-13 -115 -61 -164q-49 -50 -145 -50q-30 0 -66 7.5t-64 18.5l9 28l36 -5q25 -4 46.5 -5.5t35.5 -1.5q39 0 66.5 9t45.5 29q19 20 29.5 53.5t17.5 88.5l9 70zM270 648h64
q12 0 11 -11l-8 -67h-76z" />
    <glyph glyph-name="gcommaaccent" unicode="&#x123;" horiz-adv-x="521" 
d="M385 735l-58 -187h-40q-13 0 -13 13q0 10 5 23t18 36l66 120zM374 97q7 5 8.5 8.5t2.5 8.5l34 275q1 7 -1 10t-7 7q-27 20 -58 32.5t-67 12.5q-39 0 -75 -17t-63 -48.5t-43 -77.5t-16 -103q0 -35 8 -64.5t24.5 -51.5t42.5 -34t61 -12t75.5 15.5t73.5 38.5zM358 46
q-35 -23 -71.5 -35t-72.5 -12q-42 0 -75 15.5t-55.5 43t-34 64.5t-11.5 81q0 60 20 113.5t54 93t78.5 63t93.5 23.5q62 0 123 -44l22 -16l17 52l35 -4l-60 -502q-13 -115 -61 -164q-49 -50 -145 -50q-30 0 -66 7.5t-64 18.5l9 28l36 -5q25 -4 46.5 -5.5t35.5 -1.5
q39 0 66.5 9t45.5 29q19 20 29.5 53.5t17.5 88.5l9 70z" />
    <glyph glyph-name="hcircumflex" unicode="&#x125;" horiz-adv-x="530" 
d="M127 709h51l-31 -259l31 13q36 15 71.5 24t66.5 9q34 0 63 -9t50 -27t33 -44.5t12 -60.5q0 -14 -1.5 -29.5t-3.5 -35.5l-34 -290h-51l35 295q2 19 3.5 33.5t1.5 25.5q0 46 -30.5 70.5t-88.5 24.5q-34 0 -74.5 -9.5t-78.5 -24.5q-5 -2 -7.5 -4.5t-3.5 -8.5l-48 -402h-51z
M295 691l-20 -18l-114 108h-3l-140 -108l-15 18l136 130q8 8 19 8h13q8 0 11 -1.5t7 -6.5z" />
    <glyph glyph-name="hbar" unicode="&#x127;" horiz-adv-x="530" 
d="M112 588h-79l3 23l80 12l11 86h51l-10 -83h209l-5 -38h-209l-16 -138l31 13q36 15 71.5 24t66.5 9q34 0 63 -9t50 -27t33 -44.5t12 -60.5q0 -14 -1.5 -29.5t-3.5 -35.5l-34 -290h-51l35 295q2 19 3.5 33.5t1.5 25.5q0 46 -30.5 70.5t-88.5 24.5q-34 0 -74.5 -9.5
t-78.5 -24.5q-5 -2 -7.5 -4.5t-3.5 -8.5l-48 -402h-51z" />
    <glyph glyph-name="dotlessi" unicode="&#x131;" horiz-adv-x="199" 
d="M104 488h51l-58 -488h-51z" />
    <glyph glyph-name="igrave" unicode="&#xec;" horiz-adv-x="199" 
d="M104 488h51l-58 -488h-51zM14 654l31 40q3 4 5.5 5t7.5 -3l166 -137l-18 -22z" />
    <glyph glyph-name="iacute" unicode="&#xed;" horiz-adv-x="199" 
d="M104 488h51l-58 -488h-51zM51 537l-13 22l198 137q5 3 7.5 3t5.5 -5l22 -40z" />
    <glyph glyph-name="icircumflex" unicode="&#xee;" horiz-adv-x="199" 
d="M104 488h51l-58 -488h-51zM280 561l-20 -18l-114 108h-3l-140 -108l-15 18l136 130q8 8 19 8h13q8 0 11 -1.5t7 -6.5z" />
    <glyph glyph-name="itilde" unicode="&#x129;" horiz-adv-x="199" 
d="M104 488h51l-58 -488h-51zM203 573q-16 0 -32 6.5t-32 14.5t-32 14.5t-31 6.5q-14 0 -30 -9t-30 -33l-24 8q34 80 93 80q16 0 32 -6.5t32 -15t31.5 -15t30.5 -6.5q14 0 30.5 9.5t30.5 33.5l23 -9q-16 -38 -39.5 -58.5t-52.5 -20.5z" />
    <glyph glyph-name="idieresis" unicode="&#xef;" horiz-adv-x="199" 
d="M104 488h51l-58 -488h-51zM29 646h55q12 0 11 -11l-8 -63h-67zM193 646h55q12 0 11 -11l-8 -63h-67z" />
    <glyph glyph-name="imacron" unicode="&#x12b;" horiz-adv-x="199" 
d="M104 488h51l-58 -488h-51zM3 577l5 40h273l-5 -40h-273z" />
    <glyph glyph-name="ibreve" unicode="&#x12d;" horiz-adv-x="199" 
d="M104 488h51l-58 -488h-51zM139 551q-23 0 -44 8t-37.5 24t-27 39.5t-13.5 54.5l27 4q11 -38 37 -61t64 -23t71 23t52 61l26 -4q-20 -62 -62 -94t-93 -32z" />
    <glyph glyph-name="iogonek" unicode="&#x12f;" horiz-adv-x="199" 
d="M97 0q-43 -23 -66 -49t-23 -54q0 -39 50 -39q8 0 15 0.5t13 1.5l31 5l5 -25q-14 -9 -35.5 -14.5t-41.5 -5.5q-40 0 -62.5 21.5t-22.5 50.5q0 33 26 61.5t60 46.5l58 488h51zM121 657h48q11 0 10 -11l-6 -52h-59z" />
    <glyph glyph-name="ij" unicode="&#x133;" horiz-adv-x="399" 
d="M104 488h51l-58 -488h-51zM121 657h48q11 0 10 -11l-6 -52h-59zM287 -83q-9 -76 -38 -110q-34 -40 -105 -40q-14 0 -30.5 1.5t-29.5 4.5l4 26l31 2q63 4 87 28q14 14 20 38t11 63l67 558h51zM321 657h48q11 0 10 -11l-6 -52h-59z" />
    <glyph glyph-name="jcircumflex" unicode="&#x135;" horiz-adv-x="200" 
d="M88 -83q-9 -76 -38 -110q-34 -40 -105 -40q-14 0 -30.5 1.5t-29.5 4.5l4 26l31 2q63 4 87 28q14 14 20 38t11 63l67 558h51zM284 561l-20 -18l-114 108h-3l-140 -108l-15 18l136 130q8 8 19 8h13q8 0 11 -1.5t7 -6.5z" />
    <glyph glyph-name="kcommaaccent" unicode="&#x137;" horiz-adv-x="504" 
d="M458 0h-46q-11 0 -16 8l-142 254q-20 -15 -40.5 -30.5t-39.5 -29t-35 -25t-27 -18.5l-19 -159h-51l85 709h51l-60 -503l349 285l27 -33l-201 -165zM149 -245l58 187h40q13 0 13 -13q0 -10 -5 -23t-18 -36l-66 -120z" />
    <glyph glyph-name="kgreenlandic" unicode="&#x138;" horiz-adv-x="504" 
d="M458 0h-46q-11 0 -16 8l-142 254q-20 -15 -40.5 -30.5t-39.5 -29t-35 -25t-27 -18.5l-19 -159h-51l59 488h51l-34 -282l349 285l27 -33l-201 -165z" />
    <glyph glyph-name="lacute" unicode="&#x13a;" horiz-adv-x="225" 
d="M186 12q-14 -5 -34.5 -9.5t-35.5 -4.5q-32 0 -47 16t-15 43q0 8 3 35l74 617h51l-80 -664l87 -13zM65 722l-13 22l198 137q5 3 7.5 3t5.5 -5l22 -40z" />
    <glyph glyph-name="lcaron" unicode="&#x13e;" horiz-adv-x="285" 
d="M186 12q-14 -5 -34.5 -9.5t-35.5 -4.5q-32 0 -47 16t-15 43q0 8 3 35l74 617h51l-80 -664l87 -13zM207 522l58 187h40q13 0 13 -13q0 -10 -5 -23t-18 -36l-66 -120z" />
    <glyph glyph-name="lcommaaccent" unicode="&#x13c;" horiz-adv-x="225" 
d="M186 12q-14 -5 -34.5 -9.5t-35.5 -4.5q-32 0 -47 16t-15 43q0 8 3 35l74 617h51l-80 -664l87 -13zM27 -245l58 187h40q13 0 13 -13q0 -10 -5 -23t-18 -36l-66 -120z" />
    <glyph glyph-name="lslash" unicode="&#x142;" horiz-adv-x="317" 
d="M146 361l42 348h51l-38 -317l121 76l20 -33l-147 -91l-36 -299l87 -13l-3 -20q-14 -5 -34.5 -9.5t-35.5 -4.5q-32 0 -47 16t-15 43q0 8 3 35l26 220l-105 -65l-20 33z" />
    <glyph glyph-name="longs" unicode="&#x17f;" horiz-adv-x="289" 
d="M100 -206h-51l78 654h-95l4 26l92 13q-3 11 -5 26.5t-2 31.5q0 39 13.5 71t36.5 54.5t54.5 34.5t67.5 12q32 0 64 -10.5t62 -27.5l-13 -27l-21 6q-25 7 -48 11.5t-44 4.5q-59 0 -91 -34.5t-32 -91.5q0 -25 2.5 -46t2.5 -48q0 -24 -3 -54z" />
    <glyph glyph-name="ldot" unicode="&#x140;" horiz-adv-x="331" 
d="M186 12q-14 -5 -34.5 -9.5t-35.5 -4.5q-32 0 -47 16t-15 43q0 8 3 35l74 617h51l-80 -664l87 -13zM245 427h64q12 0 11 -11l-8 -67h-76z" />
    <glyph glyph-name="nacute" unicode="&#x144;" horiz-adv-x="530" 
d="M135 488l7 -40l36 15q36 15 71.5 24t66.5 9q34 0 63 -9t50 -27t33 -44.5t12 -60.5q0 -14 -1.5 -29.5t-3.5 -35.5l-34 -290h-51l35 295q2 19 3.5 33.5t1.5 25.5q0 46 -30.5 70.5t-88.5 24.5q-34 0 -74.5 -9.5t-78.5 -24.5q-5 -2 -7.5 -4.5t-3.5 -8.5l-48 -402h-51l58 488
h35zM235 537l-13 22l198 137q5 3 7.5 3t5.5 -5l22 -40z" />
    <glyph glyph-name="ncaron" unicode="&#x148;" horiz-adv-x="530" 
d="M135 488l7 -40l36 15q36 15 71.5 24t66.5 9q34 0 63 -9t50 -27t33 -44.5t12 -60.5q0 -14 -1.5 -29.5t-3.5 -35.5l-34 -290h-51l35 295q2 19 3.5 33.5t1.5 25.5q0 46 -30.5 70.5t-88.5 24.5q-34 0 -74.5 -9.5t-78.5 -24.5q-5 -2 -7.5 -4.5t-3.5 -8.5l-48 -402h-51l58 488
h35zM189 679l20 18l114 -108h3l140 108l15 -18l-136 -130q-8 -8 -19 -8h-13q-8 0 -11 1.5t-7 6.5z" />
    <glyph glyph-name="ntilde" unicode="&#xf1;" horiz-adv-x="530" 
d="M135 488l7 -40l36 15q36 15 71.5 24t66.5 9q34 0 63 -9t50 -27t33 -44.5t12 -60.5q0 -14 -1.5 -29.5t-3.5 -35.5l-34 -290h-51l35 295q2 19 3.5 33.5t1.5 25.5q0 46 -30.5 70.5t-88.5 24.5q-34 0 -74.5 -9.5t-78.5 -24.5q-5 -2 -7.5 -4.5t-3.5 -8.5l-48 -402h-51l58 488
h35zM372 573q-16 0 -32 6.5t-32 14.5t-32 14.5t-31 6.5q-14 0 -30 -9t-30 -33l-24 8q34 80 93 80q16 0 32 -6.5t32 -15t31.5 -15t30.5 -6.5q14 0 30.5 9.5t30.5 33.5l23 -9q-16 -38 -39.5 -58.5t-52.5 -20.5z" />
    <glyph glyph-name="ncommaaccent" unicode="&#x146;" horiz-adv-x="530" 
d="M135 488l7 -40l36 15q36 15 71.5 24t66.5 9q34 0 63 -9t50 -27t33 -44.5t12 -60.5q0 -14 -1.5 -29.5t-3.5 -35.5l-34 -290h-51l35 295q2 19 3.5 33.5t1.5 25.5q0 46 -30.5 70.5t-88.5 24.5q-34 0 -74.5 -9.5t-78.5 -24.5q-5 -2 -7.5 -4.5t-3.5 -8.5l-48 -402h-51l58 488
h35zM158 -245l58 187h40q13 0 13 -13q0 -10 -5 -23t-18 -36l-66 -120z" />
    <glyph glyph-name="napostrophe" unicode="&#x149;" horiz-adv-x="618" 
d="M223 488l7 -40l36 15q36 15 71.5 24t66.5 9q34 0 63 -9t50 -27t33 -44.5t12 -60.5q0 -14 -1.5 -29.5t-3.5 -35.5l-34 -290h-51l35 295q2 19 3.5 33.5t1.5 25.5q0 46 -30.5 70.5t-88.5 24.5q-34 0 -74.5 -9.5t-78.5 -24.5q-5 -2 -7.5 -4.5t-3.5 -8.5l-48 -402h-51l58 488
h35zM172 663q8 0 10 -2.5t1 -8.5l-3 -29q-2 -21 -7 -37.5t-16 -34.5t-30 -40.5t-49 -55.5l-18 11l67 111q4 7 0 11l-9 9q-5 5 -6.5 8t-0.5 11l5 47h56z" />
    <glyph glyph-name="eng" unicode="&#x14b;" horiz-adv-x="530" 
d="M432 -26q-9 -76 -38 -110q-34 -40 -105 -40q-14 0 -30.5 1.5t-29.5 4.5l4 26l31 2q63 4 87 28q14 14 20 38t11 63l37 308q2 19 3.5 33.5t1.5 25.5q0 46 -30.5 70.5t-88.5 24.5q-34 0 -74.5 -9.5t-78.5 -24.5q-5 -2 -7.5 -4.5t-3.5 -8.5l-48 -402h-51l58 488h35l7 -40
l36 15q36 15 71.5 24t66.5 9q34 0 63 -9t50 -27t33 -44.5t12 -60.5q0 -14 -1.5 -29.5t-3.5 -35.5z" />
    <glyph glyph-name="ograve" unicode="&#xf2;" horiz-adv-x="521" 
d="M241 38q43 0 78.5 19.5t60.5 52t38.5 75t13.5 87.5q0 85 -41 131.5t-111 46.5q-44 0 -79 -19.5t-60 -52t-38.5 -75t-13.5 -87.5q0 -85 41 -131.5t111 -46.5zM239 -8q-41 0 -77.5 15t-64.5 43.5t-44 69t-16 90.5q0 59 19.5 111t53 91t78 61.5t94.5 22.5q41 0 77.5 -15
t64.5 -43.5t44 -69t16 -90.5q0 -59 -19.5 -111t-53 -91t-78 -61.5t-94.5 -22.5zM190 654l31 40q3 4 5.5 5t7.5 -3l166 -137l-18 -22z" />
    <glyph glyph-name="oacute" unicode="&#xf3;" horiz-adv-x="521" 
d="M241 38q43 0 78.5 19.5t60.5 52t38.5 75t13.5 87.5q0 85 -41 131.5t-111 46.5q-44 0 -79 -19.5t-60 -52t-38.5 -75t-13.5 -87.5q0 -85 41 -131.5t111 -46.5zM239 -8q-41 0 -77.5 15t-64.5 43.5t-44 69t-16 90.5q0 59 19.5 111t53 91t78 61.5t94.5 22.5q41 0 77.5 -15
t64.5 -43.5t44 -69t16 -90.5q0 -59 -19.5 -111t-53 -91t-78 -61.5t-94.5 -22.5zM223 537l-13 22l198 137q5 3 7.5 3t5.5 -5l22 -40z" />
    <glyph glyph-name="ocircumflex" unicode="&#xf4;" horiz-adv-x="521" 
d="M241 38q43 0 78.5 19.5t60.5 52t38.5 75t13.5 87.5q0 85 -41 131.5t-111 46.5q-44 0 -79 -19.5t-60 -52t-38.5 -75t-13.5 -87.5q0 -85 41 -131.5t111 -46.5zM239 -8q-41 0 -77.5 15t-64.5 43.5t-44 69t-16 90.5q0 59 19.5 111t53 91t78 61.5t94.5 22.5q41 0 77.5 -15
t64.5 -43.5t44 -69t16 -90.5q0 -59 -19.5 -111t-53 -91t-78 -61.5t-94.5 -22.5zM446 561l-20 -18l-114 108h-3l-140 -108l-15 18l136 130q8 8 19 8h13q8 0 11 -1.5t7 -6.5z" />
    <glyph glyph-name="otilde" unicode="&#xf5;" horiz-adv-x="521" 
d="M241 38q43 0 78.5 19.5t60.5 52t38.5 75t13.5 87.5q0 85 -41 131.5t-111 46.5q-44 0 -79 -19.5t-60 -52t-38.5 -75t-13.5 -87.5q0 -85 41 -131.5t111 -46.5zM239 -8q-41 0 -77.5 15t-64.5 43.5t-44 69t-16 90.5q0 59 19.5 111t53 91t78 61.5t94.5 22.5q41 0 77.5 -15
t64.5 -43.5t44 -69t16 -90.5q0 -59 -19.5 -111t-53 -91t-78 -61.5t-94.5 -22.5zM364 573q-16 0 -32 6.5t-32 14.5t-32 14.5t-31 6.5q-14 0 -30 -9t-30 -33l-24 8q34 80 93 80q16 0 32 -6.5t32 -15t31.5 -15t30.5 -6.5q14 0 30.5 9.5t30.5 33.5l23 -9q-16 -38 -39.5 -58.5
t-52.5 -20.5z" />
    <glyph glyph-name="odieresis" unicode="&#xf6;" horiz-adv-x="521" 
d="M241 38q43 0 78.5 19.5t60.5 52t38.5 75t13.5 87.5q0 85 -41 131.5t-111 46.5q-44 0 -79 -19.5t-60 -52t-38.5 -75t-13.5 -87.5q0 -85 41 -131.5t111 -46.5zM239 -8q-41 0 -77.5 15t-64.5 43.5t-44 69t-16 90.5q0 59 19.5 111t53 91t78 61.5t94.5 22.5q41 0 77.5 -15
t64.5 -43.5t44 -69t16 -90.5q0 -59 -19.5 -111t-53 -91t-78 -61.5t-94.5 -22.5zM192 646h55q12 0 11 -11l-8 -63h-67zM356 646h55q12 0 11 -11l-8 -63h-67z" />
    <glyph glyph-name="omacron" unicode="&#x14d;" horiz-adv-x="521" 
d="M241 38q43 0 78.5 19.5t60.5 52t38.5 75t13.5 87.5q0 85 -41 131.5t-111 46.5q-44 0 -79 -19.5t-60 -52t-38.5 -75t-13.5 -87.5q0 -85 41 -131.5t111 -46.5zM239 -8q-41 0 -77.5 15t-64.5 43.5t-44 69t-16 90.5q0 59 19.5 111t53 91t78 61.5t94.5 22.5q41 0 77.5 -15
t64.5 -43.5t44 -69t16 -90.5q0 -59 -19.5 -111t-53 -91t-78 -61.5t-94.5 -22.5zM166 577l5 40h273l-5 -40h-273z" />
    <glyph glyph-name="obreve" unicode="&#x14f;" horiz-adv-x="521" 
d="M241 38q43 0 78.5 19.5t60.5 52t38.5 75t13.5 87.5q0 85 -41 131.5t-111 46.5q-44 0 -79 -19.5t-60 -52t-38.5 -75t-13.5 -87.5q0 -85 41 -131.5t111 -46.5zM239 -8q-41 0 -77.5 15t-64.5 43.5t-44 69t-16 90.5q0 59 19.5 111t53 91t78 61.5t94.5 22.5q41 0 77.5 -15
t64.5 -43.5t44 -69t16 -90.5q0 -59 -19.5 -111t-53 -91t-78 -61.5t-94.5 -22.5zM299 551q-23 0 -44 8t-37.5 24t-27 39.5t-13.5 54.5l27 4q11 -38 37 -61t64 -23t71 23t52 61l26 -4q-20 -62 -62 -94t-93 -32z" />
    <glyph glyph-name="ohungarumlaut" unicode="&#x151;" horiz-adv-x="521" 
d="M241 38q43 0 78.5 19.5t60.5 52t38.5 75t13.5 87.5q0 85 -41 131.5t-111 46.5q-44 0 -79 -19.5t-60 -52t-38.5 -75t-13.5 -87.5q0 -85 41 -131.5t111 -46.5zM239 -8q-41 0 -77.5 15t-64.5 43.5t-44 69t-16 90.5q0 59 19.5 111t53 91t78 61.5t94.5 22.5q41 0 77.5 -15
t64.5 -43.5t44 -69t16 -90.5q0 -59 -19.5 -111t-53 -91t-78 -61.5t-94.5 -22.5zM182 572l-17 17l144 150q5 5 11 0l27 -31zM334 572l-17 17l144 150q5 5 11 0l27 -31z" />
    <glyph glyph-name="oslash" unicode="&#xf8;" horiz-adv-x="521" 
d="M239 -8q-74 0 -130 47l-78 -90l-30 25l81 94q-21 27 -33 62.5t-12 79.5q0 59 19.5 111t53 91t78 61.5t94.5 22.5q74 0 130 -48l80 93l30 -25l-83 -96q21 -28 33 -63.5t12 -78.5q0 -59 -19.5 -111t-53 -91t-78 -61.5t-94.5 -22.5zM89 216q0 -67 26 -111l266 308
q-39 37 -101 37q-44 0 -79 -19.5t-60 -52t-38.5 -75t-13.5 -87.5zM241 38q43 0 78.5 19.5t60.5 52t38.5 75t13.5 87.5q0 66 -26 110l-266 -308q37 -36 101 -36z" />
    <glyph glyph-name="oslashacute" unicode="&#x1ff;" horiz-adv-x="521" 
d="M239 -8q-74 0 -130 47l-78 -90l-30 25l81 94q-21 27 -33 62.5t-12 79.5q0 59 19.5 111t53 91t78 61.5t94.5 22.5q74 0 130 -48l80 93l30 -25l-83 -96q21 -28 33 -63.5t12 -78.5q0 -59 -19.5 -111t-53 -91t-78 -61.5t-94.5 -22.5zM89 216q0 -67 26 -111l266 308
q-39 37 -101 37q-44 0 -79 -19.5t-60 -52t-38.5 -75t-13.5 -87.5zM241 38q43 0 78.5 19.5t60.5 52t38.5 75t13.5 87.5q0 66 -26 110l-266 -308q37 -36 101 -36zM233 537l-13 22l198 137q5 3 7.5 3t5.5 -5l22 -40z" />
    <glyph glyph-name="oe" unicode="&#x153;" horiz-adv-x="905" 
d="M483 235q-1 -5 -1 -10v-9q0 -40 10 -73t30.5 -57t50.5 -37t70 -13q29 0 60 8t68 23l57 23l14 -24q-43 -31 -97.5 -52.5t-106.5 -21.5q-73 0 -122.5 36.5t-70.5 95.5q-33 -60 -87 -96t-119 -36q-41 0 -77.5 15t-64.5 43.5t-44 69t-16 90.5q0 59 19.5 111t53 91t78 61.5
t94.5 22.5q63 0 113.5 -34.5t73.5 -97.5q33 60 87.5 96t120.5 36q43 0 77.5 -17t58.5 -45.5t37 -66t13 -77.5q0 -33 -6 -44t-23 -11h-351zM241 38q43 0 78.5 19.5t60.5 52t38.5 75t13.5 87.5q0 85 -41 131.5t-111 46.5q-44 0 -79 -19.5t-60 -52t-38.5 -75t-13.5 -87.5
q0 -85 41 -131.5t111 -46.5zM816 274q0 81 -37.5 129t-106.5 48q-36 0 -67.5 -14t-55.5 -38.5t-39.5 -56.5t-21.5 -68h328z" />
    <glyph glyph-name="thorn" unicode="&#xfe;" horiz-adv-x="524" 
d="M127 709h51l-34 -276l22 14q38 25 74.5 37t69.5 12q43 0 75.5 -16.5t55 -45t34 -67t11.5 -81.5q0 -60 -19 -113.5t-51.5 -93.5t-76 -63.5t-92.5 -23.5q-32 0 -65 11.5t-64 32.5l-19 13l-33 -278h-51zM151 398q-7 -5 -9 -8t-3 -9l-34 -282q-1 -11 8 -18q27 -20 61.5 -32
t70.5 -12q38 0 72.5 17t60.5 49.5t41.5 78t15.5 102.5q0 35 -7.5 65.5t-23.5 53.5t-41 36t-60 13t-77 -16t-75 -38z" />
    <glyph glyph-name="racute" unicode="&#x155;" horiz-adv-x="325" 
d="M141 411l36 20q36 20 59.5 32.5t39.5 20t27 10t20 2.5q15 0 32 -11l-4 -28q-17 -5 -42.5 -14t-53.5 -20t-56 -23t-51 -22q-6 -3 -8 -5.5t-3 -8.5l-44 -364h-51l58 488h39zM180 537l-13 22l198 137q5 3 7.5 3t5.5 -5l22 -40z" />
    <glyph glyph-name="rcaron" unicode="&#x159;" horiz-adv-x="325" 
d="M141 411l36 20q36 20 59.5 32.5t39.5 20t27 10t20 2.5q15 0 32 -11l-4 -28q-17 -5 -42.5 -14t-53.5 -20t-56 -23t-51 -22q-6 -3 -8 -5.5t-3 -8.5l-44 -364h-51l58 488h39zM117 679l20 18l114 -108h3l140 108l15 -18l-136 -130q-8 -8 -19 -8h-13q-8 0 -11 1.5t-7 6.5z" />
    <glyph glyph-name="rcommaaccent" unicode="&#x157;" horiz-adv-x="325" 
d="M141 411l36 20q36 20 59.5 32.5t39.5 20t27 10t20 2.5q15 0 32 -11l-4 -28q-17 -5 -42.5 -14t-53.5 -20t-56 -23t-51 -22q-6 -3 -8 -5.5t-3 -8.5l-44 -364h-51l58 488h39zM-21 -245l58 187h40q13 0 13 -13q0 -10 -5 -23t-18 -36l-66 -120z" />
    <glyph glyph-name="sacute" unicode="&#x15b;" horiz-adv-x="428" 
d="M72 49q29 -7 59.5 -11t50.5 -4q35 0 60.5 8t45.5 24q15 13 24 30t9 39q0 32 -21.5 52.5t-75.5 43.5l-45 20q-55 24 -84.5 51t-29.5 70q0 28 13 50.5t35.5 39t53.5 25.5t67 9t75.5 -7.5t73.5 -20.5l-9 -29l-33 5q-26 4 -54 6.5t-53 2.5q-60 0 -91.5 -20.5t-31.5 -57.5
q0 -29 21.5 -46.5t71.5 -39.5l45 -20q59 -26 89.5 -55t30.5 -74q0 -31 -13.5 -58t-37.5 -47t-57.5 -31.5t-73.5 -11.5q-42 0 -88.5 11.5t-79.5 28.5l12 26zM158 537l-13 22l198 137q5 3 7.5 3t5.5 -5l22 -40z" />
    <glyph glyph-name="scircumflex" unicode="&#x15d;" horiz-adv-x="437" 
d="M72 49q29 -7 59.5 -11t50.5 -4q35 0 60.5 8t45.5 24q15 13 24 30t9 39q0 32 -21.5 52.5t-75.5 43.5l-45 20q-55 24 -84.5 51t-29.5 70q0 28 13 50.5t35.5 39t53.5 25.5t67 9t75.5 -7.5t73.5 -20.5l-9 -29l-33 5q-26 4 -54 6.5t-53 2.5q-60 0 -91.5 -20.5t-31.5 -57.5
q0 -29 21.5 -46.5t71.5 -39.5l45 -20q59 -26 89.5 -55t30.5 -74q0 -31 -13.5 -58t-37.5 -47t-57.5 -31.5t-73.5 -11.5q-42 0 -88.5 11.5t-79.5 28.5l12 26zM392 561l-20 -18l-114 108h-3l-140 -108l-15 18l136 130q8 8 19 8h13q8 0 11 -1.5t7 -6.5z" />
    <glyph glyph-name="scaron" unicode="&#x161;" horiz-adv-x="450" 
d="M72 49q29 -7 59.5 -11t50.5 -4q35 0 60.5 8t45.5 24q15 13 24 30t9 39q0 32 -21.5 52.5t-75.5 43.5l-45 20q-55 24 -84.5 51t-29.5 70q0 28 13 50.5t35.5 39t53.5 25.5t67 9t75.5 -7.5t73.5 -20.5l-9 -29l-33 5q-26 4 -54 6.5t-53 2.5q-60 0 -91.5 -20.5t-31.5 -57.5
q0 -29 21.5 -46.5t71.5 -39.5l45 -20q59 -26 89.5 -55t30.5 -74q0 -31 -13.5 -58t-37.5 -47t-57.5 -31.5t-73.5 -11.5q-42 0 -88.5 11.5t-79.5 28.5l12 26zM113 679l20 18l114 -108h3l140 108l15 -18l-136 -130q-8 -8 -19 -8h-13q-8 0 -11 1.5t-7 6.5z" />
    <glyph glyph-name="scedilla" unicode="&#x15f;" horiz-adv-x="428" 
d="M72 49q29 -7 59.5 -11t50.5 -4q35 0 60.5 8t45.5 24q15 13 24 30t9 39q0 32 -21.5 52.5t-75.5 43.5l-45 20q-55 24 -84.5 51t-29.5 70q0 28 13 50.5t35.5 39t53.5 25.5t67 9t75.5 -7.5t73.5 -20.5l-9 -29l-33 5q-26 4 -54 6.5t-53 2.5q-60 0 -91.5 -20.5t-31.5 -57.5
q0 -29 21.5 -46.5t71.5 -39.5l45 -20q59 -26 89.5 -55t30.5 -74q0 -31 -13 -57.5t-37 -46.5t-57.5 -32t-73.5 -12q-7 -14 -7 -23q0 -11 15.5 -18t33.5 -16t33.5 -23t15.5 -37q0 -20 -12.5 -34.5t-34.5 -25t-52 -16.5t-65 -8l-6 28l71 17q26 6 39.5 13.5t13.5 19.5t-15 21
t-33.5 17.5t-33.5 19t-15 25.5q0 18 19 42q-36 4 -72.5 14t-63.5 24l12 26z" />
    <glyph glyph-name="scommaaccent" unicode="&#x219;" horiz-adv-x="428" 
d="M72 49q29 -7 59.5 -11t50.5 -4q35 0 60.5 8t45.5 24q15 13 24 30t9 39q0 32 -21.5 52.5t-75.5 43.5l-45 20q-55 24 -84.5 51t-29.5 70q0 28 13 50.5t35.5 39t53.5 25.5t67 9t75.5 -7.5t73.5 -20.5l-9 -29l-33 5q-26 4 -54 6.5t-53 2.5q-60 0 -91.5 -20.5t-31.5 -57.5
q0 -29 21.5 -46.5t71.5 -39.5l45 -20q59 -26 89.5 -55t30.5 -74q0 -31 -13.5 -58t-37.5 -47t-57.5 -31.5t-73.5 -11.5q-42 0 -88.5 11.5t-79.5 28.5l12 26zM105 -245l58 187h40q13 0 13 -13q0 -10 -5 -23t-18 -36l-66 -120z" />
    <glyph glyph-name="germandbls" unicode="&#xdf;" horiz-adv-x="601" 
d="M131 487q7 51 27.5 93t52.5 72.5t74 47.5t92 17q32 0 61.5 -8.5t51.5 -25t35 -39.5t13 -53q0 -45 -27.5 -76t-72.5 -60l-57 -38q-31 -20 -47.5 -35t-16.5 -33q0 -17 16.5 -28.5t47.5 -25.5l53 -23q33 -14 56.5 -28t38.5 -29t22.5 -33t7.5 -40q0 -34 -14 -61.5t-38.5 -47
t-57.5 -30.5t-71 -11q-39 0 -85 13t-86 34l13 26l32 -9q43 -12 72.5 -17t54.5 -5q60 0 96 29.5t36 74.5q0 32 -21.5 50.5t-70.5 40.5l-57 25q-45 20 -68 40t-23 49q0 31 25 55.5t77 60.5l48 33q38 26 54 47.5t16 50.5q0 38 -31 61t-86 23q-45 0 -79 -14.5t-57 -40.5
q-24 -27 -38 -65.5t-21 -95.5l-76 -637h-51l75 627h-95l4 26z" />
    <glyph glyph-name="tcaron" unicode="&#x165;" horiz-adv-x="377" 
d="M335 30q-34 -18 -69.5 -28t-67.5 -10q-54 0 -83 30t-29 79q0 14 2 34.5t5 44.5l32 268h-94l4 26l95 14l17 141h51l-17 -141h172l-5 -40h-172l-34 -279q-2 -21 -3.5 -38.5t-1.5 -28.5q0 -32 16 -49.5t54 -17.5q16 0 36 3.5t40 8.5l41 11zM252 542l58 187h40q13 0 13 -13
q0 -10 -5 -23t-18 -36l-66 -120z" />
    <glyph glyph-name="tcommaaccent" unicode="&#x163;" horiz-adv-x="377" 
d="M335 30q-34 -18 -69.5 -28t-67.5 -10q-54 0 -83 30t-29 79q0 14 2 34.5t5 44.5l32 268h-94l4 26l95 14l17 141h51l-17 -141h172l-5 -40h-172l-34 -279q-2 -21 -3.5 -38.5t-1.5 -28.5q0 -32 16 -49.5t54 -17.5q16 0 36 3.5t40 8.5l41 11zM112 -245l58 187h40q13 0 13 -13
q0 -10 -5 -23t-18 -36l-66 -120z" />
    <glyph glyph-name="uni021B" unicode="&#x21b;" horiz-adv-x="377" 
d="M335 30q-34 -18 -69.5 -28t-67.5 -10q-54 0 -83 30t-29 79q0 14 2 34.5t5 44.5l32 268h-94l4 26l95 14l17 141h51l-17 -141h172l-5 -40h-172l-34 -279q-2 -21 -3.5 -38.5t-1.5 -28.5q0 -32 16 -49.5t54 -17.5q16 0 36 3.5t40 8.5l41 11zM112 -245l58 187h40q13 0 13 -13
q0 -10 -5 -23t-18 -36l-66 -120z" />
    <glyph glyph-name="tbar" unicode="&#x167;" horiz-adv-x="377" 
d="M335 30q-34 -18 -69.5 -28t-67.5 -10q-54 0 -83 30t-29 79q0 14 2 34.5t5 44.5l7 59h-89l4 23l89 13l21 173h-94l4 26l95 14l17 141h51l-17 -141h172l-5 -40h-172l-21 -171h155l-5 -38h-155l-8 -70q-2 -21 -3.5 -38.5t-1.5 -28.5q0 -32 16 -49.5t54 -17.5q16 0 36 3.5
t40 8.5l41 11z" />
    <glyph glyph-name="ugrave" unicode="&#xf9;" horiz-adv-x="525" 
d="M392 0l-7 40l-36 -15q-38 -16 -71.5 -24.5t-64.5 -8.5q-34 0 -62.5 9t-49.5 27t-32.5 44.5t-11.5 60.5q0 14 1.5 29.5t3.5 35.5l34 290h51l-35 -295q-2 -19 -3.5 -33.5t-1.5 -25.5q0 -46 30 -70.5t87 -24.5q35 0 74 9.5t77 24.5q5 2 7.5 4.5t3.5 8.5l48 402h51l-58 -488
h-35zM177 654l31 40q3 4 5.5 5t7.5 -3l166 -137l-18 -22z" />
    <glyph glyph-name="uacute" unicode="&#xfa;" horiz-adv-x="525" 
d="M392 0l-7 40l-36 -15q-38 -16 -71.5 -24.5t-64.5 -8.5q-34 0 -62.5 9t-49.5 27t-32.5 44.5t-11.5 60.5q0 14 1.5 29.5t3.5 35.5l34 290h51l-35 -295q-2 -19 -3.5 -33.5t-1.5 -25.5q0 -46 30 -70.5t87 -24.5q35 0 74 9.5t77 24.5q5 2 7.5 4.5t3.5 8.5l48 402h51l-58 -488
h-35zM232 537l-13 22l198 137q5 3 7.5 3t5.5 -5l22 -40z" />
    <glyph glyph-name="ucircumflex" unicode="&#xfb;" horiz-adv-x="525" 
d="M392 0l-7 40l-36 -15q-38 -16 -71.5 -24.5t-64.5 -8.5q-34 0 -62.5 9t-49.5 27t-32.5 44.5t-11.5 60.5q0 14 1.5 29.5t3.5 35.5l34 290h51l-35 -295q-2 -19 -3.5 -33.5t-1.5 -25.5q0 -46 30 -70.5t87 -24.5q35 0 74 9.5t77 24.5q5 2 7.5 4.5t3.5 8.5l48 402h51l-58 -488
h-35zM442 561l-20 -18l-114 108h-3l-140 -108l-15 18l136 130q8 8 19 8h13q8 0 11 -1.5t7 -6.5z" />
    <glyph glyph-name="utilde" unicode="&#x169;" horiz-adv-x="525" 
d="M392 0l-7 40l-36 -15q-38 -16 -71.5 -24.5t-64.5 -8.5q-34 0 -62.5 9t-49.5 27t-32.5 44.5t-11.5 60.5q0 14 1.5 29.5t3.5 35.5l34 290h51l-35 -295q-2 -19 -3.5 -33.5t-1.5 -25.5q0 -46 30 -70.5t87 -24.5q35 0 74 9.5t77 24.5q5 2 7.5 4.5t3.5 8.5l48 402h51l-58 -488
h-35zM365 573q-16 0 -32 6.5t-32 14.5t-32 14.5t-31 6.5q-14 0 -30 -9t-30 -33l-24 8q34 80 93 80q16 0 32 -6.5t32 -15t31.5 -15t30.5 -6.5q14 0 30.5 9.5t30.5 33.5l23 -9q-16 -38 -39.5 -58.5t-52.5 -20.5z" />
    <glyph glyph-name="udieresis" unicode="&#xfc;" horiz-adv-x="525" 
d="M392 0l-7 40l-36 -15q-38 -16 -71.5 -24.5t-64.5 -8.5q-34 0 -62.5 9t-49.5 27t-32.5 44.5t-11.5 60.5q0 14 1.5 29.5t3.5 35.5l34 290h51l-35 -295q-2 -19 -3.5 -33.5t-1.5 -25.5q0 -46 30 -70.5t87 -24.5q35 0 74 9.5t77 24.5q5 2 7.5 4.5t3.5 8.5l48 402h51l-58 -488
h-35zM190 646h55q12 0 11 -11l-8 -63h-67zM354 646h55q12 0 11 -11l-8 -63h-67z" />
    <glyph glyph-name="umacron" unicode="&#x16b;" horiz-adv-x="525" 
d="M392 0l-7 40l-36 -15q-38 -16 -71.5 -24.5t-64.5 -8.5q-34 0 -62.5 9t-49.5 27t-32.5 44.5t-11.5 60.5q0 14 1.5 29.5t3.5 35.5l34 290h51l-35 -295q-2 -19 -3.5 -33.5t-1.5 -25.5q0 -46 30 -70.5t87 -24.5q35 0 74 9.5t77 24.5q5 2 7.5 4.5t3.5 8.5l48 402h51l-58 -488
h-35zM161 577l5 40h273l-5 -40h-273z" />
    <glyph glyph-name="ubreve" unicode="&#x16d;" horiz-adv-x="525" 
d="M392 0l-7 40l-36 -15q-38 -16 -71.5 -24.5t-64.5 -8.5q-34 0 -62.5 9t-49.5 27t-32.5 44.5t-11.5 60.5q0 14 1.5 29.5t3.5 35.5l34 290h51l-35 -295q-2 -19 -3.5 -33.5t-1.5 -25.5q0 -46 30 -70.5t87 -24.5q35 0 74 9.5t77 24.5q5 2 7.5 4.5t3.5 8.5l48 402h51l-58 -488
h-35zM294 551q-23 0 -44 8t-37.5 24t-27 39.5t-13.5 54.5l27 4q11 -38 37 -61t64 -23t71 23t52 61l26 -4q-20 -62 -62 -94t-93 -32z" />
    <glyph glyph-name="uring" unicode="&#x16f;" horiz-adv-x="525" 
d="M392 0l-7 40l-36 -15q-38 -16 -71.5 -24.5t-64.5 -8.5q-34 0 -62.5 9t-49.5 27t-32.5 44.5t-11.5 60.5q0 14 1.5 29.5t3.5 35.5l34 290h51l-35 -295q-2 -19 -3.5 -33.5t-1.5 -25.5q0 -46 30 -70.5t87 -24.5q35 0 74 9.5t77 24.5q5 2 7.5 4.5t3.5 8.5l48 402h51l-58 -488
h-35zM399 653q0 -20 -7.5 -38.5t-21 -32t-31.5 -21.5t-39 -8q-41 0 -66 27t-25 63q0 20 7.5 38.5t21 32t31.5 21.5t39 8q42 0 66.5 -27t24.5 -63zM361 651q0 20 -14 37.5t-40 17.5q-24 0 -41.5 -16t-17.5 -45q0 -20 13.5 -38t39.5 -18q24 0 42 16.5t18 45.5z" />
    <glyph glyph-name="uhungarumlaut" unicode="&#x171;" horiz-adv-x="525" 
d="M392 0l-7 40l-36 -15q-38 -16 -71.5 -24.5t-64.5 -8.5q-34 0 -62.5 9t-49.5 27t-32.5 44.5t-11.5 60.5q0 14 1.5 29.5t3.5 35.5l34 290h51l-35 -295q-2 -19 -3.5 -33.5t-1.5 -25.5q0 -46 30 -70.5t87 -24.5q35 0 74 9.5t77 24.5q5 2 7.5 4.5t3.5 8.5l48 402h51l-58 -488
h-35zM183 572l-17 17l144 150q5 5 11 0l27 -31zM335 572l-17 17l144 150q5 5 11 0l27 -31z" />
    <glyph glyph-name="uogonek" unicode="&#x173;" horiz-adv-x="525" 
d="M279 -108q0 19 9.5 36.5t25 32.5t35.5 26.5t41 20.5l-5 32l-36 -15q-38 -16 -71.5 -24.5t-64.5 -8.5q-34 0 -62.5 9t-49.5 27t-32.5 44.5t-11.5 60.5q0 14 1.5 29.5t3.5 35.5l34 290h51l-35 -295q-2 -19 -3.5 -33.5t-1.5 -25.5q0 -46 30 -70.5t87 -24.5q35 0 74 9.5
t77 24.5q5 2 7.5 4.5t3.5 8.5l48 402h51l-58 -488q-48 -26 -74 -50.5t-26 -52.5q0 -20 12.5 -29.5t32.5 -9.5q9 0 20.5 1t40.5 6l5 -25q-14 -8 -35.5 -14t-41.5 -6q-39 0 -60.5 21.5t-21.5 50.5z" />
    <glyph glyph-name="wgrave" unicode="&#x1e81;" horiz-adv-x="751" 
d="M416 488q10 0 12 -8l66 -293q9 -42 16.5 -79.5t11.5 -63.5q11 29 27 66t34 79l128 292q2 5 4 6t8 1h41l-218 -488h-47q-11 0 -13 8l-66 292q-11 46 -17.5 83.5t-9.5 58.5q-8 -21 -21 -58t-33 -85l-122 -299h-45q-7 0 -8.5 1.5t-3.5 6.5l-129 480h42q10 0 12 -8l74 -286
q10 -38 20 -80t15 -69q10 29 25 70.5t29 75.5l119 297h49zM303 654l31 40q3 4 5.5 5t7.5 -3l166 -137l-18 -22z" />
    <glyph glyph-name="wacute" unicode="&#x1e83;" horiz-adv-x="751" 
d="M416 488q10 0 12 -8l66 -293q9 -42 16.5 -79.5t11.5 -63.5q11 29 27 66t34 79l128 292q2 5 4 6t8 1h41l-218 -488h-47q-11 0 -13 8l-66 292q-11 46 -17.5 83.5t-9.5 58.5q-8 -21 -21 -58t-33 -85l-122 -299h-45q-7 0 -8.5 1.5t-3.5 6.5l-129 480h42q10 0 12 -8l74 -286
q10 -38 20 -80t15 -69q10 29 25 70.5t29 75.5l119 297h49zM313 537l-13 22l198 137q5 3 7.5 3t5.5 -5l22 -40z" />
    <glyph glyph-name="wcircumflex" unicode="&#x175;" horiz-adv-x="751" 
d="M416 488q10 0 12 -8l66 -293q9 -42 16.5 -79.5t11.5 -63.5q11 29 27 66t34 79l128 292q2 5 4 6t8 1h41l-218 -488h-47q-11 0 -13 8l-66 292q-11 46 -17.5 83.5t-9.5 58.5q-8 -21 -21 -58t-33 -85l-122 -299h-45q-7 0 -8.5 1.5t-3.5 6.5l-129 480h42q10 0 12 -8l74 -286
q10 -38 20 -80t15 -69q10 29 25 70.5t29 75.5l119 297h49zM552 561l-20 -18l-114 108h-3l-140 -108l-15 18l136 130q8 8 19 8h13q8 0 11 -1.5t7 -6.5z" />
    <glyph glyph-name="wdieresis" unicode="&#x1e85;" horiz-adv-x="751" 
d="M416 488q10 0 12 -8l66 -293q9 -42 16.5 -79.5t11.5 -63.5q11 29 27 66t34 79l128 292q2 5 4 6t8 1h41l-218 -488h-47q-11 0 -13 8l-66 292q-11 46 -17.5 83.5t-9.5 58.5q-8 -21 -21 -58t-33 -85l-122 -299h-45q-7 0 -8.5 1.5t-3.5 6.5l-129 480h42q10 0 12 -8l74 -286
q10 -38 20 -80t15 -69q10 29 25 70.5t29 75.5l119 297h49zM298 646h55q12 0 11 -11l-8 -63h-67zM462 646h55q12 0 11 -11l-8 -63h-67z" />
    <glyph glyph-name="ygrave" unicode="&#x1ef3;" horiz-adv-x="473" 
d="M77 488q8 0 10 -7l92 -315q10 -35 19 -68t14 -53l63 123l162 313q4 7 13 7h43l-384 -723l-42 16l116 216l-151 491h45zM114 654l31 40q3 4 5.5 5t7.5 -3l166 -137l-18 -22z" />
    <glyph glyph-name="yacute" unicode="&#xfd;" horiz-adv-x="473" 
d="M77 488q8 0 10 -7l92 -315q10 -35 19 -68t14 -53l63 123l162 313q4 7 13 7h43l-384 -723l-42 16l116 216l-151 491h45zM204 537l-13 22l198 137q5 3 7.5 3t5.5 -5l22 -40z" />
    <glyph glyph-name="ycircumflex" unicode="&#x177;" horiz-adv-x="473" 
d="M77 488q8 0 10 -7l92 -315q10 -35 19 -68t14 -53l63 123l162 313q4 7 13 7h43l-384 -723l-42 16l116 216l-151 491h45zM412 561l-20 -18l-114 108h-3l-140 -108l-15 18l136 130q8 8 19 8h13q8 0 11 -1.5t7 -6.5z" />
    <glyph glyph-name="ydieresis" unicode="&#xff;" horiz-adv-x="473" 
d="M77 488q8 0 10 -7l92 -315q10 -35 19 -68t14 -53l63 123l162 313q4 7 13 7h43l-384 -723l-42 16l116 216l-151 491h45zM160 646h55q12 0 11 -11l-8 -63h-67zM324 646h55q12 0 11 -11l-8 -63h-67z" />
    <glyph glyph-name="zacute" unicode="&#x17a;" horiz-adv-x="434" 
d="M177 160q-39 -48 -64 -77t-39 -43h303l-5 -40h-366l2 19q1 7 2 9.5t5 7.5l244 292q39 48 64 77t39 43h-297l5 40h360l-2 -20q-1 -9 -7 -16zM171 537l-13 22l198 137q5 3 7.5 3t5.5 -5l22 -40z" />
    <glyph glyph-name="zcaron" unicode="&#x17e;" horiz-adv-x="434" 
d="M177 160q-39 -48 -64 -77t-39 -43h303l-5 -40h-366l2 19q1 7 2 9.5t5 7.5l244 292q39 48 64 77t39 43h-297l5 40h360l-2 -20q-1 -9 -7 -16zM122 679l20 18l114 -108h3l140 108l15 -18l-136 -130q-8 -8 -19 -8h-13q-8 0 -11 1.5t-7 6.5z" />
    <glyph glyph-name="zdotaccent" unicode="&#x17c;" horiz-adv-x="434" 
d="M177 160q-39 -48 -64 -77t-39 -43h303l-5 -40h-366l2 19q1 7 2 9.5t5 7.5l244 292q39 48 64 77t39 43h-297l5 40h360l-2 -20q-1 -9 -7 -16zM228 648h64q12 0 11 -11l-8 -67h-76z" />
    <glyph glyph-name="apple" unicode="&#xf8ff;" horiz-adv-x="536" 
d="M208 357q0 13 9.5 22t21.5 9q13 0 21.5 -9t8.5 -22t-8.5 -21.5t-21.5 -8.5q-12 0 -21.5 8.5t-9.5 21.5zM405 357q0 13 9.5 22t21.5 9q13 0 21.5 -9t8.5 -22t-8.5 -21.5t-21.5 -8.5q-12 0 -21.5 8.5t-9.5 21.5zM78 161q0 13 8.5 21.5t21.5 8.5q12 0 21.5 -8.5t9.5 -21.5
t-9.5 -22t-21.5 -9q-13 0 -21.5 9t-8.5 22zM78 357q0 13 8.5 22t21.5 9q12 0 21.5 -9t9.5 -22t-9.5 -21.5t-21.5 -8.5q-13 0 -21.5 8.5t-8.5 21.5zM275 357q0 13 8.5 22t21.5 9q12 0 21.5 -9t9.5 -22t-9.5 -21.5t-21.5 -8.5q-13 0 -21.5 8.5t-8.5 21.5zM340 620q0 12 8.5 21
t22.5 9q11 0 20.5 -9t9.5 -21q0 -14 -9.5 -22.5t-20.5 -8.5q-14 0 -22.5 8.5t-8.5 22.5zM78 620q0 12 8.5 21t21.5 9q12 0 21.5 -9t9.5 -21q0 -14 -9.5 -22.5t-21.5 -8.5q-13 0 -21.5 8.5t-8.5 22.5zM275 620q0 12 8.5 21t21.5 9q12 0 21.5 -9t9.5 -21q0 -14 -9.5 -22.5
t-21.5 -8.5q-13 0 -21.5 8.5t-8.5 22.5zM405 620q0 12 9.5 21t21.5 9q13 0 21.5 -9t8.5 -21q0 -14 -8.5 -22.5t-21.5 -8.5q-12 0 -21.5 8.5t-9.5 22.5zM208 620q0 12 9.5 21t21.5 9q13 0 21.5 -9t8.5 -21q0 -14 -8.5 -22.5t-21.5 -8.5q-12 0 -21.5 8.5t-9.5 22.5zM340 357
q0 13 8.5 22t22.5 9q11 0 20.5 -9t9.5 -22t-9.5 -21.5t-20.5 -8.5q-14 0 -22.5 8.5t-8.5 21.5zM208 30q0 12 9.5 21.5t21.5 9.5q13 0 21.5 -9.5t8.5 -21.5q0 -13 -8.5 -21.5t-21.5 -8.5q-12 0 -21.5 8.5t-9.5 21.5zM78 30q0 12 8.5 21.5t21.5 9.5q12 0 21.5 -9.5t9.5 -21.5
q0 -13 -9.5 -21.5t-21.5 -8.5q-13 0 -21.5 8.5t-8.5 21.5zM208 95q0 14 9.5 22t21.5 8q13 0 21.5 -8t8.5 -22q0 -13 -8.5 -21.5t-21.5 -8.5q-12 0 -21.5 8.5t-9.5 21.5zM78 95q0 14 8.5 22t21.5 8q12 0 21.5 -8t9.5 -22q0 -13 -9.5 -21.5t-21.5 -8.5q-13 0 -21.5 8.5
t-8.5 21.5zM144 620q0 12 9 21t21 9q13 0 21.5 -9t8.5 -21q0 -14 -8.5 -22.5t-21.5 -8.5q-12 0 -21 8.5t-9 22.5zM78 489q0 12 8.5 20.5t21.5 8.5q12 0 21.5 -8.5t9.5 -20.5q0 -13 -9.5 -22t-21.5 -9q-13 0 -21.5 9t-8.5 22zM275 489q0 12 8.5 20.5t21.5 8.5q12 0 21.5 -8.5
t9.5 -20.5q0 -13 -9.5 -22t-21.5 -9q-13 0 -21.5 9t-8.5 22zM208 489q0 12 9.5 20.5t21.5 8.5q13 0 21.5 -8.5t8.5 -20.5q0 -13 -8.5 -22t-21.5 -9q-12 0 -21.5 9t-9.5 22zM405 489q0 12 9.5 20.5t21.5 8.5q13 0 21.5 -8.5t8.5 -20.5q0 -13 -8.5 -22t-21.5 -9q-12 0 -21.5 9
t-9.5 22zM340 489q0 12 8.5 20.5t22.5 8.5q11 0 20.5 -8.5t9.5 -20.5q0 -13 -9.5 -22t-20.5 -9q-14 0 -22.5 9t-8.5 22zM144 30q0 12 9 21.5t21 9.5q13 0 21.5 -9.5t8.5 -21.5q0 -13 -8.5 -21.5t-21.5 -8.5q-12 0 -21 8.5t-9 21.5zM78 292q0 12 8.5 21t21.5 9q12 0 21.5 -9
t9.5 -21q0 -13 -9.5 -21.5t-21.5 -8.5q-13 0 -21.5 8.5t-8.5 21.5zM78 554q0 12 8.5 21t21.5 9q12 0 21.5 -9t9.5 -21q0 -13 -9.5 -21.5t-21.5 -8.5q-13 0 -21.5 8.5t-8.5 21.5zM405 292q0 12 9.5 21t21.5 9q13 0 21.5 -9t8.5 -21q0 -13 -8.5 -21.5t-21.5 -8.5
q-12 0 -21.5 8.5t-9.5 21.5zM78 423q0 13 8.5 21.5t21.5 8.5q12 0 21.5 -8.5t9.5 -21.5t-9.5 -21t-21.5 -8q-13 0 -21.5 8t-8.5 21zM208 423q0 13 9.5 21.5t21.5 8.5q13 0 21.5 -8.5t8.5 -21.5t-8.5 -21t-21.5 -8q-12 0 -21.5 8t-9.5 21zM208 227q0 12 9.5 20.5t21.5 8.5
q13 0 21.5 -8.5t8.5 -20.5q0 -13 -8.5 -21.5t-21.5 -8.5q-12 0 -21.5 8.5t-9.5 21.5zM405 227q0 12 9.5 20.5t21.5 8.5q13 0 21.5 -8.5t8.5 -20.5q0 -13 -8.5 -21.5t-21.5 -8.5q-12 0 -21.5 8.5t-9.5 21.5zM78 227q0 12 8.5 20.5t21.5 8.5q12 0 21.5 -8.5t9.5 -20.5
q0 -13 -9.5 -21.5t-21.5 -8.5q-13 0 -21.5 8.5t-8.5 21.5zM275 227q0 12 8.5 20.5t21.5 8.5q12 0 21.5 -8.5t9.5 -20.5q0 -13 -9.5 -21.5t-21.5 -8.5q-13 0 -21.5 8.5t-8.5 21.5zM340 227q0 12 8.5 20.5t22.5 8.5q11 0 20.5 -8.5t9.5 -20.5q0 -13 -9.5 -21.5t-20.5 -8.5
q-14 0 -22.5 8.5t-8.5 21.5z" />
    </font>
</defs>
</svg>
